<svg xmlns="http://www.w3.org/2000/svg" width="672" height="147" fill="none" viewBox="0 0 672 147">
  <g clip-path="url(#a)">
    <path fill="#616466" d="M635.096 41.258a2.57 2.57 0 0 0 1.229 3.409 2.57 2.57 0 0 0 3.409-1.229l-4.638-2.18Z"/>
    <path fill="#FFCE31" d="m636.023 34.615 8.175 3.842c1.636-2.275 4.346-3.974 7.168-5.762 3.303-2.058 6.719-4.204 8.108-7.16 2.644-5.624-.421-12.657-6.799-15.655-6.377-2.998-13.748-.87-16.391 4.754-1.39 2.956-.863 6.956-.398 10.785.424 3.314.845 6.485.137 9.196Z"/>
    <path fill="#C79127" d="M640.818 26.675c-.106.375-.153.778-.259 1.153-.126.72-.282 1.354-.408 2.073-.514 2.448-.922 4.522-1.198 6.162l.348.163c.392-1.585.885-3.69 1.399-6.138.156-.634.282-1.353.466-2.046.078-.317.184-.692.204-1.036.519.102 1.784.272 3.458-.428.529 1.735 1.467 2.601 1.876 2.935-.221.32-.416.583-.668.818-.416.584-.889 1.14-1.278 1.665a180.936 180.936 0 0 0-3.833 4.994l.347.163c1.03-1.286 2.423-2.896 3.981-4.854.388-.525.862-1.081 1.336-1.637.221-.32.501-.614.722-.934.491.16.952.234 1.378.08.511-.184.876-.508.978-1.026.051-.26.071-.604-.249-.825a.71.71 0 0 0-.464-.218.986.986 0 0 0-.457.068c-.454.212-.733.505-1.012.799l-.42.44s-.491-.16-1.238-1.432c-.389-.678-.427-1.05-.519-1.306.283-.15.539-.242.849-.45.14-.147.252-.235.419-.44.082-.174.191-.406.157-.634-.034-.229-.069-.457-.304-.71-.089-.112-.205-.166-.321-.22-.116-.055-.232-.11-.375-.107-.286.008-.542.1-.74.22-.197.119-.306.35-.388.524a1.025 1.025 0 0 0-.071.604c-.021.344.044.658.194.94-.255.093-.565.301-1.336.434-1.371.206-1.892-.04-1.892-.04l.071-.603c.047-.402.095-.805-.031-1.289-.031-.085-.093-.256-.239-.395-.147-.14-.321-.222-.464-.218-.402-.048-.655.187-.794.334-.276.437-.293.924-.167 1.408.212.454.563.76.942 1.01Zm7.134 2.292c.252-.236.532-.529.845-.594.085-.03.143-.003.143-.003l.116.054c.058.027.089.113.065.314-.051.259-.33.552-.644.617a2.369 2.369 0 0 1-.774-.01c.082-.173.136-.29.249-.378Zm-2.519-4.582c.171-.061.341-.123.457-.068.116.054.205.167.239.395.034.229-.133.433-.358.61a1.39 1.39 0 0 1-.507.328c-.035-.228-.096-.398-.072-.6-.035-.228.017-.487.241-.665Zm-4.896.176c.055-.116.14-.146.283-.15l.116.055s.031.085.089.112c.092.256.102.686.082 1.03.004.143-.051.259-.047.402-.205-.167-.41-.334-.502-.59-.177-.224-.157-.569-.021-.859Z"/>
    <path fill="#94989B" d="m635.479 35.773 8.29 3.897-.49 1.044-8.291-3.897.491-1.044Zm-.402 2.36 7.131 3.352-.49 1.044-7.131-3.352.49-1.044Z"/>
    <path fill="#616466" d="m635.568 37.094 7.132 3.352-.491 1.043-7.131-3.352.49-1.043Z"/>
    <path fill="#94989B" d="m643.77 39.671-8.692-1.537-.518 1.102 8.719 1.479.491-1.044Zm-9.121.88 5.972 2.808-.491 1.043-5.972-2.807.491-1.043Z"/>
    <path fill="#616466" d="m635.139 39.508 5.971 2.807-.49 1.043-5.972-2.807.491-1.043Z"/>
    <path fill="#94989B" d="m642.208 41.486-7.56-.935-.518 1.102 7.56.934.518-1.101Z"/>
  </g>
  <rect width="651" height="117" x="1.727" y="28.5" fill="#F4CE71" fill-opacity=".21" rx="18.5"/>
  <path fill="#1E4460" d="M25.505 58V46.364h1.756v10.125h5.272V58h-7.028Zm8.895 0v-8.727h1.699V58h-1.7Zm.858-10.074a1.08 1.08 0 0 1-.762-.295.96.96 0 0 1-.312-.716c0-.28.104-.52.312-.716.213-.2.466-.301.762-.301.295 0 .547.1.755.3a.941.941 0 0 1 .319.717.953.953 0 0 1-.319.716 1.06 1.06 0 0 1-.755.295ZM38.384 58v-8.727h1.63v1.42h.109a2.26 2.26 0 0 1 .892-1.125c.413-.273.907-.409 1.483-.409.583 0 1.072.136 1.466.41.398.272.691.647.88 1.124h.091c.209-.466.54-.837.995-1.113.454-.28.996-.42 1.625-.42.791 0 1.437.247 1.937.743.504.497.756 1.245.756 2.245V58h-1.699v-5.693c0-.591-.161-1.02-.483-1.284a1.757 1.757 0 0 0-1.153-.398c-.553 0-.983.17-1.29.511-.307.337-.46.771-.46 1.301V58h-1.694v-5.801c0-.474-.147-.854-.443-1.142-.295-.288-.68-.432-1.153-.432-.322 0-.62.085-.892.256-.27.166-.487.4-.654.699a2.14 2.14 0 0 0-.244 1.04V58h-1.699Zm14.14 0v-8.727h1.7V58h-1.7Zm.859-10.074a1.08 1.08 0 0 1-.762-.295.96.96 0 0 1-.312-.716c0-.28.104-.52.312-.716.213-.2.466-.301.762-.301.295 0 .547.1.755.3a.941.941 0 0 1 .319.717.953.953 0 0 1-.319.716 1.06 1.06 0 0 1-.755.295Zm7.2 1.347v1.363h-4.767v-1.363h4.767Zm-3.489-2.091h1.7v8.255c0 .33.049.578.147.745a.77.77 0 0 0 .38.335c.16.057.332.085.518.085.136 0 .255-.01.358-.028.102-.02.182-.034.238-.046l.307 1.404a2.854 2.854 0 0 1-.42.113c-.182.042-.41.065-.682.069a2.99 2.99 0 0 1-1.25-.239 2.145 2.145 0 0 1-.938-.773c-.238-.348-.358-.786-.358-1.312v-8.608Zm13.756 2.09v1.364h-4.932v-1.363h4.932ZM67.27 58v-9.739c0-.545.12-.998.359-1.358.238-.363.554-.634.948-.812a3.027 3.027 0 0 1 1.285-.273c.34 0 .632.029.875.085.242.053.422.103.54.148l-.398 1.375a8.221 8.221 0 0 0-.307-.08 1.748 1.748 0 0 0-.455-.05c-.413 0-.708.102-.886.306-.174.205-.261.5-.261.887V58h-1.7Zm8.665.176c-.818 0-1.532-.187-2.142-.562a3.793 3.793 0 0 1-1.42-1.574c-.337-.675-.506-1.462-.506-2.364 0-.905.169-1.697.506-2.375a3.786 3.786 0 0 1 1.42-1.58c.61-.374 1.324-.562 2.142-.562.819 0 1.533.188 2.142.563.61.375 1.084.901 1.42 1.58.338.677.507 1.469.507 2.374 0 .902-.169 1.69-.506 2.364a3.793 3.793 0 0 1-1.42 1.574c-.61.375-1.324.562-2.143.562Zm.006-1.426c.53 0 .97-.14 1.318-.42.349-.28.606-.654.773-1.12.17-.466.256-.979.256-1.54 0-.556-.086-1.068-.256-1.534a2.5 2.5 0 0 0-.773-1.13c-.348-.284-.788-.426-1.318-.426-.534 0-.977.142-1.33.426a2.54 2.54 0 0 0-.778 1.13 4.52 4.52 0 0 0-.25 1.534c0 .561.083 1.074.25 1.54.17.466.43.84.779 1.12.352.28.795.42 1.33.42ZM81.9 58v-8.727h1.642v1.386h.09c.16-.47.44-.839.842-1.108a2.402 2.402 0 0 1 1.375-.409 7.236 7.236 0 0 1 .721.04v1.625a3.05 3.05 0 0 0-.363-.063 3.473 3.473 0 0 0-.523-.04c-.402 0-.76.086-1.074.256a1.9 1.9 0 0 0-1.011 1.71V58h-1.7Zm6.14 0v-8.727h1.631v1.42h.108c.182-.48.48-.856.892-1.125.413-.273.907-.409 1.483-.409.584 0 1.072.136 1.466.41.398.272.691.647.88 1.124h.092c.208-.466.54-.837.994-1.113.454-.28.996-.42 1.625-.42.792 0 1.437.247 1.937.743.504.497.756 1.245.756 2.245V58h-1.699v-5.693c0-.591-.16-1.02-.483-1.284a1.757 1.757 0 0 0-1.153-.398c-.553 0-.983.17-1.29.511-.307.337-.46.771-.46 1.301V58h-1.693v-5.801c0-.474-.148-.854-.444-1.142-.295-.288-.68-.432-1.153-.432-.322 0-.62.085-.892.256-.269.166-.487.4-.653.699a2.14 2.14 0 0 0-.245 1.04V58H88.04Zm16.681.193a3.564 3.564 0 0 1-1.5-.307 2.533 2.533 0 0 1-1.063-.903c-.257-.394-.386-.877-.386-1.449 0-.492.095-.898.284-1.216a2.1 2.1 0 0 1 .767-.755 4.006 4.006 0 0 1 1.08-.421c.397-.095.803-.167 1.216-.216l1.272-.148c.326-.041.563-.108.711-.198.147-.091.221-.24.221-.444v-.04c0-.496-.14-.88-.42-1.153-.277-.273-.69-.409-1.239-.409-.572 0-1.023.127-1.352.38-.326.25-.551.53-.676.836l-1.597-.364c.189-.53.466-.958.83-1.284.367-.33.789-.568 1.267-.716a4.94 4.94 0 0 1 1.505-.227c.349 0 .718.042 1.108.125.394.08.762.227 1.103.443.344.216.626.525.846.926.22.398.33.915.33 1.552V58h-1.659v-1.193h-.069c-.109.22-.274.435-.494.648-.22.212-.502.388-.846.528-.345.14-.758.21-1.239.21Zm.369-1.363c.47 0 .871-.093 1.205-.279.337-.186.593-.428.767-.727.178-.303.267-.627.267-.972v-1.125c-.061.06-.178.118-.352.17a5.5 5.5 0 0 1-.586.131c-.219.035-.433.067-.642.097-.208.026-.382.05-.522.068a4.21 4.21 0 0 0-.904.21c-.269.099-.485.24-.648.427-.159.181-.238.424-.238.727 0 .42.155.738.466.954.31.212.706.319 1.187.319Zm10.274-7.557v1.363h-4.767v-1.363h4.767Zm-3.488-2.091h1.699v8.255c0 .33.049.578.147.745a.775.775 0 0 0 .381.335c.159.057.331.085.517.085.136 0 .256-.01.358-.028.102-.02.182-.034.239-.046l.306 1.404a2.823 2.823 0 0 1-.42.113 3.335 3.335 0 0 1-.682.069 2.992 2.992 0 0 1-1.25-.239 2.141 2.141 0 0 1-.937-.773c-.239-.348-.358-.786-.358-1.312v-8.608Zm9.441 2.09v1.364h-4.767v-1.363h4.767Zm-3.488-2.09h1.699v8.255c0 .33.049.578.147.745a.775.775 0 0 0 .381.335c.159.057.332.085.517.085.137 0 .256-.01.358-.028.102-.02.182-.034.239-.046l.307 1.404a2.878 2.878 0 0 1-.421.113 3.335 3.335 0 0 1-.682.069 2.992 2.992 0 0 1-1.25-.239 2.141 2.141 0 0 1-.937-.773c-.239-.348-.358-.786-.358-1.312v-8.608ZM123.197 58v-8.727h1.699V58h-1.699Zm.858-10.074a1.08 1.08 0 0 1-.762-.295.961.961 0 0 1-.312-.716.95.95 0 0 1 .312-.716c.212-.2.466-.301.762-.301.295 0 .547.1.755.3a.942.942 0 0 1 .319.717.954.954 0 0 1-.319.716c-.208.197-.46.295-.755.295Zm4.825 4.892V58h-1.699v-8.727h1.631v1.42h.108c.201-.462.515-.833.943-1.113.432-.28.975-.42 1.631-.42.594 0 1.115.124 1.562.374.447.246.794.614 1.04 1.102.246.489.369 1.093.369 1.813V58h-1.699v-5.347c0-.632-.164-1.127-.494-1.483-.33-.36-.782-.54-1.358-.54-.394 0-.744.086-1.051.256-.303.17-.544.42-.722.75-.174.326-.261.72-.261 1.182Zm11.523 8.637c-.693 0-1.29-.091-1.79-.273-.496-.182-.902-.422-1.216-.722a3.048 3.048 0 0 1-.705-.983l1.461-.602c.102.167.238.343.409.528.174.19.409.35.704.483.3.133.684.2 1.154.2.644 0 1.176-.158 1.596-.472.421-.311.631-.807.631-1.489v-1.716h-.108c-.102.186-.25.392-.443.62a2.4 2.4 0 0 1-.784.59c-.334.167-.767.25-1.301.25-.69 0-1.311-.16-1.864-.483-.549-.325-.985-.805-1.307-1.437-.318-.636-.477-1.419-.477-2.347 0-.928.157-1.723.472-2.386.318-.663.753-1.17 1.306-1.523a3.399 3.399 0 0 1 1.881-.534c.542 0 .979.091 1.313.273.333.178.592.386.778.625.189.238.335.449.437.63h.125v-1.414h1.665v8.92c0 .75-.174 1.366-.523 1.847a3.08 3.08 0 0 1-1.414 1.068c-.591.231-1.258.347-2 .347Zm-.017-4.995c.488 0 .901-.113 1.238-.34.341-.232.599-.561.773-.99.178-.431.267-.948.267-1.55 0-.588-.087-1.105-.261-1.552-.175-.447-.43-.795-.767-1.045-.337-.254-.754-.38-1.25-.38-.512 0-.938.132-1.279.397-.341.261-.598.617-.772 1.068-.171.45-.256.955-.256 1.512 0 .572.087 1.073.261 1.505.174.432.432.77.773 1.012.345.242.769.363 1.273.363Zm14.143 1.716c-.818 0-1.532-.187-2.142-.562a3.79 3.79 0 0 1-1.42-1.574c-.338-.675-.506-1.462-.506-2.364 0-.905.168-1.697.506-2.375a3.783 3.783 0 0 1 1.42-1.58c.61-.374 1.324-.562 2.142-.562.818 0 1.532.188 2.142.563.61.375 1.083.901 1.421 1.58.337.677.505 1.469.505 2.374 0 .902-.168 1.69-.505 2.364a3.8 3.8 0 0 1-1.421 1.574c-.61.375-1.324.562-2.142.562Zm.006-1.426c.53 0 .969-.14 1.318-.42a2.47 2.47 0 0 0 .773-1.12c.17-.466.255-.979.255-1.54 0-.556-.085-1.068-.255-1.534a2.506 2.506 0 0 0-.773-1.13c-.349-.284-.788-.426-1.318-.426-.534 0-.977.142-1.33.426a2.539 2.539 0 0 0-.778 1.13 4.52 4.52 0 0 0-.25 1.534c0 .561.083 1.074.25 1.54.17.466.43.84.778 1.12.353.28.796.42 1.33.42Zm10.112-7.477v1.363h-4.932v-1.363h4.932ZM161.067 58v-9.739c0-.545.12-.998.358-1.358a2.2 2.2 0 0 1 .949-.812 3.027 3.027 0 0 1 1.284-.273c.341 0 .633.029.875.085.243.053.423.103.54.148l-.398 1.375a7.817 7.817 0 0 0-.306-.08 1.752 1.752 0 0 0-.455-.05c-.413 0-.708.102-.886.306-.175.205-.262.5-.262.887V58h-1.699Zm10.641 3.273a3.51 3.51 0 0 1-.693-.063 2.182 2.182 0 0 1-.466-.125l.409-1.392c.311.084.587.12.83.108a.994.994 0 0 0 .642-.273c.189-.17.356-.448.5-.835l.21-.58-3.193-8.84h1.818l2.21 6.772h.091l2.21-6.772h1.824l-3.596 9.892a3.946 3.946 0 0 1-.637 1.153 2.465 2.465 0 0 1-.92.716c-.356.16-.769.239-1.239.239Zm11.368-3.097c-.818 0-1.532-.187-2.142-.562a3.8 3.8 0 0 1-1.421-1.574c-.337-.675-.505-1.462-.505-2.364 0-.905.168-1.697.505-2.375a3.792 3.792 0 0 1 1.421-1.58c.61-.374 1.324-.562 2.142-.562.818 0 1.532.188 2.142.563.61.375 1.083.901 1.42 1.58.338.677.506 1.469.506 2.374 0 .902-.168 1.69-.506 2.364a3.79 3.79 0 0 1-1.42 1.574c-.61.375-1.324.562-2.142.562Zm.006-1.426c.53 0 .969-.14 1.318-.42a2.47 2.47 0 0 0 .773-1.12c.17-.466.255-.979.255-1.54 0-.556-.085-1.068-.255-1.534a2.506 2.506 0 0 0-.773-1.13c-.349-.284-.788-.426-1.318-.426-.534 0-.978.142-1.33.426a2.539 2.539 0 0 0-.778 1.13 4.52 4.52 0 0 0-.25 1.534c0 .561.083 1.074.25 1.54.17.466.43.84.778 1.12.352.28.796.42 1.33.42Zm11.487-2.37v-5.107h1.704V58h-1.67v-1.511h-.091a2.727 2.727 0 0 1-.966 1.164c-.439.307-.987.46-1.642.46-.56 0-1.057-.123-1.489-.369-.428-.25-.765-.619-1.011-1.108-.242-.488-.364-1.092-.364-1.812v-5.551h1.699v5.346c0 .595.165 1.069.495 1.42.329.353.757.53 1.284.53.318 0 .634-.08.949-.24a2 2 0 0 0 .789-.721c.213-.322.317-.731.313-1.227Zm3.987 3.62v-8.727h1.642v1.386h.091c.159-.47.439-.839.841-1.108a2.404 2.404 0 0 1 1.375-.409 7.242 7.242 0 0 1 .722.04v1.625a3.1 3.1 0 0 0-.364-.063 3.475 3.475 0 0 0-.523-.04 2.22 2.22 0 0 0-1.074.256 1.903 1.903 0 0 0-1.011 1.71V58h-1.699Zm10.375 0v-8.727h1.642v1.386h.091c.159-.47.439-.839.841-1.108a2.404 2.404 0 0 1 1.375-.409 7.242 7.242 0 0 1 .722.04v1.625a3.1 3.1 0 0 0-.364-.063 3.475 3.475 0 0 0-.523-.04 2.22 2.22 0 0 0-1.074.256 1.903 1.903 0 0 0-1.011 1.71V58h-1.699Zm9.59.176c-.86 0-1.601-.184-2.222-.551a3.74 3.74 0 0 1-1.432-1.563c-.333-.674-.5-1.463-.5-2.369 0-.894.167-1.682.5-2.363a3.883 3.883 0 0 1 1.409-1.597c.606-.383 1.315-.574 2.125-.574.493 0 .97.081 1.432.244.462.163.877.419 1.244.767.368.349.658.802.87 1.358.212.553.318 1.226.318 2.017v.603h-6.938v-1.273h5.273c0-.447-.091-.843-.273-1.188a2.053 2.053 0 0 0-.767-.823c-.325-.201-.708-.301-1.147-.301-.478 0-.894.117-1.25.352a2.367 2.367 0 0 0-.819.909 2.629 2.629 0 0 0-.284 1.21v.994c0 .584.103 1.08.307 1.489.209.41.498.722.87.938.371.212.804.318 1.301.318.322 0 .615-.046.88-.137.265-.094.495-.235.688-.42.193-.186.341-.415.443-.688l1.608.29c-.129.474-.36.888-.693 1.245-.33.352-.745.626-1.245.823-.496.194-1.062.29-1.698.29Zm12.169-6.773-1.54.273a1.842 1.842 0 0 0-.307-.562 1.515 1.515 0 0 0-.557-.438c-.235-.114-.528-.17-.88-.17-.482 0-.883.108-1.205.324-.322.212-.483.486-.483.823 0 .292.108.527.324.705.216.178.564.324 1.045.438l1.387.318c.803.185 1.401.471 1.795.858.394.386.591.888.591 1.505 0 .523-.151.989-.454 1.398-.3.405-.718.724-1.256.955-.534.23-1.154.346-1.858.346-.977 0-1.775-.208-2.392-.625-.618-.42-.996-1.017-1.137-1.79l1.643-.25c.102.428.312.752.63.972.318.216.733.324 1.245.324.556 0 1.001-.116 1.335-.347.333-.235.5-.52.5-.858a.893.893 0 0 0-.307-.687c-.201-.186-.51-.326-.926-.42l-1.477-.325c-.815-.185-1.417-.48-1.807-.886-.387-.405-.58-.919-.58-1.54a2.2 2.2 0 0 1 .432-1.352c.288-.386.686-.688 1.193-.903.508-.22 1.089-.33 1.744-.33.944 0 1.686.205 2.228.614.541.405.899.949 1.074 1.63Zm7.566 2.978v-5.108h1.705V58h-1.671v-1.511h-.09a2.727 2.727 0 0 1-.966 1.164c-.44.307-.987.46-1.642.46-.561 0-1.057-.123-1.489-.369-.428-.25-.765-.619-1.011-1.108-.243-.488-.364-1.092-.364-1.812v-5.551h1.699v5.346c0 .595.165 1.069.494 1.42.33.353.758.53 1.284.53.318 0 .635-.08.949-.24.318-.159.582-.4.79-.721.212-.322.316-.731.312-1.227ZM242.244 58v-8.727h1.63v1.42h.108a2.26 2.26 0 0 1 .892-1.125c.413-.273.907-.409 1.483-.409.584 0 1.072.136 1.466.41.398.272.691.647.881 1.124h.091c.208-.466.54-.837.994-1.113.455-.28.996-.42 1.625-.42.792 0 1.438.247 1.938.743.503.497.755 1.245.755 2.245V58h-1.699v-5.693c0-.591-.161-1.02-.483-1.284a1.756 1.756 0 0 0-1.153-.398c-.553 0-.983.17-1.29.511-.307.337-.46.771-.46 1.301V58h-1.693v-5.801c0-.474-.148-.854-.443-1.142-.296-.288-.68-.432-1.154-.432-.322 0-.619.085-.892.256a1.87 1.87 0 0 0-.653.699 2.14 2.14 0 0 0-.245 1.04V58h-1.698Zm17.902.176c-.86 0-1.601-.184-2.222-.551a3.74 3.74 0 0 1-1.432-1.563c-.333-.674-.5-1.463-.5-2.369 0-.894.167-1.682.5-2.363a3.883 3.883 0 0 1 1.409-1.597c.606-.383 1.315-.574 2.125-.574.493 0 .97.081 1.432.244.462.163.877.419 1.244.767.368.349.658.802.87 1.358.212.553.318 1.226.318 2.017v.603h-6.938v-1.273h5.273c0-.447-.091-.843-.273-1.188a2.053 2.053 0 0 0-.767-.823c-.325-.201-.708-.301-1.147-.301-.478 0-.894.117-1.25.352a2.367 2.367 0 0 0-.819.909 2.629 2.629 0 0 0-.284 1.21v.994c0 .584.103 1.08.307 1.489.209.41.498.722.87.938.371.212.804.318 1.301.318.322 0 .615-.046.88-.137.265-.094.495-.235.688-.42.193-.186.341-.415.443-.688l1.608.29c-.129.474-.36.888-.693 1.245-.33.352-.745.626-1.245.823-.496.194-1.062.29-1.698.29Zm13.937-8.903v1.363h-4.767v-1.363h4.767Zm-3.489-2.091h1.699v8.255c0 .33.05.578.148.745a.77.77 0 0 0 .381.335c.159.057.331.085.517.085a2 2 0 0 0 .358-.028c.102-.02.182-.034.238-.046l.307 1.404a2.823 2.823 0 0 1-.42.113 3.335 3.335 0 0 1-.682.069 2.989 2.989 0 0 1-1.25-.239 2.15 2.15 0 0 1-.938-.773c-.238-.348-.358-.786-.358-1.312v-8.608Zm8.951 10.994c-.818 0-1.532-.187-2.142-.562a3.792 3.792 0 0 1-1.421-1.574c-.337-.675-.505-1.462-.505-2.364 0-.905.168-1.697.505-2.375a3.785 3.785 0 0 1 1.421-1.58c.61-.374 1.324-.562 2.142-.562.818 0 1.532.188 2.142.563.61.375 1.083.901 1.42 1.58.337.677.506 1.469.506 2.374 0 .902-.169 1.69-.506 2.364a3.79 3.79 0 0 1-1.42 1.574c-.61.375-1.324.562-2.142.562Zm.005-1.426c.531 0 .97-.14 1.319-.42.348-.28.606-.654.772-1.12.171-.466.256-.979.256-1.54 0-.556-.085-1.068-.256-1.534a2.497 2.497 0 0 0-.772-1.13c-.349-.284-.788-.426-1.319-.426-.534 0-.977.142-1.329.426a2.54 2.54 0 0 0-.779 1.13c-.166.466-.25.978-.25 1.534 0 .561.084 1.074.25 1.54.171.466.43.84.779 1.12.352.28.795.42 1.329.42ZM289.88 58V46.364h1.699v4.324h.102c.099-.182.241-.393.426-.631.186-.239.443-.447.773-.625.33-.182.765-.273 1.307-.273.704 0 1.333.178 1.886.534.553.356.987.87 1.301 1.54.318.67.478 1.477.478 2.42 0 .944-.158 1.752-.472 2.427-.314.67-.746 1.187-1.295 1.55-.55.36-1.177.54-1.881.54-.53 0-.964-.089-1.301-.267a2.45 2.45 0 0 1-.784-.625 4.65 4.65 0 0 1-.438-.636h-.142V58h-1.659Zm1.665-4.364c0 .614.089 1.152.267 1.614.178.462.435.824.773 1.085.337.258.75.387 1.238.387.508 0 .932-.135 1.273-.404.341-.273.598-.642.773-1.108.178-.466.267-.99.267-1.574 0-.575-.087-1.092-.262-1.55-.17-.46-.428-.82-.772-1.086-.341-.265-.767-.398-1.279-.398-.492 0-.909.127-1.25.381-.337.254-.593.608-.767 1.063-.174.454-.261.984-.261 1.59Zm11.976 4.54c-.86 0-1.601-.184-2.222-.551a3.74 3.74 0 0 1-1.432-1.563c-.333-.674-.5-1.463-.5-2.369 0-.894.167-1.682.5-2.363a3.883 3.883 0 0 1 1.409-1.597c.606-.383 1.315-.574 2.125-.574.493 0 .97.081 1.432.244.462.163.877.419 1.244.767.368.349.658.802.87 1.358.212.553.318 1.226.318 2.017v.603h-6.938v-1.273h5.273c0-.447-.091-.843-.273-1.188a2.053 2.053 0 0 0-.767-.823c-.325-.201-.708-.301-1.147-.301-.478 0-.894.117-1.25.352a2.367 2.367 0 0 0-.819.909 2.629 2.629 0 0 0-.284 1.21v.994c0 .584.103 1.08.307 1.489.209.41.498.722.87.938.371.212.804.318 1.301.318.322 0 .615-.046.88-.137.265-.094.495-.235.688-.42.193-.186.341-.415.443-.688l1.608.29c-.129.474-.36.888-.693 1.245-.33.352-.745.626-1.245.823-.496.194-1.062.29-1.698.29Zm269.642-8.903v1.363h-4.932v-1.363h4.932ZM569.583 58v-9.739c0-.545.119-.998.358-1.358a2.2 2.2 0 0 1 .949-.812 3.027 3.027 0 0 1 1.284-.273c.341 0 .633.029.875.085.242.053.422.103.54.148l-.398 1.375a7.935 7.935 0 0 0-.307-.08 1.744 1.744 0 0 0-.454-.05c-.413 0-.709.102-.887.306-.174.205-.261.5-.261.887V58h-1.699Zm5.332 0v-8.727h1.643v1.386h.09c.16-.47.44-.839.841-1.108a2.41 2.41 0 0 1 1.375-.409 7.242 7.242 0 0 1 .722.04v1.625a3.022 3.022 0 0 0-.364-.063 3.462 3.462 0 0 0-.522-.04c-.402 0-.76.086-1.074.256a1.899 1.899 0 0 0-1.012 1.71V58h-1.699Zm6.141 0v-8.727h1.699V58h-1.699Zm.858-10.074a1.08 1.08 0 0 1-.761-.295.959.959 0 0 1-.313-.716c0-.28.104-.52.313-.716.212-.2.466-.301.761-.301.296 0 .547.1.756.3a.941.941 0 0 1 .318.717.953.953 0 0 1-.318.716 1.06 1.06 0 0 1-.756.295Zm6.888 10.25c-.86 0-1.601-.184-2.222-.551a3.747 3.747 0 0 1-1.432-1.563c-.333-.674-.5-1.463-.5-2.369 0-.894.167-1.682.5-2.363.338-.682.807-1.215 1.41-1.597.606-.383 1.314-.574 2.125-.574.492 0 .969.081 1.431.244.462.163.877.419 1.245.767.367.349.657.802.869 1.358.212.553.318 1.226.318 2.017v.603h-6.937v-1.273h5.272a2.52 2.52 0 0 0-.272-1.188 2.067 2.067 0 0 0-.767-.823c-.326-.201-.709-.301-1.148-.301-.477 0-.894.117-1.25.352a2.364 2.364 0 0 0-.818.909c-.19.371-.284.775-.284 1.21v.994c0 .584.102 1.08.306 1.489.209.41.499.722.87.938.371.212.805.318 1.301.318.322 0 .615-.046.881-.137a1.825 1.825 0 0 0 1.13-1.108l1.608.29c-.129.474-.36.888-.693 1.245-.33.352-.744.626-1.244.823-.497.194-1.063.29-1.699.29Zm7.328-5.358V58h-1.699v-8.727h1.631v1.42h.108c.201-.462.515-.833.943-1.113.432-.28.975-.42 1.631-.42.594 0 1.115.124 1.562.374.447.246.794.614 1.04 1.102.246.489.369 1.093.369 1.813V58h-1.699v-5.347c0-.632-.164-1.127-.494-1.483-.33-.36-.782-.54-1.358-.54-.394 0-.744.086-1.051.256-.303.17-.544.42-.722.75-.174.326-.261.72-.261 1.182Zm11.131 5.352c-.705 0-1.334-.18-1.887-.54-.549-.363-.981-.88-1.295-1.55-.311-.675-.466-1.483-.466-2.427 0-.943.157-1.75.472-2.42.318-.67.753-1.184 1.306-1.54a3.399 3.399 0 0 1 1.881-.534c.542 0 .977.091 1.307.273.333.178.591.386.773.625.185.238.329.449.431.63h.103v-4.323h1.699V58h-1.66v-1.358h-.142c-.102.186-.25.398-.443.636a2.462 2.462 0 0 1-.784.625c-.333.178-.765.267-1.295.267Zm.375-1.448c.488 0 .901-.13 1.238-.387.341-.261.599-.623.773-1.085.178-.462.267-1 .267-1.614 0-.606-.087-1.136-.261-1.59-.175-.455-.43-.81-.767-1.063-.337-.254-.754-.38-1.25-.38-.512 0-.938.132-1.279.397-.341.265-.598.627-.772 1.085a4.414 4.414 0 0 0-.256 1.551c0 .584.087 1.108.261 1.574.174.466.432.835.773 1.108.345.27.769.404 1.273.404Zm8.072-10.358V58h-1.699V46.364h1.699Zm3.359 14.909a3.55 3.55 0 0 1-.693-.063 2.2 2.2 0 0 1-.466-.125l.409-1.392c.311.084.588.12.83.108a.994.994 0 0 0 .642-.273c.189-.17.356-.448.5-.835l.21-.58-3.193-8.84h1.818l2.211 6.772h.09l2.211-6.772h1.824l-3.597 9.892a3.968 3.968 0 0 1-.636 1.153 2.476 2.476 0 0 1-.921.716c-.356.16-.769.239-1.239.239Zm8.562-3.165c-.311 0-.578-.11-.802-.33a1.102 1.102 0 0 1-.335-.806c0-.311.112-.576.335-.796.224-.223.491-.335.802-.335.31 0 .577.112.801.335.223.22.335.485.335.796 0 .208-.053.4-.159.573-.102.17-.239.307-.409.41-.171.102-.36.153-.568.153ZM36.227 78.864c-.459 0-.877-.112-1.256-.336a2.612 2.612 0 0 1-.91-.909 2.425 2.425 0 0 1-.334-1.255 2.4 2.4 0 0 1 .335-1.256c.227-.379.53-.68.909-.904.379-.227.797-.34 1.256-.34.462 0 .88.113 1.255.34.379.224.68.525.904.904.227.375.34.793.34 1.256 0 .458-.113.876-.34 1.255a2.565 2.565 0 0 1-.904.91 2.406 2.406 0 0 1-1.255.335ZM49.636 81V69.364h6.977v1.25h-5.568v3.931h5.045v1.25h-5.045V81h-1.41Zm12.113.182c-.788 0-1.479-.188-2.074-.563-.59-.375-1.053-.9-1.386-1.573-.33-.675-.494-1.463-.494-2.364 0-.91.164-1.703.494-2.38.333-.679.795-1.205 1.386-1.58.595-.375 1.286-.563 2.074-.563.788 0 1.478.188 2.069.563.594.375 1.056.901 1.386 1.58.333.677.5 1.47.5 2.38 0 .901-.167 1.69-.5 2.364a3.769 3.769 0 0 1-1.386 1.573c-.591.375-1.28.563-2.069.563Zm0-1.205c.599 0 1.091-.153 1.478-.46a2.72 2.72 0 0 0 .858-1.21c.185-.5.278-1.042.278-1.625 0-.584-.093-1.127-.278-1.63a2.75 2.75 0 0 0-.858-1.223c-.387-.31-.88-.465-1.478-.465s-1.09.155-1.477.465a2.75 2.75 0 0 0-.858 1.222 4.681 4.681 0 0 0-.278 1.63c0 .584.092 1.126.278 1.626.186.5.472.903.858 1.21.386.307.879.46 1.477.46Zm7.343-4.227V81H67.75v-8.727h1.295v1.363h.114c.204-.443.515-.799.932-1.068.416-.272.954-.409 1.613-.409.591 0 1.108.121 1.551.364.444.238.788.602 1.034 1.09.247.486.37 1.1.37 1.841V81h-1.341v-5.454c0-.686-.178-1.22-.534-1.603-.356-.386-.845-.58-1.466-.58-.428 0-.81.093-1.148.279a1.993 1.993 0 0 0-.79.813c-.193.356-.29.787-.29 1.295Zm11.814-3.477v1.136h-4.523v-1.136h4.523ZM77.7 70.182h1.34V78.5c0 .379.056.663.166.852.113.186.257.31.431.375.178.06.366.091.563.091.148 0 .269-.007.364-.022l.227-.046.273 1.204a2.587 2.587 0 0 1-.381.103 2.8 2.8 0 0 1-.62.057c-.378 0-.75-.082-1.113-.245a2.212 2.212 0 0 1-.898-.744c-.235-.333-.352-.754-.352-1.261v-8.682Zm11.247 4.045-1.204.341a2.234 2.234 0 0 0-.336-.585 1.627 1.627 0 0 0-.59-.477c-.25-.125-.57-.188-.96-.188-.535 0-.98.123-1.336.37-.352.242-.528.55-.528.926 0 .333.12.596.363.79.243.193.621.354 1.137.482l1.295.319c.78.189 1.362.479 1.744.869.383.386.574.884.574 1.494 0 .5-.144.947-.432 1.341-.284.394-.681.705-1.193.932-.511.227-1.106.34-1.784.34-.89 0-1.627-.192-2.21-.579-.583-.386-.953-.95-1.108-1.693l1.273-.318c.12.47.35.822.687 1.057.341.235.786.352 1.335.352.625 0 1.122-.133 1.49-.398.37-.269.556-.59.556-.966 0-.303-.106-.556-.318-.761-.212-.208-.538-.364-.978-.466l-1.454-.34c-.8-.19-1.386-.484-1.761-.882-.372-.401-.557-.903-.557-1.505 0-.493.138-.928.414-1.307.28-.379.662-.676 1.143-.892.484-.216 1.034-.324 1.647-.324.864 0 1.542.19 2.034.568.496.38.849.88 1.057 1.5Zm12.86 0-1.205.341a2.262 2.262 0 0 0-.335-.585 1.628 1.628 0 0 0-.591-.477c-.25-.125-.57-.188-.96-.188-.534 0-.98.123-1.336.37-.352.242-.528.55-.528.926 0 .333.121.596.364.79.242.193.62.354 1.136.482l1.295.319c.781.189 1.362.479 1.745.869.382.386.574.884.574 1.494 0 .5-.144.947-.432 1.341-.284.394-.682.705-1.193.932-.512.227-1.106.34-1.784.34-.89 0-1.627-.192-2.21-.579-.584-.386-.953-.95-1.109-1.693l1.273-.318c.121.47.35.822.688 1.057.34.235.786.352 1.335.352.625 0 1.121-.133 1.488-.398.372-.269.557-.59.557-.966 0-.303-.106-.556-.318-.761-.212-.208-.538-.364-.977-.466l-1.455-.34c-.799-.19-1.386-.484-1.761-.882-.371-.401-.557-.903-.557-1.505 0-.493.138-.928.415-1.307.28-.379.66-.676 1.142-.892.485-.216 1.034-.324 1.648-.324.863 0 1.541.19 2.034.568.496.38.848.88 1.057 1.5Zm3.518 1.523V81h-1.341V69.364h1.341v4.272h.114c.204-.45.511-.808.92-1.073.413-.27.962-.404 1.648-.404.595 0 1.115.12 1.562.358a2.41 2.41 0 0 1 1.04 1.085c.25.485.375 1.102.375 1.852V81h-1.341v-5.454c0-.694-.18-1.23-.54-1.609-.356-.382-.85-.573-1.483-.573-.439 0-.833.092-1.181.278a2.037 2.037 0 0 0-.819.813c-.197.356-.295.787-.295 1.295Zm11.658 5.432c-.788 0-1.48-.188-2.074-.563-.591-.375-1.053-.9-1.387-1.573-.329-.675-.494-1.463-.494-2.364 0-.91.165-1.703.494-2.38.334-.679.796-1.205 1.387-1.58.594-.375 1.286-.563 2.074-.563.788 0 1.477.188 2.068.563.595.375 1.057.901 1.386 1.58.334.677.5 1.47.5 2.38 0 .901-.166 1.69-.5 2.364a3.763 3.763 0 0 1-1.386 1.573c-.591.375-1.28.563-2.068.563Zm0-1.205c.598 0 1.091-.153 1.477-.46a2.72 2.72 0 0 0 .858-1.21c.185-.5.278-1.042.278-1.625 0-.584-.093-1.127-.278-1.63a2.755 2.755 0 0 0-.858-1.223c-.386-.31-.879-.465-1.477-.465-.599 0-1.091.155-1.478.465a2.757 2.757 0 0 0-.858 1.222 4.695 4.695 0 0 0-.278 1.63c0 .584.093 1.126.278 1.626.186.5.472.903.858 1.21.387.307.879.46 1.478.46Zm11.501-2.545v-5.16h1.341V81h-1.341v-1.477h-.091a2.86 2.86 0 0 1-.954 1.13c-.432.307-.978.46-1.637.46-.545 0-1.03-.119-1.454-.357-.425-.243-.758-.606-1-1.091-.243-.489-.364-1.104-.364-1.847v-5.545h1.341v5.454c0 .637.178 1.144.534 1.523.36.379.818.568 1.375.568a2.29 2.29 0 0 0 1.017-.255c.349-.171.64-.432.875-.785.239-.352.358-.8.358-1.346Zm5.138-8.068V81h-1.341V69.364h1.341Zm5.751 11.818c-.727 0-1.369-.184-1.926-.551-.557-.371-.992-.894-1.307-1.569-.314-.677-.471-1.479-.471-2.403 0-.917.157-1.712.471-2.386.315-.674.752-1.195 1.313-1.563.56-.367 1.208-.55 1.943-.55.568 0 1.017.094 1.347.283.333.186.587.398.761.636.178.235.316.429.415.58h.113v-4.295h1.341V81h-1.295v-1.34h-.159a8.77 8.77 0 0 1-.421.601c-.182.239-.441.453-.778.642-.337.186-.786.279-1.347.279Zm.182-1.205c.538 0 .993-.14 1.364-.42.371-.284.653-.676.846-1.176.194-.504.29-1.085.29-1.745 0-.651-.095-1.221-.284-1.71-.189-.492-.47-.875-.841-1.148-.371-.276-.829-.414-1.375-.414-.568 0-1.042.145-1.42.437-.375.288-.658.68-.847 1.176a4.667 4.667 0 0 0-.278 1.66c0 .62.094 1.185.284 1.692.193.504.477.906.852 1.205.379.295.849.443 1.409.443ZM150.698 81V69.364h1.341v4.295h.114c.098-.151.235-.345.409-.58.178-.238.432-.45.761-.636.333-.19.784-.284 1.352-.284.735 0 1.383.184 1.944.551.56.368.998.889 1.312 1.563.315.674.472 1.47.472 2.386 0 .924-.157 1.725-.472 2.403-.314.675-.75 1.198-1.307 1.569-.557.367-1.199.55-1.926.55-.56 0-1.009-.092-1.346-.278-.338-.189-.597-.403-.779-.642a8.362 8.362 0 0 1-.42-.602h-.159V81h-1.296Zm1.318-4.364c0 .66.097 1.24.29 1.745.193.5.475.892.847 1.176.371.28.825.42 1.363.42.561 0 1.029-.148 1.404-.443.379-.3.663-.7.852-1.205a4.73 4.73 0 0 0 .29-1.693 4.6 4.6 0 0 0-.284-1.659c-.186-.496-.468-.888-.847-1.176-.375-.291-.846-.437-1.415-.437-.545 0-1.003.138-1.375.414-.371.273-.651.656-.841 1.148-.189.489-.284 1.059-.284 1.71Zm12.097 4.546c-.841 0-1.566-.186-2.176-.557a3.742 3.742 0 0 1-1.404-1.568c-.325-.674-.488-1.459-.488-2.353 0-.893.163-1.681.488-2.363.33-.686.788-1.22 1.375-1.602.591-.387 1.281-.58 2.069-.58.454 0 .903.076 1.346.227.443.152.847.398 1.21.739.364.337.654.784.87 1.34.216.558.324 1.243.324 2.058v.568h-6.728v-1.16h5.364c0-.492-.099-.931-.296-1.317a2.223 2.223 0 0 0-.829-.915c-.356-.224-.777-.335-1.261-.335-.535 0-.997.132-1.387.397a2.615 2.615 0 0 0-.892 1.023c-.208.42-.312.871-.312 1.352v.773c0 .66.113 1.218.341 1.676.231.455.551.801.96 1.04.409.235.884.352 1.426.352.352 0 .67-.049.954-.148.288-.102.536-.253.745-.454.208-.204.369-.458.483-.761l1.295.363a2.87 2.87 0 0 1-.687 1.16c-.322.329-.72.587-1.193.772a4.43 4.43 0 0 1-1.597.273Zm16.335-6.955-1.204.341a2.238 2.238 0 0 0-.336-.585 1.628 1.628 0 0 0-.591-.477c-.25-.125-.57-.188-.96-.188-.534 0-.979.123-1.335.37-.352.242-.528.55-.528.926 0 .333.121.596.363.79.243.193.621.354 1.137.482l1.295.319c.78.189 1.362.479 1.744.869.383.386.574.884.574 1.494 0 .5-.144.947-.432 1.341-.284.394-.681.705-1.193.932-.511.227-1.106.34-1.784.34-.89 0-1.627-.192-2.21-.579-.583-.386-.953-.95-1.108-1.693l1.273-.318c.121.47.35.822.687 1.057.341.235.786.352 1.335.352.625 0 1.122-.133 1.489-.398.371-.269.557-.59.557-.966 0-.303-.106-.556-.318-.761-.212-.208-.538-.364-.978-.466l-1.454-.34c-.799-.19-1.386-.484-1.761-.882-.372-.401-.557-.903-.557-1.505 0-.493.138-.928.414-1.307a2.824 2.824 0 0 1 1.143-.892c.484-.216 1.034-.324 1.647-.324.864 0 1.542.19 2.034.568.497.38.849.88 1.057 1.5ZM182.626 81v-8.727h1.341V81h-1.341Zm.682-10.182a.955.955 0 0 1-.677-.267.86.86 0 0 1-.278-.642.86.86 0 0 1 .278-.642.955.955 0 0 1 .677-.267c.261 0 .484.089.67.267a.851.851 0 0 1 .284.642c0 .25-.095.464-.284.642a.934.934 0 0 1-.67.267ZM186.423 81v-8.727h1.295v1.363h.114a2.19 2.19 0 0 1 .88-1.085c.406-.261.892-.392 1.461-.392.575 0 1.055.13 1.437.392.386.258.688.62.903 1.085h.091c.224-.45.559-.808 1.006-1.073.447-.27.983-.404 1.608-.404.78 0 1.419.244 1.915.733.496.485.744 1.24.744 2.267V81h-1.341v-5.84c0-.645-.176-1.105-.528-1.382a1.956 1.956 0 0 0-1.245-.414c-.613 0-1.089.185-1.426.556-.337.368-.505.834-.505 1.398V81h-1.364v-5.977c0-.496-.161-.896-.483-1.2-.322-.306-.737-.46-1.244-.46-.349 0-.674.093-.978.279a2.107 2.107 0 0 0-.727.773 2.28 2.28 0 0 0-.273 1.13V81h-1.34Zm13.906 3.273v-12h1.295v1.386h.159c.099-.151.235-.345.409-.58.179-.238.432-.45.762-.636.333-.19.784-.284 1.352-.284.735 0 1.383.184 1.943.551.561.368.998.889 1.313 1.563.314.674.471 1.47.471 2.386 0 .924-.157 1.725-.471 2.403-.315.675-.75 1.198-1.307 1.569-.557.367-1.199.55-1.926.55-.561 0-1.01-.092-1.347-.278-.337-.189-.596-.403-.778-.642a8.77 8.77 0 0 1-.421-.602h-.113v4.614h-1.341Zm1.318-7.637c0 .66.097 1.24.29 1.745.193.5.475.892.846 1.176.372.28.826.42 1.364.42.561 0 1.028-.148 1.403-.443.379-.3.663-.7.853-1.205a4.73 4.73 0 0 0 .289-1.693c0-.613-.094-1.166-.284-1.659-.185-.496-.467-.888-.846-1.176-.375-.291-.847-.437-1.415-.437-.545 0-1.004.138-1.375.414-.371.273-.651.656-.841 1.148-.189.489-.284 1.059-.284 1.71Zm9.773-7.272V81h-1.341V69.364h1.341Zm6.115 11.818c-.841 0-1.566-.186-2.176-.557a3.742 3.742 0 0 1-1.404-1.568c-.326-.674-.488-1.459-.488-2.353 0-.893.162-1.681.488-2.363.33-.686.788-1.22 1.375-1.602.591-.387 1.281-.58 2.068-.58.455 0 .904.076 1.347.227.443.152.847.398 1.21.739.364.337.654.784.87 1.34.215.558.323 1.243.323 2.058v.568h-6.727v-1.16h5.364c0-.492-.099-.931-.296-1.317a2.223 2.223 0 0 0-.829-.915c-.356-.224-.777-.335-1.262-.335-.534 0-.996.132-1.386.397a2.615 2.615 0 0 0-.892 1.023c-.208.42-.312.871-.312 1.352v.773c0 .66.113 1.218.34 1.676.231.455.552.801.961 1.04.409.235.884.352 1.426.352.352 0 .67-.049.954-.148.288-.102.536-.253.745-.454.208-.204.369-.458.483-.761l1.295.363a2.87 2.87 0 0 1-.687 1.16 3.35 3.35 0 0 1-1.194.772 4.42 4.42 0 0 1-1.596.273Zm13.449-.023c-.765 0-1.425-.14-1.978-.42a3.1 3.1 0 0 1-1.278-1.154c-.299-.488-.449-1.047-.449-1.676 0-.485.102-.915.307-1.29a3.94 3.94 0 0 1 .858-1.05c.367-.327.79-.652 1.267-.978l1.682-1.25c.329-.216.593-.447.79-.693.2-.246.301-.569.301-.966 0-.296-.131-.582-.392-.858-.258-.277-.597-.415-1.017-.415-.296 0-.557.076-.785.227a1.62 1.62 0 0 0-.528.569 1.444 1.444 0 0 0-.187.704c0 .273.073.55.221.83.152.276.343.56.574.852.235.288.477.583.727.886L236.438 81h-1.613l-4.41-5.318-1.113-1.341a6.394 6.394 0 0 1-.796-1.188 2.77 2.77 0 0 1-.295-1.267c0-.522.115-.98.347-1.375a2.41 2.41 0 0 1 .982-.926c.425-.223.921-.335 1.489-.335.583 0 1.085.114 1.506.34.42.224.744.522.971.893.228.367.341.767.341 1.199 0 .557-.138 1.04-.414 1.449a4.75 4.75 0 0 1-1.131 1.142L229.984 76c-.523.386-.877.761-1.063 1.125-.185.364-.278.625-.278.784 0 .364.094.703.284 1.017.189.314.456.568.801.761.345.194.748.29 1.21.29.44 0 .868-.093 1.284-.278.417-.19.794-.462 1.131-.818.341-.356.61-.784.807-1.284.201-.5.301-1.063.301-1.688h1.295c0 .773-.089 1.403-.267 1.892-.178.489-.378.871-.602 1.148a8.082 8.082 0 0 1-.54.62 2.638 2.638 0 0 0-.125.17 2.289 2.289 0 0 1-.125.17c-.375.42-.848.735-1.42.943a5.01 5.01 0 0 1-1.693.307ZM242.423 81v-8.727h1.295v1.318h.091c.159-.432.447-.782.864-1.051a2.54 2.54 0 0 1 1.409-.404c.098 0 .221.002.369.006s.259.01.335.017v1.364a3.926 3.926 0 0 0-.312-.051 3.08 3.08 0 0 0-.506-.04c-.424 0-.803.089-1.136.267a1.956 1.956 0 0 0-1.069 1.778V81h-1.34Zm9.346.182c-.841 0-1.566-.186-2.176-.557a3.733 3.733 0 0 1-1.403-1.568c-.326-.674-.489-1.459-.489-2.353 0-.893.163-1.681.489-2.363.329-.686.788-1.22 1.375-1.602.591-.387 1.28-.58 2.068-.58.454 0 .903.076 1.346.227.444.152.847.398 1.211.739.363.337.653.784.869 1.34.216.558.324 1.243.324 2.058v.568h-6.727v-1.16h5.363c0-.492-.098-.931-.295-1.317a2.225 2.225 0 0 0-.83-.915c-.356-.224-.776-.335-1.261-.335-.534 0-.996.132-1.387.397a2.623 2.623 0 0 0-.892 1.023c-.208.42-.312.871-.312 1.352v.773c0 .66.114 1.218.341 1.676.231.455.551.801.96 1.04.409.235.885.352 1.426.352.352 0 .671-.049.955-.148a2.03 2.03 0 0 0 .744-.454c.208-.204.369-.458.483-.761l1.295.363a2.87 2.87 0 0 1-.687 1.16c-.322.329-.72.587-1.193.772a4.43 4.43 0 0 1-1.597.273Zm8.222.022a3.548 3.548 0 0 1-1.506-.312 2.582 2.582 0 0 1-1.074-.915c-.265-.401-.398-.886-.398-1.454 0-.5.099-.906.296-1.216.197-.315.46-.56.79-.739a4.14 4.14 0 0 1 1.091-.397c.401-.092.805-.163 1.21-.217.53-.068.96-.119 1.29-.153.333-.038.575-.1.727-.187.155-.088.233-.239.233-.455v-.045c0-.561-.154-.997-.46-1.307-.303-.31-.764-.466-1.381-.466-.64 0-1.142.14-1.506.42-.363.28-.619.58-.767.898l-1.273-.455c.228-.53.531-.943.91-1.238.382-.3.799-.508 1.25-.625a5.183 5.183 0 0 1 1.34-.182 5.3 5.3 0 0 1 .966.102c.368.065.722.2 1.063.404.345.204.631.513.858.926.227.413.341.966.341 1.659V81h-1.341v-1.182h-.068a2.36 2.36 0 0 1-.455.608c-.212.216-.494.4-.846.551-.353.152-.783.227-1.29.227Zm.204-1.204c.531 0 .978-.104 1.341-.313a2.128 2.128 0 0 0 1.114-1.846v-1.227c-.057.068-.182.13-.375.187-.19.053-.409.1-.659.142a29.629 29.629 0 0 1-1.284.17 5.13 5.13 0 0 0-.978.222 1.687 1.687 0 0 0-.727.45c-.182.196-.273.465-.273.806 0 .466.173.818.517 1.057.349.235.79.352 1.324.352Zm9.539 1.182c-.728 0-1.37-.184-1.926-.551-.557-.371-.993-.894-1.307-1.569-.315-.677-.472-1.479-.472-2.403 0-.917.157-1.712.472-2.386.314-.674.752-1.195 1.312-1.563.561-.367 1.209-.55 1.943-.55.569 0 1.017.094 1.347.283.333.186.587.398.761.636.178.235.317.429.415.58h.114v-4.295h1.341V81h-1.296v-1.34h-.159a8.7 8.7 0 0 1-.42.601c-.182.239-.442.453-.779.642-.337.186-.786.279-1.346.279Zm.181-1.205c.538 0 .993-.14 1.364-.42.371-.284.654-.676.847-1.176.193-.504.289-1.085.289-1.745 0-.651-.094-1.221-.284-1.71-.189-.492-.469-.875-.841-1.148-.371-.276-.829-.414-1.375-.414-.568 0-1.041.145-1.42.437-.375.288-.657.68-.847 1.176a4.689 4.689 0 0 0-.278 1.66c0 .62.095 1.185.284 1.692.193.504.477.906.852 1.205.379.295.849.443 1.409.443Zm9.029 1.227a3.548 3.548 0 0 1-1.506-.312 2.582 2.582 0 0 1-1.074-.915c-.265-.401-.397-.886-.397-1.454 0-.5.098-.906.295-1.216.197-.315.46-.56.79-.739a4.14 4.14 0 0 1 1.091-.397c.401-.092.805-.163 1.21-.217.53-.068.96-.119 1.29-.153.333-.038.576-.1.727-.187.155-.088.233-.239.233-.455v-.045c0-.561-.153-.997-.46-1.307-.303-.31-.764-.466-1.381-.466-.64 0-1.142.14-1.506.42-.363.28-.619.58-.767.898l-1.272-.455c.227-.53.53-.943.909-1.238.382-.3.799-.508 1.25-.625a5.184 5.184 0 0 1 1.341-.182c.28 0 .602.034.966.102.367.065.721.2 1.062.404.345.204.631.513.858.926.227.413.341.966.341 1.659V81h-1.341v-1.182h-.068a2.36 2.36 0 0 1-.455.608c-.212.216-.494.4-.846.551-.353.152-.783.227-1.29.227Zm.204-1.204c.531 0 .978-.104 1.341-.313a2.128 2.128 0 0 0 1.114-1.846v-1.227c-.057.068-.182.13-.375.187a6.29 6.29 0 0 1-.659.142 29.629 29.629 0 0 1-1.284.17 5.12 5.12 0 0 0-.977.222 1.68 1.68 0 0 0-.728.45c-.182.196-.272.465-.272.806 0 .466.172.818.517 1.057.348.235.789.352 1.323.352Zm6.425 1V69.364h1.341v4.295h.114c.098-.151.235-.345.409-.58.178-.238.432-.45.761-.636.333-.19.784-.284 1.352-.284.735 0 1.383.184 1.944.551.56.368.998.889 1.312 1.563.315.674.472 1.47.472 2.386 0 .924-.157 1.725-.472 2.403-.314.675-.75 1.198-1.307 1.569-.557.367-1.199.55-1.926.55-.56 0-1.009-.092-1.346-.278-.338-.189-.597-.403-.779-.642a8.362 8.362 0 0 1-.42-.602h-.159V81h-1.296Zm1.318-4.364c0 .66.097 1.24.29 1.745.193.5.475.892.847 1.176.371.28.825.42 1.363.42.561 0 1.029-.148 1.404-.443.379-.3.663-.7.852-1.205a4.73 4.73 0 0 0 .29-1.693 4.6 4.6 0 0 0-.284-1.659c-.186-.496-.468-.888-.847-1.176-.375-.291-.846-.437-1.415-.437-.545 0-1.003.138-1.375.414-.371.273-.651.656-.841 1.148-.189.489-.284 1.059-.284 1.71Zm9.779-7.272V81h-1.341V69.364h1.341Zm6.115 11.818c-.841 0-1.566-.186-2.176-.557a3.742 3.742 0 0 1-1.404-1.568c-.326-.674-.488-1.459-.488-2.353 0-.893.162-1.681.488-2.363.33-.686.788-1.22 1.375-1.602.591-.387 1.281-.58 2.068-.58.455 0 .904.076 1.347.227.443.152.847.398 1.21.739.364.337.654.784.87 1.34.215.558.323 1.243.323 2.058v.568h-6.727v-1.16h5.364c0-.492-.099-.931-.296-1.317a2.223 2.223 0 0 0-.829-.915c-.356-.224-.777-.335-1.262-.335-.534 0-.996.132-1.386.397a2.615 2.615 0 0 0-.892 1.023c-.208.42-.312.871-.312 1.352v.773c0 .66.113 1.218.34 1.676.231.455.552.801.961 1.04.409.235.884.352 1.426.352.352 0 .67-.049.954-.148.288-.102.536-.253.745-.454.208-.204.369-.458.483-.761l1.295.363a2.87 2.87 0 0 1-.687 1.16 3.35 3.35 0 0 1-1.194.772 4.42 4.42 0 0 1-1.596.273ZM36.227 101.864c-.459 0-.877-.112-1.256-.336a2.607 2.607 0 0 1-.91-.909 2.422 2.422 0 0 1-.334-1.255 2.4 2.4 0 0 1 .335-1.256c.227-.379.53-.68.909-.904.379-.227.797-.34 1.256-.34.462 0 .88.113 1.255.34.379.224.68.525.904.904.227.375.34.793.34 1.256 0 .458-.113.877-.34 1.255a2.56 2.56 0 0 1-.904.909 2.401 2.401 0 0 1-1.255.336Zm19.772-6.591a1.784 1.784 0 0 0-.83-1.341c-.484-.318-1.079-.478-1.783-.478-.516 0-.966.084-1.353.25a2.16 2.16 0 0 0-.897.688 1.648 1.648 0 0 0-.319.994c0 .311.074.578.222.802.152.22.345.403.58.55.234.145.48.264.738.359.258.09.495.164.71.221l1.182.318c.303.08.64.19 1.012.33.375.14.733.331 1.073.574.345.238.63.545.853.92.223.375.335.835.335 1.381a3.06 3.06 0 0 1-.494 1.704c-.326.508-.803.911-1.432 1.211-.625.299-1.385.449-2.278.449-.834 0-1.555-.135-2.165-.404-.606-.269-1.084-.644-1.432-1.125a3.21 3.21 0 0 1-.585-1.676h1.454c.038.439.186.803.443 1.091.262.284.591.496.989.636.401.137.833.205 1.296.205.537 0 1.02-.087 1.448-.262.428-.178.767-.424 1.017-.738.25-.318.375-.69.375-1.114 0-.386-.108-.701-.324-.943-.215-.242-.5-.44-.852-.59a8.947 8.947 0 0 0-1.142-.399l-1.432-.409c-.909-.261-1.628-.634-2.159-1.119-.53-.485-.795-1.12-.795-1.904 0-.651.176-1.22.528-1.704a3.51 3.51 0 0 1 1.432-1.136c.602-.273 1.275-.41 2.017-.41.75 0 1.417.135 2 .404.583.265 1.046.629 1.387 1.09.344.463.526.988.545 1.575h-1.364Zm7.317 8.909c-.84 0-1.566-.186-2.176-.557a3.74 3.74 0 0 1-1.404-1.568c-.325-.674-.488-1.459-.488-2.353 0-.893.163-1.681.489-2.363.33-.686.787-1.22 1.374-1.602.591-.387 1.28-.58 2.069-.58.454 0 .903.076 1.346.227a3.33 3.33 0 0 1 1.21.739c.364.337.654.784.87 1.34.216.558.324 1.243.324 2.058v.568h-6.728v-1.16h5.364c0-.492-.098-.931-.295-1.317a2.226 2.226 0 0 0-.83-.915c-.356-.224-.777-.335-1.261-.335-.534 0-.996.132-1.387.397a2.615 2.615 0 0 0-.892 1.023c-.208.42-.312.871-.312 1.352v.773c0 .659.113 1.218.34 1.676.232.455.552.801.96 1.04.41.235.885.352 1.427.352.352 0 .67-.049.955-.147a2.05 2.05 0 0 0 .744-.455c.208-.205.37-.458.483-.761l1.295.363a2.86 2.86 0 0 1-.687 1.159 3.35 3.35 0 0 1-1.193.773 4.42 4.42 0 0 1-1.597.273Zm9.199 0c-.818 0-1.523-.193-2.114-.58a3.774 3.774 0 0 1-1.363-1.596c-.319-.678-.478-1.453-.478-2.324 0-.886.163-1.669.489-2.347.33-.682.788-1.214 1.375-1.596.59-.387 1.28-.58 2.068-.58.614 0 1.167.114 1.66.341a3.19 3.19 0 0 1 1.21.954c.314.41.509.887.585 1.432h-1.341c-.102-.397-.33-.75-.682-1.056-.349-.311-.818-.466-1.41-.466-.522 0-.98.136-1.374.409-.39.269-.695.65-.915 1.142-.216.488-.324 1.062-.324 1.721 0 .675.106 1.262.319 1.762.215.5.518.888.909 1.164.393.277.856.415 1.386.415.348 0 .665-.06.949-.182.284-.121.524-.295.721-.522.197-.228.337-.5.42-.818h1.342a3.106 3.106 0 0 1-.563 1.392 3.149 3.149 0 0 1-1.176.977c-.485.238-1.05.358-1.693.358Zm9.187-8.91v1.137H77.18v-1.136h4.522Zm-3.204-2.09h1.34v8.318c0 .379.056.663.166.852a.85.85 0 0 0 .431.375c.178.061.366.091.563.091.148 0 .269-.007.364-.023l.227-.045.273 1.205a2.74 2.74 0 0 1-.381.102c-.163.038-.37.057-.62.057-.378 0-.75-.082-1.113-.245a2.215 2.215 0 0 1-.898-.744c-.235-.333-.352-.754-.352-1.261v-8.682ZM83.719 104v-8.727h1.341V104h-1.34Zm.682-10.182a.953.953 0 0 1-.676-.267.858.858 0 0 1-.278-.642.86.86 0 0 1 .278-.642.954.954 0 0 1 .676-.267.93.93 0 0 1 .67.267.85.85 0 0 1 .285.642.85.85 0 0 1-.284.642.934.934 0 0 1-.67.267Zm6.66 10.364c-.787 0-1.478-.188-2.073-.563-.591-.375-1.053-.899-1.386-1.574-.33-.674-.495-1.462-.495-2.363 0-.91.165-1.703.495-2.38.333-.679.795-1.205 1.386-1.58.595-.375 1.286-.563 2.074-.563.788 0 1.477.188 2.068.563.595.375 1.057.901 1.386 1.58.334.677.5 1.47.5 2.38 0 .901-.166 1.689-.5 2.363a3.764 3.764 0 0 1-1.386 1.574c-.59.375-1.28.563-2.068.563Zm0-1.205c.6 0 1.092-.153 1.478-.46a2.72 2.72 0 0 0 .858-1.21c.186-.5.278-1.042.278-1.625 0-.584-.092-1.127-.278-1.63a2.75 2.75 0 0 0-.858-1.223c-.386-.31-.879-.465-1.477-.465-.599 0-1.091.155-1.477.465a2.75 2.75 0 0 0-.858 1.222 4.681 4.681 0 0 0-.279 1.63c0 .584.093 1.126.279 1.626.185.5.471.903.858 1.21.386.307.878.46 1.477.46Zm7.343-4.227V104h-1.34v-8.727h1.295v1.363h.113c.205-.443.516-.799.932-1.068.417-.272.955-.409 1.614-.409.591 0 1.108.121 1.551.364a2.45 2.45 0 0 1 1.034 1.09c.246.486.369 1.1.369 1.841V104h-1.341v-5.454c0-.686-.178-1.22-.534-1.603-.356-.386-.844-.58-1.466-.58-.428 0-.81.093-1.147.279a1.993 1.993 0 0 0-.79.813c-.193.356-.29.787-.29 1.295Zm14.2-1.523-1.204.341a2.262 2.262 0 0 0-.335-.585 1.628 1.628 0 0 0-.591-.477c-.25-.125-.57-.188-.961-.188-.534 0-.979.123-1.335.37-.352.242-.528.55-.528.926 0 .333.121.596.363.79.243.193.622.354 1.137.482l1.295.319c.781.189 1.362.479 1.745.869.382.386.573.884.573 1.494 0 .5-.143.947-.431 1.341-.284.394-.682.705-1.194.932-.511.227-1.106.341-1.784.341-.89 0-1.626-.193-2.21-.58-.583-.386-.952-.95-1.108-1.693l1.273-.318c.121.47.35.822.687 1.057.341.235.786.352 1.336.352.625 0 1.121-.133 1.488-.398.372-.269.557-.591.557-.966 0-.303-.106-.556-.318-.761-.212-.208-.538-.364-.977-.466l-1.455-.341c-.799-.19-1.386-.483-1.761-.88-.371-.402-.557-.904-.557-1.506 0-.493.138-.928.415-1.307a2.82 2.82 0 0 1 1.142-.892c.485-.216 1.034-.324 1.647-.324.864 0 1.542.19 2.035.568a3.06 3.06 0 0 1 1.056 1.5Zm12.86 0-1.205.341a2.233 2.233 0 0 0-.335-.585 1.628 1.628 0 0 0-.591-.477c-.25-.125-.57-.188-.96-.188-.534 0-.979.123-1.335.37-.353.242-.529.55-.529.926 0 .333.121.596.364.79.242.193.621.354 1.136.482l1.296.319c.78.189 1.361.479 1.744.869.383.386.574.884.574 1.494 0 .5-.144.947-.432 1.341-.284.394-.682.705-1.193.932-.511.227-1.106.341-1.784.341-.89 0-1.627-.193-2.21-.58-.584-.386-.953-.95-1.108-1.693l1.272-.318c.122.47.351.822.688 1.057.341.235.786.352 1.335.352.625 0 1.121-.133 1.489-.398.371-.269.557-.591.557-.966 0-.303-.107-.556-.319-.761-.212-.208-.538-.364-.977-.466l-1.454-.341c-.8-.19-1.387-.483-1.762-.88-.371-.402-.557-.904-.557-1.506 0-.493.139-.928.415-1.307a2.82 2.82 0 0 1 1.142-.892c.485-.216 1.034-.324 1.648-.324.864 0 1.542.19 2.034.568.496.38.848.88 1.057 1.5Zm3.518 1.523V104h-1.341V92.364h1.341v4.272h.114c.204-.45.511-.808.92-1.073.413-.27.962-.404 1.648-.404.595 0 1.116.12 1.563.358.447.235.793.597 1.039 1.085.25.485.375 1.102.375 1.852V104H133.3v-5.454c0-.694-.179-1.23-.539-1.609-.356-.382-.851-.573-1.483-.573-.44 0-.834.092-1.182.278a2.028 2.028 0 0 0-.818.813c-.197.356-.296.787-.296 1.295Zm11.658 5.432c-.788 0-1.479-.188-2.074-.563-.591-.375-1.053-.899-1.386-1.574-.33-.674-.495-1.462-.495-2.363 0-.91.165-1.703.495-2.38.333-.679.795-1.205 1.386-1.58.595-.375 1.286-.563 2.074-.563.788 0 1.477.188 2.068.563.595.375 1.057.901 1.386 1.58.334.677.5 1.47.5 2.38 0 .901-.166 1.689-.5 2.363a3.758 3.758 0 0 1-1.386 1.574c-.591.375-1.28.563-2.068.563Zm0-1.205c.598 0 1.091-.153 1.477-.46.387-.307.673-.71.858-1.21.186-.5.279-1.042.279-1.625 0-.584-.093-1.127-.279-1.63a2.74 2.74 0 0 0-.858-1.223c-.386-.31-.879-.465-1.477-.465-.599 0-1.091.155-1.477.465a2.74 2.74 0 0 0-.858 1.222 4.672 4.672 0 0 0-.279 1.63c0 .584.093 1.126.279 1.626.185.5.471.903.858 1.21.386.307.878.46 1.477.46Zm11.501-2.545v-5.16h1.341V104h-1.341v-1.477h-.091c-.204.443-.522.82-.954 1.13-.432.307-.977.461-1.636.461-.546 0-1.031-.12-1.455-.358-.424-.243-.758-.606-1-1.091-.242-.489-.364-1.104-.364-1.847v-5.545h1.341v5.454c0 .637.178 1.144.534 1.523.36.379.819.568 1.375.568.334 0 .673-.085 1.017-.256.349-.17.641-.431.875-.784.239-.352.358-.801.358-1.346Zm5.138-8.068V104h-1.341V92.364h1.341Zm5.752 11.818c-.728 0-1.37-.184-1.927-.551-.556-.372-.992-.894-1.306-1.569-.315-.678-.472-1.479-.472-2.403 0-.917.157-1.712.472-2.386.314-.674.751-1.195 1.312-1.563.561-.367 1.208-.55 1.943-.55.568 0 1.017.094 1.347.283.333.186.587.398.761.636.178.235.317.429.415.58h.114v-4.295h1.341V104h-1.296v-1.341h-.159a8.61 8.61 0 0 1-.42.602c-.182.239-.442.453-.779.642-.337.186-.786.279-1.346.279Zm.181-1.205c.538 0 .993-.14 1.364-.42.371-.284.653-.676.847-1.176.193-.504.289-1.086.289-1.745 0-.651-.094-1.221-.284-1.71-.189-.492-.469-.875-.841-1.148-.371-.276-.829-.414-1.375-.414-.568 0-1.041.145-1.42.437-.375.288-.657.68-.847 1.176a4.689 4.689 0 0 0-.278 1.66c0 .621.095 1.185.284 1.693.193.503.477.905.852 1.204.379.296.849.443 1.409.443ZM174.354 104V92.364h1.341v4.295h.114c.098-.151.235-.345.409-.58.178-.238.432-.45.761-.636.334-.19.784-.284 1.353-.284.735 0 1.382.184 1.943.551.56.368.998.889 1.312 1.563.315.674.472 1.47.472 2.386 0 .924-.157 1.725-.472 2.403-.314.675-.75 1.197-1.306 1.569-.557.367-1.199.551-1.927.551-.56 0-1.009-.093-1.346-.279-.337-.189-.597-.403-.779-.642a8.61 8.61 0 0 1-.42-.602h-.159V104h-1.296Zm1.319-4.364c0 .659.096 1.241.289 1.745.194.5.476.892.847 1.176.371.28.826.42 1.364.42.56 0 1.028-.147 1.403-.443.379-.299.663-.701.852-1.204.193-.508.29-1.072.29-1.694a4.6 4.6 0 0 0-.284-1.659c-.186-.496-.468-.888-.847-1.176-.375-.291-.846-.437-1.414-.437-.546 0-1.004.138-1.375.414-.372.273-.652.656-.841 1.148-.19.489-.284 1.059-.284 1.71Zm12.096 4.546c-.841 0-1.566-.186-2.176-.557a3.736 3.736 0 0 1-1.403-1.568c-.326-.674-.489-1.459-.489-2.353 0-.893.163-1.681.489-2.363.329-.686.788-1.22 1.375-1.602.591-.387 1.28-.58 2.068-.58.454 0 .903.076 1.346.227.444.152.847.398 1.211.739.363.337.653.784.869 1.34.216.558.324 1.243.324 2.058v.568h-6.727v-1.16h5.363c0-.492-.098-.931-.295-1.317a2.225 2.225 0 0 0-.83-.915c-.356-.224-.776-.335-1.261-.335-.534 0-.996.132-1.387.397a2.623 2.623 0 0 0-.892 1.023c-.208.42-.312.871-.312 1.352v.773c0 .659.114 1.218.341 1.676.231.455.551.801.96 1.04.409.235.885.352 1.426.352.352 0 .671-.049.955-.147.288-.103.536-.254.744-.455.208-.205.369-.458.483-.761l1.295.363a2.86 2.86 0 0 1-.687 1.159c-.322.33-.72.587-1.193.773a4.425 4.425 0 0 1-1.597.273Zm13.813 0c-.841 0-1.567-.186-2.176-.557a3.738 3.738 0 0 1-1.404-1.568c-.326-.674-.489-1.459-.489-2.353 0-.893.163-1.681.489-2.363.33-.686.788-1.22 1.375-1.602.591-.387 1.28-.58 2.068-.58.455 0 .904.076 1.347.227a3.34 3.34 0 0 1 1.21.739c.364.337.654.784.869 1.34.216.558.324 1.243.324 2.058v.568h-6.727v-1.16h5.364c0-.492-.099-.931-.296-1.317a2.223 2.223 0 0 0-.829-.915c-.356-.224-.777-.335-1.262-.335-.534 0-.996.132-1.386.397a2.615 2.615 0 0 0-.892 1.023 3.01 3.01 0 0 0-.313 1.352v.773c0 .659.114 1.218.341 1.676.231.455.551.801.961 1.04.409.235.884.352 1.426.352.352 0 .67-.049.954-.147.288-.103.536-.254.745-.455.208-.205.369-.458.482-.761l1.296.363c-.136.44-.366.826-.688 1.159-.322.33-.719.587-1.193.773a4.416 4.416 0 0 1-1.596.273Zm8.221.023a3.546 3.546 0 0 1-1.505-.313 2.58 2.58 0 0 1-1.074-.915c-.265-.401-.398-.886-.398-1.454 0-.5.098-.906.295-1.216.197-.315.461-.56.79-.739a4.15 4.15 0 0 1 1.091-.397c.402-.092.805-.163 1.21-.217.531-.068.961-.119 1.29-.153.333-.038.576-.1.727-.187.156-.088.233-.239.233-.455v-.045c0-.561-.153-.997-.46-1.307-.303-.31-.763-.466-1.381-.466-.64 0-1.142.14-1.505.42-.364.28-.62.58-.767.898l-1.273-.455c.227-.53.53-.943.909-1.238a3.39 3.39 0 0 1 1.25-.625 5.196 5.196 0 0 1 1.341-.182c.28 0 .602.034.966.102.367.065.721.2 1.062.404.345.204.631.513.858.926.228.413.341.966.341 1.659V104h-1.341v-1.182h-.068c-.091.19-.242.392-.454.608-.212.216-.495.4-.847.551-.352.152-.782.228-1.29.228Zm.205-1.205c.53 0 .977-.104 1.341-.312a2.133 2.133 0 0 0 1.113-1.847v-1.227c-.056.068-.181.13-.375.187a6.29 6.29 0 0 1-.659.142 27.7 27.7 0 0 1-.721.102c-.231.027-.419.05-.563.069a5.114 5.114 0 0 0-.977.221 1.684 1.684 0 0 0-.727.449c-.182.197-.273.466-.273.807 0 .466.172.818.517 1.057.348.235.79.352 1.324.352Zm12.425-5.773-1.205.341a2.262 2.262 0 0 0-.335-.585 1.628 1.628 0 0 0-.591-.477c-.25-.125-.57-.188-.96-.188-.534 0-.98.123-1.336.37-.352.242-.528.55-.528.926 0 .333.121.596.364.79.242.193.621.354 1.136.482l1.295.319c.781.189 1.362.479 1.745.869.382.386.574.884.574 1.494 0 .5-.144.947-.432 1.341-.284.394-.682.705-1.193.932-.512.227-1.106.341-1.784.341-.891 0-1.627-.193-2.211-.58-.583-.386-.952-.95-1.108-1.693l1.273-.318c.121.47.35.822.688 1.057.34.235.786.352 1.335.352.625 0 1.121-.133 1.488-.398.372-.269.557-.591.557-.966 0-.303-.106-.556-.318-.761-.212-.208-.538-.364-.977-.466l-1.455-.341c-.799-.19-1.386-.483-1.761-.88-.371-.402-.557-.904-.557-1.506 0-.493.138-.928.415-1.307a2.82 2.82 0 0 1 1.142-.892c.485-.216 1.034-.324 1.648-.324.863 0 1.541.19 2.034.568.496.38.848.88 1.057 1.5ZM224.61 104v-8.727h1.341V104h-1.341Zm.682-10.182a.953.953 0 0 1-.676-.267.857.857 0 0 1-.279-.642c0-.25.093-.464.279-.642a.953.953 0 0 1 .676-.267c.261 0 .485.089.67.267.19.178.284.392.284.642s-.094.464-.284.642a.932.932 0 0 1-.67.267Zm4.456-1.454V104h-1.341V92.364h1.341Zm3.319 14.909a2.92 2.92 0 0 1-.607-.057 1.598 1.598 0 0 1-.37-.102l.341-1.182c.326.083.614.113.864.091.25-.023.471-.135.665-.335.196-.197.376-.518.539-.961l.25-.682-3.227-8.772h1.455l2.409 6.954h.091l2.409-6.954h1.454l-3.704 10c-.167.45-.373.824-.62 1.119a2.321 2.321 0 0 1-.858.665 2.643 2.643 0 0 1-1.091.216ZM245.61 104v-8.727h1.341V104h-1.341Zm.682-10.182a.953.953 0 0 1-.676-.267.857.857 0 0 1-.279-.642c0-.25.093-.464.279-.642a.953.953 0 0 1 .676-.267c.261 0 .485.089.67.267.19.178.284.392.284.642s-.094.464-.284.642a.932.932 0 0 1-.67.267Zm6.41 10.364c-.727 0-1.369-.184-1.926-.551-.557-.372-.992-.894-1.307-1.569-.314-.678-.471-1.479-.471-2.403 0-.917.157-1.712.471-2.386.315-.674.752-1.195 1.313-1.563.561-.367 1.208-.55 1.943-.55.568 0 1.017.094 1.347.283.333.186.587.398.761.636.178.235.316.429.415.58h.114v-4.295h1.34V104h-1.295v-1.341h-.159c-.099.159-.239.36-.421.602-.181.239-.441.453-.778.642-.337.186-.786.279-1.347.279Zm.182-1.205c.538 0 .993-.14 1.364-.42.371-.284.653-.676.846-1.176.194-.504.29-1.086.29-1.745 0-.651-.094-1.221-.284-1.71-.189-.492-.47-.875-.841-1.148-.371-.276-.829-.414-1.375-.414-.568 0-1.041.145-1.42.437-.375.288-.657.68-.847 1.176a4.689 4.689 0 0 0-.278 1.66 4.8 4.8 0 0 0 .284 1.693c.193.503.477.905.852 1.204.379.296.849.443 1.409.443Zm10.12 1.205c-.841 0-1.567-.186-2.177-.557a3.742 3.742 0 0 1-1.403-1.568c-.326-.674-.489-1.459-.489-2.353 0-.893.163-1.681.489-2.363.33-.686.788-1.22 1.375-1.602.591-.387 1.28-.58 2.068-.58.455 0 .904.076 1.347.227a3.34 3.34 0 0 1 1.21.739c.364.337.653.784.869 1.34.216.558.324 1.243.324 2.058v.568h-6.727v-1.16h5.364c0-.492-.099-.931-.296-1.317a2.23 2.23 0 0 0-.829-.915c-.357-.224-.777-.335-1.262-.335-.534 0-.996.132-1.386.397a2.608 2.608 0 0 0-.892 1.023c-.209.42-.313.871-.313 1.352v.773c0 .659.114 1.218.341 1.676.231.455.551.801.96 1.04.41.235.885.352 1.427.352.352 0 .67-.049.954-.147.288-.103.536-.254.744-.455.209-.205.37-.458.483-.761l1.296.363c-.137.44-.366.826-.688 1.159-.322.33-.719.587-1.193.773a4.42 4.42 0 0 1-1.596.273Zm6.994-5.432V104h-1.341v-8.727h1.295v1.363h.114c.205-.443.515-.799.932-1.068.417-.272.954-.409 1.614-.409.59 0 1.107.121 1.551.364a2.45 2.45 0 0 1 1.034 1.09c.246.486.369 1.1.369 1.841V104h-1.341v-5.454c0-.686-.178-1.22-.534-1.603-.356-.386-.845-.58-1.466-.58-.428 0-.81.093-1.148.279a1.992 1.992 0 0 0-.789.813c-.194.356-.29.787-.29 1.295Zm11.814-3.477v1.136h-4.523v-1.136h4.523Zm-3.205-2.091h1.341v8.318c0 .379.055.663.165.852a.853.853 0 0 0 .432.375c.178.061.365.091.562.091.148 0 .269-.007.364-.023l.227-.045.273 1.205a2.74 2.74 0 0 1-.381.102 2.792 2.792 0 0 1-.619.057 2.7 2.7 0 0 1-1.114-.245 2.208 2.208 0 0 1-.897-.744c-.235-.333-.353-.754-.353-1.261v-8.682ZM283.829 104v-8.727h1.341V104h-1.341Zm.682-10.182a.951.951 0 0 1-.676-.267.857.857 0 0 1-.279-.642c0-.25.093-.464.279-.642a.951.951 0 0 1 .676-.267c.261 0 .485.089.67.267.19.178.284.392.284.642s-.094.464-.284.642a.932.932 0 0 1-.67.267Zm7.001 1.455v1.136h-4.704v-1.136h4.704ZM288.217 104v-9.932c0-.5.117-.916.352-1.25a2.19 2.19 0 0 1 .915-.75c.375-.166.77-.25 1.187-.25.33 0 .599.027.807.08.208.053.364.102.466.148l-.386 1.158a6.8 6.8 0 0 0-.285-.085 1.714 1.714 0 0 0-.465-.05c-.444 0-.764.11-.961.334-.193.224-.289.551-.289.983V104h-1.341Zm5.174 0v-8.727h1.341V104h-1.341Zm.682-10.182a.953.953 0 0 1-.676-.267.856.856 0 0 1-.278-.642c0-.25.092-.464.278-.642a.953.953 0 0 1 .676-.267c.262 0 .485.089.671.267a.851.851 0 0 1 .284.642c0 .25-.095.464-.284.642a.934.934 0 0 1-.671.267Zm6.774 10.364c-.841 0-1.566-.186-2.176-.557a3.736 3.736 0 0 1-1.403-1.568c-.326-.674-.489-1.459-.489-2.353 0-.893.163-1.681.489-2.363.329-.686.788-1.22 1.375-1.602.591-.387 1.28-.58 2.068-.58.454 0 .903.076 1.347.227a3.34 3.34 0 0 1 1.21.739c.363.337.653.784.869 1.34.216.558.324 1.243.324 2.058v.568h-6.727v-1.16h5.363c0-.492-.098-.931-.295-1.317a2.225 2.225 0 0 0-.83-.915c-.356-.224-.776-.335-1.261-.335-.534 0-.996.132-1.386.397a2.608 2.608 0 0 0-.892 1.023c-.209.42-.313.871-.313 1.352v.773c0 .659.114 1.218.341 1.676.231.455.551.801.96 1.04.409.235.885.352 1.426.352.353 0 .671-.049.955-.147.288-.103.536-.254.744-.455.208-.205.369-.458.483-.761l1.296.363c-.137.44-.366.826-.688 1.159-.322.33-.72.587-1.193.773a4.425 4.425 0 0 1-1.597.273Zm8.949 0c-.727 0-1.369-.184-1.926-.551-.557-.372-.992-.894-1.307-1.569-.314-.678-.471-1.479-.471-2.403 0-.917.157-1.712.471-2.386.315-.674.752-1.195 1.313-1.563.56-.367 1.208-.55 1.943-.55.568 0 1.017.094 1.346.283.334.186.588.398.762.636.178.235.316.429.415.58h.113v-4.295h1.341V104h-1.295v-1.341h-.159c-.099.159-.239.36-.421.602-.182.239-.441.453-.778.642-.337.186-.786.279-1.347.279Zm.182-1.205c.538 0 .992-.14 1.364-.42.371-.284.653-.676.846-1.176.193-.504.29-1.086.29-1.745 0-.651-.095-1.221-.284-1.71-.19-.492-.47-.875-.841-1.148-.371-.276-.83-.414-1.375-.414-.568 0-1.042.145-1.42.437-.375.288-.658.68-.847 1.176a4.667 4.667 0 0 0-.278 1.66 4.8 4.8 0 0 0 .284 1.693c.193.503.477.905.852 1.204.379.296.848.443 1.409.443ZM36.227 124.864c-.459 0-.877-.112-1.256-.336a2.607 2.607 0 0 1-.91-.909 2.422 2.422 0 0 1-.334-1.255c0-.462.111-.881.335-1.256.227-.379.53-.68.909-.903a2.388 2.388 0 0 1 1.256-.341c.462 0 .88.113 1.255.341.379.223.68.524.904.903.227.375.34.794.34 1.256 0 .458-.113.877-.34 1.255a2.56 2.56 0 0 1-.904.909 2.401 2.401 0 0 1-1.255.336Zm12.772-8.25v-1.25h8.728v1.25h-3.66V127h-1.409v-10.386H49ZM59.72 127v-8.727h1.341V127h-1.34Zm.682-10.182a.954.954 0 0 1-.676-.267.858.858 0 0 1-.278-.642c0-.25.092-.464.278-.642a.954.954 0 0 1 .676-.267.93.93 0 0 1 .67.267.85.85 0 0 1 .285.642.85.85 0 0 1-.284.642.934.934 0 0 1-.67.267Zm6.91 1.455v1.136H62.79v-1.136h4.523Zm-3.204-2.091h1.341v8.318c0 .379.055.663.165.852a.85.85 0 0 0 .432.375c.178.061.365.091.562.091.148 0 .27-.007.364-.023l.227-.045.273 1.205a2.76 2.76 0 0 1-.38.102c-.164.038-.37.057-.62.057a2.7 2.7 0 0 1-1.114-.245 2.216 2.216 0 0 1-.897-.744c-.235-.333-.353-.754-.353-1.261v-8.682Zm6.75-.818V127h-1.34v-11.636h1.34Zm6.115 11.818c-.84 0-1.566-.186-2.176-.557a3.74 3.74 0 0 1-1.403-1.568c-.326-.674-.489-1.459-.489-2.352 0-.894.163-1.682.489-2.364.33-.686.788-1.22 1.375-1.602.59-.387 1.28-.58 2.068-.58.454 0 .903.076 1.347.227.443.152.846.398 1.21.739.363.337.653.784.87 1.341.215.557.323 1.242.323 2.057v.568H73.86v-1.159h5.363c0-.493-.098-.932-.295-1.318a2.22 2.22 0 0 0-.83-.915c-.356-.224-.776-.335-1.261-.335-.534 0-.996.132-1.386.397a2.625 2.625 0 0 0-.892 1.023 3.006 3.006 0 0 0-.313 1.352v.773c0 .659.114 1.218.34 1.676.232.455.552.801.961 1.04.41.235.885.352 1.426.352.353 0 .67-.049.955-.147.288-.103.536-.254.744-.455.208-.205.37-.458.483-.761l1.296.363c-.137.44-.366.826-.688 1.159-.322.33-.72.587-1.193.773a4.421 4.421 0 0 1-1.597.273Zm11.836-6.955-1.205.341a2.228 2.228 0 0 0-.335-.585 1.63 1.63 0 0 0-.591-.477c-.25-.125-.57-.188-.96-.188-.534 0-.98.123-1.336.37-.352.242-.528.551-.528.926 0 .333.121.596.364.789.242.194.62.355 1.136.483l1.295.319c.78.189 1.362.479 1.745.869.382.386.574.884.574 1.494 0 .5-.144.947-.432 1.341-.284.394-.682.705-1.193.932-.512.227-1.106.341-1.784.341-.89 0-1.627-.193-2.21-.58-.584-.386-.953-.95-1.109-1.693l1.273-.318c.121.47.35.822.688 1.057.34.235.786.352 1.335.352.625 0 1.121-.133 1.488-.398.372-.269.557-.591.557-.966 0-.303-.106-.556-.318-.761-.212-.208-.538-.364-.977-.466l-1.455-.341c-.799-.189-1.386-.483-1.761-.88-.371-.402-.557-.904-.557-1.506 0-.493.138-.928.415-1.307.28-.379.66-.676 1.142-.892.485-.216 1.034-.324 1.648-.324.863 0 1.541.189 2.034.568.496.379.848.879 1.056 1.5Zm9.245 6.978a3.551 3.551 0 0 1-1.505-.313 2.582 2.582 0 0 1-1.074-.915c-.265-.401-.398-.886-.398-1.454 0-.5.099-.906.295-1.216.197-.315.46-.561.79-.739.33-.178.693-.31 1.091-.398.402-.09.805-.162 1.21-.215.53-.069.96-.12 1.29-.154.333-.038.576-.1.727-.187.156-.087.233-.239.233-.455v-.045c0-.561-.153-.997-.46-1.307-.303-.311-.763-.466-1.38-.466-.64 0-1.143.14-1.506.42-.364.281-.62.58-.767.898l-1.273-.454c.227-.531.53-.944.91-1.239a3.39 3.39 0 0 1 1.25-.625 5.199 5.199 0 0 1 1.34-.182c.28 0 .602.034.966.102.367.065.721.199 1.062.404.345.204.631.513.858.926.228.413.341.966.341 1.659V127h-1.341v-1.182h-.068c-.091.19-.242.392-.454.608-.212.216-.495.4-.847.551-.352.152-.782.228-1.29.228Zm.205-1.205c.53 0 .977-.104 1.34-.312a2.132 2.132 0 0 0 1.114-1.847v-1.227c-.056.068-.181.13-.375.187a6.136 6.136 0 0 1-.659.142 27.7 27.7 0 0 1-.721.102c-.231.027-.419.05-.563.069a5.108 5.108 0 0 0-.977.221c-.3.099-.542.248-.727.449-.182.197-.273.466-.273.807 0 .466.172.818.517 1.057.348.235.79.352 1.324.352Zm7.584-4.25V127h-1.341v-8.727h1.295v1.363h.114c.204-.443.515-.799.932-1.068.416-.273.954-.409 1.613-.409.591 0 1.108.121 1.551.364.444.238.788.602 1.034 1.091.247.484.37 1.098.37 1.841V127h-1.341v-5.455c0-.685-.178-1.219-.534-1.602-.356-.386-.845-.579-1.466-.579-.428 0-.811.092-1.148.278a1.998 1.998 0 0 0-.79.813c-.193.356-.289.787-.289 1.295Zm11.314 5.432c-.728 0-1.37-.184-1.927-.551-.556-.372-.992-.894-1.306-1.569-.315-.678-.472-1.479-.472-2.403 0-.917.157-1.712.472-2.386.314-.675.751-1.195 1.312-1.563.561-.367 1.208-.551 1.943-.551.568 0 1.017.095 1.347.284.333.186.587.398.761.637.178.234.317.428.415.579h.114v-4.295h1.341V127h-1.296v-1.341h-.159a8.61 8.61 0 0 1-.42.602c-.182.239-.442.453-.779.642-.337.186-.786.279-1.346.279Zm.181-1.205c.538 0 .993-.14 1.364-.42.371-.284.653-.676.847-1.176.193-.504.289-1.086.289-1.745 0-.651-.094-1.221-.284-1.71-.189-.492-.469-.875-.841-1.148-.371-.276-.829-.414-1.375-.414-.568 0-1.041.145-1.42.437-.375.288-.657.68-.847 1.176a4.694 4.694 0 0 0-.278 1.659c0 .622.095 1.186.284 1.694.193.503.477.905.852 1.204.379.296.849.443 1.409.443ZM128.479 127v-11.636h1.341v4.295h.114c.098-.151.235-.345.409-.579.178-.239.432-.451.761-.637.334-.189.784-.284 1.353-.284.735 0 1.382.184 1.943.551.56.368.998.888 1.312 1.563.315.674.472 1.469.472 2.386 0 .924-.157 1.725-.472 2.403-.314.675-.75 1.197-1.306 1.569-.557.367-1.199.551-1.927.551-.56 0-1.009-.093-1.346-.279-.337-.189-.597-.403-.779-.642a8.61 8.61 0 0 1-.42-.602h-.159V127h-1.296Zm1.319-4.364c0 .659.096 1.241.289 1.745.194.5.476.892.847 1.176.371.28.826.42 1.364.42.56 0 1.028-.147 1.403-.443.379-.299.663-.701.852-1.204.193-.508.29-1.072.29-1.694 0-.613-.095-1.166-.284-1.659-.186-.496-.468-.888-.847-1.176-.375-.292-.846-.437-1.414-.437-.546 0-1.004.138-1.375.414-.372.273-.652.656-.841 1.148-.19.489-.284 1.059-.284 1.71Zm11.983 4.546c-.788 0-1.48-.188-2.074-.563-.591-.375-1.053-.899-1.387-1.574-.329-.674-.494-1.462-.494-2.363 0-.909.165-1.703.494-2.381.334-.678.796-1.204 1.387-1.579.594-.375 1.286-.563 2.074-.563.787 0 1.477.188 2.068.563.594.375 1.057.901 1.386 1.579.333.678.5 1.472.5 2.381 0 .901-.167 1.689-.5 2.363a3.765 3.765 0 0 1-1.386 1.574c-.591.375-1.281.563-2.068.563Zm0-1.205c.598 0 1.09-.153 1.477-.46a2.72 2.72 0 0 0 .858-1.21c.185-.5.278-1.042.278-1.625 0-.584-.093-1.127-.278-1.631a2.748 2.748 0 0 0-.858-1.221c-.387-.311-.879-.466-1.477-.466-.599 0-1.091.155-1.478.466-.386.31-.672.717-.858 1.221a4.695 4.695 0 0 0-.278 1.631c0 .583.093 1.125.278 1.625.186.5.472.903.858 1.21.387.307.879.46 1.478.46Zm9.296 1.205c-.727 0-1.369-.184-1.926-.551-.557-.372-.992-.894-1.307-1.569-.314-.678-.471-1.479-.471-2.403 0-.917.157-1.712.471-2.386.315-.675.752-1.195 1.313-1.563.561-.367 1.208-.551 1.943-.551.568 0 1.017.095 1.347.284.333.186.587.398.761.637.178.234.316.428.415.579h.114v-4.295h1.34V127h-1.295v-1.341h-.159c-.099.159-.239.36-.421.602-.181.239-.441.453-.778.642-.337.186-.786.279-1.347.279Zm.182-1.205c.538 0 .993-.14 1.364-.42.371-.284.653-.676.846-1.176.194-.504.29-1.086.29-1.745 0-.651-.094-1.221-.284-1.71-.189-.492-.47-.875-.841-1.148-.371-.276-.829-.414-1.375-.414-.568 0-1.041.145-1.42.437-.375.288-.657.68-.847 1.176a4.694 4.694 0 0 0-.278 1.659c0 .622.094 1.186.284 1.694.193.503.477.905.852 1.204.379.296.849.443 1.409.443Zm6.46 1.023v-8.727h1.341V127h-1.341Zm.682-10.182a.955.955 0 0 1-.676-.267.86.86 0 0 1-.278-.642.86.86 0 0 1 .278-.642.955.955 0 0 1 .676-.267c.262 0 .485.089.671.267a.851.851 0 0 1 .284.642c0 .25-.095.464-.284.642a.935.935 0 0 1-.671.267Zm6.774 10.364c-.84 0-1.566-.186-2.176-.557a3.736 3.736 0 0 1-1.403-1.568c-.326-.674-.489-1.459-.489-2.352 0-.894.163-1.682.489-2.364.329-.686.788-1.22 1.375-1.602.591-.387 1.28-.58 2.068-.58.455 0 .903.076 1.347.227.443.152.846.398 1.21.739.364.337.653.784.869 1.341.216.557.324 1.242.324 2.057v.568h-6.727v-1.159h5.363c0-.493-.098-.932-.295-1.318a2.219 2.219 0 0 0-.83-.915c-.356-.224-.776-.335-1.261-.335-.534 0-.996.132-1.386.397a2.617 2.617 0 0 0-.892 1.023 2.997 2.997 0 0 0-.313 1.352v.773c0 .659.114 1.218.341 1.676.231.455.551.801.96 1.04.409.235.885.352 1.426.352.353 0 .671-.049.955-.147.288-.103.536-.254.744-.455.209-.205.37-.458.483-.761l1.296.363c-.137.44-.366.826-.688 1.159-.322.33-.719.587-1.193.773a4.421 4.421 0 0 1-1.597.273Zm11.836-6.955-1.205.341a2.224 2.224 0 0 0-.335-.585 1.63 1.63 0 0 0-.591-.477c-.25-.125-.57-.188-.96-.188-.534 0-.979.123-1.335.37-.353.242-.529.551-.529.926 0 .333.121.596.364.789.242.194.621.355 1.136.483l1.296.319c.78.189 1.361.479 1.744.869.382.386.574.884.574 1.494 0 .5-.144.947-.432 1.341-.284.394-.682.705-1.193.932-.512.227-1.106.341-1.784.341-.89 0-1.627-.193-2.211-.58-.583-.386-.952-.95-1.108-1.693l1.273-.318c.121.47.351.822.688 1.057.341.235.786.352 1.335.352.625 0 1.121-.133 1.489-.398.371-.269.556-.591.556-.966 0-.303-.106-.556-.318-.761-.212-.208-.538-.364-.977-.466l-1.455-.341c-.799-.189-1.386-.483-1.761-.88-.371-.402-.557-.904-.557-1.506 0-.493.138-.928.415-1.307a2.82 2.82 0 0 1 1.142-.892c.485-.216 1.034-.324 1.648-.324.863 0 1.541.189 2.034.568a3.07 3.07 0 0 1 1.057 1.5Zm12.859 0-1.205.341a2.197 2.197 0 0 0-.335-.585 1.63 1.63 0 0 0-.591-.477c-.25-.125-.57-.188-.96-.188-.534 0-.979.123-1.335.37-.352.242-.529.551-.529.926 0 .333.122.596.364.789.243.194.621.355 1.136.483l1.296.319c.78.189 1.362.479 1.744.869.383.386.574.884.574 1.494 0 .5-.144.947-.432 1.341-.284.394-.682.705-1.193.932-.511.227-1.106.341-1.784.341-.89 0-1.627-.193-2.21-.58-.584-.386-.953-.95-1.108-1.693l1.273-.318c.121.47.35.822.687 1.057.341.235.786.352 1.335.352.625 0 1.122-.133 1.489-.398.371-.269.557-.591.557-.966 0-.303-.106-.556-.318-.761-.213-.208-.538-.364-.978-.466l-1.454-.341c-.799-.189-1.387-.483-1.762-.88-.371-.402-.556-.904-.556-1.506 0-.493.138-.928.414-1.307a2.827 2.827 0 0 1 1.142-.892c.485-.216 1.034-.324 1.648-.324.864 0 1.542.189 2.034.568.496.379.849.879 1.057 1.5Zm3.518 1.523V127h-1.34v-11.636h1.34v4.272h.114c.205-.45.511-.808.921-1.074.412-.268.962-.403 1.647-.403.595 0 1.116.119 1.563.358.447.235.793.597 1.04 1.085.25.485.375 1.103.375 1.853V127h-1.341v-5.455c0-.693-.18-1.229-.54-1.607-.356-.383-.85-.574-1.483-.574-.439 0-.833.092-1.182.278a2.032 2.032 0 0 0-.818.813c-.197.356-.296.787-.296 1.295Zm11.658 5.432c-.788 0-1.479-.188-2.074-.563-.591-.375-1.053-.899-1.386-1.574-.33-.674-.494-1.462-.494-2.363 0-.909.164-1.703.494-2.381.333-.678.795-1.204 1.386-1.579.595-.375 1.286-.563 2.074-.563.788 0 1.477.188 2.068.563.595.375 1.057.901 1.387 1.579.333.678.5 1.472.5 2.381 0 .901-.167 1.689-.5 2.363-.33.675-.792 1.199-1.387 1.574-.591.375-1.28.563-2.068.563Zm0-1.205c.599 0 1.091-.153 1.477-.46.387-.307.673-.71.858-1.21.186-.5.279-1.042.279-1.625 0-.584-.093-1.127-.279-1.631a2.732 2.732 0 0 0-.858-1.221c-.386-.311-.878-.466-1.477-.466-.598 0-1.091.155-1.477.466-.386.31-.672.717-.858 1.221a4.671 4.671 0 0 0-.278 1.631c0 .583.092 1.125.278 1.625.186.5.472.903.858 1.21.386.307.879.46 1.477.46Zm11.502-2.545v-5.159h1.34V127h-1.34v-1.477h-.091c-.205.443-.523.82-.955 1.13-.432.307-.977.461-1.636.461-.546 0-1.031-.12-1.455-.358-.424-.243-.757-.606-1-1.091-.242-.489-.363-1.104-.363-1.847v-5.545h1.34v5.454c0 .637.179 1.144.535 1.523.359.379.818.568 1.375.568.333 0 .672-.085 1.017-.256.348-.17.64-.431.875-.784.238-.352.358-.801.358-1.346Zm5.137-8.068V127h-1.341v-11.636h1.341Zm5.752 11.818c-.727 0-1.37-.184-1.926-.551-.557-.372-.993-.894-1.307-1.569-.315-.678-.472-1.479-.472-2.403 0-.917.157-1.712.472-2.386.314-.675.752-1.195 1.312-1.563.561-.367 1.209-.551 1.944-.551.568 0 1.017.095 1.346.284.333.186.587.398.761.637.179.234.317.428.415.579h.114v-4.295h1.341V127h-1.296v-1.341h-.159c-.098.159-.238.36-.42.602-.182.239-.441.453-.779.642-.337.186-.786.279-1.346.279Zm.182-1.205c.537 0 .992-.14 1.363-.42.371-.284.654-.676.847-1.176.193-.504.29-1.086.29-1.745 0-.651-.095-1.221-.284-1.71-.19-.492-.47-.875-.841-1.148-.372-.276-.83-.414-1.375-.414-.569 0-1.042.145-1.421.437-.375.288-.657.68-.846 1.176a4.67 4.67 0 0 0-.279 1.659c0 .622.095 1.186.284 1.694.193.503.478.905.853 1.204.378.296.848.443 1.409.443ZM238.761 127v-11.636h1.341v4.295h.113c.099-.151.235-.345.409-.579.178-.239.432-.451.762-.637.333-.189.784-.284 1.352-.284.735 0 1.383.184 1.943.551.561.368.998.888 1.313 1.563.314.674.471 1.469.471 2.386 0 .924-.157 1.725-.471 2.403-.315.675-.75 1.197-1.307 1.569-.557.367-1.199.551-1.926.551-.561 0-1.01-.093-1.347-.279-.337-.189-.597-.403-.778-.642a8.677 8.677 0 0 1-.421-.602h-.159V127h-1.295Zm1.318-4.364c0 .659.096 1.241.29 1.745.193.5.475.892.846 1.176.371.28.826.42 1.364.42.56 0 1.028-.147 1.403-.443.379-.299.663-.701.853-1.204a4.734 4.734 0 0 0 .289-1.694c0-.613-.094-1.166-.284-1.659-.185-.496-.468-.888-.846-1.176-.375-.292-.847-.437-1.415-.437-.546 0-1.004.138-1.375.414-.371.273-.652.656-.841 1.148-.189.489-.284 1.059-.284 1.71Zm12.096 4.546c-.84 0-1.566-.186-2.176-.557a3.736 3.736 0 0 1-1.403-1.568c-.326-.674-.489-1.459-.489-2.352 0-.894.163-1.682.489-2.364.329-.686.788-1.22 1.375-1.602.591-.387 1.28-.58 2.068-.58.455 0 .903.076 1.347.227.443.152.846.398 1.21.739.364.337.653.784.869 1.341.216.557.324 1.242.324 2.057v.568h-6.727v-1.159h5.363c0-.493-.098-.932-.295-1.318a2.219 2.219 0 0 0-.83-.915c-.356-.224-.776-.335-1.261-.335-.534 0-.996.132-1.386.397a2.617 2.617 0 0 0-.892 1.023 2.997 2.997 0 0 0-.313 1.352v.773c0 .659.114 1.218.341 1.676.231.455.551.801.96 1.04.409.235.885.352 1.426.352.353 0 .671-.049.955-.147.288-.103.536-.254.744-.455.209-.205.37-.458.483-.761l1.296.363c-.137.44-.366.826-.688 1.159-.322.33-.719.587-1.193.773a4.421 4.421 0 0 1-1.597.273Zm13.449 0c-.727 0-1.369-.184-1.926-.551-.557-.372-.992-.894-1.307-1.569-.314-.678-.471-1.479-.471-2.403 0-.917.157-1.712.471-2.386.315-.675.752-1.195 1.313-1.563.56-.367 1.208-.551 1.943-.551.568 0 1.017.095 1.347.284.333.186.587.398.761.637.178.234.316.428.415.579h.113v-4.295h1.341V127h-1.295v-1.341h-.159c-.099.159-.239.36-.421.602-.182.239-.441.453-.778.642-.337.186-.786.279-1.347.279Zm.182-1.205c.538 0 .993-.14 1.364-.42.371-.284.653-.676.846-1.176.194-.504.29-1.086.29-1.745 0-.651-.095-1.221-.284-1.71-.189-.492-.47-.875-.841-1.148-.371-.276-.829-.414-1.375-.414-.568 0-1.042.145-1.42.437-.375.288-.658.68-.847 1.176a4.671 4.671 0 0 0-.278 1.659c0 .622.094 1.186.284 1.694.193.503.477.905.852 1.204.379.296.849.443 1.409.443Zm6.46 1.023v-8.727h1.341V127h-1.341Zm.682-10.182a.953.953 0 0 1-.676-.267.856.856 0 0 1-.278-.642c0-.25.092-.464.278-.642a.953.953 0 0 1 .676-.267c.262 0 .485.089.671.267a.851.851 0 0 1 .284.642c0 .25-.095.464-.284.642a.935.935 0 0 1-.671.267Zm9.297 3.409-1.205.341a2.197 2.197 0 0 0-.335-.585 1.63 1.63 0 0 0-.591-.477c-.25-.125-.57-.188-.96-.188-.534 0-.979.123-1.335.37-.352.242-.529.551-.529.926 0 .333.122.596.364.789.243.194.621.355 1.136.483l1.296.319c.78.189 1.362.479 1.744.869.383.386.574.884.574 1.494 0 .5-.144.947-.432 1.341-.284.394-.682.705-1.193.932-.511.227-1.106.341-1.784.341-.89 0-1.627-.193-2.21-.58-.584-.386-.953-.95-1.108-1.693l1.273-.318c.121.47.35.822.687 1.057.341.235.786.352 1.335.352.625 0 1.122-.133 1.489-.398.371-.269.557-.591.557-.966 0-.303-.106-.556-.318-.761-.213-.208-.538-.364-.978-.466l-1.454-.341c-.799-.189-1.387-.483-1.762-.88-.371-.402-.556-.904-.556-1.506 0-.493.138-.928.414-1.307a2.827 2.827 0 0 1 1.142-.892c.485-.216 1.034-.324 1.648-.324.864 0 1.542.189 2.034.568.496.379.849.879 1.057 1.5Zm5.973-1.954v1.136h-4.523v-1.136h4.523Zm-3.205-2.091h1.341v8.318c0 .379.055.663.165.852a.853.853 0 0 0 .432.375c.178.061.366.091.562.091.148 0 .269-.007.364-.023l.227-.045.273 1.205a2.74 2.74 0 0 1-.381.102 2.785 2.785 0 0 1-.619.057 2.7 2.7 0 0 1-1.114-.245 2.214 2.214 0 0 1-.897-.744c-.235-.333-.353-.754-.353-1.261v-8.682ZM290.235 127v-8.727h1.341V127h-1.341Zm.682-10.182a.953.953 0 0 1-.676-.267.857.857 0 0 1-.279-.642c0-.25.093-.464.279-.642a.953.953 0 0 1 .676-.267c.261 0 .485.089.67.267.19.178.284.392.284.642s-.094.464-.284.642a.932.932 0 0 1-.67.267Zm4.456 4.932V127h-1.341v-8.727h1.295v1.363h.114c.205-.443.515-.799.932-1.068.417-.273.954-.409 1.614-.409.59 0 1.107.121 1.551.364.443.238.788.602 1.034 1.091.246.484.369 1.098.369 1.841V127H299.6v-5.455c0-.685-.178-1.219-.534-1.602-.356-.386-.845-.579-1.466-.579-.428 0-.81.092-1.148.278a1.99 1.99 0 0 0-.789.813c-.194.356-.29.787-.29 1.295Zm11.541 8.705c-.648 0-1.204-.084-1.67-.25a3.54 3.54 0 0 1-1.165-.648 3.54 3.54 0 0 1-.733-.852l1.068-.75c.121.159.275.34.46.545.186.208.44.388.762.54.325.155.752.233 1.278.233.705 0 1.286-.171 1.744-.512.459-.341.688-.875.688-1.602v-1.773h-.114a7.079 7.079 0 0 1-.42.591c-.178.231-.436.438-.773.62-.333.178-.784.267-1.352.267a3.646 3.646 0 0 1-1.898-.5c-.557-.334-.998-.819-1.324-1.455-.322-.636-.483-1.409-.483-2.318 0-.894.157-1.672.472-2.335.314-.667.752-1.182 1.312-1.546.561-.367 1.209-.551 1.944-.551.568 0 1.018.095 1.352.284.337.186.594.398.773.637.181.234.321.428.42.579h.136v-1.386h1.296v8.977c0 .75-.171 1.36-.512 1.83-.337.473-.791.82-1.363 1.039a5.135 5.135 0 0 1-1.898.336Zm-.045-4.796c.537 0 .992-.123 1.363-.369s.654-.601.847-1.063c.193-.462.29-1.015.29-1.659 0-.629-.095-1.184-.284-1.665-.19-.481-.47-.858-.841-1.13-.372-.273-.83-.409-1.375-.409-.569 0-1.042.144-1.421.431a2.628 2.628 0 0 0-.846 1.16 4.465 4.465 0 0 0-.279 1.613c0 .606.095 1.142.284 1.608.193.462.478.826.853 1.091.378.261.848.392 1.409.392Zm11.772-2.227v-5.159h1.341V127h-1.341v-1.477h-.091c-.204.443-.522.82-.954 1.13-.432.307-.977.461-1.636.461-.546 0-1.031-.12-1.455-.358-.424-.243-.758-.606-1-1.091-.242-.489-.364-1.104-.364-1.847v-5.545h1.341v5.454c0 .637.178 1.144.534 1.523.36.379.819.568 1.375.568.334 0 .673-.085 1.017-.256.349-.17.641-.431.875-.784.239-.352.358-.801.358-1.346Zm3.797 3.568v-8.727h1.341V127h-1.341Zm.682-10.182a.953.953 0 0 1-.676-.267.857.857 0 0 1-.279-.642c0-.25.093-.464.279-.642a.953.953 0 0 1 .676-.267c.261 0 .485.089.67.267.19.178.285.392.285.642s-.095.464-.285.642a.932.932 0 0 1-.67.267Zm9.297 3.409-1.205.341a2.197 2.197 0 0 0-.335-.585 1.63 1.63 0 0 0-.591-.477c-.25-.125-.57-.188-.96-.188-.534 0-.979.123-1.335.37-.353.242-.529.551-.529.926 0 .333.122.596.364.789.242.194.621.355 1.136.483l1.296.319c.78.189 1.362.479 1.744.869.383.386.574.884.574 1.494 0 .5-.144.947-.432 1.341-.284.394-.682.705-1.193.932-.511.227-1.106.341-1.784.341-.89 0-1.627-.193-2.21-.58-.584-.386-.953-.95-1.108-1.693l1.272-.318c.122.47.351.822.688 1.057.341.235.786.352 1.335.352.625 0 1.121-.133 1.489-.398.371-.269.557-.591.557-.966 0-.303-.106-.556-.319-.761-.212-.208-.537-.364-.977-.466l-1.454-.341c-.8-.189-1.387-.483-1.762-.88-.371-.402-.557-.904-.557-1.506 0-.493.139-.928.415-1.307a2.827 2.827 0 0 1 1.142-.892c.485-.216 1.034-.324 1.648-.324.864 0 1.542.189 2.034.568.496.379.849.879 1.057 1.5Zm3.518 1.523V127h-1.341v-11.636h1.341v4.272h.114c.205-.45.511-.808.92-1.074.413-.268.963-.403 1.648-.403.595 0 1.116.119 1.563.358.447.235.793.597 1.039 1.085.25.485.375 1.103.375 1.853V127h-1.34v-5.455c0-.693-.18-1.229-.54-1.607-.356-.383-.851-.574-1.483-.574-.44 0-.834.092-1.182.278a2.032 2.032 0 0 0-.818.813c-.197.356-.296.787-.296 1.295Zm11.772 5.432c-.841 0-1.567-.186-2.176-.557a3.738 3.738 0 0 1-1.404-1.568c-.326-.674-.489-1.459-.489-2.352 0-.894.163-1.682.489-2.364.33-.686.788-1.22 1.375-1.602.591-.387 1.28-.58 2.068-.58.455 0 .904.076 1.347.227.443.152.846.398 1.21.739.364.337.654.784.869 1.341.216.557.324 1.242.324 2.057v.568h-6.727v-1.159h5.364c0-.493-.099-.932-.296-1.318a2.217 2.217 0 0 0-.829-.915c-.356-.224-.777-.335-1.262-.335-.534 0-.996.132-1.386.397a2.625 2.625 0 0 0-.892 1.023 3.01 3.01 0 0 0-.313 1.352v.773c0 .659.114 1.218.341 1.676.231.455.551.801.961 1.04.409.235.884.352 1.426.352.352 0 .67-.049.954-.147.288-.103.536-.254.745-.455.208-.205.369-.458.482-.761l1.296.363c-.136.44-.366.826-.688 1.159-.322.33-.719.587-1.193.773a4.416 4.416 0 0 1-1.596.273Zm8.949 0c-.728 0-1.37-.184-1.927-.551-.556-.372-.992-.894-1.306-1.569-.315-.678-.472-1.479-.472-2.403 0-.917.157-1.712.472-2.386.314-.675.751-1.195 1.312-1.563.561-.367 1.208-.551 1.943-.551.568 0 1.017.095 1.347.284.333.186.587.398.761.637.178.234.317.428.415.579h.114v-4.295h1.341V127h-1.296v-1.341h-.159a8.61 8.61 0 0 1-.42.602c-.182.239-.442.453-.779.642-.337.186-.786.279-1.346.279Zm.181-1.205c.538 0 .993-.14 1.364-.42.371-.284.653-.676.847-1.176.193-.504.289-1.086.289-1.745 0-.651-.094-1.221-.284-1.71-.189-.492-.469-.875-.841-1.148-.371-.276-.829-.414-1.375-.414-.568 0-1.041.145-1.42.437-.375.288-.657.68-.847 1.176a4.694 4.694 0 0 0-.278 1.659c0 .622.095 1.186.284 1.694.193.503.477.905.852 1.204.379.296.849.443 1.409.443ZM369.775 127l-2.659-8.727h1.409l1.886 6.682h.091l1.864-6.682h1.432l1.84 6.659h.091l1.887-6.659h1.409L376.366 127h-1.318l-1.91-6.705h-.136L371.093 127h-1.318Zm11.023 0v-8.727h1.34V127h-1.34Zm.681-10.182a.955.955 0 0 1-.676-.267.86.86 0 0 1-.278-.642.86.86 0 0 1 .278-.642.955.955 0 0 1 .676-.267c.262 0 .485.089.671.267a.851.851 0 0 1 .284.642c0 .25-.095.464-.284.642a.935.935 0 0 1-.671.267Zm6.911 1.455v1.136h-4.523v-1.136h4.523Zm-3.205-2.091h1.341v8.318c0 .379.055.663.165.852a.853.853 0 0 0 .432.375c.178.061.365.091.562.091.148 0 .269-.007.364-.023l.227-.045.273 1.205a2.74 2.74 0 0 1-.381.102 2.792 2.792 0 0 1-.619.057 2.7 2.7 0 0 1-1.114-.245 2.214 2.214 0 0 1-.897-.744c-.235-.333-.353-.754-.353-1.261v-8.682Zm6.75 5.568V127h-1.341v-11.636h1.341v4.272h.114c.205-.45.511-.808.92-1.074.413-.268.963-.403 1.648-.403.595 0 1.116.119 1.563.358.447.235.793.597 1.039 1.085.25.485.375 1.103.375 1.853V127h-1.34v-5.455c0-.693-.18-1.229-.54-1.607-.356-.383-.851-.574-1.483-.574-.44 0-.834.092-1.182.278a2.032 2.032 0 0 0-.818.813c-.197.356-.296.787-.296 1.295Zm15.908 5.432c-.727 0-1.369-.184-1.926-.551-.557-.372-.993-.894-1.307-1.569-.314-.678-.472-1.479-.472-2.403 0-.917.158-1.712.472-2.386.314-.675.752-1.195 1.313-1.563.56-.367 1.208-.551 1.943-.551.568 0 1.017.095 1.346.284.334.186.587.398.762.637.178.234.316.428.414.579h.114v-4.295h1.341V127h-1.295v-1.341h-.16c-.098.159-.238.36-.42.602-.182.239-.441.453-.778.642-.337.186-.786.279-1.347.279Zm.182-1.205c.538 0 .992-.14 1.363-.42.372-.284.654-.676.847-1.176.193-.504.29-1.086.29-1.745 0-.651-.095-1.221-.284-1.71-.19-.492-.47-.875-.841-1.148-.371-.276-.83-.414-1.375-.414-.568 0-1.042.145-1.421.437-.375.288-.657.68-.846 1.176a4.67 4.67 0 0 0-.279 1.659c0 .622.095 1.186.284 1.694.194.503.478.905.853 1.204.379.296.848.443 1.409.443Zm6.46 1.023v-8.727h1.341V127h-1.341Zm.682-10.182a.953.953 0 0 1-.676-.267.857.857 0 0 1-.279-.642c0-.25.093-.464.279-.642a.953.953 0 0 1 .676-.267c.261 0 .485.089.67.267.19.178.284.392.284.642s-.094.464-.284.642a.932.932 0 0 1-.67.267Zm7.001 1.455v1.136h-4.704v-1.136h4.704ZM418.873 127v-9.932c0-.5.117-.916.352-1.25a2.19 2.19 0 0 1 .915-.75c.375-.166.771-.25 1.187-.25.33 0 .599.027.807.08.209.053.364.102.466.147l-.386 1.16a5.962 5.962 0 0 0-.284-.086 1.731 1.731 0 0 0-.466-.051c-.443 0-.763.112-.96.335-.194.224-.29.552-.29.983V127h-1.341Zm9.061-8.727v1.136h-4.705v-1.136h4.705ZM424.638 127v-9.932c0-.5.118-.916.353-1.25a2.19 2.19 0 0 1 .915-.75c.375-.166.77-.25 1.187-.25.33 0 .599.027.807.08.208.053.363.102.466.147l-.387 1.16a5.62 5.62 0 0 0-.284-.086 1.721 1.721 0 0 0-.466-.051c-.443 0-.763.112-.96.335-.193.224-.29.552-.29.983V127h-1.341Zm8.475.182c-.841 0-1.566-.186-2.176-.557a3.744 3.744 0 0 1-1.404-1.568c-.325-.674-.488-1.459-.488-2.352 0-.894.163-1.682.488-2.364.33-.686.788-1.22 1.375-1.602.591-.387 1.281-.58 2.069-.58.454 0 .903.076 1.346.227.443.152.847.398 1.21.739.364.337.654.784.87 1.341.216.557.324 1.242.324 2.057v.568h-6.728v-1.159h5.364c0-.493-.099-.932-.296-1.318a2.217 2.217 0 0 0-.829-.915c-.356-.224-.777-.335-1.261-.335-.535 0-.997.132-1.387.397a2.625 2.625 0 0 0-.892 1.023 3.01 3.01 0 0 0-.312 1.352v.773c0 .659.113 1.218.341 1.676.231.455.551.801.96 1.04.409.235.884.352 1.426.352.352 0 .67-.049.954-.147.288-.103.536-.254.745-.455.208-.205.369-.458.483-.761l1.295.363a2.86 2.86 0 0 1-.687 1.159c-.322.33-.72.587-1.193.773a4.425 4.425 0 0 1-1.597.273Zm5.653-.182v-8.727h1.296v1.318h.091c.159-.432.447-.782.863-1.051a2.544 2.544 0 0 1 1.409-.404c.099 0 .222.002.37.006.147.004.259.01.335.017v1.364a3.396 3.396 0 0 0-.313-.051 3.014 3.014 0 0 0-.505-.04 2.38 2.38 0 0 0-1.137.267c-.329.174-.59.417-.784.727a1.963 1.963 0 0 0-.284 1.051V127h-1.341Zm9.347.182c-.841 0-1.566-.186-2.176-.557a3.744 3.744 0 0 1-1.404-1.568c-.325-.674-.488-1.459-.488-2.352 0-.894.163-1.682.488-2.364.33-.686.788-1.22 1.375-1.602.591-.387 1.281-.58 2.069-.58.454 0 .903.076 1.346.227.443.152.847.398 1.21.739.364.337.654.784.87 1.341.216.557.324 1.242.324 2.057v.568h-6.728v-1.159h5.364c0-.493-.099-.932-.296-1.318a2.217 2.217 0 0 0-.829-.915c-.356-.224-.777-.335-1.261-.335-.535 0-.997.132-1.387.397a2.625 2.625 0 0 0-.892 1.023 3.01 3.01 0 0 0-.312 1.352v.773c0 .659.113 1.218.341 1.676.231.455.551.801.96 1.04.409.235.884.352 1.426.352.352 0 .67-.049.954-.147.288-.103.536-.254.745-.455.208-.205.369-.458.483-.761l1.295.363a2.86 2.86 0 0 1-.687 1.159c-.322.33-.72.587-1.193.773a4.425 4.425 0 0 1-1.597.273Zm6.994-5.432V127h-1.341v-8.727h1.296v1.363h.113c.205-.443.516-.799.932-1.068.417-.273.955-.409 1.614-.409.591 0 1.108.121 1.551.364.443.238.788.602 1.034 1.091.246.484.369 1.098.369 1.841V127h-1.34v-5.455c0-.685-.179-1.219-.535-1.602-.356-.386-.844-.579-1.465-.579-.429 0-.811.092-1.148.278a1.985 1.985 0 0 0-.79.813c-.193.356-.29.787-.29 1.295Zm11.814-3.477v1.136h-4.523v-1.136h4.523Zm-3.204-2.091h1.341v8.318c0 .379.054.663.164.852a.853.853 0 0 0 .432.375c.178.061.366.091.563.091.147 0 .269-.007.363-.023l.228-.045.272 1.205a2.76 2.76 0 0 1-.38.102c-.163.038-.37.057-.62.057-.379 0-.75-.082-1.113-.245a2.217 2.217 0 0 1-.898-.744c-.235-.333-.352-.754-.352-1.261v-8.682ZM475.415 127l-2.659-8.727h1.409l1.887 6.682h.091l1.863-6.682h1.432l1.841 6.659h.091l1.886-6.659h1.409L482.006 127h-1.318l-1.909-6.705h-.136L476.734 127h-1.319Zm14.385.182c-.84 0-1.566-.186-2.176-.557a3.736 3.736 0 0 1-1.403-1.568c-.326-.674-.489-1.459-.489-2.352 0-.894.163-1.682.489-2.364.329-.686.788-1.22 1.375-1.602.591-.387 1.28-.58 2.068-.58.455 0 .903.076 1.347.227.443.152.846.398 1.21.739.364.337.653.784.869 1.341.216.557.324 1.242.324 2.057v.568h-6.727v-1.159h5.363c0-.493-.098-.932-.295-1.318a2.219 2.219 0 0 0-.83-.915c-.356-.224-.776-.335-1.261-.335-.534 0-.996.132-1.386.397a2.617 2.617 0 0 0-.892 1.023 2.997 2.997 0 0 0-.313 1.352v.773c0 .659.114 1.218.341 1.676.231.455.551.801.96 1.04.409.235.885.352 1.426.352.353 0 .671-.049.955-.147.288-.103.536-.254.744-.455.209-.205.37-.458.483-.761l1.296.363c-.137.44-.366.826-.688 1.159-.322.33-.719.587-1.193.773a4.421 4.421 0 0 1-1.597.273Zm5.654-.182v-8.727h1.341V127h-1.341Zm.682-10.182a.951.951 0 0 1-.676-.267.857.857 0 0 1-.279-.642c0-.25.093-.464.279-.642a.951.951 0 0 1 .676-.267c.261 0 .485.089.67.267.19.178.284.392.284.642s-.094.464-.284.642a.932.932 0 0 1-.67.267Zm6.637 13.637c-.647 0-1.204-.084-1.67-.25a3.55 3.55 0 0 1-1.165-.648 3.54 3.54 0 0 1-.733-.852l1.068-.75c.122.159.275.34.461.545.185.208.439.388.761.54.326.155.752.233 1.278.233.705 0 1.286-.171 1.745-.512.458-.341.687-.875.687-1.602v-1.773h-.113a7.374 7.374 0 0 1-.421.591c-.178.231-.435.438-.773.62-.333.178-.784.267-1.352.267a3.648 3.648 0 0 1-1.898-.5c-.556-.334-.998-.819-1.323-1.455-.322-.636-.483-1.409-.483-2.318 0-.894.157-1.672.471-2.335.315-.667.752-1.182 1.313-1.546.56-.367 1.208-.551 1.943-.551.568 0 1.019.095 1.352.284.337.186.595.398.773.637.182.234.322.428.42.579h.137v-1.386h1.295v8.977c0 .75-.17 1.36-.511 1.83a2.91 2.91 0 0 1-1.364 1.039 5.135 5.135 0 0 1-1.898.336Zm-.045-4.796c.538 0 .992-.123 1.364-.369.371-.246.653-.601.846-1.063.193-.462.29-1.015.29-1.659 0-.629-.095-1.184-.284-1.665-.19-.481-.47-.858-.841-1.13-.371-.273-.83-.409-1.375-.409-.568 0-1.042.144-1.42.431a2.63 2.63 0 0 0-.847 1.16 4.465 4.465 0 0 0-.278 1.613c0 .606.094 1.142.284 1.608.193.462.477.826.852 1.091.379.261.848.392 1.409.392Zm7.614-3.909V127h-1.341v-11.636h1.341v4.272h.113c.205-.45.512-.808.921-1.074.413-.268.962-.403 1.647-.403.595 0 1.116.119 1.563.358.447.235.793.597 1.04 1.085.25.485.375 1.103.375 1.853V127h-1.341v-5.455c0-.693-.18-1.229-.54-1.607-.356-.383-.85-.574-1.483-.574-.439 0-.833.092-1.182.278a2.038 2.038 0 0 0-.818.813c-.197.356-.295.787-.295 1.295Zm11.907-3.477v1.136h-4.522v-1.136h4.522Zm-3.204-2.091h1.341v8.318c0 .379.055.663.164.852a.853.853 0 0 0 .432.375c.178.061.366.091.563.091.147 0 .269-.007.363-.023l.228-.045.272 1.205a2.72 2.72 0 0 1-.38.102c-.163.038-.37.057-.62.057-.378 0-.75-.082-1.113-.245a2.217 2.217 0 0 1-.898-.744c-.235-.333-.352-.754-.352-1.261v-8.682Zm11.247 4.045-1.205.341a2.197 2.197 0 0 0-.335-.585 1.63 1.63 0 0 0-.591-.477c-.25-.125-.57-.188-.96-.188-.534 0-.979.123-1.335.37-.353.242-.529.551-.529.926 0 .333.122.596.364.789.242.194.621.355 1.136.483l1.296.319c.78.189 1.362.479 1.744.869.383.386.574.884.574 1.494 0 .5-.144.947-.432 1.341-.284.394-.682.705-1.193.932-.511.227-1.106.341-1.784.341-.89 0-1.627-.193-2.21-.58-.584-.386-.953-.95-1.108-1.693l1.272-.318c.122.47.351.822.688 1.057.341.235.786.352 1.335.352.625 0 1.121-.133 1.489-.398.371-.269.557-.591.557-.966 0-.303-.106-.556-.319-.761-.212-.208-.537-.364-.977-.466l-1.454-.341c-.8-.189-1.387-.483-1.762-.88-.371-.402-.557-.904-.557-1.506 0-.493.139-.928.415-1.307a2.827 2.827 0 0 1 1.142-.892c.485-.216 1.034-.324 1.648-.324.864 0 1.542.189 2.034.568.496.379.849.879 1.057 1.5Z"/>
  <path fill="#0467B0" d="M314.504 58h-1.864l4.187-11.636h2.029L323.043 58h-1.863l-3.29-9.523h-.091L314.504 58Zm.312-4.557h6.046v1.477h-6.046v-1.477Zm7.959-5.568v-1.511h9.006v1.511h-3.631V58h-1.75V47.875h-3.625Zm17.342 1.545a1.656 1.656 0 0 0-.75-1.25c-.439-.299-.992-.448-1.659-.448-.477 0-.89.075-1.239.227a1.906 1.906 0 0 0-.812.614 1.451 1.451 0 0 0-.284.88c0 .277.064.515.193.716.133.2.305.37.517.506.216.132.447.244.693.335.246.087.483.16.711.216l1.136.295c.371.091.752.214 1.142.37.39.155.752.36 1.085.613.333.254.602.569.807.944.208.374.312.823.312 1.346 0 .66-.17 1.244-.511 1.756-.337.511-.828.915-1.471 1.21-.641.295-1.415.443-2.324.443-.872 0-1.625-.138-2.262-.415-.636-.276-1.134-.668-1.494-1.176-.36-.511-.559-1.117-.597-1.818h1.762c.034.42.17.77.409 1.051.242.277.551.483.926.62a3.76 3.76 0 0 0 1.244.198c.496 0 .938-.077 1.324-.233.39-.159.697-.378.921-.659.223-.284.335-.615.335-.994 0-.345-.099-.627-.296-.847a2.18 2.18 0 0 0-.789-.545 7.745 7.745 0 0 0-1.12-.38l-1.375-.376c-.932-.254-1.67-.627-2.216-1.119-.541-.492-.812-1.144-.812-1.955 0-.67.182-1.255.545-1.755.364-.5.856-.889 1.478-1.165.621-.28 1.322-.42 2.102-.42.788 0 1.483.138 2.085.414.606.277 1.083.657 1.432 1.142a2.88 2.88 0 0 1 .545 1.66h-1.693Zm8.543 2.762c0-1.424.187-2.735.562-3.932a11.737 11.737 0 0 1 1.642-3.313h1.557c-.28.376-.542.836-.784 1.381a13.151 13.151 0 0 0-.636 1.796c-.182.647-.324 1.32-.426 2.017a13.94 13.94 0 0 0 .113 4.79c.178.924.419 1.782.722 2.573.303.792.64 1.438 1.011 1.938h-1.557a11.735 11.735 0 0 1-1.642-3.313c-.375-1.197-.562-2.51-.562-3.937ZM355.332 58h-1.864l4.188-11.636h2.028L363.871 58h-1.863l-3.29-9.523h-.091L355.332 58Zm.312-4.557h6.046v1.477h-6.046v-1.477Zm9.771 7.83v-12h1.66v1.414h.142a4.67 4.67 0 0 1 .426-.63c.185-.239.443-.447.772-.625.33-.182.766-.273 1.307-.273.705 0 1.334.178 1.887.534.553.356.986.87 1.301 1.54.318.67.477 1.477.477 2.42 0 .944-.157 1.752-.472 2.427-.314.67-.746 1.187-1.295 1.55-.549.36-1.176.54-1.881.54-.53 0-.964-.089-1.301-.267a2.473 2.473 0 0 1-.784-.625 4.725 4.725 0 0 1-.437-.636h-.103v4.63h-1.699Zm1.665-7.637c0 .614.089 1.152.267 1.614.178.462.436.824.773 1.085.337.258.75.387 1.239.387.507 0 .931-.135 1.272-.404.341-.273.599-.642.773-1.108.178-.466.267-.99.267-1.574a4.34 4.34 0 0 0-.261-1.55c-.171-.46-.428-.82-.773-1.086-.341-.265-.767-.398-1.278-.398-.493 0-.909.127-1.25.381-.337.254-.593.608-.767 1.063-.175.454-.262.984-.262 1.59Zm8.21 7.637v-12h1.66v1.414h.142a4.67 4.67 0 0 1 .426-.63c.185-.239.443-.447.772-.625.33-.182.766-.273 1.307-.273.705 0 1.334.178 1.887.534.553.356.986.87 1.301 1.54.318.67.477 1.477.477 2.42 0 .944-.157 1.752-.472 2.427-.314.67-.746 1.187-1.295 1.55-.549.36-1.176.54-1.881.54-.53 0-.964-.089-1.301-.267a2.473 2.473 0 0 1-.784-.625 4.725 4.725 0 0 1-.437-.636h-.103v4.63h-1.699Zm1.665-7.637c0 .614.089 1.152.267 1.614.178.462.436.824.773 1.085.337.258.75.387 1.239.387.507 0 .931-.135 1.272-.404.341-.273.599-.642.773-1.108.178-.466.267-.99.267-1.574a4.34 4.34 0 0 0-.261-1.55c-.171-.46-.428-.82-.773-1.086-.341-.265-.767-.398-1.278-.398-.493 0-.909.127-1.25.381-.337.254-.593.608-.767 1.063-.175.454-.262.984-.262 1.59Zm9.909-7.272V58h-1.699V46.364h1.699ZM389.15 58v-8.727h1.699V58h-1.699Zm.858-10.074c-.296 0-.549-.098-.762-.295a.961.961 0 0 1-.312-.716.95.95 0 0 1 .312-.716c.213-.2.466-.301.762-.301.295 0 .547.1.755.3a.939.939 0 0 1 .319.717.95.95 0 0 1-.319.716c-.208.197-.46.295-.755.295Zm6.802 10.25c-.844 0-1.572-.191-2.181-.574a3.795 3.795 0 0 1-1.398-1.596c-.326-.678-.489-1.455-.489-2.33 0-.886.167-1.668.5-2.346a3.834 3.834 0 0 1 1.409-1.597c.606-.383 1.32-.574 2.142-.574.663 0 1.254.123 1.773.37.519.242.938.583 1.256 1.022.322.44.513.953.574 1.54h-1.654a1.98 1.98 0 0 0-.625-1.057c-.322-.295-.754-.443-1.295-.443-.474 0-.889.125-1.245.375-.352.246-.626.598-.823 1.057-.197.454-.296.992-.296 1.613 0 .637.097 1.186.29 1.648.193.462.466.82.818 1.074.356.254.775.38 1.256.38.322 0 .613-.058.875-.175.265-.122.486-.294.665-.518a1.95 1.95 0 0 0 .38-.806h1.654a3.216 3.216 0 0 1-.552 1.511 3.164 3.164 0 0 1-1.232 1.045c-.512.254-1.112.381-1.802.381Zm7.942.017a3.564 3.564 0 0 1-1.5-.307 2.524 2.524 0 0 1-1.062-.903c-.258-.394-.387-.877-.387-1.449 0-.492.095-.898.284-1.216a2.1 2.1 0 0 1 .767-.755 4.006 4.006 0 0 1 1.08-.421 10.62 10.62 0 0 1 1.216-.216l1.273-.148c.325-.041.562-.108.71-.198.148-.091.221-.24.221-.444v-.04c0-.496-.14-.88-.42-1.153-.277-.273-.689-.409-1.239-.409-.572 0-1.022.127-1.352.38-.326.25-.551.53-.676.836l-1.597-.364c.19-.53.466-.958.83-1.284.367-.33.79-.568 1.267-.716a4.942 4.942 0 0 1 1.506-.227c.348 0 .717.042 1.108.125.393.08.761.227 1.102.443.345.216.627.525.846.926.22.398.33.915.33 1.552V58H407.4v-1.193h-.068c-.11.22-.275.435-.495.648a2.623 2.623 0 0 1-.846.528c-.345.14-.758.21-1.239.21Zm.369-1.363c.47 0 .872-.093 1.205-.279.337-.186.593-.428.767-.727.178-.303.267-.627.267-.972v-1.125c-.061.06-.178.118-.352.17-.171.05-.366.093-.585.131-.22.035-.434.067-.642.097-.209.026-.383.05-.523.068a4.21 4.21 0 0 0-.904.21c-.269.099-.484.24-.647.427-.159.181-.239.424-.239.727 0 .42.155.738.466.954.311.212.706.319 1.187.319Zm7.9-4.012V58h-1.699v-8.727h1.63v1.42h.108c.201-.462.516-.833.944-1.113.431-.28.975-.42 1.63-.42.595 0 1.116.124 1.563.374.447.246.793.614 1.04 1.102.246.489.369 1.093.369 1.813V58h-1.699v-5.347c0-.632-.165-1.127-.494-1.483-.33-.36-.783-.54-1.358-.54a2.13 2.13 0 0 0-1.051.256c-.303.17-.544.42-.722.75-.174.326-.261.72-.261 1.182Zm11.937-3.545v1.363h-4.767v-1.363h4.767Zm-3.489-2.091h1.699v8.255c0 .33.05.578.148.745a.77.77 0 0 0 .381.335c.159.057.331.085.517.085a2 2 0 0 0 .358-.028c.102-.02.182-.034.238-.046l.307 1.404a2.823 2.823 0 0 1-.42.113 3.335 3.335 0 0 1-.682.069 2.989 2.989 0 0 1-1.25-.239 2.15 2.15 0 0 1-.938-.773c-.238-.348-.358-.786-.358-1.312v-8.608Zm9.165.693v-1.511h9.006v1.511h-3.631V58h-1.75V47.875h-3.625ZM440.587 58v-8.727h1.642v1.386h.091c.159-.47.44-.839.841-1.108a2.41 2.41 0 0 1 1.375-.409 7.242 7.242 0 0 1 .722.04v1.625a3.06 3.06 0 0 0-.364-.063 3.466 3.466 0 0 0-.523-.04c-.401 0-.759.086-1.073.256a1.899 1.899 0 0 0-1.012 1.71V58h-1.699Zm8.603.193a3.564 3.564 0 0 1-1.5-.307 2.527 2.527 0 0 1-1.063-.903c-.257-.394-.386-.877-.386-1.449 0-.492.094-.898.284-1.216.189-.318.445-.57.767-.755a4.013 4.013 0 0 1 1.079-.421 10.62 10.62 0 0 1 1.216-.216l1.273-.148c.326-.041.563-.108.71-.198.148-.091.222-.24.222-.444v-.04c0-.496-.14-.88-.421-1.153-.276-.273-.689-.409-1.238-.409-.572 0-1.023.127-1.352.38-.326.25-.552.53-.677.836l-1.596-.364c.189-.53.466-.958.829-1.284a3.37 3.37 0 0 1 1.267-.716 4.97 4.97 0 0 1 1.506-.227c.349 0 .718.042 1.108.125.394.08.761.227 1.102.443.345.216.627.525.847.926.22.398.329.915.329 1.552V58h-1.659v-1.193h-.068c-.11.22-.274.435-.494.648-.22.212-.502.388-.847.528-.344.14-.757.21-1.238.21Zm.369-1.363c.47 0 .871-.093 1.204-.279.338-.186.593-.428.768-.727.178-.303.267-.627.267-.972v-1.125c-.061.06-.178.118-.353.17-.17.05-.365.093-.585.131-.22.035-.434.067-.642.097-.208.026-.383.05-.523.068a4.27 4.27 0 0 0-.903.21c-.269.099-.485.24-.648.427-.159.181-.238.424-.238.727 0 .42.155.738.465.954.311.212.707.319 1.188.319Zm9.876 1.346c-.844 0-1.572-.191-2.181-.574a3.795 3.795 0 0 1-1.398-1.596c-.326-.678-.489-1.455-.489-2.33 0-.886.167-1.668.5-2.346a3.834 3.834 0 0 1 1.409-1.597c.606-.383 1.32-.574 2.142-.574.663 0 1.254.123 1.773.37.519.242.938.583 1.256 1.022.322.44.513.953.574 1.54h-1.654a1.98 1.98 0 0 0-.625-1.057c-.322-.295-.754-.443-1.295-.443-.474 0-.889.125-1.245.375-.352.246-.626.598-.823 1.057-.197.454-.296.992-.296 1.613 0 .637.097 1.186.29 1.648.193.462.466.82.818 1.074.356.254.775.38 1.256.38.322 0 .613-.058.875-.175.265-.122.486-.294.665-.518a1.95 1.95 0 0 0 .38-.806h1.654a3.216 3.216 0 0 1-.552 1.511 3.164 3.164 0 0 1-1.232 1.045c-.512.254-1.112.381-1.802.381Zm6.965-3.136-.012-2.074h.296l3.477-3.693h2.034l-3.966 4.204h-.267L466.4 55.04ZM464.837 58V46.364h1.699V58h-1.699Zm5.512 0-3.125-4.148 1.17-1.187 4.04 5.335h-2.085Zm3.395 0v-8.727h1.698V58h-1.698Zm.858-10.074a1.08 1.08 0 0 1-.762-.295.961.961 0 0 1-.312-.716.95.95 0 0 1 .312-.716c.212-.2.466-.301.762-.301.295 0 .547.1.755.3a.941.941 0 0 1 .318.717.953.953 0 0 1-.318.716c-.208.197-.46.295-.755.295Zm4.825 4.892V58h-1.699v-8.727h1.631v1.42h.108c.2-.462.515-.833.943-1.113.432-.28.975-.42 1.63-.42.595 0 1.116.124 1.563.374.447.246.794.614 1.04 1.102.246.489.369 1.093.369 1.813V58h-1.699v-5.347c0-.632-.165-1.127-.494-1.483-.33-.36-.782-.54-1.358-.54-.394 0-.744.086-1.051.256-.303.17-.544.42-.722.75-.174.326-.261.72-.261 1.182Zm11.523 8.637c-.694 0-1.29-.091-1.79-.273-.496-.182-.902-.422-1.216-.722a3.033 3.033 0 0 1-.705-.983l1.461-.602c.102.167.238.343.409.528.174.19.409.35.704.483.299.133.684.2 1.154.2.644 0 1.176-.158 1.596-.472.421-.311.631-.807.631-1.489v-1.716h-.108c-.102.186-.25.392-.443.62a2.4 2.4 0 0 1-.784.59c-.334.167-.767.25-1.301.25-.69 0-1.311-.16-1.864-.483-.549-.325-.985-.805-1.307-1.437-.318-.636-.477-1.419-.477-2.347 0-.928.157-1.723.471-2.386.319-.663.754-1.17 1.307-1.523a3.399 3.399 0 0 1 1.881-.534c.542 0 .979.091 1.312.273.334.178.593.386.779.625.189.238.335.449.437.63h.125v-1.414h1.665v8.92c0 .75-.174 1.366-.523 1.847a3.08 3.08 0 0 1-1.414 1.068c-.591.231-1.258.347-2 .347Zm-.017-4.995c.488 0 .901-.113 1.238-.34.341-.232.599-.561.773-.99.178-.431.267-.948.267-1.55 0-.588-.087-1.105-.261-1.552-.175-.447-.43-.795-.767-1.045-.338-.254-.754-.38-1.25-.38-.512 0-.938.132-1.279.397-.341.261-.598.617-.773 1.068-.17.45-.255.955-.255 1.512 0 .572.087 1.073.261 1.505.174.432.432.77.773 1.012.344.242.769.363 1.273.363Zm16.95-7.04a1.662 1.662 0 0 0-.75-1.25c-.44-.299-.993-.448-1.659-.448-.478 0-.89.075-1.239.227a1.906 1.906 0 0 0-.812.614c-.19.257-.285.55-.285.88 0 .277.065.515.194.716.132.2.305.37.517.506.216.132.447.244.693.335.246.087.483.16.71.216l1.136.295c.372.091.752.214 1.143.37.39.155.751.36 1.085.613.333.254.602.569.807.944.208.374.312.823.312 1.346 0 .66-.17 1.244-.511 1.756-.337.511-.828.915-1.472 1.21-.64.295-1.415.443-2.324.443-.871 0-1.625-.138-2.261-.415-.636-.276-1.135-.668-1.494-1.176-.36-.511-.559-1.117-.597-1.818h1.761c.034.42.171.77.409 1.051.243.277.552.483.927.62.378.132.793.198 1.244.198.496 0 .937-.077 1.324-.233.39-.159.697-.378.92-.659.224-.284.335-.615.335-.994 0-.345-.098-.627-.295-.847a2.176 2.176 0 0 0-.79-.545 7.689 7.689 0 0 0-1.119-.38l-1.375-.376c-.932-.254-1.671-.627-2.216-1.119-.542-.492-.813-1.144-.813-1.955 0-.67.182-1.255.546-1.755.364-.5.856-.889 1.477-1.165.621-.28 1.322-.42 2.102-.42.788 0 1.483.138 2.086.414.606.277 1.083.657 1.432 1.142a2.88 2.88 0 0 1 .545 1.66h-1.693Zm4.888 11.853c-.254 0-.485-.021-.694-.063a2.17 2.17 0 0 1-.465-.125l.409-1.392c.31.084.587.12.829.108a.99.99 0 0 0 .642-.273c.19-.17.356-.448.5-.835l.21-.58-3.193-8.84h1.818l2.211 6.772h.091l2.21-6.772h1.824l-3.597 9.892a3.968 3.968 0 0 1-.636 1.153 2.476 2.476 0 0 1-.921.716c-.356.16-.769.239-1.238.239Zm14.528-9.87-1.54.273a1.8 1.8 0 0 0-.307-.562 1.52 1.52 0 0 0-.556-.438c-.235-.114-.529-.17-.881-.17-.481 0-.883.108-1.205.324-.322.212-.483.486-.483.823 0 .292.108.527.324.705.216.178.565.324 1.046.438l1.386.318c.803.185 1.402.471 1.796.858.393.386.59.888.59 1.505 0 .523-.151.989-.454 1.398-.299.405-.718.724-1.256.955-.534.23-1.153.346-1.858.346-.977 0-1.774-.208-2.392-.625-.617-.42-.996-1.017-1.136-1.79l1.642-.25c.102.428.312.752.631.972.318.216.733.324 1.244.324.557 0 1.002-.116 1.335-.347.333-.235.5-.52.5-.858a.89.89 0 0 0-.307-.687c-.2-.186-.509-.326-.926-.42l-1.477-.325c-.814-.185-1.417-.48-1.807-.886-.386-.405-.579-.919-.579-1.54a2.2 2.2 0 0 1 .431-1.352c.288-.386.686-.688 1.194-.903.507-.22 1.089-.33 1.744-.33.943 0 1.685.205 2.227.614.542.405.9.949 1.074 1.63Zm6.112-2.13v1.363h-4.767v-1.363h4.767Zm-3.488-2.091h1.698v8.255c0 .33.05.578.148.745a.775.775 0 0 0 .381.335c.159.057.331.085.517.085.136 0 .256-.01.358-.028.102-.02.182-.034.238-.046l.307 1.404a2.823 2.823 0 0 1-.42.113 3.335 3.335 0 0 1-.682.069 2.989 2.989 0 0 1-1.25-.239 2.141 2.141 0 0 1-.937-.773c-.239-.348-.358-.786-.358-1.312v-8.608Zm9.035 10.994c-.86 0-1.6-.184-2.221-.551a3.734 3.734 0 0 1-1.432-1.563c-.334-.674-.5-1.463-.5-2.369 0-.894.166-1.682.5-2.363a3.883 3.883 0 0 1 1.409-1.597c.606-.383 1.314-.574 2.125-.574.492 0 .969.081 1.432.244.462.163.876.419 1.244.767.367.349.657.802.869 1.358.212.553.318 1.226.318 2.017v.603h-6.937v-1.273h5.273c0-.447-.091-.843-.273-1.188a2.067 2.067 0 0 0-.767-.823c-.326-.201-.708-.301-1.148-.301-.477 0-.894.117-1.25.352a2.364 2.364 0 0 0-.818.909 2.629 2.629 0 0 0-.284 1.21v.994c0 .584.102 1.08.307 1.489.208.41.498.722.869.938.371.212.805.318 1.301.318a2.7 2.7 0 0 0 .881-.137 1.827 1.827 0 0 0 1.131-1.108l1.607.29a2.896 2.896 0 0 1-.693 1.245 3.354 3.354 0 0 1-1.244.823c-.496.194-1.063.29-1.699.29Zm5.629-.176v-8.727h1.631v1.42h.108a2.26 2.26 0 0 1 .892-1.125c.413-.273.907-.409 1.483-.409.583 0 1.072.136 1.466.41.398.272.691.647.881 1.124h.09a2.46 2.46 0 0 1 .995-1.113c.454-.28.996-.42 1.625-.42.791 0 1.437.247 1.937.743.504.497.756 1.245.756 2.245V58h-1.699v-5.693c0-.591-.161-1.02-.483-1.284a1.756 1.756 0 0 0-1.153-.398c-.553 0-.983.17-1.29.511-.307.337-.46.771-.46 1.301V58h-1.693v-5.801c0-.474-.148-.854-.444-1.142-.295-.288-.68-.432-1.153-.432-.322 0-.619.085-.892.256a1.87 1.87 0 0 0-.653.699 2.14 2.14 0 0 0-.245 1.04V58h-1.699Zm17.408-4.83c0 1.428-.187 2.741-.562 3.938a11.714 11.714 0 0 1-1.643 3.313h-1.556a7.22 7.22 0 0 0 .784-1.381c.242-.546.454-1.142.636-1.79.182-.651.324-1.326.426-2.023.103-.697.154-1.382.154-2.056 0-.898-.089-1.81-.267-2.733a15.275 15.275 0 0 0-.722-2.574c-.303-.792-.64-1.438-1.011-1.938h1.556a11.714 11.714 0 0 1 1.643 3.313c.375 1.197.562 2.507.562 3.931Z"/>
  <rect width="651" height="117" x="1.727" y="28.5" stroke="#F4CE71" stroke-dasharray="6 6" stroke-width="3" rx="18.5"/>
  <defs>
    <clipPath id="a">
      <path fill="#fff" d="M0 0h41v41H0z" transform="rotate(25.176 317.334 1421.075)"/>
    </clipPath>
  </defs>
</svg>
