<svg xmlns="http://www.w3.org/2000/svg" width="498" height="366" fill="none" viewBox="0 0 498 366">
  <path fill="#E2983A" fill-opacity=".24" d="M0 0h475v348H0z"/>
  <path fill="#E2983A" fill-opacity=".29" d="M13 4h459v337H13z"/>
  <path fill="#fff" d="M497.355 365.389H29V14h468.355v351.389Z"/>
  <path fill="#E2983A" fill-opacity=".71" d="M142.491 87.337c10.296 0 18.643-8.347 18.643-18.643 0-10.297-8.347-18.643-18.643-18.643-10.297 0-18.643 8.346-18.643 18.643 0 10.296 8.346 18.643 18.643 18.643Zm43.056-31.071a3.11 3.11 0 0 0-3.102 3.107 3.11 3.11 0 0 0 3.102 3.107h226.859a3.105 3.105 0 0 0 3.101-3.107 3.105 3.105 0 0 0-3.101-3.107H185.547Zm0 18.644a3.107 3.107 0 1 0-.013 6.215h143.423a3.102 3.102 0 0 0 2.875-1.917 3.098 3.098 0 0 0 0-2.381 3.1 3.1 0 0 0-1.685-1.682 3.102 3.102 0 0 0-1.19-.235h-143.41Z"/>
  <path fill="#E2983A" fill-opacity=".71" d="M497.355 365.389H29V14h468.355v351.389Zm-463.113-5.242h457.871V19.242H34.243v340.905Z"/>
  <path fill="#9F9F9F" d="M55.18 121.16v209h416v-209h-416Zm414 51.75h-101.5v-49.75h101.5v49.75Zm-205 0v-49.75h101.5v49.75h-101.5Zm101.5 2v49.75h-101.5v-49.75h101.5Zm-103.5-2h-101.5v-49.75h101.5v49.75Zm0 2v49.75h-101.5v-49.75h101.5Zm-103.5 49.75H57.18v-49.75h101.5v49.75Zm0 2v49.75H57.18v-49.75h101.5Zm2 0h101.5v49.75h-101.5v-49.75Zm101.5 51.75v49.75h-101.5v-49.75h101.5Zm2 0h101.5v49.75h-101.5v-49.75Zm0-2v-49.75h101.5v49.75h-101.5Zm103.5-49.75h101.5v49.75h-101.5v-49.75Zm0-2v-49.75h101.5v49.75h-101.5Zm-209-101.5v49.75H57.18v-49.75h101.5ZM57.18 278.41h101.5v49.75H57.18v-49.75Zm310.5 49.75v-49.75h101.5v49.75h-101.5Z"/>
  <path fill="#F4CE71" d="m225.952 177.386-41.393-.937c-4.14-16.039-2.276-31.31 1.028-45.383l41.392.938a90.624 90.624 0 0 0-1.027 45.382Z"/>
  <path fill="#fff" d="m192.676 141.098.022-1.575 21.445.766-.023 1.575-21.444-.766Zm-.09 6.301.022-1.575 21.444.767-.022 1.575-21.444-.767Zm-.09 6.297.023-1.575 21.444.767-.022 1.575-21.445-.767Zm-.09 6.301.022-1.575 21.445.767-.023 1.575-21.444-.767Zm-.09 6.301.022-1.575 21.445.767-.023 1.575-21.444-.767Z"/>
  <path fill="#D9EAEF" d="m135.952 293.386-41.393-.937c-4.14-16.039-2.276-31.31 1.028-45.383l41.392.938a90.624 90.624 0 0 0-1.027 45.382Z"/>
  <path fill="#fff" d="m102.676 257.098.022-1.575 21.445.766-.023 1.575-21.444-.766Zm-.09 6.301.022-1.575 21.444.767-.022 1.575-21.444-.767Zm-.09 6.297.023-1.575 21.444.767-.022 1.575-21.445-.767Zm-.09 6.301.022-1.575 21.445.767-.023 1.575-21.444-.767Zm-.09 6.301.022-1.575 21.445.767-.023 1.575-21.444-.767Z"/>
  <path fill="#D9EAEF" d="m351.952 240.386-41.393-.937c-4.14-16.039-2.276-31.31 1.028-45.383l41.392.938a90.624 90.624 0 0 0-1.027 45.382Z"/>
  <path fill="#fff" d="m318.676 204.098.022-1.575 21.445.766-.023 1.575-21.444-.766Zm-.09 6.301.022-1.575 21.444.767-.022 1.575-21.444-.767Zm-.09 6.297.023-1.575 21.444.767-.022 1.575-21.445-.767Zm-.09 6.301.022-1.575 21.445.767-.023 1.575-21.444-.767Zm-.09 6.301.022-1.575 21.445.767-.023 1.575-21.444-.767Z"/>
  <path fill="#F4CE71" d="m333.952 230.386-41.393-.937c-4.14-16.039-2.276-31.31 1.028-45.383l41.392.938a90.624 90.624 0 0 0-1.027 45.382Z"/>
  <path fill="#fff" d="m300.676 194.098.022-1.575 21.445.766-.023 1.575-21.444-.766Zm-.09 6.301.022-1.575 21.444.767-.022 1.575-21.444-.767Zm-.09 6.297.023-1.575 21.444.767-.022 1.575-21.445-.767Zm-.09 6.301.022-1.575 21.445.767-.023 1.575-21.444-.767Zm-.09 6.301.022-1.575 21.445.767-.023 1.575-21.444-.767Z"/>
  <path fill="#F4CE71" d="m486.616 321.737-41.393-.937c-4.14-16.038-2.276-31.31 1.028-45.382l41.392.937a90.624 90.624 0 0 0-1.027 45.382Z"/>
  <path fill="#fff" d="m453.344 285.446.023-1.575 21.444.767-.023 1.575-21.444-.767Zm-.094 6.301.022-1.575 21.445.767-.023 1.575-21.444-.767Zm-.09 6.301.023-1.575 21.444.766-.022 1.575-21.445-.766Zm-.09 6.3.023-1.575 21.444.766-.023 1.575-21.444-.766Zm-.09 6.301.022-1.575 21.445.767-.023 1.575-21.444-.767Z"/>
  <path fill="#D9EAEF" d="m441.952 185.386-41.393-.937c-4.14-16.039-2.276-31.31 1.028-45.383l41.392.938a90.624 90.624 0 0 0-1.027 45.382Z"/>
  <path fill="#fff" d="m408.676 149.098.022-1.575 21.445.766-.023 1.575-21.444-.766Zm-.09 6.301.022-1.575 21.444.767-.022 1.575-21.444-.767Zm-.09 6.297.023-1.575 21.444.767-.022 1.575-21.445-.767Zm-.09 6.301.022-1.575 21.445.767-.023 1.575-21.444-.767Zm-.09 6.301.022-1.575 21.445.767-.023 1.575-21.444-.767Z"/>
</svg>
