<svg xmlns="http://www.w3.org/2000/svg" width="548" height="470" fill="none" viewBox="0 0 548 470">
  <path fill="url(#a)" fill-opacity=".5" d="M446 94c25.957 0 47-21.043 47-47S471.957 0 446 0s-47 21.043-47 47 21.043 47 47 47Z"/>
  <path fill="url(#b)" d="M392.432 98.663c-2.738-4.536-5.982-9.38-11.063-10.86-5.885-1.716-11.929 1.692-17.056 5.054a496.915 496.915 0 0 0-44.231 32.646l.016.176 33.005-2.28c7.949-.55 16.171-1.174 23.195-4.941 2.666-1.43 5.264-3.339 8.285-3.472 3.753-.165 7.025 2.46 9.596 5.203 15.211 16.226 19.613 41.039 36.678 55.295a542.778 542.778 0 0 0-38.425-76.82Z"/>
  <path fill="#42494E" d="M485.931 236.29c-1.682-2.128-2.37-2.626-4.029-4.774a730.36 730.36 0 0 1-38.095-54.285 723.69 723.69 0 0 1-23.021-38.804 717.177 717.177 0 0 1-10.103-18.943 717.503 717.503 0 0 1-7.449-14.891 300.49 300.49 0 0 1-2.039-4.294c-1.581-3.377-3.132-6.77-4.798-10.101-1.898-3.797-4.209-7.777-7.694-10.327a10.49 10.49 0 0 0-5.469-2.109c-2.838-.183-5.456.99-7.917 2.272a254.82 254.82 0 0 0-50.113 34.618 261.18 261.18 0 0 0-40.713 45.272c-.36.515-1.211.023-.848-.495 1.43-2.026 2.889-4.03 4.376-6.013a262.517 262.517 0 0 1 66.974-62.579 258.832 258.832 0 0 1 13.274-8.062c2.272-1.288 4.553-2.56 6.873-3.754 2.275-1.17 4.69-2.222 7.289-2.262 8.843-.138 13.422 9.895 16.567 16.645a582.756 582.756 0 0 0 3.001 6.354 720.6 720.6 0 0 0 19.715 38.318 727.898 727.898 0 0 0 26.34 43.952c12.318 19.005 24.539 35.794 38.573 53.567.386.491-.305 1.193-.694.695ZM324.33 109.698c-.514-.573-1.024-1.147-1.541-1.721-4.078-4.517-8.454-8.983-14.054-11.573a20.356 20.356 0 0 0-8.542-1.983c-3.056.01-6.044.813-8.869 1.937a50.97 50.97 0 0 0-3.927 1.787c-1.47.741-2.913 1.531-4.35 2.328a191.2 191.2 0 0 0-23.174 15.13 185.337 185.337 0 0 0-7.462 5.993 191.99 191.99 0 0 0-6.657 5.898c-.465.429-1.159-.266-.694-.695a189.673 189.673 0 0 1 6.719-5.95 191.7 191.7 0 0 1 25.109-17.96 190.378 190.378 0 0 1 8.182-4.636 70.427 70.427 0 0 1 2.533-1.295 40.36 40.36 0 0 1 6.022-2.455 21.389 21.389 0 0 1 9.095-.895 23.65 23.65 0 0 1 8.391 2.908c5.499 3.078 9.763 7.839 13.913 12.484.419.472-.272 1.171-.694.698Z"/>
  <path fill="#42494E" d="m436.989 156.514 13.176-4.827 6.541-2.397c2.131-.78 4.256-1.669 6.458-2.228a10.165 10.165 0 0 1 5.846.075 13.47 13.47 0 0 1 4.559 2.831 37.139 37.139 0 0 1 3.74 4c1.424 1.715 2.827 3.448 4.237 5.174a2588.581 2588.581 0 0 1 51.361 65.021l2.057 2.695c.378.496 1.231.007.847-.497a2583.826 2583.826 0 0 0-56.33-71.288c-1.242-1.516-2.47-3.049-3.832-4.461-2.501-2.591-5.626-4.881-9.366-4.943-2.199-.036-4.328.663-6.371 1.403-2.202.798-4.4 1.612-6.599 2.418l-13.268 4.861-3.317 1.215c-.588.216-.334 1.166.261.948Z"/>
  <path fill="url(#c)" d="M307.004 102.09c-6.695-3.447-15.269-2.772-21.422 1.534a305.112 305.112 0 0 1 34.762 8.128c-4.742-2.784-8.451-7.145-13.34-9.662Z"/>
  <path fill="#000" d="M402.911 277.462a.415.415 0 0 1-.144-.016l-35.695-10.424a.41.41 0 0 1-.247-.199.412.412 0 0 1 .163-.563.412.412 0 0 1 .315-.034l35.696 10.423a.419.419 0 0 1 .295.443.415.415 0 0 1-.383.37Zm-73.968-23.11a.413.413 0 0 1-.144-.014l-35.758-10.209a.414.414 0 0 1 .227-.797l35.758 10.208a.416.416 0 0 1 .175.696.412.412 0 0 1-.258.116Zm-80.539-23.687a.39.39 0 0 1-.144-.015l-35.758-10.208a.414.414 0 0 1-.088-.761.412.412 0 0 1 .315-.037l35.758 10.208a.418.418 0 0 1 .298.441.416.416 0 0 1-.381.372Z"/>
  <path fill="url(#d)" d="M255.551 174.994a46.565 46.565 0 0 0-4.446-.77l-.215-.027c-9.795-1.162-18.065 2.914-19.236 9.484l-.208 1.189c-.13.752-.27 1.56-.437 2.454-.08.442.365.893 1.012 1.038l235.596 52.512c16.636 3.586 33.219 7.129 49.286 10.53a74.734 74.734 0 0 0 9.119 1.471c4.59.387 7.95-.123 10.274-1.56h.001c2.888-1.781 3.615-4.673 4.208-7.991 1.196-6.7 2.469-13.734 3.738-20.747 1.117-6.181 2.232-12.346 3.289-18.25.621-3.505.959-6.646-1.209-9.587-2.35-3.183-7.385-5.652-14.963-7.341a18.766 18.766 0 0 0-.275-.061c-23.771-5.197-49.405-1.068-63.785 10.274-1.656 1.306-3.249 2.744-4.789 4.135a66.643 66.643 0 0 1-7.268 5.961 28.165 28.165 0 0 1-4.48 2.507 4.7 4.7 0 0 1-.357.156c-.296.133-.602.257-.897.362a26.114 26.114 0 0 1-5.316 1.423l-.181.027a6.879 6.879 0 0 1-.431.061c-1.042.14-2.091.222-3.142.247-4.541.129-9.486-.699-14.697-2.463a63.835 63.835 0 0 1-13.684-6.597c-4.543-2.896-8.67-6.164-12.661-9.324a335.675 335.675 0 0 0-5.388-4.208c-.343-.26-.68-.515-1.022-.771-2.232-1.663-4.275-3.081-6.247-4.334a61.514 61.514 0 0 0-15.602-7.135c-5.823-1.688-11.185-2.148-15.932-1.371a25.45 25.45 0 0 0-3.887.95c-5.848 1.925-10.046 5.755-14.105 9.459-5.049 4.606-10.271 9.37-18.738 10.556-9.771 1.371-22.613-2.966-31.374-7.483-2.754-1.42-5.479-2.955-8.115-4.44a902.958 902.958 0 0 0-3.196-1.792 151.593 151.593 0 0 0-5.427-2.897l-.507-.257c-.283-.141-.565-.283-.854-.422a79.72 79.72 0 0 0-5.493-2.454l-.422-.171a73.453 73.453 0 0 0-2.431-.895l-.314-.109a45.997 45.997 0 0 0-4.792-1.339Z"/>
  <path fill="url(#e)" d="M531.595 253a.593.593 0 0 1-.119-.012l-426.85-89.851a.578.578 0 0 1-.442-.681.578.578 0 0 1 .68-.444l426.85 89.85a.576.576 0 0 1-.119 1.138Z"/>
  <path fill="url(#f)" d="M445.5 74c15.74 0 28.5-12.984 28.5-29s-12.76-29-28.5-29S417 28.984 417 45s12.76 29 28.5 29Z"/>
  <path fill="url(#g)" d="M445.5 74c15.74 0 28.5-12.984 28.5-29s-12.76-29-28.5-29S417 28.984 417 45s12.76 29 28.5 29Z"/>
  <path fill="#D9EAEF" d="M501.597 53.21c-10.237-1.386-21.924 4.157-24.577 14.158a8.96 8.96 0 0 0-3.472-4.338 8.933 8.933 0 0 0-10.538.542 8.955 8.955 0 0 0-3.01 4.67l1.172.842a153.924 153.924 0 0 0 66.54-.302c-7.121-7.496-15.878-14.185-26.115-15.571Zm-54 30c-10.237-1.386-21.924 4.157-24.577 14.158a8.96 8.96 0 0 0-3.472-4.338 8.933 8.933 0 0 0-10.538.542 8.955 8.955 0 0 0-3.01 4.67l1.172.842a153.924 153.924 0 0 0 66.54-.302c-7.121-7.496-15.878-14.185-26.115-15.572Z"/>
  <path fill="url(#h)" d="M427.943 333.589a.773.773 0 0 1-.556.029L.789 195.174a.783.783 0 0 1-.501-.981.776.776 0 0 1 .978-.502l426.598 138.445a.778.778 0 0 1 .079 1.453Z"/>
  <defs>
    <linearGradient id="b" x1="375.47" x2="396.672" y1="87.344" y2="168" gradientUnits="userSpaceOnUse">
      <stop stop-color="#0467B0"/>
      <stop offset=".005" stop-color="#4992C5" stop-opacity=".674"/>
      <stop offset=".229" stop-color="#A2C8DF" stop-opacity=".261"/>
      <stop offset=".417" stop-color="#D9EAEF" stop-opacity="0"/>
      <stop offset=".454" stop-color="#D9EAEF" stop-opacity=".227"/>
      <stop offset=".974" stop-color="#D9EAEF"/>
    </linearGradient>
    <linearGradient id="c" x1="303.173" x2="310.173" y1="87.5" y2="118.5" gradientUnits="userSpaceOnUse">
      <stop stop-color="#0467B0"/>
      <stop offset="0" stop-color="#3686BF"/>
      <stop offset=".197" stop-color="#73ABD1"/>
      <stop offset=".879" stop-color="#D9EAEF" stop-opacity="0"/>
    </linearGradient>
    <linearGradient id="d" x1="385.732" x2="389.751" y1="160.1" y2="230.261" gradientUnits="userSpaceOnUse">
      <stop stop-color="#0467B0"/>
      <stop offset=".239" stop-color="#6EA8CF"/>
      <stop offset="1" stop-color="#D9EAEF"/>
    </linearGradient>
    <linearGradient id="e" x1="531.872" x2="31.457" y1="278.11" y2="152.26" gradientUnits="userSpaceOnUse">
      <stop/>
      <stop offset="1" stop-opacity="0"/>
    </linearGradient>
    <linearGradient id="h" x1="428.045" x2="0" y1="512.232" y2="226.237" gradientUnits="userSpaceOnUse">
      <stop/>
      <stop offset="1" stop-opacity="0"/>
    </linearGradient>
    <radialGradient id="a" cx="0" cy="0" r="1" gradientTransform="rotate(87.358 198.39 257.03) scale(40.7767)" gradientUnits="userSpaceOnUse">
      <stop stop-color="#EEC004"/>
      <stop offset="1" stop-color="#E2983A" stop-opacity="0"/>
    </radialGradient>
    <radialGradient id="f" cx="0" cy="0" r="1" gradientTransform="matrix(.3051 27.84773 -27.36776 .29984 445.195 46.152)" gradientUnits="userSpaceOnUse">
      <stop stop-color="#F8CE67"/>
      <stop offset="1" stop-color="#F4CE71" stop-opacity="0"/>
      <stop offset="1" stop-color="#F4CE71" stop-opacity="0"/>
    </radialGradient>
    <radialGradient id="g" cx="0" cy="0" r="1" gradientTransform="matrix(.3051 27.84773 -27.36776 .29984 445.195 46.152)" gradientUnits="userSpaceOnUse">
      <stop stop-color="#F4CE71"/>
      <stop offset="1" stop-color="#F4CE71" stop-opacity="0"/>
      <stop offset="1" stop-color="#F4CE71" stop-opacity="0"/>
    </radialGradient>
  </defs>
</svg>
