<svg xmlns="http://www.w3.org/2000/svg" width="515" height="344" fill="none" viewBox="0 0 515 344">
  <path fill="#9E616A" d="M418.983 234.915a4.071 4.071 0 0 1-.937-1.483 4.052 4.052 0 0 1 1.5-4.701l-6.437-32.024 7.108 2.286 5.152 30.975c.511.855.692 1.868.508 2.847a4.069 4.069 0 0 1-4.27 3.309 4.066 4.066 0 0 1-2.624-1.209Z"/>
  <path fill="#2F2E41" d="m409.482 167.16 4.41-3.334s3.89-.276 4.579 6.751c.689 7.028 2.104 20.724 2.104 20.724l6.748 31.309-9.341 2.054-7.228-33.788-4.336-10.033 3.064-13.683Z"/>
  <path fill="#9E616A" d="m416.753 218.285-24.85-.415-2.071-17.011h26.921v17.426ZM393.779 322.35h-5.737l-2.73-22.166h8.467v22.166Zm36.547-7.957-5.736-.04-2.574-22.185 7.461 1.715.849 20.51Zm-28.857-158.65c5.018 0 9.086-4.075 9.086-9.102s-4.068-9.102-9.086-9.102c-5.018 0-9.086 4.075-9.086 9.102s4.068 9.102 9.086 9.102Z"/>
  <path fill="#2F2E41" d="M396.347 333.265h-4.071l-.727-3.849-1.86 3.849h-10.797a2.42 2.42 0 0 1-2.317-1.707 2.436 2.436 0 0 1 .938-2.724l8.622-5.965v-3.892l9.068.542 1.144 13.746Zm36.99-7.94-4.07-.029-.7-3.855-1.888 3.837-10.796-.075a2.425 2.425 0 0 1-2.305-1.724 2.433 2.433 0 0 1 .957-2.718l8.663-5.904.027-3.892 9.065.606 1.047 13.754Zm-1.225-26.708-4.177-25.566-4.97-35.265c3.639-6.771-4.556-27.798-4.556-27.798l-1.157.056-26.184 4.948.006-.025c-5.356 14.632-7.13 21.861-6.837 37.443l1.055 56.014h-.331a2.07 2.07 0 0 0-2.07 2.074 2.076 2.076 0 0 0 2.07 2.075h10.355a2.077 2.077 0 0 0 1.464-3.541 2.069 2.069 0 0 0-1.464-.608h-.267l9.504-66.696 8.058 28.004 9.111 28.627c-3.313-.829-2.799 1.093-2.799 2.182 0 .55.219 1.078.607 1.467s.915.608 1.464.608h10.354a2.07 2.07 0 0 0 1.816-3.071 2.07 2.07 0 0 0-1.052-.928Z"/>
  <path fill="#2F2E41" d="m420.448 211.075-.829-8.298a1.652 1.652 0 0 0-1.493-1.243c-.345-3.952-1.797-21.005-1.884-21.749l-.003-.031-.661-14.13c-.023-.513-.235-1-.595-1.366a2.083 2.083 0 0 0-1.352-.622l-3.488-.228a.186.186 0 0 1-.178-.185 2.946 2.946 0 0 0-.859-2.077 2.917 2.917 0 0 0-.952-.637 2.918 2.918 0 0 0-1.122-.224h-10.326a2.75 2.75 0 0 0-2.723 2.408.183.183 0 0 1-.186.164h-.001a4.903 4.903 0 0 0-3.222 1.122 4.919 4.919 0 0 0-1.713 2.954c-1.412 8.228-4.241 26.902-2.842 37.283.487 3.614-.563.752-.747 3.776a2.234 2.234 0 0 0 .553 1.613c-.852.248-1.183 1.171-.964 2.04l-.181-.045a1.655 1.655 0 0 0 2.011 1.204l31.727-8.012c.887-.224 2.253 7.171 2.03 6.283Z"/>
  <path fill="#9E616A" d="M385.526 234.915a4.06 4.06 0 0 0 1.161-3.224 4.052 4.052 0 0 0-1.723-2.96l6.437-32.024-7.108 2.286-5.152 30.975a4.076 4.076 0 0 0 1 5.314 4.062 4.062 0 0 0 5.385-.367Z"/>
  <path fill="#2F2E41" d="m395.032 167.16-4.41-3.334s-3.89-.276-4.579 6.751c-.689 7.028-2.104 20.724-2.104 20.724l-6.748 31.309 9.342 2.054 7.227-33.788 4.336-10.033-3.064-13.683Zm16.168-28.613c1.692.505 3.272-.913 4.45-2.257l-.419.497c2.772 1.956 4.429 5.141 5.504 8.365 1.075 3.221 1.675 6.594 2.889 9.769 1.213 3.171 3.172 6.239 6.171 7.821 4.017 2.118 8.939 1.155 13.212-.374l.167-.06a27.292 27.292 0 0 1-3.116-10.451 24.776 24.776 0 0 0 7.402 8.698 56.797 56.797 0 0 0 8.028-4.472c1.65-1.105 3.389-2.534 3.58-4.514.195-1.966-1.27-3.761-2.998-4.707-1.729-.946-3.716-1.266-5.604-1.834-1.884-.566-3.808-1.493-4.798-3.2-2.282-3.924 1.558-9.459-.89-13.284-1.207-1.881-3.549-2.634-5.721-3.157a75.632 75.632 0 0 0-10.071-1.703c-2.978-.298-6.054-.409-8.886.551-2.832.96-5.401 3.189-6.008 6.125-1.654.871-3.403 1.835-4.291 3.488-.887 1.649-.393 4.166 1.399 4.699Z"/>
  <path fill="#2F2E41" d="M413.729 137.887c1.621 2.034 2.503 4.234 2.503 5.551 3.367 6.165-1.448 11.461-7.602 14.834a12.59 12.59 0 0 1-8.056 1.406l-.258-1.101-.348.992s-4.007 13.257-5.329 14.035c.502-2.359 1.076-13.283 1.355-15.586.387-3.134-.961-7.799-1.933-10.637a16.778 16.778 0 0 1-.915-5.435v-.081l-.946 3.046-3.446-1.473c.641-3.683 0-7.864 7.685-7.502 4.157-2.863 7.817-3.299 10.824-2.487.388-.601 2.625.524 3.272.208"/>
  <path fill="#0467B0" d="M422.332 202.614a5.886 5.886 0 0 1-5.061 5.186l-18.708 2.539a5.887 5.887 0 0 1-4.355-1.154 5.903 5.903 0 0 1-2.268-3.899l-2.696-19.973a5.891 5.891 0 0 1 .745-3.751l-.128-.971a3.11 3.11 0 0 1-.737-5.451l2.311-10.725a1.657 1.657 0 0 1 .374-1.293 1.67 1.67 0 0 1 1.208-.591 1.706 1.706 0 0 1 1.71 1.506l.212 1.577a8.298 8.298 0 0 0 2.97 5.313 8.275 8.275 0 0 0 11.283-.756 8.301 8.301 0 0 0 2.164-6.785l-.207-1.552a1.724 1.724 0 0 1 1.317-1.945 1.64 1.64 0 0 1 1.279.284 1.667 1.667 0 0 1 .672 1.126l1.338 9.874a3.105 3.105 0 0 1 3.236 2.398 3.116 3.116 0 0 1-.266 2.131 3.101 3.101 0 0 1-1.583 1.45 5.873 5.873 0 0 1 2.473 4.041l2.7 19.977c.066.479.071.964.017 1.444Z"/>
  <path fill="#3F3D56" d="M389.591 181.031a.627.627 0 0 1 .533-.7l25.499-3.915a.617.617 0 0 1 .62.303.63.63 0 0 1 .064.472.621.621 0 0 1-.518.458l-25.499 3.916a.62.62 0 0 1-.699-.534Zm2.983 10.483-.843-6.239a1.83 1.83 0 0 1 1.567-2.06l24.353-3.12a1.827 1.827 0 0 1 2.057 1.569l.843 6.238a1.833 1.833 0 0 1-1.567 2.06l-9.727 1.341c.02.066.036.134.048.202l.861 6.373 8.209-1.113a.415.415 0 0 1 .111.823l-8.209 1.112-3.693.501-7.799 1.057a.412.412 0 0 1-.465-.355.412.412 0 0 1 .354-.467l7.798-1.057-.861-6.373a2.065 2.065 0 0 1-.007-.208l-10.973 1.285a1.828 1.828 0 0 1-2.057-1.569Z"/>
  <path fill="#CCC" d="M389.643 190.316a.833.833 0 0 0-.241-.653.844.844 0 0 0-.782-.231l-5.243 1.187a.856.856 0 0 0-.555.427 1.09 1.09 0 0 0-.228.033 1.276 1.276 0 1 0 1.077 2.241l1.777 5.012a.83.83 0 0 0 .915.402l3.409-.772a.85.85 0 0 0 .65-.755l-.779-6.891Zm-6.564 2.896a.908.908 0 0 1-.947-.362.917.917 0 0 1 .216-1.272.909.909 0 0 1 .325-.146c.016-.004.033 0 .049-.004-.001.151.038.3.112.431l.65 1.137a.855.855 0 0 1-.405.216Z"/>
  <path fill="#0467B0" d="m386.016 202.672-1.522-3.173c-.892-1.858.741-3.836 3.639-4.407l3.572-.604 1.494 10.456-.309.061c-2.899.572-5.982-.475-6.874-2.333Z"/>
  <path fill="#000" d="M422.33 202.613a5.886 5.886 0 0 1-5.061 5.186l-18.708 2.539a5.869 5.869 0 0 1-3.26-.492 5.891 5.891 0 0 1-2.485-2.171 6.007 6.007 0 0 1 4.291-2.174c1.607-.083 3.164.452 4.738.751 3.806.718 7.742.064 11.112-1.847 1.462-.85 2.78-1.937 4.386-2.543 1.607-.601 3.682-.581 4.846.593.05.05.098.103.141.158Z" opacity=".2"/>
</svg>
