<svg xmlns="http://www.w3.org/2000/svg" width="212" height="260" fill="none" viewBox="0 0 212 260">
  <path fill="#D9EAEF" d="M1.289 0 0 1.05C.436.681.89.337 1.355.011L1.289 0Z"/>
  <path fill="#FFB6B6" d="m190.158 111.6 1.3 3.386-.26 3.385-25.44 8.827 1.262-14.816 2.86-3.386 20.278 2.604Z"/>
  <path fill="#E6E6E6" d="M166.526 114.805c.049.664-1.086 1.427-2.606 1.73-1.395.286-2.646.087-2.998-.436a.778.778 0 0 1 .228-.091l5.243-1.187a.743.743 0 0 1 .133-.016Z"/>
  <path fill="#9E616A" d="M196.757 160.305a4.045 4.045 0 0 1-1.16-3.223 4.04 4.04 0 0 1 1.722-2.961l-6.436-32.023 7.107 2.286 5.152 30.975a4.075 4.075 0 0 1-.999 5.314 4.057 4.057 0 0 1-5.386-.368Z"/>
  <path fill="#2F2E41" d="m187.255 92.55 4.41-3.334s3.89-.276 4.579 6.752c.689 7.028 2.104 20.724 2.104 20.724L205.096 148l-9.341 2.054-7.228-33.787-4.336-10.034 3.064-13.682Z"/>
  <path fill="#9E616A" d="m194.526 143.675-24.85-.415-2.071-17.01h26.921v17.425Zm-22.753 101.716-4.743-.001-2.257-21.999h7v22Zm36.311-5.775-5.737-.04-2.574-22.185 7.462 1.714.849 20.511ZM179.242 81.134c5.019 0 9.087-4.076 9.087-9.102 0-5.027-4.068-9.102-9.087-9.102-5.018 0-9.086 4.075-9.086 9.102 0 5.026 4.068 9.102 9.086 9.102Z"/>
  <path fill="#2F2E41" d="M174.12 259.289h-4.07l-.727-3.85-1.861 3.85h-10.797a2.426 2.426 0 0 1-2.317-1.708 2.433 2.433 0 0 1 .938-2.724l8.622-5.965V245l9.069.542 1.143 13.747Zm36.991-8.573-4.071-.029-.7-3.855-1.887 3.837-10.797-.076a2.423 2.423 0 0 1-2.305-1.724 2.431 2.431 0 0 1 .957-2.717l8.663-5.904.028-3.893 9.064.606 1.048 13.755Zm-3.553-30.339-3.886-25.669-4.623-35.408c3.385-6.799-4.776-25.409-4.776-25.409l-1-1.5-23.893 4.023.005-.026c-4.981 14.692-6.632 21.95-6.359 37.595l.982 56.241h-.308c-.511 0-1.001.219-1.362.61-.362.39-.565.92-.565 1.473 0 .552.203 1.082.565 1.472.361.391.851.61 1.362.61h9.631c.511 0 1.001-.219 1.362-.61.361-.39.564-.92.564-1.472 0-.553-.203-1.083-.564-1.473a1.854 1.854 0 0 0-1.362-.61h-.249l8.841-66.966 7.495 28.117 8.475 28.744c-3.082-.834-2.603 1.097-2.603 2.19 0 .552.203 1.082.564 1.473.361.39.851.61 1.362.61h9.631c.448 0 .882-.168 1.228-.477.345-.308.58-.737.664-1.213a2.235 2.235 0 0 0-.203-1.393 1.984 1.984 0 0 0-.978-.932Z"/>
  <path fill="#2F2E41" d="m198.221 136.465-.828-8.298a1.656 1.656 0 0 0-1.493-1.242c-.346-3.953-1.798-21.005-1.884-21.749l-.004-.031-.66-14.13a2.084 2.084 0 0 0-1.948-1.987l-3.487-.23a.185.185 0 0 1-.179-.184 2.95 2.95 0 0 0-.859-2.078 2.926 2.926 0 0 0-2.074-.86H174.48c-.669 0-1.315.245-1.816.688a2.753 2.753 0 0 0-.908 1.72.181.181 0 0 1-.185.164h-.001a4.909 4.909 0 0 0-4.935 4.076c-1.412 8.228-4.241 26.901-2.842 37.283.486 3.614-.563.751-.747 3.775a2.215 2.215 0 0 0 .553 1.614c-.853.248-1.183 1.17-.964 2.04l-.182-.045a1.654 1.654 0 0 0 2.011 1.203l31.727-8.012c.887-.224 2.254 7.172 2.03 6.283Z"/>
  <path fill="#9E616A" d="M163.3 160.305a4.045 4.045 0 0 0 1.16-3.223 4.07 4.07 0 0 0-.533-1.672 4.072 4.072 0 0 0-1.189-1.289l6.436-32.023-7.108 2.286-5.152 30.975a4.072 4.072 0 0 0 1 5.314 4.057 4.057 0 0 0 5.386-.368Z"/>
  <path fill="#2F2E41" d="m172.806 92.55-4.41-3.334s-3.89-.276-4.579 6.752c-.689 7.028-2.104 20.724-2.104 20.724L154.965 148l9.341 2.054 7.228-33.787 4.336-10.034-3.064-13.682Zm18.696-29.272c1.621 2.034 2.503 4.234 2.503 5.551 3.368 6.165-1.077 11.207-7.232 14.58-2.454 1.352-5.486.694-8.252.253l-.431.306-.349.992s-2.652 2.653-3.973 3.43c.501-2.359-.28-2.679 0-4.981.386-3.134-.961-7.8-1.933-10.637a16.783 16.783 0 0 1-.916-5.435v-.08l-.946 3.044-3.446-1.472c.641-3.683 0-7.864 7.686-7.502 4.156-2.863 7.816-3.3 10.823-2.487.388-.602 1.237-.45 2.737.55"/>
  <path fill="#0467B0" d="M200.105 128.004a5.897 5.897 0 0 1-1.64 3.465 5.874 5.874 0 0 1-3.421 1.721l-18.708 2.54a5.884 5.884 0 0 1-4.355-1.155 5.902 5.902 0 0 1-2.268-3.899l-2.696-19.972a5.892 5.892 0 0 1 .746-3.751l-.129-.971a3.106 3.106 0 0 1-1.785-4.155 3.11 3.11 0 0 1 1.048-1.297l2.311-10.724a1.657 1.657 0 0 1 .375-1.293 1.657 1.657 0 0 1 1.207-.591 1.703 1.703 0 0 1 1.711 1.506l.211 1.577a8.302 8.302 0 0 0 2.97 5.312 8.274 8.274 0 0 0 11.284-.755 8.306 8.306 0 0 0 2.164-6.785l-.207-1.552a1.724 1.724 0 0 1 1.317-1.946 1.652 1.652 0 0 1 1.73.778c.116.194.191.41.22.633l1.338 9.874a3.1 3.1 0 0 1 3.236 2.397 3.112 3.112 0 0 1-1.848 3.582 5.882 5.882 0 0 1 2.472 4.041l2.701 19.977c.065.478.071.963.016 1.443Z"/>
  <path fill="#3F3D56" d="M167.365 106.422a.622.622 0 0 1 .532-.7l25.499-3.916a.616.616 0 0 1 .62.304.63.63 0 0 1 .064.472.632.632 0 0 1-.288.379.625.625 0 0 1-.229.079l-25.499 3.915a.622.622 0 0 1-.699-.533Zm2.983 10.482-.843-6.238a1.832 1.832 0 0 1 1.566-2.06l24.354-3.121a1.825 1.825 0 0 1 2.056 1.569l.843 6.239a1.833 1.833 0 0 1-1.566 2.06l-9.728 1.34c.02.067.036.135.049.203l.861 6.373 8.208-1.113a.403.403 0 0 1 .307.081.4.4 0 0 1 .107.121.422.422 0 0 1-.028.461.419.419 0 0 1-.275.159l-8.208 1.113-3.694.501-7.798 1.057a.414.414 0 0 1-.385-.662.414.414 0 0 1 .274-.16l7.798-1.058-.861-6.372a1.817 1.817 0 0 1-.007-.209l-10.974 1.285a1.824 1.824 0 0 1-2.056-1.569Z"/>
  <path fill="#CCC" d="M167.417 115.707a.845.845 0 0 0-1.023-.884l-5.244 1.187a.857.857 0 0 0-.555.427 1.277 1.277 0 1 0 .336 2.522c.187-.043.363-.128.513-.249l1.777 5.012a.84.84 0 0 0 .915.403l3.409-.772a.847.847 0 0 0 .65-.755l-.778-6.891Zm-6.565 2.896a.922.922 0 0 1-.688-.117.913.913 0 0 1-.287-1.259.93.93 0 0 1 .245-.259.895.895 0 0 1 .324-.145c.017-.004.033 0 .05-.004-.001.151.037.3.112.431l.65 1.137a.867.867 0 0 1-.406.216Z"/>
  <path fill="#0467B0" d="m163.789 128.062-1.522-3.172c-.892-1.859.741-3.836 3.64-4.408l3.571-.603 1.495 10.456-.31.061c-2.898.572-5.982-.475-6.874-2.334Z"/>
  <path fill="#2F2E41" d="M165 255h8v4h-8zm37-9h8v4h-8z"/>
</svg>
