<svg xmlns="http://www.w3.org/2000/svg" width="45" height="45" fill="none" viewBox="0 0 45 45">
  <path fill="#1E4460" d="M39.606 16.92A17.997 17.997 0 1 1 28.093 5.385l-2.358 2.356c-.13.128-.248.27-.356.416a14.625 14.625 0 1 0 11.448 11.47c.154-.109.299-.23.432-.364l2.345-2.345h.002Zm-6.086 3.332a11.25 11.25 0 1 1-8.77-8.775v3.478a7.875 7.875 0 1 0 5.293 5.297h3.477Zm-11.025 5.625a3.377 3.377 0 0 0 3.262-4.246l3.56-3.562.067-.067h5.49a1.128 1.128 0 0 0 .797-.329l4.5-4.5a1.125 1.125 0 0 0-.797-1.921H33.75V5.627a1.125 1.125 0 0 0-1.92-.797l-4.5 4.5a1.126 1.126 0 0 0-.33.797v5.49a1.653 1.653 0 0 0-.067.067l-3.56 3.555a3.377 3.377 0 1 0-.877 6.638Z"/>
</svg>
