<svg width="155" height="29" viewBox="0 0 155 29" fill="none" xmlns="http://www.w3.org/2000/svg">
<rect width="155" height="29" fill="#C9B8AF"/>
<g clip-path="url(#clip0_0_1)">
<rect width="1728" height="8543" transform="translate(-546 -2645)" fill="#F9F9F9"/>
<rect width="155" height="29" rx="14.5" fill="#1E4460"/>
<path d="M22.1477 21V9.36364H29.7159V11.1307H24.2557V14.2898H29.3239V16.0568H24.2557V19.233H29.7614V21H22.1477ZM35.5824 21.1705C34.7112 21.1705 33.9631 20.9792 33.3381 20.5966C32.7169 20.214 32.2377 19.6856 31.9006 19.0114C31.5672 18.3333 31.4006 17.553 31.4006 16.6705C31.4006 15.7841 31.571 15.0019 31.9119 14.3239C32.2528 13.642 32.7339 13.1117 33.3551 12.733C33.9801 12.3504 34.7188 12.1591 35.571 12.1591C36.2794 12.1591 36.9063 12.2898 37.4517 12.5511C38.0009 12.8087 38.4384 13.1742 38.7642 13.6477C39.09 14.1174 39.2756 14.6667 39.321 15.2955H37.3551C37.2756 14.875 37.0862 14.5246 36.7869 14.2443C36.4915 13.9602 36.0956 13.8182 35.5994 13.8182C35.179 13.8182 34.8097 13.9318 34.4915 14.1591C34.1733 14.3826 33.9252 14.7045 33.7472 15.125C33.5729 15.5455 33.4858 16.0492 33.4858 16.6364C33.4858 17.2311 33.5729 17.7424 33.7472 18.1705C33.9214 18.5947 34.1657 18.9223 34.4801 19.1534C34.7983 19.3807 35.1714 19.4943 35.5994 19.4943C35.9025 19.4943 36.1733 19.4375 36.4119 19.3239C36.6544 19.2064 36.857 19.0379 37.0199 18.8182C37.1828 18.5985 37.2945 18.3314 37.3551 18.017H39.321C39.2718 18.6345 39.09 19.1818 38.7756 19.6591C38.4612 20.1326 38.0331 20.5038 37.4915 20.7727C36.9498 21.0379 36.3134 21.1705 35.5824 21.1705ZM44.8168 21.1705C43.9645 21.1705 43.2259 20.983 42.6009 20.608C41.9759 20.233 41.491 19.7083 41.1463 19.0341C40.8054 18.3598 40.6349 17.572 40.6349 16.6705C40.6349 15.7689 40.8054 14.9792 41.1463 14.3011C41.491 13.6231 41.9759 13.0966 42.6009 12.7216C43.2259 12.3466 43.9645 12.1591 44.8168 12.1591C45.669 12.1591 46.4077 12.3466 47.0327 12.7216C47.6577 13.0966 48.1406 13.6231 48.4815 14.3011C48.8262 14.9792 48.9986 15.7689 48.9986 16.6705C48.9986 17.572 48.8262 18.3598 48.4815 19.0341C48.1406 19.7083 47.6577 20.233 47.0327 20.608C46.4077 20.983 45.669 21.1705 44.8168 21.1705ZM44.8281 19.5227C45.2902 19.5227 45.6766 19.3958 45.9872 19.142C46.2978 18.8845 46.5289 18.5398 46.6804 18.108C46.8357 17.6761 46.9134 17.1951 46.9134 16.6648C46.9134 16.1307 46.8357 15.6477 46.6804 15.2159C46.5289 14.7803 46.2978 14.4337 45.9872 14.1761C45.6766 13.9186 45.2902 13.7898 44.8281 13.7898C44.3546 13.7898 43.9607 13.9186 43.6463 14.1761C43.3357 14.4337 43.1027 14.7803 42.9474 15.2159C42.7959 15.6477 42.7202 16.1307 42.7202 16.6648C42.7202 17.1951 42.7959 17.6761 42.9474 18.108C43.1027 18.5398 43.3357 18.8845 43.6463 19.142C43.9607 19.3958 44.3546 19.5227 44.8281 19.5227ZM52.8011 15.8864V21H50.7443V12.2727H52.7102V13.7557H52.8125C53.0133 13.267 53.3333 12.8788 53.7727 12.5909C54.2159 12.303 54.7633 12.1591 55.4148 12.1591C56.017 12.1591 56.5417 12.2879 56.9886 12.5455C57.4394 12.803 57.7879 13.1761 58.0341 13.6648C58.2841 14.1534 58.4072 14.7462 58.4034 15.4432V21H56.3466V15.7614C56.3466 15.178 56.1951 14.7216 55.892 14.392C55.5928 14.0625 55.178 13.8977 54.6477 13.8977C54.2879 13.8977 53.9678 13.9773 53.6875 14.1364C53.411 14.2917 53.1932 14.517 53.0341 14.8125C52.8788 15.108 52.8011 15.4659 52.8011 15.8864ZM65.2443 8.81818L61.4943 22.75H59.6932L63.4432 8.81818H65.2443ZM66.6477 21V9.36364H71.1023C71.9432 9.36364 72.642 9.49621 73.1989 9.76136C73.7595 10.0227 74.178 10.3807 74.4545 10.8352C74.7348 11.2898 74.875 11.8049 74.875 12.3807C74.875 12.8542 74.7841 13.2595 74.6023 13.5966C74.4205 13.9299 74.1761 14.2008 73.8693 14.4091C73.5625 14.6174 73.2197 14.767 72.8409 14.858V14.9716C73.2538 14.9943 73.6496 15.1212 74.0284 15.3523C74.411 15.5795 74.7235 15.9015 74.9659 16.3182C75.2083 16.7348 75.3295 17.2386 75.3295 17.8295C75.3295 18.4318 75.1837 18.9735 74.892 19.4545C74.6004 19.9318 74.161 20.3087 73.5739 20.5852C72.9867 20.8617 72.2481 21 71.358 21H66.6477ZM68.7557 19.2386H71.0227C71.7879 19.2386 72.339 19.0928 72.6761 18.8011C73.017 18.5057 73.1875 18.1269 73.1875 17.6648C73.1875 17.3201 73.1023 17.0095 72.9318 16.733C72.7614 16.4527 72.5189 16.233 72.2045 16.0739C71.8902 15.911 71.5152 15.8295 71.0795 15.8295H68.7557V19.2386ZM68.7557 14.3125H70.8409C71.2045 14.3125 71.5322 14.2462 71.8239 14.1136C72.1155 13.9773 72.3447 13.786 72.5114 13.5398C72.6818 13.2898 72.767 12.9943 72.767 12.6534C72.767 12.2027 72.608 11.8314 72.2898 11.5398C71.9754 11.2481 71.5076 11.1023 70.8864 11.1023H68.7557V14.3125ZM82.6349 17.3295V12.2727H84.6918V21H82.6974V19.4489H82.6065C82.4096 19.9375 82.0857 20.3371 81.6349 20.6477C81.188 20.9583 80.6368 21.1136 79.9815 21.1136C79.4096 21.1136 78.9039 20.9867 78.4645 20.733C78.0289 20.4754 77.688 20.1023 77.4418 19.6136C77.1955 19.1212 77.0724 18.5265 77.0724 17.8295V12.2727H79.1293V17.5114C79.1293 18.0644 79.2808 18.5038 79.5838 18.8295C79.8868 19.1553 80.2846 19.3182 80.777 19.3182C81.08 19.3182 81.3736 19.2443 81.6577 19.0966C81.9418 18.9489 82.1747 18.7292 82.3565 18.4375C82.5421 18.142 82.6349 17.7727 82.6349 17.3295ZM93.7045 14.5795L91.8295 14.7841C91.7765 14.5947 91.6837 14.4167 91.5511 14.25C91.4223 14.0833 91.2481 13.9489 91.0284 13.8466C90.8087 13.7443 90.5398 13.6932 90.2216 13.6932C89.7936 13.6932 89.4337 13.786 89.142 13.9716C88.8542 14.1572 88.7121 14.3977 88.7159 14.6932C88.7121 14.947 88.8049 15.1534 88.9943 15.3125C89.1875 15.4716 89.5057 15.6023 89.9489 15.7045L91.4375 16.0227C92.2633 16.2008 92.8769 16.483 93.2784 16.8693C93.6837 17.2557 93.8883 17.7614 93.892 18.3864C93.8883 18.9356 93.7273 19.4205 93.4091 19.8409C93.0947 20.2576 92.6572 20.5833 92.0966 20.8182C91.536 21.053 90.892 21.1705 90.1648 21.1705C89.0966 21.1705 88.2367 20.947 87.5852 20.5C86.9337 20.0492 86.5455 19.4223 86.4205 18.6193L88.4261 18.4261C88.517 18.8201 88.7102 19.1174 89.0057 19.3182C89.3011 19.5189 89.6856 19.6193 90.1591 19.6193C90.6477 19.6193 91.0398 19.5189 91.3352 19.3182C91.6345 19.1174 91.7841 18.8693 91.7841 18.5739C91.7841 18.3239 91.6875 18.1174 91.4943 17.9545C91.3049 17.7917 91.0095 17.6667 90.608 17.5795L89.1193 17.267C88.2822 17.0928 87.6629 16.7992 87.2614 16.3864C86.8598 15.9697 86.661 15.4432 86.6648 14.8068C86.661 14.2689 86.8068 13.803 87.1023 13.4091C87.4015 13.0114 87.8163 12.7045 88.3466 12.4886C88.8807 12.2689 89.4962 12.1591 90.1932 12.1591C91.2159 12.1591 92.0208 12.3769 92.608 12.8125C93.1989 13.2481 93.5644 13.8371 93.7045 14.5795ZM95.5881 21V12.2727H97.6449V21H95.5881ZM96.6222 11.0341C96.2964 11.0341 96.0161 10.9261 95.7812 10.7102C95.5464 10.4905 95.429 10.2273 95.429 9.92045C95.429 9.60985 95.5464 9.34659 95.7812 9.13068C96.0161 8.91098 96.2964 8.80114 96.6222 8.80114C96.9517 8.80114 97.232 8.91098 97.4631 9.13068C97.6979 9.34659 97.8153 9.60985 97.8153 9.92045C97.8153 10.2273 97.6979 10.4905 97.4631 10.7102C97.232 10.9261 96.9517 11.0341 96.6222 11.0341ZM101.817 15.8864V21H99.7599V12.2727H101.726V13.7557H101.828C102.029 13.267 102.349 12.8788 102.788 12.5909C103.232 12.303 103.779 12.1591 104.43 12.1591C105.033 12.1591 105.557 12.2879 106.004 12.5455C106.455 12.803 106.804 13.1761 107.05 13.6648C107.3 14.1534 107.423 14.7462 107.419 15.4432V21H105.362V15.7614C105.362 15.178 105.211 14.7216 104.908 14.392C104.608 14.0625 104.194 13.8977 103.663 13.8977C103.304 13.8977 102.983 13.9773 102.703 14.1364C102.427 14.2917 102.209 14.517 102.05 14.8125C101.894 15.108 101.817 15.4659 101.817 15.8864ZM113.374 21.1705C112.499 21.1705 111.743 20.9886 111.107 20.625C110.474 20.2576 109.987 19.7386 109.646 19.0682C109.305 18.3939 109.135 17.6004 109.135 16.6875C109.135 15.7898 109.305 15.0019 109.646 14.3239C109.991 13.642 110.472 13.1117 111.089 12.733C111.707 12.3504 112.432 12.1591 113.266 12.1591C113.804 12.1591 114.311 12.2462 114.788 12.4205C115.269 12.5909 115.694 12.8561 116.061 13.2159C116.432 13.5758 116.724 14.0341 116.936 14.5909C117.148 15.1439 117.254 15.803 117.254 16.5682V17.1989H110.101V15.8125H115.283C115.279 15.4186 115.194 15.0682 115.027 14.7614C114.86 14.4508 114.627 14.2064 114.328 14.0284C114.033 13.8504 113.688 13.7614 113.294 13.7614C112.874 13.7614 112.504 13.8636 112.186 14.0682C111.868 14.2689 111.62 14.5341 111.442 14.8636C111.268 15.1894 111.179 15.5473 111.175 15.9375V17.1477C111.175 17.6553 111.268 18.0909 111.453 18.4545C111.639 18.8144 111.898 19.0909 112.232 19.2841C112.565 19.4735 112.955 19.5682 113.402 19.5682C113.701 19.5682 113.972 19.5265 114.214 19.4432C114.457 19.3561 114.667 19.2292 114.845 19.0625C115.023 18.8958 115.158 18.6894 115.249 18.4432L117.169 18.6591C117.048 19.1667 116.817 19.6098 116.476 19.9886C116.139 20.3636 115.707 20.6553 115.18 20.8636C114.654 21.0682 114.052 21.1705 113.374 21.1705ZM125.892 14.5795L124.017 14.7841C123.964 14.5947 123.871 14.4167 123.739 14.25C123.61 14.0833 123.436 13.9489 123.216 13.8466C122.996 13.7443 122.727 13.6932 122.409 13.6932C121.981 13.6932 121.621 13.786 121.33 13.9716C121.042 14.1572 120.9 14.3977 120.903 14.6932C120.9 14.947 120.992 15.1534 121.182 15.3125C121.375 15.4716 121.693 15.6023 122.136 15.7045L123.625 16.0227C124.451 16.2008 125.064 16.483 125.466 16.8693C125.871 17.2557 126.076 17.7614 126.08 18.3864C126.076 18.9356 125.915 19.4205 125.597 19.8409C125.282 20.2576 124.845 20.5833 124.284 20.8182C123.723 21.053 123.08 21.1705 122.352 21.1705C121.284 21.1705 120.424 20.947 119.773 20.5C119.121 20.0492 118.733 19.4223 118.608 18.6193L120.614 18.4261C120.705 18.8201 120.898 19.1174 121.193 19.3182C121.489 19.5189 121.873 19.6193 122.347 19.6193C122.835 19.6193 123.227 19.5189 123.523 19.3182C123.822 19.1174 123.972 18.8693 123.972 18.5739C123.972 18.3239 123.875 18.1174 123.682 17.9545C123.492 17.7917 123.197 17.6667 122.795 17.5795L121.307 17.267C120.47 17.0928 119.85 16.7992 119.449 16.3864C119.047 15.9697 118.848 15.4432 118.852 14.8068C118.848 14.2689 118.994 13.803 119.29 13.4091C119.589 13.0114 120.004 12.7045 120.534 12.4886C121.068 12.2689 121.684 12.1591 122.381 12.1591C123.403 12.1591 124.208 12.3769 124.795 12.8125C125.386 13.2481 125.752 13.8371 125.892 14.5795ZM134.673 14.5795L132.798 14.7841C132.745 14.5947 132.652 14.4167 132.52 14.25C132.391 14.0833 132.217 13.9489 131.997 13.8466C131.777 13.7443 131.509 13.6932 131.19 13.6932C130.762 13.6932 130.402 13.786 130.111 13.9716C129.823 14.1572 129.681 14.3977 129.685 14.6932C129.681 14.947 129.774 15.1534 129.963 15.3125C130.156 15.4716 130.474 15.6023 130.918 15.7045L132.406 16.0227C133.232 16.2008 133.846 16.483 134.247 16.8693C134.652 17.2557 134.857 17.7614 134.861 18.3864C134.857 18.9356 134.696 19.4205 134.378 19.8409C134.063 20.2576 133.626 20.5833 133.065 20.8182C132.505 21.053 131.861 21.1705 131.134 21.1705C130.065 21.1705 129.205 20.947 128.554 20.5C127.902 20.0492 127.514 19.4223 127.389 18.6193L129.395 18.4261C129.486 18.8201 129.679 19.1174 129.974 19.3182C130.27 19.5189 130.654 19.6193 131.128 19.6193C131.616 19.6193 132.009 19.5189 132.304 19.3182C132.603 19.1174 132.753 18.8693 132.753 18.5739C132.753 18.3239 132.656 18.1174 132.463 17.9545C132.274 17.7917 131.978 17.6667 131.577 17.5795L130.088 17.267C129.251 17.0928 128.632 16.7992 128.23 16.3864C127.829 15.9697 127.63 15.4432 127.634 14.8068C127.63 14.2689 127.776 13.803 128.071 13.4091C128.37 13.0114 128.785 12.7045 129.315 12.4886C129.849 12.2689 130.465 12.1591 131.162 12.1591C132.185 12.1591 132.99 12.3769 133.577 12.8125C134.168 13.2481 134.533 13.8371 134.673 14.5795Z" fill="#F4CE71"/>
<rect width="155" height="29" rx="14.5" fill="#1E4460"/>
<path d="M22.1477 21V9.36364H29.7159V11.1307H24.2557V14.2898H29.3239V16.0568H24.2557V19.233H29.7614V21H22.1477ZM35.5824 21.1705C34.7112 21.1705 33.9631 20.9792 33.3381 20.5966C32.7169 20.214 32.2377 19.6856 31.9006 19.0114C31.5672 18.3333 31.4006 17.553 31.4006 16.6705C31.4006 15.7841 31.571 15.0019 31.9119 14.3239C32.2528 13.642 32.7339 13.1117 33.3551 12.733C33.9801 12.3504 34.7188 12.1591 35.571 12.1591C36.2794 12.1591 36.9063 12.2898 37.4517 12.5511C38.0009 12.8087 38.4384 13.1742 38.7642 13.6477C39.09 14.1174 39.2756 14.6667 39.321 15.2955H37.3551C37.2756 14.875 37.0862 14.5246 36.7869 14.2443C36.4915 13.9602 36.0956 13.8182 35.5994 13.8182C35.179 13.8182 34.8097 13.9318 34.4915 14.1591C34.1733 14.3826 33.9252 14.7045 33.7472 15.125C33.5729 15.5455 33.4858 16.0492 33.4858 16.6364C33.4858 17.2311 33.5729 17.7424 33.7472 18.1705C33.9214 18.5947 34.1657 18.9223 34.4801 19.1534C34.7983 19.3807 35.1714 19.4943 35.5994 19.4943C35.9025 19.4943 36.1733 19.4375 36.4119 19.3239C36.6544 19.2064 36.857 19.0379 37.0199 18.8182C37.1828 18.5985 37.2945 18.3314 37.3551 18.017H39.321C39.2718 18.6345 39.09 19.1818 38.7756 19.6591C38.4612 20.1326 38.0331 20.5038 37.4915 20.7727C36.9498 21.0379 36.3134 21.1705 35.5824 21.1705ZM44.8168 21.1705C43.9645 21.1705 43.2259 20.983 42.6009 20.608C41.9759 20.233 41.491 19.7083 41.1463 19.0341C40.8054 18.3598 40.6349 17.572 40.6349 16.6705C40.6349 15.7689 40.8054 14.9792 41.1463 14.3011C41.491 13.6231 41.9759 13.0966 42.6009 12.7216C43.2259 12.3466 43.9645 12.1591 44.8168 12.1591C45.669 12.1591 46.4077 12.3466 47.0327 12.7216C47.6577 13.0966 48.1406 13.6231 48.4815 14.3011C48.8262 14.9792 48.9986 15.7689 48.9986 16.6705C48.9986 17.572 48.8262 18.3598 48.4815 19.0341C48.1406 19.7083 47.6577 20.233 47.0327 20.608C46.4077 20.983 45.669 21.1705 44.8168 21.1705ZM44.8281 19.5227C45.2902 19.5227 45.6766 19.3958 45.9872 19.142C46.2978 18.8845 46.5289 18.5398 46.6804 18.108C46.8357 17.6761 46.9134 17.1951 46.9134 16.6648C46.9134 16.1307 46.8357 15.6477 46.6804 15.2159C46.5289 14.7803 46.2978 14.4337 45.9872 14.1761C45.6766 13.9186 45.2902 13.7898 44.8281 13.7898C44.3546 13.7898 43.9607 13.9186 43.6463 14.1761C43.3357 14.4337 43.1027 14.7803 42.9474 15.2159C42.7959 15.6477 42.7202 16.1307 42.7202 16.6648C42.7202 17.1951 42.7959 17.6761 42.9474 18.108C43.1027 18.5398 43.3357 18.8845 43.6463 19.142C43.9607 19.3958 44.3546 19.5227 44.8281 19.5227ZM52.8011 15.8864V21H50.7443V12.2727H52.7102V13.7557H52.8125C53.0133 13.267 53.3333 12.8788 53.7727 12.5909C54.2159 12.303 54.7633 12.1591 55.4148 12.1591C56.017 12.1591 56.5417 12.2879 56.9886 12.5455C57.4394 12.803 57.7879 13.1761 58.0341 13.6648C58.2841 14.1534 58.4072 14.7462 58.4034 15.4432V21H56.3466V15.7614C56.3466 15.178 56.1951 14.7216 55.892 14.392C55.5928 14.0625 55.178 13.8977 54.6477 13.8977C54.2879 13.8977 53.9678 13.9773 53.6875 14.1364C53.411 14.2917 53.1932 14.517 53.0341 14.8125C52.8788 15.108 52.8011 15.4659 52.8011 15.8864ZM65.2443 8.81818L61.4943 22.75H59.6932L63.4432 8.81818H65.2443ZM66.6477 21V9.36364H71.1023C71.9432 9.36364 72.642 9.49621 73.1989 9.76136C73.7595 10.0227 74.178 10.3807 74.4545 10.8352C74.7348 11.2898 74.875 11.8049 74.875 12.3807C74.875 12.8542 74.7841 13.2595 74.6023 13.5966C74.4205 13.9299 74.1761 14.2008 73.8693 14.4091C73.5625 14.6174 73.2197 14.767 72.8409 14.858V14.9716C73.2538 14.9943 73.6496 15.1212 74.0284 15.3523C74.411 15.5795 74.7235 15.9015 74.9659 16.3182C75.2083 16.7348 75.3295 17.2386 75.3295 17.8295C75.3295 18.4318 75.1837 18.9735 74.892 19.4545C74.6004 19.9318 74.161 20.3087 73.5739 20.5852C72.9867 20.8617 72.2481 21 71.358 21H66.6477ZM68.7557 19.2386H71.0227C71.7879 19.2386 72.339 19.0928 72.6761 18.8011C73.017 18.5057 73.1875 18.1269 73.1875 17.6648C73.1875 17.3201 73.1023 17.0095 72.9318 16.733C72.7614 16.4527 72.5189 16.233 72.2045 16.0739C71.8902 15.911 71.5152 15.8295 71.0795 15.8295H68.7557V19.2386ZM68.7557 14.3125H70.8409C71.2045 14.3125 71.5322 14.2462 71.8239 14.1136C72.1155 13.9773 72.3447 13.786 72.5114 13.5398C72.6818 13.2898 72.767 12.9943 72.767 12.6534C72.767 12.2027 72.608 11.8314 72.2898 11.5398C71.9754 11.2481 71.5076 11.1023 70.8864 11.1023H68.7557V14.3125ZM82.6349 17.3295V12.2727H84.6918V21H82.6974V19.4489H82.6065C82.4096 19.9375 82.0857 20.3371 81.6349 20.6477C81.188 20.9583 80.6368 21.1136 79.9815 21.1136C79.4096 21.1136 78.9039 20.9867 78.4645 20.733C78.0289 20.4754 77.688 20.1023 77.4418 19.6136C77.1955 19.1212 77.0724 18.5265 77.0724 17.8295V12.2727H79.1293V17.5114C79.1293 18.0644 79.2808 18.5038 79.5838 18.8295C79.8868 19.1553 80.2846 19.3182 80.777 19.3182C81.08 19.3182 81.3736 19.2443 81.6577 19.0966C81.9418 18.9489 82.1747 18.7292 82.3565 18.4375C82.5421 18.142 82.6349 17.7727 82.6349 17.3295ZM93.7045 14.5795L91.8295 14.7841C91.7765 14.5947 91.6837 14.4167 91.5511 14.25C91.4223 14.0833 91.2481 13.9489 91.0284 13.8466C90.8087 13.7443 90.5398 13.6932 90.2216 13.6932C89.7936 13.6932 89.4337 13.786 89.142 13.9716C88.8542 14.1572 88.7121 14.3977 88.7159 14.6932C88.7121 14.947 88.8049 15.1534 88.9943 15.3125C89.1875 15.4716 89.5057 15.6023 89.9489 15.7045L91.4375 16.0227C92.2633 16.2008 92.8769 16.483 93.2784 16.8693C93.6837 17.2557 93.8883 17.7614 93.892 18.3864C93.8883 18.9356 93.7273 19.4205 93.4091 19.8409C93.0947 20.2576 92.6572 20.5833 92.0966 20.8182C91.536 21.053 90.892 21.1705 90.1648 21.1705C89.0966 21.1705 88.2367 20.947 87.5852 20.5C86.9337 20.0492 86.5455 19.4223 86.4205 18.6193L88.4261 18.4261C88.517 18.8201 88.7102 19.1174 89.0057 19.3182C89.3011 19.5189 89.6856 19.6193 90.1591 19.6193C90.6477 19.6193 91.0398 19.5189 91.3352 19.3182C91.6345 19.1174 91.7841 18.8693 91.7841 18.5739C91.7841 18.3239 91.6875 18.1174 91.4943 17.9545C91.3049 17.7917 91.0095 17.6667 90.608 17.5795L89.1193 17.267C88.2822 17.0928 87.6629 16.7992 87.2614 16.3864C86.8598 15.9697 86.661 15.4432 86.6648 14.8068C86.661 14.2689 86.8068 13.803 87.1023 13.4091C87.4015 13.0114 87.8163 12.7045 88.3466 12.4886C88.8807 12.2689 89.4962 12.1591 90.1932 12.1591C91.2159 12.1591 92.0208 12.3769 92.608 12.8125C93.1989 13.2481 93.5644 13.8371 93.7045 14.5795ZM95.5881 21V12.2727H97.6449V21H95.5881ZM96.6222 11.0341C96.2964 11.0341 96.0161 10.9261 95.7812 10.7102C95.5464 10.4905 95.429 10.2273 95.429 9.92045C95.429 9.60985 95.5464 9.34659 95.7812 9.13068C96.0161 8.91098 96.2964 8.80114 96.6222 8.80114C96.9517 8.80114 97.232 8.91098 97.4631 9.13068C97.6979 9.34659 97.8153 9.60985 97.8153 9.92045C97.8153 10.2273 97.6979 10.4905 97.4631 10.7102C97.232 10.9261 96.9517 11.0341 96.6222 11.0341ZM101.817 15.8864V21H99.7599V12.2727H101.726V13.7557H101.828C102.029 13.267 102.349 12.8788 102.788 12.5909C103.232 12.303 103.779 12.1591 104.43 12.1591C105.033 12.1591 105.557 12.2879 106.004 12.5455C106.455 12.803 106.804 13.1761 107.05 13.6648C107.3 14.1534 107.423 14.7462 107.419 15.4432V21H105.362V15.7614C105.362 15.178 105.211 14.7216 104.908 14.392C104.608 14.0625 104.194 13.8977 103.663 13.8977C103.304 13.8977 102.983 13.9773 102.703 14.1364C102.427 14.2917 102.209 14.517 102.05 14.8125C101.894 15.108 101.817 15.4659 101.817 15.8864ZM113.374 21.1705C112.499 21.1705 111.743 20.9886 111.107 20.625C110.474 20.2576 109.987 19.7386 109.646 19.0682C109.305 18.3939 109.135 17.6004 109.135 16.6875C109.135 15.7898 109.305 15.0019 109.646 14.3239C109.991 13.642 110.472 13.1117 111.089 12.733C111.707 12.3504 112.432 12.1591 113.266 12.1591C113.804 12.1591 114.311 12.2462 114.788 12.4205C115.269 12.5909 115.694 12.8561 116.061 13.2159C116.432 13.5758 116.724 14.0341 116.936 14.5909C117.148 15.1439 117.254 15.803 117.254 16.5682V17.1989H110.101V15.8125H115.283C115.279 15.4186 115.194 15.0682 115.027 14.7614C114.86 14.4508 114.627 14.2064 114.328 14.0284C114.033 13.8504 113.688 13.7614 113.294 13.7614C112.874 13.7614 112.504 13.8636 112.186 14.0682C111.868 14.2689 111.62 14.5341 111.442 14.8636C111.268 15.1894 111.179 15.5473 111.175 15.9375V17.1477C111.175 17.6553 111.268 18.0909 111.453 18.4545C111.639 18.8144 111.898 19.0909 112.232 19.2841C112.565 19.4735 112.955 19.5682 113.402 19.5682C113.701 19.5682 113.972 19.5265 114.214 19.4432C114.457 19.3561 114.667 19.2292 114.845 19.0625C115.023 18.8958 115.158 18.6894 115.249 18.4432L117.169 18.6591C117.048 19.1667 116.817 19.6098 116.476 19.9886C116.139 20.3636 115.707 20.6553 115.18 20.8636C114.654 21.0682 114.052 21.1705 113.374 21.1705ZM125.892 14.5795L124.017 14.7841C123.964 14.5947 123.871 14.4167 123.739 14.25C123.61 14.0833 123.436 13.9489 123.216 13.8466C122.996 13.7443 122.727 13.6932 122.409 13.6932C121.981 13.6932 121.621 13.786 121.33 13.9716C121.042 14.1572 120.9 14.3977 120.903 14.6932C120.9 14.947 120.992 15.1534 121.182 15.3125C121.375 15.4716 121.693 15.6023 122.136 15.7045L123.625 16.0227C124.451 16.2008 125.064 16.483 125.466 16.8693C125.871 17.2557 126.076 17.7614 126.08 18.3864C126.076 18.9356 125.915 19.4205 125.597 19.8409C125.282 20.2576 124.845 20.5833 124.284 20.8182C123.723 21.053 123.08 21.1705 122.352 21.1705C121.284 21.1705 120.424 20.947 119.773 20.5C119.121 20.0492 118.733 19.4223 118.608 18.6193L120.614 18.4261C120.705 18.8201 120.898 19.1174 121.193 19.3182C121.489 19.5189 121.873 19.6193 122.347 19.6193C122.835 19.6193 123.227 19.5189 123.523 19.3182C123.822 19.1174 123.972 18.8693 123.972 18.5739C123.972 18.3239 123.875 18.1174 123.682 17.9545C123.492 17.7917 123.197 17.6667 122.795 17.5795L121.307 17.267C120.47 17.0928 119.85 16.7992 119.449 16.3864C119.047 15.9697 118.848 15.4432 118.852 14.8068C118.848 14.2689 118.994 13.803 119.29 13.4091C119.589 13.0114 120.004 12.7045 120.534 12.4886C121.068 12.2689 121.684 12.1591 122.381 12.1591C123.403 12.1591 124.208 12.3769 124.795 12.8125C125.386 13.2481 125.752 13.8371 125.892 14.5795ZM134.673 14.5795L132.798 14.7841C132.745 14.5947 132.652 14.4167 132.52 14.25C132.391 14.0833 132.217 13.9489 131.997 13.8466C131.777 13.7443 131.509 13.6932 131.19 13.6932C130.762 13.6932 130.402 13.786 130.111 13.9716C129.823 14.1572 129.681 14.3977 129.685 14.6932C129.681 14.947 129.774 15.1534 129.963 15.3125C130.156 15.4716 130.474 15.6023 130.918 15.7045L132.406 16.0227C133.232 16.2008 133.846 16.483 134.247 16.8693C134.652 17.2557 134.857 17.7614 134.861 18.3864C134.857 18.9356 134.696 19.4205 134.378 19.8409C134.063 20.2576 133.626 20.5833 133.065 20.8182C132.505 21.053 131.861 21.1705 131.134 21.1705C130.065 21.1705 129.205 20.947 128.554 20.5C127.902 20.0492 127.514 19.4223 127.389 18.6193L129.395 18.4261C129.486 18.8201 129.679 19.1174 129.974 19.3182C130.27 19.5189 130.654 19.6193 131.128 19.6193C131.616 19.6193 132.009 19.5189 132.304 19.3182C132.603 19.1174 132.753 18.8693 132.753 18.5739C132.753 18.3239 132.656 18.1174 132.463 17.9545C132.274 17.7917 131.978 17.6667 131.577 17.5795L130.088 17.267C129.251 17.0928 128.632 16.7992 128.23 16.3864C127.829 15.9697 127.63 15.4432 127.634 14.8068C127.63 14.2689 127.776 13.803 128.071 13.4091C128.37 13.0114 128.785 12.7045 129.315 12.4886C129.849 12.2689 130.465 12.1591 131.162 12.1591C132.185 12.1591 132.99 12.3769 133.577 12.8125C134.168 13.2481 134.533 13.8371 134.673 14.5795Z" fill="#F4CE71"/>
</g>
<defs>
<clipPath id="clip0_0_1">
<rect width="1728" height="8543" fill="white" transform="translate(-546 -2645)"/>
</clipPath>
</defs>
</svg>
