<svg width="229" height="29" viewBox="0 0 229 29" fill="none" xmlns="http://www.w3.org/2000/svg">
<rect width="229" height="29" fill="#C9B8AF"/>
<g clip-path="url(#clip0_0_1)">
<rect width="1728" height="8543" transform="translate(-791 -2645)" fill="#F9F9F9"/>
<rect width="229" height="29" rx="14.5" fill="#1E4460"/>
<path d="M19.2557 9.36364V21H17.1477V9.36364H19.2557ZM23.5043 15.8864V21H21.4474V12.2727H23.4134V13.7557H23.5156C23.7164 13.267 24.0365 12.8788 24.4759 12.5909C24.919 12.303 25.4664 12.1591 26.1179 12.1591C26.7202 12.1591 27.2448 12.2879 27.6918 12.5455C28.1425 12.803 28.491 13.1761 28.7372 13.6648C28.9872 14.1534 29.1103 14.7462 29.1065 15.4432V21H27.0497V15.7614C27.0497 15.178 26.8982 14.7216 26.5952 14.392C26.2959 14.0625 25.8812 13.8977 25.3509 13.8977C24.991 13.8977 24.6709 13.9773 24.3906 14.1364C24.1141 14.2917 23.8963 14.517 23.7372 14.8125C23.5819 15.108 23.5043 15.4659 23.5043 15.8864ZM35.6179 12.2727V13.8636H30.4588V12.2727H35.6179ZM31.7486 21V11.4489C31.7486 10.8617 31.8698 10.3731 32.1122 9.98295C32.3584 9.5928 32.688 9.30114 33.1009 9.10795C33.5137 8.91477 33.9721 8.81818 34.4759 8.81818C34.8319 8.81818 35.1482 8.84659 35.4247 8.90341C35.7012 8.96023 35.9058 9.01136 36.0384 9.05682L35.6293 10.6477C35.5421 10.6212 35.4323 10.5947 35.2997 10.5682C35.1671 10.5379 35.0194 10.5227 34.8565 10.5227C34.474 10.5227 34.2031 10.6155 34.044 10.8011C33.8887 10.983 33.8111 11.2443 33.8111 11.5852V21H31.7486ZM40.7074 21.1705C39.8551 21.1705 39.1165 20.983 38.4915 20.608C37.8665 20.233 37.3816 19.7083 37.0369 19.0341C36.696 18.3598 36.5256 17.572 36.5256 16.6705C36.5256 15.7689 36.696 14.9792 37.0369 14.3011C37.3816 13.6231 37.8665 13.0966 38.4915 12.7216C39.1165 12.3466 39.8551 12.1591 40.7074 12.1591C41.5597 12.1591 42.2983 12.3466 42.9233 12.7216C43.5483 13.0966 44.0313 13.6231 44.3722 14.3011C44.7169 14.9792 44.8892 15.7689 44.8892 16.6705C44.8892 17.572 44.7169 18.3598 44.3722 19.0341C44.0313 19.7083 43.5483 20.233 42.9233 20.608C42.2983 20.983 41.5597 21.1705 40.7074 21.1705ZM40.7188 19.5227C41.1809 19.5227 41.5672 19.3958 41.8778 19.142C42.1884 18.8845 42.4195 18.5398 42.571 18.108C42.7263 17.6761 42.804 17.1951 42.804 16.6648C42.804 16.1307 42.7263 15.6477 42.571 15.2159C42.4195 14.7803 42.1884 14.4337 41.8778 14.1761C41.5672 13.9186 41.1809 13.7898 40.7188 13.7898C40.2453 13.7898 39.8513 13.9186 39.5369 14.1761C39.2263 14.4337 38.9934 14.7803 38.8381 15.2159C38.6866 15.6477 38.6108 16.1307 38.6108 16.6648C38.6108 17.1951 38.6866 17.6761 38.8381 18.108C38.9934 18.5398 39.2263 18.8845 39.5369 19.142C39.8513 19.3958 40.2453 19.5227 40.7188 19.5227ZM46.6349 21V12.2727H48.6293V13.7273H48.7202C48.8793 13.2235 49.152 12.8352 49.5384 12.5625C49.9285 12.286 50.3736 12.1477 50.8736 12.1477C50.9872 12.1477 51.1141 12.1534 51.2543 12.1648C51.3982 12.1723 51.5175 12.1856 51.6122 12.2045V14.0966C51.5251 14.0663 51.3868 14.0398 51.1974 14.017C51.0118 13.9905 50.8319 13.9773 50.6577 13.9773C50.2827 13.9773 49.9455 14.0587 49.6463 14.2216C49.3509 14.3807 49.1179 14.6023 48.9474 14.8864C48.777 15.1705 48.6918 15.4981 48.6918 15.8693V21H46.6349ZM52.9787 21V12.2727H54.9446V13.7557H55.0469C55.2287 13.2557 55.5298 12.8655 55.9503 12.5852C56.3707 12.3011 56.8726 12.1591 57.456 12.1591C58.0469 12.1591 58.545 12.303 58.9503 12.5909C59.3594 12.875 59.6473 13.2633 59.8139 13.7557H59.9048C60.098 13.2708 60.4238 12.8845 60.8821 12.5966C61.3442 12.3049 61.8916 12.1591 62.5241 12.1591C63.3272 12.1591 63.9825 12.4129 64.4901 12.9205C64.9976 13.428 65.2514 14.1686 65.2514 15.142V21H63.1889V15.4602C63.1889 14.9186 63.045 14.5227 62.7571 14.2727C62.4692 14.0189 62.117 13.892 61.7003 13.892C61.2041 13.892 60.8158 14.0473 60.5355 14.358C60.259 14.6648 60.1207 15.0644 60.1207 15.5568V21H58.1037V15.375C58.1037 14.9242 57.9673 14.5644 57.6946 14.2955C57.4257 14.0265 57.0734 13.892 56.6378 13.892C56.3423 13.892 56.0734 13.9678 55.831 14.1193C55.5885 14.267 55.3954 14.4773 55.2514 14.75C55.1075 15.0189 55.0355 15.3333 55.0355 15.6932V21H52.9787ZM69.8494 21.1761C69.2964 21.1761 68.7983 21.0777 68.3551 20.8807C67.9157 20.6799 67.5672 20.3845 67.3097 19.9943C67.0559 19.6042 66.929 19.1231 66.929 18.5511C66.929 18.0587 67.0199 17.6515 67.2017 17.3295C67.3835 17.0076 67.6316 16.75 67.946 16.5568C68.2604 16.3636 68.6146 16.2178 69.0085 16.1193C69.4063 16.017 69.8172 15.9432 70.2415 15.8977C70.7528 15.8447 71.1676 15.7973 71.4858 15.7557C71.804 15.7102 72.035 15.642 72.179 15.5511C72.3267 15.4564 72.4006 15.3106 72.4006 15.1136V15.0795C72.4006 14.6515 72.2737 14.3201 72.0199 14.0852C71.7661 13.8504 71.4006 13.733 70.9233 13.733C70.4195 13.733 70.0199 13.8428 69.7244 14.0625C69.4328 14.2822 69.2358 14.5417 69.1335 14.8409L67.2131 14.5682C67.3646 14.0379 67.6146 13.5947 67.9631 13.2386C68.3116 12.8788 68.7377 12.6098 69.2415 12.4318C69.7453 12.25 70.3021 12.1591 70.9119 12.1591C71.3324 12.1591 71.7509 12.2083 72.1676 12.3068C72.5843 12.4053 72.965 12.5682 73.3097 12.7955C73.6544 13.0189 73.9309 13.3239 74.1392 13.7102C74.3513 14.0966 74.4574 14.5795 74.4574 15.1591V21H72.4801V19.8011H72.4119C72.2869 20.0436 72.1108 20.2708 71.8835 20.483C71.66 20.6913 71.3778 20.8598 71.0369 20.9886C70.6998 21.1136 70.304 21.1761 69.8494 21.1761ZM70.3835 19.6648C70.7964 19.6648 71.1544 19.5833 71.4574 19.4205C71.7604 19.2538 71.9934 19.0341 72.1562 18.7614C72.3229 18.4886 72.4062 18.1913 72.4062 17.8693V16.8409C72.3419 16.8939 72.232 16.9432 72.0767 16.9886C71.9252 17.0341 71.7547 17.0739 71.5653 17.108C71.3759 17.142 71.1884 17.1723 71.0028 17.1989C70.8172 17.2254 70.6563 17.2481 70.5199 17.267C70.2131 17.3087 69.9384 17.3769 69.696 17.4716C69.4536 17.5663 69.2623 17.6989 69.1222 17.8693C68.982 18.036 68.9119 18.2519 68.9119 18.517C68.9119 18.8958 69.0502 19.1818 69.3267 19.375C69.6032 19.5682 69.9555 19.6648 70.3835 19.6648ZM80.8835 12.2727V13.8636H75.8665V12.2727H80.8835ZM77.1051 10.1818H79.1619V18.375C79.1619 18.6515 79.2036 18.8636 79.2869 19.0114C79.3741 19.1553 79.4877 19.2538 79.6278 19.3068C79.768 19.3598 79.9233 19.3864 80.0938 19.3864C80.2225 19.3864 80.34 19.3769 80.446 19.358C80.5559 19.339 80.6392 19.322 80.696 19.3068L81.0426 20.9148C80.9328 20.9527 80.7756 20.9943 80.571 21.0398C80.3703 21.0852 80.1241 21.1117 79.8324 21.1193C79.3172 21.1345 78.8532 21.0568 78.4403 20.8864C78.0275 20.7121 77.6998 20.4432 77.4574 20.0795C77.2188 19.7159 77.1013 19.2614 77.1051 18.7159V10.1818ZM82.6037 21V12.2727H84.6605V21H82.6037ZM83.6378 11.0341C83.312 11.0341 83.0317 10.9261 82.7969 10.7102C82.562 10.4905 82.4446 10.2273 82.4446 9.92045C82.4446 9.60985 82.562 9.34659 82.7969 9.13068C83.0317 8.91098 83.312 8.80114 83.6378 8.80114C83.9673 8.80114 84.2476 8.91098 84.4787 9.13068C84.7135 9.34659 84.831 9.60985 84.831 9.92045C84.831 10.2273 84.7135 10.4905 84.4787 10.7102C84.2476 10.9261 83.9673 11.0341 83.6378 11.0341ZM90.5824 21.1705C89.7301 21.1705 88.9915 20.983 88.3665 20.608C87.7415 20.233 87.2566 19.7083 86.9119 19.0341C86.571 18.3598 86.4006 17.572 86.4006 16.6705C86.4006 15.7689 86.571 14.9792 86.9119 14.3011C87.2566 13.6231 87.7415 13.0966 88.3665 12.7216C88.9915 12.3466 89.7301 12.1591 90.5824 12.1591C91.4347 12.1591 92.1733 12.3466 92.7983 12.7216C93.4233 13.0966 93.9063 13.6231 94.2472 14.3011C94.5919 14.9792 94.7642 15.7689 94.7642 16.6705C94.7642 17.572 94.5919 18.3598 94.2472 19.0341C93.9063 19.7083 93.4233 20.233 92.7983 20.608C92.1733 20.983 91.4347 21.1705 90.5824 21.1705ZM90.5938 19.5227C91.0559 19.5227 91.4422 19.3958 91.7528 19.142C92.0634 18.8845 92.2945 18.5398 92.446 18.108C92.6013 17.6761 92.679 17.1951 92.679 16.6648C92.679 16.1307 92.6013 15.6477 92.446 15.2159C92.2945 14.7803 92.0634 14.4337 91.7528 14.1761C91.4422 13.9186 91.0559 13.7898 90.5938 13.7898C90.1203 13.7898 89.7263 13.9186 89.4119 14.1761C89.1013 14.4337 88.8684 14.7803 88.7131 15.2159C88.5616 15.6477 88.4858 16.1307 88.4858 16.6648C88.4858 17.1951 88.5616 17.6761 88.7131 18.108C88.8684 18.5398 89.1013 18.8845 89.4119 19.142C89.7263 19.3958 90.1203 19.5227 90.5938 19.5227ZM98.5668 15.8864V21H96.5099V12.2727H98.4759V13.7557H98.5781C98.7789 13.267 99.099 12.8788 99.5384 12.5909C99.9815 12.303 100.529 12.1591 101.18 12.1591C101.783 12.1591 102.307 12.2879 102.754 12.5455C103.205 12.803 103.554 13.1761 103.8 13.6648C104.05 14.1534 104.173 14.7462 104.169 15.4432V21H102.112V15.7614C102.112 15.178 101.961 14.7216 101.658 14.392C101.358 14.0625 100.944 13.8977 100.413 13.8977C100.054 13.8977 99.7334 13.9773 99.4531 14.1364C99.1766 14.2917 98.9588 14.517 98.7997 14.8125C98.6444 15.108 98.5668 15.4659 98.5668 15.8864ZM108.771 21.1761C108.218 21.1761 107.72 21.0777 107.277 20.8807C106.838 20.6799 106.489 20.3845 106.232 19.9943C105.978 19.6042 105.851 19.1231 105.851 18.5511C105.851 18.0587 105.942 17.6515 106.124 17.3295C106.305 17.0076 106.554 16.75 106.868 16.5568C107.182 16.3636 107.536 16.2178 107.93 16.1193C108.328 16.017 108.739 15.9432 109.163 15.8977C109.675 15.8447 110.089 15.7973 110.408 15.7557C110.726 15.7102 110.957 15.642 111.101 15.5511C111.249 15.4564 111.322 15.3106 111.322 15.1136V15.0795C111.322 14.6515 111.196 14.3201 110.942 14.0852C110.688 13.8504 110.322 13.733 109.845 13.733C109.341 13.733 108.942 13.8428 108.646 14.0625C108.355 14.2822 108.158 14.5417 108.055 14.8409L106.135 14.5682C106.286 14.0379 106.536 13.5947 106.885 13.2386C107.233 12.8788 107.66 12.6098 108.163 12.4318C108.667 12.25 109.224 12.1591 109.834 12.1591C110.254 12.1591 110.673 12.2083 111.089 12.3068C111.506 12.4053 111.887 12.5682 112.232 12.7955C112.576 13.0189 112.853 13.3239 113.061 13.7102C113.273 14.0966 113.379 14.5795 113.379 15.1591V21H111.402V19.8011H111.334C111.209 20.0436 111.033 20.2708 110.805 20.483C110.582 20.6913 110.3 20.8598 109.959 20.9886C109.622 21.1136 109.226 21.1761 108.771 21.1761ZM109.305 19.6648C109.718 19.6648 110.076 19.5833 110.379 19.4205C110.682 19.2538 110.915 19.0341 111.078 18.7614C111.245 18.4886 111.328 18.1913 111.328 17.8693V16.8409C111.264 16.8939 111.154 16.9432 110.999 16.9886C110.847 17.0341 110.677 17.0739 110.487 17.108C110.298 17.142 110.11 17.1723 109.925 17.1989C109.739 17.2254 109.578 17.2481 109.442 17.267C109.135 17.3087 108.86 17.3769 108.618 17.4716C108.375 17.5663 108.184 17.6989 108.044 17.8693C107.904 18.036 107.834 18.2519 107.834 18.517C107.834 18.8958 107.972 19.1818 108.249 19.375C108.525 19.5682 108.877 19.6648 109.305 19.6648ZM117.504 9.36364V21H115.447V9.36364H117.504ZM123.168 11.1307V9.36364H132.452V11.1307H128.855V21H126.764V11.1307H123.168ZM136.749 21.1705C135.874 21.1705 135.118 20.9886 134.482 20.625C133.849 20.2576 133.362 19.7386 133.021 19.0682C132.68 18.3939 132.51 17.6004 132.51 16.6875C132.51 15.7898 132.68 15.0019 133.021 14.3239C133.366 13.642 133.847 13.1117 134.464 12.733C135.082 12.3504 135.807 12.1591 136.641 12.1591C137.179 12.1591 137.686 12.2462 138.163 12.4205C138.644 12.5909 139.069 12.8561 139.436 13.2159C139.807 13.5758 140.099 14.0341 140.311 14.5909C140.523 15.1439 140.629 15.803 140.629 16.5682V17.1989H133.476V15.8125H138.658C138.654 15.4186 138.569 15.0682 138.402 14.7614C138.235 14.4508 138.002 14.2064 137.703 14.0284C137.408 13.8504 137.063 13.7614 136.669 13.7614C136.249 13.7614 135.879 13.8636 135.561 14.0682C135.243 14.2689 134.995 14.5341 134.817 14.8636C134.643 15.1894 134.554 15.5473 134.55 15.9375V17.1477C134.55 17.6553 134.643 18.0909 134.828 18.4545C135.014 18.8144 135.273 19.0909 135.607 19.2841C135.94 19.4735 136.33 19.5682 136.777 19.5682C137.076 19.5682 137.347 19.5265 137.589 19.4432C137.832 19.3561 138.042 19.2292 138.22 19.0625C138.398 18.8958 138.533 18.6894 138.624 18.4432L140.544 18.6591C140.423 19.1667 140.192 19.6098 139.851 19.9886C139.514 20.3636 139.082 20.6553 138.555 20.8636C138.029 21.0682 137.427 21.1705 136.749 21.1705ZM146.176 21.1705C145.305 21.1705 144.557 20.9792 143.932 20.5966C143.311 20.214 142.831 19.6856 142.494 19.0114C142.161 18.3333 141.994 17.553 141.994 16.6705C141.994 15.7841 142.165 15.0019 142.506 14.3239C142.847 13.642 143.328 13.1117 143.949 12.733C144.574 12.3504 145.313 12.1591 146.165 12.1591C146.873 12.1591 147.5 12.2898 148.045 12.5511C148.595 12.8087 149.032 13.1742 149.358 13.6477C149.684 14.1174 149.869 14.6667 149.915 15.2955H147.949C147.869 14.875 147.68 14.5246 147.381 14.2443C147.085 13.9602 146.689 13.8182 146.193 13.8182C145.773 13.8182 145.403 13.9318 145.085 14.1591C144.767 14.3826 144.519 14.7045 144.341 15.125C144.167 15.5455 144.08 16.0492 144.08 16.6364C144.08 17.2311 144.167 17.7424 144.341 18.1705C144.515 18.5947 144.759 18.9223 145.074 19.1534C145.392 19.3807 145.765 19.4943 146.193 19.4943C146.496 19.4943 146.767 19.4375 147.006 19.3239C147.248 19.2064 147.451 19.0379 147.614 18.8182C147.777 18.5985 147.888 18.3314 147.949 18.017H149.915C149.866 18.6345 149.684 19.1818 149.369 19.6591C149.055 20.1326 148.627 20.5038 148.085 20.7727C147.544 21.0379 146.907 21.1705 146.176 21.1705ZM153.661 15.8864V21H151.604V9.36364H153.615V13.7557H153.717C153.922 13.2633 154.238 12.875 154.666 12.5909C155.098 12.303 155.647 12.1591 156.314 12.1591C156.92 12.1591 157.448 12.286 157.899 12.5398C158.35 12.7936 158.698 13.1648 158.945 13.6534C159.195 14.142 159.32 14.7386 159.32 15.4432V21H157.263V15.7614C157.263 15.1742 157.111 14.7178 156.808 14.392C156.509 14.0625 156.089 13.8977 155.547 13.8977C155.183 13.8977 154.857 13.9773 154.57 14.1364C154.286 14.2917 154.062 14.517 153.899 14.8125C153.74 15.108 153.661 15.4659 153.661 15.8864ZM163.473 15.8864V21H161.416V12.2727H163.382V13.7557H163.484C163.685 13.267 164.005 12.8788 164.445 12.5909C164.888 12.303 165.435 12.1591 166.087 12.1591C166.689 12.1591 167.214 12.2879 167.661 12.5455C168.111 12.803 168.46 13.1761 168.706 13.6648C168.956 14.1534 169.079 14.7462 169.075 15.4432V21H167.018V15.7614C167.018 15.178 166.867 14.7216 166.564 14.392C166.265 14.0625 165.85 13.8977 165.32 13.8977C164.96 13.8977 164.64 13.9773 164.359 14.1364C164.083 14.2917 163.865 14.517 163.706 14.8125C163.551 15.108 163.473 15.4659 163.473 15.8864ZM174.973 21.1705C174.121 21.1705 173.382 20.983 172.757 20.608C172.132 20.233 171.647 19.7083 171.303 19.0341C170.962 18.3598 170.791 17.572 170.791 16.6705C170.791 15.7689 170.962 14.9792 171.303 14.3011C171.647 13.6231 172.132 13.0966 172.757 12.7216C173.382 12.3466 174.121 12.1591 174.973 12.1591C175.825 12.1591 176.564 12.3466 177.189 12.7216C177.814 13.0966 178.297 13.6231 178.638 14.3011C178.982 14.9792 179.155 15.7689 179.155 16.6705C179.155 17.572 178.982 18.3598 178.638 19.0341C178.297 19.7083 177.814 20.233 177.189 20.608C176.564 20.983 175.825 21.1705 174.973 21.1705ZM174.984 19.5227C175.446 19.5227 175.833 19.3958 176.143 19.142C176.454 18.8845 176.685 18.5398 176.837 18.108C176.992 17.6761 177.07 17.1951 177.07 16.6648C177.07 16.1307 176.992 15.6477 176.837 15.2159C176.685 14.7803 176.454 14.4337 176.143 14.1761C175.833 13.9186 175.446 13.7898 174.984 13.7898C174.511 13.7898 174.117 13.9186 173.803 14.1761C173.492 14.4337 173.259 14.7803 173.104 15.2159C172.952 15.6477 172.876 16.1307 172.876 16.6648C172.876 17.1951 172.952 17.6761 173.104 18.108C173.259 18.5398 173.492 18.8845 173.803 19.142C174.117 19.3958 174.511 19.5227 174.984 19.5227ZM182.957 9.36364V21H180.901V9.36364H182.957ZM188.879 21.1705C188.027 21.1705 187.288 20.983 186.663 20.608C186.038 20.233 185.554 19.7083 185.209 19.0341C184.868 18.3598 184.697 17.572 184.697 16.6705C184.697 15.7689 184.868 14.9792 185.209 14.3011C185.554 13.6231 186.038 13.0966 186.663 12.7216C187.288 12.3466 188.027 12.1591 188.879 12.1591C189.732 12.1591 190.47 12.3466 191.095 12.7216C191.72 13.0966 192.203 13.6231 192.544 14.3011C192.889 14.9792 193.061 15.7689 193.061 16.6705C193.061 17.572 192.889 18.3598 192.544 19.0341C192.203 19.7083 191.72 20.233 191.095 20.608C190.47 20.983 189.732 21.1705 188.879 21.1705ZM188.891 19.5227C189.353 19.5227 189.739 19.3958 190.05 19.142C190.36 18.8845 190.591 18.5398 190.743 18.108C190.898 17.6761 190.976 17.1951 190.976 16.6648C190.976 16.1307 190.898 15.6477 190.743 15.2159C190.591 14.7803 190.36 14.4337 190.05 14.1761C189.739 13.9186 189.353 13.7898 188.891 13.7898C188.417 13.7898 188.023 13.9186 187.709 14.1761C187.398 14.4337 187.165 14.7803 187.01 15.2159C186.858 15.6477 186.783 16.1307 186.783 16.6648C186.783 17.1951 186.858 17.6761 187.01 18.108C187.165 18.5398 187.398 18.8845 187.709 19.142C188.023 19.3958 188.417 19.5227 188.891 19.5227ZM198.602 24.4545C197.864 24.4545 197.229 24.3542 196.699 24.1534C196.169 23.9564 195.742 23.6913 195.42 23.358C195.098 23.0246 194.875 22.6553 194.75 22.25L196.602 21.8011C196.686 21.9716 196.807 22.1402 196.966 22.3068C197.125 22.4773 197.339 22.6174 197.608 22.7273C197.881 22.8409 198.223 22.8977 198.636 22.8977C199.22 22.8977 199.703 22.7557 200.085 22.4716C200.468 22.1913 200.659 21.7292 200.659 21.0852V19.4318H200.557C200.451 19.6439 200.295 19.8617 200.091 20.0852C199.89 20.3087 199.623 20.4962 199.29 20.6477C198.96 20.7992 198.545 20.875 198.045 20.875C197.375 20.875 196.767 20.7178 196.222 20.4034C195.68 20.0852 195.248 19.6117 194.926 18.983C194.608 18.3504 194.449 17.5587 194.449 16.608C194.449 15.6496 194.608 14.8409 194.926 14.1818C195.248 13.5189 195.682 13.017 196.227 12.6761C196.773 12.3314 197.381 12.1591 198.051 12.1591C198.563 12.1591 198.983 12.2462 199.312 12.4205C199.646 12.5909 199.911 12.7973 200.108 13.0398C200.305 13.2784 200.455 13.5038 200.557 13.7159H200.67V12.2727H202.699V21.142C202.699 21.8883 202.521 22.5057 202.165 22.9943C201.809 23.483 201.322 23.8485 200.705 24.0909C200.087 24.3333 199.386 24.4545 198.602 24.4545ZM198.619 19.2614C199.055 19.2614 199.426 19.1553 199.733 18.9432C200.04 18.7311 200.273 18.4261 200.432 18.0284C200.591 17.6307 200.67 17.1534 200.67 16.5966C200.67 16.0473 200.591 15.5663 200.432 15.1534C200.277 14.7405 200.045 14.4205 199.739 14.1932C199.436 13.9621 199.063 13.8466 198.619 13.8466C198.161 13.8466 197.778 13.9659 197.472 14.2045C197.165 14.4432 196.934 14.7708 196.778 15.1875C196.623 15.6004 196.545 16.0701 196.545 16.5966C196.545 17.1307 196.623 17.5985 196.778 18C196.938 18.3977 197.17 18.7083 197.477 18.9318C197.788 19.1515 198.169 19.2614 198.619 19.2614ZM206.085 24.2727C205.805 24.2727 205.545 24.25 205.307 24.2045C205.072 24.1629 204.884 24.1136 204.744 24.0568L205.222 22.4545C205.521 22.5417 205.788 22.5833 206.023 22.5795C206.258 22.5758 206.464 22.5019 206.642 22.358C206.824 22.2178 206.977 21.983 207.102 21.6534L207.278 21.1818L204.114 12.2727H206.295L208.307 18.8636H208.398L210.415 12.2727H212.602L209.108 22.0568C208.945 22.5189 208.729 22.9148 208.46 23.2443C208.191 23.5777 207.862 23.8314 207.472 24.0057C207.085 24.1837 206.623 24.2727 206.085 24.2727Z" fill="#F4CE71"/>
</g>
<defs>
<clipPath id="clip0_0_1">
<rect width="1728" height="8543" fill="white" transform="translate(-791 -2645)"/>
</clipPath>
</defs>
</svg>
