<svg width="600" height="88" viewBox="0 0 600 88" fill="none" xmlns="http://www.w3.org/2000/svg">
<rect width="600" height="88" fill="#C9B8AF"/>
<g clip-path="url(#clip0_0_1)">
<rect width="1730" height="17397" transform="translate(-691 -2770)" fill="#F9F9F9"/>
<path d="M46.1477 36V24.3636H50.5114C51.4053 24.3636 52.1553 24.5189 52.7614 24.8295C53.3712 25.1402 53.8314 25.5758 54.142 26.1364C54.4564 26.6932 54.6136 27.3428 54.6136 28.0852C54.6136 28.8314 54.4545 29.4792 54.1364 30.0284C53.822 30.5739 53.358 30.9962 52.7443 31.2955C52.1307 31.5909 51.3769 31.7386 50.483 31.7386H47.375V29.9886H50.1989C50.7216 29.9886 51.1496 29.9167 51.483 29.7727C51.8163 29.625 52.0625 29.411 52.2216 29.1307C52.3845 28.8466 52.4659 28.4981 52.4659 28.0852C52.4659 27.6723 52.3845 27.3201 52.2216 27.0284C52.0587 26.733 51.8106 26.5095 51.4773 26.358C51.1439 26.2027 50.714 26.125 50.1875 26.125H48.2557V36H46.1477ZM52.1591 30.7273L55.0398 36H52.6875L49.858 30.7273H52.1591ZM60.2017 36.1705C59.3267 36.1705 58.571 35.9886 57.9347 35.625C57.3021 35.2576 56.8153 34.7386 56.4744 34.0682C56.1335 33.3939 55.9631 32.6004 55.9631 31.6875C55.9631 30.7898 56.1335 30.0019 56.4744 29.3239C56.8191 28.642 57.3002 28.1117 57.9176 27.733C58.535 27.3504 59.2604 27.1591 60.0938 27.1591C60.6316 27.1591 61.1392 27.2462 61.6165 27.4205C62.0975 27.5909 62.5218 27.8561 62.8892 28.2159C63.2604 28.5758 63.5521 29.0341 63.7642 29.5909C63.9763 30.1439 64.0824 30.803 64.0824 31.5682V32.1989H56.929V30.8125H62.1108C62.107 30.4186 62.0218 30.0682 61.8551 29.7614C61.6884 29.4508 61.4555 29.2064 61.1562 29.0284C60.8608 28.8504 60.5161 28.7614 60.1222 28.7614C59.7017 28.7614 59.3324 28.8636 59.0142 29.0682C58.696 29.2689 58.4479 29.5341 58.2699 29.8636C58.0956 30.1894 58.0066 30.5473 58.0028 30.9375V32.1477C58.0028 32.6553 58.0956 33.0909 58.2812 33.4545C58.4669 33.8144 58.7263 34.0909 59.0597 34.2841C59.393 34.4735 59.7831 34.5682 60.2301 34.5682C60.5294 34.5682 60.8002 34.5265 61.0426 34.4432C61.285 34.3561 61.4953 34.2292 61.6733 34.0625C61.8513 33.8958 61.9858 33.6894 62.0767 33.4432L63.9972 33.6591C63.8759 34.1667 63.6449 34.6098 63.304 34.9886C62.9669 35.3636 62.535 35.6553 62.0085 35.8636C61.482 36.0682 60.8797 36.1705 60.2017 36.1705ZM65.8224 36V27.2727H67.7884V28.7557H67.8906C68.0724 28.2557 68.3736 27.8655 68.794 27.5852C69.2145 27.3011 69.7164 27.1591 70.2997 27.1591C70.8906 27.1591 71.3887 27.303 71.794 27.5909C72.2031 27.875 72.491 28.2633 72.6577 28.7557H72.7486C72.9418 28.2708 73.2675 27.8845 73.7259 27.5966C74.188 27.3049 74.7353 27.1591 75.3679 27.1591C76.1709 27.1591 76.8262 27.4129 77.3338 27.9205C77.8414 28.428 78.0952 29.1686 78.0952 30.142V36H76.0327V30.4602C76.0327 29.9186 75.8887 29.5227 75.6009 29.2727C75.313 29.0189 74.9607 28.892 74.544 28.892C74.0478 28.892 73.6596 29.0473 73.3793 29.358C73.1027 29.6648 72.9645 30.0644 72.9645 30.5568V36H70.9474V30.375C70.9474 29.9242 70.8111 29.5644 70.5384 29.2955C70.2694 29.0265 69.9171 28.892 69.4815 28.892C69.1861 28.892 68.9171 28.9678 68.6747 29.1193C68.4323 29.267 68.2391 29.4773 68.0952 29.75C67.9512 30.0189 67.8793 30.3333 67.8793 30.6932V36H65.8224ZM80.1818 36V27.2727H82.2386V36H80.1818ZM81.2159 26.0341C80.8902 26.0341 80.6098 25.9261 80.375 25.7102C80.1402 25.4905 80.0227 25.2273 80.0227 24.9205C80.0227 24.6098 80.1402 24.3466 80.375 24.1307C80.6098 23.911 80.8902 23.8011 81.2159 23.8011C81.5455 23.8011 81.8258 23.911 82.0568 24.1307C82.2917 24.3466 82.4091 24.6098 82.4091 24.9205C82.4091 25.2273 82.2917 25.4905 82.0568 25.7102C81.8258 25.9261 81.5455 26.0341 81.2159 26.0341ZM86.4105 30.8864V36H84.3537V27.2727H86.3196V28.7557H86.4219C86.6226 28.267 86.9427 27.8788 87.3821 27.5909C87.8253 27.303 88.3726 27.1591 89.0241 27.1591C89.6264 27.1591 90.151 27.2879 90.598 27.5455C91.0488 27.803 91.3973 28.1761 91.6435 28.6648C91.8935 29.1534 92.0166 29.7462 92.0128 30.4432V36H89.956V30.7614C89.956 30.178 89.8045 29.7216 89.5014 29.392C89.2022 29.0625 88.7874 28.8977 88.2571 28.8977C87.8973 28.8977 87.5772 28.9773 87.2969 29.1364C87.0204 29.2917 86.8026 29.517 86.6435 29.8125C86.4882 30.108 86.4105 30.4659 86.4105 30.8864ZM97.3423 36.1534C96.6567 36.1534 96.0431 35.9773 95.5014 35.625C94.9598 35.2727 94.5317 34.7614 94.2173 34.0909C93.9029 33.4205 93.7457 32.6061 93.7457 31.6477C93.7457 30.678 93.9048 29.8598 94.223 29.1932C94.545 28.5227 94.9787 28.017 95.5241 27.6761C96.0696 27.3314 96.6776 27.1591 97.348 27.1591C97.8594 27.1591 98.2798 27.2462 98.6094 27.4205C98.9389 27.5909 99.2003 27.7973 99.3935 28.0398C99.5866 28.2784 99.7363 28.5038 99.8423 28.7159H99.9276V24.3636H101.99V36H99.9673V34.625H99.8423C99.7363 34.8371 99.5829 35.0625 99.3821 35.3011C99.1813 35.536 98.9162 35.7367 98.5866 35.9034C98.2571 36.0701 97.8423 36.1534 97.3423 36.1534ZM97.9162 34.4659C98.3518 34.4659 98.723 34.3485 99.0298 34.1136C99.3366 33.875 99.5696 33.5436 99.7287 33.1193C99.8878 32.6951 99.9673 32.2008 99.9673 31.6364C99.9673 31.072 99.8878 30.5814 99.7287 30.1648C99.5734 29.7481 99.3423 29.4242 99.0355 29.1932C98.7325 28.9621 98.3594 28.8466 97.9162 28.8466C97.4579 28.8466 97.0753 28.9659 96.7685 29.2045C96.4616 29.4432 96.2306 29.7727 96.0753 30.1932C95.92 30.6136 95.8423 31.0947 95.8423 31.6364C95.8423 32.1818 95.92 32.6686 96.0753 33.0966C96.2344 33.5208 96.4673 33.8561 96.7741 34.1023C97.0848 34.3447 97.4654 34.4659 97.9162 34.4659ZM108.045 36.1705C107.17 36.1705 106.415 35.9886 105.778 35.625C105.146 35.2576 104.659 34.7386 104.318 34.0682C103.977 33.3939 103.807 32.6004 103.807 31.6875C103.807 30.7898 103.977 30.0019 104.318 29.3239C104.663 28.642 105.144 28.1117 105.761 27.733C106.379 27.3504 107.104 27.1591 107.938 27.1591C108.475 27.1591 108.983 27.2462 109.46 27.4205C109.941 27.5909 110.366 27.8561 110.733 28.2159C111.104 28.5758 111.396 29.0341 111.608 29.5909C111.82 30.1439 111.926 30.803 111.926 31.5682V32.1989H104.773V30.8125H109.955C109.951 30.4186 109.866 30.0682 109.699 29.7614C109.532 29.4508 109.299 29.2064 109 29.0284C108.705 28.8504 108.36 28.7614 107.966 28.7614C107.545 28.7614 107.176 28.8636 106.858 29.0682C106.54 29.2689 106.292 29.5341 106.114 29.8636C105.939 30.1894 105.85 30.5473 105.847 30.9375V32.1477C105.847 32.6553 105.939 33.0909 106.125 33.4545C106.311 33.8144 106.57 34.0909 106.903 34.2841C107.237 34.4735 107.627 34.5682 108.074 34.5682C108.373 34.5682 108.644 34.5265 108.886 34.4432C109.129 34.3561 109.339 34.2292 109.517 34.0625C109.695 33.8958 109.83 33.6894 109.92 33.4432L111.841 33.6591C111.72 34.1667 111.489 34.6098 111.148 34.9886C110.811 35.3636 110.379 35.6553 109.852 35.8636C109.326 36.0682 108.723 36.1705 108.045 36.1705ZM113.666 36V27.2727H115.661V28.7273H115.751C115.911 28.2235 116.183 27.8352 116.57 27.5625C116.96 27.286 117.405 27.1477 117.905 27.1477C118.018 27.1477 118.145 27.1534 118.286 27.1648C118.429 27.1723 118.549 27.1856 118.643 27.2045V29.0966C118.556 29.0663 118.418 29.0398 118.229 29.017C118.043 28.9905 117.863 28.9773 117.689 28.9773C117.314 28.9773 116.977 29.0587 116.678 29.2216C116.382 29.3807 116.149 29.6023 115.979 29.8864C115.808 30.1705 115.723 30.4981 115.723 30.8693V36H113.666ZM121.277 36.125C120.932 36.125 120.637 36.0038 120.391 35.7614C120.144 35.5189 120.023 35.2235 120.027 34.875C120.023 34.5341 120.144 34.2424 120.391 34C120.637 33.7576 120.932 33.6364 121.277 33.6364C121.61 33.6364 121.9 33.7576 122.146 34C122.396 34.2424 122.523 34.5341 122.527 34.875C122.523 35.1061 122.463 35.3163 122.345 35.5057C122.232 35.6951 122.08 35.8466 121.891 35.9602C121.705 36.0701 121.5 36.125 121.277 36.125ZM121.277 29.8977C120.932 29.8977 120.637 29.7765 120.391 29.5341C120.144 29.2879 120.023 28.9924 120.027 28.6477C120.023 28.3068 120.144 28.0152 120.391 27.7727C120.637 27.5265 120.932 27.4034 121.277 27.4034C121.61 27.4034 121.9 27.5265 122.146 27.7727C122.396 28.0152 122.523 28.3068 122.527 28.6477C122.523 28.875 122.463 29.0833 122.345 29.2727C122.232 29.4621 122.08 29.6136 121.891 29.7273C121.705 29.8409 121.5 29.8977 121.277 29.8977ZM132.085 36.1818C131.358 36.1818 130.716 35.9981 130.159 35.6307C129.602 35.2595 129.167 34.7367 128.852 34.0625C128.538 33.3845 128.381 32.5833 128.381 31.6591C128.381 30.7424 128.538 29.947 128.852 29.2727C129.167 28.5985 129.604 28.0777 130.165 27.7102C130.725 27.3428 131.373 27.1591 132.108 27.1591C132.676 27.1591 133.125 27.2538 133.455 27.4432C133.788 27.6288 134.042 27.8409 134.216 28.0795C134.394 28.3144 134.532 28.5076 134.631 28.6591H134.744V24.3636H136.085V36H134.79V34.6591H134.631C134.532 34.8182 134.392 35.0189 134.21 35.2614C134.028 35.5 133.769 35.714 133.432 35.9034C133.095 36.089 132.646 36.1818 132.085 36.1818ZM132.267 34.9773C132.805 34.9773 133.259 34.8371 133.631 34.5568C134.002 34.2727 134.284 33.8807 134.477 33.3807C134.67 32.8769 134.767 32.2955 134.767 31.6364C134.767 30.9848 134.672 30.4148 134.483 29.9261C134.294 29.4337 134.013 29.0511 133.642 28.7784C133.271 28.5019 132.813 28.3636 132.267 28.3636C131.699 28.3636 131.225 28.5095 130.847 28.8011C130.472 29.089 130.189 29.4811 130 29.9773C129.814 30.4697 129.722 31.0227 129.722 31.6364C129.722 32.2576 129.816 32.822 130.006 33.3295C130.199 33.8333 130.483 34.2348 130.858 34.5341C131.237 34.8295 131.706 34.9773 132.267 34.9773ZM142.273 36.1818C141.485 36.1818 140.794 35.9943 140.199 35.6193C139.608 35.2443 139.146 34.7197 138.812 34.0455C138.483 33.3712 138.318 32.5833 138.318 31.6818C138.318 30.7727 138.483 29.9792 138.812 29.3011C139.146 28.6231 139.608 28.0966 140.199 27.7216C140.794 27.3466 141.485 27.1591 142.273 27.1591C143.061 27.1591 143.75 27.3466 144.341 27.7216C144.936 28.0966 145.398 28.6231 145.727 29.3011C146.061 29.9792 146.227 30.7727 146.227 31.6818C146.227 32.5833 146.061 33.3712 145.727 34.0455C145.398 34.7197 144.936 35.2443 144.341 35.6193C143.75 35.9943 143.061 36.1818 142.273 36.1818ZM142.273 34.9773C142.871 34.9773 143.364 34.8239 143.75 34.517C144.136 34.2102 144.422 33.8068 144.608 33.3068C144.794 32.8068 144.886 32.2652 144.886 31.6818C144.886 31.0985 144.794 30.5549 144.608 30.0511C144.422 29.5473 144.136 29.1402 143.75 28.8295C143.364 28.5189 142.871 28.3636 142.273 28.3636C141.674 28.3636 141.182 28.5189 140.795 28.8295C140.409 29.1402 140.123 29.5473 139.938 30.0511C139.752 30.5549 139.659 31.0985 139.659 31.6818C139.659 32.2652 139.752 32.8068 139.938 33.3068C140.123 33.8068 140.409 34.2102 140.795 34.517C141.182 34.8239 141.674 34.9773 142.273 34.9773ZM149.615 30.75V36H148.274V27.2727H149.57V28.6364H149.683C149.888 28.1932 150.198 27.8371 150.615 27.5682C151.032 27.2955 151.57 27.1591 152.229 27.1591C152.82 27.1591 153.337 27.2803 153.78 27.5227C154.223 27.7614 154.568 28.125 154.814 28.6136C155.06 29.0985 155.183 29.7121 155.183 30.4545V36H153.842V30.5455C153.842 29.8598 153.664 29.3258 153.308 28.9432C152.952 28.5568 152.464 28.3636 151.842 28.3636C151.414 28.3636 151.032 28.4564 150.695 28.642C150.361 28.8277 150.098 29.0985 149.905 29.4545C149.712 29.8106 149.615 30.2424 149.615 30.75ZM158.815 24.3636V25.3864C158.815 25.697 158.759 26.0284 158.645 26.3807C158.535 26.7292 158.372 27.0682 158.156 27.3977C157.944 27.7235 157.687 28.0076 157.384 28.25L156.656 27.6591C156.895 27.3182 157.101 26.964 157.276 26.5966C157.454 26.2254 157.543 25.8295 157.543 25.4091V24.3636H158.815ZM164.616 27.2727V28.4091H160.094V27.2727H164.616ZM161.412 25.1818H162.753V33.5C162.753 33.8788 162.808 34.1629 162.918 34.3523C163.031 34.5379 163.175 34.6629 163.349 34.7273C163.527 34.7879 163.715 34.8182 163.912 34.8182C164.06 34.8182 164.181 34.8106 164.276 34.7955C164.37 34.7765 164.446 34.7614 164.503 34.75L164.776 35.9545C164.685 35.9886 164.558 36.0227 164.395 36.0568C164.232 36.0947 164.026 36.1136 163.776 36.1136C163.397 36.1136 163.026 36.0322 162.662 35.8693C162.302 35.7064 162.003 35.4583 161.764 35.125C161.529 34.7917 161.412 34.3712 161.412 33.8636V25.1818ZM174.679 36.1818C173.891 36.1818 173.2 35.9943 172.605 35.6193C172.014 35.2443 171.552 34.7197 171.219 34.0455C170.889 33.3712 170.724 32.5833 170.724 31.6818C170.724 30.7727 170.889 29.9792 171.219 29.3011C171.552 28.6231 172.014 28.0966 172.605 27.7216C173.2 27.3466 173.891 27.1591 174.679 27.1591C175.467 27.1591 176.156 27.3466 176.747 27.7216C177.342 28.0966 177.804 28.6231 178.134 29.3011C178.467 29.9792 178.634 30.7727 178.634 31.6818C178.634 32.5833 178.467 33.3712 178.134 34.0455C177.804 34.7197 177.342 35.2443 176.747 35.6193C176.156 35.9943 175.467 36.1818 174.679 36.1818ZM174.679 34.9773C175.277 34.9773 175.77 34.8239 176.156 34.517C176.543 34.2102 176.829 33.8068 177.014 33.3068C177.2 32.8068 177.293 32.2652 177.293 31.6818C177.293 31.0985 177.2 30.5549 177.014 30.0511C176.829 29.5473 176.543 29.1402 176.156 28.8295C175.77 28.5189 175.277 28.3636 174.679 28.3636C174.08 28.3636 173.588 28.5189 173.202 28.8295C172.815 29.1402 172.529 29.5473 172.344 30.0511C172.158 30.5549 172.065 31.0985 172.065 31.6818C172.065 32.2652 172.158 32.8068 172.344 33.3068C172.529 33.8068 172.815 34.2102 173.202 34.517C173.588 34.8239 174.08 34.9773 174.679 34.9773ZM187.504 27.2727L184.277 36H182.913L179.686 27.2727H181.141L183.55 34.2273H183.641L186.05 27.2727H187.504ZM192.621 36.1818C191.78 36.1818 191.054 35.9962 190.445 35.625C189.839 35.25 189.371 34.7273 189.041 34.0568C188.715 33.3826 188.553 32.5985 188.553 31.7045C188.553 30.8106 188.715 30.0227 189.041 29.3409C189.371 28.6553 189.829 28.1212 190.416 27.7386C191.007 27.3523 191.696 27.1591 192.484 27.1591C192.939 27.1591 193.388 27.2348 193.831 27.3864C194.274 27.5379 194.678 27.7841 195.041 28.125C195.405 28.4621 195.695 28.9091 195.911 29.4659C196.126 30.0227 196.234 30.7083 196.234 31.5227V32.0909H189.507V30.9318H194.871C194.871 30.4394 194.772 30 194.575 29.6136C194.382 29.2273 194.106 28.9223 193.746 28.6989C193.39 28.4754 192.969 28.3636 192.484 28.3636C191.95 28.3636 191.488 28.4962 191.098 28.7614C190.712 29.0227 190.414 29.3636 190.206 29.7841C189.998 30.2045 189.893 30.6553 189.893 31.1364V31.9091C189.893 32.5682 190.007 33.1269 190.234 33.5852C190.465 34.0398 190.786 34.3864 191.195 34.625C191.604 34.8598 192.079 34.9773 192.621 34.9773C192.973 34.9773 193.291 34.928 193.575 34.8295C193.863 34.7273 194.111 34.5758 194.32 34.375C194.528 34.1705 194.689 33.9167 194.803 33.6136L196.098 33.9773C195.962 34.4167 195.732 34.803 195.411 35.1364C195.089 35.4659 194.691 35.7235 194.217 35.9091C193.744 36.0909 193.212 36.1818 192.621 36.1818ZM198.274 36V27.2727H199.57V28.5909H199.661C199.82 28.1591 200.107 27.8087 200.524 27.5398C200.941 27.2708 201.411 27.1364 201.933 27.1364C202.032 27.1364 202.155 27.1383 202.303 27.142C202.45 27.1458 202.562 27.1515 202.638 27.1591V28.5227C202.592 28.5114 202.488 28.4943 202.325 28.4716C202.166 28.4451 201.998 28.4318 201.82 28.4318C201.395 28.4318 201.017 28.5208 200.683 28.6989C200.354 28.8731 200.092 29.1155 199.899 29.4261C199.71 29.733 199.615 30.0833 199.615 30.4773V36H198.274ZM206.345 36L203.686 27.2727H205.095L206.982 33.9545H207.072L208.936 27.2727H210.368L212.209 33.9318H212.3L214.186 27.2727H215.595L212.936 36H211.618L209.709 29.2955H209.572L207.663 36H206.345ZM218.709 30.75V36H217.368V24.3636H218.709V28.6364H218.822C219.027 28.1856 219.334 27.8277 219.743 27.5625C220.156 27.2936 220.705 27.1591 221.391 27.1591C221.985 27.1591 222.506 27.2784 222.953 27.517C223.4 27.7519 223.747 28.1136 223.993 28.6023C224.243 29.0871 224.368 29.7045 224.368 30.4545V36H223.027V30.5455C223.027 29.8523 222.847 29.3163 222.487 28.9375C222.131 28.5549 221.637 28.3636 221.004 28.3636C220.565 28.3636 220.171 28.4564 219.822 28.642C219.478 28.8277 219.205 29.0985 219.004 29.4545C218.807 29.8106 218.709 30.2424 218.709 30.75ZM230.48 36.1818C229.639 36.1818 228.914 35.9962 228.304 35.625C227.698 35.25 227.23 34.7273 226.901 34.0568C226.575 33.3826 226.412 32.5985 226.412 31.7045C226.412 30.8106 226.575 30.0227 226.901 29.3409C227.23 28.6553 227.688 28.1212 228.276 27.7386C228.866 27.3523 229.556 27.1591 230.344 27.1591C230.798 27.1591 231.247 27.2348 231.69 27.3864C232.134 27.5379 232.537 27.7841 232.901 28.125C233.264 28.4621 233.554 28.9091 233.77 29.4659C233.986 30.0227 234.094 30.7083 234.094 31.5227V32.0909H227.366V30.9318H232.73C232.73 30.4394 232.632 30 232.435 29.6136C232.241 29.2273 231.965 28.9223 231.605 28.6989C231.249 28.4754 230.829 28.3636 230.344 28.3636C229.81 28.3636 229.348 28.4962 228.957 28.7614C228.571 29.0227 228.274 29.3636 228.065 29.7841C227.857 30.2045 227.753 30.6553 227.753 31.1364V31.9091C227.753 32.5682 227.866 33.1269 228.094 33.5852C228.325 34.0398 228.645 34.3864 229.054 34.625C229.463 34.8598 229.938 34.9773 230.48 34.9773C230.832 34.9773 231.151 34.928 231.435 34.8295C231.723 34.7273 231.971 34.5758 232.179 34.375C232.387 34.1705 232.548 33.9167 232.662 33.6136L233.957 33.9773C233.821 34.4167 233.592 34.803 233.27 35.1364C232.948 35.4659 232.55 35.7235 232.077 35.9091C231.603 36.0909 231.071 36.1818 230.48 36.1818ZM237.474 24.3636V36H236.134V24.3636H237.474ZM239.93 36V27.2727H241.226V28.6364H241.339C241.521 28.1705 241.815 27.8087 242.22 27.5511C242.625 27.2898 243.112 27.1591 243.68 27.1591C244.256 27.1591 244.735 27.2898 245.118 27.5511C245.504 27.8087 245.805 28.1705 246.021 28.6364H246.112C246.336 28.1856 246.671 27.8277 247.118 27.5625C247.565 27.2936 248.101 27.1591 248.726 27.1591C249.506 27.1591 250.144 27.4034 250.641 27.892C251.137 28.3769 251.385 29.1326 251.385 30.1591V36H250.044V30.1591C250.044 29.5152 249.868 29.0549 249.516 28.7784C249.163 28.5019 248.749 28.3636 248.271 28.3636C247.658 28.3636 247.182 28.5492 246.845 28.9205C246.508 29.2879 246.339 29.7538 246.339 30.3182V36H244.976V30.0227C244.976 29.5265 244.815 29.1269 244.493 28.8239C244.171 28.517 243.756 28.3636 243.249 28.3636C242.9 28.3636 242.574 28.4564 242.271 28.642C241.972 28.8277 241.73 29.0852 241.544 29.4148C241.362 29.7405 241.271 30.1174 241.271 30.5455V36H239.93ZM258.337 39.2727V27.2727H259.632V28.6591H259.791C259.89 28.5076 260.026 28.3144 260.2 28.0795C260.378 27.8409 260.632 27.6288 260.962 27.4432C261.295 27.2538 261.746 27.1591 262.314 27.1591C263.049 27.1591 263.696 27.3428 264.257 27.7102C264.818 28.0777 265.255 28.5985 265.57 29.2727C265.884 29.947 266.041 30.7424 266.041 31.6591C266.041 32.5833 265.884 33.3845 265.57 34.0625C265.255 34.7367 264.82 35.2595 264.263 35.6307C263.706 35.9981 263.064 36.1818 262.337 36.1818C261.776 36.1818 261.327 36.089 260.99 35.9034C260.653 35.714 260.393 35.5 260.212 35.2614C260.03 35.0189 259.89 34.8182 259.791 34.6591H259.678V39.2727H258.337ZM259.655 31.6364C259.655 32.2955 259.751 32.8769 259.945 33.3807C260.138 33.8807 260.42 34.2727 260.791 34.5568C261.162 34.8371 261.617 34.9773 262.155 34.9773C262.715 34.9773 263.183 34.8295 263.558 34.5341C263.937 34.2348 264.221 33.8333 264.411 33.3295C264.604 32.822 264.7 32.2576 264.7 31.6364C264.7 31.0227 264.606 30.4697 264.416 29.9773C264.231 29.4811 263.948 29.089 263.57 28.8011C263.195 28.5095 262.723 28.3636 262.155 28.3636C261.609 28.3636 261.151 28.5019 260.78 28.7784C260.409 29.0511 260.128 29.4337 259.939 29.9261C259.75 30.4148 259.655 30.9848 259.655 31.6364ZM271.746 36.1818C270.905 36.1818 270.179 35.9962 269.57 35.625C268.964 35.25 268.496 34.7273 268.166 34.0568C267.84 33.3826 267.678 32.5985 267.678 31.7045C267.678 30.8106 267.84 30.0227 268.166 29.3409C268.496 28.6553 268.954 28.1212 269.541 27.7386C270.132 27.3523 270.821 27.1591 271.609 27.1591C272.064 27.1591 272.513 27.2348 272.956 27.3864C273.399 27.5379 273.803 27.7841 274.166 28.125C274.53 28.4621 274.82 28.9091 275.036 29.4659C275.251 30.0227 275.359 30.7083 275.359 31.5227V32.0909H268.632V30.9318H273.996C273.996 30.4394 273.897 30 273.7 29.6136C273.507 29.2273 273.231 28.9223 272.871 28.6989C272.515 28.4754 272.094 28.3636 271.609 28.3636C271.075 28.3636 270.613 28.4962 270.223 28.7614C269.837 29.0227 269.539 29.3636 269.331 29.7841C269.123 30.2045 269.018 30.6553 269.018 31.1364V31.9091C269.018 32.5682 269.132 33.1269 269.359 33.5852C269.59 34.0398 269.911 34.3864 270.32 34.625C270.729 34.8598 271.204 34.9773 271.746 34.9773C272.098 34.9773 272.416 34.928 272.7 34.8295C272.988 34.7273 273.236 34.5758 273.445 34.375C273.653 34.1705 273.814 33.9167 273.928 33.6136L275.223 33.9773C275.087 34.4167 274.857 34.803 274.536 35.1364C274.214 35.4659 273.816 35.7235 273.342 35.9091C272.869 36.0909 272.337 36.1818 271.746 36.1818ZM280.945 36.1818C280.157 36.1818 279.465 35.9943 278.871 35.6193C278.28 35.2443 277.818 34.7197 277.484 34.0455C277.155 33.3712 276.99 32.5833 276.99 31.6818C276.99 30.7727 277.155 29.9792 277.484 29.3011C277.818 28.6231 278.28 28.0966 278.871 27.7216C279.465 27.3466 280.157 27.1591 280.945 27.1591C281.732 27.1591 282.422 27.3466 283.013 27.7216C283.607 28.0966 284.07 28.6231 284.399 29.3011C284.732 29.9792 284.899 30.7727 284.899 31.6818C284.899 32.5833 284.732 33.3712 284.399 34.0455C284.07 34.7197 283.607 35.2443 283.013 35.6193C282.422 35.9943 281.732 36.1818 280.945 36.1818ZM280.945 34.9773C281.543 34.9773 282.036 34.8239 282.422 34.517C282.808 34.2102 283.094 33.8068 283.28 33.3068C283.465 32.8068 283.558 32.2652 283.558 31.6818C283.558 31.0985 283.465 30.5549 283.28 30.0511C283.094 29.5473 282.808 29.1402 282.422 28.8295C282.036 28.5189 281.543 28.3636 280.945 28.3636C280.346 28.3636 279.854 28.5189 279.467 28.8295C279.081 29.1402 278.795 29.5473 278.609 30.0511C278.424 30.5549 278.331 31.0985 278.331 31.6818C278.331 32.2652 278.424 32.8068 278.609 33.3068C278.795 33.8068 279.081 34.2102 279.467 34.517C279.854 34.8239 280.346 34.9773 280.945 34.9773ZM286.946 39.2727V27.2727H288.241V28.6591H288.401C288.499 28.5076 288.635 28.3144 288.81 28.0795C288.988 27.8409 289.241 27.6288 289.571 27.4432C289.904 27.2538 290.355 27.1591 290.923 27.1591C291.658 27.1591 292.306 27.3428 292.866 27.7102C293.427 28.0777 293.865 28.5985 294.179 29.2727C294.493 29.947 294.651 30.7424 294.651 31.6591C294.651 32.5833 294.493 33.3845 294.179 34.0625C293.865 34.7367 293.429 35.2595 292.872 35.6307C292.315 35.9981 291.673 36.1818 290.946 36.1818C290.385 36.1818 289.937 36.089 289.599 35.9034C289.262 35.714 289.003 35.5 288.821 35.2614C288.639 35.0189 288.499 34.8182 288.401 34.6591H288.287V39.2727H286.946ZM288.264 31.6364C288.264 32.2955 288.361 32.8769 288.554 33.3807C288.747 33.8807 289.029 34.2727 289.401 34.5568C289.772 34.8371 290.226 34.9773 290.764 34.9773C291.325 34.9773 291.793 34.8295 292.168 34.5341C292.546 34.2348 292.83 33.8333 293.02 33.3295C293.213 32.822 293.31 32.2576 293.31 31.6364C293.31 31.0227 293.215 30.4697 293.026 29.9773C292.84 29.4811 292.558 29.089 292.179 28.8011C291.804 28.5095 291.332 28.3636 290.764 28.3636C290.219 28.3636 289.76 28.5019 289.389 28.7784C289.018 29.0511 288.738 29.4337 288.548 29.9261C288.359 30.4148 288.264 30.9848 288.264 31.6364ZM298.037 24.3636V36H296.696V24.3636H298.037ZM304.152 36.1818C303.311 36.1818 302.586 35.9962 301.976 35.625C301.37 35.25 300.902 34.7273 300.572 34.0568C300.247 33.3826 300.084 32.5985 300.084 31.7045C300.084 30.8106 300.247 30.0227 300.572 29.3409C300.902 28.6553 301.36 28.1212 301.947 27.7386C302.538 27.3523 303.228 27.1591 304.016 27.1591C304.47 27.1591 304.919 27.2348 305.362 27.3864C305.805 27.5379 306.209 27.7841 306.572 28.125C306.936 28.4621 307.226 28.9091 307.442 29.4659C307.658 30.0227 307.766 30.7083 307.766 31.5227V32.0909H301.038V30.9318H306.402C306.402 30.4394 306.304 30 306.107 29.6136C305.913 29.2273 305.637 28.9223 305.277 28.6989C304.921 28.4754 304.5 28.3636 304.016 28.3636C303.482 28.3636 303.019 28.4962 302.629 28.7614C302.243 29.0227 301.946 29.3636 301.737 29.7841C301.529 30.2045 301.425 30.6553 301.425 31.1364V31.9091C301.425 32.5682 301.538 33.1269 301.766 33.5852C301.997 34.0398 302.317 34.3864 302.726 34.625C303.135 34.8598 303.61 34.9773 304.152 34.9773C304.504 34.9773 304.822 34.928 305.107 34.8295C305.394 34.7273 305.643 34.5758 305.851 34.375C306.059 34.1705 306.22 33.9167 306.334 33.6136L307.629 33.9773C307.493 34.4167 307.264 34.803 306.942 35.1364C306.62 35.4659 306.222 35.7235 305.749 35.9091C305.275 36.0909 304.743 36.1818 304.152 36.1818ZM316.283 36L313.624 27.2727H315.033L316.919 33.9545H317.01L318.874 27.2727H320.305L322.146 33.9318H322.237L324.124 27.2727H325.533L322.874 36H321.555L319.646 29.2955H319.51L317.601 36H316.283ZM327.305 36V27.2727H328.646V36H327.305ZM327.987 25.8182C327.726 25.8182 327.5 25.7292 327.311 25.5511C327.125 25.3731 327.033 25.1591 327.033 24.9091C327.033 24.6591 327.125 24.4451 327.311 24.267C327.5 24.089 327.726 24 327.987 24C328.249 24 328.472 24.089 328.658 24.267C328.847 24.4451 328.942 24.6591 328.942 24.9091C328.942 25.1591 328.847 25.3731 328.658 25.5511C328.472 25.7292 328.249 25.8182 327.987 25.8182ZM334.898 27.2727V28.4091H330.375V27.2727H334.898ZM331.693 25.1818H333.034V33.5C333.034 33.8788 333.089 34.1629 333.199 34.3523C333.313 34.5379 333.456 34.6629 333.631 34.7273C333.809 34.7879 333.996 34.8182 334.193 34.8182C334.341 34.8182 334.462 34.8106 334.557 34.7955C334.652 34.7765 334.727 34.7614 334.784 34.75L335.057 35.9545C334.966 35.9886 334.839 36.0227 334.676 36.0568C334.513 36.0947 334.307 36.1136 334.057 36.1136C333.678 36.1136 333.307 36.0322 332.943 35.8693C332.583 35.7064 332.284 35.4583 332.045 35.125C331.811 34.7917 331.693 34.3712 331.693 33.8636V25.1818ZM338.443 30.75V36H337.102V24.3636H338.443V28.6364H338.557C338.761 28.1856 339.068 27.8277 339.477 27.5625C339.89 27.2936 340.439 27.1591 341.125 27.1591C341.72 27.1591 342.241 27.2784 342.688 27.517C343.134 27.7519 343.481 28.1136 343.727 28.6023C343.977 29.0871 344.102 29.7045 344.102 30.4545V36H342.761V30.5455C342.761 29.8523 342.581 29.3163 342.222 28.9375C341.866 28.5549 341.371 28.3636 340.739 28.3636C340.299 28.3636 339.905 28.4564 339.557 28.642C339.212 28.8277 338.939 29.0985 338.739 29.4545C338.542 29.8106 338.443 30.2424 338.443 30.75ZM353.624 36.2045C353.071 36.2045 352.569 36.1004 352.118 35.892C351.667 35.6799 351.309 35.375 351.044 34.9773C350.779 34.5758 350.646 34.0909 350.646 33.5227C350.646 33.0227 350.745 32.6174 350.942 32.3068C351.139 31.9924 351.402 31.7462 351.732 31.5682C352.061 31.3902 352.425 31.2576 352.822 31.1705C353.224 31.0795 353.627 31.0076 354.033 30.9545C354.563 30.8864 354.993 30.8352 355.322 30.8011C355.656 30.7633 355.898 30.7008 356.05 30.6136C356.205 30.5265 356.283 30.375 356.283 30.1591V30.1136C356.283 29.553 356.129 29.1174 355.822 28.8068C355.519 28.4962 355.059 28.3409 354.442 28.3409C353.802 28.3409 353.3 28.4811 352.936 28.7614C352.572 29.0417 352.317 29.3409 352.169 29.6591L350.896 29.2045C351.124 28.6742 351.427 28.2614 351.805 27.9659C352.188 27.6667 352.605 27.4583 353.055 27.3409C353.51 27.2197 353.957 27.1591 354.396 27.1591C354.677 27.1591 354.999 27.1932 355.362 27.2614C355.73 27.3258 356.084 27.4602 356.425 27.6648C356.769 27.8693 357.055 28.178 357.283 28.5909C357.51 29.0038 357.624 29.5568 357.624 30.25V36H356.283V34.8182H356.214C356.124 35.0076 355.972 35.2102 355.76 35.4261C355.548 35.642 355.266 35.8258 354.913 35.9773C354.561 36.1288 354.131 36.2045 353.624 36.2045ZM353.828 35C354.358 35 354.805 34.8958 355.169 34.6875C355.536 34.4792 355.813 34.2102 355.999 33.8807C356.188 33.5511 356.283 33.2045 356.283 32.8409V31.6136C356.226 31.6818 356.101 31.7443 355.908 31.8011C355.718 31.8542 355.499 31.9015 355.249 31.9432C355.002 31.9811 354.762 32.0152 354.527 32.0455C354.296 32.072 354.108 32.0947 353.964 32.1136C353.616 32.1591 353.29 32.233 352.987 32.3352C352.688 32.4337 352.446 32.5833 352.26 32.7841C352.078 32.9811 351.987 33.25 351.987 33.5909C351.987 34.0568 352.16 34.4091 352.504 34.6477C352.853 34.8826 353.294 35 353.828 35ZM368.366 27.2727V28.4091H363.844V27.2727H368.366ZM365.162 25.1818H366.503V33.5C366.503 33.8788 366.558 34.1629 366.668 34.3523C366.781 34.5379 366.925 34.6629 367.099 34.7273C367.277 34.7879 367.465 34.8182 367.662 34.8182C367.81 34.8182 367.931 34.8106 368.026 34.7955C368.12 34.7765 368.196 34.7614 368.253 34.75L368.526 35.9545C368.435 35.9886 368.308 36.0227 368.145 36.0568C367.982 36.0947 367.776 36.1136 367.526 36.1136C367.147 36.1136 366.776 36.0322 366.412 35.8693C366.052 35.7064 365.753 35.4583 365.514 35.125C365.279 34.7917 365.162 34.3712 365.162 33.8636V25.1818ZM373.835 36.1818C373.047 36.1818 372.356 35.9943 371.761 35.6193C371.17 35.2443 370.708 34.7197 370.375 34.0455C370.045 33.3712 369.881 32.5833 369.881 31.6818C369.881 30.7727 370.045 29.9792 370.375 29.3011C370.708 28.6231 371.17 28.0966 371.761 27.7216C372.356 27.3466 373.047 27.1591 373.835 27.1591C374.623 27.1591 375.313 27.3466 375.903 27.7216C376.498 28.0966 376.96 28.6231 377.29 29.3011C377.623 29.9792 377.79 30.7727 377.79 31.6818C377.79 32.5833 377.623 33.3712 377.29 34.0455C376.96 34.7197 376.498 35.2443 375.903 35.6193C375.313 35.9943 374.623 36.1818 373.835 36.1818ZM373.835 34.9773C374.434 34.9773 374.926 34.8239 375.312 34.517C375.699 34.2102 375.985 33.8068 376.17 33.3068C376.356 32.8068 376.449 32.2652 376.449 31.6818C376.449 31.0985 376.356 30.5549 376.17 30.0511C375.985 29.5473 375.699 29.1402 375.312 28.8295C374.926 28.5189 374.434 28.3636 373.835 28.3636C373.237 28.3636 372.744 28.5189 372.358 28.8295C371.972 29.1402 371.686 29.5473 371.5 30.0511C371.314 30.5549 371.222 31.0985 371.222 31.6818C371.222 32.2652 371.314 32.8068 371.5 33.3068C371.686 33.8068 371.972 34.2102 372.358 34.517C372.744 34.8239 373.237 34.9773 373.835 34.9773ZM381.178 30.75V36H379.837V27.2727H381.132V28.6364H381.246C381.45 28.1932 381.761 27.8371 382.178 27.5682C382.594 27.2955 383.132 27.1591 383.791 27.1591C384.382 27.1591 384.899 27.2803 385.342 27.5227C385.786 27.7614 386.13 28.125 386.376 28.6136C386.623 29.0985 386.746 29.7121 386.746 30.4545V36H385.405V30.5455C385.405 29.8598 385.227 29.3258 384.871 28.9432C384.515 28.5568 384.026 28.3636 383.405 28.3636C382.977 28.3636 382.594 28.4564 382.257 28.642C381.924 28.8277 381.661 29.0985 381.467 29.4545C381.274 29.8106 381.178 30.2424 381.178 30.75ZM397.241 36.1818C396.454 36.1818 395.762 35.9943 395.168 35.6193C394.577 35.2443 394.115 34.7197 393.781 34.0455C393.452 33.3712 393.287 32.5833 393.287 31.6818C393.287 30.7727 393.452 29.9792 393.781 29.3011C394.115 28.6231 394.577 28.0966 395.168 27.7216C395.762 27.3466 396.454 27.1591 397.241 27.1591C398.029 27.1591 398.719 27.3466 399.31 27.7216C399.904 28.0966 400.366 28.6231 400.696 29.3011C401.029 29.9792 401.196 30.7727 401.196 31.6818C401.196 32.5833 401.029 33.3712 400.696 34.0455C400.366 34.7197 399.904 35.2443 399.31 35.6193C398.719 35.9943 398.029 36.1818 397.241 36.1818ZM397.241 34.9773C397.84 34.9773 398.332 34.8239 398.719 34.517C399.105 34.2102 399.391 33.8068 399.577 33.3068C399.762 32.8068 399.855 32.2652 399.855 31.6818C399.855 31.0985 399.762 30.5549 399.577 30.0511C399.391 29.5473 399.105 29.1402 398.719 28.8295C398.332 28.5189 397.84 28.3636 397.241 28.3636C396.643 28.3636 396.151 28.5189 395.764 28.8295C395.378 29.1402 395.092 29.5473 394.906 30.0511C394.721 30.5549 394.628 31.0985 394.628 31.6818C394.628 32.2652 394.721 32.8068 394.906 33.3068C395.092 33.8068 395.378 34.2102 395.764 34.517C396.151 34.8239 396.643 34.9773 397.241 34.9773ZM407.129 27.2727V28.4091H402.425V27.2727H407.129ZM403.834 36V26.0682C403.834 25.5682 403.951 25.1515 404.186 24.8182C404.421 24.4848 404.726 24.2348 405.101 24.0682C405.476 23.9015 405.872 23.8182 406.288 23.8182C406.618 23.8182 406.887 23.8447 407.095 23.8977C407.304 23.9508 407.459 24 407.561 24.0455L407.175 25.2045C407.107 25.1818 407.012 25.1534 406.891 25.1193C406.773 25.0852 406.618 25.0682 406.425 25.0682C405.982 25.0682 405.661 25.1799 405.464 25.4034C405.271 25.6269 405.175 25.9545 405.175 26.3864V36H403.834ZM413.509 36V27.2727H414.849V36H413.509ZM414.19 25.8182C413.929 25.8182 413.704 25.7292 413.514 25.5511C413.329 25.3731 413.236 25.1591 413.236 24.9091C413.236 24.6591 413.329 24.4451 413.514 24.267C413.704 24.089 413.929 24 414.19 24C414.452 24 414.675 24.089 414.861 24.267C415.05 24.4451 415.145 24.6591 415.145 24.9091C415.145 25.1591 415.05 25.3731 414.861 25.5511C414.675 25.7292 414.452 25.8182 414.19 25.8182ZM418.646 30.75V36H417.305V27.2727H418.601V28.6364H418.714C418.919 28.1932 419.23 27.8371 419.646 27.5682C420.063 27.2955 420.601 27.1591 421.26 27.1591C421.851 27.1591 422.368 27.2803 422.811 27.5227C423.254 27.7614 423.599 28.125 423.845 28.6136C424.091 29.0985 424.214 29.7121 424.214 30.4545V36H422.874V30.5455C422.874 29.8598 422.696 29.3258 422.339 28.9432C421.983 28.5568 421.495 28.3636 420.874 28.3636C420.446 28.3636 420.063 28.4564 419.726 28.642C419.393 28.8277 419.129 29.0985 418.936 29.4545C418.743 29.8106 418.646 30.2424 418.646 30.75ZM430.551 27.2727V28.4091H425.847V27.2727H430.551ZM427.256 36V26.0682C427.256 25.5682 427.373 25.1515 427.608 24.8182C427.843 24.4848 428.148 24.2348 428.523 24.0682C428.898 23.9015 429.294 23.8182 429.71 23.8182C430.04 23.8182 430.309 23.8447 430.517 23.8977C430.725 23.9508 430.881 24 430.983 24.0455L430.597 25.2045C430.528 25.1818 430.434 25.1534 430.312 25.1193C430.195 25.0852 430.04 25.0682 429.847 25.0682C429.403 25.0682 429.083 25.1799 428.886 25.4034C428.693 25.6269 428.597 25.9545 428.597 26.3864V36H427.256ZM435.616 36.1818C434.829 36.1818 434.137 35.9943 433.543 35.6193C432.952 35.2443 432.49 34.7197 432.156 34.0455C431.827 33.3712 431.662 32.5833 431.662 31.6818C431.662 30.7727 431.827 29.9792 432.156 29.3011C432.49 28.6231 432.952 28.0966 433.543 27.7216C434.137 27.3466 434.829 27.1591 435.616 27.1591C436.404 27.1591 437.094 27.3466 437.685 27.7216C438.279 28.0966 438.741 28.6231 439.071 29.3011C439.404 29.9792 439.571 30.7727 439.571 31.6818C439.571 32.5833 439.404 33.3712 439.071 34.0455C438.741 34.7197 438.279 35.2443 437.685 35.6193C437.094 35.9943 436.404 36.1818 435.616 36.1818ZM435.616 34.9773C436.215 34.9773 436.707 34.8239 437.094 34.517C437.48 34.2102 437.766 33.8068 437.952 33.3068C438.137 32.8068 438.23 32.2652 438.23 31.6818C438.23 31.0985 438.137 30.5549 437.952 30.0511C437.766 29.5473 437.48 29.1402 437.094 28.8295C436.707 28.5189 436.215 28.3636 435.616 28.3636C435.018 28.3636 434.526 28.5189 434.139 28.8295C433.753 29.1402 433.467 29.5473 433.281 30.0511C433.096 30.5549 433.003 31.0985 433.003 31.6818C433.003 32.2652 433.096 32.8068 433.281 33.3068C433.467 33.8068 433.753 34.2102 434.139 34.517C434.526 34.8239 435.018 34.9773 435.616 34.9773ZM441.618 36V27.2727H442.913V28.5909H443.004C443.163 28.1591 443.451 27.8087 443.868 27.5398C444.285 27.2708 444.754 27.1364 445.277 27.1364C445.375 27.1364 445.499 27.1383 445.646 27.142C445.794 27.1458 445.906 27.1515 445.982 27.1591V28.5227C445.936 28.5114 445.832 28.4943 445.669 28.4716C445.51 28.4451 445.341 28.4318 445.163 28.4318C444.739 28.4318 444.36 28.5208 444.027 28.6989C443.697 28.8731 443.436 29.1155 443.243 29.4261C443.054 29.733 442.959 30.0833 442.959 30.4773V36H441.618ZM447.571 36V27.2727H448.866V28.6364H448.98C449.162 28.1705 449.455 27.8087 449.861 27.5511C450.266 27.2898 450.753 27.1591 451.321 27.1591C451.897 27.1591 452.376 27.2898 452.759 27.5511C453.145 27.8087 453.446 28.1705 453.662 28.6364H453.753C453.976 28.1856 454.312 27.8277 454.759 27.5625C455.205 27.2936 455.741 27.1591 456.366 27.1591C457.147 27.1591 457.785 27.4034 458.281 27.892C458.777 28.3769 459.026 29.1326 459.026 30.1591V36H457.685V30.1591C457.685 29.5152 457.509 29.0549 457.156 28.7784C456.804 28.5019 456.389 28.3636 455.912 28.3636C455.298 28.3636 454.823 28.5492 454.486 28.9205C454.149 29.2879 453.98 29.7538 453.98 30.3182V36H452.616V30.0227C452.616 29.5265 452.455 29.1269 452.134 28.8239C451.812 28.517 451.397 28.3636 450.889 28.3636C450.541 28.3636 450.215 28.4564 449.912 28.642C449.613 28.8277 449.37 29.0852 449.185 29.4148C449.003 29.7405 448.912 30.1174 448.912 30.5455V36H447.571ZM464.045 36.2045C463.492 36.2045 462.991 36.1004 462.54 35.892C462.089 35.6799 461.731 35.375 461.466 34.9773C461.201 34.5758 461.068 34.0909 461.068 33.5227C461.068 33.0227 461.167 32.6174 461.364 32.3068C461.561 31.9924 461.824 31.7462 462.153 31.5682C462.483 31.3902 462.847 31.2576 463.244 31.1705C463.646 31.0795 464.049 31.0076 464.455 30.9545C464.985 30.8864 465.415 30.8352 465.744 30.8011C466.078 30.7633 466.32 30.7008 466.472 30.6136C466.627 30.5265 466.705 30.375 466.705 30.1591V30.1136C466.705 29.553 466.551 29.1174 466.244 28.8068C465.941 28.4962 465.481 28.3409 464.864 28.3409C464.223 28.3409 463.722 28.4811 463.358 28.7614C462.994 29.0417 462.739 29.3409 462.591 29.6591L461.318 29.2045C461.545 28.6742 461.848 28.2614 462.227 27.9659C462.61 27.6667 463.027 27.4583 463.477 27.3409C463.932 27.2197 464.379 27.1591 464.818 27.1591C465.098 27.1591 465.42 27.1932 465.784 27.2614C466.152 27.3258 466.506 27.4602 466.847 27.6648C467.191 27.8693 467.477 28.178 467.705 28.5909C467.932 29.0038 468.045 29.5568 468.045 30.25V36H466.705V34.8182H466.636C466.545 35.0076 466.394 35.2102 466.182 35.4261C465.97 35.642 465.688 35.8258 465.335 35.9773C464.983 36.1288 464.553 36.2045 464.045 36.2045ZM464.25 35C464.78 35 465.227 34.8958 465.591 34.6875C465.958 34.4792 466.235 34.2102 466.42 33.8807C466.61 33.5511 466.705 33.2045 466.705 32.8409V31.6136C466.648 31.6818 466.523 31.7443 466.33 31.8011C466.14 31.8542 465.92 31.9015 465.67 31.9432C465.424 31.9811 465.184 32.0152 464.949 32.0455C464.718 32.072 464.53 32.0947 464.386 32.1136C464.038 32.1591 463.712 32.233 463.409 32.3352C463.11 32.4337 462.867 32.5833 462.682 32.7841C462.5 32.9811 462.409 33.25 462.409 33.5909C462.409 34.0568 462.581 34.4091 462.926 34.6477C463.275 34.8826 463.716 35 464.25 35ZM474.288 27.2727V28.4091H469.766V27.2727H474.288ZM471.084 25.1818H472.425V33.5C472.425 33.8788 472.48 34.1629 472.589 34.3523C472.703 34.5379 472.847 34.6629 473.021 34.7273C473.199 34.7879 473.387 34.8182 473.584 34.8182C473.732 34.8182 473.853 34.8106 473.947 34.7955C474.042 34.7765 474.118 34.7614 474.175 34.75L474.447 35.9545C474.357 35.9886 474.23 36.0227 474.067 36.0568C473.904 36.0947 473.697 36.1136 473.447 36.1136C473.069 36.1136 472.697 36.0322 472.334 35.8693C471.974 35.7064 471.675 35.4583 471.436 35.125C471.201 34.7917 471.084 34.3712 471.084 33.8636V25.1818ZM476.305 36V27.2727H477.646V36H476.305ZM476.987 25.8182C476.726 25.8182 476.5 25.7292 476.311 25.5511C476.125 25.3731 476.033 25.1591 476.033 24.9091C476.033 24.6591 476.125 24.4451 476.311 24.267C476.5 24.089 476.726 24 476.987 24C477.249 24 477.472 24.089 477.658 24.267C477.847 24.4451 477.942 24.6591 477.942 24.9091C477.942 25.1591 477.847 25.3731 477.658 25.5511C477.472 25.7292 477.249 25.8182 476.987 25.8182ZM483.648 36.1818C482.86 36.1818 482.169 35.9943 481.574 35.6193C480.983 35.2443 480.521 34.7197 480.188 34.0455C479.858 33.3712 479.693 32.5833 479.693 31.6818C479.693 30.7727 479.858 29.9792 480.188 29.3011C480.521 28.6231 480.983 28.0966 481.574 27.7216C482.169 27.3466 482.86 27.1591 483.648 27.1591C484.436 27.1591 485.125 27.3466 485.716 27.7216C486.311 28.0966 486.773 28.6231 487.102 29.3011C487.436 29.9792 487.602 30.7727 487.602 31.6818C487.602 32.5833 487.436 33.3712 487.102 34.0455C486.773 34.7197 486.311 35.2443 485.716 35.6193C485.125 35.9943 484.436 36.1818 483.648 36.1818ZM483.648 34.9773C484.246 34.9773 484.739 34.8239 485.125 34.517C485.511 34.2102 485.797 33.8068 485.983 33.3068C486.169 32.8068 486.261 32.2652 486.261 31.6818C486.261 31.0985 486.169 30.5549 485.983 30.0511C485.797 29.5473 485.511 29.1402 485.125 28.8295C484.739 28.5189 484.246 28.3636 483.648 28.3636C483.049 28.3636 482.557 28.5189 482.17 28.8295C481.784 29.1402 481.498 29.5473 481.312 30.0511C481.127 30.5549 481.034 31.0985 481.034 31.6818C481.034 32.2652 481.127 32.8068 481.312 33.3068C481.498 33.8068 481.784 34.2102 482.17 34.517C482.557 34.8239 483.049 34.9773 483.648 34.9773ZM490.99 30.75V36H489.649V27.2727H490.945V28.6364H491.058C491.263 28.1932 491.573 27.8371 491.99 27.5682C492.407 27.2955 492.945 27.1591 493.604 27.1591C494.195 27.1591 494.712 27.2803 495.155 27.5227C495.598 27.7614 495.943 28.125 496.189 28.6136C496.435 29.0985 496.558 29.7121 496.558 30.4545V36H495.217V30.5455C495.217 29.8598 495.039 29.3258 494.683 28.9432C494.327 28.5568 493.839 28.3636 493.217 28.3636C492.789 28.3636 492.407 28.4564 492.07 28.642C491.736 28.8277 491.473 29.0985 491.28 29.4545C491.087 29.8106 490.99 30.2424 490.99 30.75ZM513.781 30.3864V31.6364H497.781V30.3864H513.781ZM518.895 27.2727V28.4091H514.19V27.2727H518.895ZM515.599 36V26.0682C515.599 25.5682 515.717 25.1515 515.952 24.8182C516.187 24.4848 516.491 24.2348 516.866 24.0682C517.241 23.9015 517.637 23.8182 518.054 23.8182C518.384 23.8182 518.652 23.8447 518.861 23.8977C519.069 23.9508 519.224 24 519.327 24.0455L518.94 25.2045C518.872 25.1818 518.777 25.1534 518.656 25.1193C518.539 25.0852 518.384 25.0682 518.19 25.0682C517.747 25.0682 517.427 25.1799 517.23 25.4034C517.037 25.6269 516.94 25.9545 516.94 26.3864V36H515.599ZM523.96 36.1818C523.172 36.1818 522.481 35.9943 521.886 35.6193C521.295 35.2443 520.833 34.7197 520.5 34.0455C520.17 33.3712 520.006 32.5833 520.006 31.6818C520.006 30.7727 520.17 29.9792 520.5 29.3011C520.833 28.6231 521.295 28.0966 521.886 27.7216C522.481 27.3466 523.172 27.1591 523.96 27.1591C524.748 27.1591 525.438 27.3466 526.028 27.7216C526.623 28.0966 527.085 28.6231 527.415 29.3011C527.748 29.9792 527.915 30.7727 527.915 31.6818C527.915 32.5833 527.748 33.3712 527.415 34.0455C527.085 34.7197 526.623 35.2443 526.028 35.6193C525.438 35.9943 524.748 36.1818 523.96 36.1818ZM523.96 34.9773C524.559 34.9773 525.051 34.8239 525.438 34.517C525.824 34.2102 526.11 33.8068 526.295 33.3068C526.481 32.8068 526.574 32.2652 526.574 31.6818C526.574 31.0985 526.481 30.5549 526.295 30.0511C526.11 29.5473 525.824 29.1402 525.438 28.8295C525.051 28.5189 524.559 28.3636 523.96 28.3636C523.362 28.3636 522.869 28.5189 522.483 28.8295C522.097 29.1402 521.811 29.5473 521.625 30.0511C521.439 30.5549 521.347 31.0985 521.347 31.6818C521.347 32.2652 521.439 32.8068 521.625 33.3068C521.811 33.8068 522.097 34.2102 522.483 34.517C522.869 34.8239 523.362 34.9773 523.96 34.9773ZM533.507 36.1818C532.689 36.1818 531.984 35.9886 531.393 35.6023C530.803 35.2159 530.348 34.6837 530.03 34.0057C529.712 33.3277 529.553 32.553 529.553 31.6818C529.553 30.7955 529.715 30.0133 530.041 29.3352C530.371 28.6534 530.829 28.1212 531.416 27.7386C532.007 27.3523 532.696 27.1591 533.484 27.1591C534.098 27.1591 534.651 27.2727 535.143 27.5C535.636 27.7273 536.039 28.0455 536.354 28.4545C536.668 28.8636 536.863 29.3409 536.939 29.8864H535.598C535.496 29.4886 535.268 29.1364 534.916 28.8295C534.568 28.5189 534.098 28.3636 533.507 28.3636C532.984 28.3636 532.526 28.5 532.132 28.7727C531.742 29.0417 531.437 29.4223 531.217 29.9148C531.001 30.4034 530.893 30.9773 530.893 31.6364C530.893 32.3106 531 32.8977 531.212 33.3977C531.428 33.8977 531.731 34.286 532.121 34.5625C532.515 34.839 532.977 34.9773 533.507 34.9773C533.856 34.9773 534.172 34.9167 534.456 34.7955C534.74 34.6742 534.981 34.5 535.178 34.2727C535.375 34.0455 535.515 33.7727 535.598 33.4545H536.939C536.863 33.9697 536.676 34.4337 536.376 34.8466C536.081 35.2557 535.689 35.5814 535.2 35.8239C534.715 36.0625 534.151 36.1818 533.507 36.1818ZM544.399 32.4318V27.2727H545.74V36H544.399V34.5227H544.308C544.104 34.9659 543.786 35.3428 543.354 35.6534C542.922 35.9602 542.376 36.1136 541.717 36.1136C541.172 36.1136 540.687 35.9943 540.263 35.7557C539.839 35.5133 539.505 35.1496 539.263 34.6648C539.02 34.1761 538.899 33.5606 538.899 32.8182V27.2727H540.24V32.7273C540.24 33.3636 540.418 33.8712 540.774 34.25C541.134 34.6288 541.592 34.8182 542.149 34.8182C542.482 34.8182 542.821 34.733 543.166 34.5625C543.515 34.392 543.806 34.1307 544.041 33.7784C544.28 33.4261 544.399 32.9773 544.399 32.4318ZM554.378 29.2273L553.173 29.5682C553.098 29.3674 552.986 29.1723 552.838 28.983C552.694 28.7898 552.497 28.6307 552.247 28.5057C551.997 28.3807 551.677 28.3182 551.287 28.3182C550.753 28.3182 550.308 28.4413 549.952 28.6875C549.599 28.9299 549.423 29.2386 549.423 29.6136C549.423 29.947 549.545 30.2102 549.787 30.4034C550.029 30.5966 550.408 30.7576 550.923 30.8864L552.219 31.2045C552.999 31.3939 553.58 31.6837 553.963 32.0739C554.346 32.4602 554.537 32.9583 554.537 33.5682C554.537 34.0682 554.393 34.5152 554.105 34.9091C553.821 35.303 553.423 35.6136 552.912 35.8409C552.401 36.0682 551.806 36.1818 551.128 36.1818C550.238 36.1818 549.501 35.9886 548.918 35.6023C548.334 35.2159 547.965 34.6515 547.81 33.9091L549.082 33.5909C549.204 34.0606 549.433 34.4129 549.77 34.6477C550.111 34.8826 550.556 35 551.105 35C551.73 35 552.226 34.8674 552.594 34.6023C552.965 34.3333 553.151 34.0114 553.151 33.6364C553.151 33.3333 553.045 33.0795 552.832 32.875C552.62 32.6667 552.295 32.5114 551.855 32.4091L550.401 32.0682C549.601 31.8788 549.014 31.5852 548.639 31.1875C548.268 30.786 548.082 30.2841 548.082 29.6818C548.082 29.1894 548.221 28.7538 548.497 28.375C548.777 27.9962 549.158 27.6989 549.639 27.483C550.124 27.267 550.673 27.1591 551.287 27.1591C552.151 27.1591 552.829 27.3485 553.321 27.7273C553.817 28.1061 554.17 28.6061 554.378 29.2273ZM49.7727 59.1818C48.9848 59.1818 48.2936 58.9943 47.6989 58.6193C47.108 58.2443 46.6458 57.7197 46.3125 57.0455C45.983 56.3712 45.8182 55.5833 45.8182 54.6818C45.8182 53.7727 45.983 52.9792 46.3125 52.3011C46.6458 51.6231 47.108 51.0966 47.6989 50.7216C48.2936 50.3466 48.9848 50.1591 49.7727 50.1591C50.5606 50.1591 51.25 50.3466 51.8409 50.7216C52.4356 51.0966 52.8977 51.6231 53.2273 52.3011C53.5606 52.9792 53.7273 53.7727 53.7273 54.6818C53.7273 55.5833 53.5606 56.3712 53.2273 57.0455C52.8977 57.7197 52.4356 58.2443 51.8409 58.6193C51.25 58.9943 50.5606 59.1818 49.7727 59.1818ZM49.7727 57.9773C50.3712 57.9773 50.8636 57.8239 51.25 57.517C51.6364 57.2102 51.9223 56.8068 52.108 56.3068C52.2936 55.8068 52.3864 55.2652 52.3864 54.6818C52.3864 54.0985 52.2936 53.5549 52.108 53.0511C51.9223 52.5473 51.6364 52.1402 51.25 51.8295C50.8636 51.5189 50.3712 51.3636 49.7727 51.3636C49.1742 51.3636 48.6818 51.5189 48.2955 51.8295C47.9091 52.1402 47.6231 52.5473 47.4375 53.0511C47.2519 53.5549 47.1591 54.0985 47.1591 54.6818C47.1591 55.2652 47.2519 55.8068 47.4375 56.3068C47.6231 56.8068 47.9091 57.2102 48.2955 57.517C48.6818 57.8239 49.1742 57.9773 49.7727 57.9773ZM57.1151 53.75V59H55.7741V50.2727H57.0696V51.6364H57.1832C57.3878 51.1932 57.6984 50.8371 58.1151 50.5682C58.5317 50.2955 59.0696 50.1591 59.7287 50.1591C60.3196 50.1591 60.8366 50.2803 61.2798 50.5227C61.723 50.7614 62.0677 51.125 62.3139 51.6136C62.5601 52.0985 62.6832 52.7121 62.6832 53.4545V59H61.3423V53.5455C61.3423 52.8598 61.1643 52.3258 60.8082 51.9432C60.4522 51.5568 59.9635 51.3636 59.3423 51.3636C58.9143 51.3636 58.5317 51.4564 58.1946 51.642C57.8613 51.8277 57.598 52.0985 57.4048 52.4545C57.2116 52.8106 57.1151 53.2424 57.1151 53.75ZM71.4403 59L68.8722 50.2727H70.6278L72.3381 56.6818H72.4233L74.1392 50.2727H75.8949L77.5994 56.6534H77.6847L79.3835 50.2727H81.1392L78.5767 59H76.8438L75.071 52.6989H74.9403L73.1676 59H71.4403ZM84.4503 53.8182V59H82.7514V47.3636H84.4276V51.6932H84.5355C84.7401 51.2235 85.0526 50.8504 85.473 50.5739C85.8935 50.2973 86.4427 50.1591 87.1207 50.1591C87.7192 50.1591 88.242 50.2822 88.6889 50.5284C89.1397 50.7746 89.4882 51.142 89.7344 51.6307C89.9844 52.1155 90.1094 52.7216 90.1094 53.4489V59H88.4105V53.6534C88.4105 53.0133 88.2457 52.517 87.9162 52.1648C87.5866 51.8087 87.1283 51.6307 86.5412 51.6307C86.1397 51.6307 85.7798 51.7159 85.4616 51.8864C85.1473 52.0568 84.8991 52.3068 84.7173 52.6364C84.5393 52.9621 84.4503 53.3561 84.4503 53.8182ZM94.9162 59.1932C94.3632 59.1932 93.8632 59.0909 93.4162 58.8864C92.9692 58.678 92.6151 58.3769 92.3537 57.983C92.0961 57.589 91.9673 57.1061 91.9673 56.5341C91.9673 56.0417 92.062 55.6364 92.2514 55.3182C92.4408 55 92.6965 54.7481 93.0185 54.5625C93.3404 54.3769 93.7003 54.2367 94.098 54.142C94.4957 54.0473 94.901 53.9754 95.3139 53.9261C95.8366 53.8655 96.2609 53.8163 96.5866 53.7784C96.9124 53.7367 97.1491 53.6705 97.2969 53.5795C97.4446 53.4886 97.5185 53.3409 97.5185 53.1364V53.0966C97.5185 52.6004 97.3783 52.2159 97.098 51.9432C96.8215 51.6705 96.4086 51.5341 95.8594 51.5341C95.2874 51.5341 94.8366 51.661 94.5071 51.9148C94.1813 52.1648 93.956 52.4432 93.831 52.75L92.2344 52.3864C92.4238 51.8561 92.7003 51.428 93.0639 51.1023C93.4313 50.7727 93.8537 50.5341 94.331 50.3864C94.8082 50.2348 95.3101 50.1591 95.8366 50.1591C96.1851 50.1591 96.5545 50.2008 96.9446 50.2841C97.3385 50.3636 97.706 50.5114 98.0469 50.7273C98.3916 50.9432 98.6738 51.2519 98.8935 51.6534C99.1132 52.0511 99.223 52.5682 99.223 53.2045V59H97.5639V57.8068H97.4957C97.3859 58.0265 97.2211 58.2424 97.0014 58.4545C96.7817 58.6667 96.4995 58.8428 96.1548 58.983C95.8101 59.1231 95.3973 59.1932 94.9162 59.1932ZM95.2855 57.8295C95.7552 57.8295 96.1567 57.7367 96.4901 57.5511C96.8272 57.3655 97.0829 57.1231 97.2571 56.8239C97.4351 56.5208 97.5241 56.197 97.5241 55.8523V54.7273C97.4635 54.7879 97.3461 54.8447 97.1719 54.8977C97.0014 54.947 96.8063 54.9905 96.5866 55.0284C96.367 55.0625 96.1529 55.0947 95.9446 55.125C95.7363 55.1515 95.562 55.1742 95.4219 55.1932C95.0923 55.2348 94.7912 55.3049 94.5185 55.4034C94.2495 55.5019 94.0336 55.6439 93.8707 55.8295C93.7116 56.0114 93.6321 56.2538 93.6321 56.5568C93.6321 56.9773 93.7874 57.2955 94.098 57.5114C94.4086 57.7235 94.8045 57.8295 95.2855 57.8295ZM105.56 50.2727V51.6364H100.793V50.2727H105.56ZM102.071 48.1818H103.77V56.4375C103.77 56.767 103.819 57.0152 103.918 57.1818C104.016 57.3447 104.143 57.4564 104.298 57.517C104.457 57.5739 104.63 57.6023 104.815 57.6023C104.952 57.6023 105.071 57.5928 105.173 57.5739C105.276 57.5549 105.355 57.5398 105.412 57.5284L105.719 58.9318C105.62 58.9697 105.48 59.0076 105.298 59.0455C105.116 59.0871 104.889 59.1098 104.616 59.1136C104.17 59.1212 103.753 59.0417 103.366 58.875C102.98 58.7083 102.668 58.4508 102.429 58.1023C102.19 57.7538 102.071 57.3163 102.071 56.7898V48.1818ZM111.673 59V50.2727H113.304V51.6932H113.412C113.594 51.2121 113.891 50.8371 114.304 50.5682C114.717 50.2955 115.211 50.1591 115.787 50.1591C116.37 50.1591 116.859 50.2955 117.253 50.5682C117.651 50.8409 117.944 51.2159 118.134 51.6932H118.224C118.433 51.2273 118.764 50.8561 119.219 50.5795C119.673 50.2992 120.215 50.1591 120.844 50.1591C121.635 50.1591 122.281 50.4072 122.781 50.9034C123.285 51.3996 123.537 52.1477 123.537 53.1477V59H121.838V53.3068C121.838 52.7159 121.677 52.2879 121.355 52.0227C121.033 51.7576 120.649 51.625 120.202 51.625C119.649 51.625 119.219 51.7955 118.912 52.1364C118.605 52.4735 118.452 52.9072 118.452 53.4375V59H116.759V53.1989C116.759 52.7254 116.611 52.3447 116.315 52.0568C116.02 51.7689 115.635 51.625 115.162 51.625C114.84 51.625 114.543 51.7102 114.27 51.8807C114.001 52.0473 113.783 52.2803 113.616 52.5795C113.454 52.8788 113.372 53.2254 113.372 53.6193V59H111.673ZM128.354 59.1932C127.801 59.1932 127.301 59.0909 126.854 58.8864C126.407 58.678 126.053 58.3769 125.791 57.983C125.534 57.589 125.405 57.1061 125.405 56.5341C125.405 56.0417 125.5 55.6364 125.689 55.3182C125.878 55 126.134 54.7481 126.456 54.5625C126.778 54.3769 127.138 54.2367 127.536 54.142C127.933 54.0473 128.339 53.9754 128.751 53.9261C129.274 53.8655 129.698 53.8163 130.024 53.7784C130.35 53.7367 130.587 53.6705 130.734 53.5795C130.882 53.4886 130.956 53.3409 130.956 53.1364V53.0966C130.956 52.6004 130.816 52.2159 130.536 51.9432C130.259 51.6705 129.846 51.5341 129.297 51.5341C128.725 51.5341 128.274 51.661 127.945 51.9148C127.619 52.1648 127.393 52.4432 127.268 52.75L125.672 52.3864C125.861 51.8561 126.138 51.428 126.501 51.1023C126.869 50.7727 127.291 50.5341 127.768 50.3864C128.246 50.2348 128.748 50.1591 129.274 50.1591C129.623 50.1591 129.992 50.2008 130.382 50.2841C130.776 50.3636 131.143 50.5114 131.484 50.7273C131.829 50.9432 132.111 51.2519 132.331 51.6534C132.551 52.0511 132.661 52.5682 132.661 53.2045V59H131.001V57.8068H130.933C130.823 58.0265 130.659 58.2424 130.439 58.4545C130.219 58.6667 129.937 58.8428 129.592 58.983C129.248 59.1231 128.835 59.1932 128.354 59.1932ZM128.723 57.8295C129.193 57.8295 129.594 57.7367 129.928 57.5511C130.265 57.3655 130.52 57.1231 130.695 56.8239C130.873 56.5208 130.962 56.197 130.962 55.8523V54.7273C130.901 54.7879 130.784 54.8447 130.609 54.8977C130.439 54.947 130.244 54.9905 130.024 55.0284C129.804 55.0625 129.59 55.0947 129.382 55.125C129.174 55.1515 129 55.1742 128.859 55.1932C128.53 55.2348 128.229 55.3049 127.956 55.4034C127.687 55.5019 127.471 55.6439 127.308 55.8295C127.149 56.0114 127.07 56.2538 127.07 56.5568C127.07 56.9773 127.225 57.2955 127.536 57.5114C127.846 57.7235 128.242 57.8295 128.723 57.8295ZM136.486 56.0398L136.474 53.9659H136.77L140.247 50.2727H142.281L138.315 54.4773H138.048L136.486 56.0398ZM134.923 59V47.3636H136.622V59H134.923ZM140.435 59L137.31 54.8523L138.48 53.6648L142.52 59H140.435ZM147.232 59.1761C146.372 59.1761 145.631 58.9924 145.01 58.625C144.393 58.2538 143.915 57.733 143.578 57.0625C143.245 56.3883 143.078 55.5985 143.078 54.6932C143.078 53.7992 143.245 53.0114 143.578 52.3295C143.915 51.6477 144.385 51.1155 144.987 50.733C145.593 50.3504 146.302 50.1591 147.112 50.1591C147.605 50.1591 148.082 50.2405 148.544 50.4034C149.006 50.5663 149.421 50.822 149.788 51.1705C150.156 51.5189 150.446 51.9716 150.658 52.5284C150.87 53.0814 150.976 53.7538 150.976 54.5455V55.1477H144.038V53.875H149.311C149.311 53.428 149.22 53.0322 149.038 52.6875C148.857 52.339 148.601 52.0644 148.271 51.8636C147.946 51.6629 147.563 51.5625 147.124 51.5625C146.646 51.5625 146.23 51.6799 145.874 51.9148C145.521 52.1458 145.249 52.4489 145.055 52.8239C144.866 53.1951 144.771 53.5985 144.771 54.0341V55.0284C144.771 55.6117 144.874 56.108 145.078 56.517C145.286 56.9261 145.576 57.2386 145.947 57.4545C146.319 57.6667 146.752 57.7727 147.249 57.7727C147.571 57.7727 147.864 57.7273 148.129 57.6364C148.394 57.5417 148.624 57.4015 148.817 57.2159C149.01 57.0303 149.158 56.8011 149.26 56.5284L150.868 56.8182C150.739 57.2917 150.508 57.7064 150.175 58.0625C149.845 58.4148 149.43 58.6894 148.93 58.8864C148.434 59.0795 147.868 59.1761 147.232 59.1761ZM159.401 52.4034L157.861 52.6761C157.796 52.4792 157.694 52.2917 157.554 52.1136C157.418 51.9356 157.232 51.7898 156.997 51.6761C156.762 51.5625 156.469 51.5057 156.116 51.5057C155.635 51.5057 155.234 51.6136 154.912 51.8295C154.59 52.0417 154.429 52.3163 154.429 52.6534C154.429 52.9451 154.537 53.1799 154.753 53.358C154.969 53.536 155.317 53.6818 155.798 53.7955L157.185 54.1136C157.988 54.2992 158.586 54.5852 158.98 54.9716C159.374 55.358 159.571 55.8598 159.571 56.4773C159.571 57 159.42 57.4659 159.116 57.875C158.817 58.2803 158.399 58.5985 157.861 58.8295C157.327 59.0606 156.707 59.1761 156.003 59.1761C155.026 59.1761 154.228 58.9678 153.611 58.5511C152.993 58.1307 152.615 57.5341 152.474 56.7614L154.116 56.5114C154.219 56.9394 154.429 57.2633 154.747 57.483C155.065 57.6989 155.48 57.8068 155.991 57.8068C156.548 57.8068 156.993 57.6913 157.327 57.4602C157.66 57.2254 157.827 56.9394 157.827 56.6023C157.827 56.3295 157.724 56.1004 157.52 55.9148C157.319 55.7292 157.01 55.589 156.594 55.4943L155.116 55.1705C154.302 54.9848 153.7 54.6894 153.31 54.2841C152.923 53.8788 152.73 53.3655 152.73 52.7443C152.73 52.2292 152.874 51.7784 153.162 51.392C153.45 51.0057 153.848 50.7045 154.355 50.4886C154.863 50.2689 155.444 50.1591 156.099 50.1591C157.043 50.1591 157.785 50.3636 158.327 50.7727C158.868 51.178 159.226 51.7216 159.401 52.4034ZM166.747 62.2727C166.493 62.2727 166.262 62.2519 166.054 62.2102C165.846 62.1723 165.69 62.1307 165.588 62.0852L165.997 60.6932C166.308 60.7765 166.584 60.8125 166.827 60.8011C167.069 60.7898 167.283 60.6989 167.469 60.5284C167.658 60.358 167.825 60.0795 167.969 59.6932L168.179 59.1136L164.986 50.2727H166.804L169.014 57.0455H169.105L171.315 50.2727H173.139L169.543 60.1648C169.376 60.6193 169.164 61.0038 168.906 61.3182C168.649 61.6364 168.342 61.875 167.986 62.0341C167.63 62.1932 167.217 62.2727 166.747 62.2727ZM178.115 59.1761C177.297 59.1761 176.583 58.9886 175.973 58.6136C175.363 58.2386 174.89 57.714 174.553 57.0398C174.215 56.3655 174.047 55.5777 174.047 54.6761C174.047 53.7708 174.215 52.9792 174.553 52.3011C174.89 51.6231 175.363 51.0966 175.973 50.7216C176.583 50.3466 177.297 50.1591 178.115 50.1591C178.933 50.1591 179.647 50.3466 180.257 50.7216C180.867 51.0966 181.34 51.6231 181.678 52.3011C182.015 52.9792 182.183 53.7708 182.183 54.6761C182.183 55.5777 182.015 56.3655 181.678 57.0398C181.34 57.714 180.867 58.2386 180.257 58.6136C179.647 58.9886 178.933 59.1761 178.115 59.1761ZM178.121 57.75C178.651 57.75 179.09 57.6098 179.439 57.3295C179.787 57.0492 180.045 56.6761 180.212 56.2102C180.382 55.7443 180.467 55.2311 180.467 54.6705C180.467 54.1136 180.382 53.6023 180.212 53.1364C180.045 52.6667 179.787 52.2898 179.439 52.0057C179.09 51.7216 178.651 51.5795 178.121 51.5795C177.587 51.5795 177.143 51.7216 176.791 52.0057C176.443 52.2898 176.183 52.6667 176.013 53.1364C175.846 53.6023 175.763 54.1136 175.763 54.6705C175.763 55.2311 175.846 55.7443 176.013 56.2102C176.183 56.6761 176.443 57.0492 176.791 57.3295C177.143 57.6098 177.587 57.75 178.121 57.75ZM189.608 55.3807V50.2727H191.312V59H189.642V57.4886H189.551C189.35 57.9545 189.028 58.3428 188.585 58.6534C188.146 58.9602 187.598 59.1136 186.943 59.1136C186.383 59.1136 185.886 58.9905 185.455 58.7443C185.027 58.4943 184.689 58.125 184.443 57.6364C184.201 57.1477 184.08 56.5436 184.08 55.8239V50.2727H185.778V55.6193C185.778 56.214 185.943 56.6875 186.273 57.0398C186.602 57.392 187.03 57.5682 187.557 57.5682C187.875 57.5682 188.191 57.4886 188.506 57.3295C188.824 57.1705 189.087 56.9299 189.295 56.608C189.508 56.286 189.612 55.8769 189.608 55.3807ZM204.369 52.4034L202.83 52.6761C202.765 52.4792 202.663 52.2917 202.523 52.1136C202.386 51.9356 202.201 51.7898 201.966 51.6761C201.731 51.5625 201.438 51.5057 201.085 51.5057C200.604 51.5057 200.203 51.6136 199.881 51.8295C199.559 52.0417 199.398 52.3163 199.398 52.6534C199.398 52.9451 199.506 53.1799 199.722 53.358C199.938 53.536 200.286 53.6818 200.767 53.7955L202.153 54.1136C202.956 54.2992 203.555 54.5852 203.949 54.9716C204.343 55.358 204.54 55.8598 204.54 56.4773C204.54 57 204.388 57.4659 204.085 57.875C203.786 58.2803 203.367 58.5985 202.83 58.8295C202.295 59.0606 201.676 59.1761 200.972 59.1761C199.994 59.1761 199.197 58.9678 198.58 58.5511C197.962 58.1307 197.583 57.5341 197.443 56.7614L199.085 56.5114C199.188 56.9394 199.398 57.2633 199.716 57.483C200.034 57.6989 200.449 57.8068 200.96 57.8068C201.517 57.8068 201.962 57.6913 202.295 57.4602C202.629 57.2254 202.795 56.9394 202.795 56.6023C202.795 56.3295 202.693 56.1004 202.489 55.9148C202.288 55.7292 201.979 55.589 201.562 55.4943L200.085 55.1705C199.271 54.9848 198.669 54.6894 198.278 54.2841C197.892 53.8788 197.699 53.3655 197.699 52.7443C197.699 52.2292 197.843 51.7784 198.131 51.392C198.419 51.0057 198.816 50.7045 199.324 50.4886C199.831 50.2689 200.413 50.1591 201.068 50.1591C202.011 50.1591 202.754 50.3636 203.295 50.7727C203.837 51.178 204.195 51.7216 204.369 52.4034ZM210.482 50.2727V51.6364H205.714V50.2727H210.482ZM206.993 48.1818H208.692V56.4375C208.692 56.767 208.741 57.0152 208.839 57.1818C208.938 57.3447 209.065 57.4564 209.22 57.517C209.379 57.5739 209.552 57.6023 209.737 57.6023C209.874 57.6023 209.993 57.5928 210.095 57.5739C210.197 57.5549 210.277 57.5398 210.334 57.5284L210.641 58.9318C210.542 58.9697 210.402 59.0076 210.22 59.0455C210.038 59.0871 209.811 59.1098 209.538 59.1136C209.091 59.1212 208.675 59.0417 208.288 58.875C207.902 58.7083 207.589 58.4508 207.351 58.1023C207.112 57.7538 206.993 57.3163 206.993 56.7898V48.1818ZM214.901 59.1932C214.348 59.1932 213.848 59.0909 213.401 58.8864C212.954 58.678 212.599 58.3769 212.338 57.983C212.08 57.589 211.952 57.1061 211.952 56.5341C211.952 56.0417 212.046 55.6364 212.236 55.3182C212.425 55 212.681 54.7481 213.003 54.5625C213.325 54.3769 213.685 54.2367 214.082 54.142C214.48 54.0473 214.885 53.9754 215.298 53.9261C215.821 53.8655 216.245 53.8163 216.571 53.7784C216.897 53.7367 217.134 53.6705 217.281 53.5795C217.429 53.4886 217.503 53.3409 217.503 53.1364V53.0966C217.503 52.6004 217.363 52.2159 217.082 51.9432C216.806 51.6705 216.393 51.5341 215.844 51.5341C215.272 51.5341 214.821 51.661 214.491 51.9148C214.166 52.1648 213.94 52.4432 213.815 52.75L212.219 52.3864C212.408 51.8561 212.685 51.428 213.048 51.1023C213.416 50.7727 213.838 50.5341 214.315 50.3864C214.793 50.2348 215.295 50.1591 215.821 50.1591C216.17 50.1591 216.539 50.2008 216.929 50.2841C217.323 50.3636 217.69 50.5114 218.031 50.7273C218.376 50.9432 218.658 51.2519 218.878 51.6534C219.098 52.0511 219.207 52.5682 219.207 53.2045V59H217.548V57.8068H217.48C217.37 58.0265 217.205 58.2424 216.986 58.4545C216.766 58.6667 216.484 58.8428 216.139 58.983C215.795 59.1231 215.382 59.1932 214.901 59.1932ZM215.27 57.8295C215.74 57.8295 216.141 57.7367 216.474 57.5511C216.812 57.3655 217.067 57.1231 217.241 56.8239C217.42 56.5208 217.509 56.197 217.509 55.8523V54.7273C217.448 54.7879 217.33 54.8447 217.156 54.8977C216.986 54.947 216.791 54.9905 216.571 55.0284C216.351 55.0625 216.137 55.0947 215.929 55.125C215.721 55.1515 215.546 55.1742 215.406 55.1932C215.077 55.2348 214.776 55.3049 214.503 55.4034C214.234 55.5019 214.018 55.6439 213.855 55.8295C213.696 56.0114 213.616 56.2538 213.616 56.5568C213.616 56.9773 213.772 57.2955 214.082 57.5114C214.393 57.7235 214.789 57.8295 215.27 57.8295ZM223.169 53.8182V59H221.47V50.2727H223.101V51.6932H223.209C223.41 51.2311 223.724 50.8598 224.152 50.5795C224.584 50.2992 225.127 50.1591 225.783 50.1591C226.377 50.1591 226.898 50.2841 227.345 50.5341C227.792 50.7803 228.139 51.1477 228.385 51.6364C228.631 52.125 228.754 52.7292 228.754 53.4489V59H227.055V53.6534C227.055 53.0208 226.891 52.5265 226.561 52.1705C226.232 51.8106 225.779 51.6307 225.203 51.6307C224.809 51.6307 224.459 51.7159 224.152 51.8864C223.849 52.0568 223.608 52.3068 223.43 52.6364C223.256 52.9621 223.169 53.3561 223.169 53.8182ZM234.3 59.1705C233.595 59.1705 232.966 58.9905 232.413 58.6307C231.864 58.267 231.432 57.75 231.118 57.0795C230.807 56.4053 230.652 55.5966 230.652 54.6534C230.652 53.7102 230.809 52.9034 231.124 52.233C231.442 51.5625 231.877 51.0492 232.43 50.6932C232.983 50.3371 233.61 50.1591 234.311 50.1591C234.853 50.1591 235.288 50.25 235.618 50.4318C235.951 50.6098 236.209 50.8182 236.391 51.0568C236.576 51.2955 236.72 51.5057 236.822 51.6875H236.925V47.3636H238.624V59H236.964V57.642H236.822C236.72 57.8277 236.572 58.0398 236.379 58.2784C236.19 58.517 235.929 58.7254 235.595 58.9034C235.262 59.0814 234.83 59.1705 234.3 59.1705ZM234.675 57.7216C235.163 57.7216 235.576 57.5928 235.913 57.3352C236.254 57.0739 236.512 56.7121 236.686 56.25C236.864 55.7879 236.953 55.25 236.953 54.6364C236.953 54.0303 236.866 53.5 236.692 53.0455C236.518 52.5909 236.262 52.2367 235.925 51.983C235.588 51.7292 235.171 51.6023 234.675 51.6023C234.163 51.6023 233.737 51.7348 233.396 52C233.055 52.2652 232.798 52.6269 232.624 53.0852C232.453 53.5436 232.368 54.0606 232.368 54.6364C232.368 55.2197 232.455 55.7443 232.629 56.2102C232.804 56.6761 233.061 57.0455 233.402 57.3182C233.747 57.5871 234.171 57.7216 234.675 57.7216ZM248.959 59.1761C248.141 59.1761 247.427 58.9886 246.817 58.6136C246.207 58.2386 245.733 57.714 245.396 57.0398C245.059 56.3655 244.891 55.5777 244.891 54.6761C244.891 53.7708 245.059 52.9792 245.396 52.3011C245.733 51.6231 246.207 51.0966 246.817 50.7216C247.427 50.3466 248.141 50.1591 248.959 50.1591C249.777 50.1591 250.491 50.3466 251.101 50.7216C251.711 51.0966 252.184 51.6231 252.521 52.3011C252.858 52.9792 253.027 53.7708 253.027 54.6761C253.027 55.5777 252.858 56.3655 252.521 57.0398C252.184 57.714 251.711 58.2386 251.101 58.6136C250.491 58.9886 249.777 59.1761 248.959 59.1761ZM248.964 57.75C249.495 57.75 249.934 57.6098 250.283 57.3295C250.631 57.0492 250.889 56.6761 251.055 56.2102C251.226 55.7443 251.311 55.2311 251.311 54.6705C251.311 54.1136 251.226 53.6023 251.055 53.1364C250.889 52.6667 250.631 52.2898 250.283 52.0057C249.934 51.7216 249.495 51.5795 248.964 51.5795C248.43 51.5795 247.987 51.7216 247.635 52.0057C247.286 52.2898 247.027 52.6667 246.857 53.1364C246.69 53.6023 246.607 54.1136 246.607 54.6705C246.607 55.2311 246.69 55.7443 246.857 56.2102C247.027 56.6761 247.286 57.0492 247.635 57.3295C247.987 57.6098 248.43 57.75 248.964 57.75ZM260.452 55.3807V50.2727H262.156V59H260.486V57.4886H260.395C260.194 57.9545 259.872 58.3428 259.429 58.6534C258.99 58.9602 258.442 59.1136 257.787 59.1136C257.226 59.1136 256.73 58.9905 256.298 58.7443C255.87 58.4943 255.533 58.125 255.287 57.6364C255.045 57.1477 254.923 56.5436 254.923 55.8239V50.2727H256.622V55.6193C256.622 56.214 256.787 56.6875 257.116 57.0398C257.446 57.392 257.874 57.5682 258.401 57.5682C258.719 57.5682 259.035 57.4886 259.349 57.3295C259.668 57.1705 259.931 56.9299 260.139 56.608C260.351 56.286 260.455 55.8769 260.452 55.3807ZM268.513 50.2727V51.6364H263.746V50.2727H268.513ZM265.024 48.1818H266.723V56.4375C266.723 56.767 266.772 57.0152 266.871 57.1818C266.969 57.3447 267.096 57.4564 267.251 57.517C267.411 57.5739 267.583 57.6023 267.768 57.6023C267.905 57.6023 268.024 57.5928 268.126 57.5739C268.229 57.5549 268.308 57.5398 268.365 57.5284L268.672 58.9318C268.573 58.9697 268.433 59.0076 268.251 59.0455C268.07 59.0871 267.842 59.1098 267.57 59.1136C267.123 59.1212 266.706 59.0417 266.32 58.875C265.933 58.7083 265.621 58.4508 265.382 58.1023C265.143 57.7538 265.024 57.3163 265.024 56.7898V48.1818ZM278.598 50.2727V51.4091H273.893V50.2727H278.598ZM275.303 59V49.0682C275.303 48.5682 275.42 48.1515 275.655 47.8182C275.89 47.4848 276.195 47.2348 276.57 47.0682C276.945 46.9015 277.34 46.8182 277.757 46.8182C278.087 46.8182 278.356 46.8447 278.564 46.8977C278.772 46.9508 278.928 47 279.03 47.0455L278.643 48.2045C278.575 48.1818 278.481 48.1534 278.359 48.1193C278.242 48.0852 278.087 48.0682 277.893 48.0682C277.45 48.0682 277.13 48.1799 276.933 48.4034C276.74 48.6269 276.643 48.9545 276.643 49.3864V59H275.303ZM280.477 59V50.2727H281.773V51.5909H281.864C282.023 51.1591 282.311 50.8087 282.727 50.5398C283.144 50.2708 283.614 50.1364 284.136 50.1364C284.235 50.1364 284.358 50.1383 284.506 50.142C284.653 50.1458 284.765 50.1515 284.841 50.1591V51.5227C284.795 51.5114 284.691 51.4943 284.528 51.4716C284.369 51.4451 284.201 51.4318 284.023 51.4318C283.598 51.4318 283.22 51.5208 282.886 51.6989C282.557 51.8731 282.295 52.1155 282.102 52.4261C281.913 52.733 281.818 53.0833 281.818 53.4773V59H280.477ZM289.71 59.1818C288.922 59.1818 288.231 58.9943 287.636 58.6193C287.045 58.2443 286.583 57.7197 286.25 57.0455C285.92 56.3712 285.756 55.5833 285.756 54.6818C285.756 53.7727 285.92 52.9792 286.25 52.3011C286.583 51.6231 287.045 51.0966 287.636 50.7216C288.231 50.3466 288.922 50.1591 289.71 50.1591C290.498 50.1591 291.188 50.3466 291.778 50.7216C292.373 51.0966 292.835 51.6231 293.165 52.3011C293.498 52.9792 293.665 53.7727 293.665 54.6818C293.665 55.5833 293.498 56.3712 293.165 57.0455C292.835 57.7197 292.373 58.2443 291.778 58.6193C291.188 58.9943 290.498 59.1818 289.71 59.1818ZM289.71 57.9773C290.309 57.9773 290.801 57.8239 291.188 57.517C291.574 57.2102 291.86 56.8068 292.045 56.3068C292.231 55.8068 292.324 55.2652 292.324 54.6818C292.324 54.0985 292.231 53.5549 292.045 53.0511C291.86 52.5473 291.574 52.1402 291.188 51.8295C290.801 51.5189 290.309 51.3636 289.71 51.3636C289.112 51.3636 288.619 51.5189 288.233 51.8295C287.847 52.1402 287.561 52.5473 287.375 53.0511C287.189 53.5549 287.097 54.0985 287.097 54.6818C287.097 55.2652 287.189 55.8068 287.375 56.3068C287.561 56.8068 287.847 57.2102 288.233 57.517C288.619 57.8239 289.112 57.9773 289.71 57.9773ZM295.712 59V50.2727H297.007V51.6364H297.121C297.303 51.1705 297.596 50.8087 298.001 50.5511C298.407 50.2898 298.893 50.1591 299.462 50.1591C300.037 50.1591 300.517 50.2898 300.899 50.5511C301.286 50.8087 301.587 51.1705 301.803 51.6364H301.893C302.117 51.1856 302.452 50.8277 302.899 50.5625C303.346 50.2936 303.882 50.1591 304.507 50.1591C305.287 50.1591 305.926 50.4034 306.422 50.892C306.918 51.3769 307.166 52.1326 307.166 53.1591V59H305.825V53.1591C305.825 52.5152 305.649 52.0549 305.297 51.7784C304.945 51.5019 304.53 51.3636 304.053 51.3636C303.439 51.3636 302.964 51.5492 302.626 51.9205C302.289 52.2879 302.121 52.7538 302.121 53.3182V59H300.757V53.0227C300.757 52.5265 300.596 52.1269 300.274 51.8239C299.952 51.517 299.537 51.3636 299.03 51.3636C298.681 51.3636 298.356 51.4564 298.053 51.642C297.753 51.8277 297.511 52.0852 297.325 52.4148C297.143 52.7405 297.053 53.1174 297.053 53.5455V59H295.712ZM316.686 59.2045C316.133 59.2045 315.631 59.1004 315.18 58.892C314.73 58.6799 314.372 58.375 314.107 57.9773C313.841 57.5758 313.709 57.0909 313.709 56.5227C313.709 56.0227 313.807 55.6174 314.004 55.3068C314.201 54.9924 314.464 54.7462 314.794 54.5682C315.124 54.3902 315.487 54.2576 315.885 54.1705C316.286 54.0795 316.69 54.0076 317.095 53.9545C317.625 53.8864 318.055 53.8352 318.385 53.8011C318.718 53.7633 318.961 53.7008 319.112 53.6136C319.268 53.5265 319.345 53.375 319.345 53.1591V53.1136C319.345 52.553 319.192 52.1174 318.885 51.8068C318.582 51.4962 318.122 51.3409 317.504 51.3409C316.864 51.3409 316.362 51.4811 315.999 51.7614C315.635 52.0417 315.379 52.3409 315.232 52.6591L313.959 52.2045C314.186 51.6742 314.489 51.2614 314.868 50.9659C315.25 50.6667 315.667 50.4583 316.118 50.3409C316.572 50.2197 317.019 50.1591 317.459 50.1591C317.739 50.1591 318.061 50.1932 318.425 50.2614C318.792 50.3258 319.146 50.4602 319.487 50.6648C319.832 50.8693 320.118 51.178 320.345 51.5909C320.572 52.0038 320.686 52.5568 320.686 53.25V59H319.345V57.8182H319.277C319.186 58.0076 319.035 58.2102 318.822 58.4261C318.61 58.642 318.328 58.8258 317.976 58.9773C317.624 59.1288 317.194 59.2045 316.686 59.2045ZM316.891 58C317.421 58 317.868 57.8958 318.232 57.6875C318.599 57.4792 318.875 57.2102 319.061 56.8807C319.25 56.5511 319.345 56.2045 319.345 55.8409V54.6136C319.288 54.6818 319.163 54.7443 318.97 54.8011C318.781 54.8542 318.561 54.9015 318.311 54.9432C318.065 54.9811 317.824 55.0152 317.589 55.0455C317.358 55.072 317.171 55.0947 317.027 55.1136C316.679 55.1591 316.353 55.233 316.05 55.3352C315.75 55.4337 315.508 55.5833 315.322 55.7841C315.141 55.9811 315.05 56.25 315.05 56.5909C315.05 57.0568 315.222 57.4091 315.567 57.6477C315.915 57.8826 316.357 58 316.891 58ZM328.974 53.75V59H327.634V47.3636H328.974V51.6364H329.088C329.293 51.1856 329.599 50.8277 330.009 50.5625C330.421 50.2936 330.971 50.1591 331.656 50.1591C332.251 50.1591 332.772 50.2784 333.219 50.517C333.666 50.7519 334.012 51.1136 334.259 51.6023C334.509 52.0871 334.634 52.7045 334.634 53.4545V59H333.293V53.5455C333.293 52.8523 333.113 52.3163 332.753 51.9375C332.397 51.5549 331.902 51.3636 331.27 51.3636C330.83 51.3636 330.437 51.4564 330.088 51.642C329.743 51.8277 329.471 52.0985 329.27 52.4545C329.073 52.8106 328.974 53.2424 328.974 53.75ZM342.587 55.4318V50.2727H343.928V59H342.587V57.5227H342.496C342.291 57.9659 341.973 58.3428 341.541 58.6534C341.109 58.9602 340.564 59.1136 339.905 59.1136C339.359 59.1136 338.875 58.9943 338.45 58.7557C338.026 58.5133 337.693 58.1496 337.45 57.6648C337.208 57.1761 337.087 56.5606 337.087 55.8182V50.2727H338.428V55.7273C338.428 56.3636 338.606 56.8712 338.962 57.25C339.321 57.6288 339.78 57.8182 340.337 57.8182C340.67 57.8182 341.009 57.733 341.354 57.5625C341.702 57.392 341.994 57.1307 342.229 56.7784C342.467 56.4261 342.587 55.9773 342.587 55.4318ZM349.906 62.4545C349.259 62.4545 348.702 62.3712 348.236 62.2045C347.77 62.0417 347.382 61.8258 347.071 61.5568C346.764 61.2917 346.52 61.0076 346.338 60.7045L347.406 59.9545C347.527 60.1136 347.681 60.2955 347.866 60.5C348.052 60.7083 348.306 60.8883 348.628 61.0398C348.954 61.1951 349.38 61.2727 349.906 61.2727C350.611 61.2727 351.192 61.1023 351.651 60.7614C352.109 60.4205 352.338 59.8864 352.338 59.1591V57.3864H352.224C352.126 57.5455 351.986 57.7424 351.804 57.9773C351.626 58.2083 351.368 58.4148 351.031 58.5966C350.698 58.7746 350.247 58.8636 349.679 58.8636C348.974 58.8636 348.342 58.697 347.781 58.3636C347.224 58.0303 346.783 57.5455 346.457 56.9091C346.135 56.2727 345.974 55.5 345.974 54.5909C345.974 53.697 346.132 52.9186 346.446 52.2557C346.76 51.589 347.198 51.0739 347.759 50.7102C348.319 50.3428 348.967 50.1591 349.702 50.1591C350.27 50.1591 350.721 50.2538 351.054 50.4432C351.391 50.6288 351.649 50.8409 351.827 51.0795C352.009 51.3144 352.149 51.5076 352.247 51.6591H352.384V50.2727H353.679V59.25C353.679 60 353.509 60.6098 353.168 61.0795C352.83 61.553 352.376 61.8996 351.804 62.1193C351.236 62.3428 350.603 62.4545 349.906 62.4545ZM349.861 57.6591C350.399 57.6591 350.853 57.536 351.224 57.2898C351.596 57.0436 351.878 56.6894 352.071 56.2273C352.264 55.7652 352.361 55.2121 352.361 54.5682C352.361 53.9394 352.266 53.3845 352.077 52.9034C351.887 52.4223 351.607 52.0455 351.236 51.7727C350.865 51.5 350.406 51.3636 349.861 51.3636C349.293 51.3636 348.819 51.5076 348.44 51.7955C348.065 52.0833 347.783 52.4697 347.594 52.9545C347.408 53.4394 347.315 53.9773 347.315 54.5682C347.315 55.1742 347.41 55.7102 347.599 56.1761C347.793 56.6383 348.077 57.0019 348.452 57.267C348.83 57.5284 349.3 57.6591 349.861 57.6591ZM359.793 59.1818C358.952 59.1818 358.226 58.9962 357.616 58.625C357.01 58.25 356.543 57.7273 356.213 57.0568C355.887 56.3826 355.724 55.5985 355.724 54.7045C355.724 53.8106 355.887 53.0227 356.213 52.3409C356.543 51.6553 357.001 51.1212 357.588 50.7386C358.179 50.3523 358.868 50.1591 359.656 50.1591C360.111 50.1591 360.56 50.2348 361.003 50.3864C361.446 50.5379 361.849 50.7841 362.213 51.125C362.577 51.4621 362.866 51.9091 363.082 52.4659C363.298 53.0227 363.406 53.7083 363.406 54.5227V55.0909H356.679V53.9318H362.043C362.043 53.4394 361.944 53 361.747 52.6136C361.554 52.2273 361.277 51.9223 360.918 51.6989C360.562 51.4754 360.141 51.3636 359.656 51.3636C359.122 51.3636 358.66 51.4962 358.27 51.7614C357.884 52.0227 357.586 52.3636 357.378 52.7841C357.17 53.2045 357.065 53.6553 357.065 54.1364V54.9091C357.065 55.5682 357.179 56.1269 357.406 56.5852C357.637 57.0398 357.957 57.3864 358.366 57.625C358.776 57.8598 359.251 57.9773 359.793 57.9773C360.145 57.9773 360.463 57.928 360.747 57.8295C361.035 57.7273 361.283 57.5758 361.491 57.375C361.7 57.1705 361.861 56.9167 361.974 56.6136L363.27 56.9773C363.134 57.4167 362.904 57.803 362.582 58.1364C362.26 58.4659 361.863 58.7235 361.389 58.9091C360.916 59.0909 360.384 59.1818 359.793 59.1818ZM369.946 62.2727V50.2727H371.241V51.6591H371.401C371.499 51.5076 371.635 51.3144 371.81 51.0795C371.988 50.8409 372.241 50.6288 372.571 50.4432C372.904 50.2538 373.355 50.1591 373.923 50.1591C374.658 50.1591 375.306 50.3428 375.866 50.7102C376.427 51.0777 376.865 51.5985 377.179 52.2727C377.493 52.947 377.651 53.7424 377.651 54.6591C377.651 55.5833 377.493 56.3845 377.179 57.0625C376.865 57.7367 376.429 58.2595 375.872 58.6307C375.315 58.9981 374.673 59.1818 373.946 59.1818C373.385 59.1818 372.937 59.089 372.599 58.9034C372.262 58.714 372.003 58.5 371.821 58.2614C371.639 58.0189 371.499 57.8182 371.401 57.6591H371.287V62.2727H369.946ZM371.264 54.6364C371.264 55.2955 371.361 55.8769 371.554 56.3807C371.747 56.8807 372.029 57.2727 372.401 57.5568C372.772 57.8371 373.226 57.9773 373.764 57.9773C374.325 57.9773 374.793 57.8295 375.168 57.5341C375.546 57.2348 375.83 56.8333 376.02 56.3295C376.213 55.822 376.31 55.2576 376.31 54.6364C376.31 54.0227 376.215 53.4697 376.026 52.9773C375.84 52.4811 375.558 52.089 375.179 51.8011C374.804 51.5095 374.332 51.3636 373.764 51.3636C373.219 51.3636 372.76 51.5019 372.389 51.7784C372.018 52.0511 371.738 52.4337 371.548 52.9261C371.359 53.4148 371.264 53.9848 371.264 54.6364ZM383.241 59.1818C382.454 59.1818 381.762 58.9943 381.168 58.6193C380.577 58.2443 380.115 57.7197 379.781 57.0455C379.452 56.3712 379.287 55.5833 379.287 54.6818C379.287 53.7727 379.452 52.9792 379.781 52.3011C380.115 51.6231 380.577 51.0966 381.168 50.7216C381.762 50.3466 382.454 50.1591 383.241 50.1591C384.029 50.1591 384.719 50.3466 385.31 50.7216C385.904 51.0966 386.366 51.6231 386.696 52.3011C387.029 52.9792 387.196 53.7727 387.196 54.6818C387.196 55.5833 387.029 56.3712 386.696 57.0455C386.366 57.7197 385.904 58.2443 385.31 58.6193C384.719 58.9943 384.029 59.1818 383.241 59.1818ZM383.241 57.9773C383.84 57.9773 384.332 57.8239 384.719 57.517C385.105 57.2102 385.391 56.8068 385.577 56.3068C385.762 55.8068 385.855 55.2652 385.855 54.6818C385.855 54.0985 385.762 53.5549 385.577 53.0511C385.391 52.5473 385.105 52.1402 384.719 51.8295C384.332 51.5189 383.84 51.3636 383.241 51.3636C382.643 51.3636 382.151 51.5189 381.764 51.8295C381.378 52.1402 381.092 52.5473 380.906 53.0511C380.721 53.5549 380.628 54.0985 380.628 54.6818C380.628 55.2652 380.721 55.8068 380.906 56.3068C381.092 56.8068 381.378 57.2102 381.764 57.517C382.151 57.8239 382.643 57.9773 383.241 57.9773ZM392.788 59.1818C392 59.1818 391.309 58.9943 390.714 58.6193C390.124 58.2443 389.661 57.7197 389.328 57.0455C388.999 56.3712 388.834 55.5833 388.834 54.6818C388.834 53.7727 388.999 52.9792 389.328 52.3011C389.661 51.6231 390.124 51.0966 390.714 50.7216C391.309 50.3466 392 50.1591 392.788 50.1591C393.576 50.1591 394.266 50.3466 394.857 50.7216C395.451 51.0966 395.913 51.6231 396.243 52.3011C396.576 52.9792 396.743 53.7727 396.743 54.6818C396.743 55.5833 396.576 56.3712 396.243 57.0455C395.913 57.7197 395.451 58.2443 394.857 58.6193C394.266 58.9943 393.576 59.1818 392.788 59.1818ZM392.788 57.9773C393.387 57.9773 393.879 57.8239 394.266 57.517C394.652 57.2102 394.938 56.8068 395.124 56.3068C395.309 55.8068 395.402 55.2652 395.402 54.6818C395.402 54.0985 395.309 53.5549 395.124 53.0511C394.938 52.5473 394.652 52.1402 394.266 51.8295C393.879 51.5189 393.387 51.3636 392.788 51.3636C392.19 51.3636 391.697 51.5189 391.311 51.8295C390.925 52.1402 390.639 52.5473 390.453 53.0511C390.268 53.5549 390.175 54.0985 390.175 54.6818C390.175 55.2652 390.268 55.8068 390.453 56.3068C390.639 56.8068 390.925 57.2102 391.311 57.517C391.697 57.8239 392.19 57.9773 392.788 57.9773ZM400.131 47.3636V59H398.79V47.3636H400.131ZM410.632 59.1818C409.844 59.1818 409.153 58.9943 408.558 58.6193C407.967 58.2443 407.505 57.7197 407.172 57.0455C406.842 56.3712 406.678 55.5833 406.678 54.6818C406.678 53.7727 406.842 52.9792 407.172 52.3011C407.505 51.6231 407.967 51.0966 408.558 50.7216C409.153 50.3466 409.844 50.1591 410.632 50.1591C411.42 50.1591 412.109 50.3466 412.7 50.7216C413.295 51.0966 413.757 51.6231 414.087 52.3011C414.42 52.9792 414.587 53.7727 414.587 54.6818C414.587 55.5833 414.42 56.3712 414.087 57.0455C413.757 57.7197 413.295 58.2443 412.7 58.6193C412.109 58.9943 411.42 59.1818 410.632 59.1818ZM410.632 57.9773C411.231 57.9773 411.723 57.8239 412.109 57.517C412.496 57.2102 412.782 56.8068 412.967 56.3068C413.153 55.8068 413.246 55.2652 413.246 54.6818C413.246 54.0985 413.153 53.5549 412.967 53.0511C412.782 52.5473 412.496 52.1402 412.109 51.8295C411.723 51.5189 411.231 51.3636 410.632 51.3636C410.034 51.3636 409.541 51.5189 409.155 51.8295C408.768 52.1402 408.482 52.5473 408.297 53.0511C408.111 53.5549 408.018 54.0985 408.018 54.6818C408.018 55.2652 408.111 55.8068 408.297 56.3068C408.482 56.8068 408.768 57.2102 409.155 57.517C409.541 57.8239 410.034 57.9773 410.632 57.9773ZM420.52 50.2727V51.4091H415.815V50.2727H420.52ZM417.224 59V49.0682C417.224 48.5682 417.342 48.1515 417.577 47.8182C417.812 47.4848 418.116 47.2348 418.491 47.0682C418.866 46.9015 419.262 46.8182 419.679 46.8182C420.009 46.8182 420.277 46.8447 420.486 46.8977C420.694 46.9508 420.849 47 420.952 47.0455L420.565 48.2045C420.497 48.1818 420.402 48.1534 420.281 48.1193C420.164 48.0852 420.009 48.0682 419.815 48.0682C419.372 48.0682 419.052 48.1799 418.855 48.4034C418.662 48.6269 418.565 48.9545 418.565 49.3864V59H417.224ZM430.445 59.1818C429.626 59.1818 428.922 58.9886 428.331 58.6023C427.74 58.2159 427.286 57.6837 426.967 57.0057C426.649 56.3277 426.49 55.553 426.49 54.6818C426.49 53.7955 426.653 53.0133 426.979 52.3352C427.308 51.6534 427.767 51.1212 428.354 50.7386C428.945 50.3523 429.634 50.1591 430.422 50.1591C431.036 50.1591 431.589 50.2727 432.081 50.5C432.573 50.7273 432.977 51.0455 433.291 51.4545C433.606 51.8636 433.801 52.3409 433.876 52.8864H432.536C432.433 52.4886 432.206 52.1364 431.854 51.8295C431.505 51.5189 431.036 51.3636 430.445 51.3636C429.922 51.3636 429.464 51.5 429.07 51.7727C428.679 52.0417 428.375 52.4223 428.155 52.9148C427.939 53.4034 427.831 53.9773 427.831 54.6364C427.831 55.3106 427.937 55.8977 428.149 56.3977C428.365 56.8977 428.668 57.286 429.058 57.5625C429.452 57.839 429.914 57.9773 430.445 57.9773C430.793 57.9773 431.109 57.9167 431.393 57.7955C431.678 57.6742 431.918 57.5 432.115 57.2727C432.312 57.0455 432.452 56.7727 432.536 56.4545H433.876C433.801 56.9697 433.613 57.4337 433.314 57.8466C433.018 58.2557 432.626 58.5814 432.138 58.8239C431.653 59.0625 431.089 59.1818 430.445 59.1818ZM439.382 59.1818C438.594 59.1818 437.903 58.9943 437.308 58.6193C436.717 58.2443 436.255 57.7197 435.922 57.0455C435.592 56.3712 435.428 55.5833 435.428 54.6818C435.428 53.7727 435.592 52.9792 435.922 52.3011C436.255 51.6231 436.717 51.0966 437.308 50.7216C437.903 50.3466 438.594 50.1591 439.382 50.1591C440.17 50.1591 440.859 50.3466 441.45 50.7216C442.045 51.0966 442.507 51.6231 442.837 52.3011C443.17 52.9792 443.337 53.7727 443.337 54.6818C443.337 55.5833 443.17 56.3712 442.837 57.0455C442.507 57.7197 442.045 58.2443 441.45 58.6193C440.859 58.9943 440.17 59.1818 439.382 59.1818ZM439.382 57.9773C439.981 57.9773 440.473 57.8239 440.859 57.517C441.246 57.2102 441.532 56.8068 441.717 56.3068C441.903 55.8068 441.996 55.2652 441.996 54.6818C441.996 54.0985 441.903 53.5549 441.717 53.0511C441.532 52.5473 441.246 52.1402 440.859 51.8295C440.473 51.5189 439.981 51.3636 439.382 51.3636C438.784 51.3636 438.291 51.5189 437.905 51.8295C437.518 52.1402 437.232 52.5473 437.047 53.0511C436.861 53.5549 436.768 54.0985 436.768 54.6818C436.768 55.2652 436.861 55.8068 437.047 56.3068C437.232 56.8068 437.518 57.2102 437.905 57.517C438.291 57.8239 438.784 57.9773 439.382 57.9773ZM445.384 59V50.2727H446.679V51.6364H446.793C446.974 51.1705 447.268 50.8087 447.673 50.5511C448.079 50.2898 448.565 50.1591 449.134 50.1591C449.709 50.1591 450.188 50.2898 450.571 50.5511C450.957 50.8087 451.259 51.1705 451.474 51.6364H451.565C451.789 51.1856 452.124 50.8277 452.571 50.5625C453.018 50.2936 453.554 50.1591 454.179 50.1591C454.959 50.1591 455.598 50.4034 456.094 50.892C456.59 51.3769 456.838 52.1326 456.838 53.1591V59H455.497V53.1591C455.497 52.5152 455.321 52.0549 454.969 51.7784C454.616 51.5019 454.202 51.3636 453.724 51.3636C453.111 51.3636 452.635 51.5492 452.298 51.9205C451.961 52.2879 451.793 52.7538 451.793 53.3182V59H450.429V53.0227C450.429 52.5265 450.268 52.1269 449.946 51.8239C449.624 51.517 449.209 51.3636 448.702 51.3636C448.353 51.3636 448.027 51.4564 447.724 51.642C447.425 51.8277 447.183 52.0852 446.997 52.4148C446.815 52.7405 446.724 53.1174 446.724 53.5455V59H445.384ZM459.29 62.2727V50.2727H460.585V51.6591H460.744C460.843 51.5076 460.979 51.3144 461.153 51.0795C461.331 50.8409 461.585 50.6288 461.915 50.4432C462.248 50.2538 462.699 50.1591 463.267 50.1591C464.002 50.1591 464.65 50.3428 465.21 50.7102C465.771 51.0777 466.208 51.5985 466.523 52.2727C466.837 52.947 466.994 53.7424 466.994 54.6591C466.994 55.5833 466.837 56.3845 466.523 57.0625C466.208 57.7367 465.773 58.2595 465.216 58.6307C464.659 58.9981 464.017 59.1818 463.29 59.1818C462.729 59.1818 462.28 59.089 461.943 58.9034C461.606 58.714 461.347 58.5 461.165 58.2614C460.983 58.0189 460.843 57.8182 460.744 57.6591H460.631V62.2727H459.29ZM460.608 54.6364C460.608 55.2955 460.705 55.8769 460.898 56.3807C461.091 56.8807 461.373 57.2727 461.744 57.5568C462.116 57.8371 462.57 57.9773 463.108 57.9773C463.669 57.9773 464.136 57.8295 464.511 57.5341C464.89 57.2348 465.174 56.8333 465.364 56.3295C465.557 55.822 465.653 55.2576 465.653 54.6364C465.653 54.0227 465.559 53.4697 465.369 52.9773C465.184 52.4811 464.902 52.089 464.523 51.8011C464.148 51.5095 463.676 51.3636 463.108 51.3636C462.563 51.3636 462.104 51.5019 461.733 51.7784C461.362 52.0511 461.081 52.4337 460.892 52.9261C460.703 53.4148 460.608 53.9848 460.608 54.6364ZM472.699 59.1818C471.858 59.1818 471.133 58.9962 470.523 58.625C469.917 58.25 469.449 57.7273 469.119 57.0568C468.794 56.3826 468.631 55.5985 468.631 54.7045C468.631 53.8106 468.794 53.0227 469.119 52.3409C469.449 51.6553 469.907 51.1212 470.494 50.7386C471.085 50.3523 471.775 50.1591 472.562 50.1591C473.017 50.1591 473.466 50.2348 473.909 50.3864C474.352 50.5379 474.756 50.7841 475.119 51.125C475.483 51.4621 475.773 51.9091 475.989 52.4659C476.205 53.0227 476.312 53.7083 476.312 54.5227V55.0909H469.585V53.9318H474.949C474.949 53.4394 474.85 53 474.653 52.6136C474.46 52.2273 474.184 51.9223 473.824 51.6989C473.468 51.4754 473.047 51.3636 472.562 51.3636C472.028 51.3636 471.566 51.4962 471.176 51.7614C470.79 52.0227 470.492 52.3636 470.284 52.7841C470.076 53.2045 469.972 53.6553 469.972 54.1364V54.9091C469.972 55.5682 470.085 56.1269 470.312 56.5852C470.544 57.0398 470.864 57.3864 471.273 57.625C471.682 57.8598 472.157 57.9773 472.699 57.9773C473.051 57.9773 473.369 57.928 473.653 57.8295C473.941 57.7273 474.189 57.5758 474.398 57.375C474.606 57.1705 474.767 56.9167 474.881 56.6136L476.176 56.9773C476.04 57.4167 475.811 57.803 475.489 58.1364C475.167 58.4659 474.769 58.7235 474.295 58.9091C473.822 59.0909 473.29 59.1818 472.699 59.1818ZM482.148 50.2727V51.4091H477.625V50.2727H482.148ZM478.943 48.1818H480.284V56.5C480.284 56.8788 480.339 57.1629 480.449 57.3523C480.563 57.5379 480.706 57.6629 480.881 57.7273C481.059 57.7879 481.246 57.8182 481.443 57.8182C481.591 57.8182 481.712 57.8106 481.807 57.7955C481.902 57.7765 481.977 57.7614 482.034 57.75L482.307 58.9545C482.216 58.9886 482.089 59.0227 481.926 59.0568C481.763 59.0947 481.557 59.1136 481.307 59.1136C480.928 59.1136 480.557 59.0322 480.193 58.8693C479.833 58.7064 479.534 58.4583 479.295 58.125C479.061 57.7917 478.943 57.3712 478.943 56.8636V48.1818ZM484.165 59V50.2727H485.506V59H484.165ZM484.847 48.8182C484.585 48.8182 484.36 48.7292 484.17 48.5511C483.985 48.3731 483.892 48.1591 483.892 47.9091C483.892 47.6591 483.985 47.4451 484.17 47.267C484.36 47.089 484.585 47 484.847 47C485.108 47 485.331 47.089 485.517 47.267C485.706 47.4451 485.801 47.6591 485.801 47.9091C485.801 48.1591 485.706 48.3731 485.517 48.5511C485.331 48.7292 485.108 48.8182 484.847 48.8182ZM491.757 50.2727V51.4091H487.234V50.2727H491.757ZM488.553 48.1818H489.893V56.5C489.893 56.8788 489.948 57.1629 490.058 57.3523C490.172 57.5379 490.316 57.6629 490.49 57.7273C490.668 57.7879 490.856 57.8182 491.053 57.8182C491.2 57.8182 491.321 57.8106 491.416 57.7955C491.511 57.7765 491.587 57.7614 491.643 57.75L491.916 58.9545C491.825 58.9886 491.698 59.0227 491.536 59.0568C491.373 59.0947 491.166 59.1136 490.916 59.1136C490.537 59.1136 490.166 59.0322 489.803 58.8693C489.443 58.7064 489.143 58.4583 488.905 58.125C488.67 57.7917 488.553 57.3712 488.553 56.8636V48.1818ZM497.226 59.1818C496.438 59.1818 495.747 58.9943 495.152 58.6193C494.561 58.2443 494.099 57.7197 493.766 57.0455C493.436 56.3712 493.271 55.5833 493.271 54.6818C493.271 53.7727 493.436 52.9792 493.766 52.3011C494.099 51.6231 494.561 51.0966 495.152 50.7216C495.747 50.3466 496.438 50.1591 497.226 50.1591C498.014 50.1591 498.703 50.3466 499.294 50.7216C499.889 51.0966 500.351 51.6231 500.68 52.3011C501.014 52.9792 501.18 53.7727 501.18 54.6818C501.18 55.5833 501.014 56.3712 500.68 57.0455C500.351 57.7197 499.889 58.2443 499.294 58.6193C498.703 58.9943 498.014 59.1818 497.226 59.1818ZM497.226 57.9773C497.824 57.9773 498.317 57.8239 498.703 57.517C499.089 57.2102 499.375 56.8068 499.561 56.3068C499.747 55.8068 499.839 55.2652 499.839 54.6818C499.839 54.0985 499.747 53.5549 499.561 53.0511C499.375 52.5473 499.089 52.1402 498.703 51.8295C498.317 51.5189 497.824 51.3636 497.226 51.3636C496.627 51.3636 496.135 51.5189 495.749 51.8295C495.362 52.1402 495.076 52.5473 494.891 53.0511C494.705 53.5549 494.612 54.0985 494.612 54.6818C494.612 55.2652 494.705 55.8068 494.891 56.3068C495.076 56.8068 495.362 57.2102 495.749 57.517C496.135 57.8239 496.627 57.9773 497.226 57.9773ZM503.227 59V50.2727H504.523V51.5909H504.614C504.773 51.1591 505.061 50.8087 505.477 50.5398C505.894 50.2708 506.364 50.1364 506.886 50.1364C506.985 50.1364 507.108 50.1383 507.256 50.142C507.403 50.1458 507.515 50.1515 507.591 50.1591V51.5227C507.545 51.5114 507.441 51.4943 507.278 51.4716C507.119 51.4451 506.951 51.4318 506.773 51.4318C506.348 51.4318 505.97 51.5208 505.636 51.6989C505.307 51.8731 505.045 52.1155 504.852 52.4261C504.663 52.733 504.568 53.0833 504.568 53.4773V59H503.227ZM515.362 52.2273L514.158 52.5682C514.082 52.3674 513.97 52.1723 513.822 51.983C513.679 51.7898 513.482 51.6307 513.232 51.5057C512.982 51.3807 512.661 51.3182 512.271 51.3182C511.737 51.3182 511.292 51.4413 510.936 51.6875C510.584 51.9299 510.408 52.2386 510.408 52.6136C510.408 52.947 510.529 53.2102 510.771 53.4034C511.014 53.5966 511.393 53.7576 511.908 53.8864L513.203 54.2045C513.983 54.3939 514.565 54.6837 514.947 55.0739C515.33 55.4602 515.521 55.9583 515.521 56.5682C515.521 57.0682 515.377 57.5152 515.089 57.9091C514.805 58.303 514.408 58.6136 513.896 58.8409C513.385 59.0682 512.79 59.1818 512.112 59.1818C511.222 59.1818 510.485 58.9886 509.902 58.6023C509.319 58.2159 508.949 57.6515 508.794 56.9091L510.067 56.5909C510.188 57.0606 510.417 57.4129 510.754 57.6477C511.095 57.8826 511.54 58 512.089 58C512.714 58 513.211 57.8674 513.578 57.6023C513.949 57.3333 514.135 57.0114 514.135 56.6364C514.135 56.3333 514.029 56.0795 513.817 55.875C513.605 55.6667 513.279 55.5114 512.839 55.4091L511.385 55.0682C510.586 54.8788 509.999 54.5852 509.624 54.1875C509.252 53.786 509.067 53.2841 509.067 52.6818C509.067 52.1894 509.205 51.7538 509.482 51.375C509.762 50.9962 510.143 50.6989 510.624 50.483C511.108 50.267 511.658 50.1591 512.271 50.1591C513.135 50.1591 513.813 50.3485 514.305 50.7273C514.802 51.1061 515.154 51.6061 515.362 52.2273ZM518.517 59.0909C518.237 59.0909 517.996 58.9905 517.795 58.7898C517.595 58.589 517.494 58.3485 517.494 58.0682C517.494 57.7879 517.595 57.5473 517.795 57.3466C517.996 57.1458 518.237 57.0455 518.517 57.0455C518.797 57.0455 519.038 57.1458 519.239 57.3466C519.439 57.5473 519.54 57.7879 519.54 58.0682C519.54 58.2538 519.492 58.4242 519.398 58.5795C519.307 58.7348 519.184 58.8598 519.028 58.9545C518.877 59.0455 518.706 59.0909 518.517 59.0909Z" fill="black"/>
<rect x="1.5" y="1.5" width="597" height="85" rx="18.5" stroke="#D9EAEF" stroke-width="3"/>
</g>
<defs>
<clipPath id="clip0_0_1">
<rect width="1730" height="17397" fill="white" transform="translate(-691 -2770)"/>
</clipPath>
</defs>
</svg>
