<svg width="587" height="77" viewBox="0 0 587 77" fill="none" xmlns="http://www.w3.org/2000/svg">
<rect width="587" height="77" fill="#C9B8AF"/>
<g clip-path="url(#clip0_0_1)">
<rect width="1730" height="17173" transform="translate(-683 -10809)" fill="#F9F9F9"/>
<path d="M45.1731 33.625V21.9886H49.5368C50.4307 21.9886 51.1807 22.1439 51.7868 22.4545C52.3966 22.7652 52.8568 23.2008 53.1674 23.7614C53.4818 24.3182 53.639 24.9678 53.639 25.7102C53.639 26.4564 53.4799 27.1042 53.1618 27.6534C52.8474 28.1989 52.3833 28.6212 51.7697 28.9205C51.1561 29.2159 50.4023 29.3636 49.5083 29.3636H46.4004V27.6136H49.2243C49.747 27.6136 50.175 27.5417 50.5083 27.3977C50.8417 27.25 51.0879 27.036 51.247 26.7557C51.4099 26.4716 51.4913 26.1231 51.4913 25.7102C51.4913 25.2973 51.4099 24.9451 51.247 24.6534C51.0841 24.358 50.836 24.1345 50.5027 23.983C50.1693 23.8277 49.7394 23.75 49.2129 23.75H47.2811V33.625H45.1731ZM51.1845 28.3523L54.0652 33.625H51.7129L48.8833 28.3523H51.1845ZM59.2271 33.7955C58.3521 33.7955 57.5964 33.6136 56.96 33.25C56.3275 32.8826 55.8407 32.3636 55.4998 31.6932C55.1589 31.0189 54.9885 30.2254 54.9885 29.3125C54.9885 28.4148 55.1589 27.6269 55.4998 26.9489C55.8445 26.267 56.3256 25.7367 56.943 25.358C57.5604 24.9754 58.2858 24.7841 59.1191 24.7841C59.657 24.7841 60.1646 24.8712 60.6419 25.0455C61.1229 25.2159 61.5472 25.4811 61.9146 25.8409C62.2858 26.2008 62.5775 26.6591 62.7896 27.2159C63.0017 27.7689 63.1078 28.428 63.1078 29.1932V29.8239H55.9544V28.4375H61.1362C61.1324 28.0436 61.0472 27.6932 60.8805 27.3864C60.7138 27.0758 60.4809 26.8314 60.1816 26.6534C59.8862 26.4754 59.5415 26.3864 59.1475 26.3864C58.7271 26.3864 58.3578 26.4886 58.0396 26.6932C57.7214 26.8939 57.4733 27.1591 57.2953 27.4886C57.121 27.8144 57.032 28.1723 57.0282 28.5625V29.7727C57.0282 30.2803 57.121 30.7159 57.3066 31.0795C57.4922 31.4394 57.7517 31.7159 58.085 31.9091C58.4184 32.0985 58.8085 32.1932 59.2555 32.1932C59.5547 32.1932 59.8256 32.1515 60.068 32.0682C60.3104 31.9811 60.5207 31.8542 60.6987 31.6875C60.8767 31.5208 61.0112 31.3144 61.1021 31.0682L63.0225 31.2841C62.9013 31.7917 62.6703 32.2348 62.3294 32.6136C61.9922 32.9886 61.5604 33.2803 61.0339 33.4886C60.5074 33.6932 59.9051 33.7955 59.2271 33.7955ZM64.8478 33.625V24.8977H66.8137V26.3807H66.916C67.0978 25.8807 67.399 25.4905 67.8194 25.2102C68.2399 24.9261 68.7418 24.7841 69.3251 24.7841C69.916 24.7841 70.4141 24.928 70.8194 25.2159C71.2285 25.5 71.5164 25.8883 71.6831 26.3807H71.774C71.9672 25.8958 72.2929 25.5095 72.7512 25.2216C73.2134 24.9299 73.7607 24.7841 74.3933 24.7841C75.1963 24.7841 75.8516 25.0379 76.3592 25.5455C76.8668 26.053 77.1206 26.7936 77.1206 27.767V33.625H75.0581V28.0852C75.0581 27.5436 74.9141 27.1477 74.6262 26.8977C74.3384 26.6439 73.9861 26.517 73.5694 26.517C73.0732 26.517 72.685 26.6723 72.4047 26.983C72.1281 27.2898 71.9899 27.6894 71.9899 28.1818V33.625H69.9728V28C69.9728 27.5492 69.8365 27.1894 69.5637 26.9205C69.2948 26.6515 68.9425 26.517 68.5069 26.517C68.2115 26.517 67.9425 26.5928 67.7001 26.7443C67.4577 26.892 67.2645 27.1023 67.1206 27.375C66.9766 27.6439 66.9047 27.9583 66.9047 28.3182V33.625H64.8478ZM79.2072 33.625V24.8977H81.264V33.625H79.2072ZM80.2413 23.6591C79.9155 23.6591 79.6352 23.5511 79.4004 23.3352C79.1655 23.1155 79.0481 22.8523 79.0481 22.5455C79.0481 22.2348 79.1655 21.9716 79.4004 21.7557C79.6352 21.536 79.9155 21.4261 80.2413 21.4261C80.5708 21.4261 80.8511 21.536 81.0822 21.7557C81.3171 21.9716 81.4345 22.2348 81.4345 22.5455C81.4345 22.8523 81.3171 23.1155 81.0822 23.3352C80.8511 23.5511 80.5708 23.6591 80.2413 23.6591ZM85.4359 28.5114V33.625H83.3791V24.8977H85.345V26.3807H85.4473C85.648 25.892 85.9681 25.5038 86.4075 25.2159C86.8507 24.928 87.398 24.7841 88.0495 24.7841C88.6518 24.7841 89.1764 24.9129 89.6234 25.1705C90.0742 25.428 90.4226 25.8011 90.6689 26.2898C90.9189 26.7784 91.042 27.3712 91.0382 28.0682V33.625H88.9814V28.3864C88.9814 27.803 88.8298 27.3466 88.5268 27.017C88.2276 26.6875 87.8128 26.5227 87.2825 26.5227C86.9226 26.5227 86.6026 26.6023 86.3223 26.7614C86.0458 26.9167 85.8279 27.142 85.6689 27.4375C85.5136 27.733 85.4359 28.0909 85.4359 28.5114ZM96.3677 33.7784C95.6821 33.7784 95.0685 33.6023 94.5268 33.25C93.9851 32.8977 93.5571 32.3864 93.2427 31.7159C92.9283 31.0455 92.7711 30.2311 92.7711 29.2727C92.7711 28.303 92.9302 27.4848 93.2484 26.8182C93.5704 26.1477 94.0041 25.642 94.5495 25.3011C95.095 24.9564 95.7029 24.7841 96.3734 24.7841C96.8848 24.7841 97.3052 24.8712 97.6348 25.0455C97.9643 25.2159 98.2257 25.4223 98.4189 25.6648C98.612 25.9034 98.7617 26.1288 98.8677 26.3409H98.9529V21.9886H101.015V33.625H98.9927V32.25H98.8677C98.7617 32.4621 98.6083 32.6875 98.4075 32.9261C98.2067 33.161 97.9416 33.3617 97.612 33.5284C97.2825 33.6951 96.8677 33.7784 96.3677 33.7784ZM96.9416 32.0909C97.3772 32.0909 97.7484 31.9735 98.0552 31.7386C98.362 31.5 98.595 31.1686 98.7541 30.7443C98.9132 30.3201 98.9927 29.8258 98.9927 29.2614C98.9927 28.697 98.9132 28.2064 98.7541 27.7898C98.5988 27.3731 98.3677 27.0492 98.0609 26.8182C97.7579 26.5871 97.3848 26.4716 96.9416 26.4716C96.4833 26.4716 96.1007 26.5909 95.7939 26.8295C95.487 27.0682 95.256 27.3977 95.1007 27.8182C94.9454 28.2386 94.8677 28.7197 94.8677 29.2614C94.8677 29.8068 94.9454 30.2936 95.1007 30.7216C95.2598 31.1458 95.4927 31.4811 95.7995 31.7273C96.1101 31.9697 96.4908 32.0909 96.9416 32.0909ZM107.071 33.7955C106.196 33.7955 105.44 33.6136 104.804 33.25C104.171 32.8826 103.684 32.3636 103.344 31.6932C103.003 31.0189 102.832 30.2254 102.832 29.3125C102.832 28.4148 103.003 27.6269 103.344 26.9489C103.688 26.267 104.169 25.7367 104.787 25.358C105.404 24.9754 106.13 24.7841 106.963 24.7841C107.501 24.7841 108.008 24.8712 108.486 25.0455C108.967 25.2159 109.391 25.4811 109.758 25.8409C110.13 26.2008 110.421 26.6591 110.633 27.2159C110.845 27.7689 110.952 28.428 110.952 29.1932V29.8239H103.798V28.4375H108.98C108.976 28.0436 108.891 27.6932 108.724 27.3864C108.558 27.0758 108.325 26.8314 108.025 26.6534C107.73 26.4754 107.385 26.3864 106.991 26.3864C106.571 26.3864 106.202 26.4886 105.883 26.6932C105.565 26.8939 105.317 27.1591 105.139 27.4886C104.965 27.8144 104.876 28.1723 104.872 28.5625V29.7727C104.872 30.2803 104.965 30.7159 105.15 31.0795C105.336 31.4394 105.595 31.7159 105.929 31.9091C106.262 32.0985 106.652 32.1932 107.099 32.1932C107.398 32.1932 107.669 32.1515 107.912 32.0682C108.154 31.9811 108.364 31.8542 108.542 31.6875C108.72 31.5208 108.855 31.3144 108.946 31.0682L110.866 31.2841C110.745 31.7917 110.514 32.2348 110.173 32.6136C109.836 32.9886 109.404 33.2803 108.878 33.4886C108.351 33.6932 107.749 33.7955 107.071 33.7955ZM112.692 33.625V24.8977H114.686V26.3523H114.777C114.936 25.8485 115.209 25.4602 115.595 25.1875C115.985 24.911 116.43 24.7727 116.93 24.7727C117.044 24.7727 117.171 24.7784 117.311 24.7898C117.455 24.7973 117.574 24.8106 117.669 24.8295V26.7216C117.582 26.6913 117.443 26.6648 117.254 26.642C117.068 26.6155 116.889 26.6023 116.714 26.6023C116.339 26.6023 116.002 26.6837 115.703 26.8466C115.407 27.0057 115.175 27.2273 115.004 27.5114C114.834 27.7955 114.748 28.1231 114.748 28.4943V33.625H112.692ZM120.302 33.75C119.958 33.75 119.662 33.6288 119.416 33.3864C119.17 33.1439 119.049 32.8485 119.052 32.5C119.049 32.1591 119.17 31.8674 119.416 31.625C119.662 31.3826 119.958 31.2614 120.302 31.2614C120.636 31.2614 120.925 31.3826 121.172 31.625C121.422 31.8674 121.549 32.1591 121.552 32.5C121.549 32.7311 121.488 32.9413 121.371 33.1307C121.257 33.3201 121.105 33.4716 120.916 33.5852C120.73 33.6951 120.526 33.75 120.302 33.75ZM120.302 27.5227C119.958 27.5227 119.662 27.4015 119.416 27.1591C119.17 26.9129 119.049 26.6174 119.052 26.2727C119.049 25.9318 119.17 25.6402 119.416 25.3977C119.662 25.1515 119.958 25.0284 120.302 25.0284C120.636 25.0284 120.925 25.1515 121.172 25.3977C121.422 25.6402 121.549 25.9318 121.552 26.2727C121.549 26.5 121.488 26.7083 121.371 26.8977C121.257 27.0871 121.105 27.2386 120.916 27.3523C120.73 27.4659 120.526 27.5227 120.302 27.5227Z" fill="#1E4460"/>
<path d="M132.006 33.8068C131.165 33.8068 130.439 33.6212 129.829 33.25C129.223 32.875 128.756 32.3523 128.426 31.6818C128.1 31.0076 127.937 30.2235 127.937 29.3295C127.937 28.4356 128.1 27.6477 128.426 26.9659C128.756 26.2803 129.214 25.7462 129.801 25.3636C130.392 24.9773 131.081 24.7841 131.869 24.7841C132.324 24.7841 132.773 24.8598 133.216 25.0114C133.659 25.1629 134.062 25.4091 134.426 25.75C134.79 26.0871 135.079 26.5341 135.295 27.0909C135.511 27.6477 135.619 28.3333 135.619 29.1477V29.7159H128.892V28.5568H134.256C134.256 28.0644 134.157 27.625 133.96 27.2386C133.767 26.8523 133.49 26.5473 133.131 26.3239C132.774 26.1004 132.354 25.9886 131.869 25.9886C131.335 25.9886 130.873 26.1212 130.483 26.3864C130.096 26.6477 129.799 26.9886 129.591 27.4091C129.382 27.8295 129.278 28.2803 129.278 28.7614V29.5341C129.278 30.1932 129.392 30.7519 129.619 31.2102C129.85 31.6648 130.17 32.0114 130.579 32.25C130.988 32.4848 131.464 32.6023 132.006 32.6023C132.358 32.6023 132.676 32.553 132.96 32.4545C133.248 32.3523 133.496 32.2008 133.704 32C133.913 31.7955 134.074 31.5417 134.187 31.2386L135.483 31.6023C135.346 32.0417 135.117 32.428 134.795 32.7614C134.473 33.0909 134.076 33.3485 133.602 33.5341C133.129 33.7159 132.596 33.8068 132.006 33.8068ZM140.227 33.8295C139.674 33.8295 139.172 33.7254 138.721 33.517C138.271 33.3049 137.913 33 137.648 32.6023C137.382 32.2008 137.25 31.7159 137.25 31.1477C137.25 30.6477 137.348 30.2424 137.545 29.9318C137.742 29.6174 138.006 29.3712 138.335 29.1932C138.665 29.0152 139.028 28.8826 139.426 28.7955C139.827 28.7045 140.231 28.6326 140.636 28.5795C141.166 28.5114 141.596 28.4602 141.926 28.4261C142.259 28.3883 142.502 28.3258 142.653 28.2386C142.809 28.1515 142.886 28 142.886 27.7841V27.7386C142.886 27.178 142.733 26.7424 142.426 26.4318C142.123 26.1212 141.663 25.9659 141.045 25.9659C140.405 25.9659 139.903 26.1061 139.54 26.3864C139.176 26.6667 138.92 26.9659 138.773 27.2841L137.5 26.8295C137.727 26.2992 138.03 25.8864 138.409 25.5909C138.791 25.2917 139.208 25.0833 139.659 24.9659C140.113 24.8447 140.56 24.7841 141 24.7841C141.28 24.7841 141.602 24.8182 141.966 24.8864C142.333 24.9508 142.687 25.0852 143.028 25.2898C143.373 25.4943 143.659 25.803 143.886 26.2159C144.113 26.6288 144.227 27.1818 144.227 27.875V33.625H142.886V32.4432H142.818C142.727 32.6326 142.576 32.8352 142.363 33.0511C142.151 33.267 141.869 33.4508 141.517 33.6023C141.165 33.7538 140.735 33.8295 140.227 33.8295ZM140.432 32.625C140.962 32.625 141.409 32.5208 141.773 32.3125C142.14 32.1042 142.416 31.8352 142.602 31.5057C142.791 31.1761 142.886 30.8295 142.886 30.4659V29.2386C142.829 29.3068 142.704 29.3693 142.511 29.4261C142.322 29.4792 142.102 29.5265 141.852 29.5682C141.606 29.6061 141.365 29.6402 141.131 29.6705C140.899 29.697 140.712 29.7197 140.568 29.7386C140.22 29.7841 139.894 29.858 139.591 29.9602C139.291 30.0587 139.049 30.2083 138.863 30.4091C138.682 30.6061 138.591 30.875 138.591 31.2159C138.591 31.6818 138.763 32.0341 139.108 32.2727C139.456 32.5076 139.898 32.625 140.432 32.625ZM150.22 33.8068C149.402 33.8068 148.697 33.6136 148.106 33.2273C147.515 32.8409 147.061 32.3087 146.743 31.6307C146.425 30.9527 146.265 30.178 146.265 29.3068C146.265 28.4205 146.428 27.6383 146.754 26.9602C147.084 26.2784 147.542 25.7462 148.129 25.3636C148.72 24.9773 149.409 24.7841 150.197 24.7841C150.811 24.7841 151.364 24.8977 151.856 25.125C152.349 25.3523 152.752 25.6705 153.067 26.0795C153.381 26.4886 153.576 26.9659 153.652 27.5114H152.311C152.209 27.1136 151.981 26.7614 151.629 26.4545C151.281 26.1439 150.811 25.9886 150.22 25.9886C149.697 25.9886 149.239 26.125 148.845 26.3977C148.455 26.6667 148.15 27.0473 147.93 27.5398C147.714 28.0284 147.606 28.6023 147.606 29.2614C147.606 29.9356 147.712 30.5227 147.925 31.0227C148.14 31.5227 148.443 31.911 148.834 32.1875C149.228 32.464 149.69 32.6023 150.22 32.6023C150.568 32.6023 150.885 32.5417 151.169 32.4205C151.453 32.2992 151.693 32.125 151.89 31.8977C152.087 31.6705 152.228 31.3977 152.311 31.0795H153.652C153.576 31.5947 153.389 32.0587 153.089 32.4716C152.794 32.8807 152.402 33.2064 151.913 33.4489C151.428 33.6875 150.864 33.8068 150.22 33.8068ZM156.953 28.375V33.625H155.612V21.9886H156.953V26.2614H157.067C157.271 25.8106 157.578 25.4527 157.987 25.1875C158.4 24.9186 158.949 24.7841 159.635 24.7841C160.229 24.7841 160.75 24.9034 161.197 25.142C161.644 25.3769 161.991 25.7386 162.237 26.2273C162.487 26.7121 162.612 27.3295 162.612 28.0795V33.625H161.271V28.1705C161.271 27.4773 161.091 26.9413 160.731 26.5625C160.375 26.1799 159.881 25.9886 159.248 25.9886C158.809 25.9886 158.415 26.0814 158.067 26.267C157.722 26.4527 157.449 26.7235 157.248 27.0795C157.051 27.4356 156.953 27.8674 156.953 28.375ZM173.361 24.8977V26.0341H168.838V24.8977H173.361ZM170.156 22.8068H171.497V31.125C171.497 31.5038 171.552 31.7879 171.662 31.9773C171.775 32.1629 171.919 32.2879 172.094 32.3523C172.272 32.4129 172.459 32.4432 172.656 32.4432C172.804 32.4432 172.925 32.4356 173.02 32.4205C173.114 32.4015 173.19 32.3864 173.247 32.375L173.52 33.5795C173.429 33.6136 173.302 33.6477 173.139 33.6818C172.976 33.7197 172.77 33.7386 172.52 33.7386C172.141 33.7386 171.77 33.6572 171.406 33.4943C171.046 33.3314 170.747 33.0833 170.508 32.75C170.273 32.4167 170.156 31.9962 170.156 31.4886V22.8068ZM175.378 33.625V24.8977H176.719V33.625H175.378ZM176.059 23.4432C175.798 23.4432 175.573 23.3542 175.383 23.1761C175.198 22.9981 175.105 22.7841 175.105 22.5341C175.105 22.2841 175.198 22.0701 175.383 21.892C175.573 21.714 175.798 21.625 176.059 21.625C176.321 21.625 176.544 21.714 176.73 21.892C176.919 22.0701 177.014 22.2841 177.014 22.5341C177.014 22.7841 176.919 22.9981 176.73 23.1761C176.544 23.3542 176.321 23.4432 176.059 23.4432ZM179.175 33.625V24.8977H180.47V26.2614H180.584C180.765 25.7955 181.059 25.4337 181.464 25.1761C181.87 24.9148 182.356 24.7841 182.925 24.7841C183.5 24.7841 183.979 24.9148 184.362 25.1761C184.748 25.4337 185.05 25.7955 185.265 26.2614H185.356C185.58 25.8106 185.915 25.4527 186.362 25.1875C186.809 24.9186 187.345 24.7841 187.97 24.7841C188.75 24.7841 189.389 25.0284 189.885 25.517C190.381 26.0019 190.629 26.7576 190.629 27.7841V33.625H189.288V27.7841C189.288 27.1402 189.112 26.6799 188.76 26.4034C188.407 26.1269 187.993 25.9886 187.515 25.9886C186.902 25.9886 186.426 26.1742 186.089 26.5455C185.752 26.9129 185.584 27.3788 185.584 27.9432V33.625H184.22V27.6477C184.22 27.1515 184.059 26.7519 183.737 26.4489C183.415 26.142 183 25.9886 182.493 25.9886C182.144 25.9886 181.818 26.0814 181.515 26.267C181.216 26.4527 180.974 26.7102 180.788 27.0398C180.606 27.3655 180.515 27.7424 180.515 28.1705V33.625H179.175ZM196.74 33.8068C195.899 33.8068 195.174 33.6212 194.564 33.25C193.958 32.875 193.49 32.3523 193.16 31.6818C192.835 31.0076 192.672 30.2235 192.672 29.3295C192.672 28.4356 192.835 27.6477 193.16 26.9659C193.49 26.2803 193.948 25.7462 194.535 25.3636C195.126 24.9773 195.816 24.7841 196.604 24.7841C197.058 24.7841 197.507 24.8598 197.95 25.0114C198.393 25.1629 198.797 25.4091 199.16 25.75C199.524 26.0871 199.814 26.5341 200.03 27.0909C200.246 27.6477 200.354 28.3333 200.354 29.1477V29.7159H193.626V28.5568H198.99C198.99 28.0644 198.891 27.625 198.694 27.2386C198.501 26.8523 198.225 26.5473 197.865 26.3239C197.509 26.1004 197.088 25.9886 196.604 25.9886C196.069 25.9886 195.607 26.1212 195.217 26.3864C194.831 26.6477 194.533 26.9886 194.325 27.4091C194.117 27.8295 194.013 28.2803 194.013 28.7614V29.5341C194.013 30.1932 194.126 30.7519 194.354 31.2102C194.585 31.6648 194.905 32.0114 195.314 32.25C195.723 32.4848 196.198 32.6023 196.74 32.6023C197.092 32.6023 197.41 32.553 197.694 32.4545C197.982 32.3523 198.23 32.2008 198.439 32C198.647 31.7955 198.808 31.5417 198.922 31.2386L200.217 31.6023C200.081 32.0417 199.852 32.428 199.53 32.7614C199.208 33.0909 198.81 33.3485 198.336 33.5341C197.863 33.7159 197.331 33.8068 196.74 33.8068ZM207.757 36.8977C207.53 36.8977 207.327 36.8788 207.149 36.8409C206.971 36.8068 206.848 36.7727 206.78 36.7386L207.121 35.5568C207.446 35.6402 207.734 35.6705 207.984 35.6477C208.234 35.625 208.456 35.5133 208.649 35.3125C208.846 35.1155 209.026 34.7955 209.189 34.3523L209.439 33.6705L206.211 24.8977H207.666L210.075 31.8523H210.166L212.575 24.8977H214.03L210.325 34.8977C210.158 35.3485 209.952 35.7216 209.706 36.017C209.46 36.3163 209.174 36.5379 208.848 36.6818C208.526 36.8258 208.162 36.8977 207.757 36.8977ZM219.032 33.8068C218.245 33.8068 217.553 33.6193 216.959 33.2443C216.368 32.8693 215.906 32.3447 215.572 31.6705C215.243 30.9962 215.078 30.2083 215.078 29.3068C215.078 28.3977 215.243 27.6042 215.572 26.9261C215.906 26.2481 216.368 25.7216 216.959 25.3466C217.553 24.9716 218.245 24.7841 219.032 24.7841C219.82 24.7841 220.51 24.9716 221.101 25.3466C221.695 25.7216 222.157 26.2481 222.487 26.9261C222.82 27.6042 222.987 28.3977 222.987 29.3068C222.987 30.2083 222.82 30.9962 222.487 31.6705C222.157 32.3447 221.695 32.8693 221.101 33.2443C220.51 33.6193 219.82 33.8068 219.032 33.8068ZM219.032 32.6023C219.631 32.6023 220.123 32.4489 220.51 32.142C220.896 31.8352 221.182 31.4318 221.368 30.9318C221.553 30.4318 221.646 29.8902 221.646 29.3068C221.646 28.7235 221.553 28.1799 221.368 27.6761C221.182 27.1723 220.896 26.7652 220.51 26.4545C220.123 26.1439 219.631 25.9886 219.032 25.9886C218.434 25.9886 217.942 26.1439 217.555 26.4545C217.169 26.7652 216.883 27.1723 216.697 27.6761C216.512 28.1799 216.419 28.7235 216.419 29.3068C216.419 29.8902 216.512 30.4318 216.697 30.9318C216.883 31.4318 217.169 31.8352 217.555 32.142C217.942 32.4489 218.434 32.6023 219.032 32.6023ZM230.534 30.0568V24.8977H231.875V33.625H230.534V32.1477H230.443C230.238 32.5909 229.92 32.9678 229.488 33.2784C229.057 33.5852 228.511 33.7386 227.852 33.7386C227.307 33.7386 226.822 33.6193 226.398 33.3807C225.973 33.1383 225.64 32.7746 225.398 32.2898C225.155 31.8011 225.034 31.1856 225.034 30.4432V24.8977H226.375V30.3523C226.375 30.9886 226.553 31.4962 226.909 31.875C227.269 32.2538 227.727 32.4432 228.284 32.4432C228.617 32.4432 228.956 32.358 229.301 32.1875C229.649 32.017 229.941 31.7557 230.176 31.4034C230.415 31.0511 230.534 30.6023 230.534 30.0568ZM242.717 24.8977V26.0341H238.013V24.8977H242.717ZM239.422 33.625V23.6932C239.422 23.1932 239.539 22.7765 239.774 22.4432C240.009 22.1098 240.314 21.8598 240.689 21.6932C241.064 21.5265 241.46 21.4432 241.876 21.4432C242.206 21.4432 242.475 21.4697 242.683 21.5227C242.891 21.5758 243.047 21.625 243.149 21.6705L242.763 22.8295C242.694 22.8068 242.6 22.7784 242.479 22.7443C242.361 22.7102 242.206 22.6932 242.013 22.6932C241.569 22.6932 241.249 22.8049 241.052 23.0284C240.859 23.2519 240.763 23.5795 240.763 24.0114V33.625H239.422ZM247.782 33.8068C246.995 33.8068 246.303 33.6193 245.709 33.2443C245.118 32.8693 244.656 32.3447 244.322 31.6705C243.993 30.9962 243.828 30.2083 243.828 29.3068C243.828 28.3977 243.993 27.6042 244.322 26.9261C244.656 26.2481 245.118 25.7216 245.709 25.3466C246.303 24.9716 246.995 24.7841 247.782 24.7841C248.57 24.7841 249.26 24.9716 249.851 25.3466C250.445 25.7216 250.907 26.2481 251.237 26.9261C251.57 27.6042 251.737 28.3977 251.737 29.3068C251.737 30.2083 251.57 30.9962 251.237 31.6705C250.907 32.3447 250.445 32.8693 249.851 33.2443C249.26 33.6193 248.57 33.8068 247.782 33.8068ZM247.782 32.6023C248.381 32.6023 248.873 32.4489 249.26 32.142C249.646 31.8352 249.932 31.4318 250.118 30.9318C250.303 30.4318 250.396 29.8902 250.396 29.3068C250.396 28.7235 250.303 28.1799 250.118 27.6761C249.932 27.1723 249.646 26.7652 249.26 26.4545C248.873 26.1439 248.381 25.9886 247.782 25.9886C247.184 25.9886 246.692 26.1439 246.305 26.4545C245.919 26.7652 245.633 27.1723 245.447 27.6761C245.262 28.1799 245.169 28.7235 245.169 29.3068C245.169 29.8902 245.262 30.4318 245.447 30.9318C245.633 31.4318 245.919 31.8352 246.305 32.142C246.692 32.4489 247.184 32.6023 247.782 32.6023ZM255.125 21.9886V33.625H253.784V21.9886H255.125ZM258.922 21.9886V33.625H257.581V21.9886H258.922ZM264.923 33.8068C264.135 33.8068 263.444 33.6193 262.849 33.2443C262.258 32.8693 261.796 32.3447 261.463 31.6705C261.133 30.9962 260.969 30.2083 260.969 29.3068C260.969 28.3977 261.133 27.6042 261.463 26.9261C261.796 26.2481 262.258 25.7216 262.849 25.3466C263.444 24.9716 264.135 24.7841 264.923 24.7841C265.711 24.7841 266.4 24.9716 266.991 25.3466C267.586 25.7216 268.048 26.2481 268.378 26.9261C268.711 27.6042 268.878 28.3977 268.878 29.3068C268.878 30.2083 268.711 30.9962 268.378 31.6705C268.048 32.3447 267.586 32.8693 266.991 33.2443C266.4 33.6193 265.711 33.8068 264.923 33.8068ZM264.923 32.6023C265.522 32.6023 266.014 32.4489 266.4 32.142C266.787 31.8352 267.073 31.4318 267.258 30.9318C267.444 30.4318 267.537 29.8902 267.537 29.3068C267.537 28.7235 267.444 28.1799 267.258 27.6761C267.073 27.1723 266.787 26.7652 266.4 26.4545C266.014 26.1439 265.522 25.9886 264.923 25.9886C264.325 25.9886 263.832 26.1439 263.446 26.4545C263.059 26.7652 262.773 27.1723 262.588 27.6761C262.402 28.1799 262.309 28.7235 262.309 29.3068C262.309 29.8902 262.402 30.4318 262.588 30.9318C262.773 31.4318 263.059 31.8352 263.446 32.142C263.832 32.4489 264.325 32.6023 264.923 32.6023ZM272.605 33.625L269.946 24.8977H271.355L273.241 31.5795H273.332L275.196 24.8977H276.628L278.469 31.5568H278.559L280.446 24.8977H281.855L279.196 33.625H277.878L275.969 26.9205H275.832L273.923 33.625H272.605ZM293.628 30.0568V24.8977H294.969V33.625H293.628V32.1477H293.537C293.332 32.5909 293.014 32.9678 292.582 33.2784C292.15 33.5852 291.605 33.7386 290.946 33.7386C290.4 33.7386 289.916 33.6193 289.491 33.3807C289.067 33.1383 288.734 32.7746 288.491 32.2898C288.249 31.8011 288.128 31.1856 288.128 30.4432V24.8977H289.469V30.3523C289.469 30.9886 289.647 31.4962 290.003 31.875C290.363 32.2538 290.821 32.4432 291.378 32.4432C291.711 32.4432 292.05 32.358 292.395 32.1875C292.743 32.017 293.035 31.7557 293.27 31.4034C293.508 31.0511 293.628 30.6023 293.628 30.0568ZM297.425 36.8977V24.8977H298.72V26.2841H298.879C298.978 26.1326 299.114 25.9394 299.288 25.7045C299.466 25.4659 299.72 25.2538 300.05 25.0682C300.383 24.8788 300.834 24.7841 301.402 24.7841C302.137 24.7841 302.784 24.9678 303.345 25.3352C303.906 25.7027 304.343 26.2235 304.657 26.8977C304.972 27.572 305.129 28.3674 305.129 29.2841C305.129 30.2083 304.972 31.0095 304.657 31.6875C304.343 32.3617 303.907 32.8845 303.351 33.2557C302.794 33.6231 302.152 33.8068 301.425 33.8068C300.864 33.8068 300.415 33.714 300.078 33.5284C299.741 33.339 299.481 33.125 299.3 32.8864C299.118 32.6439 298.978 32.4432 298.879 32.2841H298.765V36.8977H297.425ZM298.743 29.2614C298.743 29.9205 298.839 30.5019 299.032 31.0057C299.226 31.5057 299.508 31.8977 299.879 32.1818C300.25 32.4621 300.705 32.6023 301.243 32.6023C301.803 32.6023 302.271 32.4545 302.646 32.1591C303.025 31.8598 303.309 31.4583 303.498 30.9545C303.692 30.447 303.788 29.8826 303.788 29.2614C303.788 28.6477 303.693 28.0947 303.504 27.6023C303.318 27.1061 303.036 26.714 302.657 26.4261C302.282 26.1345 301.811 25.9886 301.243 25.9886C300.697 25.9886 300.239 26.1269 299.868 26.4034C299.497 26.6761 299.216 27.0587 299.027 27.5511C298.837 28.0398 298.743 28.6098 298.743 29.2614ZM309.175 32.0341L309.084 32.6477C309.019 33.0795 308.921 33.5417 308.788 34.0341C308.659 34.5265 308.525 34.9905 308.385 35.4261C308.245 35.8617 308.129 36.2083 308.038 36.4659H307.015C307.065 36.2235 307.129 35.9034 307.209 35.5057C307.288 35.108 307.368 34.6629 307.447 34.1705C307.531 33.6818 307.599 33.1818 307.652 32.6705L307.72 32.0341H309.175ZM319.954 24.8977V26.0341H315.432V24.8977H319.954ZM316.75 22.8068H318.091V31.125C318.091 31.5038 318.146 31.7879 318.256 31.9773C318.369 32.1629 318.513 32.2879 318.687 32.3523C318.865 32.4129 319.053 32.4432 319.25 32.4432C319.398 32.4432 319.519 32.4356 319.613 32.4205C319.708 32.4015 319.784 32.3864 319.841 32.375L320.113 33.5795C320.023 33.6136 319.896 33.6477 319.733 33.6818C319.57 33.7197 319.363 33.7386 319.113 33.7386C318.735 33.7386 318.363 33.6572 318 33.4943C317.64 33.3314 317.341 33.0833 317.102 32.75C316.867 32.4167 316.75 31.9962 316.75 31.4886V22.8068ZM323.5 28.375V33.625H322.159V21.9886H323.5V26.2614H323.613C323.818 25.8106 324.125 25.4527 324.534 25.1875C324.947 24.9186 325.496 24.7841 326.182 24.7841C326.776 24.7841 327.297 24.9034 327.744 25.142C328.191 25.3769 328.538 25.7386 328.784 26.2273C329.034 26.7121 329.159 27.3295 329.159 28.0795V33.625H327.818V28.1705C327.818 27.4773 327.638 26.9413 327.278 26.5625C326.922 26.1799 326.428 25.9886 325.795 25.9886C325.356 25.9886 324.962 26.0814 324.613 26.267C324.269 26.4527 323.996 26.7235 323.795 27.0795C323.598 27.4356 323.5 27.8674 323.5 28.375ZM331.612 33.625V24.8977H332.953V33.625H331.612ZM332.294 23.4432C332.032 23.4432 331.807 23.3542 331.618 23.1761C331.432 22.9981 331.339 22.7841 331.339 22.5341C331.339 22.2841 331.432 22.0701 331.618 21.892C331.807 21.714 332.032 21.625 332.294 21.625C332.555 21.625 332.779 21.714 332.964 21.892C333.154 22.0701 333.248 22.2841 333.248 22.5341C333.248 22.7841 333.154 22.9981 332.964 23.1761C332.779 23.3542 332.555 23.4432 332.294 23.4432ZM336.75 28.375V33.625H335.409V24.8977H336.704V26.2614H336.818C337.023 25.8182 337.333 25.4621 337.75 25.1932C338.166 24.9205 338.704 24.7841 339.363 24.7841C339.954 24.7841 340.471 24.9053 340.915 25.1477C341.358 25.3864 341.702 25.75 341.949 26.2386C342.195 26.7235 342.318 27.3371 342.318 28.0795V33.625H340.977V28.1705C340.977 27.4848 340.799 26.9508 340.443 26.5682C340.087 26.1818 339.598 25.9886 338.977 25.9886C338.549 25.9886 338.166 26.0814 337.829 26.267C337.496 26.4527 337.233 26.7235 337.04 27.0795C336.846 27.4356 336.75 27.8674 336.75 28.375ZM346.018 30.4432L345.996 28.7841H346.268L350.086 24.8977H351.746L347.677 29.0114H347.564L346.018 30.4432ZM344.768 33.625V21.9886H346.109V33.625H344.768ZM350.314 33.625L346.905 29.3068L347.859 28.375L352.018 33.625H350.314ZM360.54 33.8295C359.987 33.8295 359.485 33.7254 359.034 33.517C358.583 33.3049 358.225 33 357.96 32.6023C357.695 32.2008 357.562 31.7159 357.562 31.1477C357.562 30.6477 357.661 30.2424 357.858 29.9318C358.055 29.6174 358.318 29.3712 358.648 29.1932C358.977 29.0152 359.341 28.8826 359.738 28.7955C360.14 28.7045 360.543 28.6326 360.949 28.5795C361.479 28.5114 361.909 28.4602 362.238 28.4261C362.572 28.3883 362.814 28.3258 362.966 28.2386C363.121 28.1515 363.199 28 363.199 27.7841V27.7386C363.199 27.178 363.045 26.7424 362.738 26.4318C362.435 26.1212 361.975 25.9659 361.358 25.9659C360.718 25.9659 360.216 26.1061 359.852 26.3864C359.488 26.6667 359.233 26.9659 359.085 27.2841L357.812 26.8295C358.04 26.2992 358.343 25.8864 358.721 25.5909C359.104 25.2917 359.521 25.0833 359.971 24.9659C360.426 24.8447 360.873 24.7841 361.312 24.7841C361.593 24.7841 361.915 24.8182 362.278 24.8864C362.646 24.9508 363 25.0852 363.341 25.2898C363.685 25.4943 363.971 25.803 364.199 26.2159C364.426 26.6288 364.54 27.1818 364.54 27.875V33.625H363.199V32.4432H363.131C363.04 32.6326 362.888 32.8352 362.676 33.0511C362.464 33.267 362.182 33.4508 361.829 33.6023C361.477 33.7538 361.047 33.8295 360.54 33.8295ZM360.744 32.625C361.274 32.625 361.721 32.5208 362.085 32.3125C362.452 32.1042 362.729 31.8352 362.915 31.5057C363.104 31.1761 363.199 30.8295 363.199 30.4659V29.2386C363.142 29.3068 363.017 29.3693 362.824 29.4261C362.634 29.4792 362.415 29.5265 362.165 29.5682C361.918 29.6061 361.678 29.6402 361.443 29.6705C361.212 29.697 361.024 29.7197 360.881 29.7386C360.532 29.7841 360.206 29.858 359.903 29.9602C359.604 30.0587 359.362 30.2083 359.176 30.4091C358.994 30.6061 358.903 30.875 358.903 31.2159C358.903 31.6818 359.076 32.0341 359.42 32.2727C359.769 32.5076 360.21 32.625 360.744 32.625ZM367.169 33.625V21.9886H368.51V26.2841H368.623C368.722 26.1326 368.858 25.9394 369.032 25.7045C369.211 25.4659 369.464 25.2538 369.794 25.0682C370.127 24.8788 370.578 24.7841 371.146 24.7841C371.881 24.7841 372.529 24.9678 373.089 25.3352C373.65 25.7027 374.087 26.2235 374.402 26.8977C374.716 27.572 374.873 28.3674 374.873 29.2841C374.873 30.2083 374.716 31.0095 374.402 31.6875C374.087 32.3617 373.652 32.8845 373.095 33.2557C372.538 33.6231 371.896 33.8068 371.169 33.8068C370.608 33.8068 370.159 33.714 369.822 33.5284C369.485 33.339 369.226 33.125 369.044 32.8864C368.862 32.6439 368.722 32.4432 368.623 32.2841H368.464V33.625H367.169ZM368.487 29.2614C368.487 29.9205 368.584 30.5019 368.777 31.0057C368.97 31.5057 369.252 31.8977 369.623 32.1818C369.995 32.4621 370.449 32.6023 370.987 32.6023C371.548 32.6023 372.015 32.4545 372.39 32.1591C372.769 31.8598 373.053 31.4583 373.243 30.9545C373.436 30.447 373.532 29.8826 373.532 29.2614C373.532 28.6477 373.438 28.0947 373.248 27.6023C373.063 27.1061 372.781 26.714 372.402 26.4261C372.027 26.1345 371.555 25.9886 370.987 25.9886C370.442 25.9886 369.983 26.1269 369.612 26.4034C369.241 26.6761 368.961 27.0587 368.771 27.5511C368.582 28.0398 368.487 28.6098 368.487 29.2614ZM380.47 33.8068C379.682 33.8068 378.991 33.6193 378.396 33.2443C377.805 32.8693 377.343 32.3447 377.01 31.6705C376.68 30.9962 376.515 30.2083 376.515 29.3068C376.515 28.3977 376.68 27.6042 377.01 26.9261C377.343 26.2481 377.805 25.7216 378.396 25.3466C378.991 24.9716 379.682 24.7841 380.47 24.7841C381.258 24.7841 381.947 24.9716 382.538 25.3466C383.133 25.7216 383.595 26.2481 383.925 26.9261C384.258 27.6042 384.425 28.3977 384.425 29.3068C384.425 30.2083 384.258 30.9962 383.925 31.6705C383.595 32.3447 383.133 32.8693 382.538 33.2443C381.947 33.6193 381.258 33.8068 380.47 33.8068ZM380.47 32.6023C381.068 32.6023 381.561 32.4489 381.947 32.142C382.334 31.8352 382.62 31.4318 382.805 30.9318C382.991 30.4318 383.084 29.8902 383.084 29.3068C383.084 28.7235 382.991 28.1799 382.805 27.6761C382.62 27.1723 382.334 26.7652 381.947 26.4545C381.561 26.1439 381.068 25.9886 380.47 25.9886C379.872 25.9886 379.379 26.1439 378.993 26.4545C378.606 26.7652 378.32 27.1723 378.135 27.6761C377.949 28.1799 377.856 28.7235 377.856 29.3068C377.856 29.8902 377.949 30.4318 378.135 30.9318C378.32 31.4318 378.606 31.8352 378.993 32.142C379.379 32.4489 379.872 32.6023 380.47 32.6023ZM391.971 30.0568V24.8977H393.312V33.625H391.971V32.1477H391.881C391.676 32.5909 391.358 32.9678 390.926 33.2784C390.494 33.5852 389.949 33.7386 389.29 33.7386C388.744 33.7386 388.259 33.6193 387.835 33.3807C387.411 33.1383 387.077 32.7746 386.835 32.2898C386.593 31.8011 386.471 31.1856 386.471 30.4432V24.8977H387.812V30.3523C387.812 30.9886 387.99 31.4962 388.346 31.875C388.706 32.2538 389.165 32.4432 389.721 32.4432C390.055 32.4432 390.394 32.358 390.738 32.1875C391.087 32.017 391.379 31.7557 391.613 31.4034C391.852 31.0511 391.971 30.6023 391.971 30.0568ZM399.564 24.8977V26.0341H395.041V24.8977H399.564ZM396.359 22.8068H397.7V31.125C397.7 31.5038 397.755 31.7879 397.865 31.9773C397.979 32.1629 398.122 32.2879 398.297 32.3523C398.475 32.4129 398.662 32.4432 398.859 32.4432C399.007 32.4432 399.128 32.4356 399.223 32.4205C399.318 32.4015 399.393 32.3864 399.45 32.375L399.723 33.5795C399.632 33.6136 399.505 33.6477 399.342 33.6818C399.179 33.7197 398.973 33.7386 398.723 33.7386C398.344 33.7386 397.973 33.6572 397.609 33.4943C397.249 33.3314 396.95 33.0833 396.711 32.75C396.477 32.4167 396.359 31.9962 396.359 31.4886V22.8068ZM408.058 33.625L405.399 24.8977H406.808L408.694 31.5795H408.785L410.649 24.8977H412.081L413.922 31.5568H414.013L415.899 24.8977H417.308L414.649 33.625H413.331L411.422 26.9205H411.285L409.376 33.625H408.058ZM420.422 28.375V33.625H419.081V21.9886H420.422V26.2614H420.535C420.74 25.8106 421.047 25.4527 421.456 25.1875C421.869 24.9186 422.418 24.7841 423.104 24.7841C423.698 24.7841 424.219 24.9034 424.666 25.142C425.113 25.3769 425.46 25.7386 425.706 26.2273C425.956 26.7121 426.081 27.3295 426.081 28.0795V33.625H424.74V28.1705C424.74 27.4773 424.56 26.9413 424.2 26.5625C423.844 26.1799 423.35 25.9886 422.717 25.9886C422.278 25.9886 421.884 26.0814 421.535 26.267C421.191 26.4527 420.918 26.7235 420.717 27.0795C420.52 27.4356 420.422 27.8674 420.422 28.375ZM431.102 33.8295C430.549 33.8295 430.047 33.7254 429.596 33.517C429.146 33.3049 428.788 33 428.523 32.6023C428.257 32.2008 428.125 31.7159 428.125 31.1477C428.125 30.6477 428.223 30.2424 428.42 29.9318C428.617 29.6174 428.881 29.3712 429.21 29.1932C429.54 29.0152 429.903 28.8826 430.301 28.7955C430.702 28.7045 431.106 28.6326 431.511 28.5795C432.041 28.5114 432.471 28.4602 432.801 28.4261C433.134 28.3883 433.377 28.3258 433.528 28.2386C433.684 28.1515 433.761 28 433.761 27.7841V27.7386C433.761 27.178 433.608 26.7424 433.301 26.4318C432.998 26.1212 432.538 25.9659 431.92 25.9659C431.28 25.9659 430.778 26.1061 430.415 26.3864C430.051 26.6667 429.795 26.9659 429.648 27.2841L428.375 26.8295C428.602 26.2992 428.905 25.8864 429.284 25.5909C429.666 25.2917 430.083 25.0833 430.534 24.9659C430.988 24.8447 431.435 24.7841 431.875 24.7841C432.155 24.7841 432.477 24.8182 432.841 24.8864C433.208 24.9508 433.562 25.0852 433.903 25.2898C434.248 25.4943 434.534 25.803 434.761 26.2159C434.988 26.6288 435.102 27.1818 435.102 27.875V33.625H433.761V32.4432H433.693C433.602 32.6326 433.451 32.8352 433.238 33.0511C433.026 33.267 432.744 33.4508 432.392 33.6023C432.04 33.7538 431.61 33.8295 431.102 33.8295ZM431.307 32.625C431.837 32.625 432.284 32.5208 432.648 32.3125C433.015 32.1042 433.291 31.8352 433.477 31.5057C433.666 31.1761 433.761 30.8295 433.761 30.4659V29.2386C433.704 29.3068 433.579 29.3693 433.386 29.4261C433.197 29.4792 432.977 29.5265 432.727 29.5682C432.481 29.6061 432.24 29.6402 432.006 29.6705C431.774 29.697 431.587 29.7197 431.443 29.7386C431.095 29.7841 430.769 29.858 430.466 29.9602C430.166 30.0587 429.924 30.2083 429.738 30.4091C429.557 30.6061 429.466 30.875 429.466 31.2159C429.466 31.6818 429.638 32.0341 429.983 32.2727C430.331 32.5076 430.773 32.625 431.307 32.625ZM441.345 24.8977V26.0341H436.822V24.8977H441.345ZM438.14 22.8068H439.481V31.125C439.481 31.5038 439.536 31.7879 439.646 31.9773C439.76 32.1629 439.904 32.2879 440.078 32.3523C440.256 32.4129 440.443 32.4432 440.64 32.4432C440.788 32.4432 440.909 32.4356 441.004 32.4205C441.099 32.4015 441.175 32.3864 441.231 32.375L441.504 33.5795C441.413 33.6136 441.286 33.6477 441.123 33.6818C440.961 33.7197 440.754 33.7386 440.504 33.7386C440.125 33.7386 439.754 33.6572 439.39 33.4943C439.031 33.3314 438.731 33.0833 438.493 32.75C438.258 32.4167 438.14 31.9962 438.14 31.4886V22.8068ZM448.726 36.8977C448.498 36.8977 448.296 36.8788 448.118 36.8409C447.94 36.8068 447.817 36.7727 447.748 36.7386L448.089 35.5568C448.415 35.6402 448.703 35.6705 448.953 35.6477C449.203 35.625 449.425 35.5133 449.618 35.3125C449.815 35.1155 449.995 34.7955 450.157 34.3523L450.407 33.6705L447.18 24.8977H448.635L451.044 31.8523H451.135L453.544 24.8977H454.998L451.294 34.8977C451.127 35.3485 450.921 35.7216 450.675 36.017C450.428 36.3163 450.142 36.5379 449.817 36.6818C449.495 36.8258 449.131 36.8977 448.726 36.8977ZM460.001 33.8068C459.213 33.8068 458.522 33.6193 457.927 33.2443C457.336 32.8693 456.874 32.3447 456.541 31.6705C456.211 30.9962 456.047 30.2083 456.047 29.3068C456.047 28.3977 456.211 27.6042 456.541 26.9261C456.874 26.2481 457.336 25.7216 457.927 25.3466C458.522 24.9716 459.213 24.7841 460.001 24.7841C460.789 24.7841 461.479 24.9716 462.069 25.3466C462.664 25.7216 463.126 26.2481 463.456 26.9261C463.789 27.6042 463.956 28.3977 463.956 29.3068C463.956 30.2083 463.789 30.9962 463.456 31.6705C463.126 32.3447 462.664 32.8693 462.069 33.2443C461.479 33.6193 460.789 33.8068 460.001 33.8068ZM460.001 32.6023C460.6 32.6023 461.092 32.4489 461.479 32.142C461.865 31.8352 462.151 31.4318 462.336 30.9318C462.522 30.4318 462.615 29.8902 462.615 29.3068C462.615 28.7235 462.522 28.1799 462.336 27.6761C462.151 27.1723 461.865 26.7652 461.479 26.4545C461.092 26.1439 460.6 25.9886 460.001 25.9886C459.403 25.9886 458.91 26.1439 458.524 26.4545C458.138 26.7652 457.852 27.1723 457.666 27.6761C457.48 28.1799 457.388 28.7235 457.388 29.3068C457.388 29.8902 457.48 30.4318 457.666 30.9318C457.852 31.4318 458.138 31.8352 458.524 32.142C458.91 32.4489 459.403 32.6023 460.001 32.6023ZM471.503 30.0568V24.8977H472.844V33.625H471.503V32.1477H471.412C471.207 32.5909 470.889 32.9678 470.457 33.2784C470.025 33.5852 469.48 33.7386 468.821 33.7386C468.275 33.7386 467.791 33.6193 467.366 33.3807C466.942 33.1383 466.609 32.7746 466.366 32.2898C466.124 31.8011 466.003 31.1856 466.003 30.4432V24.8977H467.344V30.3523C467.344 30.9886 467.522 31.4962 467.878 31.875C468.238 32.2538 468.696 32.4432 469.253 32.4432C469.586 32.4432 469.925 32.358 470.27 32.1875C470.618 32.017 470.91 31.7557 471.145 31.4034C471.383 31.0511 471.503 30.6023 471.503 30.0568ZM483.345 33.8068C482.527 33.8068 481.822 33.6136 481.231 33.2273C480.64 32.8409 480.186 32.3087 479.868 31.6307C479.55 30.9527 479.39 30.178 479.39 29.3068C479.39 28.4205 479.553 27.6383 479.879 26.9602C480.209 26.2784 480.667 25.7462 481.254 25.3636C481.845 24.9773 482.534 24.7841 483.322 24.7841C483.936 24.7841 484.489 24.8977 484.981 25.125C485.474 25.3523 485.877 25.6705 486.192 26.0795C486.506 26.4886 486.701 26.9659 486.777 27.5114H485.436C485.334 27.1136 485.106 26.7614 484.754 26.4545C484.406 26.1439 483.936 25.9886 483.345 25.9886C482.822 25.9886 482.364 26.125 481.97 26.3977C481.58 26.6667 481.275 27.0473 481.055 27.5398C480.839 28.0284 480.731 28.6023 480.731 29.2614C480.731 29.9356 480.837 30.5227 481.05 31.0227C481.265 31.5227 481.568 31.911 481.959 32.1875C482.353 32.464 482.815 32.6023 483.345 32.6023C483.693 32.6023 484.01 32.5417 484.294 32.4205C484.578 32.2992 484.818 32.125 485.015 31.8977C485.212 31.6705 485.353 31.3977 485.436 31.0795H486.777C486.701 31.5947 486.514 32.0587 486.214 32.4716C485.919 32.8807 485.527 33.2064 485.038 33.4489C484.553 33.6875 483.989 33.8068 483.345 33.8068ZM491.305 33.8295C490.752 33.8295 490.25 33.7254 489.8 33.517C489.349 33.3049 488.991 33 488.726 32.6023C488.461 32.2008 488.328 31.7159 488.328 31.1477C488.328 30.6477 488.426 30.2424 488.623 29.9318C488.82 29.6174 489.084 29.3712 489.413 29.1932C489.743 29.0152 490.106 28.8826 490.504 28.7955C490.906 28.7045 491.309 28.6326 491.714 28.5795C492.245 28.5114 492.675 28.4602 493.004 28.4261C493.337 28.3883 493.58 28.3258 493.731 28.2386C493.887 28.1515 493.964 28 493.964 27.7841V27.7386C493.964 27.178 493.811 26.7424 493.504 26.4318C493.201 26.1212 492.741 25.9659 492.123 25.9659C491.483 25.9659 490.981 26.1061 490.618 26.3864C490.254 26.6667 489.998 26.9659 489.851 27.2841L488.578 26.8295C488.805 26.2992 489.108 25.8864 489.487 25.5909C489.87 25.2917 490.286 25.0833 490.737 24.9659C491.192 24.8447 491.639 24.7841 492.078 24.7841C492.358 24.7841 492.68 24.8182 493.044 24.8864C493.411 24.9508 493.765 25.0852 494.106 25.2898C494.451 25.4943 494.737 25.803 494.964 26.2159C495.192 26.6288 495.305 27.1818 495.305 27.875V33.625H493.964V32.4432H493.896C493.805 32.6326 493.654 32.8352 493.442 33.0511C493.229 33.267 492.947 33.4508 492.595 33.6023C492.243 33.7538 491.813 33.8295 491.305 33.8295ZM491.51 32.625C492.04 32.625 492.487 32.5208 492.851 32.3125C493.218 32.1042 493.495 31.8352 493.68 31.5057C493.87 31.1761 493.964 30.8295 493.964 30.4659V29.2386C493.907 29.3068 493.782 29.3693 493.589 29.4261C493.4 29.4792 493.18 29.5265 492.93 29.5682C492.684 29.6061 492.443 29.6402 492.209 29.6705C491.978 29.697 491.79 29.7197 491.646 29.7386C491.298 29.7841 490.972 29.858 490.669 29.9602C490.37 30.0587 490.127 30.2083 489.942 30.4091C489.76 30.6061 489.669 30.875 489.669 31.2159C489.669 31.6818 489.841 32.0341 490.186 32.2727C490.534 32.5076 490.976 32.625 491.51 32.625ZM499.094 28.375V33.625H497.753V24.8977H499.048V26.2614H499.162C499.366 25.8182 499.677 25.4621 500.094 25.1932C500.51 24.9205 501.048 24.7841 501.707 24.7841C502.298 24.7841 502.815 24.9053 503.258 25.1477C503.702 25.3864 504.046 25.75 504.292 26.2386C504.539 26.7235 504.662 27.3371 504.662 28.0795V33.625H503.321V28.1705C503.321 27.4848 503.143 26.9508 502.787 26.5682C502.431 26.1818 501.942 25.9886 501.321 25.9886C500.893 25.9886 500.51 26.0814 500.173 26.267C499.84 26.4527 499.577 26.7235 499.383 27.0795C499.19 27.4356 499.094 27.8674 499.094 28.375ZM514.907 33.8068C514.18 33.8068 513.538 33.6231 512.981 33.2557C512.425 32.8845 511.989 32.3617 511.675 31.6875C511.36 31.0095 511.203 30.2083 511.203 29.2841C511.203 28.3674 511.36 27.572 511.675 26.8977C511.989 26.2235 512.426 25.7027 512.987 25.3352C513.548 24.9678 514.195 24.7841 514.93 24.7841C515.498 24.7841 515.947 24.8788 516.277 25.0682C516.61 25.2538 516.864 25.4659 517.038 25.7045C517.216 25.9394 517.354 26.1326 517.453 26.2841H517.567V21.9886H518.907V33.625H517.612V32.2841H517.453C517.354 32.4432 517.214 32.6439 517.032 32.8864C516.851 33.125 516.591 33.339 516.254 33.5284C515.917 33.714 515.468 33.8068 514.907 33.8068ZM515.089 32.6023C515.627 32.6023 516.082 32.4621 516.453 32.1818C516.824 31.8977 517.106 31.5057 517.3 31.0057C517.493 30.5019 517.589 29.9205 517.589 29.2614C517.589 28.6098 517.495 28.0398 517.305 27.5511C517.116 27.0587 516.836 26.6761 516.464 26.4034C516.093 26.1269 515.635 25.9886 515.089 25.9886C514.521 25.9886 514.048 26.1345 513.669 26.4261C513.294 26.714 513.012 27.1061 512.822 27.6023C512.637 28.0947 512.544 28.6477 512.544 29.2614C512.544 29.8826 512.639 30.447 512.828 30.9545C513.021 31.4583 513.305 31.8598 513.68 32.1591C514.059 32.4545 514.529 32.6023 515.089 32.6023ZM525.095 33.8068C524.307 33.8068 523.616 33.6193 523.021 33.2443C522.43 32.8693 521.968 32.3447 521.635 31.6705C521.305 30.9962 521.14 30.2083 521.14 29.3068C521.14 28.3977 521.305 27.6042 521.635 26.9261C521.968 26.2481 522.43 25.7216 523.021 25.3466C523.616 24.9716 524.307 24.7841 525.095 24.7841C525.883 24.7841 526.572 24.9716 527.163 25.3466C527.758 25.7216 528.22 26.2481 528.55 26.9261C528.883 27.6042 529.05 28.3977 529.05 29.3068C529.05 30.2083 528.883 30.9962 528.55 31.6705C528.22 32.3447 527.758 32.8693 527.163 33.2443C526.572 33.6193 525.883 33.8068 525.095 33.8068ZM525.095 32.6023C525.693 32.6023 526.186 32.4489 526.572 32.142C526.959 31.8352 527.245 31.4318 527.43 30.9318C527.616 30.4318 527.709 29.8902 527.709 29.3068C527.709 28.7235 527.616 28.1799 527.43 27.6761C527.245 27.1723 526.959 26.7652 526.572 26.4545C526.186 26.1439 525.693 25.9886 525.095 25.9886C524.497 25.9886 524.004 26.1439 523.618 26.4545C523.231 26.7652 522.945 27.1723 522.76 27.6761C522.574 28.1799 522.481 28.7235 522.481 29.3068C522.481 29.8902 522.574 30.4318 522.76 30.9318C522.945 31.4318 523.231 31.8352 523.618 32.142C524.004 32.4489 524.497 32.6023 525.095 32.6023ZM539.392 24.8977V26.0341H534.869V24.8977H539.392ZM536.187 22.8068H537.528V31.125C537.528 31.5038 537.583 31.7879 537.693 31.9773C537.807 32.1629 537.951 32.2879 538.125 32.3523C538.303 32.4129 538.49 32.4432 538.687 32.4432C538.835 32.4432 538.956 32.4356 539.051 32.4205C539.146 32.4015 539.221 32.3864 539.278 32.375L539.551 33.5795C539.46 33.6136 539.333 33.6477 539.17 33.6818C539.007 33.7197 538.801 33.7386 538.551 33.7386C538.172 33.7386 537.801 33.6572 537.437 33.4943C537.077 33.3314 536.778 33.0833 536.54 32.75C536.305 32.4167 536.187 31.9962 536.187 31.4886V22.8068ZM544.861 33.8068C544.073 33.8068 543.381 33.6193 542.787 33.2443C542.196 32.8693 541.734 32.3447 541.4 31.6705C541.071 30.9962 540.906 30.2083 540.906 29.3068C540.906 28.3977 541.071 27.6042 541.4 26.9261C541.734 26.2481 542.196 25.7216 542.787 25.3466C543.381 24.9716 544.073 24.7841 544.861 24.7841C545.648 24.7841 546.338 24.9716 546.929 25.3466C547.523 25.7216 547.986 26.2481 548.315 26.9261C548.648 27.6042 548.815 28.3977 548.815 29.3068C548.815 30.2083 548.648 30.9962 548.315 31.6705C547.986 32.3447 547.523 32.8693 546.929 33.2443C546.338 33.6193 545.648 33.8068 544.861 33.8068ZM544.861 32.6023C545.459 32.6023 545.952 32.4489 546.338 32.142C546.724 31.8352 547.01 31.4318 547.196 30.9318C547.381 30.4318 547.474 29.8902 547.474 29.3068C547.474 28.7235 547.381 28.1799 547.196 27.6761C547.01 27.1723 546.724 26.7652 546.338 26.4545C545.952 26.1439 545.459 25.9886 544.861 25.9886C544.262 25.9886 543.77 26.1439 543.383 26.4545C542.997 26.7652 542.711 27.1723 542.525 27.6761C542.34 28.1799 542.247 28.7235 542.247 29.3068C542.247 29.8902 542.34 30.4318 542.525 30.9318C542.711 31.4318 542.997 31.8352 543.383 32.142C543.77 32.4489 544.262 32.6023 544.861 32.6023ZM46.5936 51.375V56.625H45.2527V44.9886H46.5936V49.2614H46.7072C46.9118 48.8106 47.2186 48.4527 47.6277 48.1875C48.0405 47.9186 48.5898 47.7841 49.2754 47.7841C49.8701 47.7841 50.3909 47.9034 50.8379 48.142C51.2849 48.3769 51.6315 48.7386 51.8777 49.2273C52.1277 49.7121 52.2527 50.3295 52.2527 51.0795V56.625H50.9118V51.1705C50.9118 50.4773 50.7318 49.9413 50.372 49.5625C50.0159 49.1799 49.5216 48.9886 48.889 48.9886C48.4496 48.9886 48.0557 49.0814 47.7072 49.267C47.3625 49.4527 47.0898 49.7235 46.889 50.0795C46.6921 50.4356 46.5936 50.8674 46.5936 51.375ZM58.3649 56.8068C57.524 56.8068 56.7986 56.6212 56.1887 56.25C55.5827 55.875 55.1149 55.3523 54.7853 54.6818C54.4596 54.0076 54.2967 53.2235 54.2967 52.3295C54.2967 51.4356 54.4596 50.6477 54.7853 49.9659C55.1149 49.2803 55.5732 48.7462 56.1603 48.3636C56.7512 47.9773 57.4406 47.7841 58.2285 47.7841C58.6831 47.7841 59.1319 47.8598 59.5751 48.0114C60.0183 48.1629 60.4217 48.4091 60.7853 48.75C61.149 49.0871 61.4387 49.5341 61.6547 50.0909C61.8706 50.6477 61.9785 51.3333 61.9785 52.1477V52.7159H55.2512V51.5568H60.6149C60.6149 51.0644 60.5164 50.625 60.3194 50.2386C60.1262 49.8523 59.8497 49.5473 59.4899 49.3239C59.1338 49.1004 58.7134 48.9886 58.2285 48.9886C57.6944 48.9886 57.2323 49.1212 56.8422 49.3864C56.4558 49.6477 56.1584 49.9886 55.9501 50.4091C55.7418 50.8295 55.6376 51.2803 55.6376 51.7614V52.5341C55.6376 53.1932 55.7512 53.7519 55.9785 54.2102C56.2096 54.6648 56.5297 55.0114 56.9387 55.25C57.3478 55.4848 57.8232 55.6023 58.3649 55.6023C58.7172 55.6023 59.0353 55.553 59.3194 55.4545C59.6073 55.3523 59.8554 55.2008 60.0637 55C60.2721 54.7955 60.4331 54.5417 60.5467 54.2386L61.8422 54.6023C61.7058 55.0417 61.4766 55.428 61.1547 55.7614C60.8327 56.0909 60.435 56.3485 59.9615 56.5341C59.488 56.7159 58.9558 56.8068 58.3649 56.8068ZM65.3592 44.9886V56.625H64.0183V44.9886H65.3592ZM67.8152 59.8977V47.8977H69.1106V49.2841H69.2697C69.3682 49.1326 69.5046 48.9394 69.6788 48.7045C69.8568 48.4659 70.1106 48.2538 70.4402 48.0682C70.7735 47.8788 71.2243 47.7841 71.7924 47.7841C72.5273 47.7841 73.175 47.9678 73.7356 48.3352C74.2962 48.7027 74.7337 49.2235 75.0481 49.8977C75.3625 50.572 75.5197 51.3674 75.5197 52.2841C75.5197 53.2083 75.3625 54.0095 75.0481 54.6875C74.7337 55.3617 74.2981 55.8845 73.7413 56.2557C73.1845 56.6231 72.5424 56.8068 71.8152 56.8068C71.2546 56.8068 70.8057 56.714 70.4686 56.5284C70.1315 56.339 69.872 56.125 69.6902 55.8864C69.5083 55.6439 69.3682 55.4432 69.2697 55.2841H69.1561V59.8977H67.8152ZM69.1333 52.2614C69.1333 52.9205 69.2299 53.5019 69.4231 54.0057C69.6163 54.5057 69.8985 54.8977 70.2697 55.1818C70.6409 55.4621 71.0955 55.6023 71.6333 55.6023C72.194 55.6023 72.6618 55.4545 73.0368 55.1591C73.4155 54.8598 73.6996 54.4583 73.889 53.9545C74.0822 53.447 74.1788 52.8826 74.1788 52.2614C74.1788 51.6477 74.0841 51.0947 73.8947 50.6023C73.7091 50.1061 73.4269 49.714 73.0481 49.4261C72.6731 49.1345 72.2015 48.9886 71.6333 48.9886C71.0879 48.9886 70.6296 49.1269 70.2583 49.4034C69.8871 49.6761 69.6068 50.0587 69.4174 50.5511C69.228 51.0398 69.1333 51.6098 69.1333 52.2614ZM85.8606 47.8977V49.0341H81.3379V47.8977H85.8606ZM82.6561 45.8068H83.997V54.125C83.997 54.5038 84.0519 54.7879 84.1618 54.9773C84.2754 55.1629 84.4193 55.2879 84.5936 55.3523C84.7716 55.4129 84.9591 55.4432 85.1561 55.4432C85.3038 55.4432 85.425 55.4356 85.5197 55.4205C85.6144 55.4015 85.6902 55.3864 85.747 55.375L86.0197 56.5795C85.9288 56.6136 85.8019 56.6477 85.639 56.6818C85.4761 56.7197 85.2697 56.7386 85.0197 56.7386C84.6409 56.7386 84.2697 56.6572 83.9061 56.4943C83.5462 56.3314 83.247 56.0833 83.0083 55.75C82.7735 55.4167 82.6561 54.9962 82.6561 54.4886V45.8068ZM89.4061 51.375V56.625H88.0652V44.9886H89.4061V49.2614H89.5197C89.7243 48.8106 90.0311 48.4527 90.4402 48.1875C90.853 47.9186 91.4023 47.7841 92.0879 47.7841C92.6826 47.7841 93.2034 47.9034 93.6504 48.142C94.0974 48.3769 94.444 48.7386 94.6902 49.2273C94.9402 49.7121 95.0652 50.3295 95.0652 51.0795V56.625H93.7243V51.1705C93.7243 50.4773 93.5443 49.9413 93.1845 49.5625C92.8284 49.1799 92.3341 48.9886 91.7015 48.9886C91.2621 48.9886 90.8682 49.0814 90.5197 49.267C90.175 49.4527 89.9023 49.7235 89.7015 50.0795C89.5046 50.4356 89.4061 50.8674 89.4061 51.375ZM97.5183 56.625V47.8977H98.8592V56.625H97.5183ZM98.2001 46.4432C97.9387 46.4432 97.7134 46.3542 97.524 46.1761C97.3384 45.9981 97.2456 45.7841 97.2456 45.5341C97.2456 45.2841 97.3384 45.0701 97.524 44.892C97.7134 44.714 97.9387 44.625 98.2001 44.625C98.4615 44.625 98.685 44.714 98.8706 44.892C99.06 45.0701 99.1547 45.2841 99.1547 45.5341C99.1547 45.7841 99.06 45.9981 98.8706 46.1761C98.685 46.3542 98.4615 46.4432 98.2001 46.4432ZM107.497 49.8523L106.292 50.1932C106.217 49.9924 106.105 49.7973 105.957 49.608C105.813 49.4148 105.616 49.2557 105.366 49.1307C105.116 49.0057 104.796 48.9432 104.406 48.9432C103.872 48.9432 103.427 49.0663 103.071 49.3125C102.719 49.5549 102.542 49.8636 102.542 50.2386C102.542 50.572 102.664 50.8352 102.906 51.0284C103.148 51.2216 103.527 51.3826 104.042 51.5114L105.338 51.8295C106.118 52.0189 106.7 52.3087 107.082 52.6989C107.465 53.0852 107.656 53.5833 107.656 54.1932C107.656 54.6932 107.512 55.1402 107.224 55.5341C106.94 55.928 106.542 56.2386 106.031 56.4659C105.52 56.6932 104.925 56.8068 104.247 56.8068C103.357 56.8068 102.62 56.6136 102.037 56.2273C101.453 55.8409 101.084 55.2765 100.929 54.5341L102.202 54.2159C102.323 54.6856 102.552 55.0379 102.889 55.2727C103.23 55.5076 103.675 55.625 104.224 55.625C104.849 55.625 105.345 55.4924 105.713 55.2273C106.084 54.9583 106.27 54.6364 106.27 54.2614C106.27 53.9583 106.164 53.7045 105.952 53.5C105.739 53.2917 105.414 53.1364 104.974 53.0341L103.52 52.6932C102.72 52.5038 102.133 52.2102 101.758 51.8125C101.387 51.411 101.202 50.9091 101.202 50.3068C101.202 49.8144 101.34 49.3788 101.616 49C101.897 48.6212 102.277 48.3239 102.758 48.108C103.243 47.892 103.792 47.7841 104.406 47.7841C105.27 47.7841 105.948 47.9735 106.44 48.3523C106.936 48.7311 107.289 49.2311 107.497 49.8523ZM114.175 59.8977V47.8977H115.47V49.2841H115.629C115.728 49.1326 115.864 48.9394 116.038 48.7045C116.216 48.4659 116.47 48.2538 116.8 48.0682C117.133 47.8788 117.584 47.7841 118.152 47.7841C118.887 47.7841 119.534 47.9678 120.095 48.3352C120.656 48.7027 121.093 49.2235 121.407 49.8977C121.722 50.572 121.879 51.3674 121.879 52.2841C121.879 53.2083 121.722 54.0095 121.407 54.6875C121.093 55.3617 120.657 55.8845 120.101 56.2557C119.544 56.6231 118.902 56.8068 118.175 56.8068C117.614 56.8068 117.165 56.714 116.828 56.5284C116.491 56.339 116.231 56.125 116.05 55.8864C115.868 55.6439 115.728 55.4432 115.629 55.2841H115.515V59.8977H114.175ZM115.493 52.2614C115.493 52.9205 115.589 53.5019 115.782 54.0057C115.976 54.5057 116.258 54.8977 116.629 55.1818C117 55.4621 117.455 55.6023 117.993 55.6023C118.553 55.6023 119.021 55.4545 119.396 55.1591C119.775 54.8598 120.059 54.4583 120.248 53.9545C120.442 53.447 120.538 52.8826 120.538 52.2614C120.538 51.6477 120.443 51.0947 120.254 50.6023C120.068 50.1061 119.786 49.714 119.407 49.4261C119.032 49.1345 118.561 48.9886 117.993 48.9886C117.447 48.9886 116.989 49.1269 116.618 49.4034C116.247 49.6761 115.966 50.0587 115.777 50.5511C115.587 51.0398 115.493 51.6098 115.493 52.2614ZM127.584 56.8068C126.743 56.8068 126.017 56.6212 125.407 56.25C124.801 55.875 124.334 55.3523 124.004 54.6818C123.678 54.0076 123.515 53.2235 123.515 52.3295C123.515 51.4356 123.678 50.6477 124.004 49.9659C124.334 49.2803 124.792 48.7462 125.379 48.3636C125.97 47.9773 126.659 47.7841 127.447 47.7841C127.902 47.7841 128.351 47.8598 128.794 48.0114C129.237 48.1629 129.64 48.4091 130.004 48.75C130.368 49.0871 130.657 49.5341 130.873 50.0909C131.089 50.6477 131.197 51.3333 131.197 52.1477V52.7159H124.47V51.5568H129.834C129.834 51.0644 129.735 50.625 129.538 50.2386C129.345 49.8523 129.068 49.5473 128.709 49.3239C128.353 49.1004 127.932 48.9886 127.447 48.9886C126.913 48.9886 126.451 49.1212 126.061 49.3864C125.675 49.6477 125.377 49.9886 125.169 50.4091C124.961 50.8295 124.856 51.2803 124.856 51.7614V52.5341C124.856 53.1932 124.97 53.7519 125.197 54.2102C125.428 54.6648 125.748 55.0114 126.157 55.25C126.567 55.4848 127.042 55.6023 127.584 55.6023C127.936 55.6023 128.254 55.553 128.538 55.4545C128.826 55.3523 129.074 55.2008 129.282 55C129.491 54.7955 129.652 54.5417 129.765 54.2386L131.061 54.6023C130.925 55.0417 130.695 55.428 130.373 55.7614C130.051 56.0909 129.654 56.3485 129.18 56.5341C128.707 56.7159 128.175 56.8068 127.584 56.8068ZM133.237 56.625V47.8977H134.532V49.2159H134.623C134.782 48.7841 135.07 48.4337 135.487 48.1648C135.904 47.8958 136.373 47.7614 136.896 47.7614C136.995 47.7614 137.118 47.7633 137.265 47.767C137.413 47.7708 137.525 47.7765 137.601 47.7841V49.1477C137.555 49.1364 137.451 49.1193 137.288 49.0966C137.129 49.0701 136.961 49.0568 136.782 49.0568C136.358 49.0568 135.979 49.1458 135.646 49.3239C135.317 49.4981 135.055 49.7405 134.862 50.0511C134.673 50.358 134.578 50.7083 134.578 51.1023V56.625H133.237ZM145.372 49.8523L144.167 50.1932C144.092 49.9924 143.98 49.7973 143.832 49.608C143.688 49.4148 143.491 49.2557 143.241 49.1307C142.991 49.0057 142.671 48.9432 142.281 48.9432C141.747 48.9432 141.302 49.0663 140.946 49.3125C140.594 49.5549 140.417 49.8636 140.417 50.2386C140.417 50.572 140.539 50.8352 140.781 51.0284C141.023 51.2216 141.402 51.3826 141.917 51.5114L143.213 51.8295C143.993 52.0189 144.575 52.3087 144.957 52.6989C145.34 53.0852 145.531 53.5833 145.531 54.1932C145.531 54.6932 145.387 55.1402 145.099 55.5341C144.815 55.928 144.417 56.2386 143.906 56.4659C143.395 56.6932 142.8 56.8068 142.122 56.8068C141.232 56.8068 140.495 56.6136 139.912 56.2273C139.328 55.8409 138.959 55.2765 138.804 54.5341L140.077 54.2159C140.198 54.6856 140.427 55.0379 140.764 55.2727C141.105 55.5076 141.55 55.625 142.099 55.625C142.724 55.625 143.22 55.4924 143.588 55.2273C143.959 54.9583 144.145 54.6364 144.145 54.2614C144.145 53.9583 144.039 53.7045 143.827 53.5C143.614 53.2917 143.289 53.1364 142.849 53.0341L141.395 52.6932C140.595 52.5038 140.008 52.2102 139.633 51.8125C139.262 51.411 139.077 50.9091 139.077 50.3068C139.077 49.8144 139.215 49.3788 139.491 49C139.772 48.6212 140.152 48.3239 140.633 48.108C141.118 47.892 141.667 47.7841 142.281 47.7841C143.145 47.7841 143.823 47.9735 144.315 48.3523C144.811 48.7311 145.164 49.2311 145.372 49.8523ZM151.095 56.8068C150.307 56.8068 149.616 56.6193 149.021 56.2443C148.43 55.8693 147.968 55.3447 147.635 54.6705C147.305 53.9962 147.14 53.2083 147.14 52.3068C147.14 51.3977 147.305 50.6042 147.635 49.9261C147.968 49.2481 148.43 48.7216 149.021 48.3466C149.616 47.9716 150.307 47.7841 151.095 47.7841C151.883 47.7841 152.572 47.9716 153.163 48.3466C153.758 48.7216 154.22 49.2481 154.55 49.9261C154.883 50.6042 155.05 51.3977 155.05 52.3068C155.05 53.2083 154.883 53.9962 154.55 54.6705C154.22 55.3447 153.758 55.8693 153.163 56.2443C152.572 56.6193 151.883 56.8068 151.095 56.8068ZM151.095 55.6023C151.693 55.6023 152.186 55.4489 152.572 55.142C152.959 54.8352 153.245 54.4318 153.43 53.9318C153.616 53.4318 153.709 52.8902 153.709 52.3068C153.709 51.7235 153.616 51.1799 153.43 50.6761C153.245 50.1723 152.959 49.7652 152.572 49.4545C152.186 49.1439 151.693 48.9886 151.095 48.9886C150.497 48.9886 150.004 49.1439 149.618 49.4545C149.231 49.7652 148.945 50.1723 148.76 50.6761C148.574 51.1799 148.481 51.7235 148.481 52.3068C148.481 52.8902 148.574 53.4318 148.76 53.9318C148.945 54.4318 149.231 54.8352 149.618 55.142C150.004 55.4489 150.497 55.6023 151.095 55.6023ZM158.437 51.375V56.625H157.096V47.8977H158.392V49.2614H158.506C158.71 48.8182 159.021 48.4621 159.437 48.1932C159.854 47.9205 160.392 47.7841 161.051 47.7841C161.642 47.7841 162.159 47.9053 162.602 48.1477C163.045 48.3864 163.39 48.75 163.636 49.2386C163.882 49.7235 164.006 50.3371 164.006 51.0795V56.625H162.665V51.1705C162.665 50.4848 162.487 49.9508 162.131 49.5682C161.774 49.1818 161.286 48.9886 160.665 48.9886C160.237 48.9886 159.854 49.0814 159.517 49.267C159.184 49.4527 158.92 49.7235 158.727 50.0795C158.534 50.4356 158.437 50.8674 158.437 51.375ZM167.433 56.7159C167.153 56.7159 166.912 56.6155 166.711 56.4148C166.511 56.214 166.41 55.9735 166.41 55.6932C166.41 55.4129 166.511 55.1723 166.711 54.9716C166.912 54.7708 167.153 54.6705 167.433 54.6705C167.713 54.6705 167.954 54.7708 168.155 54.9716C168.355 55.1723 168.456 55.4129 168.456 55.6932C168.456 55.8788 168.408 56.0492 168.314 56.2045C168.223 56.3598 168.1 56.4848 167.944 56.5795C167.793 56.6705 167.622 56.7159 167.433 56.7159ZM179.18 56.625H175.413V44.9886H179.3C180.44 44.9886 181.419 45.2216 182.237 45.6875C183.055 46.1496 183.682 46.8144 184.118 47.6818C184.557 48.5455 184.777 49.5814 184.777 50.7898C184.777 52.0019 184.555 53.0436 184.112 53.9148C183.673 54.786 183.036 55.4564 182.203 55.9261C181.37 56.392 180.362 56.625 179.18 56.625ZM177.169 55.0909H179.084C179.97 55.0909 180.707 54.9242 181.294 54.5909C181.881 54.2538 182.32 53.767 182.612 53.1307C182.904 52.4905 183.05 51.7102 183.05 50.7898C183.05 49.8769 182.904 49.1023 182.612 48.4659C182.324 47.8295 181.894 47.3466 181.322 47.017C180.75 46.6875 180.04 46.5227 179.192 46.5227H177.169V55.0909ZM190.5 56.8011C189.682 56.8011 188.968 56.6136 188.358 56.2386C187.748 55.8636 187.274 55.339 186.937 54.6648C186.6 53.9905 186.432 53.2027 186.432 52.3011C186.432 51.3958 186.6 50.6042 186.937 49.9261C187.274 49.2481 187.748 48.7216 188.358 48.3466C188.968 47.9716 189.682 47.7841 190.5 47.7841C191.318 47.7841 192.032 47.9716 192.642 48.3466C193.252 48.7216 193.725 49.2481 194.062 49.9261C194.399 50.6042 194.568 51.3958 194.568 52.3011C194.568 53.2027 194.399 53.9905 194.062 54.6648C193.725 55.339 193.252 55.8636 192.642 56.2386C192.032 56.6136 191.318 56.8011 190.5 56.8011ZM190.506 55.375C191.036 55.375 191.475 55.2348 191.824 54.9545C192.172 54.6742 192.43 54.3011 192.596 53.8352C192.767 53.3693 192.852 52.8561 192.852 52.2955C192.852 51.7386 192.767 51.2273 192.596 50.7614C192.43 50.2917 192.172 49.9148 191.824 49.6307C191.475 49.3466 191.036 49.2045 190.506 49.2045C189.971 49.2045 189.528 49.3466 189.176 49.6307C188.827 49.9148 188.568 50.2917 188.398 50.7614C188.231 51.2273 188.148 51.7386 188.148 52.2955C188.148 52.8561 188.231 53.3693 188.398 53.8352C188.568 54.3011 188.827 54.6742 189.176 54.9545C189.528 55.2348 189.971 55.375 190.506 55.375ZM198.163 51.4432V56.625H196.464V47.8977H198.095V49.3182H198.203C198.404 48.8561 198.718 48.4848 199.146 48.2045C199.578 47.9242 200.122 47.7841 200.777 47.7841C201.372 47.7841 201.892 47.9091 202.339 48.1591C202.786 48.4053 203.133 48.7727 203.379 49.2614C203.625 49.75 203.748 50.3542 203.748 51.0739V56.625H202.05V51.2784C202.05 50.6458 201.885 50.1515 201.555 49.7955C201.226 49.4356 200.773 49.2557 200.197 49.2557C199.803 49.2557 199.453 49.3409 199.146 49.5114C198.843 49.6818 198.603 49.9318 198.425 50.2614C198.25 50.5871 198.163 50.9811 198.163 51.4432ZM207.317 44.9886V49.1307H205.907V44.9886H207.317ZM213.585 47.8977V49.2614H208.818V47.8977H213.585ZM210.096 45.8068H211.795V54.0625C211.795 54.392 211.845 54.6402 211.943 54.8068C212.041 54.9697 212.168 55.0814 212.324 55.142C212.483 55.1989 212.655 55.2273 212.841 55.2273C212.977 55.2273 213.096 55.2178 213.199 55.1989C213.301 55.1799 213.381 55.1648 213.437 55.1534L213.744 56.5568C213.646 56.5947 213.506 56.6326 213.324 56.6705C213.142 56.7121 212.915 56.7348 212.642 56.7386C212.195 56.7462 211.778 56.6667 211.392 56.5C211.006 56.3333 210.693 56.0758 210.454 55.7273C210.216 55.3788 210.096 54.9413 210.096 54.4148V45.8068ZM219.699 47.8977H221.398V57.1932C221.398 57.7765 221.291 58.2689 221.079 58.6705C220.871 59.072 220.56 59.3769 220.148 59.5852C219.738 59.7936 219.233 59.8977 218.631 59.8977C218.57 59.8977 218.513 59.8977 218.46 59.8977C218.403 59.8977 218.345 59.8958 218.284 59.892V58.4318C218.337 58.4318 218.384 58.4318 218.426 58.4318C218.464 58.4318 218.507 58.4318 218.557 58.4318C218.958 58.4318 219.248 58.3239 219.426 58.108C219.608 57.8958 219.699 57.5871 219.699 57.1818V47.8977ZM220.54 46.5511C220.244 46.5511 219.99 46.4527 219.778 46.2557C219.57 46.0549 219.466 45.8163 219.466 45.5398C219.466 45.2595 219.57 45.0208 219.778 44.8239C219.99 44.6231 220.244 44.5227 220.54 44.5227C220.835 44.5227 221.087 44.6231 221.295 44.8239C221.507 45.0208 221.613 45.2595 221.613 45.5398C221.613 45.8163 221.507 46.0549 221.295 46.2557C221.087 46.4527 220.835 46.5511 220.54 46.5511ZM229.211 53.0057V47.8977H230.916V56.625H229.246V55.1136H229.155C228.954 55.5795 228.632 55.9678 228.189 56.2784C227.749 56.5852 227.202 56.7386 226.547 56.7386C225.986 56.7386 225.49 56.6155 225.058 56.3693C224.63 56.1193 224.293 55.75 224.047 55.2614C223.804 54.7727 223.683 54.1686 223.683 53.4489V47.8977H225.382V53.2443C225.382 53.839 225.547 54.3125 225.876 54.6648C226.206 55.017 226.634 55.1932 227.16 55.1932C227.479 55.1932 227.795 55.1136 228.109 54.9545C228.427 54.7955 228.691 54.5549 228.899 54.233C229.111 53.911 229.215 53.5019 229.211 53.0057ZM239.738 50.0284L238.199 50.3011C238.134 50.1042 238.032 49.9167 237.892 49.7386C237.756 49.5606 237.57 49.4148 237.335 49.3011C237.1 49.1875 236.807 49.1307 236.454 49.1307C235.973 49.1307 235.572 49.2386 235.25 49.4545C234.928 49.6667 234.767 49.9413 234.767 50.2784C234.767 50.5701 234.875 50.8049 235.091 50.983C235.307 51.161 235.655 51.3068 236.136 51.4205L237.523 51.7386C238.326 51.9242 238.924 52.2102 239.318 52.5966C239.712 52.983 239.909 53.4848 239.909 54.1023C239.909 54.625 239.757 55.0909 239.454 55.5C239.155 55.9053 238.737 56.2235 238.199 56.4545C237.665 56.6856 237.045 56.8011 236.341 56.8011C235.363 56.8011 234.566 56.5928 233.949 56.1761C233.331 55.7557 232.952 55.1591 232.812 54.3864L234.454 54.1364C234.557 54.5644 234.767 54.8883 235.085 55.108C235.403 55.3239 235.818 55.4318 236.329 55.4318C236.886 55.4318 237.331 55.3163 237.665 55.0852C237.998 54.8504 238.165 54.5644 238.165 54.2273C238.165 53.9545 238.062 53.7254 237.858 53.5398C237.657 53.3542 237.348 53.214 236.932 53.1193L235.454 52.7955C234.64 52.6098 234.038 52.3144 233.648 51.9091C233.261 51.5038 233.068 50.9905 233.068 50.3693C233.068 49.8542 233.212 49.4034 233.5 49.017C233.788 48.6307 234.185 48.3295 234.693 48.1136C235.201 47.8939 235.782 47.7841 236.437 47.7841C237.381 47.7841 238.123 47.9886 238.665 48.3977C239.206 48.803 239.564 49.3466 239.738 50.0284ZM245.851 47.8977V49.2614H241.084V47.8977H245.851ZM242.362 45.8068H244.061V54.0625C244.061 54.392 244.11 54.6402 244.209 54.8068C244.307 54.9697 244.434 55.0814 244.589 55.142C244.748 55.1989 244.921 55.2273 245.106 55.2273C245.243 55.2273 245.362 55.2178 245.464 55.1989C245.567 55.1799 245.646 55.1648 245.703 55.1534L246.01 56.5568C245.911 56.5947 245.771 56.6326 245.589 56.6705C245.407 56.7121 245.18 56.7348 244.907 56.7386C244.461 56.7462 244.044 56.6667 243.657 56.5C243.271 56.3333 242.959 56.0758 242.72 55.7273C242.481 55.3788 242.362 54.9413 242.362 54.4148V45.8068ZM251.964 56.625V47.8977H253.606V49.2841H253.697C253.856 48.8144 254.137 48.4451 254.538 48.1761C254.943 47.9034 255.402 47.767 255.913 47.767C256.019 47.767 256.144 47.7708 256.288 47.7784C256.436 47.786 256.551 47.7955 256.635 47.8068V49.4318C256.567 49.4129 256.445 49.392 256.271 49.3693C256.097 49.3428 255.923 49.3295 255.748 49.3295C255.347 49.3295 254.989 49.4148 254.675 49.5852C254.364 49.7519 254.118 49.9848 253.936 50.2841C253.754 50.5795 253.663 50.9167 253.663 51.2955V56.625H251.964ZM261.554 56.8011C260.694 56.8011 259.953 56.6174 259.332 56.25C258.715 55.8788 258.238 55.358 257.9 54.6875C257.567 54.0133 257.4 53.2235 257.4 52.3182C257.4 51.4242 257.567 50.6364 257.9 49.9545C258.238 49.2727 258.707 48.7405 259.309 48.358C259.916 47.9754 260.624 47.7841 261.434 47.7841C261.927 47.7841 262.404 47.8655 262.866 48.0284C263.328 48.1913 263.743 48.447 264.111 48.7955C264.478 49.1439 264.768 49.5966 264.98 50.1534C265.192 50.7064 265.298 51.3788 265.298 52.1705V52.7727H258.361V51.5H263.633C263.633 51.053 263.542 50.6572 263.361 50.3125C263.179 49.964 262.923 49.6894 262.594 49.4886C262.268 49.2879 261.885 49.1875 261.446 49.1875C260.969 49.1875 260.552 49.3049 260.196 49.5398C259.844 49.7708 259.571 50.0739 259.378 50.4489C259.188 50.8201 259.094 51.2235 259.094 51.6591V52.6534C259.094 53.2367 259.196 53.733 259.4 54.142C259.609 54.5511 259.898 54.8636 260.27 55.0795C260.641 55.2917 261.075 55.3977 261.571 55.3977C261.893 55.3977 262.186 55.3523 262.452 55.2614C262.717 55.1667 262.946 55.0265 263.139 54.8409C263.332 54.6553 263.48 54.4261 263.582 54.1534L265.19 54.4432C265.061 54.9167 264.83 55.3314 264.497 55.6875C264.167 56.0398 263.753 56.3144 263.253 56.5114C262.756 56.7045 262.19 56.8011 261.554 56.8011ZM269.723 56.8182C269.17 56.8182 268.67 56.7159 268.223 56.5114C267.776 56.303 267.422 56.0019 267.16 55.608C266.903 55.214 266.774 54.7311 266.774 54.1591C266.774 53.6667 266.869 53.2614 267.058 52.9432C267.247 52.625 267.503 52.3731 267.825 52.1875C268.147 52.0019 268.507 51.8617 268.905 51.767C269.302 51.6723 269.708 51.6004 270.121 51.5511C270.643 51.4905 271.068 51.4413 271.393 51.4034C271.719 51.3617 271.956 51.2955 272.104 51.2045C272.251 51.1136 272.325 50.9659 272.325 50.7614V50.7216C272.325 50.2254 272.185 49.8409 271.905 49.5682C271.628 49.2955 271.215 49.1591 270.666 49.1591C270.094 49.1591 269.643 49.286 269.314 49.5398C268.988 49.7898 268.763 50.0682 268.638 50.375L267.041 50.0114C267.23 49.4811 267.507 49.053 267.871 48.7273C268.238 48.3977 268.66 48.1591 269.138 48.0114C269.615 47.8598 270.117 47.7841 270.643 47.7841C270.992 47.7841 271.361 47.8258 271.751 47.9091C272.145 47.9886 272.513 48.1364 272.854 48.3523C273.198 48.5682 273.48 48.8769 273.7 49.2784C273.92 49.6761 274.03 50.1932 274.03 50.8295V56.625H272.371V55.4318H272.302C272.193 55.6515 272.028 55.8674 271.808 56.0795C271.588 56.2917 271.306 56.4678 270.961 56.608C270.617 56.7481 270.204 56.8182 269.723 56.8182ZM270.092 55.4545C270.562 55.4545 270.963 55.3617 271.297 55.1761C271.634 54.9905 271.89 54.7481 272.064 54.4489C272.242 54.1458 272.331 53.822 272.331 53.4773V52.3523C272.27 52.4129 272.153 52.4697 271.979 52.5227C271.808 52.572 271.613 52.6155 271.393 52.6534C271.174 52.6875 270.96 52.7197 270.751 52.75C270.543 52.7765 270.369 52.7992 270.229 52.8182C269.899 52.8598 269.598 52.9299 269.325 53.0284C269.056 53.1269 268.84 53.2689 268.677 53.4545C268.518 53.6364 268.439 53.8788 268.439 54.1818C268.439 54.6023 268.594 54.9205 268.905 55.1364C269.215 55.3485 269.611 55.4545 270.092 55.4545ZM279.969 56.8011C279.124 56.8011 278.397 56.6098 277.787 56.2273C277.181 55.8409 276.715 55.3087 276.389 54.6307C276.063 53.9527 275.9 53.1761 275.9 52.3011C275.9 51.4148 276.067 50.6326 276.4 49.9545C276.734 49.2727 277.203 48.7405 277.809 48.358C278.416 47.9754 279.13 47.7841 279.952 47.7841C280.614 47.7841 281.205 47.9072 281.724 48.1534C282.243 48.3958 282.662 48.7367 282.98 49.1761C283.302 49.6155 283.493 50.1288 283.554 50.7159H281.9C281.809 50.3068 281.601 49.9545 281.275 49.6591C280.953 49.3636 280.522 49.2159 279.98 49.2159C279.506 49.2159 279.092 49.3409 278.736 49.5909C278.383 49.8371 278.109 50.1894 277.912 50.6477C277.715 51.1023 277.616 51.6402 277.616 52.2614C277.616 52.8977 277.713 53.447 277.906 53.9091C278.099 54.3712 278.372 54.7292 278.724 54.983C279.08 55.2367 279.499 55.3636 279.98 55.3636C280.302 55.3636 280.594 55.3049 280.855 55.1875C281.12 55.0663 281.342 54.8939 281.52 54.6705C281.702 54.447 281.828 54.178 281.9 53.8636H283.554C283.493 54.428 283.309 54.9318 283.003 55.375C282.696 55.8182 282.285 56.1667 281.77 56.4205C281.258 56.6742 280.658 56.8011 279.969 56.8011ZM287.069 51.4432V56.625H285.371V44.9886H287.047V49.3182H287.155C287.359 48.8485 287.672 48.4754 288.092 48.1989C288.513 47.9223 289.062 47.7841 289.74 47.7841C290.338 47.7841 290.861 47.9072 291.308 48.1534C291.759 48.3996 292.107 48.767 292.354 49.2557C292.604 49.7405 292.729 50.3466 292.729 51.0739V56.625H291.03V51.2784C291.03 50.6383 290.865 50.142 290.535 49.7898C290.206 49.4337 289.747 49.2557 289.16 49.2557C288.759 49.2557 288.399 49.3409 288.081 49.5114C287.766 49.6818 287.518 49.9318 287.336 50.2614C287.158 50.5871 287.069 50.9811 287.069 51.4432ZM302.906 56.8011C302.088 56.8011 301.374 56.6136 300.764 56.2386C300.154 55.8636 299.681 55.339 299.344 54.6648C299.006 53.9905 298.838 53.2027 298.838 52.3011C298.838 51.3958 299.006 50.6042 299.344 49.9261C299.681 49.2481 300.154 48.7216 300.764 48.3466C301.374 47.9716 302.088 47.7841 302.906 47.7841C303.724 47.7841 304.438 47.9716 305.048 48.3466C305.658 48.7216 306.131 49.2481 306.469 49.9261C306.806 50.6042 306.974 51.3958 306.974 52.3011C306.974 53.2027 306.806 53.9905 306.469 54.6648C306.131 55.339 305.658 55.8636 305.048 56.2386C304.438 56.6136 303.724 56.8011 302.906 56.8011ZM302.912 55.375C303.442 55.375 303.881 55.2348 304.23 54.9545C304.578 54.6742 304.836 54.3011 305.003 53.8352C305.173 53.3693 305.258 52.8561 305.258 52.2955C305.258 51.7386 305.173 51.2273 305.003 50.7614C304.836 50.2917 304.578 49.9148 304.23 49.6307C303.881 49.3466 303.442 49.2045 302.912 49.2045C302.378 49.2045 301.934 49.3466 301.582 49.6307C301.234 49.9148 300.974 50.2917 300.804 50.7614C300.637 51.2273 300.554 51.7386 300.554 52.2955C300.554 52.8561 300.637 53.3693 300.804 53.8352C300.974 54.3011 301.234 54.6742 301.582 54.9545C301.934 55.2348 302.378 55.375 302.912 55.375ZM314.399 53.0057V47.8977H316.104V56.625H314.433V55.1136H314.342C314.141 55.5795 313.819 55.9678 313.376 56.2784C312.937 56.5852 312.39 56.7386 311.734 56.7386C311.174 56.7386 310.677 56.6155 310.246 56.3693C309.818 56.1193 309.48 55.75 309.234 55.2614C308.992 54.7727 308.871 54.1686 308.871 53.4489V47.8977H310.569V53.2443C310.569 53.839 310.734 54.3125 311.064 54.6648C311.393 55.017 311.821 55.1932 312.348 55.1932C312.666 55.1932 312.982 55.1136 313.297 54.9545C313.615 54.7955 313.878 54.5549 314.086 54.233C314.299 53.911 314.403 53.5019 314.399 53.0057ZM322.46 47.8977V49.2614H317.693V47.8977H322.46ZM318.971 45.8068H320.67V54.0625C320.67 54.392 320.72 54.6402 320.818 54.8068C320.916 54.9697 321.043 55.0814 321.199 55.142C321.358 55.1989 321.53 55.2273 321.716 55.2273C321.852 55.2273 321.971 55.2178 322.074 55.1989C322.176 55.1799 322.256 55.1648 322.312 55.1534L322.619 56.5568C322.521 56.5947 322.381 56.6326 322.199 56.6705C322.017 56.7121 321.79 56.7348 321.517 56.7386C321.07 56.7462 320.653 56.6667 320.267 56.5C319.881 56.3333 319.568 56.0758 319.329 55.7273C319.091 55.3788 318.971 54.9413 318.971 54.4148V45.8068ZM330.466 56.625L327.898 47.8977H329.653L331.363 54.3068H331.449L333.165 47.8977H334.92L336.625 54.2784H336.71L338.409 47.8977H340.165L337.602 56.625H335.869L334.096 50.3239H333.966L332.193 56.625H330.466ZM343.476 51.4432V56.625H341.777V44.9886H343.453V49.3182H343.561C343.765 48.8485 344.078 48.4754 344.498 48.1989C344.919 47.9223 345.468 47.7841 346.146 47.7841C346.745 47.7841 347.267 47.9072 347.714 48.1534C348.165 48.3996 348.514 48.767 348.76 49.2557C349.01 49.7405 349.135 50.3466 349.135 51.0739V56.625H347.436V51.2784C347.436 50.6383 347.271 50.142 346.942 49.7898C346.612 49.4337 346.154 49.2557 345.567 49.2557C345.165 49.2557 344.805 49.3409 344.487 49.5114C344.173 49.6818 343.925 49.9318 343.743 50.2614C343.565 50.5871 343.476 50.9811 343.476 51.4432ZM355.163 56.8011C354.303 56.8011 353.563 56.6174 352.942 56.25C352.324 55.8788 351.847 55.358 351.51 54.6875C351.176 54.0133 351.01 53.2235 351.01 52.3182C351.01 51.4242 351.176 50.6364 351.51 49.9545C351.847 49.2727 352.317 48.7405 352.919 48.358C353.525 47.9754 354.233 47.7841 355.044 47.7841C355.536 47.7841 356.014 47.8655 356.476 48.0284C356.938 48.1913 357.353 48.447 357.72 48.7955C358.087 49.1439 358.377 49.5966 358.589 50.1534C358.801 50.7064 358.907 51.3788 358.907 52.1705V52.7727H351.97V51.5H357.243C357.243 51.053 357.152 50.6572 356.97 50.3125C356.788 49.964 356.532 49.6894 356.203 49.4886C355.877 49.2879 355.495 49.1875 355.055 49.1875C354.578 49.1875 354.161 49.3049 353.805 49.5398C353.453 49.7708 353.18 50.0739 352.987 50.4489C352.798 50.8201 352.703 51.2235 352.703 51.6591V52.6534C352.703 53.2367 352.805 53.733 353.01 54.142C353.218 54.5511 353.508 54.8636 353.879 55.0795C354.25 55.2917 354.684 55.3977 355.18 55.3977C355.502 55.3977 355.796 55.3523 356.061 55.2614C356.326 55.1667 356.555 55.0265 356.748 54.8409C356.942 54.6553 357.089 54.4261 357.192 54.1534L358.8 54.4432C358.671 54.9167 358.44 55.3314 358.106 55.6875C357.777 56.0398 357.362 56.3144 356.862 56.5114C356.366 56.7045 355.8 56.8011 355.163 56.8011ZM362.491 51.4432V56.625H360.792V47.8977H362.423V49.3182H362.531C362.732 48.8561 363.046 48.4848 363.474 48.2045C363.906 47.9242 364.45 47.7841 365.105 47.7841C365.7 47.7841 366.22 47.9091 366.667 48.1591C367.114 48.4053 367.461 48.7727 367.707 49.2614C367.953 49.75 368.077 50.3542 368.077 51.0739V56.625H366.378V51.2784C366.378 50.6458 366.213 50.1515 365.883 49.7955C365.554 49.4356 365.101 49.2557 364.525 49.2557C364.131 49.2557 363.781 49.3409 363.474 49.5114C363.171 49.6818 362.931 49.9318 362.753 50.2614C362.578 50.5871 362.491 50.9811 362.491 51.4432ZM375.663 59.8977C375.409 59.8977 375.178 59.8769 374.97 59.8352C374.762 59.7973 374.606 59.7557 374.504 59.7102L374.913 58.3182C375.224 58.4015 375.5 58.4375 375.743 58.4261C375.985 58.4148 376.199 58.3239 376.385 58.1534C376.574 57.983 376.741 57.7045 376.885 57.3182L377.095 56.7386L373.902 47.8977H375.72L377.93 54.6705H378.021L380.231 47.8977H382.055L378.459 57.7898C378.292 58.2443 378.08 58.6288 377.822 58.9432C377.565 59.2614 377.258 59.5 376.902 59.6591C376.546 59.8182 376.133 59.8977 375.663 59.8977ZM387.031 56.8011C386.213 56.8011 385.499 56.6136 384.889 56.2386C384.279 55.8636 383.806 55.339 383.469 54.6648C383.131 53.9905 382.963 53.2027 382.963 52.3011C382.963 51.3958 383.131 50.6042 383.469 49.9261C383.806 49.2481 384.279 48.7216 384.889 48.3466C385.499 47.9716 386.213 47.7841 387.031 47.7841C387.849 47.7841 388.563 47.9716 389.173 48.3466C389.783 48.7216 390.256 49.2481 390.594 49.9261C390.931 50.6042 391.099 51.3958 391.099 52.3011C391.099 53.2027 390.931 53.9905 390.594 54.6648C390.256 55.339 389.783 55.8636 389.173 56.2386C388.563 56.6136 387.849 56.8011 387.031 56.8011ZM387.037 55.375C387.567 55.375 388.006 55.2348 388.355 54.9545C388.703 54.6742 388.961 54.3011 389.128 53.8352C389.298 53.3693 389.383 52.8561 389.383 52.2955C389.383 51.7386 389.298 51.2273 389.128 50.7614C388.961 50.2917 388.703 49.9148 388.355 49.6307C388.006 49.3466 387.567 49.2045 387.037 49.2045C386.503 49.2045 386.059 49.3466 385.707 49.6307C385.359 49.9148 385.099 50.2917 384.929 50.7614C384.762 51.2273 384.679 51.7386 384.679 52.2955C384.679 52.8561 384.762 53.3693 384.929 53.8352C385.099 54.3011 385.359 54.6742 385.707 54.9545C386.059 55.2348 386.503 55.375 387.037 55.375ZM398.524 53.0057V47.8977H400.229V56.625H398.558V55.1136H398.467C398.266 55.5795 397.944 55.9678 397.501 56.2784C397.062 56.5852 396.515 56.7386 395.859 56.7386C395.299 56.7386 394.802 56.6155 394.371 56.3693C393.943 56.1193 393.605 55.75 393.359 55.2614C393.117 54.7727 392.996 54.1686 392.996 53.4489V47.8977H394.694V53.2443C394.694 53.839 394.859 54.3125 395.189 54.6648C395.518 55.017 395.946 55.1932 396.473 55.1932C396.791 55.1932 397.107 55.1136 397.422 54.9545C397.74 54.7955 398.003 54.5549 398.211 54.233C398.424 53.911 398.528 53.5019 398.524 53.0057ZM408.444 51.4432V56.625H406.746V47.8977H408.376V49.3182H408.484C408.685 48.8561 408.999 48.4848 409.427 48.2045C409.859 47.9242 410.403 47.7841 411.058 47.7841C411.653 47.7841 412.174 47.9091 412.621 48.1591C413.068 48.4053 413.414 48.7727 413.66 49.2614C413.907 49.75 414.03 50.3542 414.03 51.0739V56.625H412.331V51.2784C412.331 50.6458 412.166 50.1515 411.836 49.7955C411.507 49.4356 411.054 49.2557 410.479 49.2557C410.085 49.2557 409.734 49.3409 409.427 49.5114C409.124 49.6818 408.884 49.9318 408.706 50.2614C408.532 50.5871 408.444 50.9811 408.444 51.4432ZM420.069 56.8011C419.21 56.8011 418.469 56.6174 417.848 56.25C417.23 55.8788 416.753 55.358 416.416 54.6875C416.083 54.0133 415.916 53.2235 415.916 52.3182C415.916 51.4242 416.083 50.6364 416.416 49.9545C416.753 49.2727 417.223 48.7405 417.825 48.358C418.431 47.9754 419.14 47.7841 419.95 47.7841C420.443 47.7841 420.92 47.8655 421.382 48.0284C421.844 48.1913 422.259 48.447 422.626 48.7955C422.994 49.1439 423.283 49.5966 423.496 50.1534C423.708 50.7064 423.814 51.3788 423.814 52.1705V52.7727H416.876V51.5H422.149C422.149 51.053 422.058 50.6572 421.876 50.3125C421.694 49.964 421.439 49.6894 421.109 49.4886C420.783 49.2879 420.401 49.1875 419.961 49.1875C419.484 49.1875 419.068 49.3049 418.711 49.5398C418.359 49.7708 418.086 50.0739 417.893 50.4489C417.704 50.8201 417.609 51.2235 417.609 51.6591V52.6534C417.609 53.2367 417.711 53.733 417.916 54.142C418.124 54.5511 418.414 54.8636 418.785 55.0795C419.157 55.2917 419.59 55.3977 420.086 55.3977C420.408 55.3977 420.702 55.3523 420.967 55.2614C421.232 55.1667 421.461 55.0265 421.655 54.8409C421.848 54.6553 421.996 54.4261 422.098 54.1534L423.706 54.4432C423.577 54.9167 423.346 55.3314 423.013 55.6875C422.683 56.0398 422.268 56.3144 421.768 56.5114C421.272 56.7045 420.706 56.8011 420.069 56.8011ZM429.46 56.8011C428.6 56.8011 427.86 56.6174 427.238 56.25C426.621 55.8788 426.144 55.358 425.807 54.6875C425.473 54.0133 425.307 53.2235 425.307 52.3182C425.307 51.4242 425.473 50.6364 425.807 49.9545C426.144 49.2727 426.613 48.7405 427.216 48.358C427.822 47.9754 428.53 47.7841 429.341 47.7841C429.833 47.7841 430.31 47.8655 430.773 48.0284C431.235 48.1913 431.649 48.447 432.017 48.7955C432.384 49.1439 432.674 49.5966 432.886 50.1534C433.098 50.7064 433.204 51.3788 433.204 52.1705V52.7727H426.267V51.5H431.54C431.54 51.053 431.449 50.6572 431.267 50.3125C431.085 49.964 430.829 49.6894 430.5 49.4886C430.174 49.2879 429.791 49.1875 429.352 49.1875C428.875 49.1875 428.458 49.3049 428.102 49.5398C427.75 49.7708 427.477 50.0739 427.284 50.4489C427.095 50.8201 427 51.2235 427 51.6591V52.6534C427 53.2367 427.102 53.733 427.307 54.142C427.515 54.5511 427.805 54.8636 428.176 55.0795C428.547 55.2917 428.981 55.3977 429.477 55.3977C429.799 55.3977 430.093 55.3523 430.358 55.2614C430.623 55.1667 430.852 55.0265 431.045 54.8409C431.238 54.6553 431.386 54.4261 431.488 54.1534L433.096 54.4432C432.968 54.9167 432.737 55.3314 432.403 55.6875C432.074 56.0398 431.659 56.3144 431.159 56.5114C430.663 56.7045 430.096 56.8011 429.46 56.8011ZM438.356 56.7955C437.652 56.7955 437.023 56.6155 436.47 56.2557C435.921 55.892 435.489 55.375 435.175 54.7045C434.864 54.0303 434.709 53.2216 434.709 52.2784C434.709 51.3352 434.866 50.5284 435.18 49.858C435.498 49.1875 435.934 48.6742 436.487 48.3182C437.04 47.9621 437.667 47.7841 438.368 47.7841C438.909 47.7841 439.345 47.875 439.675 48.0568C440.008 48.2348 440.265 48.4432 440.447 48.6818C440.633 48.9205 440.777 49.1307 440.879 49.3125H440.981V44.9886H442.68V56.625H441.021V55.267H440.879C440.777 55.4527 440.629 55.6648 440.436 55.9034C440.247 56.142 439.985 56.3504 439.652 56.5284C439.318 56.7064 438.887 56.7955 438.356 56.7955ZM438.731 55.3466C439.22 55.3466 439.633 55.2178 439.97 54.9602C440.311 54.6989 440.568 54.3371 440.743 53.875C440.921 53.4129 441.01 52.875 441.01 52.2614C441.01 51.6553 440.923 51.125 440.748 50.6705C440.574 50.2159 440.318 49.8617 439.981 49.608C439.644 49.3542 439.228 49.2273 438.731 49.2273C438.22 49.2273 437.794 49.3598 437.453 49.625C437.112 49.8902 436.854 50.2519 436.68 50.7102C436.51 51.1686 436.425 51.6856 436.425 52.2614C436.425 52.8447 436.512 53.3693 436.686 53.8352C436.86 54.3011 437.118 54.6705 437.459 54.9432C437.803 55.2121 438.228 55.3466 438.731 55.3466ZM455.879 50.0284L454.339 50.3011C454.275 50.1042 454.173 49.9167 454.032 49.7386C453.896 49.5606 453.711 49.4148 453.476 49.3011C453.241 49.1875 452.947 49.1307 452.595 49.1307C452.114 49.1307 451.712 49.2386 451.39 49.4545C451.068 49.6667 450.907 49.9413 450.907 50.2784C450.907 50.5701 451.015 50.8049 451.231 50.983C451.447 51.161 451.796 51.3068 452.277 51.4205L453.663 51.7386C454.466 51.9242 455.065 52.2102 455.459 52.5966C455.853 52.983 456.05 53.4848 456.05 54.1023C456.05 54.625 455.898 55.0909 455.595 55.5C455.296 55.9053 454.877 56.2235 454.339 56.4545C453.805 56.6856 453.186 56.8011 452.481 56.8011C451.504 56.8011 450.707 56.5928 450.089 56.1761C449.472 55.7557 449.093 55.1591 448.953 54.3864L450.595 54.1364C450.697 54.5644 450.907 54.8883 451.226 55.108C451.544 55.3239 451.959 55.4318 452.47 55.4318C453.027 55.4318 453.472 55.3163 453.805 55.0852C454.139 54.8504 454.305 54.5644 454.305 54.2273C454.305 53.9545 454.203 53.7254 453.998 53.5398C453.798 53.3542 453.489 53.214 453.072 53.1193L451.595 52.7955C450.781 52.6098 450.178 52.3144 449.788 51.9091C449.402 51.5038 449.209 50.9905 449.209 50.3693C449.209 49.8542 449.353 49.4034 449.64 49.017C449.928 48.6307 450.326 48.3295 450.834 48.1136C451.341 47.8939 451.923 47.7841 452.578 47.7841C453.521 47.7841 454.264 47.9886 454.805 48.3977C455.347 48.803 455.705 49.3466 455.879 50.0284ZM461.594 56.8011C460.775 56.8011 460.061 56.6136 459.452 56.2386C458.842 55.8636 458.368 55.339 458.031 54.6648C457.694 53.9905 457.525 53.2027 457.525 52.3011C457.525 51.3958 457.694 50.6042 458.031 49.9261C458.368 49.2481 458.842 48.7216 459.452 48.3466C460.061 47.9716 460.775 47.7841 461.594 47.7841C462.412 47.7841 463.126 47.9716 463.736 48.3466C464.345 48.7216 464.819 49.2481 465.156 49.9261C465.493 50.6042 465.662 51.3958 465.662 52.3011C465.662 53.2027 465.493 53.9905 465.156 54.6648C464.819 55.339 464.345 55.8636 463.736 56.2386C463.126 56.6136 462.412 56.8011 461.594 56.8011ZM461.599 55.375C462.13 55.375 462.569 55.2348 462.917 54.9545C463.266 54.6742 463.523 54.3011 463.69 53.8352C463.861 53.3693 463.946 52.8561 463.946 52.2955C463.946 51.7386 463.861 51.2273 463.69 50.7614C463.523 50.2917 463.266 49.9148 462.917 49.6307C462.569 49.3466 462.13 49.2045 461.599 49.2045C461.065 49.2045 460.622 49.3466 460.27 49.6307C459.921 49.9148 459.662 50.2917 459.491 50.7614C459.325 51.2273 459.241 51.7386 459.241 52.2955C459.241 52.8561 459.325 53.3693 459.491 53.8352C459.662 54.3011 459.921 54.6742 460.27 54.9545C460.622 55.2348 461.065 55.375 461.599 55.375ZM467.558 56.625V47.8977H469.189V49.3182H469.297C469.479 48.8371 469.776 48.4621 470.189 48.1932C470.602 47.9205 471.096 47.7841 471.672 47.7841C472.255 47.7841 472.744 47.9205 473.138 48.1932C473.535 48.4659 473.829 48.8409 474.018 49.3182H474.109C474.318 48.8523 474.649 48.4811 475.104 48.2045C475.558 47.9242 476.1 47.7841 476.729 47.7841C477.52 47.7841 478.166 48.0322 478.666 48.5284C479.17 49.0246 479.422 49.7727 479.422 50.7727V56.625H477.723V50.9318C477.723 50.3409 477.562 49.9129 477.24 49.6477C476.918 49.3826 476.533 49.25 476.086 49.25C475.533 49.25 475.104 49.4205 474.797 49.7614C474.49 50.0985 474.336 50.5322 474.336 51.0625V56.625H472.643V50.8239C472.643 50.3504 472.496 49.9697 472.2 49.6818C471.905 49.3939 471.52 49.25 471.047 49.25C470.725 49.25 470.427 49.3352 470.155 49.5057C469.886 49.6723 469.668 49.9053 469.501 50.2045C469.338 50.5038 469.257 50.8504 469.257 51.2443V56.625H467.558ZM485.46 56.8011C484.6 56.8011 483.86 56.6174 483.238 56.25C482.621 55.8788 482.144 55.358 481.807 54.6875C481.473 54.0133 481.307 53.2235 481.307 52.3182C481.307 51.4242 481.473 50.6364 481.807 49.9545C482.144 49.2727 482.613 48.7405 483.216 48.358C483.822 47.9754 484.53 47.7841 485.341 47.7841C485.833 47.7841 486.31 47.8655 486.773 48.0284C487.235 48.1913 487.649 48.447 488.017 48.7955C488.384 49.1439 488.674 49.5966 488.886 50.1534C489.098 50.7064 489.204 51.3788 489.204 52.1705V52.7727H482.267V51.5H487.54C487.54 51.053 487.449 50.6572 487.267 50.3125C487.085 49.964 486.829 49.6894 486.5 49.4886C486.174 49.2879 485.791 49.1875 485.352 49.1875C484.875 49.1875 484.458 49.3049 484.102 49.5398C483.75 49.7708 483.477 50.0739 483.284 50.4489C483.095 50.8201 483 51.2235 483 51.6591V52.6534C483 53.2367 483.102 53.733 483.307 54.142C483.515 54.5511 483.805 54.8636 484.176 55.0795C484.547 55.2917 484.981 55.3977 485.477 55.3977C485.799 55.3977 486.093 55.3523 486.358 55.2614C486.623 55.1667 486.852 55.0265 487.045 54.8409C487.238 54.6553 487.386 54.4261 487.488 54.1534L489.096 54.4432C488.968 54.9167 488.737 55.3314 488.403 55.6875C488.074 56.0398 487.659 56.3144 487.159 56.5114C486.663 56.7045 486.096 56.8011 485.46 56.8011ZM495.163 47.8977V49.2614H490.396V47.8977H495.163ZM491.675 45.8068H493.373V54.0625C493.373 54.392 493.423 54.6402 493.521 54.8068C493.62 54.9697 493.747 55.0814 493.902 55.142C494.061 55.1989 494.233 55.2273 494.419 55.2273C494.555 55.2273 494.675 55.2178 494.777 55.1989C494.879 55.1799 494.959 55.1648 495.015 55.1534L495.322 56.5568C495.224 56.5947 495.084 56.6326 494.902 56.6705C494.72 56.7121 494.493 56.7348 494.22 56.7386C493.773 56.7462 493.356 56.6667 492.97 56.5C492.584 56.3333 492.271 56.0758 492.032 55.7273C491.794 55.3788 491.675 54.9413 491.675 54.4148V45.8068ZM498.929 51.4432V56.625H497.23V44.9886H498.906V49.3182H499.014C499.219 48.8485 499.531 48.4754 499.952 48.1989C500.372 47.9223 500.921 47.7841 501.599 47.7841C502.198 47.7841 502.72 47.9072 503.167 48.1534C503.618 48.3996 503.967 48.767 504.213 49.2557C504.463 49.7405 504.588 50.3466 504.588 51.0739V56.625H502.889V51.2784C502.889 50.6383 502.724 50.142 502.395 49.7898C502.065 49.4337 501.607 49.2557 501.02 49.2557C500.618 49.2557 500.258 49.3409 499.94 49.5114C499.626 49.6818 499.378 49.9318 499.196 50.2614C499.018 50.5871 498.929 50.9811 498.929 51.4432ZM506.855 56.625V47.8977H508.554V56.625H506.855ZM507.713 46.5511C507.417 46.5511 507.164 46.4527 506.952 46.2557C506.743 46.0549 506.639 45.8163 506.639 45.5398C506.639 45.2595 506.743 45.0208 506.952 44.8239C507.164 44.6231 507.417 44.5227 507.713 44.5227C508.008 44.5227 508.26 44.6231 508.469 44.8239C508.681 45.0208 508.787 45.2595 508.787 45.5398C508.787 45.8163 508.681 46.0549 508.469 46.2557C508.26 46.4527 508.008 46.5511 507.713 46.5511ZM512.538 51.4432V56.625H510.839V47.8977H512.47V49.3182H512.578C512.779 48.8561 513.093 48.4848 513.521 48.2045C513.953 47.9242 514.497 47.7841 515.152 47.7841C515.747 47.7841 516.267 47.9091 516.714 48.1591C517.161 48.4053 517.508 48.7727 517.754 49.2614C518 49.75 518.123 50.3542 518.123 51.0739V56.625H516.425V51.2784C516.425 50.6458 516.26 50.1515 515.93 49.7955C515.601 49.4356 515.148 49.2557 514.572 49.2557C514.178 49.2557 513.828 49.3409 513.521 49.5114C513.218 49.6818 512.978 49.9318 512.8 50.2614C512.625 50.5871 512.538 50.9811 512.538 51.4432ZM524.061 60.0795C523.368 60.0795 522.771 59.9886 522.271 59.8068C521.775 59.625 521.37 59.3845 521.055 59.0852C520.741 58.786 520.506 58.4583 520.351 58.1023L521.811 57.5C521.913 57.6667 522.05 57.8428 522.22 58.0284C522.394 58.2178 522.629 58.3788 522.925 58.5114C523.224 58.6439 523.608 58.7102 524.078 58.7102C524.722 58.7102 525.254 58.553 525.675 58.2386C526.095 57.928 526.305 57.4318 526.305 56.75V55.0341H526.197C526.095 55.2197 525.947 55.4261 525.754 55.6534C525.565 55.8807 525.303 56.0777 524.97 56.2443C524.637 56.411 524.203 56.4943 523.669 56.4943C522.979 56.4943 522.358 56.3333 521.805 56.0114C521.256 55.6856 520.82 55.2064 520.498 54.5739C520.18 53.9375 520.021 53.1553 520.021 52.2273C520.021 51.2992 520.178 50.5038 520.493 49.8409C520.811 49.178 521.247 48.6705 521.8 48.3182C522.353 47.9621 522.979 47.7841 523.68 47.7841C524.222 47.7841 524.659 47.875 524.993 48.0568C525.326 48.2348 525.586 48.4432 525.771 48.6818C525.961 48.9205 526.106 49.1307 526.209 49.3125H526.334V47.8977H527.998V56.8182C527.998 57.5682 527.824 58.1837 527.476 58.6648C527.127 59.1458 526.656 59.5019 526.061 59.733C525.47 59.964 524.803 60.0795 524.061 60.0795ZM524.044 55.0852C524.532 55.0852 524.945 54.9716 525.282 54.7443C525.623 54.5133 525.881 54.1837 526.055 53.7557C526.233 53.3239 526.322 52.8068 526.322 52.2045C526.322 51.6174 526.235 51.1004 526.061 50.6534C525.887 50.2064 525.631 49.858 525.294 49.608C524.957 49.3542 524.54 49.2273 524.044 49.2273C523.532 49.2273 523.106 49.3598 522.765 49.625C522.425 49.8864 522.167 50.2424 521.993 50.6932C521.822 51.1439 521.737 51.6477 521.737 52.2045C521.737 52.7765 521.824 53.2784 521.998 53.7102C522.173 54.142 522.43 54.4792 522.771 54.7216C523.116 54.964 523.54 55.0852 524.044 55.0852ZM531.396 56.733C531.086 56.733 530.818 56.6231 530.595 56.4034C530.372 56.1799 530.26 55.911 530.26 55.5966C530.26 55.286 530.372 55.0208 530.595 54.8011C530.818 54.5777 531.086 54.4659 531.396 54.4659C531.707 54.4659 531.974 54.5777 532.197 54.8011C532.421 55.0208 532.532 55.286 532.532 55.5966C532.532 55.8049 532.479 55.9962 532.373 56.1705C532.271 56.3409 532.135 56.4773 531.964 56.5795C531.794 56.6818 531.604 56.733 531.396 56.733Z" fill="black"/>
<rect x="1.5" y="1.5" width="584" height="74" rx="18.5" stroke="#D9EAEF" stroke-width="3"/>
</g>
<defs>
<clipPath id="clip0_0_1">
<rect width="1730" height="17173" fill="white" transform="translate(-683 -10809)"/>
</clipPath>
</defs>
</svg>
