<svg xmlns="http://www.w3.org/2000/svg" width="353" height="65" fill="none" viewBox="0 0 353 65">
  <path fill="#5F99B6" d="M0 0h309.414L353 32.5 309.414 65H0l35.841-32.5L0 0Z"/>
  <path fill="#000" d="M98.642 38h-2.25l4.097-11.636h2.602L107.193 38h-2.25l-3.108-9.25h-.091L98.642 38Zm.074-4.563h6.136v1.694h-6.136v-1.694Zm14.23-4.164v1.59h-5.159v-1.59h5.159ZM109.077 38v-9.551c0-.587.121-1.076.363-1.466.247-.39.576-.682.989-.875.413-.193.871-.29 1.375-.29.356 0 .672.029.949.085.276.057.481.108.613.154l-.409 1.59a3.581 3.581 0 0 0-.329-.079 1.993 1.993 0 0 0-.443-.045c-.383 0-.654.093-.813.278-.155.182-.233.443-.233.784V38h-2.062Zm9.838-8.727v1.59h-5.017v-1.59h5.017Zm-3.779-2.091h2.057v8.193c0 .276.042.489.125.636a.675.675 0 0 0 .341.296c.14.053.296.08.466.08.129 0 .246-.01.352-.029.11-.019.193-.036.25-.051l.347 1.608c-.11.038-.267.08-.472.125a3.86 3.86 0 0 1-.738.08 3.349 3.349 0 0 1-1.392-.234 2.163 2.163 0 0 1-.983-.806c-.239-.364-.356-.819-.353-1.364v-8.534Zm9.269 10.988c-.875 0-1.631-.181-2.267-.545a3.685 3.685 0 0 1-1.46-1.557c-.341-.674-.512-1.468-.512-2.38 0-.898.171-1.686.512-2.364a3.857 3.857 0 0 1 1.443-1.591c.617-.383 1.343-.574 2.176-.574.538 0 1.045.087 1.523.262.481.17.905.435 1.272.795.372.36.663.818.875 1.375.212.553.319 1.212.319 1.977v.63h-7.154v-1.386h5.182a2.211 2.211 0 0 0-.256-1.05 1.85 1.85 0 0 0-.699-.734 1.963 1.963 0 0 0-1.034-.267c-.42 0-.789.103-1.108.307-.318.2-.566.466-.744.796a2.295 2.295 0 0 0-.267 1.073v1.21c0 .508.093.944.278 1.308.186.36.445.636.779.83.333.189.723.283 1.17.283.299 0 .57-.041.813-.125a1.81 1.81 0 0 0 .63-.38c.178-.167.313-.374.404-.62l1.92.216a2.99 2.99 0 0 1-.693 1.33 3.38 3.38 0 0 1-1.295.875c-.527.204-1.129.306-1.807.306Zm5.621-.17v-8.727h1.994v1.454h.091c.159-.503.432-.892.818-1.165.39-.276.835-.414 1.335-.414.114 0 .241.005.381.017.144.007.263.02.358.04v1.892a2.176 2.176 0 0 0-.415-.08 3.818 3.818 0 0 0-.54-.04c-.375 0-.712.082-1.011.245-.296.159-.528.38-.699.664-.17.284-.256.612-.256.983V38h-2.056Zm14.67-8.727v1.59h-5.017v-1.59h5.017Zm-3.778-2.091h2.056v8.193c0 .276.042.489.125.636a.679.679 0 0 0 .341.296c.14.053.296.08.466.08.129 0 .246-.01.353-.029.109-.019.193-.036.25-.051l.346 1.608c-.11.038-.267.08-.471.125a3.871 3.871 0 0 1-.739.08 3.355 3.355 0 0 1-1.392-.234 2.163 2.163 0 0 1-.983-.806c-.239-.364-.356-.819-.352-1.364v-8.534Zm7.743 5.704V38h-2.057V26.364h2.011v4.392h.102c.205-.493.521-.881.949-1.165.432-.288.981-.432 1.648-.432.606 0 1.134.127 1.585.38.451.255.799.626 1.046 1.114.25.489.375 1.086.375 1.79V38h-2.057v-5.239c0-.587-.152-1.043-.455-1.369-.299-.33-.719-.494-1.261-.494-.364 0-.69.08-.977.238a1.676 1.676 0 0 0-.671.677c-.159.295-.238.653-.238 1.073Zm11.619 5.284c-.875 0-1.631-.181-2.267-.545a3.685 3.685 0 0 1-1.46-1.557c-.341-.674-.512-1.468-.512-2.38 0-.898.171-1.686.512-2.364a3.857 3.857 0 0 1 1.443-1.591c.617-.383 1.343-.574 2.176-.574.538 0 1.045.087 1.523.262.481.17.905.435 1.272.795.372.36.663.818.875 1.375.212.553.319 1.212.319 1.977v.63h-7.154v-1.386h5.182a2.211 2.211 0 0 0-.256-1.05 1.85 1.85 0 0 0-.699-.734 1.963 1.963 0 0 0-1.034-.267c-.42 0-.789.103-1.108.307-.318.2-.566.466-.744.796a2.295 2.295 0 0 0-.267 1.073v1.21c0 .508.093.944.278 1.308.186.36.445.636.779.83.333.189.723.283 1.17.283.299 0 .57-.041.813-.125a1.81 1.81 0 0 0 .63-.38c.178-.167.313-.374.404-.62l1.92.216a2.99 2.99 0 0 1-.693 1.33 3.38 3.38 0 0 1-1.295.875c-.527.204-1.129.306-1.807.306Zm15.757-11.806V38h-2.108V26.364h2.108Zm4.249 6.522V38h-2.057v-8.727h1.966v1.483h.102c.201-.489.521-.877.96-1.165.443-.288.991-.432 1.642-.432.602 0 1.127.129 1.574.387.451.257.799.63 1.045 1.119.25.488.374 1.081.37 1.778V38h-2.057v-5.239c0-.583-.152-1.04-.455-1.369-.299-.33-.714-.494-1.244-.494-.36 0-.68.08-.96.238a1.662 1.662 0 0 0-.654.677c-.155.295-.232.653-.232 1.073Zm12.051-3.613v1.59h-5.017v-1.59h5.017Zm-3.779-2.091h2.057v8.193c0 .276.042.489.125.636a.675.675 0 0 0 .341.296c.14.053.295.08.466.08.129 0 .246-.01.352-.029.11-.019.193-.036.25-.051l.347 1.608c-.11.038-.267.08-.472.125a3.87 3.87 0 0 1-.738.08 3.357 3.357 0 0 1-1.393-.234 2.165 2.165 0 0 1-.982-.806c-.239-.364-.357-.819-.353-1.364v-8.534Zm9.269 10.988c-.875 0-1.631-.181-2.267-.545a3.694 3.694 0 0 1-1.461-1.557c-.34-.674-.511-1.468-.511-2.38 0-.898.171-1.686.511-2.364a3.866 3.866 0 0 1 1.444-1.591c.617-.383 1.342-.574 2.176-.574.538 0 1.045.087 1.522.262.482.17.906.435 1.273.795.371.36.663.818.875 1.375.212.553.318 1.212.318 1.977v.63h-7.153v-1.386h5.182a2.211 2.211 0 0 0-.256-1.05 1.863 1.863 0 0 0-.699-.734 1.963 1.963 0 0 0-1.034-.267c-.42 0-.79.103-1.108.307-.318.2-.566.466-.744.796a2.295 2.295 0 0 0-.267 1.073v1.21c0 .508.093.944.278 1.308.186.36.445.636.779.83.333.189.723.283 1.17.283.299 0 .57-.041.813-.125a1.81 1.81 0 0 0 .63-.38c.178-.167.313-.374.404-.62l1.92.216a2.99 2.99 0 0 1-.693 1.33 3.38 3.38 0 0 1-1.295.875c-.527.204-1.129.306-1.807.306Zm5.62-.17v-8.727h1.995v1.454h.091c.159-.503.431-.892.818-1.165.39-.276.835-.414 1.335-.414.114 0 .241.005.381.017.144.007.263.02.358.04v1.892a2.176 2.176 0 0 0-.415-.08 3.828 3.828 0 0 0-.54-.04c-.375 0-.712.082-1.011.245a1.78 1.78 0 0 0-.699.664 1.868 1.868 0 0 0-.256.983V38h-2.057Zm14.405-8.727L214.744 38h-2.272l-3.108-8.727h2.193l2.005 6.483h.091l2.012-6.483h2.187ZM219.276 38v-8.727h2.056V38h-2.056Zm1.034-9.966a1.2 1.2 0 0 1-.841-.324 1.044 1.044 0 0 1-.353-.79c0-.31.118-.573.353-.79.235-.219.515-.329.841-.329.329 0 .61.11.841.33.234.216.352.479.352.79 0 .306-.118.57-.352.79a1.188 1.188 0 0 1-.841.323Zm7.001 10.136c-.875 0-1.631-.181-2.267-.545a3.692 3.692 0 0 1-1.46-1.557c-.341-.674-.512-1.468-.512-2.38 0-.898.171-1.686.512-2.364a3.87 3.87 0 0 1 1.443-1.591c.617-.383 1.343-.574 2.176-.574.538 0 1.046.087 1.523.262.481.17.905.435 1.273.795.371.36.662.818.875 1.375.212.553.318 1.212.318 1.977v.63h-7.154v-1.386h5.182a2.211 2.211 0 0 0-.256-1.05 1.854 1.854 0 0 0-.698-.734 1.968 1.968 0 0 0-1.034-.267c-.421 0-.79.103-1.108.307-.319.2-.567.466-.745.796a2.295 2.295 0 0 0-.267 1.073v1.21c0 .508.093.944.279 1.308.185.36.445.636.778.83.333.189.724.283 1.17.283.3 0 .571-.041.813-.125.242-.087.453-.214.631-.38.178-.167.312-.374.403-.62l1.921.216c-.122.508-.353.95-.694 1.33a3.38 3.38 0 0 1-1.295.875c-.527.204-1.129.306-1.807.306Zm7.375-.17-2.466-8.727h2.097l1.534 6.136h.079l1.569-6.136h2.073l1.569 6.102h.085l1.511-6.102h2.102L242.368 38h-2.142l-1.637-5.898h-.119L236.834 38h-2.148Z"/>
</svg>
