<svg xmlns="http://www.w3.org/2000/svg" width="353" height="65" fill="none" viewBox="0 0 353 65">
  <path fill="#BFD6E2" d="M0 0h309.414L353 32.5 309.414 65H0l35.841-32.5L0 0Z"/>
  <path fill="#000" d="M106.642 38h-2.25l4.097-11.636h2.602L115.193 38h-2.25l-3.108-9.25h-.091L106.642 38Zm.074-4.563h6.136v1.694h-6.136v-1.694Zm13.73-4.164v1.59h-5.017v-1.59h5.017Zm-3.778-2.091h2.056v8.193c0 .276.042.489.125.636a.679.679 0 0 0 .341.296c.14.053.296.08.466.08.129 0 .246-.01.353-.029.109-.019.193-.036.25-.051l.346 1.608c-.11.038-.267.08-.471.125a3.871 3.871 0 0 1-.739.08 3.355 3.355 0 0 1-1.392-.234 2.163 2.163 0 0 1-.983-.806c-.239-.364-.356-.819-.352-1.364v-8.534Zm13.825 2.09v1.592h-5.017v-1.591h5.017Zm-3.779-2.09h2.057v8.193c0 .276.042.489.125.636a.675.675 0 0 0 .341.296c.14.053.296.08.466.08.129 0 .246-.01.352-.029a3.08 3.08 0 0 0 .25-.051l.347 1.608c-.11.038-.267.08-.472.125a3.86 3.86 0 0 1-.738.08 3.355 3.355 0 0 1-1.392-.234 2.163 2.163 0 0 1-.983-.806c-.239-.364-.356-.819-.353-1.364v-8.534Zm7.743 5.704V38h-2.056V26.364h2.011v4.392h.102c.205-.493.521-.881.949-1.165.432-.288.981-.432 1.648-.432.606 0 1.134.127 1.585.38.451.255.799.626 1.045 1.114.25.489.375 1.086.375 1.79V38h-2.056v-5.239c0-.587-.152-1.043-.455-1.369-.299-.33-.72-.494-1.261-.494a2 2 0 0 0-.978.238 1.67 1.67 0 0 0-.67.677c-.159.295-.239.653-.239 1.073Zm11.62 5.284c-.875 0-1.631-.181-2.267-.545a3.694 3.694 0 0 1-1.461-1.557c-.34-.674-.511-1.468-.511-2.38 0-.898.171-1.686.511-2.364a3.866 3.866 0 0 1 1.444-1.591c.617-.383 1.342-.574 2.176-.574.538 0 1.045.087 1.522.262.482.17.906.435 1.273.795.371.36.663.818.875 1.375.212.553.318 1.212.318 1.977v.63h-7.153v-1.386h5.182a2.211 2.211 0 0 0-.256-1.05 1.863 1.863 0 0 0-.699-.734 1.963 1.963 0 0 0-1.034-.267c-.42 0-.79.103-1.108.307-.318.2-.566.466-.744.796a2.295 2.295 0 0 0-.267 1.073v1.21c0 .508.093.944.278 1.308.186.36.445.636.779.83.333.189.723.283 1.17.283.299 0 .57-.041.813-.125a1.81 1.81 0 0 0 .63-.38c.178-.167.313-.374.404-.62l1.92.216a2.99 2.99 0 0 1-.693 1.33 3.38 3.38 0 0 1-1.295.875c-.527.204-1.129.306-1.807.306Zm11.788-11.806V38h-2.108V26.364h2.108Zm4.249 6.522V38h-2.057v-8.727h1.966v1.483h.102c.201-.489.521-.877.96-1.165.443-.288.991-.432 1.642-.432.603 0 1.127.129 1.574.387a2.6 2.6 0 0 1 1.046 1.119c.25.488.373 1.081.369 1.778V38h-2.057v-5.239c0-.583-.151-1.04-.454-1.369-.3-.33-.714-.494-1.245-.494-.36 0-.68.08-.96.238a1.65 1.65 0 0 0-.653.677c-.156.295-.233.653-.233 1.073Zm12.051-3.613v1.59h-5.017v-1.59h5.017Zm-3.779-2.091h2.057v8.193c0 .276.042.489.125.636a.675.675 0 0 0 .341.296c.14.053.296.08.466.08.129 0 .246-.01.352-.029.11-.019.193-.036.25-.051l.347 1.608c-.11.038-.267.08-.472.125a3.86 3.86 0 0 1-.738.08 3.349 3.349 0 0 1-1.392-.234 2.163 2.163 0 0 1-.983-.806c-.239-.364-.356-.819-.353-1.364v-8.534Zm9.269 10.988c-.875 0-1.631-.181-2.267-.545a3.685 3.685 0 0 1-1.46-1.557c-.341-.674-.512-1.468-.512-2.38 0-.898.171-1.686.512-2.364a3.857 3.857 0 0 1 1.443-1.591c.617-.383 1.343-.574 2.176-.574.538 0 1.045.087 1.523.262.481.17.905.435 1.272.795.372.36.663.818.875 1.375.212.553.319 1.212.319 1.977v.63h-7.154v-1.386h5.182a2.211 2.211 0 0 0-.256-1.05 1.85 1.85 0 0 0-.699-.734 1.963 1.963 0 0 0-1.034-.267c-.42 0-.789.103-1.108.307-.318.2-.566.466-.744.796a2.295 2.295 0 0 0-.267 1.073v1.21c0 .508.093.944.278 1.308.186.36.445.636.779.83.333.189.723.283 1.17.283.299 0 .57-.041.813-.125a1.81 1.81 0 0 0 .63-.38c.178-.167.313-.374.404-.62l1.92.216a2.99 2.99 0 0 1-.693 1.33 3.38 3.38 0 0 1-1.295.875c-.527.204-1.129.306-1.807.306Zm5.621-.17v-8.727h1.994v1.454h.091c.159-.503.432-.892.818-1.165.39-.276.835-.414 1.335-.414.114 0 .241.005.381.017.144.007.263.02.358.04v1.892a2.176 2.176 0 0 0-.415-.08 3.818 3.818 0 0 0-.54-.04c-.375 0-.712.082-1.011.245-.296.159-.528.38-.699.664-.17.284-.256.612-.256.983V38h-2.056Zm14.404-8.727L196.572 38H194.3l-3.108-8.727h2.193l2.006 6.483h.091l2.011-6.483h2.187ZM201.104 38v-8.727h2.057V38h-2.057Zm1.034-9.966a1.2 1.2 0 0 1-.841-.324 1.043 1.043 0 0 1-.352-.79c0-.31.117-.573.352-.79.235-.219.515-.329.841-.329.329 0 .61.11.841.33.235.216.352.479.352.79 0 .306-.117.57-.352.79a1.188 1.188 0 0 1-.841.323Zm7.001 10.136c-.875 0-1.63-.181-2.267-.545a3.698 3.698 0 0 1-1.46-1.557c-.341-.674-.511-1.468-.511-2.38 0-.898.17-1.686.511-2.364a3.87 3.87 0 0 1 1.443-1.591c.618-.383 1.343-.574 2.176-.574.538 0 1.046.087 1.523.262.481.17.905.435 1.273.795.371.36.663.818.875 1.375.212.553.318 1.212.318 1.977v.63h-7.154v-1.386h5.182a2.21 2.21 0 0 0-.255-1.05 1.863 1.863 0 0 0-.699-.734 1.966 1.966 0 0 0-1.034-.267c-.421 0-.79.103-1.108.307a2.11 2.11 0 0 0-.745.796 2.295 2.295 0 0 0-.267 1.073v1.21c0 .508.093.944.279 1.308.185.36.445.636.778.83.333.189.724.283 1.171.283.299 0 .57-.041.812-.125.243-.087.453-.214.631-.38.178-.167.312-.374.403-.62l1.921.216c-.122.508-.353.95-.694 1.33a3.373 3.373 0 0 1-1.295.875c-.526.204-1.129.306-1.807.306Zm7.375-.17-2.466-8.727h2.097l1.534 6.136h.08l1.568-6.136h2.074l1.568 6.102h.085l1.511-6.102h2.103L224.196 38h-2.142l-1.636-5.898h-.12L218.662 38h-2.148Z"/>
</svg>
