<svg xmlns="http://www.w3.org/2000/svg" width="45" height="45" fill="none" viewBox="0 0 45 45">
  <path fill="#1E4460" d="M35.756 26.025 24.375 37.388v3.862h3.863L39.6 29.869m2.962-4.407-2.4-2.4a.97.97 0 0 0-.712-.318c-.281.018-.544.112-.731.319l-1.875 1.875 3.843 3.75 1.876-1.875a.986.986 0 0 0 0-1.35ZM20.625 33.75H7.5V15l15 9.375L37.5 15v3.75h3.75v-7.5A3.761 3.761 0 0 0 37.5 7.5h-30a3.761 3.761 0 0 0-3.75 3.75v22.5A3.761 3.761 0 0 0 7.5 37.5h13.125v-3.75ZM37.5 11.25l-15 9.375-15-9.375h30Z"/>
</svg>
