<svg xmlns="http://www.w3.org/2000/svg" width="45" height="45" fill="none" viewBox="0 0 45 45">
  <path fill="#1E4460" d="M22.5 12.656a7.792 7.792 0 0 0-2.44.44 5.346 5.346 0 0 1 .232 4.256 5 5 0 0 1-.949 1.597 4.37 4.37 0 0 1-1.419 1.067 3.96 3.96 0 0 1-1.674.375 3.964 3.964 0 0 1-2.11-.637c-.507 1.98-.448 4.09.17 6.03.617 1.94 1.761 3.612 3.27 4.78 1.51 1.168 3.307 1.772 5.139 1.726 1.83-.045 3.603-.738 5.065-1.979 1.462-1.241 2.54-2.969 3.08-4.938a10.983 10.983 0 0 0-.067-6.032c-.584-1.953-1.7-3.649-3.19-4.849-1.488-1.2-3.275-1.842-5.107-1.836Zm22.228 8.56C40.491 11.918 32.104 5.626 22.5 5.626c-9.604 0-17.994 6.296-22.228 15.593A3.136 3.136 0 0 0 0 22.5c0 .446.093.886.272 1.283 4.237 9.3 12.624 15.592 22.228 15.592 9.604 0 17.994-6.297 22.228-15.593.179-.397.272-.837.272-1.282a3.13 3.13 0 0 0-.272-1.283ZM22.5 35.157c-7.707 0-14.773-4.834-18.588-12.656C7.727 14.678 14.792 9.844 22.5 9.844S37.273 14.678 41.088 22.5c-3.815 7.822-10.88 12.656-18.588 12.656Z"/>
</svg>
