<svg xmlns="http://www.w3.org/2000/svg" width="45" height="45" fill="none" viewBox="0 0 45 45">
  <path fill="#1E4460" d="M14.063 25.313h11.25v2.812h-11.25v-2.813Zm0-7.032h16.874v2.813H14.063V18.28Zm0 14.063h7.03v2.812h-7.03v-2.812Z"/>
  <path fill="#1E4460" d="M35.156 7.031h-4.218V5.625a2.812 2.812 0 0 0-2.813-2.813h-11.25a2.812 2.812 0 0 0-2.813 2.813v1.406H9.845A2.813 2.813 0 0 0 7.03 9.844v29.531a2.812 2.812 0 0 0 2.813 2.813h25.312a2.812 2.812 0 0 0 2.813-2.813V9.844a2.813 2.813 0 0 0-2.813-2.813ZM16.875 5.625h11.25v5.625h-11.25V5.625Zm18.281 33.75H9.844V9.844h4.219v4.219h16.874v-4.22h4.22v29.532Z"/>
</svg>
