<svg xmlns="http://www.w3.org/2000/svg" width="776" height="120" fill="none" viewBox="0 0 776 120">
  <path fill="#000" d="M189 73.864c-.458 0-.877-.112-1.256-.336a2.624 2.624 0 0 1-.909-.909 2.43 2.43 0 0 1-.335-1.255c0-.463.112-.881.335-1.256a2.58 2.58 0 0 1 .909-.904c.379-.227.798-.34 1.256-.34.462 0 .881.113 1.256.34.378.224.68.525.903.904.227.375.341.793.341 1.256 0 .458-.114.876-.341 1.255a2.566 2.566 0 0 1-.903.91 2.407 2.407 0 0 1-1.256.335Zm19.773-6.591a1.783 1.783 0 0 0-.83-1.341c-.485-.318-1.079-.478-1.784-.478-.515 0-.966.084-1.352.25a2.16 2.16 0 0 0-.898.688 1.649 1.649 0 0 0-.318.994c0 .311.074.578.221.802.152.22.345.403.58.55a4.1 4.1 0 0 0 .739.359c.257.09.494.164.71.221l1.182.318c.303.08.64.19 1.011.33.375.14.733.331 1.074.574.345.238.629.545.852.92.224.375.335.836.335 1.38a3.06 3.06 0 0 1-.494 1.706c-.326.507-.803.91-1.432 1.21-.625.299-1.384.448-2.278.448-.833 0-1.555-.134-2.165-.403-.606-.269-1.083-.644-1.432-1.125a3.22 3.22 0 0 1-.585-1.676h1.455c.038.44.185.803.443 1.09a2.4 2.4 0 0 0 .988.637 4.01 4.01 0 0 0 1.296.205c.538 0 1.021-.087 1.449-.261.428-.179.767-.425 1.017-.74.25-.317.375-.689.375-1.113 0-.386-.108-.7-.324-.943-.216-.242-.5-.44-.852-.59a8.996 8.996 0 0 0-1.142-.399l-1.432-.409c-.909-.261-1.629-.634-2.159-1.119-.531-.485-.796-1.12-.796-1.904 0-.651.176-1.22.529-1.704a3.507 3.507 0 0 1 1.432-1.136c.602-.273 1.274-.41 2.017-.41.75 0 1.416.135 2 .404.583.265 1.045.629 1.386 1.09.345.463.526.988.545 1.575h-1.363Zm7.203 8.909c-.788 0-1.479-.188-2.074-.563-.591-.375-1.053-.9-1.386-1.573-.33-.675-.495-1.463-.495-2.364 0-.91.165-1.703.495-2.38.333-.679.795-1.205 1.386-1.58.595-.375 1.286-.563 2.074-.563.788 0 1.477.188 2.068.563.595.375 1.057.901 1.386 1.58.334.677.5 1.47.5 2.38 0 .901-.166 1.69-.5 2.364a3.763 3.763 0 0 1-1.386 1.573c-.591.375-1.28.563-2.068.563Zm0-1.205c.598 0 1.091-.153 1.477-.46a2.72 2.72 0 0 0 .858-1.21c.186-.5.278-1.042.278-1.625 0-.584-.092-1.127-.278-1.63a2.755 2.755 0 0 0-.858-1.223c-.386-.31-.879-.465-1.477-.465-.599 0-1.091.155-1.477.465a2.74 2.74 0 0 0-.858 1.222 4.672 4.672 0 0 0-.279 1.63c0 .584.093 1.126.279 1.626.185.5.471.903.858 1.21.386.307.878.46 1.477.46Zm7.342-10.613V76h-1.341V64.364h1.341Zm9.593 2.909L229.683 76h-1.363l-3.228-8.727h1.455l2.409 6.954h.091l2.409-6.954h1.455Zm5.116 8.909c-.841 0-1.566-.186-2.176-.557a3.742 3.742 0 0 1-1.404-1.568c-.325-.674-.488-1.459-.488-2.353 0-.893.163-1.681.488-2.363.33-.686.788-1.22 1.375-1.602.591-.387 1.281-.58 2.069-.58.454 0 .903.076 1.346.227.443.152.847.398 1.21.739.364.337.654.784.87 1.34.216.558.324 1.243.324 2.058v.568h-6.728v-1.16h5.364c0-.492-.098-.931-.295-1.317a2.232 2.232 0 0 0-.83-.915c-.356-.224-.777-.335-1.261-.335-.534 0-.997.132-1.387.397a2.623 2.623 0 0 0-.892 1.023c-.208.42-.312.871-.312 1.352v.773c0 .66.113 1.218.341 1.676.231.455.551.801.96 1.04.409.235.884.352 1.426.352.352 0 .67-.049.955-.148.287-.102.536-.253.744-.454.208-.204.369-.458.483-.761l1.295.363a2.87 2.87 0 0 1-.687 1.16c-.322.329-.72.587-1.193.772a4.43 4.43 0 0 1-1.597.273Zm13.949-8.91v1.137h-4.523v-1.136h4.523Zm-3.205-2.09h1.341V73.5c0 .379.055.663.165.852.114.186.258.31.432.375.178.06.365.091.562.091.148 0 .269-.007.364-.022l.227-.046.273 1.204a2.733 2.733 0 0 1-.381.103 2.8 2.8 0 0 1-.619.057 2.7 2.7 0 0 1-1.114-.245 2.205 2.205 0 0 1-.897-.744c-.235-.333-.353-.754-.353-1.261v-8.682Zm6.75 5.568V76h-1.341V64.364h1.341v4.272h.114c.204-.45.511-.808.92-1.073.413-.27.963-.404 1.648-.404.595 0 1.116.12 1.563.358.447.235.793.597 1.039 1.085.25.485.375 1.102.375 1.852V76h-1.341v-5.454c0-.694-.179-1.23-.539-1.609-.356-.382-.851-.573-1.483-.573-.44 0-.834.092-1.182.278a2.035 2.035 0 0 0-.818.813c-.197.356-.296.787-.296 1.295Zm11.772 5.432c-.841 0-1.567-.186-2.177-.557a3.74 3.74 0 0 1-1.403-1.568c-.326-.674-.489-1.459-.489-2.353 0-.893.163-1.681.489-2.363.33-.686.788-1.22 1.375-1.602.591-.387 1.28-.58 2.068-.58.455 0 .904.076 1.347.227a3.34 3.34 0 0 1 1.21.739c.364.337.653.784.869 1.34.216.558.324 1.243.324 2.058v.568h-6.727v-1.16h5.364c0-.492-.099-.931-.296-1.317a2.23 2.23 0 0 0-.829-.915c-.356-.224-.777-.335-1.262-.335-.534 0-.996.132-1.386.397a2.615 2.615 0 0 0-.892 1.023 3.01 3.01 0 0 0-.313 1.352v.773c0 .66.114 1.218.341 1.676.231.455.551.801.96 1.04.41.235.885.352 1.427.352.352 0 .67-.049.954-.148a2.03 2.03 0 0 0 .744-.454c.209-.204.37-.458.483-.761l1.296.363a2.87 2.87 0 0 1-.688 1.16 3.344 3.344 0 0 1-1.193.772 4.42 4.42 0 0 1-1.596.273Zm14.039-8.91v1.137h-4.704v-1.136h4.704ZM278.037 76v-9.932c0-.5.117-.916.352-1.25a2.19 2.19 0 0 1 .915-.75 2.89 2.89 0 0 1 1.187-.25c.33 0 .599.027.807.08.209.053.364.102.466.148l-.386 1.158a6.673 6.673 0 0 0-.284-.085 1.727 1.727 0 0 0-.466-.05c-.443 0-.763.11-.96.334-.194.224-.29.551-.29.983V76h-1.341Zm8.361.182c-.788 0-1.479-.188-2.074-.563-.591-.375-1.053-.9-1.386-1.573-.33-.675-.495-1.463-.495-2.364 0-.91.165-1.703.495-2.38.333-.679.795-1.205 1.386-1.58.595-.375 1.286-.563 2.074-.563.788 0 1.477.188 2.068.563.595.375 1.057.901 1.386 1.58.334.677.5 1.47.5 2.38 0 .901-.166 1.69-.5 2.364a3.763 3.763 0 0 1-1.386 1.573c-.591.375-1.28.563-2.068.563Zm0-1.205c.598 0 1.091-.153 1.477-.46a2.72 2.72 0 0 0 .858-1.21c.186-.5.278-1.042.278-1.625 0-.584-.092-1.127-.278-1.63a2.755 2.755 0 0 0-.858-1.223c-.386-.31-.879-.465-1.477-.465-.599 0-1.091.155-1.478.465a2.757 2.757 0 0 0-.858 1.222 4.695 4.695 0 0 0-.278 1.63c0 .584.093 1.126.278 1.626.186.5.472.903.858 1.21.387.307.879.46 1.478.46Zm7.342-10.613V76h-1.341V64.364h1.341Zm3.797 0V76h-1.341V64.364h1.341Zm6.001 11.818c-.788 0-1.479-.188-2.074-.563-.59-.375-1.053-.9-1.386-1.573-.329-.675-.494-1.463-.494-2.364 0-.91.165-1.703.494-2.38.333-.679.796-1.205 1.386-1.58.595-.375 1.286-.563 2.074-.563.788 0 1.478.188 2.069.563.594.375 1.056.901 1.386 1.58.333.677.5 1.47.5 2.38 0 .901-.167 1.69-.5 2.364a3.775 3.775 0 0 1-1.386 1.573c-.591.375-1.281.563-2.069.563Zm0-1.205c.599 0 1.091-.153 1.478-.46a2.72 2.72 0 0 0 .858-1.21c.185-.5.278-1.042.278-1.625 0-.584-.093-1.127-.278-1.63a2.755 2.755 0 0 0-.858-1.223c-.387-.31-.879-.465-1.478-.465-.598 0-1.091.155-1.477.465a2.757 2.757 0 0 0-.858 1.222 4.695 4.695 0 0 0-.278 1.63c0 .584.093 1.126.278 1.626.186.5.472.903.858 1.21.386.307.879.46 1.477.46ZM311.22 76l-2.659-8.727h1.409l1.887 6.681h.09l1.864-6.681h1.432l1.841 6.659h.091l1.886-6.66h1.409L317.811 76h-1.318l-1.909-6.704h-.137L312.538 76h-1.318Zm11.023 0v-8.727h1.341V76h-1.341Zm.682-10.182a.951.951 0 0 1-.676-.267.857.857 0 0 1-.279-.642c0-.25.093-.464.279-.642a.951.951 0 0 1 .676-.267c.261 0 .485.089.67.267.19.178.284.392.284.642s-.094.464-.284.642a.932.932 0 0 1-.67.267Zm4.456 4.932V76h-1.341v-8.727h1.295v1.363h.114c.204-.443.515-.799.932-1.068.416-.272.954-.409 1.613-.409.591 0 1.108.121 1.551.364.444.238.788.602 1.035 1.09.246.486.369 1.1.369 1.841V76h-1.341v-5.454c0-.686-.178-1.22-.534-1.603-.356-.386-.845-.58-1.466-.58a2.34 2.34 0 0 0-1.148.279 2 2 0 0 0-.79.813c-.193.356-.289.787-.289 1.295Zm11.541 8.704c-.648 0-1.205-.083-1.671-.25a3.541 3.541 0 0 1-1.164-.647 3.542 3.542 0 0 1-.733-.853l1.068-.75c.121.16.274.342.46.546.186.208.439.388.761.54.326.155.752.233 1.279.233.704 0 1.286-.17 1.744-.512.459-.34.688-.875.688-1.602v-1.773h-.114a7.29 7.29 0 0 1-.42.591c-.178.231-.436.438-.773.62-.333.178-.784.267-1.352.267-.705 0-1.338-.167-1.898-.5-.557-.334-.998-.819-1.324-1.455-.322-.636-.483-1.409-.483-2.318 0-.894.157-1.672.472-2.335.314-.667.752-1.182 1.312-1.546.561-.367 1.208-.55 1.943-.55.569 0 1.019.094 1.353.283.337.186.594.398.772.636.182.235.322.429.421.58h.136v-1.386h1.296v8.977c0 .75-.171 1.36-.512 1.83a2.91 2.91 0 0 1-1.363 1.04 5.149 5.149 0 0 1-1.898.334Zm-.046-4.795c.538 0 .993-.123 1.364-.37.371-.245.653-.6.847-1.062.193-.462.289-1.015.289-1.659 0-.629-.094-1.183-.284-1.665-.189-.48-.469-.858-.841-1.13-.371-.273-.829-.41-1.375-.41-.568 0-1.041.145-1.42.433a2.634 2.634 0 0 0-.847 1.158 4.495 4.495 0 0 0-.278 1.614c0 .606.095 1.142.284 1.608.193.462.477.826.852 1.091.379.261.849.392 1.409.392Zm14.319 1.523c-.819 0-1.523-.193-2.114-.58a3.783 3.783 0 0 1-1.364-1.596c-.318-.678-.477-1.453-.477-2.324 0-.886.163-1.669.489-2.347.329-.682.788-1.214 1.375-1.596.591-.387 1.28-.58 2.068-.58a3.91 3.91 0 0 1 1.659.341c.492.227.896.546 1.21.954.315.41.51.887.585 1.432h-1.34c-.103-.397-.33-.75-.682-1.056-.349-.311-.818-.466-1.409-.466-.523 0-.981.136-1.375.409-.391.269-.695.65-.915 1.142-.216.488-.324 1.062-.324 1.721 0 .675.106 1.262.318 1.762.216.5.519.888.909 1.165.394.276.856.414 1.387.414.348 0 .664-.06.948-.181.285-.122.525-.296.722-.523.197-.227.337-.5.421-.819h1.34a3.1 3.1 0 0 1-.562 1.393 3.158 3.158 0 0 1-1.176.977c-.485.239-1.049.358-1.693.358Zm8.937 0c-.788 0-1.479-.188-2.074-.563-.591-.375-1.053-.9-1.386-1.573-.33-.675-.494-1.463-.494-2.364 0-.91.164-1.703.494-2.38.333-.679.795-1.205 1.386-1.58.595-.375 1.286-.563 2.074-.563.788 0 1.477.188 2.068.563.595.375 1.057.901 1.387 1.58.333.677.5 1.47.5 2.38 0 .901-.167 1.69-.5 2.364a3.77 3.77 0 0 1-1.387 1.573c-.591.375-1.28.563-2.068.563Zm0-1.205c.599 0 1.091-.153 1.477-.46.387-.307.673-.71.858-1.21.186-.5.279-1.042.279-1.625 0-.584-.093-1.127-.279-1.63a2.74 2.74 0 0 0-.858-1.223c-.386-.31-.878-.465-1.477-.465-.598 0-1.091.155-1.477.465a2.74 2.74 0 0 0-.858 1.222 4.672 4.672 0 0 0-.279 1.63c0 .584.093 1.126.279 1.626.185.5.471.903.858 1.21.386.307.879.46 1.477.46Zm9.297 1.205c-.727 0-1.369-.184-1.926-.551-.557-.371-.993-.894-1.307-1.569-.314-.677-.472-1.479-.472-2.403 0-.917.158-1.712.472-2.386.314-.674.752-1.195 1.313-1.563.56-.367 1.208-.55 1.943-.55.568 0 1.017.094 1.346.283.334.186.587.398.762.636.178.235.316.429.414.58h.114v-4.295h1.341V76h-1.295v-1.34h-.16a8.522 8.522 0 0 1-.42.601c-.182.239-.441.453-.778.642-.338.186-.786.279-1.347.279Zm.182-1.205c.538 0 .992-.14 1.363-.42.372-.284.654-.676.847-1.176.193-.504.29-1.085.29-1.745 0-.651-.095-1.221-.284-1.71-.19-.492-.47-.875-.841-1.148-.371-.276-.83-.414-1.375-.414-.568 0-1.042.145-1.421.437-.375.288-.657.68-.846 1.176a4.666 4.666 0 0 0-.279 1.66c0 .62.095 1.185.284 1.692.194.504.478.906.853 1.205.378.295.848.443 1.409.443Zm6.46 1.023v-8.727h1.341V76h-1.341Zm.682-10.182a.951.951 0 0 1-.676-.267.857.857 0 0 1-.279-.642c0-.25.093-.464.279-.642a.951.951 0 0 1 .676-.267c.261 0 .485.089.67.267.19.178.284.392.284.642s-.094.464-.284.642a.932.932 0 0 1-.67.267Zm4.456 4.932V76h-1.341v-8.727h1.295v1.363h.114c.205-.443.515-.799.932-1.068.416-.272.954-.409 1.613-.409.591 0 1.108.121 1.552.364.443.238.787.602 1.034 1.09.246.486.369 1.1.369 1.841V76h-1.341v-5.454c0-.686-.178-1.22-.534-1.603-.356-.386-.845-.58-1.466-.58a2.34 2.34 0 0 0-1.148.279 1.992 1.992 0 0 0-.789.813c-.194.356-.29.787-.29 1.295Zm11.541 8.704c-.648 0-1.205-.083-1.67-.25a3.536 3.536 0 0 1-1.165-.647 3.542 3.542 0 0 1-.733-.853l1.068-.75c.121.16.275.342.46.546.186.208.44.388.762.54.325.155.751.233 1.278.233.705 0 1.286-.17 1.744-.512.459-.34.688-.875.688-1.602v-1.773h-.114c-.098.16-.238.356-.42.591-.178.231-.436.438-.773.62-.333.178-.784.267-1.352.267a3.646 3.646 0 0 1-1.898-.5c-.557-.334-.998-.819-1.324-1.455-.322-.636-.483-1.409-.483-2.318 0-.894.157-1.672.472-2.335.314-.667.752-1.182 1.312-1.546.561-.367 1.209-.55 1.943-.55.569 0 1.019.094 1.353.283.337.186.594.398.772.636.182.235.322.429.421.58h.136v-1.386h1.296v8.977c0 .75-.171 1.36-.512 1.83a2.91 2.91 0 0 1-1.363 1.04c-.568.223-1.201.334-1.898.334Zm-.045-4.795c.537 0 .992-.123 1.363-.37.371-.245.654-.6.847-1.062.193-.462.29-1.015.29-1.659 0-.629-.095-1.183-.285-1.665-.189-.48-.469-.858-.84-1.13-.372-.273-.83-.41-1.375-.41-.569 0-1.042.145-1.421.433a2.625 2.625 0 0 0-.846 1.158 4.473 4.473 0 0 0-.279 1.614c0 .606.095 1.142.284 1.608.193.462.477.826.852 1.091.379.261.849.392 1.41.392Zm10.772 4.614v-12h1.296v1.386h.159c.098-.151.235-.345.409-.58.178-.238.432-.45.761-.636.334-.19.784-.284 1.353-.284.734 0 1.382.184 1.943.551.56.368.998.889 1.312 1.563.315.674.472 1.47.472 2.386 0 .924-.157 1.725-.472 2.403-.314.675-.75 1.198-1.307 1.569-.556.367-1.198.55-1.926.55-.56 0-1.009-.092-1.346-.278-.337-.189-.597-.403-.779-.642a8.362 8.362 0 0 1-.42-.602h-.114v4.614h-1.341Zm1.318-7.637c0 .66.097 1.24.29 1.745.193.5.476.892.847 1.176.371.28.826.42 1.363.42.561 0 1.029-.148 1.404-.443.379-.3.663-.7.852-1.205a4.73 4.73 0 0 0 .29-1.693 4.6 4.6 0 0 0-.284-1.659c-.186-.496-.468-.888-.847-1.176-.375-.291-.846-.437-1.415-.437-.545 0-1.003.138-1.375.414-.371.273-.651.656-.84 1.148-.19.489-.285 1.059-.285 1.71ZM415.227 76v-8.727h1.296v1.318h.091c.159-.432.447-.782.863-1.051a2.544 2.544 0 0 1 1.409-.404c.099 0 .222.002.37.006.147.004.259.01.335.017v1.364a4.073 4.073 0 0 0-.313-.051 3.068 3.068 0 0 0-.505-.04c-.425 0-.803.089-1.137.267a2.016 2.016 0 0 0-.784.727 1.964 1.964 0 0 0-.284 1.051V76h-1.341Zm9.233.182c-.788 0-1.479-.188-2.074-.563-.591-.375-1.053-.9-1.386-1.573-.33-.675-.494-1.463-.494-2.364 0-.91.164-1.703.494-2.38.333-.679.795-1.205 1.386-1.58.595-.375 1.286-.563 2.074-.563.788 0 1.478.188 2.068.563.595.375 1.057.901 1.387 1.58.333.677.5 1.47.5 2.38 0 .901-.167 1.69-.5 2.364a3.77 3.77 0 0 1-1.387 1.573c-.59.375-1.28.563-2.068.563Zm0-1.205c.599 0 1.091-.153 1.478-.46a2.71 2.71 0 0 0 .857-1.21c.186-.5.279-1.042.279-1.625 0-.584-.093-1.127-.279-1.63a2.745 2.745 0 0 0-.857-1.223c-.387-.31-.879-.465-1.478-.465-.598 0-1.091.155-1.477.465a2.757 2.757 0 0 0-.858 1.222 4.672 4.672 0 0 0-.278 1.63c0 .584.092 1.126.278 1.626.186.5.472.903.858 1.21.386.307.879.46 1.477.46ZM430.643 76V64.364h1.341v4.295h.114c.098-.151.235-.345.409-.58.178-.238.432-.45.761-.636.334-.19.785-.284 1.353-.284.735 0 1.382.184 1.943.551.561.368.998.889 1.312 1.563.315.674.472 1.47.472 2.386 0 .924-.157 1.725-.472 2.403-.314.675-.75 1.198-1.306 1.569-.557.367-1.199.55-1.927.55-.56 0-1.009-.092-1.346-.278-.337-.189-.597-.403-.779-.642a8.7 8.7 0 0 1-.42-.602h-.159V76h-1.296Zm1.319-4.364c0 .66.096 1.24.289 1.745.194.5.476.892.847 1.176.371.28.826.42 1.364.42.56 0 1.028-.148 1.403-.443.379-.3.663-.7.852-1.205.194-.507.29-1.071.29-1.693a4.6 4.6 0 0 0-.284-1.659c-.186-.496-.468-.888-.847-1.176-.375-.291-.846-.437-1.414-.437-.546 0-1.004.138-1.375.414-.372.273-.652.656-.841 1.148-.19.489-.284 1.059-.284 1.71Zm9.778-7.272V76h-1.341V64.364h1.341Zm6.115 11.818c-.841 0-1.566-.186-2.176-.557a3.733 3.733 0 0 1-1.403-1.568c-.326-.674-.489-1.459-.489-2.353 0-.893.163-1.681.489-2.363.329-.686.787-1.22 1.375-1.602.59-.387 1.28-.58 2.068-.58.454 0 .903.076 1.346.227.444.152.847.398 1.211.739.363.337.653.784.869 1.34.216.558.324 1.243.324 2.058v.568h-6.728v-1.16h5.364c0-.492-.098-.931-.295-1.317a2.232 2.232 0 0 0-.83-.915c-.356-.224-.776-.335-1.261-.335-.534 0-.996.132-1.387.397a2.623 2.623 0 0 0-.892 1.023c-.208.42-.312.871-.312 1.352v.773c0 .66.113 1.218.341 1.676.231.455.551.801.96 1.04.409.235.884.352 1.426.352.352 0 .671-.049.955-.148a2.03 2.03 0 0 0 .744-.454c.208-.204.369-.458.483-.761l1.295.363a2.87 2.87 0 0 1-.687 1.16c-.322.329-.72.587-1.193.772a4.43 4.43 0 0 1-1.597.273Zm5.654-.182v-8.727h1.295v1.363h.114a2.19 2.19 0 0 1 .88-1.085c.406-.261.892-.392 1.461-.392.575 0 1.054.13 1.437.392.386.258.688.62.903 1.085h.091c.224-.45.559-.808 1.006-1.073.447-.27.983-.404 1.608-.404.78 0 1.419.244 1.915.733.496.485.744 1.24.744 2.267V76h-1.341v-5.84c0-.645-.176-1.105-.528-1.382a1.958 1.958 0 0 0-1.245-.414c-.613 0-1.089.185-1.426.556-.337.368-.505.834-.505 1.398V76h-1.364v-5.977c0-.496-.161-.896-.483-1.2-.322-.306-.737-.46-1.244-.46a1.84 1.84 0 0 0-.978.279 2.107 2.107 0 0 0-.727.773 2.28 2.28 0 0 0-.273 1.13V76h-1.34Zm20.088-6.773-1.205.341a2.233 2.233 0 0 0-.335-.585 1.628 1.628 0 0 0-.591-.477c-.25-.125-.57-.188-.96-.188-.534 0-.979.123-1.336.37-.352.242-.528.55-.528.926 0 .333.121.596.364.79.242.193.621.354 1.136.482l1.296.319c.78.189 1.361.479 1.744.869.382.386.574.884.574 1.494 0 .5-.144.947-.432 1.341-.284.394-.682.705-1.193.932-.512.227-1.106.34-1.784.34-.891 0-1.627-.192-2.211-.579-.583-.386-.952-.95-1.108-1.693l1.273-.318c.121.47.351.822.688 1.057.341.235.786.352 1.335.352.625 0 1.121-.133 1.488-.398.372-.269.557-.59.557-.966 0-.303-.106-.556-.318-.761-.212-.208-.538-.364-.977-.466l-1.455-.34c-.799-.19-1.386-.484-1.761-.882-.371-.401-.557-.903-.557-1.505 0-.493.138-.928.415-1.307a2.82 2.82 0 0 1 1.142-.892c.485-.216 1.034-.324 1.648-.324.863 0 1.541.19 2.034.568.496.38.848.88 1.057 1.5Zm3.154 6.864c-.28 0-.52-.1-.721-.301a.983.983 0 0 1-.301-.722c0-.28.1-.52.301-.721a.984.984 0 0 1 .721-.301c.281 0 .521.1.722.3a.985.985 0 0 1 .301.722.96.96 0 0 1-.142.511c-.091.156-.214.28-.369.376a.976.976 0 0 1-.512.136Zm8.407-5.91c0-1.431.185-2.747.556-3.948.375-1.205.91-2.313 1.603-3.324h1.182a7.268 7.268 0 0 0-.767 1.387 13.49 13.49 0 0 0-.62 1.8 17.017 17.017 0 0 0-.42 2.023 14.652 14.652 0 0 0-.148 2.063c0 .901.087 1.816.261 2.744.175.928.409 1.79.705 2.585.295.796.625 1.444.989 1.944h-1.182a12.345 12.345 0 0 1-1.603-3.319c-.371-1.204-.556-2.522-.556-3.954ZM490.659 76V64.364h6.977v1.25h-5.568v3.931h5.046v1.25h-5.046V76h-1.409Zm12.114.182c-.788 0-1.479-.188-2.074-.563-.591-.375-1.053-.9-1.387-1.573-.329-.675-.494-1.463-.494-2.364 0-.91.165-1.703.494-2.38.334-.679.796-1.205 1.387-1.58.595-.375 1.286-.563 2.074-.563.788 0 1.477.188 2.068.563.595.375 1.057.901 1.386 1.58.334.677.5 1.47.5 2.38 0 .901-.166 1.69-.5 2.364a3.763 3.763 0 0 1-1.386 1.573c-.591.375-1.28.563-2.068.563Zm0-1.205c.598 0 1.091-.153 1.477-.46a2.72 2.72 0 0 0 .858-1.21c.186-.5.278-1.042.278-1.625 0-.584-.092-1.127-.278-1.63a2.755 2.755 0 0 0-.858-1.223c-.386-.31-.879-.465-1.477-.465-.599 0-1.091.155-1.478.465a2.747 2.747 0 0 0-.857 1.222 4.672 4.672 0 0 0-.279 1.63c0 .584.093 1.126.279 1.626.185.5.471.903.857 1.21.387.307.879.46 1.478.46ZM508.774 76v-8.727h1.296v1.318h.091c.159-.432.446-.782.863-1.051a2.544 2.544 0 0 1 1.409-.404c.099 0 .222.002.37.006.147.004.259.01.335.017v1.364a4.073 4.073 0 0 0-.313-.051 3.068 3.068 0 0 0-.505-.04c-.425 0-.803.089-1.137.267a2.016 2.016 0 0 0-.784.727 1.964 1.964 0 0 0-.284 1.051V76h-1.341Zm16.635-6.773-1.204.341a2.238 2.238 0 0 0-.336-.585 1.628 1.628 0 0 0-.591-.477c-.25-.125-.57-.188-.96-.188-.534 0-.979.123-1.335.37-.352.242-.528.55-.528.926 0 .333.121.596.363.79.243.193.621.354 1.137.482l1.295.319c.78.189 1.362.479 1.744.869.383.386.574.884.574 1.494 0 .5-.144.947-.432 1.341-.284.394-.681.705-1.193.932-.511.227-1.106.34-1.784.34-.89 0-1.627-.192-2.21-.579-.583-.386-.953-.95-1.108-1.693l1.273-.318c.121.47.35.822.687 1.057.341.235.786.352 1.335.352.625 0 1.122-.133 1.489-.398.371-.269.557-.59.557-.966 0-.303-.106-.556-.318-.761-.212-.208-.538-.364-.978-.466l-1.454-.34c-.799-.19-1.387-.484-1.762-.882-.371-.401-.556-.903-.556-1.505 0-.493.138-.928.414-1.307a2.828 2.828 0 0 1 1.142-.892c.485-.216 1.035-.324 1.648-.324.864 0 1.542.19 2.034.568.496.38.849.88 1.057 1.5Zm5.723 6.955c-.788 0-1.479-.188-2.074-.563-.591-.375-1.053-.9-1.386-1.573-.33-.675-.494-1.463-.494-2.364 0-.91.164-1.703.494-2.38.333-.679.795-1.205 1.386-1.58.595-.375 1.286-.563 2.074-.563.788 0 1.477.188 2.068.563.595.375 1.057.901 1.387 1.58.333.677.5 1.47.5 2.38 0 .901-.167 1.69-.5 2.364a3.77 3.77 0 0 1-1.387 1.573c-.591.375-1.28.563-2.068.563Zm0-1.205c.599 0 1.091-.153 1.477-.46.387-.307.673-.71.858-1.21.186-.5.279-1.042.279-1.625 0-.584-.093-1.127-.279-1.63a2.74 2.74 0 0 0-.858-1.223c-.386-.31-.878-.465-1.477-.465-.598 0-1.091.155-1.477.465a2.74 2.74 0 0 0-.858 1.222 4.672 4.672 0 0 0-.279 1.63c0 .584.093 1.126.279 1.626.185.5.471.903.858 1.21.386.307.879.46 1.477.46Zm9.888-7.704v1.136h-4.705v-1.136h4.705ZM537.724 76v-9.932c0-.5.118-.916.353-1.25a2.18 2.18 0 0 1 .914-.75c.375-.166.771-.25 1.188-.25.33 0 .598.027.807.08a3.1 3.1 0 0 1 .466.148l-.387 1.158a6.673 6.673 0 0 0-.284-.085 1.717 1.717 0 0 0-.466-.05c-.443 0-.763.11-.96.334-.193.224-.29.551-.29.983V76h-1.341Zm8.971-8.727v1.136h-4.523v-1.136h4.523Zm-3.205-2.091h1.341V73.5c0 .379.055.663.165.852a.85.85 0 0 0 .432.375c.178.06.365.091.562.091.148 0 .269-.007.364-.022l.227-.046.273 1.204a2.733 2.733 0 0 1-.381.103 2.8 2.8 0 0 1-.619.057 2.7 2.7 0 0 1-1.114-.245 2.215 2.215 0 0 1-.898-.744c-.235-.333-.352-.754-.352-1.261v-8.682ZM550.689 76l-2.659-8.727h1.409l1.886 6.681h.091l1.864-6.681h1.432l1.841 6.659h.09l1.887-6.66h1.409L557.28 76h-1.318l-1.909-6.704h-.137L552.007 76h-1.318Zm13.591.204a3.548 3.548 0 0 1-1.506-.312 2.582 2.582 0 0 1-1.074-.915c-.265-.401-.397-.886-.397-1.454 0-.5.098-.906.295-1.216.197-.315.46-.56.79-.739a4.14 4.14 0 0 1 1.091-.397c.401-.092.805-.163 1.21-.217.53-.068.96-.119 1.29-.153.333-.038.575-.1.727-.187.155-.088.233-.239.233-.455v-.045c0-.561-.153-.997-.46-1.307-.303-.31-.764-.466-1.381-.466-.64 0-1.142.14-1.506.42-.363.28-.619.58-.767.898l-1.272-.455c.227-.53.53-.943.909-1.238.382-.3.799-.508 1.25-.625a5.184 5.184 0 0 1 1.341-.182c.28 0 .602.034.965.102.368.065.722.2 1.063.404.345.204.631.513.858.926.227.413.341.966.341 1.659V76h-1.341v-1.182h-.068a2.36 2.36 0 0 1-.455.608c-.212.216-.494.4-.846.551-.353.152-.783.227-1.29.227Zm.204-1.204c.531 0 .978-.104 1.341-.313a2.128 2.128 0 0 0 1.114-1.846v-1.227c-.057.068-.182.13-.375.187a6.29 6.29 0 0 1-.659.142 29.629 29.629 0 0 1-1.284.17 5.13 5.13 0 0 0-.978.222 1.687 1.687 0 0 0-.727.45c-.182.196-.273.465-.273.806 0 .466.173.818.518 1.057.348.235.789.352 1.323.352Zm6.243 1v-8.727h1.296v1.318h.091c.159-.432.447-.782.863-1.051a2.544 2.544 0 0 1 1.409-.404c.099 0 .222.002.37.006.147.004.259.01.335.017v1.364a4.073 4.073 0 0 0-.313-.051 3.068 3.068 0 0 0-.505-.04c-.425 0-.803.089-1.137.267a2.016 2.016 0 0 0-.784.727 1.964 1.964 0 0 0-.284 1.051V76h-1.341Zm9.347.182c-.841 0-1.566-.186-2.176-.557a3.742 3.742 0 0 1-1.404-1.568c-.325-.674-.488-1.459-.488-2.353 0-.893.163-1.681.488-2.363.33-.686.788-1.22 1.375-1.602.591-.387 1.281-.58 2.069-.58.454 0 .903.076 1.346.227.443.152.847.398 1.21.739.364.337.654.784.87 1.34.216.558.324 1.243.324 2.058v.568h-6.728v-1.16h5.364c0-.492-.099-.931-.296-1.317a2.223 2.223 0 0 0-.829-.915c-.356-.224-.777-.335-1.261-.335-.535 0-.997.132-1.387.397a2.615 2.615 0 0 0-.892 1.023c-.208.42-.312.871-.312 1.352v.773c0 .66.113 1.218.341 1.676.231.455.551.801.96 1.04.409.235.884.352 1.426.352.352 0 .67-.049.954-.148.288-.102.536-.253.745-.454.208-.204.369-.458.483-.761l1.295.363a2.87 2.87 0 0 1-.687 1.16 3.35 3.35 0 0 1-1.194.772 4.42 4.42 0 0 1-1.596.273Zm13.812 0c-.841 0-1.566-.186-2.176-.557a3.733 3.733 0 0 1-1.403-1.568c-.326-.674-.489-1.459-.489-2.353 0-.893.163-1.681.489-2.363.329-.686.788-1.22 1.375-1.602.591-.387 1.28-.58 2.068-.58.455 0 .903.076 1.347.227a3.34 3.34 0 0 1 1.21.739c.363.337.653.784.869 1.34.216.558.324 1.243.324 2.058v.568h-6.727v-1.16h5.363c0-.492-.098-.931-.295-1.317a2.225 2.225 0 0 0-.83-.915c-.356-.224-.776-.335-1.261-.335-.534 0-.996.132-1.386.397a2.608 2.608 0 0 0-.892 1.023c-.209.42-.313.871-.313 1.352v.773c0 .66.114 1.218.341 1.676.231.455.551.801.96 1.04.409.235.885.352 1.426.352a2.9 2.9 0 0 0 .955-.148 2.03 2.03 0 0 0 .744-.454c.209-.204.37-.458.483-.761l1.296.363a2.88 2.88 0 0 1-.688 1.16c-.322.329-.72.587-1.193.772a4.43 4.43 0 0 1-1.597.273Zm6.995-5.432V76h-1.341v-8.727h1.295v1.363h.114c.204-.443.515-.799.932-1.068.416-.272.954-.409 1.613-.409.591 0 1.108.121 1.551.364.444.238.788.602 1.035 1.09.246.486.369 1.1.369 1.841V76h-1.341v-5.454c0-.686-.178-1.22-.534-1.603-.356-.386-.845-.58-1.466-.58a2.34 2.34 0 0 0-1.148.279 2 2 0 0 0-.79.813c-.193.356-.289.787-.289 1.295Zm11.541 8.704c-.648 0-1.205-.083-1.671-.25a3.541 3.541 0 0 1-1.164-.647 3.542 3.542 0 0 1-.733-.853l1.068-.75c.121.16.274.342.46.546.186.208.439.388.761.54.326.155.752.233 1.279.233.704 0 1.286-.17 1.744-.512.459-.34.688-.875.688-1.602v-1.773h-.114a7.29 7.29 0 0 1-.42.591c-.178.231-.436.438-.773.62-.333.178-.784.267-1.352.267-.705 0-1.338-.167-1.898-.5-.557-.334-.998-.819-1.324-1.455-.322-.636-.483-1.409-.483-2.318 0-.894.157-1.672.472-2.335.314-.667.752-1.182 1.312-1.546.561-.367 1.208-.55 1.943-.55.569 0 1.019.094 1.353.283.337.186.594.398.772.636.182.235.322.429.421.58h.136v-1.386h1.296v8.977c0 .75-.171 1.36-.512 1.83a2.91 2.91 0 0 1-1.363 1.04 5.149 5.149 0 0 1-1.898.334Zm-.046-4.795c.538 0 .993-.123 1.364-.37.371-.245.653-.6.847-1.062.193-.462.289-1.015.289-1.659 0-.629-.094-1.183-.284-1.665-.189-.48-.469-.858-.841-1.13-.371-.273-.829-.41-1.375-.41-.568 0-1.041.145-1.42.433a2.634 2.634 0 0 0-.847 1.158 4.495 4.495 0 0 0-.278 1.614c0 .606.095 1.142.284 1.608.193.462.477.826.852 1.091.379.261.849.392 1.409.392ZM618.649 76v-8.727h1.341V76h-1.341Zm.682-10.182a.953.953 0 0 1-.676-.267.857.857 0 0 1-.279-.642c0-.25.093-.464.279-.642a.953.953 0 0 1 .676-.267c.261 0 .485.089.67.267.19.178.285.392.285.642s-.095.464-.285.642a.932.932 0 0 1-.67.267Zm4.456 4.932V76h-1.341v-8.727h1.295v1.363h.114c.205-.443.515-.799.932-1.068.417-.272.954-.409 1.614-.409.59 0 1.108.121 1.551.364a2.45 2.45 0 0 1 1.034 1.09c.246.486.369 1.1.369 1.841V76h-1.341v-5.454c0-.686-.178-1.22-.534-1.603-.356-.386-.845-.58-1.466-.58-.428 0-.81.093-1.148.279a1.992 1.992 0 0 0-.789.813c-.193.356-.29.787-.29 1.295Zm11.677 5.432c-.84 0-1.566-.186-2.176-.557a3.733 3.733 0 0 1-1.403-1.568c-.326-.674-.489-1.459-.489-2.353 0-.893.163-1.681.489-2.363.329-.686.788-1.22 1.375-1.602.591-.387 1.28-.58 2.068-.58.455 0 .904.076 1.347.227a3.34 3.34 0 0 1 1.21.739c.364.337.653.784.869 1.34.216.558.324 1.243.324 2.058v.568h-6.727v-1.16h5.363c0-.492-.098-.931-.295-1.317a2.225 2.225 0 0 0-.83-.915c-.356-.224-.776-.335-1.261-.335-.534 0-.996.132-1.386.397a2.608 2.608 0 0 0-.892 1.023c-.209.42-.313.871-.313 1.352v.773c0 .66.114 1.218.341 1.676.231.455.551.801.96 1.04.409.235.885.352 1.426.352a2.9 2.9 0 0 0 .955-.148 2.03 2.03 0 0 0 .744-.454c.209-.204.37-.458.483-.761l1.296.363a2.88 2.88 0 0 1-.688 1.16 3.344 3.344 0 0 1-1.193.772 4.426 4.426 0 0 1-1.597.273Zm9.313 0c-.841 0-1.566-.186-2.176-.557a3.742 3.742 0 0 1-1.404-1.568c-.325-.674-.488-1.459-.488-2.353 0-.893.163-1.681.488-2.363.33-.686.788-1.22 1.375-1.602.591-.387 1.281-.58 2.069-.58.454 0 .903.076 1.346.227.443.152.847.398 1.21.739.364.337.654.784.87 1.34.216.558.324 1.243.324 2.058v.568h-6.728v-1.16h5.364c0-.492-.098-.931-.295-1.317a2.232 2.232 0 0 0-.83-.915c-.356-.224-.777-.335-1.261-.335-.534 0-.997.132-1.387.397a2.623 2.623 0 0 0-.892 1.023c-.208.42-.312.871-.312 1.352v.773c0 .66.113 1.218.341 1.676.231.455.551.801.96 1.04.409.235.884.352 1.426.352.352 0 .67-.049.955-.148.287-.102.536-.253.744-.454.208-.204.369-.458.483-.761l1.295.363a2.87 2.87 0 0 1-.687 1.16c-.322.329-.72.587-1.193.772a4.43 4.43 0 0 1-1.597.273ZM650.43 76v-8.727h1.296v1.318h.091c.159-.432.447-.782.863-1.051a2.544 2.544 0 0 1 1.409-.404c.099 0 .222.002.37.006s.259.01.335.017v1.364a4.014 4.014 0 0 0-.312-.051 3.09 3.09 0 0 0-.506-.04 2.38 2.38 0 0 0-1.137.267c-.329.174-.59.416-.784.727a1.964 1.964 0 0 0-.284 1.051V76h-1.341Zm12.135-6.773-1.204.341a2.262 2.262 0 0 0-.335-.585 1.628 1.628 0 0 0-.591-.477c-.25-.125-.57-.188-.961-.188-.534 0-.979.123-1.335.37-.352.242-.528.55-.528.926 0 .333.121.596.363.79.243.193.622.354 1.137.482l1.295.319c.781.189 1.362.479 1.745.869.382.386.573.884.573 1.494 0 .5-.144.947-.431 1.341-.284.394-.682.705-1.194.932-.511.227-1.106.34-1.784.34-.89 0-1.627-.192-2.21-.579-.583-.386-.953-.95-1.108-1.693l1.273-.318c.121.47.35.822.687 1.057.341.235.786.352 1.336.352.625 0 1.121-.133 1.488-.398.371-.269.557-.59.557-.966 0-.303-.106-.556-.318-.761-.212-.208-.538-.364-.977-.466l-1.455-.34c-.799-.19-1.386-.484-1.761-.882-.372-.401-.557-.903-.557-1.505 0-.493.138-.928.415-1.307a2.82 2.82 0 0 1 1.142-.892c.485-.216 1.034-.324 1.647-.324.864 0 1.542.19 2.035.568a3.06 3.06 0 0 1 1.056 1.5Zm5.042 1.864c0 1.432-.188 2.75-.563 3.955a12.182 12.182 0 0 1-1.597 3.318h-1.181c.272-.375.526-.838.761-1.387.239-.545.447-1.144.625-1.795.178-.656.316-1.332.415-2.029a14.297 14.297 0 0 0-.108-4.806 15.703 15.703 0 0 0-.705-2.586c-.295-.795-.625-1.443-.988-1.943h1.181a12.163 12.163 0 0 1 1.597 3.324c.375 1.2.563 2.517.563 3.949ZM189 92.864c-.458 0-.877-.112-1.256-.336a2.624 2.624 0 0 1-.909-.909 2.43 2.43 0 0 1-.335-1.255c0-.463.112-.881.335-1.256a2.58 2.58 0 0 1 .909-.904c.379-.227.798-.34 1.256-.34.462 0 .881.113 1.256.34.378.224.68.525.903.904.227.375.341.793.341 1.256 0 .458-.114.876-.341 1.255a2.566 2.566 0 0 1-.903.91 2.407 2.407 0 0 1-1.256.335ZM204.523 95l-3.182-11.636h1.432l2.432 9.477h.113l2.477-9.477h1.591l2.478 9.477h.113l2.432-9.477h1.432L212.659 95h-1.454l-2.569-9.273h-.091L205.977 95h-1.454Zm14.647.204a3.543 3.543 0 0 1-1.505-.312 2.582 2.582 0 0 1-1.074-.915c-.265-.401-.398-.886-.398-1.454 0-.5.099-.906.296-1.216.197-.315.46-.56.789-.739.33-.178.694-.31 1.091-.397.402-.092.805-.163 1.211-.217.53-.068.96-.119 1.289-.153.334-.038.576-.1.728-.187.155-.088.233-.239.233-.455v-.045c0-.561-.154-.997-.461-1.307-.303-.31-.763-.466-1.38-.466-.641 0-1.142.14-1.506.42-.364.28-.619.58-.767.898l-1.273-.455c.227-.53.53-.943.909-1.238.383-.3.8-.508 1.25-.625a5.196 5.196 0 0 1 1.341-.182c.28 0 .602.034.966.102.368.065.722.2 1.063.404.344.204.63.513.858.926.227.413.34.966.34 1.659V95h-1.34v-1.182h-.069c-.091.19-.242.392-.454.608-.212.216-.494.4-.847.551-.352.152-.782.227-1.29.227Zm.205-1.204c.53 0 .977-.104 1.341-.313.367-.208.644-.477.829-.806.19-.33.285-.677.285-1.04v-1.227c-.057.068-.182.13-.375.187-.19.053-.41.1-.66.142a29.56 29.56 0 0 1-1.284.17 5.19 5.19 0 0 0-.977.222 1.681 1.681 0 0 0-.727.45c-.182.196-.273.465-.273.806 0 .466.172.818.517 1.057.349.235.79.352 1.324.352Zm7.584-10.636V95h-1.341V83.364h1.341Zm3.706 8.454-.023-1.659h.273l3.818-3.886h1.659l-4.068 4.113h-.114l-1.545 1.432ZM229.415 95V83.364h1.341V95h-1.341Zm5.545 0-3.409-4.318.955-.932 4.159 5.25h-1.705Zm7.658 0v-8.727h1.295v1.363h.114c.182-.465.475-.827.881-1.085.405-.261.892-.392 1.46-.392.576 0 1.055.13 1.437.392.387.258.688.62.904 1.085h.091c.223-.45.558-.808 1.005-1.073.447-.27.983-.404 1.608-.404.781 0 1.419.244 1.915.733.496.485.744 1.24.744 2.267V95h-1.34v-5.84c0-.645-.177-1.105-.529-1.382a1.955 1.955 0 0 0-1.244-.414c-.614 0-1.089.185-1.426.556-.337.368-.506.834-.506 1.398V95h-1.364v-5.977c0-.496-.161-.896-.483-1.2-.322-.306-.736-.46-1.244-.46-.348 0-.674.093-.977.279a2.1 2.1 0 0 0-.727.773 2.28 2.28 0 0 0-.273 1.13V95h-1.341Zm17.565.182c-.841 0-1.566-.186-2.176-.557a3.733 3.733 0 0 1-1.403-1.568c-.326-.674-.489-1.459-.489-2.353 0-.893.163-1.681.489-2.363.329-.686.788-1.22 1.375-1.602.591-.387 1.28-.58 2.068-.58.454 0 .903.076 1.346.227.444.152.847.398 1.211.739.363.337.653.784.869 1.34.216.558.324 1.243.324 2.058v.568h-6.727v-1.16h5.363c0-.492-.098-.931-.295-1.317a2.225 2.225 0 0 0-.83-.915c-.356-.224-.776-.335-1.261-.335-.534 0-.996.132-1.386.397a2.618 2.618 0 0 0-.893 1.023c-.208.42-.312.871-.312 1.352v.773c0 .66.114 1.218.341 1.676.231.455.551.801.96 1.04.409.235.885.352 1.426.352a2.9 2.9 0 0 0 .955-.148 2.03 2.03 0 0 0 .744-.454c.208-.204.369-.458.483-.761l1.296.363a2.88 2.88 0 0 1-.688 1.16c-.322.329-.72.587-1.193.772a4.43 4.43 0 0 1-1.597.273Zm13.949-8.91v1.137h-4.523v-1.136h4.523Zm-3.204-2.09h1.34V92.5c0 .379.055.663.165.852.114.186.258.31.432.375.178.06.366.091.563.091.147 0 .268-.007.363-.022l.227-.046.273 1.204a2.753 2.753 0 0 1-.38.103c-.163.038-.37.057-.62.057-.379 0-.75-.082-1.113-.245a2.208 2.208 0 0 1-.898-.744c-.235-.333-.352-.754-.352-1.261v-8.682Zm6.75 5.568V95h-1.341V83.364h1.341v4.272h.113c.205-.45.512-.808.921-1.073.413-.27.962-.404 1.647-.404.595 0 1.116.12 1.563.358.447.235.793.597 1.04 1.085.25.485.375 1.102.375 1.852V95h-1.341v-5.454c0-.694-.18-1.23-.54-1.609-.356-.382-.85-.573-1.483-.573-.439 0-.833.092-1.182.278a2.035 2.035 0 0 0-.818.813c-.197.356-.295.787-.295 1.295ZM285.79 95v-8.727h1.295v1.318h.091c.159-.432.447-.782.864-1.051a2.54 2.54 0 0 1 1.409-.404c.098 0 .221.002.369.006s.26.01.335.017v1.364a3.926 3.926 0 0 0-.312-.051 3.08 3.08 0 0 0-.506-.04c-.424 0-.803.089-1.136.267a1.955 1.955 0 0 0-1.068 1.778V95h-1.341Zm9.233.182c-.788 0-1.479-.188-2.074-.563-.591-.375-1.053-.9-1.387-1.573-.329-.675-.494-1.463-.494-2.364 0-.91.165-1.703.494-2.38.334-.679.796-1.205 1.387-1.58.595-.375 1.286-.563 2.074-.563.788 0 1.477.188 2.068.563.595.375 1.057.901 1.386 1.58.334.677.5 1.47.5 2.38 0 .901-.166 1.69-.5 2.364a3.763 3.763 0 0 1-1.386 1.573c-.591.375-1.28.563-2.068.563Zm0-1.205c.598 0 1.091-.153 1.477-.46a2.72 2.72 0 0 0 .858-1.21c.186-.5.278-1.042.278-1.625 0-.584-.092-1.127-.278-1.63a2.755 2.755 0 0 0-.858-1.223c-.386-.31-.879-.465-1.477-.465-.599 0-1.091.155-1.478.465a2.747 2.747 0 0 0-.857 1.222 4.672 4.672 0 0 0-.279 1.63c0 .584.093 1.126.279 1.626.185.5.471.903.857 1.21.387.307.879.46 1.478.46Zm11.501-2.545v-5.16h1.341V95h-1.341v-1.477h-.091c-.204.443-.522.82-.954 1.13-.432.307-.978.46-1.637.46-.545 0-1.03-.119-1.454-.357-.424-.243-.758-.606-1-1.091-.243-.489-.364-1.104-.364-1.847v-5.545h1.341v5.454c0 .637.178 1.144.534 1.523.36.379.818.568 1.375.568a2.29 2.29 0 0 0 1.017-.255c.349-.171.64-.432.875-.785.239-.352.358-.8.358-1.346Zm7.32 7.022c-.648 0-1.205-.083-1.671-.25a3.53 3.53 0 0 1-1.164-.647 3.52 3.52 0 0 1-.733-.853l1.068-.75c.121.16.274.342.46.546.186.208.439.388.761.54.326.155.752.233 1.279.233.704 0 1.286-.17 1.744-.512.458-.34.688-.875.688-1.602v-1.773h-.114a7.34 7.34 0 0 1-.421.591c-.178.231-.435.438-.772.62-.334.178-.784.267-1.353.267-.704 0-1.337-.167-1.897-.5-.557-.334-.998-.819-1.324-1.455-.322-.636-.483-1.409-.483-2.318 0-.894.157-1.672.472-2.335.314-.667.751-1.182 1.312-1.546.561-.367 1.208-.55 1.943-.55.568 0 1.019.094 1.352.283.338.186.595.398.773.636.182.235.322.429.421.58h.136v-1.386h1.295v8.977c0 .75-.17 1.36-.511 1.83-.337.473-.792.82-1.364 1.04a5.14 5.14 0 0 1-1.897.334Zm-.046-4.795c.538 0 .993-.123 1.364-.37.371-.245.653-.6.847-1.062.193-.462.289-1.015.289-1.659 0-.629-.094-1.183-.284-1.665-.189-.48-.469-.858-.841-1.13-.371-.273-.829-.41-1.375-.41-.568 0-1.041.145-1.42.433a2.634 2.634 0 0 0-.847 1.158 4.495 4.495 0 0 0-.278 1.614c0 .606.095 1.142.284 1.608.193.462.477.826.852 1.091.379.261.849.392 1.409.392Zm7.614-3.909V95h-1.341V83.364h1.341v4.272h.114c.204-.45.511-.808.92-1.073.413-.27.962-.404 1.648-.404.594 0 1.115.12 1.562.358a2.41 2.41 0 0 1 1.04 1.085c.25.485.375 1.102.375 1.852V95h-1.341v-5.454c0-.694-.18-1.23-.54-1.609-.356-.382-.85-.573-1.483-.573-.439 0-.833.092-1.181.278a2.037 2.037 0 0 0-.819.813c-.197.356-.295.787-.295 1.295Zm13.476 8.523a3 3 0 0 1-.608-.057 1.597 1.597 0 0 1-.369-.102l.34-1.182c.326.083.614.114.864.09a1.03 1.03 0 0 0 .665-.335c.197-.197.377-.516.54-.96l.25-.681-3.228-8.773h1.455l2.409 6.954h.091l2.409-6.954h1.455l-3.705 10c-.167.45-.373.824-.619 1.119-.247.3-.533.52-.858.665a2.646 2.646 0 0 1-1.091.216Zm11.275-3.091c-.788 0-1.479-.188-2.074-.563-.59-.375-1.053-.9-1.386-1.573-.329-.675-.494-1.463-.494-2.364 0-.91.165-1.703.494-2.38.333-.679.796-1.205 1.386-1.58.595-.375 1.286-.563 2.074-.563.788 0 1.478.188 2.069.563.594.375 1.056.901 1.386 1.58.333.677.5 1.47.5 2.38 0 .901-.167 1.69-.5 2.364a3.775 3.775 0 0 1-1.386 1.573c-.591.375-1.281.563-2.069.563Zm0-1.205c.599 0 1.091-.153 1.478-.46a2.72 2.72 0 0 0 .858-1.21c.185-.5.278-1.042.278-1.625 0-.584-.093-1.127-.278-1.63a2.755 2.755 0 0 0-.858-1.223c-.387-.31-.879-.465-1.478-.465-.598 0-1.091.155-1.477.465a2.757 2.757 0 0 0-.858 1.222 4.695 4.695 0 0 0-.278 1.63c0 .584.093 1.126.278 1.626.186.5.472.903.858 1.21.386.307.879.46 1.477.46Zm11.502-2.545v-5.16h1.341V95h-1.341v-1.477h-.091c-.205.443-.523.82-.955 1.13-.431.307-.977.46-1.636.46a2.92 2.92 0 0 1-1.455-.357c-.424-.243-.757-.606-1-1.091-.242-.489-.363-1.104-.363-1.847v-5.545h1.341v5.454c0 .637.178 1.144.534 1.523.36.379.818.568 1.375.568a2.29 2.29 0 0 0 1.017-.255c.348-.171.64-.432.875-.785.238-.352.358-.8.358-1.346ZM361.462 95v-8.727h1.295v1.318h.091c.159-.432.447-.782.864-1.051a2.54 2.54 0 0 1 1.409-.404c.098 0 .221.002.369.006s.26.01.335.017v1.364a3.926 3.926 0 0 0-.312-.051 3.08 3.08 0 0 0-.506-.04c-.424 0-.803.089-1.136.267a1.955 1.955 0 0 0-1.068 1.778V95h-1.341Zm10.453 3.273v-12h1.295v1.386h.159c.099-.151.235-.345.409-.58.178-.238.432-.45.762-.636.333-.19.784-.284 1.352-.284.735 0 1.383.184 1.943.551.561.368.998.889 1.313 1.563.314.674.471 1.47.471 2.386 0 .924-.157 1.725-.471 2.403-.315.675-.75 1.198-1.307 1.569-.557.367-1.199.55-1.926.55-.561 0-1.01-.092-1.347-.278-.337-.189-.596-.403-.778-.642a8.77 8.77 0 0 1-.421-.602h-.113v4.614h-1.341Zm1.318-7.637c0 .66.097 1.24.29 1.745.193.5.475.892.846 1.176.372.28.826.42 1.364.42.561 0 1.028-.148 1.403-.443.379-.3.663-.7.853-1.205a4.73 4.73 0 0 0 .289-1.693c0-.613-.094-1.166-.284-1.659-.185-.496-.467-.888-.846-1.176-.375-.291-.847-.437-1.415-.437-.545 0-1.004.138-1.375.414-.371.273-.652.656-.841 1.148-.189.489-.284 1.059-.284 1.71Zm11.977 4.546c-.788 0-1.479-.188-2.074-.563-.591-.375-1.053-.9-1.386-1.573-.33-.675-.494-1.463-.494-2.364 0-.91.164-1.703.494-2.38.333-.679.795-1.205 1.386-1.58.595-.375 1.286-.563 2.074-.563.788 0 1.478.188 2.068.563.595.375 1.057.901 1.387 1.58.333.677.5 1.47.5 2.38 0 .901-.167 1.69-.5 2.364a3.77 3.77 0 0 1-1.387 1.573c-.59.375-1.28.563-2.068.563Zm0-1.205c.599 0 1.091-.153 1.478-.46a2.71 2.71 0 0 0 .857-1.21c.186-.5.279-1.042.279-1.625 0-.584-.093-1.127-.279-1.63a2.745 2.745 0 0 0-.857-1.223c-.387-.31-.879-.465-1.478-.465-.598 0-1.091.155-1.477.465a2.757 2.757 0 0 0-.858 1.222 4.672 4.672 0 0 0-.278 1.63c0 .584.092 1.126.278 1.626.186.5.472.903.858 1.21.386.307.879.46 1.477.46ZM391.212 95v-8.727h1.295v1.318h.091c.159-.432.447-.782.864-1.051a2.54 2.54 0 0 1 1.409-.404c.098 0 .221.002.369.006s.26.01.335.017v1.364a3.926 3.926 0 0 0-.312-.051 3.08 3.08 0 0 0-.506-.04c-.424 0-.803.089-1.136.267a1.955 1.955 0 0 0-1.068 1.778V95h-1.341Zm10.295-8.727v1.136h-4.523v-1.136h4.523Zm-3.204-2.091h1.34V92.5c0 .379.055.663.165.852.114.186.258.31.432.375.178.06.366.091.563.091.147 0 .268-.007.363-.022l.227-.046.273 1.204a2.753 2.753 0 0 1-.38.103c-.163.038-.37.057-.62.057-.379 0-.75-.082-1.113-.245a2.208 2.208 0 0 1-.898-.744c-.235-.333-.352-.754-.352-1.261v-8.682Zm9.108 2.09v1.137h-4.705v-1.136h4.705ZM404.115 95v-9.932c0-.5.117-.916.352-1.25a2.19 2.19 0 0 1 .915-.75c.375-.166.771-.25 1.188-.25.329 0 .598.027.806.08.209.053.364.102.466.148l-.386 1.158a6.673 6.673 0 0 0-.284-.085 1.727 1.727 0 0 0-.466-.05c-.443 0-.763.11-.96.334-.193.224-.29.551-.29.983V95h-1.341Zm8.361.182c-.788 0-1.479-.188-2.074-.563-.591-.375-1.053-.9-1.386-1.573-.33-.675-.495-1.463-.495-2.364 0-.91.165-1.703.495-2.38.333-.679.795-1.205 1.386-1.58.595-.375 1.286-.563 2.074-.563.788 0 1.477.188 2.068.563.595.375 1.057.901 1.386 1.58.334.677.5 1.47.5 2.38 0 .901-.166 1.69-.5 2.364a3.763 3.763 0 0 1-1.386 1.573c-.591.375-1.28.563-2.068.563Zm0-1.205c.598 0 1.091-.153 1.477-.46a2.72 2.72 0 0 0 .858-1.21c.186-.5.278-1.042.278-1.625 0-.584-.092-1.127-.278-1.63a2.755 2.755 0 0 0-.858-1.223c-.386-.31-.879-.465-1.477-.465-.599 0-1.091.155-1.477.465a2.74 2.74 0 0 0-.858 1.222 4.672 4.672 0 0 0-.279 1.63c0 .584.093 1.126.279 1.626.185.5.471.903.858 1.21.386.307.878.46 1.477.46Zm7.342-10.613V95h-1.341V83.364h1.341ZM422.274 95v-8.727h1.341V95h-1.341Zm.682-10.182a.953.953 0 0 1-.676-.267.857.857 0 0 1-.279-.642c0-.25.093-.464.279-.642a.953.953 0 0 1 .676-.267c.261 0 .485.089.67.267.19.178.285.392.285.642s-.095.464-.285.642a.932.932 0 0 1-.67.267Zm6.66 10.364c-.787 0-1.479-.188-2.073-.563-.591-.375-1.053-.9-1.387-1.573-.329-.675-.494-1.463-.494-2.364 0-.91.165-1.703.494-2.38.334-.679.796-1.205 1.387-1.58.594-.375 1.286-.563 2.073-.563.788 0 1.478.188 2.069.563.594.375 1.056.901 1.386 1.58.333.677.5 1.47.5 2.38 0 .901-.167 1.69-.5 2.364a3.775 3.775 0 0 1-1.386 1.573c-.591.375-1.281.563-2.069.563Zm0-1.205c.599 0 1.091-.153 1.478-.46a2.72 2.72 0 0 0 .858-1.21c.185-.5.278-1.042.278-1.625 0-.584-.093-1.127-.278-1.63a2.755 2.755 0 0 0-.858-1.223c-.387-.31-.879-.465-1.478-.465-.598 0-1.09.155-1.477.465a2.757 2.757 0 0 0-.858 1.222 4.695 4.695 0 0 0-.278 1.63c0 .584.093 1.126.278 1.626.186.5.472.903.858 1.21.387.307.879.46 1.477.46Zm6.979 1.114c-.28 0-.521-.1-.721-.301a.984.984 0 0 1-.302-.722c0-.28.101-.52.302-.721a.981.981 0 0 1 .721-.301c.28 0 .521.1.722.3a.985.985 0 0 1 .301.722.96.96 0 0 1-.142.511c-.091.156-.214.28-.369.376a.976.976 0 0 1-.512.136Zm8.406-5.91c0-1.431.186-2.747.557-3.948a12.296 12.296 0 0 1 1.603-3.324h1.181a7.38 7.38 0 0 0-.767 1.386 13.492 13.492 0 0 0-.619 1.802 17.017 17.017 0 0 0-.42 2.022 14.652 14.652 0 0 0-.148 2.063c0 .901.087 1.816.261 2.744.174.928.409 1.79.705 2.585.295.796.625 1.444.988 1.944h-1.181a12.315 12.315 0 0 1-1.603-3.319c-.371-1.204-.557-2.522-.557-3.954ZM450.503 95V83.364h6.977v1.25h-5.568v3.931h5.045v1.25h-5.045V95h-1.409Zm12.113.182c-.787 0-1.479-.188-2.073-.563-.591-.375-1.053-.9-1.387-1.573-.329-.675-.494-1.463-.494-2.364 0-.91.165-1.703.494-2.38.334-.679.796-1.205 1.387-1.58.594-.375 1.286-.563 2.073-.563.788 0 1.478.188 2.069.563.594.375 1.056.901 1.386 1.58.333.677.5 1.47.5 2.38 0 .901-.167 1.69-.5 2.364a3.775 3.775 0 0 1-1.386 1.573c-.591.375-1.281.563-2.069.563Zm0-1.205c.599 0 1.091-.153 1.478-.46a2.72 2.72 0 0 0 .858-1.21c.185-.5.278-1.042.278-1.625 0-.584-.093-1.127-.278-1.63a2.755 2.755 0 0 0-.858-1.223c-.387-.31-.879-.465-1.478-.465-.598 0-1.09.155-1.477.465a2.757 2.757 0 0 0-.858 1.222 4.695 4.695 0 0 0-.278 1.63c0 .584.093 1.126.278 1.626.186.5.472.903.858 1.21.387.307.879.46 1.477.46ZM468.618 95v-8.727h1.295v1.318h.091c.159-.432.447-.782.864-1.051a2.541 2.541 0 0 1 1.409-.404c.098 0 .222.002.369.006.148.004.26.01.336.017v1.364a4.073 4.073 0 0 0-.313-.051 3.08 3.08 0 0 0-.506-.04c-.424 0-.803.089-1.136.267a2.01 2.01 0 0 0-.784.727 1.964 1.964 0 0 0-.284 1.051V95h-1.341Zm13.748.182c-.727 0-1.369-.184-1.926-.551-.556-.371-.992-.894-1.306-1.569-.315-.677-.472-1.479-.472-2.403 0-.917.157-1.712.472-2.386.314-.674.751-1.195 1.312-1.563.561-.367 1.208-.55 1.943-.55.568 0 1.017.094 1.347.283.333.186.587.398.761.636.178.235.316.429.415.58h.114v-4.295h1.34V95h-1.295v-1.34h-.159a8.77 8.77 0 0 1-.421.601c-.181.239-.441.453-.778.642-.337.186-.786.279-1.347.279Zm.182-1.205c.538 0 .993-.14 1.364-.42.371-.284.653-.676.847-1.176.193-.504.289-1.085.289-1.745 0-.651-.094-1.221-.284-1.71-.189-.492-.469-.875-.841-1.148-.371-.276-.829-.414-1.375-.414-.568 0-1.041.145-1.42.437-.375.288-.657.68-.847 1.176a4.689 4.689 0 0 0-.278 1.66c0 .62.095 1.185.284 1.692.193.504.477.906.852 1.205.379.295.849.443 1.409.443Zm10.12 1.205c-.841 0-1.567-.186-2.177-.557a3.74 3.74 0 0 1-1.403-1.568c-.326-.674-.489-1.459-.489-2.353 0-.893.163-1.681.489-2.363.33-.686.788-1.22 1.375-1.602.591-.387 1.28-.58 2.068-.58.455 0 .904.076 1.347.227a3.34 3.34 0 0 1 1.21.739c.364.337.653.784.869 1.34.216.558.324 1.243.324 2.058v.568h-6.727v-1.16h5.364c0-.492-.099-.931-.296-1.317a2.23 2.23 0 0 0-.829-.915c-.356-.224-.777-.335-1.262-.335-.534 0-.996.132-1.386.397a2.615 2.615 0 0 0-.892 1.023 3.01 3.01 0 0 0-.313 1.352v.773c0 .66.114 1.218.341 1.676.231.455.551.801.96 1.04.41.235.885.352 1.427.352.352 0 .67-.049.954-.148a2.03 2.03 0 0 0 .744-.454c.209-.204.37-.458.483-.761l1.296.363a2.87 2.87 0 0 1-.688 1.16 3.344 3.344 0 0 1-1.193.772 4.42 4.42 0 0 1-1.596.273Zm11.835-6.955-1.205.341a2.206 2.206 0 0 0-.335-.585 1.628 1.628 0 0 0-.591-.477c-.25-.125-.57-.188-.96-.188-.534 0-.979.123-1.335.37-.353.242-.529.55-.529.926 0 .333.122.596.364.79.242.193.621.354 1.136.482l1.296.319c.78.189 1.361.479 1.744.869.383.386.574.884.574 1.494 0 .5-.144.947-.432 1.341-.284.394-.682.705-1.193.932-.511.227-1.106.34-1.784.34-.89 0-1.627-.192-2.21-.579-.584-.386-.953-.95-1.108-1.693l1.272-.318c.122.47.351.822.688 1.057.341.235.786.352 1.335.352.625 0 1.121-.133 1.489-.398.371-.269.557-.59.557-.966 0-.303-.106-.556-.319-.761-.212-.208-.537-.364-.977-.466l-1.454-.34c-.8-.19-1.387-.484-1.762-.882-.371-.401-.557-.903-.557-1.505 0-.493.139-.928.415-1.307a2.82 2.82 0 0 1 1.142-.892c.485-.216 1.034-.324 1.648-.324.864 0 1.542.19 2.034.568.496.38.849.88 1.057 1.5ZM506.68 95v-8.727h1.341V95h-1.341Zm.682-10.182a.953.953 0 0 1-.676-.267.856.856 0 0 1-.278-.642c0-.25.092-.464.278-.642a.953.953 0 0 1 .676-.267c.262 0 .485.089.671.267a.851.851 0 0 1 .284.642c0 .25-.095.464-.284.642a.934.934 0 0 1-.671.267ZM514 98.454c-.648 0-1.205-.083-1.67-.25a3.536 3.536 0 0 1-1.165-.647 3.542 3.542 0 0 1-.733-.853l1.068-.75c.121.16.275.342.46.546.186.208.44.388.762.54.325.155.751.233 1.278.233.705 0 1.286-.17 1.744-.512.459-.34.688-.875.688-1.602v-1.773h-.114c-.098.16-.238.356-.42.591-.178.231-.436.438-.773.62-.333.178-.784.267-1.352.267a3.646 3.646 0 0 1-1.898-.5c-.557-.334-.998-.819-1.324-1.455-.322-.636-.483-1.409-.483-2.318 0-.894.157-1.672.472-2.335.314-.667.752-1.182 1.312-1.546.561-.367 1.209-.55 1.943-.55.569 0 1.019.094 1.353.283.337.186.594.398.772.636.182.235.322.429.421.58h.136v-1.386h1.296v8.977c0 .75-.171 1.36-.512 1.83a2.91 2.91 0 0 1-1.363 1.04c-.568.223-1.201.334-1.898.334Zm-.045-4.795c.537 0 .992-.123 1.363-.37.371-.245.654-.6.847-1.062.193-.462.29-1.015.29-1.659 0-.629-.095-1.183-.285-1.665-.189-.48-.469-.858-.84-1.13-.372-.273-.83-.41-1.375-.41-.569 0-1.042.145-1.421.433a2.625 2.625 0 0 0-.846 1.158 4.473 4.473 0 0 0-.279 1.614c0 .606.095 1.142.284 1.608.193.462.477.826.852 1.091.379.261.849.392 1.41.392Zm7.613-3.909V95h-1.341v-8.727h1.296v1.363h.113a2.5 2.5 0 0 1 .932-1.068c.417-.272.955-.409 1.614-.409.591 0 1.108.121 1.551.364a2.45 2.45 0 0 1 1.034 1.09c.246.486.369 1.1.369 1.841V95h-1.341v-5.454c0-.686-.178-1.22-.534-1.603-.356-.386-.844-.58-1.466-.58-.428 0-.81.093-1.147.279a1.988 1.988 0 0 0-.79.813c-.193.356-.29.787-.29 1.295Zm11.678 5.432c-.841 0-1.567-.186-2.176-.557a3.742 3.742 0 0 1-1.404-1.568c-.326-.674-.488-1.459-.488-2.353 0-.893.162-1.681.488-2.363.33-.686.788-1.22 1.375-1.602.591-.387 1.28-.58 2.068-.58.455 0 .904.076 1.347.227.443.152.847.398 1.21.739.364.337.654.784.87 1.34.215.558.323 1.243.323 2.058v.568h-6.727v-1.16h5.364c0-.492-.099-.931-.296-1.317a2.223 2.223 0 0 0-.829-.915c-.356-.224-.777-.335-1.262-.335-.534 0-.996.132-1.386.397a2.615 2.615 0 0 0-.892 1.023 3.01 3.01 0 0 0-.313 1.352v.773c0 .66.114 1.218.341 1.676.231.455.552.801.961 1.04.409.235.884.352 1.426.352.352 0 .67-.049.954-.148.288-.102.536-.253.745-.454.208-.204.369-.458.483-.761l1.295.363c-.136.44-.366.826-.687 1.16a3.35 3.35 0 0 1-1.194.772 4.42 4.42 0 0 1-1.596.273Zm5.653-.182v-8.727h1.296v1.318h.091c.159-.432.446-.782.863-1.051a2.544 2.544 0 0 1 1.409-.404c.099 0 .222.002.37.006.147.004.259.01.335.017v1.364a4.073 4.073 0 0 0-.313-.051 3.068 3.068 0 0 0-.505-.04c-.425 0-.803.089-1.137.267a2.016 2.016 0 0 0-.784.727 1.964 1.964 0 0 0-.284 1.051V95h-1.341Zm12.135-6.773-1.204.341a2.238 2.238 0 0 0-.336-.585 1.628 1.628 0 0 0-.591-.477c-.25-.125-.57-.188-.96-.188-.534 0-.979.123-1.335.37-.352.242-.528.55-.528.926 0 .333.121.596.363.79.243.193.621.354 1.137.482l1.295.319c.78.189 1.362.479 1.744.869.383.386.574.884.574 1.494 0 .5-.144.947-.432 1.341-.284.394-.681.705-1.193.932-.511.227-1.106.34-1.784.34-.89 0-1.627-.192-2.21-.579-.583-.386-.953-.95-1.108-1.693l1.273-.318c.121.47.35.822.687 1.057.341.235.786.352 1.335.352.625 0 1.122-.133 1.489-.398.371-.269.557-.59.557-.966 0-.303-.106-.556-.318-.761-.212-.208-.538-.364-.978-.466l-1.454-.34c-.799-.19-1.387-.484-1.762-.882-.371-.401-.556-.903-.556-1.505 0-.493.138-.928.414-1.307a2.828 2.828 0 0 1 1.142-.892c.485-.216 1.035-.324 1.648-.324.864 0 1.542.19 2.034.568.496.38.849.88 1.057 1.5Zm5.041 1.864c0 1.432-.187 2.75-.562 3.955a12.21 12.21 0 0 1-1.597 3.318h-1.182a7.11 7.11 0 0 0 .762-1.387 13.17 13.17 0 0 0 .625-1.795c.178-.656.316-1.332.415-2.029a14.297 14.297 0 0 0-.108-4.806 15.93 15.93 0 0 0-.705-2.586c-.295-.795-.625-1.443-.989-1.943h1.182a12.192 12.192 0 0 1 1.597 3.324c.375 1.2.562 2.517.562 3.949Z"/>
  <rect width="745" height="99" x="30.5" y="20.5" stroke="#5F99B6" stroke-dasharray="2 2" rx="9.5"/>
  <rect width="246" height="40" fill="#D9EAEF" rx="20"/>
  <path fill="#000" d="M40.333 13.1c1.227 0 2.307.193 3.24.58a6.752 6.752 0 0 1 2.46 1.66l-1.66 2.22c-.573-.6-1.193-1.047-1.86-1.34-.653-.307-1.4-.46-2.24-.46-.493 0-.893.053-1.2.16-.307.107-.527.253-.66.44s-.2.4-.2.64c0 .28.127.52.38.72.267.187.693.347 1.28.48l2.22.5c1.32.307 2.287.753 2.9 1.34.613.587.92 1.367.92 2.34 0 .933-.24 1.727-.72 2.38-.48.64-1.14 1.127-1.98 1.46-.84.32-1.8.48-2.88.48-.88 0-1.72-.093-2.52-.28-.8-.2-1.52-.48-2.16-.84a6.756 6.756 0 0 1-1.62-1.24l1.66-2.3c.333.387.74.733 1.22 1.04a7.185 7.185 0 0 0 1.6.7c.587.173 1.18.26 1.78.26.467 0 .853-.047 1.16-.14.32-.093.553-.233.7-.42.147-.187.22-.407.22-.66 0-.28-.1-.513-.3-.7-.2-.2-.58-.367-1.14-.5l-2.44-.54a9.764 9.764 0 0 1-2-.68 3.63 3.63 0 0 1-1.36-1.16c-.333-.493-.5-1.107-.5-1.84 0-.827.227-1.56.68-2.2.453-.653 1.107-1.167 1.96-1.54s1.873-.56 3.06-.56Zm12.992 7.06c0-.467-.133-.833-.4-1.1-.253-.28-.6-.42-1.04-.42-.44 0-.82.113-1.14.34-.306.213-.52.6-.64 1.16l-2.88-.68c.187-.96.68-1.727 1.48-2.3.8-.573 1.927-.86 3.38-.86.974 0 1.8.147 2.48.44.694.28 1.22.707 1.58 1.28.374.56.56 1.253.56 2.08v3.66c0 .52.234.78.7.78.24 0 .434-.027.58-.08l-.2 1.94c-.4.187-.886.28-1.46.28-.52 0-.98-.08-1.38-.24a2.13 2.13 0 0 1-.94-.76c-.226-.347-.34-.78-.34-1.3v-.12l.38-.14c0 .573-.173 1.053-.52 1.44-.333.387-.773.673-1.32.86a5.047 5.047 0 0 1-1.68.28c-.68 0-1.273-.107-1.78-.32-.506-.213-.9-.52-1.18-.92-.266-.413-.4-.92-.4-1.52 0-.72.214-1.313.64-1.78.44-.48 1.127-.813 2.06-1l3.78-.78-.02 1.8-1.92.4c-.4.08-.7.2-.9.36-.186.147-.28.373-.28.68 0 .293.107.513.32.66.214.147.467.22.76.22a2 2 0 0 0 .64-.1c.214-.067.4-.167.56-.3.16-.147.287-.327.38-.54.094-.213.14-.467.14-.76v-2.64Zm6.002 6.34v-10h3.04l.1 1.94c.32-.707.767-1.24 1.34-1.6.587-.36 1.26-.54 2.02-.54.747 0 1.394.167 1.94.5.547.333.954.827 1.22 1.48.214-.44.487-.807.82-1.1.347-.293.74-.513 1.18-.66.44-.147.894-.22 1.36-.22.667 0 1.254.133 1.76.4.507.253.907.647 1.2 1.18.307.52.46 1.173.46 1.96v6.66h-3.4v-5.88c0-.64-.126-1.087-.38-1.34-.24-.253-.566-.38-.98-.38-.333 0-.64.087-.92.26-.266.16-.473.407-.62.74-.146.333-.22.753-.22 1.26v5.34h-3.4v-5.88c0-.64-.126-1.087-.38-1.34-.253-.253-.58-.38-.98-.38-.306 0-.6.08-.88.24-.266.16-.48.413-.64.76-.16.333-.24.773-.24 1.32v5.28h-3.4Zm18.829 4.2V16.5h3.06l.18 3.62-.4-.42c.093-.667.3-1.253.62-1.76a3.55 3.55 0 0 1 1.24-1.2c.506-.293 1.086-.44 1.74-.44.826 0 1.546.207 2.16.62.613.4 1.086.987 1.42 1.76.346.76.52 1.687.52 2.78 0 1.093-.174 2.033-.52 2.82-.347.787-.834 1.387-1.46 1.8-.614.413-1.334.62-2.16.62-.907 0-1.64-.267-2.2-.8-.56-.547-.934-1.233-1.12-2.06l.32-.48v7.34h-3.4Zm5.24-6.5c.586 0 1.046-.213 1.38-.64.333-.44.5-1.127.5-2.06s-.167-1.613-.5-2.04c-.32-.44-.774-.66-1.36-.66-.374 0-.7.107-.98.32-.28.2-.5.5-.66.9-.147.4-.22.893-.22 1.48 0 .56.066 1.047.2 1.46.146.4.36.707.64.92.28.213.613.32 1 .32Zm10.659-11.94V23.1c0 .44.073.753.22.94.146.187.393.28.74.28.2 0 .366-.013.5-.04.133-.027.293-.067.48-.12l-.22 2.04c-.24.147-.554.267-.94.36a4.85 4.85 0 0 1-1.14.14c-1.067 0-1.84-.247-2.32-.74-.48-.493-.72-1.3-.72-2.42V12.26h3.4Zm8.063 14.44c-1.107 0-2.067-.207-2.88-.62a4.436 4.436 0 0 1-1.86-1.78c-.44-.773-.66-1.707-.66-2.8 0-1.093.22-2.027.66-2.8a4.465 4.465 0 0 1 1.84-1.78c.8-.413 1.713-.62 2.74-.62 1.053 0 1.946.207 2.68.62.746.4 1.313.96 1.7 1.68.386.707.58 1.52.58 2.44 0 .24-.007.48-.02.72-.014.24-.034.44-.06.6h-7.92v-1.82h6.42l-1.62.62c0-.8-.147-1.413-.44-1.84-.28-.427-.72-.64-1.32-.64-.427 0-.794.1-1.1.3-.294.2-.52.513-.68.94-.147.427-.22.973-.22 1.64 0 .653.086 1.187.26 1.6.173.4.42.693.74.88.32.173.706.26 1.16.26.506 0 .906-.1 1.2-.3.306-.2.533-.48.68-.84l2.72.9a3.201 3.201 0 0 1-.98 1.46c-.454.387-1 .68-1.64.88-.627.2-1.287.3-1.98.3Zm21.924 3.86c-.88 0-1.653-.147-2.32-.44-.666-.293-1.186-.72-1.56-1.28-.373-.56-.56-1.253-.56-2.08 0-.267.034-.547.1-.84.08-.293.2-.58.36-.86l2-.46a5.62 5.62 0 0 0-.3.8c-.066.24-.1.46-.1.66 0 .52.107.92.32 1.2.214.293.5.493.86.6.36.12.767.18 1.22.18.574 0 1.054-.06 1.44-.18.4-.12.727-.287.98-.5l.52 2.38c-.346.267-.793.467-1.34.6a6.223 6.223 0 0 1-1.62.22Zm-3.34-17.46c1.334 0 2.48.273 3.44.82a5.376 5.376 0 0 1 2.24 2.32c.52 1.013.78 2.233.78 3.66s-.26 2.647-.78 3.66a5.498 5.498 0 0 1-2.24 2.34c-.96.533-2.106.8-3.44.8-1.333 0-2.486-.267-3.46-.8a5.504 5.504 0 0 1-2.24-2.34c-.52-1.013-.78-2.233-.78-3.66s.26-2.647.78-3.66a5.382 5.382 0 0 1 2.24-2.32c.974-.547 2.127-.82 3.46-.82Zm0 2.7c-.64 0-1.18.153-1.62.46-.44.307-.773.767-1 1.38-.226.6-.34 1.353-.34 2.26 0 .893.114 1.647.34 2.26.227.613.56 1.073 1 1.38.44.307.98.46 1.62.46.64 0 1.174-.153 1.6-.46.44-.307.774-.767 1-1.38.227-.613.34-1.367.34-2.26 0-.907-.113-1.66-.34-2.26-.226-.613-.56-1.073-1-1.38-.426-.307-.96-.46-1.6-.46Zm11.966 10.9c-.68 0-1.28-.113-1.8-.34a2.681 2.681 0 0 1-1.2-1.14c-.293-.52-.44-1.2-.44-2.04V16.5h3.4v5.88c0 .64.127 1.087.38 1.34.254.253.614.38 1.08.38.24 0 .467-.04.68-.12.214-.093.4-.227.56-.4.16-.187.28-.42.36-.7.094-.293.14-.633.14-1.02V16.5h3.4v10h-3.04l-.1-1.88c-.32.707-.766 1.233-1.34 1.58-.573.333-1.266.5-2.08.5Zm13.883 0c-1.106 0-2.066-.207-2.88-.62a4.436 4.436 0 0 1-1.86-1.78c-.44-.773-.66-1.707-.66-2.8 0-1.093.22-2.027.66-2.8a4.469 4.469 0 0 1 1.84-1.78c.8-.413 1.714-.62 2.74-.62 1.054 0 1.947.207 2.68.62.747.4 1.314.96 1.7 1.68.387.707.58 1.52.58 2.44 0 .24-.006.48-.02.72-.013.24-.033.44-.06.6h-7.92v-1.82h6.42l-1.62.62c0-.8-.146-1.413-.44-1.84-.28-.427-.72-.64-1.32-.64-.426 0-.793.1-1.1.3-.293.2-.52.513-.68.94-.146.427-.22.973-.22 1.64 0 .653.087 1.187.26 1.6.174.4.42.693.74.88.32.173.707.26 1.16.26.507 0 .907-.1 1.2-.3.307-.2.534-.48.68-.84l2.72.9a3.186 3.186 0 0 1-.98 1.46c-.453.387-1 .68-1.64.88-.626.2-1.286.3-1.98.3Zm10.902 0c-1 0-1.933-.16-2.8-.48-.853-.333-1.56-.807-2.12-1.42l1.6-1.88c.334.427.774.787 1.32 1.08a4.1 4.1 0 0 0 1.86.42c.414 0 .754-.06 1.02-.18.267-.12.4-.307.4-.56a.53.53 0 0 0-.2-.44c-.133-.12-.4-.22-.8-.3l-1.4-.28c-1.253-.253-2.146-.627-2.68-1.12-.52-.507-.78-1.167-.78-1.98 0-.547.167-1.067.5-1.56.334-.507.847-.913 1.54-1.22.694-.32 1.58-.48 2.66-.48 1.014 0 1.907.147 2.68.44.774.293 1.387.72 1.84 1.28l-1.62 1.84a3.26 3.26 0 0 0-1.24-.94 3.691 3.691 0 0 0-1.52-.34c-.32 0-.593.033-.82.1-.213.053-.373.133-.48.24a.545.545 0 0 0-.16.4c0 .173.08.327.24.46.174.12.487.227.94.32l1.82.36c1.027.187 1.767.527 2.22 1.02.454.493.68 1.087.68 1.78a3.1 3.1 0 0 1-.52 1.76c-.346.52-.866.933-1.56 1.24-.693.293-1.566.44-2.62.44Zm10.644-13.38v9.62c0 .48.114.827.34 1.04.24.2.567.3.98.3.32 0 .594-.033.82-.1.24-.08.454-.193.64-.34l.36 2.1c-.333.24-.753.427-1.26.56-.506.133-1.026.2-1.56.2-.76 0-1.42-.107-1.98-.32a2.637 2.637 0 0 1-1.28-1.02c-.293-.467-.446-1.087-.46-1.86v-9.24l3.4-.94Zm2.98 3.18v2.42h-8.1V16.5h8.1Zm3.271-1.16c-.694 0-1.2-.127-1.52-.38-.307-.267-.46-.68-.46-1.24 0-.573.153-.987.46-1.24.32-.267.826-.4 1.52-.4.68 0 1.18.133 1.5.4.32.253.48.667.48 1.24 0 .56-.16.973-.48 1.24-.32.253-.82.38-1.5.38Zm1.7 1.16v10h-3.4v-10h3.4Zm7.18-.2c1.053 0 1.973.207 2.76.62.8.4 1.42.993 1.86 1.78.453.773.68 1.707.68 2.8 0 1.093-.227 2.033-.68 2.82a4.436 4.436 0 0 1-1.86 1.78c-.787.4-1.707.6-2.76.6-1.027 0-1.94-.2-2.74-.6a4.562 4.562 0 0 1-1.88-1.78c-.44-.787-.66-1.727-.66-2.82 0-1.093.22-2.027.66-2.8a4.4 4.4 0 0 1 1.88-1.78c.8-.413 1.713-.62 2.74-.62Zm0 2.42c-.387 0-.72.093-1 .28-.28.187-.493.487-.64.9-.147.413-.22.947-.22 1.6 0 .653.073 1.187.22 1.6.147.4.36.7.64.9.28.187.613.28 1 .28.4 0 .74-.093 1.02-.28.28-.2.493-.5.64-.9.147-.413.22-.947.22-1.6 0-.653-.073-1.187-.22-1.6-.147-.413-.36-.713-.64-.9-.28-.187-.62-.28-1.02-.28Zm7.213 7.78v-10h3.04l.18 3.44-.38-.38c.133-.72.366-1.32.7-1.8.346-.48.773-.84 1.28-1.08a3.92 3.92 0 0 1 1.74-.38c.693 0 1.293.133 1.8.4.52.267.926.66 1.22 1.18.293.52.44 1.173.44 1.96v6.66h-3.4v-5.76c0-.693-.134-1.173-.4-1.44-.267-.267-.607-.4-1.02-.4-.32 0-.62.08-.9.24-.28.147-.5.387-.66.72-.16.333-.24.78-.24 1.34v5.3h-3.4Zm16.602.2c-1 0-1.933-.16-2.8-.48-.853-.333-1.56-.807-2.12-1.42l1.6-1.88c.333.427.773.787 1.32 1.08a4.1 4.1 0 0 0 1.86.42c.413 0 .753-.06 1.02-.18s.4-.307.4-.56a.534.534 0 0 0-.2-.44c-.133-.12-.4-.22-.8-.3l-1.4-.28c-1.253-.253-2.147-.627-2.68-1.12-.52-.507-.78-1.167-.78-1.98 0-.547.167-1.067.5-1.56.333-.507.847-.913 1.54-1.22.693-.32 1.58-.48 2.66-.48 1.013 0 1.907.147 2.68.44.773.293 1.387.72 1.84 1.28l-1.62 1.84a3.26 3.26 0 0 0-1.24-.94 3.695 3.695 0 0 0-1.52-.34c-.32 0-.593.033-.82.1-.213.053-.373.133-.48.24a.541.541 0 0 0-.16.4c0 .173.08.327.24.46.173.12.487.227.94.32l1.82.36c1.027.187 1.767.527 2.22 1.02.453.493.68 1.087.68 1.78a3.1 3.1 0 0 1-.52 1.76c-.347.52-.867.933-1.56 1.24-.693.293-1.567.44-2.62.44Z"/>
</svg>
