<svg xmlns="http://www.w3.org/2000/svg" width="45" height="45" fill="none" viewBox="0 0 45 45">
  <path fill="#1E4460" d="m41.365 26.719-2.412-2.412c.274-.563.419-1.18.422-1.807a4.218 4.218 0 1 0-4.219 4.219 4.178 4.178 0 0 0 1.809-.422l2.41 2.41v10.668h-8.438v-4.219a9.855 9.855 0 0 0-9.843-9.843h-8.438a9.855 9.855 0 0 0-9.844 9.843v7.032h39.376v-13.48a2.796 2.796 0 0 0-.823-1.99Zm-35.74 8.437a7.04 7.04 0 0 1 7.031-7.031h8.438a7.04 7.04 0 0 1 7.031 7.031v4.219h-22.5v-4.219Z"/>
  <path fill="#1E4460" d="M16.875 5.625a7.031 7.031 0 1 1 0 14.063 7.031 7.031 0 0 1 0-14.063Zm0-2.813a9.844 9.844 0 1 0 0 19.688 9.844 9.844 0 0 0 0-19.688Z"/>
</svg>
