<svg xmlns="http://www.w3.org/2000/svg" width="999" height="295" fill="none" viewBox="0 0 999 295">
  <rect width="200" height="60" y="116" fill="#F4CE71" rx="30"/>
  <path fill="#000" d="m26.725 152.5-3.8-13.2h3.66l2.24 10.42 2.36-10.42h3.12l2.42 10.4 2.2-10.4h3.54l-3.82 13.2h-3.74l-1.56-6.4-.6-3.22h-.04l-.58 3.22-1.54 6.4h-3.86Zm17.161 0v-14.24h3.4v6.06c.293-.667.713-1.167 1.26-1.5.547-.347 1.18-.52 1.9-.52.693 0 1.293.133 1.8.4.52.267.927.66 1.22 1.18.293.52.44 1.173.44 1.96v6.66h-3.4v-5.72c0-.72-.133-1.213-.4-1.48-.253-.28-.593-.42-1.02-.42-.32 0-.62.08-.9.24-.28.16-.5.413-.66.76-.16.347-.24.8-.24 1.36v5.26h-3.4Zm22.052-10-3.64 10c-.373 1.053-.78 1.893-1.22 2.52-.44.627-.96 1.08-1.56 1.36-.6.28-1.32.42-2.16.42a6.18 6.18 0 0 1-1.54-.18 4.421 4.421 0 0 1-1.22-.5l.68-2.3c.24.173.494.293.76.36.267.08.607.12 1.02.12.387 0 .7-.067.94-.2.254-.133.454-.387.6-.76l.26-.62-1.16-2.72-3-7.5h3.74l1.54 5.7.48 2.12.56-2.2 1.54-5.62h3.38Zm10.163-3.2v13.2h-3.44v-13.2h3.44Zm2.648 13.2v-10h3.04l.18 3.44-.38-.38c.134-.72.367-1.32.7-1.8.347-.48.774-.84 1.28-1.08.52-.253 1.1-.38 1.74-.38.694 0 1.294.133 1.8.4.52.267.927.66 1.22 1.18.294.52.44 1.173.44 1.96v6.66h-3.4v-5.76c0-.693-.133-1.173-.4-1.44-.266-.267-.606-.4-1.02-.4-.32 0-.62.08-.9.24-.28.147-.5.387-.66.72-.16.333-.24.78-.24 1.34v5.3h-3.4Zm16.524-13.18v9.62c0 .48.113.827.34 1.04.24.2.567.3.98.3.32 0 .593-.033.82-.1.24-.08.453-.193.64-.34l.36 2.1c-.333.24-.753.427-1.26.56-.507.133-1.027.2-1.56.2-.76 0-1.42-.107-1.98-.32a2.63 2.63 0 0 1-1.28-1.02c-.293-.467-.447-1.087-.46-1.86v-9.24l3.4-.94Zm2.98 3.18v2.42h-8.1v-2.42h8.1Zm6.451 10.2c-1.107 0-2.067-.207-2.88-.62a4.44 4.44 0 0 1-1.86-1.78c-.44-.773-.66-1.707-.66-2.8 0-1.093.22-2.027.66-2.8a4.467 4.467 0 0 1 1.84-1.78c.8-.413 1.713-.62 2.74-.62 1.053 0 1.946.207 2.68.62.746.4 1.313.96 1.7 1.68.386.707.58 1.52.58 2.44 0 .24-.007.48-.02.72-.014.24-.034.44-.06.6h-7.92v-1.82h6.42l-1.62.62c0-.8-.147-1.413-.44-1.84-.28-.427-.72-.64-1.32-.64-.427 0-.794.1-1.1.3-.294.2-.52.513-.68.94-.147.427-.22.973-.22 1.64 0 .653.086 1.187.26 1.6.173.4.42.693.74.88.32.173.706.26 1.16.26.506 0 .906-.1 1.2-.3.306-.2.533-.48.68-.84l2.72.9a3.203 3.203 0 0 1-.98 1.46c-.454.387-1 .68-1.64.88-.627.2-1.287.3-1.98.3Zm6.702-.2v-10h3l.14 2.16c.253-.747.626-1.327 1.12-1.74.506-.413 1.146-.62 1.92-.62.253 0 .466.02.64.06.186.04.333.093.44.16l-.34 2.8a2.189 2.189 0 0 0-.52-.12c-.2-.04-.447-.06-.74-.06-.4 0-.774.087-1.12.26a2.044 2.044 0 0 0-.84.78c-.2.333-.3.76-.3 1.28v5.04h-3.4Zm15.093-10h3.52l-3.6 10h-4.06l-3.6-10h3.58l2.06 7.62 2.1-7.62Zm6.411-1.16c-.693 0-1.2-.127-1.52-.38-.306-.267-.46-.68-.46-1.24 0-.573.154-.987.46-1.24.32-.267.827-.4 1.52-.4.68 0 1.18.133 1.5.4.32.253.48.667.48 1.24 0 .56-.16.973-.48 1.24-.32.253-.82.38-1.5.38Zm1.7 1.16v10h-3.4v-10h3.4Zm7.301 10.2c-1.107 0-2.067-.207-2.88-.62a4.436 4.436 0 0 1-1.86-1.78c-.44-.773-.66-1.707-.66-2.8 0-1.093.22-2.027.66-2.8a4.463 4.463 0 0 1 1.84-1.78c.8-.413 1.713-.62 2.74-.62 1.053 0 1.946.207 2.68.62.746.4 1.313.96 1.7 1.68.386.707.58 1.52.58 2.44 0 .24-.007.48-.02.72-.014.24-.034.44-.06.6h-7.92v-1.82h6.42l-1.62.62c0-.8-.147-1.413-.44-1.84-.28-.427-.72-.64-1.32-.64-.427 0-.794.1-1.1.3-.294.2-.52.513-.68.94-.147.427-.22.973-.22 1.64 0 .653.086 1.187.26 1.6.173.4.42.693.74.88.32.173.706.26 1.16.26.506 0 .906-.1 1.2-.3.306-.2.533-.48.68-.84l2.72.9a3.203 3.203 0 0 1-.98 1.46c-.454.387-1 .68-1.64.88-.627.2-1.287.3-1.98.3Zm19.528-10.2h3.56l-3.02 10h-4.08l-1.82-6.14-1.76 6.14h-4.06l-3.04-10h3.58l1.68 7.38 1.96-7.38h3.36l1.94 7.38 1.7-7.38Zm9.848-3.4c.987 0 1.867.14 2.64.42.773.267 1.38.68 1.82 1.24.453.547.68 1.233.68 2.06s-.173 1.5-.52 2.02a3.185 3.185 0 0 1-1.38 1.16 6.536 6.536 0 0 1-1.9.5l-.2 1.72h-3l.02-3.04c.84-.08 1.5-.2 1.98-.36.493-.173.84-.387 1.04-.64.2-.253.3-.553.3-.9 0-.307-.067-.567-.2-.78a1.116 1.116 0 0 0-.56-.48c-.24-.107-.56-.16-.96-.16-.573 0-1.027.173-1.36.52-.333.333-.547.833-.64 1.5l-3.28-1.14a4.925 4.925 0 0 1 .9-1.86c.44-.56 1.033-.993 1.78-1.3.76-.32 1.707-.48 2.84-.48Zm-.32 10.22c.6 0 1.067.147 1.4.44.347.293.52.707.52 1.24 0 .52-.173.927-.52 1.22-.333.293-.8.44-1.4.44-.587 0-1.053-.147-1.4-.44-.333-.293-.5-.7-.5-1.22 0-.533.167-.947.5-1.24.347-.293.813-.44 1.4-.44Z"/>
  <rect width="215" height="38" x="303" y="48" fill="#fff" rx="19"/>
  <path fill="#1E4460" d="M323.909 72.5V60.864h6.977v1.25h-5.568v3.932h5.046v1.25h-5.046V72.5h-1.409Zm12.114.182c-.788 0-1.479-.188-2.074-.563-.591-.375-1.053-.9-1.387-1.573-.329-.675-.494-1.463-.494-2.364 0-.91.165-1.703.494-2.38.334-.679.796-1.205 1.387-1.58.595-.375 1.286-.563 2.074-.563.788 0 1.477.188 2.068.563.595.375 1.057.901 1.386 1.58.334.677.5 1.47.5 2.38 0 .901-.166 1.69-.5 2.364a3.763 3.763 0 0 1-1.386 1.573c-.591.375-1.28.563-2.068.563Zm0-1.205c.598 0 1.091-.153 1.477-.46a2.72 2.72 0 0 0 .858-1.21c.186-.5.278-1.042.278-1.625 0-.584-.092-1.127-.278-1.63a2.755 2.755 0 0 0-.858-1.223c-.386-.31-.879-.465-1.477-.465-.599 0-1.091.155-1.478.465a2.747 2.747 0 0 0-.857 1.222 4.672 4.672 0 0 0-.279 1.63c0 .584.093 1.126.279 1.626.185.5.471.903.857 1.21.387.307.879.46 1.478.46Zm6.001 1.023v-8.727h1.296v1.318h.091c.159-.432.446-.782.863-1.051a2.544 2.544 0 0 1 1.409-.404c.099 0 .222.002.37.006.147.004.259.01.335.017v1.364a4.073 4.073 0 0 0-.313-.051 3.068 3.068 0 0 0-.505-.04c-.425 0-.803.089-1.137.267a2.016 2.016 0 0 0-.784.727 1.964 1.964 0 0 0-.284 1.051V72.5h-1.341Zm10.635 0V60.864h7.023v1.25h-5.614v3.932h5.25v1.25h-5.25v3.954h5.705v1.25h-7.114Zm9.381 0v-8.727h1.295v1.363h.114c.182-.465.475-.827.881-1.085.405-.261.892-.392 1.46-.392.576 0 1.055.13 1.437.392.387.258.688.62.904 1.085h.091c.223-.45.558-.808 1.005-1.073.447-.27.983-.404 1.608-.404.781 0 1.419.244 1.915.733.496.485.744 1.24.744 2.267V72.5h-1.341v-5.84c0-.645-.176-1.105-.528-1.382a1.955 1.955 0 0 0-1.244-.414c-.614 0-1.089.185-1.426.556-.338.368-.506.834-.506 1.398V72.5h-1.364v-5.977c0-.496-.161-.896-.483-1.2-.322-.306-.736-.46-1.244-.46-.349 0-.674.093-.977.279-.3.186-.542.443-.728.773a2.29 2.29 0 0 0-.272 1.13V72.5h-1.341Zm13.906 3.273v-12h1.295v1.386h.16c.098-.151.234-.345.409-.58.178-.238.431-.45.761-.636.333-.19.784-.284 1.352-.284.735 0 1.383.184 1.943.551.561.368.999.889 1.313 1.563.314.674.472 1.47.472 2.386 0 .924-.158 1.725-.472 2.403-.314.675-.75 1.198-1.307 1.569-.557.367-1.199.55-1.926.55-.561 0-1.009-.092-1.347-.278-.337-.189-.596-.403-.778-.642a8.362 8.362 0 0 1-.42-.602h-.114v4.614h-1.341Zm1.318-7.637c0 .66.097 1.24.29 1.745.193.5.475.892.847 1.176.371.28.825.42 1.363.42.561 0 1.029-.148 1.404-.443.378-.3.662-.7.852-1.205a4.73 4.73 0 0 0 .29-1.693 4.6 4.6 0 0 0-.284-1.659c-.186-.496-.468-.888-.847-1.176-.375-.291-.847-.437-1.415-.437-.545 0-1.004.138-1.375.414-.371.273-.651.656-.841 1.148-.189.489-.284 1.059-.284 1.71Zm9.773-7.272V72.5h-1.341V60.864h1.341Zm6.001 11.818c-.788 0-1.479-.188-2.074-.563-.59-.375-1.053-.9-1.386-1.573-.329-.675-.494-1.463-.494-2.364 0-.91.165-1.703.494-2.38.333-.679.796-1.205 1.386-1.58.595-.375 1.286-.563 2.074-.563.788 0 1.478.188 2.069.563.594.375 1.056.901 1.386 1.58.333.677.5 1.47.5 2.38 0 .901-.167 1.69-.5 2.364a3.775 3.775 0 0 1-1.386 1.573c-.591.375-1.281.563-2.069.563Zm0-1.205c.599 0 1.091-.153 1.478-.46a2.72 2.72 0 0 0 .858-1.21c.185-.5.278-1.042.278-1.625 0-.584-.093-1.127-.278-1.63a2.755 2.755 0 0 0-.858-1.223c-.387-.31-.879-.465-1.478-.465-.598 0-1.091.155-1.477.465a2.757 2.757 0 0 0-.858 1.222 4.695 4.695 0 0 0-.278 1.63c0 .584.093 1.126.278 1.626.186.5.472.903.858 1.21.386.307.879.46 1.477.46Zm6.553 4.296a3 3 0 0 1-.608-.057 1.597 1.597 0 0 1-.369-.102l.341-1.182c.325.083.613.114.863.09a1.03 1.03 0 0 0 .665-.335c.197-.197.377-.516.54-.96l.25-.681-3.228-8.773h1.455l2.409 6.954H402l2.409-6.954h1.455l-3.705 10c-.167.45-.373.824-.619 1.119-.246.3-.532.52-.858.665a2.646 2.646 0 0 1-1.091.216Zm11.389-3.091c-.841 0-1.566-.186-2.176-.557a3.733 3.733 0 0 1-1.403-1.568c-.326-.674-.489-1.459-.489-2.353 0-.893.163-1.681.489-2.363.329-.686.787-1.22 1.375-1.602.59-.387 1.28-.58 2.068-.58.454 0 .903.076 1.346.227.444.152.847.398 1.211.739.363.337.653.784.869 1.34.216.558.324 1.243.324 2.058v.568h-6.728v-1.16h5.364c0-.492-.098-.931-.295-1.317a2.232 2.232 0 0 0-.83-.915c-.356-.224-.776-.335-1.261-.335-.534 0-.996.132-1.387.397a2.623 2.623 0 0 0-.892 1.023c-.208.42-.312.871-.312 1.352v.773c0 .66.113 1.218.341 1.676.231.455.551.801.96 1.04.409.235.884.352 1.426.352.352 0 .671-.049.955-.148a2.03 2.03 0 0 0 .744-.454c.208-.204.369-.458.483-.761l1.295.363a2.87 2.87 0 0 1-.687 1.16c-.322.329-.72.587-1.193.772a4.43 4.43 0 0 1-1.597.273Zm5.654-.182v-8.727h1.295v1.318h.091c.159-.432.447-.782.864-1.051a2.54 2.54 0 0 1 1.409-.404c.098 0 .221.002.369.006s.259.01.335.017v1.364a3.926 3.926 0 0 0-.312-.051 3.08 3.08 0 0 0-.506-.04c-.424 0-.803.089-1.136.267a1.956 1.956 0 0 0-1.069 1.778V72.5h-1.34Zm9.519-12.182-3.75 13.932h-1.227l3.75-13.932h1.227Zm11.135 4.182h-1.409a2.929 2.929 0 0 0-1.187-1.84 3.192 3.192 0 0 0-.972-.478 3.88 3.88 0 0 0-1.113-.16 3.55 3.55 0 0 0-1.915.535c-.568.356-1.021.88-1.358 1.574-.334.693-.5 1.543-.5 2.55 0 1.008.166 1.859.5 2.552.337.693.79 1.218 1.358 1.574a3.55 3.55 0 0 0 1.915.534c.386 0 .757-.053 1.113-.16.356-.105.68-.262.972-.47a2.984 2.984 0 0 0 1.187-1.847h1.409a4.699 4.699 0 0 1-.579 1.596 4.356 4.356 0 0 1-2.449 1.943 5.227 5.227 0 0 1-1.653.256c-.993 0-1.875-.242-2.648-.727-.773-.485-1.381-1.174-1.824-2.068-.443-.894-.665-1.955-.665-3.182 0-1.228.222-2.288.665-3.182.443-.894 1.051-1.583 1.824-2.068.773-.485 1.655-.727 2.648-.727a5.23 5.23 0 0 1 1.653.255c.519.17.987.42 1.403.75a4.29 4.29 0 0 1 1.046 1.193c.28.466.473.998.579 1.597Zm5.641 8.182c-.788 0-1.479-.188-2.074-.563-.591-.375-1.053-.9-1.386-1.573-.33-.675-.495-1.463-.495-2.364 0-.91.165-1.703.495-2.38.333-.679.795-1.205 1.386-1.58.595-.375 1.286-.563 2.074-.563.788 0 1.477.188 2.068.563.595.375 1.057.901 1.387 1.58.333.677.5 1.47.5 2.38 0 .901-.167 1.69-.5 2.364a3.77 3.77 0 0 1-1.387 1.573c-.591.375-1.28.563-2.068.563Zm0-1.205c.598 0 1.091-.153 1.477-.46.387-.307.673-.71.858-1.21.186-.5.279-1.042.279-1.625 0-.584-.093-1.127-.279-1.63a2.74 2.74 0 0 0-.858-1.223c-.386-.31-.879-.465-1.477-.465-.599 0-1.091.155-1.477.465a2.74 2.74 0 0 0-.858 1.222 4.672 4.672 0 0 0-.279 1.63c0 .584.093 1.126.279 1.626.185.5.471.903.858 1.21.386.307.878.46 1.477.46Zm6.001 1.023v-8.727h1.296v1.363h.113c.182-.465.476-.827.881-1.085.405-.261.892-.392 1.46-.392.576 0 1.055.13 1.438.392.386.258.687.62.903 1.085h.091c.224-.45.559-.808 1.006-1.073.447-.27.983-.404 1.608-.404.78 0 1.418.244 1.915.733.496.485.744 1.24.744 2.267V72.5h-1.341v-5.84c0-.645-.176-1.105-.528-1.382a1.958 1.958 0 0 0-1.245-.414c-.613 0-1.089.185-1.426.556-.337.368-.506.834-.506 1.398V72.5h-1.363v-5.977c0-.496-.161-.896-.483-1.2-.322-.306-.737-.46-1.244-.46a1.84 1.84 0 0 0-.978.279 2.107 2.107 0 0 0-.727.773 2.28 2.28 0 0 0-.273 1.13V72.5h-1.341Zm13.907 3.273v-12h1.295v1.386h.159c.099-.151.235-.345.409-.58.178-.238.432-.45.762-.636.333-.19.784-.284 1.352-.284.735 0 1.382.184 1.943.551.561.368.998.889 1.313 1.563.314.674.471 1.47.471 2.386 0 .924-.157 1.725-.471 2.403-.315.675-.75 1.198-1.307 1.569-.557.367-1.199.55-1.926.55-.561 0-1.01-.092-1.347-.278-.337-.189-.597-.403-.778-.642a8.77 8.77 0 0 1-.421-.602h-.113v4.614h-1.341Zm1.318-7.637c0 .66.096 1.24.29 1.745.193.5.475.892.846 1.176.371.28.826.42 1.364.42.56 0 1.028-.148 1.403-.443.379-.3.663-.7.853-1.205a4.73 4.73 0 0 0 .289-1.693c0-.613-.094-1.166-.284-1.659-.185-.496-.468-.888-.846-1.176-.375-.291-.847-.437-1.415-.437-.546 0-1.004.138-1.375.414-.371.273-.652.656-.841 1.148-.189.489-.284 1.059-.284 1.71Zm11 4.569a3.548 3.548 0 0 1-1.506-.313 2.582 2.582 0 0 1-1.074-.915c-.265-.401-.397-.886-.397-1.454 0-.5.098-.906.295-1.216.197-.315.46-.56.79-.739a4.14 4.14 0 0 1 1.091-.397c.401-.092.805-.163 1.21-.217.53-.068.96-.119 1.29-.153.333-.038.575-.1.727-.187.155-.088.233-.239.233-.455v-.045c0-.561-.153-.997-.46-1.307-.303-.31-.764-.466-1.381-.466-.64 0-1.142.14-1.506.42-.363.28-.619.58-.767.898l-1.272-.455c.227-.53.53-.943.909-1.238.382-.3.799-.508 1.25-.625a5.184 5.184 0 0 1 1.341-.182c.28 0 .602.034.965.102.368.065.722.2 1.063.404.345.204.631.513.858.926.227.413.341.966.341 1.659v5.75h-1.341v-1.182h-.068a2.36 2.36 0 0 1-.455.608c-.212.216-.494.4-.846.551-.353.152-.783.227-1.29.227Zm.204-1.205c.531 0 .978-.104 1.341-.313a2.128 2.128 0 0 0 1.114-1.846v-1.227c-.057.068-.182.13-.375.187a6.29 6.29 0 0 1-.659.142 29.629 29.629 0 0 1-1.284.17 5.13 5.13 0 0 0-.978.222 1.687 1.687 0 0 0-.727.45c-.182.196-.273.465-.273.806 0 .466.173.818.518 1.057.348.235.789.352 1.323.352Zm7.584-4.25v5.25h-1.341v-8.727h1.296v1.363h.113a2.5 2.5 0 0 1 .932-1.068c.417-.273.955-.409 1.614-.409.591 0 1.108.121 1.551.364a2.45 2.45 0 0 1 1.034 1.09c.246.486.369 1.1.369 1.841V72.5h-1.341v-5.454c0-.686-.178-1.22-.534-1.603-.356-.386-.844-.58-1.466-.58-.428 0-.81.093-1.147.279a1.988 1.988 0 0 0-.79.813c-.193.356-.29.787-.29 1.295Zm8.57 8.523a3 3 0 0 1-.608-.057 1.597 1.597 0 0 1-.369-.102l.34-1.182c.326.083.614.114.864.09a1.03 1.03 0 0 0 .665-.335c.197-.197.377-.516.54-.96l.25-.681-3.228-8.773h1.455l2.409 6.954h.091l2.409-6.954h1.455l-3.705 10c-.167.45-.373.824-.619 1.119-.247.3-.533.52-.858.665a2.646 2.646 0 0 1-1.091.216Z"/>
  <rect width="215" height="38" x="303" y="48" stroke="#F4CE71" stroke-width="2" rx="19"/>
  <path fill="#F4CE71" d="M204 145a1 1 0 0 0 0 2v-2Zm94.707-77.293a1 1 0 0 0 0-1.414l-6.364-6.364a1 1 0 1 0-1.414 1.414L296.586 67l-5.657 5.657a1 1 0 1 0 1.414 1.414l6.364-6.364ZM204 147h7v-2h-7v2Zm32-25V91h-2v31h2Zm23-54h39v-2h-39v2Zm-23 23c0-12.703 10.297-23 23-23v-2c-13.807 0-25 11.193-25 25h2Zm-25 56c13.807 0 25-11.193 25-25h-2c0 12.703-10.297 23-23 23v2Z"/>
  <rect width="215" height="38" x="303" y="206" fill="#fff" rx="19"/>
  <path fill="#1E4460" d="M336.409 230.5v-11.636h6.977v1.25h-5.568v3.931h5.046v1.25h-5.046v5.205h-1.409Zm12.114.182c-.788 0-1.479-.188-2.074-.563-.591-.375-1.053-.899-1.387-1.574-.329-.674-.494-1.462-.494-2.363 0-.909.165-1.703.494-2.381.334-.678.796-1.204 1.387-1.579.595-.375 1.286-.563 2.074-.563.788 0 1.477.188 2.068.563.595.375 1.057.901 1.386 1.579.334.678.5 1.472.5 2.381 0 .901-.166 1.689-.5 2.363a3.758 3.758 0 0 1-1.386 1.574c-.591.375-1.28.563-2.068.563Zm0-1.205c.598 0 1.091-.153 1.477-.46a2.72 2.72 0 0 0 .858-1.21c.186-.5.278-1.042.278-1.625 0-.584-.092-1.127-.278-1.631a2.748 2.748 0 0 0-.858-1.221c-.386-.311-.879-.466-1.477-.466-.599 0-1.091.155-1.478.466-.386.31-.672.717-.857 1.221a4.672 4.672 0 0 0-.279 1.631c0 .583.093 1.125.279 1.625.185.5.471.903.857 1.21.387.307.879.46 1.478.46Zm6.001 1.023v-8.727h1.296v1.318h.091c.159-.432.446-.782.863-1.051a2.544 2.544 0 0 1 1.409-.404c.099 0 .222.002.37.006.147.004.259.01.335.017v1.364a3.462 3.462 0 0 0-.313-.051 3.014 3.014 0 0 0-.505-.04c-.425 0-.803.089-1.137.267a2.019 2.019 0 0 0-.784.727 1.963 1.963 0 0 0-.284 1.051v5.523h-1.341Zm9.635-11.636h1.614l3.227 5.431h.136l3.228-5.431h1.613l-4.204 6.841v4.795h-1.409v-4.795l-4.205-6.841Zm13.77 11.818c-.788 0-1.479-.188-2.074-.563-.591-.375-1.053-.899-1.386-1.574-.33-.674-.495-1.462-.495-2.363 0-.909.165-1.703.495-2.381.333-.678.795-1.204 1.386-1.579.595-.375 1.286-.563 2.074-.563.788 0 1.477.188 2.068.563.595.375 1.057.901 1.387 1.579.333.678.5 1.472.5 2.381 0 .901-.167 1.689-.5 2.363-.33.675-.792 1.199-1.387 1.574-.591.375-1.28.563-2.068.563Zm0-1.205c.598 0 1.091-.153 1.477-.46.387-.307.673-.71.858-1.21.186-.5.279-1.042.279-1.625 0-.584-.093-1.127-.279-1.631a2.732 2.732 0 0 0-.858-1.221c-.386-.311-.879-.466-1.477-.466-.599 0-1.091.155-1.477.466-.387.31-.673.717-.858 1.221a4.672 4.672 0 0 0-.279 1.631c0 .583.093 1.125.279 1.625.185.5.471.903.858 1.21.386.307.878.46 1.477.46Zm11.501-2.545v-5.159h1.341v8.727h-1.341v-1.477h-.091c-.204.443-.522.82-.954 1.13-.432.307-.977.461-1.636.461-.546 0-1.031-.12-1.455-.358-.424-.243-.758-.606-1-1.091-.242-.489-.364-1.104-.364-1.847v-5.545h1.341v5.454c0 .637.178 1.144.534 1.523.36.379.819.568 1.375.568.334 0 .673-.085 1.017-.256.349-.17.641-.431.875-.784.239-.352.358-.801.358-1.346Zm7.911-8.614-3.75 13.932h-1.227l3.75-13.932h1.227Zm3.18.546V230.5h-1.409v-11.636h1.409Zm3.985 6.386v5.25h-1.341v-8.727h1.295v1.363h.114c.204-.443.515-.799.932-1.068.416-.273.954-.409 1.613-.409.591 0 1.108.121 1.551.364.444.238.788.602 1.035 1.091.246.484.369 1.098.369 1.841v5.545h-1.341v-5.455c0-.685-.178-1.219-.534-1.602-.356-.386-.845-.579-1.466-.579-.428 0-.811.092-1.148.278a1.998 1.998 0 0 0-.79.813c-.193.356-.289.787-.289 1.295Zm11.814-3.477v1.136h-4.523v-1.136h4.523Zm-3.205-2.091h1.341V228c0 .379.055.663.165.852a.845.845 0 0 0 .432.375c.178.061.365.091.562.091.148 0 .269-.007.364-.023l.227-.045.273 1.205a2.74 2.74 0 0 1-.381.102 2.792 2.792 0 0 1-.619.057 2.7 2.7 0 0 1-1.114-.245 2.217 2.217 0 0 1-.898-.744c-.235-.333-.352-.754-.352-1.261v-8.682Zm8.787 11c-.841 0-1.566-.186-2.176-.557a3.744 3.744 0 0 1-1.404-1.568c-.325-.674-.488-1.459-.488-2.352 0-.894.163-1.682.488-2.364.33-.686.788-1.22 1.375-1.602.591-.387 1.281-.58 2.069-.58.454 0 .903.076 1.346.227.443.152.847.398 1.21.739.364.337.654.784.87 1.341.216.557.324 1.242.324 2.057v.568h-6.728v-1.159h5.364c0-.493-.098-.932-.295-1.318a2.226 2.226 0 0 0-.83-.915c-.356-.224-.777-.335-1.261-.335-.534 0-.997.132-1.387.397a2.633 2.633 0 0 0-.892 1.023 3.01 3.01 0 0 0-.312 1.352v.773c0 .659.113 1.218.341 1.676.231.455.551.801.96 1.04.409.235.884.352 1.426.352.352 0 .67-.049.955-.147.287-.103.536-.254.744-.455.208-.205.369-.458.483-.761l1.295.363a2.86 2.86 0 0 1-.687 1.159c-.322.33-.72.587-1.193.773a4.425 4.425 0 0 1-1.597.273Zm5.653-.182v-8.727h1.296v1.318h.091c.159-.432.447-.782.863-1.051a2.544 2.544 0 0 1 1.409-.404c.099 0 .222.002.37.006a5.5 5.5 0 0 1 .335.017v1.364a3.416 3.416 0 0 0-.312-.051 3.035 3.035 0 0 0-.506-.04 2.38 2.38 0 0 0-1.137.267c-.329.174-.59.417-.784.727a1.963 1.963 0 0 0-.284 1.051v5.523h-1.341Zm13.356-8.727-3.228 8.727h-1.363l-3.228-8.727h1.455l2.409 6.954h.091l2.409-6.954h1.455Zm1.769 8.727v-8.727h1.341v8.727h-1.341Zm.682-10.182a.953.953 0 0 1-.676-.267.856.856 0 0 1-.278-.642c0-.25.092-.464.278-.642a.953.953 0 0 1 .676-.267c.262 0 .485.089.671.267a.851.851 0 0 1 .284.642c0 .25-.095.464-.284.642a.935.935 0 0 1-.671.267Zm6.774 10.364c-.841 0-1.566-.186-2.176-.557a3.736 3.736 0 0 1-1.403-1.568c-.326-.674-.489-1.459-.489-2.352 0-.894.163-1.682.489-2.364.329-.686.788-1.22 1.375-1.602.591-.387 1.28-.58 2.068-.58.455 0 .903.076 1.347.227.443.152.846.398 1.21.739.363.337.653.784.869 1.341.216.557.324 1.242.324 2.057v.568h-6.727v-1.159h5.363c0-.493-.098-.932-.295-1.318a2.219 2.219 0 0 0-.83-.915c-.356-.224-.776-.335-1.261-.335-.534 0-.996.132-1.386.397a2.617 2.617 0 0 0-.892 1.023 2.997 2.997 0 0 0-.313 1.352v.773c0 .659.114 1.218.341 1.676.231.455.551.801.96 1.04.409.235.885.352 1.426.352.353 0 .671-.049.955-.147.288-.103.536-.254.744-.455.209-.205.37-.458.483-.761l1.296.363c-.137.44-.366.826-.688 1.159-.322.33-.72.587-1.193.773a4.425 4.425 0 0 1-1.597.273Zm7.631-.182-2.659-8.727h1.409l1.886 6.682h.091l1.864-6.682h1.432l1.841 6.659h.091l1.886-6.659h1.409l-2.659 8.727h-1.318l-1.909-6.705h-.137l-1.909 6.705h-1.318Zm14.385.182c-.841 0-1.566-.186-2.176-.557a3.744 3.744 0 0 1-1.404-1.568c-.325-.674-.488-1.459-.488-2.352 0-.894.163-1.682.488-2.364.33-.686.788-1.22 1.375-1.602.591-.387 1.281-.58 2.069-.58.454 0 .903.076 1.346.227.443.152.847.398 1.21.739.364.337.654.784.87 1.341.216.557.324 1.242.324 2.057v.568h-6.728v-1.159h5.364c0-.493-.098-.932-.295-1.318a2.226 2.226 0 0 0-.83-.915c-.356-.224-.777-.335-1.261-.335-.534 0-.997.132-1.387.397a2.633 2.633 0 0 0-.892 1.023 3.01 3.01 0 0 0-.312 1.352v.773c0 .659.113 1.218.341 1.676.231.455.551.801.96 1.04.409.235.884.352 1.426.352.352 0 .67-.049.955-.147.287-.103.536-.254.744-.455.208-.205.369-.458.483-.761l1.295.363a2.86 2.86 0 0 1-.687 1.159c-.322.33-.72.587-1.193.773a4.425 4.425 0 0 1-1.597.273Zm9.312 0c-.84 0-1.566-.186-2.176-.557a3.736 3.736 0 0 1-1.403-1.568c-.326-.674-.489-1.459-.489-2.352 0-.894.163-1.682.489-2.364.329-.686.788-1.22 1.375-1.602.591-.387 1.28-.58 2.068-.58.455 0 .904.076 1.347.227.443.152.846.398 1.21.739.364.337.653.784.869 1.341.216.557.324 1.242.324 2.057v.568h-6.727v-1.159h5.363c0-.493-.098-.932-.295-1.318a2.219 2.219 0 0 0-.83-.915c-.356-.224-.776-.335-1.261-.335-.534 0-.996.132-1.386.397a2.617 2.617 0 0 0-.892 1.023 2.997 2.997 0 0 0-.313 1.352v.773c0 .659.114 1.218.341 1.676.231.455.551.801.96 1.04.409.235.885.352 1.426.352.353 0 .671-.049.955-.147.288-.103.536-.254.744-.455.209-.205.37-.458.483-.761l1.296.363c-.137.44-.366.826-.688 1.159-.322.33-.719.587-1.193.773a4.421 4.421 0 0 1-1.597.273Z"/>
  <rect width="215" height="38" x="303" y="206" stroke="#F4CE71" stroke-width="2" rx="19"/>
  <path fill="#F4CE71" d="M204 145a1 1 0 0 0 0 2v-2Zm94.707 80.707a.999.999 0 0 0 0-1.414l-6.364-6.364a.999.999 0 1 0-1.414 1.414l5.657 5.657-5.657 5.657a.999.999 0 1 0 1.414 1.414l6.364-6.364ZM204 147h7v-2h-7v2Zm30 23v31h2v-31h-2Zm25 56h39v-2h-39v2Zm-25-25c0 13.807 11.193 25 25 25v-2c-12.703 0-23-10.297-23-23h-2Zm-23-54c12.703 0 23 10.297 23 23h2c0-13.807-11.193-25-25-25v2Z"/>
  <rect width="225" height="38" x="589" y="1" fill="#fff" rx="19"/>
  <rect width="225" height="38" x="589" y="1" stroke="#F4CE71" stroke-width="2" rx="19"/>
  <path fill="#F4CE71" d="M584.707 20.707a1 1 0 0 0 0-1.414l-6.364-6.364a1 1 0 1 0-1.414 1.414L582.586 20l-5.657 5.657a1 1 0 1 0 1.414 1.414l6.364-6.364ZM533 58V43.5h-2V58h2Zm22.5-37H584v-2h-28.5v2ZM533 43.5c0-12.426 10.074-22.5 22.5-22.5v-2C541.969 19 531 29.969 531 43.5h2ZM523 68c5.523 0 10-4.477 10-10h-2a8 8 0 0 1-8 8v2Z"/>
  <rect width="305" height="38" x="589" y="91" fill="#fff" rx="19"/>
  <path fill="#1E4460" d="M604.909 115.5v-11.636h7.023v1.25h-5.614v3.931h5.25v1.25h-5.25v3.955h5.705v1.25h-7.114Zm15.563-6.773-1.205.341a2.224 2.224 0 0 0-.335-.585 1.63 1.63 0 0 0-.591-.477c-.25-.125-.57-.188-.96-.188-.534 0-.979.123-1.336.37-.352.242-.528.551-.528.926 0 .333.121.596.364.789.242.194.621.355 1.136.483l1.295.319c.781.189 1.362.479 1.745.869.382.386.574.884.574 1.494 0 .5-.144.947-.432 1.341-.284.394-.682.705-1.193.932-.512.227-1.106.341-1.784.341-.891 0-1.627-.193-2.211-.58-.583-.386-.952-.95-1.108-1.693l1.273-.318c.121.47.351.822.688 1.057.341.235.786.352 1.335.352.625 0 1.121-.133 1.489-.398.371-.269.556-.591.556-.966 0-.303-.106-.556-.318-.761-.212-.208-.538-.364-.977-.466l-1.455-.341c-.799-.189-1.386-.483-1.761-.88-.371-.402-.557-.904-.557-1.506 0-.493.138-.928.415-1.307a2.82 2.82 0 0 1 1.142-.892c.485-.216 1.034-.324 1.648-.324.863 0 1.541.189 2.034.568a3.07 3.07 0 0 1 1.057 1.5Zm5.973-1.954v1.136h-4.523v-1.136h4.523Zm-3.205-2.091h1.341V113c0 .379.055.663.165.852a.845.845 0 0 0 .432.375c.178.061.365.091.562.091.148 0 .269-.007.364-.023l.227-.045.273 1.205a2.74 2.74 0 0 1-.381.102 2.792 2.792 0 0 1-.619.057 2.7 2.7 0 0 1-1.114-.245 2.217 2.217 0 0 1-.898-.744c-.235-.333-.352-.754-.352-1.261v-8.682Zm5.222 10.818v-8.727h1.341v8.727h-1.341Zm.681-10.182a.955.955 0 0 1-.676-.267.86.86 0 0 1-.278-.642.86.86 0 0 1 .278-.642.955.955 0 0 1 .676-.267c.262 0 .485.089.671.267a.851.851 0 0 1 .284.642c0 .25-.095.464-.284.642a.935.935 0 0 1-.671.267Zm3.116 10.182v-8.727h1.295v1.363h.114a2.19 2.19 0 0 1 .88-1.085c.406-.261.892-.392 1.461-.392.575 0 1.054.131 1.437.392.386.258.688.619.903 1.085h.091c.224-.45.559-.808 1.006-1.074.447-.268.983-.403 1.608-.403.78 0 1.419.244 1.915.733.496.485.744 1.241.744 2.267v5.841h-1.341v-5.841c0-.644-.176-1.104-.528-1.381a1.96 1.96 0 0 0-1.245-.414c-.613 0-1.089.185-1.426.556-.337.368-.505.834-.505 1.398v5.682h-1.364v-5.977c0-.496-.161-.896-.483-1.199-.322-.307-.737-.46-1.244-.46-.349 0-.675.092-.978.278a2.107 2.107 0 0 0-.727.773 2.277 2.277 0 0 0-.273 1.13v5.455h-1.34Zm16.474.205a3.554 3.554 0 0 1-1.506-.313 2.592 2.592 0 0 1-1.074-.915c-.265-.401-.397-.886-.397-1.454 0-.5.098-.906.295-1.216.197-.315.46-.561.79-.739.329-.178.693-.31 1.091-.398.401-.09.805-.162 1.21-.215.53-.069.96-.12 1.29-.154.333-.038.576-.1.727-.187.155-.087.233-.239.233-.455v-.045c0-.561-.153-.997-.46-1.307-.303-.311-.763-.466-1.381-.466-.64 0-1.142.14-1.506.42-.363.281-.619.58-.767.898l-1.272-.454c.227-.531.53-.944.909-1.239a3.398 3.398 0 0 1 1.25-.625 5.193 5.193 0 0 1 1.341-.182c.28 0 .602.034.966.102.367.065.721.199 1.062.404.345.204.631.513.858.926.227.413.341.966.341 1.659v5.75h-1.341v-1.182h-.068a2.36 2.36 0 0 1-.455.608c-.212.216-.494.4-.846.551-.353.152-.782.228-1.29.228Zm.205-1.205c.53 0 .977-.104 1.34-.312.368-.209.644-.478.83-.807.189-.33.284-.676.284-1.04v-1.227c-.057.068-.182.13-.375.187a6.143 6.143 0 0 1-.659.142c-.246.038-.487.072-.722.102-.231.027-.418.05-.562.069a5.097 5.097 0 0 0-.977.221c-.3.099-.542.248-.728.449-.181.197-.272.466-.272.807 0 .466.172.818.517 1.057.348.235.789.352 1.324.352Zm10.038-7.727v1.136h-4.523v-1.136h4.523Zm-3.205-2.091h1.341V113c0 .379.055.663.165.852a.853.853 0 0 0 .432.375c.178.061.365.091.562.091.148 0 .269-.007.364-.023l.227-.045.273 1.205a2.74 2.74 0 0 1-.381.102 2.792 2.792 0 0 1-.619.057 2.7 2.7 0 0 1-1.114-.245 2.208 2.208 0 0 1-.897-.744c-.235-.333-.353-.754-.353-1.261v-8.682Zm8.787 11c-.841 0-1.566-.186-2.176-.557a3.736 3.736 0 0 1-1.403-1.568c-.326-.674-.489-1.459-.489-2.352 0-.894.163-1.682.489-2.364.329-.686.788-1.22 1.375-1.602.591-.387 1.28-.58 2.068-.58.454 0 .903.076 1.346.227.444.152.847.398 1.211.739.363.337.653.784.869 1.341.216.557.324 1.242.324 2.057v.568h-6.727v-1.159h5.363c0-.493-.098-.932-.295-1.318a2.219 2.219 0 0 0-.83-.915c-.356-.224-.776-.335-1.261-.335-.534 0-.996.132-1.386.397a2.627 2.627 0 0 0-.893 1.023 3.01 3.01 0 0 0-.312 1.352v.773c0 .659.114 1.218.341 1.676.231.455.551.801.96 1.04.409.235.885.352 1.426.352.353 0 .671-.049.955-.147.288-.103.536-.254.744-.455.208-.205.369-.458.483-.761l1.296.363c-.137.44-.366.826-.688 1.159-.322.33-.72.587-1.193.773a4.425 4.425 0 0 1-1.597.273Zm11.017 3.091a2.93 2.93 0 0 1-.608-.057 1.601 1.601 0 0 1-.369-.102l.341-1.182c.326.083.614.113.864.091.25-.023.471-.135.664-.335.197-.197.377-.518.54-.961l.25-.682-3.227-8.772h1.454l2.409 6.954h.091l2.409-6.954h1.455l-3.705 10c-.166.45-.373.824-.619 1.119a2.321 2.321 0 0 1-.858.665 2.643 2.643 0 0 1-1.091.216Zm11.276-3.091c-.788 0-1.479-.188-2.074-.563-.591-.375-1.053-.899-1.386-1.574-.33-.674-.495-1.462-.495-2.363 0-.909.165-1.703.495-2.381.333-.678.795-1.204 1.386-1.579.595-.375 1.286-.563 2.074-.563.788 0 1.477.188 2.068.563.595.375 1.057.901 1.386 1.579.334.678.5 1.472.5 2.381 0 .901-.166 1.689-.5 2.363a3.758 3.758 0 0 1-1.386 1.574c-.591.375-1.28.563-2.068.563Zm0-1.205c.598 0 1.091-.153 1.477-.46a2.72 2.72 0 0 0 .858-1.21c.186-.5.278-1.042.278-1.625 0-.584-.092-1.127-.278-1.631a2.748 2.748 0 0 0-.858-1.221c-.386-.311-.879-.466-1.477-.466-.599 0-1.091.155-1.477.466-.387.31-.673.717-.858 1.221a4.672 4.672 0 0 0-.279 1.631c0 .583.093 1.125.279 1.625.185.5.471.903.858 1.21.386.307.878.46 1.477.46Zm11.501-2.545v-5.159h1.341v8.727h-1.341v-1.477h-.091c-.204.443-.522.82-.954 1.13-.432.307-.977.461-1.637.461a2.92 2.92 0 0 1-1.454-.358c-.424-.243-.758-.606-1-1.091-.243-.489-.364-1.104-.364-1.847v-5.545h1.341v5.454c0 .637.178 1.144.534 1.523.36.379.818.568 1.375.568.334 0 .673-.085 1.017-.256.349-.17.64-.431.875-.784.239-.352.358-.801.358-1.346Zm3.797 3.568v-8.727h1.296v1.318h.091c.159-.432.446-.782.863-1.051a2.544 2.544 0 0 1 1.409-.404c.099 0 .222.002.37.006.147.004.259.01.335.017v1.364a3.462 3.462 0 0 0-.313-.051 3.014 3.014 0 0 0-.505-.04c-.425 0-.803.089-1.137.267a2.019 2.019 0 0 0-.784.727 1.963 1.963 0 0 0-.284 1.051v5.523h-1.341Zm10.283 3.273v-12h2.023v1.443h.119c.106-.212.256-.438.449-.676.193-.243.454-.449.784-.62.329-.174.75-.261 1.261-.261.674 0 1.282.172 1.824.517.546.341.977.847 1.296 1.517.321.667.482 1.485.482 2.455 0 .958-.157 1.772-.471 2.443-.315.67-.743 1.182-1.284 1.534a3.307 3.307 0 0 1-1.841.528c-.5 0-.915-.083-1.244-.25a2.519 2.519 0 0 1-.796-.602 3.922 3.922 0 0 1-.46-.676h-.085v4.648h-2.057Zm2.017-7.637c0 .565.079 1.059.239 1.483.162.425.395.756.698.995.307.234.678.352 1.114.352.455 0 .835-.121 1.142-.364.307-.246.538-.581.693-1.005.159-.428.239-.915.239-1.461a4.16 4.16 0 0 0-.233-1.443c-.155-.42-.386-.75-.693-.988-.307-.239-.69-.358-1.148-.358-.439 0-.812.115-1.119.346-.307.231-.54.555-.699.972-.155.416-.233.907-.233 1.471Zm11.79 4.534c-.853 0-1.591-.187-2.216-.562a3.825 3.825 0 0 1-1.455-1.574c-.341-.674-.511-1.462-.511-2.364 0-.901.17-1.691.511-2.369a3.814 3.814 0 0 1 1.455-1.579c.625-.375 1.363-.563 2.216-.563.852 0 1.591.188 2.216.563a3.766 3.766 0 0 1 1.448 1.579c.345.678.517 1.468.517 2.369 0 .902-.172 1.69-.517 2.364a3.776 3.776 0 0 1-1.448 1.574c-.625.375-1.364.562-2.216.562Zm.011-1.647c.462 0 .848-.127 1.159-.381.311-.258.542-.602.693-1.034.156-.432.233-.913.233-1.443 0-.534-.077-1.017-.233-1.449-.151-.436-.382-.782-.693-1.04-.311-.257-.697-.386-1.159-.386-.473 0-.867.129-1.182.386-.31.258-.543.604-.699 1.04a4.37 4.37 0 0 0-.227 1.449c0 .53.076 1.011.227 1.443.156.432.389.776.699 1.034.315.254.709.381 1.182.381Zm10.274-7.25v1.591h-5.017v-1.591h5.017Zm-3.778-2.091h2.057v8.193c0 .277.041.489.125.636.087.144.2.243.34.296.141.053.296.079.466.079.129 0 .247-.009.353-.028.109-.019.193-.036.25-.051l.346 1.608c-.11.038-.267.079-.471.125a3.86 3.86 0 0 1-.739.079 3.348 3.348 0 0 1-1.392-.233 2.163 2.163 0 0 1-.983-.806c-.239-.364-.356-.819-.352-1.364v-8.534Zm9.268 10.988c-.875 0-1.63-.181-2.267-.545a3.692 3.692 0 0 1-1.46-1.557c-.341-.674-.511-1.468-.511-2.38 0-.898.17-1.686.511-2.364a3.872 3.872 0 0 1 1.443-1.591c.618-.383 1.343-.574 2.176-.574a4.41 4.41 0 0 1 1.523.261c.481.171.905.436 1.273.796.371.36.663.818.875 1.375.212.553.318 1.212.318 1.977v.631h-7.154v-1.387h5.182a2.213 2.213 0 0 0-.255-1.051c-.167-.31-.4-.555-.699-.733a1.966 1.966 0 0 0-1.034-.267c-.421 0-.79.103-1.108.307a2.117 2.117 0 0 0-.745.796 2.29 2.29 0 0 0-.267 1.074v1.21c0 .507.093.943.279 1.307.185.359.445.636.778.829.333.189.724.284 1.171.284.299 0 .57-.041.812-.125.243-.087.453-.214.631-.381.178-.166.312-.373.403-.619l1.921.216a3.003 3.003 0 0 1-.694 1.33 3.38 3.38 0 0 1-1.295.875c-.526.204-1.129.306-1.807.306Zm7.678-5.284v5.114h-2.057v-8.727h1.966v1.483h.102c.201-.489.521-.877.96-1.165.444-.288.991-.432 1.642-.432.603 0 1.127.129 1.574.386.451.258.8.631 1.046 1.12.25.488.373 1.081.369 1.778v5.557h-2.057v-5.239c0-.583-.151-1.039-.454-1.369-.3-.33-.714-.494-1.245-.494-.359 0-.68.079-.96.238a1.663 1.663 0 0 0-.653.676c-.156.296-.233.654-.233 1.074Zm12.051-3.613v1.591h-5.017v-1.591h5.017Zm-3.779-2.091h2.057v8.193c0 .277.042.489.125.636a.676.676 0 0 0 .341.296c.14.053.296.079.466.079.129 0 .246-.009.352-.028a3.08 3.08 0 0 0 .25-.051l.347 1.608c-.11.038-.267.079-.472.125-.2.045-.447.072-.738.079a3.348 3.348 0 0 1-1.392-.233 2.163 2.163 0 0 1-.983-.806c-.239-.364-.356-.819-.353-1.364v-8.534Zm5.499 10.818v-8.727h2.057v8.727h-2.057Zm1.034-9.966a1.2 1.2 0 0 1-.841-.324 1.042 1.042 0 0 1-.352-.79c0-.31.117-.573.352-.789.235-.22.515-.33.841-.33.33 0 .61.11.841.33.235.216.352.479.352.789 0 .307-.117.571-.352.79a1.186 1.186 0 0 1-.841.324Zm5.649 10.142a3.639 3.639 0 0 1-1.494-.295 2.44 2.44 0 0 1-1.045-.887c-.254-.39-.381-.871-.381-1.443 0-.492.091-.899.273-1.221.181-.322.43-.58.744-.773a3.767 3.767 0 0 1 1.062-.438 8.628 8.628 0 0 1 1.233-.221 51.91 51.91 0 0 0 1.245-.142c.318-.046.549-.114.693-.205.148-.095.221-.24.221-.437v-.034c0-.428-.126-.76-.38-.995s-.62-.352-1.097-.352c-.504 0-.903.11-1.199.329-.291.22-.488.48-.591.779l-1.92-.273c.151-.53.401-.973.75-1.329.348-.36.775-.629 1.278-.807a4.89 4.89 0 0 1 1.671-.273c.42 0 .839.049 1.255.148.417.098.798.261 1.143.488.344.224.621.529.829.915.212.387.318.87.318 1.449v5.841h-1.977v-1.199h-.068a2.49 2.49 0 0 1-1.375 1.188c-.337.125-.733.187-1.188.187Zm.534-1.511c.413 0 .771-.082 1.074-.245a1.8 1.8 0 0 0 .699-.659c.167-.272.25-.57.25-.892v-1.028a.973.973 0 0 1-.329.148 4.76 4.76 0 0 1-.512.119 17.23 17.23 0 0 1-.562.091l-.483.068c-.307.042-.582.11-.824.205a1.36 1.36 0 0 0-.574.397c-.14.167-.21.383-.21.648 0 .379.138.665.415.858.276.193.628.29 1.056.29Zm8.199-10.301V115.5h-2.057v-11.636h2.057Zm9.891 11.806c-.871 0-1.619-.191-2.244-.573a3.827 3.827 0 0 1-1.438-1.586c-.333-.678-.5-1.458-.5-2.341 0-.886.171-1.668.511-2.346a3.814 3.814 0 0 1 1.444-1.591c.625-.383 1.363-.574 2.216-.574.708 0 1.335.131 1.88.392.549.258.987.623 1.313 1.097.325.469.511 1.019.557 1.647h-1.966c-.08-.42-.269-.77-.569-1.051-.295-.284-.691-.426-1.187-.426-.421 0-.79.114-1.108.341-.318.224-.566.546-.744.966-.175.42-.262.924-.262 1.511 0 .595.087 1.106.262 1.534.174.425.418.752.733.983a1.87 1.87 0 0 0 1.119.341c.303 0 .574-.057.812-.17.243-.118.446-.286.608-.506a1.95 1.95 0 0 0 .336-.801h1.966a3.44 3.44 0 0 1-.546 1.642 3.222 3.222 0 0 1-1.284 1.114c-.542.265-1.178.397-1.909.397Zm9.234 0c-.852 0-1.591-.187-2.216-.562a3.822 3.822 0 0 1-1.454-1.574c-.341-.674-.512-1.462-.512-2.364 0-.901.171-1.691.512-2.369a3.811 3.811 0 0 1 1.454-1.579c.625-.375 1.364-.563 2.216-.563.853 0 1.591.188 2.216.563a3.774 3.774 0 0 1 1.449 1.579c.345.678.517 1.468.517 2.369 0 .902-.172 1.69-.517 2.364a3.785 3.785 0 0 1-1.449 1.574c-.625.375-1.363.562-2.216.562Zm.012-1.647c.462 0 .848-.127 1.159-.381.31-.258.541-.602.693-1.034.155-.432.233-.913.233-1.443 0-.534-.078-1.017-.233-1.449-.152-.436-.383-.782-.693-1.04-.311-.257-.697-.386-1.159-.386-.474 0-.868.129-1.182.386-.311.258-.544.604-.699 1.04a4.345 4.345 0 0 0-.227 1.449c0 .53.075 1.011.227 1.443.155.432.388.776.699 1.034.314.254.708.381 1.182.381Zm7.973-3.637v5.114h-2.057v-8.727h1.966v1.483H806c.201-.489.521-.877.96-1.165.443-.288.991-.432 1.642-.432.603 0 1.127.129 1.574.386.451.258.799.631 1.046 1.12.25.488.373 1.081.369 1.778v5.557h-2.057v-5.239c0-.583-.151-1.039-.454-1.369-.3-.33-.714-.494-1.245-.494-.36 0-.68.079-.96.238a1.657 1.657 0 0 0-.653.676c-.156.296-.233.654-.233 1.074Zm12.051-3.613v1.591h-5.017v-1.591h5.017Zm-3.779-2.091h2.057v8.193c0 .277.042.489.125.636a.676.676 0 0 0 .341.296c.14.053.296.079.466.079.129 0 .246-.009.352-.028.11-.019.193-.036.25-.051l.347 1.608c-.11.038-.267.079-.472.125-.2.045-.447.072-.738.079a3.343 3.343 0 0 1-1.392-.233 2.163 2.163 0 0 1-.983-.806c-.239-.364-.356-.819-.353-1.364v-8.534Zm5.499 10.818v-8.727h1.994v1.454h.091c.159-.504.432-.892.818-1.165a2.259 2.259 0 0 1 1.336-.414c.113 0 .24.005.38.017.144.007.264.021.358.04v1.892a2.114 2.114 0 0 0-.415-.08 3.88 3.88 0 0 0-.539-.04c-.375 0-.712.082-1.012.245-.295.159-.528.38-.699.664-.17.284-.255.612-.255.983v5.131h-2.057Zm6.344 0v-8.727h2.057v8.727h-2.057Zm1.034-9.966a1.2 1.2 0 0 1-.841-.324 1.042 1.042 0 0 1-.352-.79c0-.31.117-.573.352-.789.235-.22.515-.33.841-.33.329 0 .61.11.841.33.235.216.352.479.352.789 0 .307-.117.571-.352.79a1.188 1.188 0 0 1-.841.324Zm3.228 9.966v-11.636h2.057v4.352h.086c.106-.212.255-.438.448-.676.194-.243.455-.449.784-.62.33-.174.75-.261 1.262-.261.674 0 1.282.172 1.824.517.545.341.977.847 1.295 1.517.322.667.483 1.485.483 2.455 0 .958-.157 1.772-.471 2.443-.315.67-.743 1.182-1.285 1.534a3.3 3.3 0 0 1-1.84.528c-.5 0-.915-.083-1.245-.25a2.526 2.526 0 0 1-.795-.602 3.866 3.866 0 0 1-.46-.676h-.12v1.375h-2.023Zm2.018-4.364c0 .565.079 1.059.238 1.483.163.425.396.756.699.995.307.234.678.352 1.114.352.454 0 .835-.121 1.142-.364.307-.246.538-.581.693-1.005.159-.428.239-.915.239-1.461a4.16 4.16 0 0 0-.233-1.443c-.156-.42-.387-.75-.694-.988-.306-.239-.689-.358-1.147-.358-.44 0-.813.115-1.12.346-.306.231-.539.555-.699.972-.155.416-.232.907-.232 1.471Zm13.532.694v-5.057h2.057v8.727h-1.994v-1.551h-.091a2.63 2.63 0 0 1-.972 1.199c-.447.31-.998.466-1.653.466-.572 0-1.078-.127-1.517-.381a2.648 2.648 0 0 1-1.023-1.119c-.246-.493-.369-1.087-.369-1.784v-5.557h2.057v5.238c0 .553.151.993.454 1.319.303.325.701.488 1.193.488.303 0 .597-.074.881-.221a1.8 1.8 0 0 0 .699-.659c.185-.296.278-.665.278-1.108Zm8.53-5.057v1.591h-5.017v-1.591h5.017Zm-3.778-2.091h2.056v8.193c0 .277.042.489.125.636a.68.68 0 0 0 .341.296c.14.053.296.079.466.079.129 0 .246-.009.353-.028.109-.019.193-.036.25-.051l.346 1.608c-.11.038-.267.079-.471.125a3.86 3.86 0 0 1-.739.079 3.348 3.348 0 0 1-1.392-.233 2.163 2.163 0 0 1-.983-.806c-.239-.364-.356-.819-.352-1.364v-8.534Zm5.498 10.818v-8.727h2.057v8.727h-2.057Zm1.034-9.966c-.325 0-.606-.108-.841-.324a1.046 1.046 0 0 1-.352-.79c0-.31.118-.573.352-.789.235-.22.516-.33.841-.33.33 0 .61.11.841.33.235.216.352.479.352.789 0 .307-.117.571-.352.79a1.186 1.186 0 0 1-.841.324Zm6.945 10.136c-.852 0-1.591-.187-2.216-.562a3.825 3.825 0 0 1-1.455-1.574c-.34-.674-.511-1.462-.511-2.364 0-.901.171-1.691.511-2.369a3.814 3.814 0 0 1 1.455-1.579c.625-.375 1.364-.563 2.216-.563.852 0 1.591.188 2.216.563a3.774 3.774 0 0 1 1.449 1.579c.344.678.517 1.468.517 2.369 0 .902-.173 1.69-.517 2.364a3.785 3.785 0 0 1-1.449 1.574c-.625.375-1.364.562-2.216.562Zm.011-1.647c.462 0 .849-.127 1.159-.381.311-.258.542-.602.694-1.034a4.25 4.25 0 0 0 .232-1.443c0-.534-.077-1.017-.232-1.449-.152-.436-.383-.782-.694-1.04-.31-.257-.697-.386-1.159-.386-.473 0-.867.129-1.182.386-.31.258-.543.604-.698 1.04a4.345 4.345 0 0 0-.228 1.449c0 .53.076 1.011.228 1.443.155.432.388.776.698 1.034.315.254.709.381 1.182.381Zm7.973-3.637v5.114h-2.057v-8.727h1.966v1.483h.103c.2-.489.52-.877.96-1.165.443-.288.99-.432 1.642-.432.602 0 1.127.129 1.574.386a2.6 2.6 0 0 1 1.045 1.12c.25.488.373 1.081.37 1.778v5.557h-2.057v-5.239c0-.583-.152-1.039-.455-1.369-.299-.33-.714-.494-1.244-.494-.36 0-.68.079-.96.238a1.659 1.659 0 0 0-.654.676c-.155.296-.233.654-.233 1.074Z"/>
  <rect width="305" height="38" x="589" y="91" stroke="#F4CE71" stroke-width="2" rx="19"/>
  <path fill="#F4CE71" d="M584.707 110.707a.999.999 0 0 0 0-1.414l-6.364-6.364a.999.999 0 1 0-1.414 1.414l5.657 5.657-5.657 5.657a.999.999 0 1 0 1.414 1.414l6.364-6.364ZM531 76v12.5h2V76h-2Zm22.5 35H584v-2h-30.5v2ZM531 88.5c0 12.426 10.074 22.5 22.5 22.5v-2c-11.322 0-20.5-9.178-20.5-20.5h-2ZM523 68a8 8 0 0 1 8 8h2c0-5.523-4.477-10-10-10v2Z"/>
  <rect width="409" height="38" x="589" y="159" fill="#fff" rx="19"/>
  <path fill="#1E4460" d="M609.409 183.5v-11.636h1.409v10.386h5.409v1.25h-6.818Zm12.477.182c-.841 0-1.566-.186-2.176-.557a3.736 3.736 0 0 1-1.403-1.568c-.326-.674-.489-1.459-.489-2.352 0-.894.163-1.682.489-2.364.329-.686.788-1.22 1.375-1.602.591-.387 1.28-.58 2.068-.58.455 0 .903.076 1.347.227.443.152.846.398 1.21.739.363.337.653.784.869 1.341.216.557.324 1.242.324 2.057v.568h-6.727v-1.159h5.363c0-.493-.098-.932-.295-1.318a2.219 2.219 0 0 0-.83-.915c-.356-.224-.776-.335-1.261-.335-.534 0-.996.132-1.386.397a2.617 2.617 0 0 0-.892 1.023 2.997 2.997 0 0 0-.313 1.352v.773c0 .659.114 1.218.341 1.676.231.455.551.801.96 1.04.409.235.885.352 1.426.352.353 0 .671-.049.955-.147.288-.103.536-.254.744-.455.209-.205.37-.458.483-.761l1.296.363c-.137.44-.366.826-.688 1.159-.322.33-.72.587-1.193.773a4.425 4.425 0 0 1-1.597.273Zm8.222.023a3.554 3.554 0 0 1-1.506-.313 2.592 2.592 0 0 1-1.074-.915c-.265-.401-.397-.886-.397-1.454 0-.5.098-.906.295-1.216.197-.315.46-.561.79-.739.329-.178.693-.31 1.091-.398.401-.09.805-.162 1.21-.215.53-.069.96-.12 1.29-.154.333-.038.576-.1.727-.187.155-.087.233-.239.233-.455v-.045c0-.561-.153-.997-.46-1.307-.303-.311-.763-.466-1.381-.466-.64 0-1.142.14-1.506.42-.363.281-.619.58-.767.898l-1.272-.454c.227-.531.53-.944.909-1.239a3.398 3.398 0 0 1 1.25-.625 5.193 5.193 0 0 1 1.341-.182c.28 0 .602.034.966.102.367.065.721.199 1.062.404.345.204.631.513.858.926.227.413.341.966.341 1.659v5.75h-1.341v-1.182h-.068a2.36 2.36 0 0 1-.455.608c-.212.216-.494.4-.846.551-.353.152-.782.228-1.29.228Zm.204-1.205c.531 0 .978-.104 1.341-.312.368-.209.644-.478.83-.807.189-.33.284-.676.284-1.04v-1.227c-.057.068-.182.13-.375.187a6.143 6.143 0 0 1-.659.142c-.246.038-.487.072-.722.102-.231.027-.418.05-.562.069a5.097 5.097 0 0 0-.977.221c-.3.099-.542.248-.728.449-.181.197-.272.466-.272.807 0 .466.172.818.517 1.057.348.235.789.352 1.323.352Zm6.243 1v-8.727h1.296v1.318h.091c.159-.432.447-.782.863-1.051a2.544 2.544 0 0 1 1.409-.404c.099 0 .222.002.37.006a5.5 5.5 0 0 1 .335.017v1.364a3.416 3.416 0 0 0-.312-.051 3.035 3.035 0 0 0-.506-.04 2.38 2.38 0 0 0-1.137.267c-.329.174-.59.417-.784.727a1.963 1.963 0 0 0-.284 1.051v5.523h-1.341Zm7.294-5.25v5.25h-1.34v-8.727h1.295v1.363h.114c.204-.443.515-.799.931-1.068.417-.273.955-.409 1.614-.409.591 0 1.108.121 1.551.364.443.238.788.602 1.034 1.091.247.484.37 1.098.37 1.841v5.545h-1.341v-5.455c0-.685-.178-1.219-.534-1.602-.356-.386-.845-.579-1.466-.579-.428 0-.811.092-1.148.278a1.992 1.992 0 0 0-.79.813c-.193.356-.29.787-.29 1.295Zm14.496 5.25-2.659-8.727h1.409l1.887 6.682h.09l1.864-6.682h1.432l1.841 6.659h.091l1.886-6.659h1.409l-2.659 8.727h-1.318l-1.909-6.705h-.137l-1.909 6.705h-1.318Zm12.364-5.25v5.25h-1.341v-11.636h1.341v4.272h.113c.205-.45.512-.808.921-1.074.413-.268.962-.403 1.648-.403.594 0 1.115.119 1.562.358a2.41 2.41 0 0 1 1.04 1.085c.25.485.375 1.103.375 1.853v5.545h-1.341v-5.455c0-.693-.18-1.229-.54-1.607-.356-.383-.85-.574-1.483-.574-.439 0-.833.092-1.182.278a2.038 2.038 0 0 0-.818.813c-.197.356-.295.787-.295 1.295Zm11.771 5.432c-.841 0-1.566-.186-2.176-.557a3.736 3.736 0 0 1-1.403-1.568c-.326-.674-.489-1.459-.489-2.352 0-.894.163-1.682.489-2.364.329-.686.787-1.22 1.375-1.602.59-.387 1.28-.58 2.068-.58.454 0 .903.076 1.346.227.444.152.847.398 1.211.739.363.337.653.784.869 1.341.216.557.324 1.242.324 2.057v.568h-6.728v-1.159h5.364c0-.493-.098-.932-.295-1.318a2.226 2.226 0 0 0-.83-.915c-.356-.224-.776-.335-1.261-.335-.534 0-.996.132-1.387.397a2.633 2.633 0 0 0-.892 1.023 3.01 3.01 0 0 0-.312 1.352v.773c0 .659.113 1.218.341 1.676.231.455.551.801.96 1.04.409.235.884.352 1.426.352.352 0 .671-.049.955-.147.288-.103.536-.254.744-.455.208-.205.369-.458.483-.761l1.295.363a2.86 2.86 0 0 1-.687 1.159c-.322.33-.72.587-1.193.773a4.425 4.425 0 0 1-1.597.273Zm9.449-8.909v1.136h-4.523v-1.136h4.523Zm-3.205-2.091h1.341V181c0 .379.055.663.165.852a.853.853 0 0 0 .432.375c.178.061.365.091.562.091.148 0 .269-.007.364-.023l.227-.045.273 1.205a2.74 2.74 0 0 1-.381.102 2.785 2.785 0 0 1-.619.057 2.7 2.7 0 0 1-1.114-.245 2.214 2.214 0 0 1-.897-.744c-.235-.333-.353-.754-.353-1.261v-8.682Zm6.75 5.568v5.25h-1.34v-11.636h1.34v4.272h.114c.205-.45.511-.808.921-1.074.412-.268.962-.403 1.647-.403.595 0 1.116.119 1.563.358.447.235.793.597 1.04 1.085.25.485.375 1.103.375 1.853v5.545h-1.341v-5.455c0-.693-.18-1.229-.54-1.607-.356-.383-.851-.574-1.483-.574-.44 0-.833.092-1.182.278a2.032 2.032 0 0 0-.818.813c-.197.356-.296.787-.296 1.295Zm11.772 5.432c-.841 0-1.567-.186-2.176-.557a3.744 3.744 0 0 1-1.404-1.568c-.326-.674-.488-1.459-.488-2.352 0-.894.162-1.682.488-2.364.33-.686.788-1.22 1.375-1.602.591-.387 1.28-.58 2.068-.58.455 0 .904.076 1.347.227.443.152.847.398 1.21.739.364.337.654.784.87 1.341.215.557.323 1.242.323 2.057v.568h-6.727v-1.159h5.364c0-.493-.099-.932-.296-1.318a2.217 2.217 0 0 0-.829-.915c-.356-.224-.777-.335-1.262-.335-.534 0-.996.132-1.386.397a2.625 2.625 0 0 0-.892 1.023 3.01 3.01 0 0 0-.313 1.352v.773c0 .659.114 1.218.341 1.676.231.455.552.801.961 1.04.409.235.884.352 1.426.352.352 0 .67-.049.954-.147.288-.103.536-.254.745-.455.208-.205.369-.458.483-.761l1.295.363c-.136.44-.366.826-.687 1.159a3.35 3.35 0 0 1-1.194.773 4.416 4.416 0 0 1-1.596.273Zm5.653-.182v-8.727h1.296v1.318h.091c.159-.432.446-.782.863-1.051a2.544 2.544 0 0 1 1.409-.404c.099 0 .222.002.37.006.147.004.259.01.335.017v1.364a3.462 3.462 0 0 0-.313-.051 3.014 3.014 0 0 0-.505-.04c-.425 0-.803.089-1.137.267a2.019 2.019 0 0 0-.784.727 1.963 1.963 0 0 0-.284 1.051v5.523h-1.341Zm11.317 3.273a2.93 2.93 0 0 1-.608-.057 1.601 1.601 0 0 1-.369-.102l.341-1.182c.325.083.613.113.863.091a1.04 1.04 0 0 0 .665-.335c.197-.197.377-.518.54-.961l.25-.682-3.228-8.772h1.455l2.409 6.954h.091l2.409-6.954h1.455l-3.705 10c-.167.45-.373.824-.619 1.119a2.321 2.321 0 0 1-.858.665 2.646 2.646 0 0 1-1.091.216Zm11.275-3.091c-.787 0-1.479-.188-2.073-.563-.591-.375-1.053-.899-1.387-1.574-.329-.674-.494-1.462-.494-2.363 0-.909.165-1.703.494-2.381.334-.678.796-1.204 1.387-1.579.594-.375 1.286-.563 2.073-.563.788 0 1.478.188 2.069.563.594.375 1.056.901 1.386 1.579.333.678.5 1.472.5 2.381 0 .901-.167 1.689-.5 2.363a3.772 3.772 0 0 1-1.386 1.574c-.591.375-1.281.563-2.069.563Zm0-1.205c.599 0 1.091-.153 1.478-.46a2.72 2.72 0 0 0 .858-1.21c.185-.5.278-1.042.278-1.625 0-.584-.093-1.127-.278-1.631a2.748 2.748 0 0 0-.858-1.221c-.387-.311-.879-.466-1.478-.466-.598 0-1.09.155-1.477.466-.386.31-.672.717-.858 1.221a4.695 4.695 0 0 0-.278 1.631c0 .583.093 1.125.278 1.625.186.5.472.903.858 1.21.387.307.879.46 1.477.46Zm11.502-2.545v-5.159h1.341v8.727h-1.341v-1.477h-.091c-.205.443-.523.82-.955 1.13-.431.307-.977.461-1.636.461a2.92 2.92 0 0 1-1.454-.358c-.425-.243-.758-.606-1-1.091-.243-.489-.364-1.104-.364-1.847v-5.545h1.341v5.454c0 .637.178 1.144.534 1.523.36.379.818.568 1.375.568.333 0 .672-.085 1.017-.256.348-.17.64-.431.875-.784.239-.352.358-.801.358-1.346Zm12.183-5.159v1.136h-4.704v-1.136h4.704Zm-3.295 8.727v-9.932c0-.5.117-.916.352-1.25a2.19 2.19 0 0 1 .915-.75c.375-.166.771-.25 1.187-.25.33 0 .599.027.807.08.208.053.364.102.466.147l-.386 1.16a6.346 6.346 0 0 0-.284-.086 1.731 1.731 0 0 0-.466-.051c-.444 0-.764.112-.961.335-.193.224-.289.552-.289.983v9.614h-1.341Zm5.174 0v-8.727h1.341v8.727h-1.341Zm.682-10.182a.953.953 0 0 1-.676-.267.856.856 0 0 1-.278-.642c0-.25.092-.464.278-.642a.953.953 0 0 1 .676-.267c.262 0 .485.089.671.267a.851.851 0 0 1 .284.642c0 .25-.095.464-.284.642a.935.935 0 0 1-.671.267Zm6.911 1.455v1.136h-4.523v-1.136h4.523Zm-3.205-2.091h1.341V181c0 .379.055.663.165.852a.849.849 0 0 0 .432.375c.178.061.365.091.562.091.148 0 .269-.007.364-.023l.227-.045.273 1.205a2.74 2.74 0 0 1-.381.102 2.792 2.792 0 0 1-.619.057 2.7 2.7 0 0 1-1.114-.245 2.217 2.217 0 0 1-.898-.744c-.234-.333-.352-.754-.352-1.261v-8.682Zm13.517 2.091v1.136h-4.522v-1.136h4.522Zm-3.204-2.091h1.341V181c0 .379.055.663.164.852a.853.853 0 0 0 .432.375c.178.061.366.091.563.091.147 0 .269-.007.363-.023l.228-.045.272 1.205a2.72 2.72 0 0 1-.38.102c-.163.038-.37.057-.62.057-.378 0-.75-.082-1.113-.245a2.217 2.217 0 0 1-.898-.744c-.235-.333-.352-.754-.352-1.261v-8.682Zm6.75 5.568v5.25h-1.341v-11.636h1.341v4.272h.113c.205-.45.512-.808.921-1.074.413-.268.962-.403 1.648-.403.594 0 1.115.119 1.562.358a2.41 2.41 0 0 1 1.04 1.085c.25.485.375 1.103.375 1.853v5.545h-1.341v-5.455c0-.693-.18-1.229-.54-1.607-.356-.383-.85-.574-1.483-.574-.439 0-.833.092-1.182.278a2.038 2.038 0 0 0-.818.813c-.197.356-.295.787-.295 1.295Zm11.771 5.432c-.841 0-1.566-.186-2.176-.557a3.744 3.744 0 0 1-1.404-1.568c-.325-.674-.488-1.459-.488-2.352 0-.894.163-1.682.488-2.364.33-.686.788-1.22 1.375-1.602.591-.387 1.281-.58 2.069-.58.454 0 .903.076 1.346.227.443.152.847.398 1.21.739.364.337.654.784.87 1.341.216.557.324 1.242.324 2.057v.568h-6.728v-1.159h5.364c0-.493-.098-.932-.295-1.318a2.226 2.226 0 0 0-.83-.915c-.356-.224-.777-.335-1.261-.335-.534 0-.997.132-1.387.397a2.633 2.633 0 0 0-.892 1.023 3.01 3.01 0 0 0-.312 1.352v.773c0 .659.113 1.218.341 1.676.231.455.551.801.96 1.04.409.235.884.352 1.426.352.352 0 .67-.049.955-.147.287-.103.536-.254.744-.455.208-.205.369-.458.483-.761l1.295.363a2.86 2.86 0 0 1-.687 1.159c-.322.33-.72.587-1.193.773a4.425 4.425 0 0 1-1.597.273Zm13.699 0c-.818 0-1.523-.193-2.114-.58a3.77 3.77 0 0 1-1.363-1.596c-.319-.678-.478-1.453-.478-2.324 0-.887.163-1.669.489-2.347.329-.682.788-1.214 1.375-1.596.591-.387 1.28-.58 2.068-.58.614 0 1.167.114 1.659.341.493.227.896.545 1.21.955.315.409.51.886.586 1.431h-1.341c-.103-.397-.33-.75-.682-1.056-.349-.311-.818-.466-1.409-.466-.523 0-.981.136-1.375.409-.39.269-.695.649-.915 1.142-.216.488-.324 1.062-.324 1.721 0 .675.106 1.262.318 1.762.216.5.519.888.909 1.164.394.277.857.415 1.387.415.348 0 .665-.06.949-.182.284-.121.524-.295.721-.522.197-.228.337-.5.421-.818h1.341a3.114 3.114 0 0 1-.563 1.392 3.142 3.142 0 0 1-1.176.977c-.485.238-1.049.358-1.693.358Zm8.937 0c-.788 0-1.479-.188-2.074-.563-.59-.375-1.053-.899-1.386-1.574-.329-.674-.494-1.462-.494-2.363 0-.909.165-1.703.494-2.381.333-.678.796-1.204 1.386-1.579.595-.375 1.286-.563 2.074-.563.788 0 1.478.188 2.069.563.594.375 1.056.901 1.386 1.579.333.678.5 1.472.5 2.381 0 .901-.167 1.689-.5 2.363a3.772 3.772 0 0 1-1.386 1.574c-.591.375-1.281.563-2.069.563Zm0-1.205c.599 0 1.091-.153 1.478-.46a2.72 2.72 0 0 0 .858-1.21c.185-.5.278-1.042.278-1.625 0-.584-.093-1.127-.278-1.631a2.748 2.748 0 0 0-.858-1.221c-.387-.311-.879-.466-1.478-.466-.598 0-1.091.155-1.477.466-.386.31-.672.717-.858 1.221a4.695 4.695 0 0 0-.278 1.631c0 .583.093 1.125.278 1.625.186.5.472.903.858 1.21.386.307.879.46 1.477.46Zm6.002 1.023v-8.727h1.295v1.363h.114c.182-.466.475-.827.881-1.085.405-.261.892-.392 1.46-.392.576 0 1.055.131 1.437.392.387.258.688.619.904 1.085h.091c.223-.45.558-.808 1.005-1.074.447-.268.983-.403 1.608-.403.781 0 1.419.244 1.915.733.496.485.744 1.241.744 2.267v5.841h-1.341v-5.841c0-.644-.176-1.104-.528-1.381a1.957 1.957 0 0 0-1.244-.414c-.614 0-1.089.185-1.426.556-.338.368-.506.834-.506 1.398v5.682h-1.364v-5.977c0-.496-.161-.896-.483-1.199-.322-.307-.736-.46-1.244-.46-.349 0-.674.092-.977.278-.3.186-.542.443-.728.773a2.288 2.288 0 0 0-.272 1.13v5.455h-1.341Zm13.906 3.273v-12h1.295v1.386h.16c.098-.151.234-.345.409-.579.178-.239.431-.451.761-.637.333-.189.784-.284 1.352-.284.735 0 1.383.184 1.943.551.561.368.999.888 1.313 1.563.314.674.472 1.469.472 2.386 0 .924-.158 1.725-.472 2.403-.314.675-.75 1.197-1.307 1.569-.557.367-1.199.551-1.926.551-.561 0-1.009-.093-1.347-.279-.337-.189-.596-.403-.778-.642a8.279 8.279 0 0 1-.42-.602h-.114v4.614h-1.341Zm1.318-7.637c0 .659.097 1.241.29 1.745.193.5.475.892.847 1.176.371.28.825.42 1.363.42.561 0 1.029-.147 1.404-.443.378-.299.662-.701.852-1.204.193-.508.29-1.072.29-1.694 0-.613-.095-1.166-.284-1.659-.186-.496-.468-.888-.847-1.176-.375-.292-.847-.437-1.415-.437-.545 0-1.004.138-1.375.414-.371.273-.651.656-.841 1.148-.189.489-.284 1.059-.284 1.71Zm11 4.569a3.546 3.546 0 0 1-1.505-.313 2.58 2.58 0 0 1-1.074-.915c-.265-.401-.398-.886-.398-1.454 0-.5.098-.906.295-1.216.197-.315.461-.561.79-.739.33-.178.693-.31 1.091-.398.402-.09.805-.162 1.21-.215.531-.069.961-.12 1.29-.154.333-.038.576-.1.727-.187.156-.087.233-.239.233-.455v-.045c0-.561-.153-.997-.46-1.307-.303-.311-.763-.466-1.381-.466-.64 0-1.142.14-1.505.42-.364.281-.62.58-.767.898l-1.273-.454c.227-.531.53-.944.909-1.239a3.406 3.406 0 0 1 1.25-.625 5.205 5.205 0 0 1 1.341-.182c.28 0 .602.034.966.102.367.065.721.199 1.062.404.345.204.631.513.858.926.228.413.341.966.341 1.659v5.75h-1.341v-1.182h-.068c-.091.19-.242.392-.454.608-.213.216-.495.4-.847.551-.352.152-.782.228-1.29.228Zm.205-1.205c.53 0 .977-.104 1.341-.312a2.133 2.133 0 0 0 1.113-1.847v-1.227c-.057.068-.182.13-.375.187a6.143 6.143 0 0 1-.659.142 28.32 28.32 0 0 1-1.284.171 5.114 5.114 0 0 0-.977.221 1.684 1.684 0 0 0-.727.449c-.182.197-.273.466-.273.807 0 .466.172.818.517 1.057.348.235.79.352 1.324.352Zm7.584-4.25v5.25h-1.341v-8.727h1.295v1.363h.114c.204-.443.515-.799.932-1.068.416-.273.954-.409 1.613-.409.591 0 1.108.121 1.551.364.444.238.788.602 1.034 1.091.247.484.37 1.098.37 1.841v5.545h-1.341v-5.455c0-.685-.178-1.219-.534-1.602-.356-.386-.845-.579-1.466-.579-.428 0-.811.092-1.148.278a1.998 1.998 0 0 0-.79.813c-.193.356-.289.787-.289 1.295Zm8.569 8.523a2.93 2.93 0 0 1-.608-.057 1.601 1.601 0 0 1-.369-.102l.341-1.182c.326.083.613.113.863.091a1.04 1.04 0 0 0 .665-.335c.197-.197.377-.518.54-.961l.25-.682-3.227-8.772h1.454l2.409 6.954h.091l2.409-6.954h1.455l-3.705 10c-.166.45-.373.824-.619 1.119a2.321 2.321 0 0 1-.858.665 2.646 2.646 0 0 1-1.091.216Zm16.179-3.103c-.871 0-1.619-.191-2.244-.573a3.834 3.834 0 0 1-1.438-1.586c-.333-.678-.5-1.458-.5-2.341 0-.886.171-1.668.512-2.346a3.819 3.819 0 0 1 1.443-1.591c.625-.383 1.364-.574 2.216-.574.708 0 1.335.131 1.88.392.55.258.987.623 1.313 1.097.326.469.511 1.019.557 1.647h-1.966c-.08-.42-.269-.77-.568-1.051-.296-.284-.692-.426-1.188-.426-.42 0-.79.114-1.108.341-.318.224-.566.546-.744.966-.174.42-.261.924-.261 1.511 0 .595.087 1.106.261 1.534.174.425.418.752.733.983a1.87 1.87 0 0 0 1.119.341c.303 0 .574-.057.813-.17.242-.118.445-.286.608-.506.163-.22.274-.487.335-.801h1.966a3.42 3.42 0 0 1-.546 1.642 3.222 3.222 0 0 1-1.284 1.114c-.541.265-1.178.397-1.909.397Zm10.99-3.84v-5.057h2.057v8.727h-1.994v-1.551h-.091a2.63 2.63 0 0 1-.972 1.199c-.447.31-.998.466-1.653.466-.572 0-1.078-.127-1.517-.381a2.648 2.648 0 0 1-1.023-1.119c-.246-.493-.369-1.087-.369-1.784v-5.557h2.057v5.238c0 .553.151.993.454 1.319.303.325.701.488 1.193.488.303 0 .597-.074.881-.221a1.8 1.8 0 0 0 .699-.659c.185-.296.278-.665.278-1.108Zm6.229-7.966V183.5h-2.057v-11.636h2.057Zm6.473 2.909v1.591h-5.017v-1.591h5.017Zm-3.779-2.091h2.057v8.193c0 .277.042.489.125.636a.676.676 0 0 0 .341.296c.14.053.296.079.466.079.129 0 .246-.009.352-.028a3.08 3.08 0 0 0 .25-.051l.347 1.608c-.11.038-.267.079-.472.125-.2.045-.447.072-.738.079a3.348 3.348 0 0 1-1.392-.233 2.163 2.163 0 0 1-.983-.806c-.239-.364-.356-.819-.353-1.364v-8.534Zm11.062 7.148v-5.057h2.056v8.727h-1.994v-1.551h-.091a2.634 2.634 0 0 1-.971 1.199c-.447.31-.999.466-1.654.466-.572 0-1.077-.127-1.517-.381a2.66 2.66 0 0 1-1.023-1.119c-.246-.493-.369-1.087-.369-1.784v-5.557h2.057v5.238c0 .553.151.993.454 1.319.303.325.701.488 1.194.488.303 0 .596-.074.88-.221a1.8 1.8 0 0 0 .699-.659c.186-.296.279-.665.279-1.108Zm4.171 3.67v-8.727h1.995v1.454h.091c.159-.504.431-.892.818-1.165.39-.276.835-.414 1.335-.414.114 0 .241.005.381.017.144.007.263.021.358.04v1.892a2.13 2.13 0 0 0-.415-.08 3.906 3.906 0 0 0-.54-.04c-.375 0-.712.082-1.011.245a1.78 1.78 0 0 0-.699.664 1.869 1.869 0 0 0-.256.983v5.131h-2.057Zm9.848.17c-.875 0-1.63-.181-2.267-.545a3.692 3.692 0 0 1-1.46-1.557c-.341-.674-.511-1.468-.511-2.38 0-.898.17-1.686.511-2.364a3.872 3.872 0 0 1 1.443-1.591c.618-.383 1.343-.574 2.176-.574a4.41 4.41 0 0 1 1.523.261c.481.171.906.436 1.273.796.371.36.663.818.875 1.375.212.553.318 1.212.318 1.977v.631h-7.153v-1.387h5.182a2.214 2.214 0 0 0-.256-1.051c-.167-.31-.4-.555-.699-.733a1.963 1.963 0 0 0-1.034-.267c-.421 0-.79.103-1.108.307a2.114 2.114 0 0 0-.744.796 2.267 2.267 0 0 0-.267 1.074v1.21c0 .507.092.943.278 1.307.186.359.445.636.778.829.334.189.724.284 1.171.284.299 0 .57-.041.812-.125.243-.087.453-.214.631-.381a1.57 1.57 0 0 0 .403-.619l1.921.216a2.991 2.991 0 0 1-.693 1.33 3.385 3.385 0 0 1-1.296.875c-.526.204-1.129.306-1.807.306Zm10.371-12.352-3.75 13.932h-1.801l3.75-13.932h1.801Zm9.108 3.455-3.108 8.727h-2.273l-3.107-8.727h2.193l2.005 6.483h.091l2.012-6.483h2.187Zm3.685 8.903a3.647 3.647 0 0 1-1.495-.295 2.446 2.446 0 0 1-1.045-.887c-.254-.39-.381-.871-.381-1.443 0-.492.091-.899.273-1.221.182-.322.43-.58.744-.773a3.785 3.785 0 0 1 1.063-.438 8.628 8.628 0 0 1 1.233-.221c.511-.053.926-.101 1.244-.142.318-.046.549-.114.693-.205.148-.095.222-.24.222-.437v-.034c0-.428-.127-.76-.381-.995s-.619-.352-1.096-.352c-.504 0-.904.11-1.199.329-.292.22-.489.48-.591.779l-1.921-.273c.152-.53.402-.973.75-1.329.349-.36.775-.629 1.279-.807a4.884 4.884 0 0 1 1.67-.273c.421 0 .839.049 1.256.148.417.098.797.261 1.142.488.345.224.621.529.83.915.212.387.318.87.318 1.449v5.841h-1.978v-1.199h-.068c-.125.243-.301.47-.528.682a2.557 2.557 0 0 1-.847.506c-.337.125-.733.187-1.187.187Zm.534-1.511c.413 0 .771-.082 1.074-.245a1.8 1.8 0 0 0 .699-.659c.166-.272.25-.57.25-.892v-1.028a.99.99 0 0 1-.33.148 4.739 4.739 0 0 1-.511.119c-.19.034-.377.064-.563.091l-.483.068a3.6 3.6 0 0 0-.824.205 1.364 1.364 0 0 0-.573.397c-.141.167-.211.383-.211.648 0 .379.139.665.415.858.277.193.629.29 1.057.29Zm8.199-10.301V183.5h-2.057v-11.636h2.057Zm7.677 7.966v-5.057h2.057v8.727h-1.994v-1.551h-.091a2.63 2.63 0 0 1-.972 1.199c-.447.31-.998.466-1.653.466-.572 0-1.078-.127-1.517-.381a2.648 2.648 0 0 1-1.023-1.119c-.246-.493-.369-1.087-.369-1.784v-5.557h2.057v5.238c0 .553.151.993.454 1.319.303.325.701.488 1.193.488.303 0 .597-.074.881-.221a1.8 1.8 0 0 0 .699-.659c.186-.296.278-.665.278-1.108Zm8.036 3.84c-.875 0-1.631-.181-2.267-.545a3.68 3.68 0 0 1-1.46-1.557c-.341-.674-.512-1.468-.512-2.38 0-.898.171-1.686.512-2.364a3.858 3.858 0 0 1 1.443-1.591c.617-.383 1.343-.574 2.176-.574.538 0 1.045.087 1.523.261.481.171.905.436 1.272.796.372.36.663.818.875 1.375.212.553.319 1.212.319 1.977v.631h-7.154v-1.387h5.182a2.214 2.214 0 0 0-.256-1.051 1.854 1.854 0 0 0-.699-.733 1.963 1.963 0 0 0-1.034-.267c-.42 0-.789.103-1.108.307a2.114 2.114 0 0 0-.744.796 2.29 2.29 0 0 0-.267 1.074v1.21c0 .507.093.943.278 1.307.186.359.445.636.779.829.333.189.723.284 1.17.284.299 0 .57-.041.813-.125.242-.087.452-.214.63-.381.178-.166.313-.373.404-.619l1.92.216a2.991 2.991 0 0 1-.693 1.33 3.388 3.388 0 0 1-1.295.875c-.527.204-1.129.306-1.807.306Z"/>
  <rect width="409" height="38" x="589" y="159" stroke="#F4CE71" stroke-width="2" rx="19"/>
  <rect width="263" height="38" x="589" y="256" fill="#fff" rx="19"/>
  <path fill="#1E4460" d="M606.909 280.5v-11.636h3.932c.913 0 1.659.164 2.239.494.583.326 1.015.767 1.295 1.324s.42 1.178.42 1.863c0 .686-.14 1.309-.42 1.87a3.138 3.138 0 0 1-1.284 1.341c-.58.329-1.322.494-2.227.494h-2.819V275h2.773c.625 0 1.127-.108 1.506-.324a1.93 1.93 0 0 0 .824-.875c.174-.371.261-.79.261-1.256a2.89 2.89 0 0 0-.261-1.25 1.866 1.866 0 0 0-.83-.863c-.382-.212-.89-.318-1.523-.318h-2.477V280.5h-1.409Zm9.975 0v-8.727h1.295v1.318h.091c.159-.432.447-.782.864-1.051a2.54 2.54 0 0 1 1.409-.404c.098 0 .221.002.369.006a5.5 5.5 0 0 1 .335.017v1.364a3.351 3.351 0 0 0-.312-.051 3.026 3.026 0 0 0-.506-.04c-.424 0-.803.089-1.136.267a1.955 1.955 0 0 0-1.069 1.778v5.523h-1.34Zm9.346.182c-.841 0-1.566-.186-2.176-.557a3.736 3.736 0 0 1-1.403-1.568c-.326-.674-.489-1.459-.489-2.352 0-.894.163-1.682.489-2.364.329-.686.787-1.22 1.375-1.602.59-.387 1.28-.58 2.068-.58.454 0 .903.076 1.346.227.444.152.847.398 1.211.739.363.337.653.784.869 1.341.216.557.324 1.242.324 2.057v.568h-6.728v-1.159h5.364c0-.493-.098-.932-.295-1.318a2.226 2.226 0 0 0-.83-.915c-.356-.224-.776-.335-1.261-.335-.534 0-.996.132-1.387.397a2.633 2.633 0 0 0-.892 1.023 3.01 3.01 0 0 0-.312 1.352v.773c0 .659.113 1.218.341 1.676.231.455.551.801.96 1.04.409.235.884.352 1.426.352.352 0 .671-.049.955-.147.288-.103.536-.254.744-.455.208-.205.369-.458.483-.761l1.295.363a2.86 2.86 0 0 1-.687 1.159c-.322.33-.72.587-1.193.773a4.425 4.425 0 0 1-1.597.273Zm11.835-6.955-1.204.341a2.253 2.253 0 0 0-.335-.585 1.63 1.63 0 0 0-.591-.477c-.25-.125-.57-.188-.961-.188-.534 0-.979.123-1.335.37-.352.242-.528.551-.528.926 0 .333.121.596.363.789.243.194.622.355 1.137.483l1.295.319c.781.189 1.362.479 1.745.869.382.386.573.884.573 1.494 0 .5-.144.947-.431 1.341-.284.394-.682.705-1.194.932-.511.227-1.106.341-1.784.341-.89 0-1.627-.193-2.21-.58-.583-.386-.953-.95-1.108-1.693l1.273-.318c.121.47.35.822.687 1.057.341.235.786.352 1.336.352.625 0 1.121-.133 1.488-.398.371-.269.557-.591.557-.966 0-.303-.106-.556-.318-.761-.212-.208-.538-.364-.977-.466l-1.455-.341c-.799-.189-1.386-.483-1.761-.88-.372-.402-.557-.904-.557-1.506 0-.493.138-.928.415-1.307a2.82 2.82 0 0 1 1.142-.892c.485-.216 1.034-.324 1.647-.324.864 0 1.542.189 2.035.568.496.379.848.879 1.056 1.5Zm5.837 6.955c-.841 0-1.566-.186-2.176-.557a3.744 3.744 0 0 1-1.404-1.568c-.325-.674-.488-1.459-.488-2.352 0-.894.163-1.682.488-2.364.33-.686.788-1.22 1.375-1.602.591-.387 1.281-.58 2.069-.58.454 0 .903.076 1.346.227.443.152.847.398 1.21.739.364.337.654.784.87 1.341.216.557.324 1.242.324 2.057v.568h-6.728v-1.159h5.364c0-.493-.098-.932-.295-1.318a2.226 2.226 0 0 0-.83-.915c-.356-.224-.777-.335-1.261-.335-.534 0-.997.132-1.387.397a2.633 2.633 0 0 0-.892 1.023 3.01 3.01 0 0 0-.312 1.352v.773c0 .659.113 1.218.341 1.676.231.455.551.801.96 1.04.409.235.884.352 1.426.352.352 0 .67-.049.955-.147.287-.103.536-.254.744-.455.208-.205.369-.458.483-.761l1.295.363a2.86 2.86 0 0 1-.687 1.159c-.322.33-.72.587-1.193.773a4.425 4.425 0 0 1-1.597.273Zm6.994-5.432v5.25h-1.341v-8.727h1.296v1.363h.113c.205-.443.516-.799.932-1.068.417-.273.955-.409 1.614-.409.591 0 1.108.121 1.551.364.443.238.788.602 1.034 1.091.246.484.369 1.098.369 1.841v5.545h-1.34v-5.455c0-.685-.178-1.219-.535-1.602-.356-.386-.844-.579-1.465-.579-.428 0-.811.092-1.148.278a1.992 1.992 0 0 0-.79.813c-.193.356-.29.787-.29 1.295Zm11.814-3.477v1.136h-4.522v-1.136h4.522Zm-3.204-2.091h1.341V278c0 .379.055.663.164.852a.853.853 0 0 0 .432.375c.178.061.366.091.563.091.147 0 .269-.007.363-.023l.228-.045.272 1.205a2.72 2.72 0 0 1-.38.102c-.163.038-.37.057-.62.057-.378 0-.75-.082-1.113-.245a2.217 2.217 0 0 1-.898-.744c-.235-.333-.352-.754-.352-1.261v-8.682Zm10.585 14.091a2.93 2.93 0 0 1-.608-.057 1.601 1.601 0 0 1-.369-.102l.341-1.182c.325.083.613.113.863.091a1.04 1.04 0 0 0 .665-.335c.197-.197.377-.518.54-.961l.25-.682-3.228-8.772H670l2.409 6.954h.091l2.409-6.954h1.455l-3.705 10c-.167.45-.373.824-.619 1.119a2.321 2.321 0 0 1-.858.665 2.646 2.646 0 0 1-1.091.216Zm11.275-3.091c-.787 0-1.479-.188-2.073-.563-.591-.375-1.053-.899-1.387-1.574-.329-.674-.494-1.462-.494-2.363 0-.909.165-1.703.494-2.381.334-.678.796-1.204 1.387-1.579.594-.375 1.286-.563 2.073-.563.788 0 1.478.188 2.069.563.594.375 1.056.901 1.386 1.579.333.678.5 1.472.5 2.381 0 .901-.167 1.689-.5 2.363a3.772 3.772 0 0 1-1.386 1.574c-.591.375-1.281.563-2.069.563Zm0-1.205c.599 0 1.091-.153 1.478-.46a2.72 2.72 0 0 0 .858-1.21c.185-.5.278-1.042.278-1.625 0-.584-.093-1.127-.278-1.631a2.748 2.748 0 0 0-.858-1.221c-.387-.311-.879-.466-1.478-.466-.598 0-1.09.155-1.477.466-.386.31-.672.717-.858 1.221a4.695 4.695 0 0 0-.278 1.631c0 .583.093 1.125.278 1.625.186.5.472.903.858 1.21.387.307.879.46 1.477.46Zm11.502-2.545v-5.159h1.341v8.727h-1.341v-1.477h-.091c-.205.443-.523.82-.955 1.13-.431.307-.977.461-1.636.461a2.92 2.92 0 0 1-1.454-.358c-.425-.243-.758-.606-1-1.091-.243-.489-.364-1.104-.364-1.847v-5.545h1.341v5.454c0 .637.178 1.144.534 1.523.36.379.818.568 1.375.568.333 0 .672-.085 1.017-.256.348-.17.64-.431.875-.784.239-.352.358-.801.358-1.346Zm3.797 3.568v-8.727h1.295v1.318h.091c.159-.432.447-.782.864-1.051a2.54 2.54 0 0 1 1.409-.404c.098 0 .221.002.369.006s.26.01.335.017v1.364a3.351 3.351 0 0 0-.312-.051 3.026 3.026 0 0 0-.506-.04c-.424 0-.803.089-1.136.267a1.954 1.954 0 0 0-1.068 1.778v5.523h-1.341Zm11.361-2.739-.006-2.483h.329l3.137-3.505h2.403l-3.858 4.295h-.426l-1.579 1.693Zm-1.875 2.739v-11.636h2.056V280.5h-2.056Zm5.477 0-2.841-3.972 1.386-1.448 3.915 5.42h-2.46Zm5.689-5.114v5.114h-2.057v-8.727h1.966v1.483h.102c.201-.489.521-.877.96-1.165.444-.288.991-.432 1.642-.432.603 0 1.127.129 1.574.386.451.258.8.631 1.046 1.12.25.488.373 1.081.369 1.778v5.557h-2.057v-5.239c0-.583-.151-1.039-.454-1.369-.3-.33-.714-.494-1.245-.494-.359 0-.68.079-.96.238a1.663 1.663 0 0 0-.653.676c-.156.296-.233.654-.233 1.074Zm11.5 5.284c-.853 0-1.591-.187-2.216-.562a3.825 3.825 0 0 1-1.455-1.574c-.341-.674-.511-1.462-.511-2.364 0-.901.17-1.691.511-2.369a3.814 3.814 0 0 1 1.455-1.579c.625-.375 1.363-.563 2.216-.563.852 0 1.591.188 2.216.563a3.774 3.774 0 0 1 1.449 1.579c.344.678.517 1.468.517 2.369 0 .902-.173 1.69-.517 2.364a3.785 3.785 0 0 1-1.449 1.574c-.625.375-1.364.562-2.216.562Zm.011-1.647c.462 0 .849-.127 1.159-.381.311-.258.542-.602.693-1.034.156-.432.233-.913.233-1.443 0-.534-.077-1.017-.233-1.449-.151-.436-.382-.782-.693-1.04-.31-.257-.697-.386-1.159-.386-.473 0-.867.129-1.182.386-.31.258-.543.604-.699 1.04a4.37 4.37 0 0 0-.227 1.449c0 .53.076 1.011.227 1.443.156.432.389.776.699 1.034.315.254.709.381 1.182.381Zm7.467 1.477-2.465-8.727h2.096l1.534 6.136h.08l1.568-6.136h2.074l1.568 6.102h.085l1.512-6.102h2.102l-2.472 8.727h-2.142l-1.636-5.898h-.119l-1.637 5.898h-2.148Zm13.647-11.636V280.5h-2.057v-11.636h2.057Zm5.978 11.806c-.875 0-1.63-.181-2.267-.545a3.692 3.692 0 0 1-1.46-1.557c-.341-.674-.511-1.468-.511-2.38 0-.898.17-1.686.511-2.364a3.872 3.872 0 0 1 1.443-1.591c.618-.383 1.343-.574 2.176-.574a4.41 4.41 0 0 1 1.523.261c.481.171.906.436 1.273.796.371.36.663.818.875 1.375.212.553.318 1.212.318 1.977v.631h-7.153v-1.387h5.182a2.214 2.214 0 0 0-.256-1.051c-.167-.31-.4-.555-.699-.733a1.963 1.963 0 0 0-1.034-.267c-.421 0-.79.103-1.108.307a2.114 2.114 0 0 0-.744.796 2.267 2.267 0 0 0-.267 1.074v1.21c0 .507.092.943.278 1.307.186.359.445.636.778.829.334.189.724.284 1.171.284.299 0 .57-.041.812-.125.243-.087.453-.214.631-.381a1.57 1.57 0 0 0 .403-.619l1.921.216a2.991 2.991 0 0 1-.693 1.33 3.385 3.385 0 0 1-1.296.875c-.526.204-1.129.306-1.807.306Zm8.86-.017a3.304 3.304 0 0 1-1.841-.528c-.542-.352-.97-.864-1.284-1.534-.315-.671-.472-1.485-.472-2.443 0-.97.159-1.788.478-2.455.321-.67.755-1.176 1.301-1.517a3.34 3.34 0 0 1 1.824-.517c.511 0 .931.087 1.261.261.329.171.591.377.784.62.193.238.343.464.449.676h.085v-4.352h2.063V280.5h-2.023v-1.375h-.125a3.56 3.56 0 0 1-.46.676 2.519 2.519 0 0 1-.796.602c-.329.167-.744.25-1.244.25Zm.574-1.687c.435 0 .807-.118 1.113-.352.307-.239.54-.57.699-.995.159-.424.239-.918.239-1.483 0-.564-.08-1.055-.239-1.471-.155-.417-.386-.741-.693-.972-.303-.231-.676-.346-1.119-.346-.459 0-.841.119-1.148.358-.307.238-.538.568-.693.988-.156.421-.233.902-.233 1.443 0 .546.077 1.033.233 1.461.159.424.392.759.699 1.005.31.243.691.364 1.142.364Zm10.061 4.989c-.739 0-1.373-.101-1.904-.302-.53-.197-.956-.462-1.278-.795a2.766 2.766 0 0 1-.671-1.108l1.853-.449c.083.171.204.339.363.506.16.17.374.31.642.42.273.114.616.171 1.029.171.583 0 1.066-.142 1.449-.426.382-.281.574-.743.574-1.387v-1.653h-.103c-.106.212-.261.43-.466.653a2.37 2.37 0 0 1-.801.563c-.329.151-.744.227-1.244.227-.67 0-1.278-.157-1.824-.472-.542-.318-.973-.791-1.295-1.42-.319-.633-.478-1.424-.478-2.375 0-.958.159-1.767.478-2.426.322-.663.755-1.165 1.301-1.506a3.34 3.34 0 0 1 1.824-.517c.511 0 .931.087 1.261.261.333.171.598.377.795.62.197.238.347.464.449.676h.114v-1.443h2.028v8.869c0 .746-.178 1.364-.534 1.852-.356.489-.843.854-1.46 1.097-.617.242-1.318.364-2.102.364Zm.017-5.194c.435 0 .807-.106 1.113-.318.307-.212.54-.517.699-.915.159-.397.239-.875.239-1.431 0-.55-.08-1.031-.239-1.444-.155-.412-.386-.733-.693-.96-.303-.231-.676-.346-1.119-.346-.459 0-.841.119-1.148.358-.307.238-.538.566-.693.983a3.984 3.984 0 0 0-.233 1.409c0 .534.078 1.001.233 1.403.159.398.392.708.699.932.31.22.691.329 1.142.329Zm10.051 1.909c-.875 0-1.631-.181-2.267-.545a3.686 3.686 0 0 1-1.46-1.557c-.341-.674-.512-1.468-.512-2.38 0-.898.171-1.686.512-2.364a3.858 3.858 0 0 1 1.443-1.591c.617-.383 1.343-.574 2.176-.574.538 0 1.045.087 1.523.261.481.171.905.436 1.272.796.372.36.663.818.875 1.375.213.553.319 1.212.319 1.977v.631h-7.154v-1.387h5.182a2.214 2.214 0 0 0-.256-1.051 1.858 1.858 0 0 0-.698-.733 1.97 1.97 0 0 0-1.035-.267c-.42 0-.789.103-1.108.307a2.114 2.114 0 0 0-.744.796 2.29 2.29 0 0 0-.267 1.074v1.21c0 .507.093.943.278 1.307.186.359.446.636.779.829.333.189.723.284 1.17.284.3 0 .57-.041.813-.125.242-.087.453-.214.631-.381.178-.166.312-.373.403-.619l1.92.216a2.991 2.991 0 0 1-.693 1.33 3.388 3.388 0 0 1-1.295.875c-.527.204-1.129.306-1.807.306Zm10.371-12.352-3.75 13.932h-1.801l3.75-13.932h1.801Zm8.21 5.762-1.875.204a1.52 1.52 0 0 0-.278-.534 1.384 1.384 0 0 0-.523-.403c-.22-.103-.489-.154-.807-.154-.428 0-.788.093-1.08.279-.287.185-.43.426-.426.721a.752.752 0 0 0 .279.619c.193.16.511.29.954.393l1.489.318c.826.178 1.439.46 1.841.846.405.387.61.892.613 1.517a2.364 2.364 0 0 1-.483 1.455c-.314.417-.751.742-1.312.977s-1.205.352-1.932.352c-1.068 0-1.928-.223-2.579-.67-.652-.451-1.04-1.078-1.165-1.881l2.006-.193c.09.394.284.691.579.892.296.201.68.301 1.153.301.489 0 .881-.1 1.177-.301.299-.201.448-.449.448-.744a.773.773 0 0 0-.289-.619c-.19-.163-.485-.288-.887-.375l-1.488-.313c-.837-.174-1.457-.468-1.858-.881-.402-.416-.601-.943-.597-1.579-.004-.538.142-1.004.438-1.398.299-.398.714-.704 1.244-.92.534-.22 1.15-.33 1.847-.33 1.022 0 1.827.218 2.414.653.591.436.957 1.025 1.097 1.768Zm3.758 3.681-.005-2.483h.329l3.137-3.505h2.403l-3.858 4.295h-.426l-1.58 1.693Zm-1.875 2.739v-11.636h2.057V280.5h-2.057Zm5.478 0-2.841-3.972 1.386-1.448 3.915 5.42h-2.46Zm3.632 0v-8.727h2.057v8.727h-2.057Zm1.034-9.966a1.2 1.2 0 0 1-.841-.324 1.042 1.042 0 0 1-.352-.79c0-.31.117-.573.352-.789.235-.22.515-.33.841-.33.329 0 .61.11.841.33.235.216.352.479.352.789 0 .307-.117.571-.352.79a1.188 1.188 0 0 1-.841.324Zm5.195-1.67V280.5h-2.057v-11.636h2.057Zm4.171 0V280.5h-2.056v-11.636h2.056Zm9.013 5.216-1.875.204a1.52 1.52 0 0 0-.278-.534 1.376 1.376 0 0 0-.523-.403c-.22-.103-.489-.154-.807-.154-.428 0-.788.093-1.079.279-.288.185-.43.426-.426.721a.754.754 0 0 0 .278.619c.193.16.511.29.954.393l1.489.318c.826.178 1.44.46 1.841.846.405.387.61.892.614 1.517a2.377 2.377 0 0 1-.483 1.455c-.315.417-.752.742-1.313.977-.56.235-1.204.352-1.932.352-1.068 0-1.928-.223-2.579-.67-.652-.451-1.04-1.078-1.165-1.881l2.006-.193c.091.394.284.691.579.892.296.201.68.301 1.154.301.488 0 .88-.1 1.176-.301.299-.201.449-.449.449-.744a.774.774 0 0 0-.29-.619c-.189-.163-.485-.288-.886-.375l-1.489-.313c-.837-.174-1.456-.468-1.858-.881-.402-.416-.6-.943-.597-1.579-.003-.538.142-1.004.438-1.398.299-.398.714-.704 1.244-.92.534-.22 1.15-.33 1.847-.33 1.023 0 1.827.218 2.415.653.59.436.956 1.025 1.096 1.768Z"/>
  <rect width="263" height="38" x="589" y="256" stroke="#F4CE71" stroke-width="2" rx="19"/>
  <path fill="#F4CE71" d="M584.707 178.707a.999.999 0 0 0 0-1.414l-6.364-6.364a.999.999 0 1 0-1.414 1.414l5.657 5.657-5.657 5.657a.999.999 0 1 0 1.414 1.414l6.364-6.364ZM534 215v-13.5h-2V215h2Zm22.5-36H584v-2h-27.5v2ZM534 201.5c0-12.426 10.074-22.5 22.5-22.5v-2c-13.531 0-24.5 10.969-24.5 24.5h2ZM523 226c6.075 0 11-4.925 11-11h-2a9 9 0 0 1-9 9v2Z"/>
  <path fill="#F4CE71" d="M584.707 275.707a.999.999 0 0 0 0-1.414l-6.364-6.364a.999.999 0 1 0-1.414 1.414l5.657 5.657-5.657 5.657a.999.999 0 1 0 1.414 1.414l6.364-6.364ZM532 235v16h2v-16h-2Zm25 41h27v-2h-27v2Zm-25-25c0 13.807 11.193 25 25 25v-2c-12.703 0-23-10.297-23-23h-2Zm-9-25a9 9 0 0 1 9 9h2c0-6.075-4.925-11-11-11v2Z"/>
  <path fill="#1E4460" d="m606.886 14.364 3.455 9.795h.136l3.455-9.795h1.477L611.136 26h-1.454l-4.273-11.636h1.477Zm13 11.818c-.841 0-1.566-.186-2.176-.557a3.733 3.733 0 0 1-1.403-1.568c-.326-.674-.489-1.458-.489-2.352 0-.894.163-1.682.489-2.364.329-.686.788-1.22 1.375-1.602.591-.387 1.28-.58 2.068-.58.455 0 .903.076 1.347.227a3.34 3.34 0 0 1 1.21.739c.363.337.653.784.869 1.34.216.558.324 1.243.324 2.058v.568h-6.727v-1.16h5.363c0-.492-.098-.931-.295-1.317a2.225 2.225 0 0 0-.83-.915c-.356-.224-.776-.335-1.261-.335-.534 0-.996.132-1.386.397a2.608 2.608 0 0 0-.892 1.023c-.209.42-.313.871-.313 1.352v.773c0 .66.114 1.218.341 1.676.231.455.551.801.96 1.04.409.235.885.352 1.426.352a2.9 2.9 0 0 0 .955-.148 2.03 2.03 0 0 0 .744-.454c.209-.204.37-.458.483-.761l1.296.363a2.88 2.88 0 0 1-.688 1.16c-.322.329-.72.587-1.193.772a4.43 4.43 0 0 1-1.597.273ZM625.54 26v-8.727h1.295v1.318h.091c.159-.432.447-.782.864-1.051a2.54 2.54 0 0 1 1.409-.404c.098 0 .221.002.369.006s.26.01.335.017v1.364a3.926 3.926 0 0 0-.312-.051 3.08 3.08 0 0 0-.506-.04c-.424 0-.803.089-1.136.267a1.955 1.955 0 0 0-1.068 1.778V26h-1.341Zm5.953 0v-8.727h1.341V26h-1.341Zm.682-10.182a.951.951 0 0 1-.676-.267.857.857 0 0 1-.279-.642c0-.25.093-.464.279-.642a.951.951 0 0 1 .676-.267c.261 0 .485.089.67.267.19.178.284.392.284.642s-.094.464-.284.642a.932.932 0 0 1-.67.267Zm7.001 1.455v1.136h-4.704v-1.136h4.704ZM635.881 26v-9.932c0-.5.117-.917.352-1.25a2.19 2.19 0 0 1 .915-.75 2.89 2.89 0 0 1 1.187-.25c.33 0 .599.027.807.08.208.053.364.102.466.148l-.386 1.159a7.154 7.154 0 0 0-.284-.086 1.727 1.727 0 0 0-.466-.05c-.444 0-.764.11-.961.334-.193.224-.289.551-.289.983V26h-1.341Zm6.038 3.273a3 3 0 0 1-.608-.057 1.597 1.597 0 0 1-.369-.102l.341-1.182c.325.083.613.114.863.09.25-.022.472-.134.665-.334.197-.197.377-.517.54-.96l.25-.683-3.227-8.772h1.454l2.409 6.954h.091l2.409-6.954h1.455l-3.705 10a3.77 3.77 0 0 1-.619 1.119c-.246.3-.532.52-.858.665a2.646 2.646 0 0 1-1.091.216Zm13.406 0a3 3 0 0 1-.608-.057 1.597 1.597 0 0 1-.369-.102l.341-1.182c.326.083.614.114.864.09.25-.022.471-.134.664-.334.197-.197.377-.517.54-.96l.25-.683-3.227-8.772h1.454l2.409 6.954h.091l2.409-6.954h1.455l-3.705 10a3.77 3.77 0 0 1-.619 1.119c-.246.3-.532.52-.858.665a2.643 2.643 0 0 1-1.091.216Zm11.276-3.091c-.788 0-1.479-.188-2.074-.563-.591-.375-1.053-.9-1.386-1.573-.33-.675-.495-1.463-.495-2.364 0-.91.165-1.703.495-2.38.333-.679.795-1.205 1.386-1.58.595-.375 1.286-.563 2.074-.563.788 0 1.477.188 2.068.563.595.375 1.057.901 1.386 1.58.334.677.5 1.47.5 2.38 0 .901-.166 1.69-.5 2.364a3.763 3.763 0 0 1-1.386 1.573c-.591.375-1.28.563-2.068.563Zm0-1.205c.598 0 1.091-.153 1.477-.46a2.72 2.72 0 0 0 .858-1.21c.186-.5.278-1.042.278-1.625s-.092-1.127-.278-1.63a2.755 2.755 0 0 0-.858-1.223c-.386-.31-.879-.465-1.477-.465-.599 0-1.091.155-1.477.465a2.74 2.74 0 0 0-.858 1.222 4.672 4.672 0 0 0-.279 1.63c0 .584.093 1.126.279 1.626.185.5.471.903.858 1.21.386.307.878.46 1.477.46Zm11.501-2.545v-5.16h1.341V26h-1.341v-1.477h-.091c-.204.443-.522.82-.954 1.13-.432.307-.977.46-1.637.46-.545 0-1.03-.119-1.454-.357-.424-.243-.758-.606-1-1.091-.243-.489-.364-1.104-.364-1.847v-5.545h1.341v5.454c0 .637.178 1.144.534 1.523.36.379.818.568 1.375.568.334 0 .673-.085 1.017-.256.349-.17.64-.431.875-.784.239-.352.358-.8.358-1.346ZM681.899 26v-8.727h1.296v1.318h.091c.159-.432.446-.782.863-1.051a2.544 2.544 0 0 1 1.409-.404c.099 0 .222.002.37.006.147.004.259.01.335.017v1.364a4.073 4.073 0 0 0-.313-.051 3.068 3.068 0 0 0-.505-.04c-.425 0-.803.089-1.137.267a2.016 2.016 0 0 0-.784.727 1.964 1.964 0 0 0-.284 1.051V26h-1.341Zm16.107 3.273v-4.648h-.086a3.498 3.498 0 0 1-.46.676 2.538 2.538 0 0 1-.795.602c-.33.167-.745.25-1.245.25a3.299 3.299 0 0 1-1.84-.528c-.542-.352-.97-.864-1.285-1.534-.314-.67-.471-1.485-.471-2.443 0-.97.159-1.788.477-2.455.322-.67.756-1.176 1.301-1.517a3.347 3.347 0 0 1 1.824-.517c.512 0 .932.087 1.262.262.329.17.59.376.784.619.193.238.342.464.448.676h.125v-1.443h2.023v12h-2.062Zm-2.012-4.807c.436 0 .807-.117 1.114-.352.307-.239.54-.57.699-.995.159-.424.238-.918.238-1.483 0-.564-.079-1.055-.238-1.471-.155-.417-.387-.74-.693-.972-.303-.23-.676-.346-1.12-.346-.458 0-.841.119-1.147.357-.307.24-.538.569-.694.99-.155.42-.233.9-.233 1.442 0 .546.078 1.033.233 1.46.16.425.392.76.699 1.006.311.243.692.364 1.142.364Zm11.75-2.137v-5.056h2.057V26h-1.994v-1.551h-.091a2.624 2.624 0 0 1-.972 1.199c-.447.31-.998.466-1.653.466-.572 0-1.078-.127-1.517-.381a2.643 2.643 0 0 1-1.023-1.12c-.246-.492-.369-1.087-.369-1.784v-5.556h2.057v5.238c0 .553.151.993.454 1.319.303.325.701.488 1.193.488.303 0 .597-.074.881-.221.284-.148.517-.368.699-.66.186-.295.278-.664.278-1.108Zm6.684 3.847a3.643 3.643 0 0 1-1.495-.295 2.436 2.436 0 0 1-1.045-.887c-.254-.39-.381-.87-.381-1.443 0-.492.091-.9.273-1.221.182-.322.43-.58.744-.773a3.764 3.764 0 0 1 1.063-.438 8.607 8.607 0 0 1 1.233-.221c.511-.053.926-.1 1.244-.142.318-.046.549-.114.693-.205.148-.095.222-.24.222-.437v-.035c0-.428-.127-.759-.381-.994s-.619-.352-1.097-.352c-.503 0-.903.11-1.198.33-.292.22-.489.479-.591.778l-1.921-.273c.152-.53.402-.973.75-1.33.349-.36.775-.628 1.279-.806a4.884 4.884 0 0 1 1.67-.273c.421 0 .839.05 1.256.148.416.098.797.261 1.142.489.344.223.621.528.829.914.212.387.319.87.319 1.45V26h-1.978v-1.199h-.068c-.125.243-.301.47-.528.682a2.548 2.548 0 0 1-.847.506 3.411 3.411 0 0 1-1.187.187Zm.534-1.511c.413 0 .77-.082 1.074-.244.303-.167.535-.387.698-.66.167-.272.25-.57.25-.892v-1.028a.962.962 0 0 1-.329.148 4.662 4.662 0 0 1-.512.119c-.189.034-.376.064-.562.09l-.483.069a3.6 3.6 0 0 0-.824.205 1.371 1.371 0 0 0-.574.397c-.14.167-.21.383-.21.648 0 .379.138.665.415.858.276.193.629.29 1.057.29Zm8.199-10.301V26h-2.057V14.364h2.057ZM725.276 26v-8.727h2.056V26h-2.056Zm1.034-9.966a1.2 1.2 0 0 1-.841-.324 1.044 1.044 0 0 1-.353-.79c0-.31.118-.573.353-.79.235-.219.515-.329.841-.329.329 0 .61.11.841.33.234.216.352.479.352.79 0 .306-.118.57-.352.79a1.188 1.188 0 0 1-.841.323Zm7.558 1.239v1.59h-5.159v-1.59h5.159ZM729.999 26v-9.551c0-.587.121-1.076.363-1.466a2.3 2.3 0 0 1 .989-.875c.413-.193.871-.29 1.375-.29.356 0 .672.029.949.085.276.057.481.108.613.154l-.409 1.59a3.581 3.581 0 0 0-.329-.079 2 2 0 0 0-.443-.045c-.383 0-.654.093-.813.278-.155.182-.233.443-.233.784V26h-2.062Zm5.48 0v-8.727h2.057V26h-2.057Zm1.034-9.966a1.2 1.2 0 0 1-.841-.324 1.043 1.043 0 0 1-.352-.79c0-.31.117-.573.352-.79.235-.219.515-.329.841-.329.329 0 .61.11.841.33.235.216.352.479.352.79 0 .306-.117.57-.352.79a1.188 1.188 0 0 1-.841.323Zm6.944 10.137c-.871 0-1.619-.192-2.244-.574a3.832 3.832 0 0 1-1.437-1.586c-.334-.678-.5-1.458-.5-2.34 0-.887.17-1.67.511-2.347a3.817 3.817 0 0 1 1.443-1.591c.625-.383 1.364-.574 2.216-.574.708 0 1.335.13 1.881.392.549.258.986.623 1.312 1.097.326.47.512 1.019.557 1.648h-1.966a1.877 1.877 0 0 0-.568-1.052c-.296-.284-.691-.426-1.188-.426-.42 0-.789.114-1.108.341-.318.224-.566.546-.744.966-.174.42-.261.924-.261 1.511 0 .595.087 1.106.261 1.535.174.424.419.751.733.982a1.87 1.87 0 0 0 1.119.341c.303 0 .574-.056.813-.17.242-.118.445-.286.608-.506.163-.22.275-.487.335-.801h1.966a3.429 3.429 0 0 1-.545 1.642 3.234 3.234 0 0 1-1.285 1.114c-.541.265-1.178.398-1.909.398Zm7.939.005a3.639 3.639 0 0 1-1.494-.295 2.436 2.436 0 0 1-1.045-.887c-.254-.39-.381-.87-.381-1.443 0-.492.091-.9.273-1.221.181-.322.43-.58.744-.773a3.746 3.746 0 0 1 1.062-.438 8.657 8.657 0 0 1 1.233-.221c.512-.053.926-.1 1.245-.142.318-.046.549-.114.693-.205.148-.095.221-.24.221-.437v-.035c0-.428-.126-.759-.38-.994s-.62-.352-1.097-.352c-.504 0-.903.11-1.199.33-.291.22-.488.479-.591.778l-1.92-.273c.151-.53.401-.973.75-1.33a3.26 3.26 0 0 1 1.278-.806 4.894 4.894 0 0 1 1.671-.273c.42 0 .839.05 1.255.148.417.098.798.261 1.143.489.344.223.621.528.829.914.212.387.318.87.318 1.45V26h-1.977v-1.199h-.068a2.5 2.5 0 0 1-.529.682 2.533 2.533 0 0 1-.846.506c-.337.125-.733.187-1.188.187Zm.534-1.511c.413 0 .771-.082 1.074-.244a1.81 1.81 0 0 0 .699-.66c.167-.272.25-.57.25-.892v-1.028a.962.962 0 0 1-.329.148 4.662 4.662 0 0 1-.512.119 14.86 14.86 0 0 1-.562.09l-.483.069c-.307.042-.582.11-.824.205a1.365 1.365 0 0 0-.574.397c-.14.167-.21.383-.21.648 0 .379.138.665.415.858.276.193.628.29 1.056.29Zm10.5-7.392v1.59h-5.017v-1.59h5.017Zm-3.778-2.091h2.057v8.193c0 .276.041.489.125.636a.675.675 0 0 0 .341.296c.14.053.295.08.466.08.128 0 .246-.01.352-.029.11-.019.193-.036.25-.051l.346 1.608c-.109.038-.267.08-.471.125a3.871 3.871 0 0 1-.739.08 3.355 3.355 0 0 1-1.392-.234 2.168 2.168 0 0 1-.983-.806c-.238-.364-.356-.819-.352-1.364v-8.534ZM764.151 26v-8.727h2.056V26h-2.056Zm1.034-9.966a1.2 1.2 0 0 1-.841-.324 1.044 1.044 0 0 1-.353-.79c0-.31.118-.573.353-.79.235-.219.515-.329.841-.329.329 0 .61.11.841.33.234.216.352.479.352.79 0 .306-.118.57-.352.79a1.188 1.188 0 0 1-.841.323Zm6.944 10.137c-.852 0-1.591-.188-2.216-.563a3.82 3.82 0 0 1-1.454-1.574c-.341-.674-.512-1.462-.512-2.363 0-.902.171-1.692.512-2.37a3.813 3.813 0 0 1 1.454-1.58c.625-.374 1.364-.562 2.216-.562.853 0 1.591.188 2.216.563a3.775 3.775 0 0 1 1.449 1.58c.345.677.517 1.467.517 2.369 0 .901-.172 1.689-.517 2.363a3.783 3.783 0 0 1-1.449 1.574c-.625.375-1.363.563-2.216.563Zm.012-1.648c.462 0 .848-.127 1.159-.381.31-.258.541-.602.693-1.034.155-.432.233-.913.233-1.443 0-.534-.078-1.017-.233-1.45-.152-.435-.383-.781-.693-1.039-.311-.257-.697-.386-1.159-.386-.474 0-.868.129-1.182.386-.311.258-.544.604-.699 1.04a4.343 4.343 0 0 0-.227 1.449c0 .53.075 1.011.227 1.443.155.432.388.776.699 1.034.314.254.708.38 1.182.38Zm7.973-3.637V26h-2.057v-8.727h1.966v1.483h.102c.201-.489.521-.877.96-1.165.443-.288.991-.432 1.642-.432.603 0 1.127.129 1.574.387a2.6 2.6 0 0 1 1.046 1.119c.25.488.373 1.081.369 1.778V26h-2.057v-5.239c0-.583-.151-1.04-.454-1.369-.3-.33-.714-.494-1.245-.494-.36 0-.68.08-.96.238a1.65 1.65 0 0 0-.653.677c-.156.295-.233.653-.233 1.073Zm14.591-1.306-1.875.204a1.501 1.501 0 0 0-.279-.534 1.383 1.383 0 0 0-.523-.403c-.219-.103-.488-.154-.806-.154-.428 0-.788.093-1.08.279-.288.185-.43.426-.426.721a.755.755 0 0 0 .278.62c.194.159.512.29.955.392l1.489.318c.825.178 1.439.46 1.84.846.406.387.61.892.614 1.517a2.376 2.376 0 0 1-.483 1.455c-.314.417-.752.742-1.312.977-.561.235-1.205.352-1.932.352-1.068 0-1.928-.223-2.58-.67-.651-.45-1.04-1.078-1.165-1.88l2.006-.194c.091.394.284.691.58.892.295.2.68.301 1.153.301.489 0 .881-.1 1.176-.3.299-.202.449-.45.449-.745a.773.773 0 0 0-.29-.62c-.189-.162-.485-.287-.886-.375l-1.489-.312c-.837-.174-1.456-.468-1.858-.88-.401-.417-.6-.944-.596-1.58-.004-.538.142-1.004.437-1.398.3-.398.714-.704 1.245-.92.534-.22 1.149-.33 1.846-.33 1.023 0 1.828.218 2.415.654.591.435.956 1.024 1.097 1.767Z"/>
</svg>
