<svg xmlns="http://www.w3.org/2000/svg" width="353" height="65" fill="none" viewBox="0 0 353 65">
  <path fill="#D9EAEF" d="M0 0h314.174L353 32.5 314.174 65H0V0Z"/>
  <path fill="#000" d="M72.148 38V26.364h4.454c.841 0 1.54.132 2.097.397.56.262.979.62 1.255 1.074.28.455.421.97.421 1.546 0 .473-.09.878-.273 1.216a2.294 2.294 0 0 1-.733.812c-.306.208-.65.358-1.028.449v.114c.413.022.809.15 1.187.38.383.228.695.55.938.966.242.417.364.92.364 1.512a3.07 3.07 0 0 1-.438 1.625c-.292.477-.731.854-1.318 1.13-.587.277-1.326.415-2.216.415h-4.71Zm2.108-1.761h2.267c.765 0 1.316-.146 1.653-.438.341-.295.511-.674.511-1.136a1.74 1.74 0 0 0-.983-1.591c-.314-.163-.689-.244-1.124-.244h-2.324v3.409Zm0-4.926h2.085c.364 0 .691-.067.983-.2.291-.136.52-.327.687-.573.17-.25.256-.546.256-.887 0-.45-.159-.822-.477-1.113-.315-.292-.782-.438-1.404-.438h-2.13v3.21Zm12.18 6.857c-.875 0-1.63-.181-2.267-.545a3.695 3.695 0 0 1-1.46-1.557c-.341-.674-.512-1.468-.512-2.38 0-.898.17-1.686.512-2.364a3.866 3.866 0 0 1 1.443-1.591c.617-.383 1.343-.574 2.176-.574.538 0 1.046.087 1.523.262.48.17.905.435 1.273.795.37.36.663.818.875 1.375.212.553.318 1.212.318 1.977v.63h-7.154v-1.386h5.182a2.212 2.212 0 0 0-.255-1.05 1.859 1.859 0 0 0-.7-.734 1.965 1.965 0 0 0-1.034-.267c-.42 0-.79.103-1.107.307-.319.2-.567.466-.745.796a2.289 2.289 0 0 0-.267 1.073v1.21c0 .508.093.944.279 1.308.185.36.445.636.778.83.333.189.724.283 1.17.283.3 0 .57-.041.813-.125.242-.087.453-.214.63-.38.179-.167.313-.374.404-.62l1.92.216c-.12.508-.352.95-.693 1.33a3.38 3.38 0 0 1-1.295.875c-.527.204-1.129.306-1.807.306Zm10.041-8.897v1.59h-5.159v-1.59h5.16ZM92.608 38v-9.551c0-.587.121-1.076.364-1.466a2.3 2.3 0 0 1 .988-.875c.413-.193.871-.29 1.375-.29.356 0 .673.029.95.085.276.057.48.108.613.154l-.41 1.59a3.556 3.556 0 0 0-.329-.079 1.993 1.993 0 0 0-.443-.045c-.383 0-.653.093-.813.278-.155.182-.233.443-.233.784V38h-2.062Zm8.959.17c-.853 0-1.591-.187-2.216-.562a3.82 3.82 0 0 1-1.455-1.574c-.34-.674-.511-1.462-.511-2.364 0-.901.17-1.69.511-2.369a3.812 3.812 0 0 1 1.455-1.58c.625-.374 1.363-.562 2.216-.562.852 0 1.591.188 2.216.563a3.775 3.775 0 0 1 1.449 1.58c.344.677.517 1.467.517 2.368 0 .902-.173 1.69-.517 2.364a3.783 3.783 0 0 1-1.449 1.574c-.625.375-1.364.563-2.216.563Zm.011-1.647c.462 0 .849-.127 1.159-.381.311-.258.542-.602.693-1.034.156-.432.233-.913.233-1.443 0-.534-.077-1.017-.233-1.45-.151-.435-.382-.781-.693-1.039-.31-.257-.697-.386-1.159-.386-.473 0-.867.129-1.182.386-.31.258-.543.604-.699 1.04a4.356 4.356 0 0 0-.227 1.449c0 .53.076 1.011.227 1.443.156.432.389.777.699 1.034.315.254.709.38 1.182.38ZM107.494 38v-8.727h1.995v1.454h.091c.159-.503.431-.892.818-1.165.39-.276.835-.414 1.335-.414.114 0 .24.005.381.017.144.007.263.02.358.04v1.892a2.193 2.193 0 0 0-.415-.08 3.828 3.828 0 0 0-.54-.04c-.375 0-.712.082-1.011.245a1.78 1.78 0 0 0-.699.664 1.868 1.868 0 0 0-.256.983V38h-2.057Zm9.848.17c-.875 0-1.63-.181-2.267-.545a3.698 3.698 0 0 1-1.46-1.557c-.341-.674-.511-1.468-.511-2.38 0-.898.17-1.686.511-2.364a3.87 3.87 0 0 1 1.443-1.591c.618-.383 1.343-.574 2.176-.574.538 0 1.046.087 1.523.262.481.17.905.435 1.273.795.371.36.663.818.875 1.375.212.553.318 1.212.318 1.977v.63h-7.153v-1.386h5.181a2.21 2.21 0 0 0-.255-1.05 1.863 1.863 0 0 0-.699-.734 1.966 1.966 0 0 0-1.034-.267c-.421 0-.79.103-1.108.307-.318.2-.566.466-.744.796a2.283 2.283 0 0 0-.268 1.073v1.21c0 .508.093.944.279 1.308.185.36.445.636.778.83.334.189.724.283 1.171.283.299 0 .57-.041.812-.125.243-.087.453-.214.631-.38.178-.167.312-.374.403-.62l1.921.216a2.99 2.99 0 0 1-.693 1.33 3.384 3.384 0 0 1-1.296.875c-.526.204-1.129.306-1.807.306Zm13.948-8.897v1.59h-5.017v-1.59h5.017Zm-3.779-2.091h2.057v8.193c0 .276.042.489.125.636a.675.675 0 0 0 .341.296c.14.053.296.08.466.08.129 0 .246-.01.352-.029.11-.019.193-.036.25-.051l.347 1.608c-.11.038-.267.08-.472.125a3.86 3.86 0 0 1-.738.08 3.349 3.349 0 0 1-1.392-.234 2.163 2.163 0 0 1-.983-.806c-.239-.364-.356-.819-.353-1.364v-8.534Zm7.743 5.704V38h-2.057V26.364h2.012v4.392h.102c.205-.493.521-.881.949-1.165.432-.288.981-.432 1.648-.432.606 0 1.134.127 1.585.38.451.255.799.626 1.045 1.114.25.489.375 1.086.375 1.79V38h-2.056v-5.239c0-.587-.152-1.043-.455-1.369-.299-.33-.72-.494-1.261-.494a2 2 0 0 0-.978.238 1.67 1.67 0 0 0-.67.677c-.159.295-.239.653-.239 1.073Zm11.62 5.284c-.875 0-1.631-.181-2.267-.545a3.694 3.694 0 0 1-1.461-1.557c-.341-.674-.511-1.468-.511-2.38 0-.898.17-1.686.511-2.364a3.87 3.87 0 0 1 1.443-1.591c.618-.383 1.343-.574 2.177-.574.538 0 1.045.087 1.522.262.481.17.906.435 1.273.795.371.36.663.818.875 1.375.212.553.318 1.212.318 1.977v.63h-7.153v-1.386h5.182a2.211 2.211 0 0 0-.256-1.05 1.863 1.863 0 0 0-.699-.734 1.963 1.963 0 0 0-1.034-.267c-.42 0-.79.103-1.108.307-.318.2-.566.466-.744.796a2.295 2.295 0 0 0-.267 1.073v1.21c0 .508.093.944.278 1.308.186.36.445.636.779.83.333.189.723.283 1.17.283.299 0 .57-.041.812-.125.243-.087.453-.214.631-.38.178-.167.313-.374.404-.62l1.92.216a2.99 2.99 0 0 1-.693 1.33 3.377 3.377 0 0 1-1.296.875c-.526.204-1.128.306-1.806.306Zm11.788-11.806V38h-2.108V26.364h2.108Zm4.249 6.522V38h-2.057v-8.727h1.966v1.483h.102c.201-.489.521-.877.96-1.165.443-.288.991-.432 1.642-.432.602 0 1.127.129 1.574.387.451.257.799.63 1.045 1.119.25.488.374 1.081.37 1.778V38h-2.057v-5.239c0-.583-.152-1.04-.455-1.369-.299-.33-.714-.494-1.244-.494-.36 0-.68.08-.96.238a1.662 1.662 0 0 0-.654.677c-.155.295-.232.653-.232 1.073Zm12.051-3.613v1.59h-5.017v-1.59h5.017Zm-3.779-2.091h2.057v8.193c0 .276.042.489.125.636a.675.675 0 0 0 .341.296c.14.053.295.08.466.08.129 0 .246-.01.352-.029.11-.019.193-.036.25-.051l.347 1.608c-.11.038-.267.08-.472.125a3.87 3.87 0 0 1-.738.08 3.357 3.357 0 0 1-1.393-.234 2.165 2.165 0 0 1-.982-.806c-.239-.364-.357-.819-.353-1.364v-8.534Zm9.269 10.988c-.875 0-1.631-.181-2.267-.545a3.694 3.694 0 0 1-1.461-1.557c-.34-.674-.511-1.468-.511-2.38 0-.898.171-1.686.511-2.364a3.866 3.866 0 0 1 1.444-1.591c.617-.383 1.342-.574 2.176-.574.538 0 1.045.087 1.522.262.482.17.906.435 1.273.795.371.36.663.818.875 1.375.212.553.318 1.212.318 1.977v.63h-7.153v-1.386h5.182a2.211 2.211 0 0 0-.256-1.05 1.863 1.863 0 0 0-.699-.734 1.963 1.963 0 0 0-1.034-.267c-.42 0-.79.103-1.108.307-.318.2-.566.466-.744.796a2.295 2.295 0 0 0-.267 1.073v1.21c0 .508.093.944.278 1.308.186.36.445.636.779.83.333.189.723.283 1.17.283.299 0 .57-.041.813-.125a1.81 1.81 0 0 0 .63-.38c.178-.167.313-.374.404-.62l1.92.216a2.99 2.99 0 0 1-.693 1.33 3.38 3.38 0 0 1-1.295.875c-.527.204-1.129.306-1.807.306Zm5.62-.17v-8.727h1.995v1.454h.091c.159-.503.431-.892.818-1.165.39-.276.835-.414 1.335-.414.114 0 .241.005.381.017.144.007.263.02.358.04v1.892a2.176 2.176 0 0 0-.415-.08 3.828 3.828 0 0 0-.54-.04c-.375 0-.712.082-1.011.245a1.78 1.78 0 0 0-.699.664 1.868 1.868 0 0 0-.256.983V38h-2.057Zm14.405-8.727L197.369 38h-2.272l-3.108-8.727h2.193l2.006 6.483h.09l2.012-6.483h2.187ZM201.901 38v-8.727h2.056V38h-2.056Zm1.034-9.966a1.2 1.2 0 0 1-.841-.324 1.044 1.044 0 0 1-.353-.79c0-.31.118-.573.353-.79.235-.219.515-.329.841-.329.329 0 .61.11.841.33.234.216.352.479.352.79 0 .306-.118.57-.352.79a1.188 1.188 0 0 1-.841.323Zm7.001 10.136c-.875 0-1.631-.181-2.267-.545a3.692 3.692 0 0 1-1.46-1.557c-.341-.674-.512-1.468-.512-2.38 0-.898.171-1.686.512-2.364a3.87 3.87 0 0 1 1.443-1.591c.617-.383 1.343-.574 2.176-.574.538 0 1.046.087 1.523.262.481.17.905.435 1.273.795.371.36.662.818.875 1.375.212.553.318 1.212.318 1.977v.63h-7.154v-1.386h5.182a2.211 2.211 0 0 0-.256-1.05 1.854 1.854 0 0 0-.698-.734 1.968 1.968 0 0 0-1.034-.267c-.421 0-.79.103-1.108.307-.319.2-.567.466-.745.796a2.295 2.295 0 0 0-.267 1.073v1.21c0 .508.093.944.279 1.308.185.36.445.636.778.83.333.189.724.283 1.17.283.3 0 .571-.041.813-.125.242-.087.453-.214.631-.38.178-.167.312-.374.403-.62l1.921.216c-.122.508-.353.95-.694 1.33a3.38 3.38 0 0 1-1.295.875c-.527.204-1.129.306-1.807.306Zm7.375-.17-2.466-8.727h2.097l1.534 6.136h.079l1.569-6.136h2.073l1.569 6.102h.085l1.511-6.102h2.102L224.993 38h-2.142l-1.637-5.898h-.119L219.459 38h-2.148Z"/>
</svg>
