<svg xmlns="http://www.w3.org/2000/svg" width="45" height="45" fill="none" viewBox="0 0 45 45">
  <path fill="#1E4460" d="M15.27 11.826c.813-.435 1.689-.574 2.542-.574a4.913 4.913 0 0 1 3.06 1.082c.97.795 1.628 2.014 1.628 3.604 0 1.828-1.292 2.82-2.02 3.378l-.16.124c-.794.624-1.102.958-1.102 1.654a1.406 1.406 0 0 1-2.812 0c0-2.127 1.333-3.203 2.179-3.867.962-.755 1.102-.924 1.102-1.29 0-.744-.28-1.166-.6-1.426a2.09 2.09 0 0 0-1.275-.448c-.553 0-.934.091-1.219.243-.268.143-.55.394-.825.9a1.408 1.408 0 0 1-2.475-1.34c.495-.912 1.148-1.6 1.977-2.042v.002Zm2.542 16.299a1.875 1.875 0 1 0 0-3.75 1.875 1.875 0 0 0 0 3.75Zm0-22.5A14.062 14.062 0 0 0 5.068 25.637l-1.36 5.329a2.344 2.344 0 0 0 2.82 2.857c1.407-.337 3.569-.857 5.494-1.316a14.063 14.063 0 1 0 5.79-26.882ZM6.562 19.688a11.25 11.25 0 1 1 6.244 10.078l-.456-.227-.497.118-5.227 1.25C7 29.445 7.492 27.51 7.92 25.83l.13-.517-.243-.475a11.195 11.195 0 0 1-1.245-5.15Zm20.625 19.687a14.018 14.018 0 0 1-9.562-3.75h.187c1.346 0 2.653-.167 3.902-.482 1.62.904 3.488 1.42 5.475 1.42 1.8 0 3.499-.422 5.004-1.172l.456-.227.497.118c1.727.412 3.684.834 5.137 1.144-.387-1.66-.788-3.318-1.203-4.971l-.132-.517.244-.475a11.194 11.194 0 0 0 1.245-5.15 11.24 11.24 0 0 0-5.15-9.454 15.83 15.83 0 0 0-1.5-3.838 14.069 14.069 0 0 1 8.145 19.243c.474 1.89.956 3.937 1.26 5.255a2.333 2.333 0 0 1-2.753 2.813 250.447 250.447 0 0 1-5.462-1.2 14.017 14.017 0 0 1-5.79 1.243Z"/>
</svg>
