<svg xmlns="http://www.w3.org/2000/svg" width="45" height="45" fill="none" viewBox="0 0 45 45">
  <g clip-path="url(#a)">
    <path fill="#1E4460" d="M22.5 42.188a19.688 19.688 0 1 1 0-39.376 19.688 19.688 0 0 1 0 39.376Zm0 2.812a22.5 22.5 0 1 0 0-45 22.5 22.5 0 0 0 0 45Z"/>
    <path fill="#1E4460" d="M12.052 26.907a1.406 1.406 0 0 1 1.92.515 9.837 9.837 0 0 0 8.528 4.922 9.838 9.838 0 0 0 8.528-4.922 1.407 1.407 0 1 1 2.435 1.406A12.65 12.65 0 0 1 22.5 35.156a12.65 12.65 0 0 1-10.963-6.328 1.407 1.407 0 0 1 .515-1.92Zm7.636-8.626c0 2.329-1.26 4.219-2.813 4.219-1.552 0-2.812-1.89-2.812-4.219 0-2.328 1.26-4.218 2.812-4.218 1.553 0 2.813 1.89 2.813 4.218Zm11.25 0c0 2.329-1.26 4.219-2.813 4.219-1.552 0-2.812-1.89-2.812-4.219 0-2.328 1.26-4.218 2.812-4.218 1.553 0 2.813 1.89 2.813 4.218Z"/>
  </g>
  <defs>
    <clipPath id="a">
      <path fill="#fff" d="M0 0h45v45H0z"/>
    </clipPath>
  </defs>
</svg>
