<svg xmlns="http://www.w3.org/2000/svg" width="587" height="77" fill="none" viewBox="0 0 587 77">
  <path fill="#1E4460" d="M31.148 30V18.364h4.363c.894 0 1.644.155 2.25.465a3.19 3.19 0 0 1 1.381 1.307c.314.557.472 1.207.472 1.95 0 .745-.16 1.393-.478 1.942-.314.546-.778.968-1.392 1.268-.613.295-1.367.443-2.261.443h-3.108v-1.75h2.824c.523 0 .95-.072 1.284-.216.333-.148.58-.362.739-.642.163-.284.244-.633.244-1.046 0-.413-.081-.765-.244-1.057a1.554 1.554 0 0 0-.745-.67c-.333-.155-.763-.233-1.29-.233h-1.931V30h-2.108Zm6.011-5.273L40.04 30h-2.352l-2.829-5.273h2.301Zm8.043 5.444c-.875 0-1.631-.182-2.267-.546a3.694 3.694 0 0 1-1.46-1.557c-.342-.674-.512-1.468-.512-2.38 0-.898.17-1.686.511-2.364a3.866 3.866 0 0 1 1.444-1.591c.617-.383 1.342-.574 2.176-.574.538 0 1.045.087 1.523.262.48.17.905.435 1.272.795.371.36.663.818.875 1.375.212.553.318 1.212.318 1.977v.63H41.93v-1.386h5.182a2.212 2.212 0 0 0-.256-1.05 1.863 1.863 0 0 0-.699-.734 1.965 1.965 0 0 0-1.034-.267c-.42 0-.79.103-1.108.307-.318.2-.566.466-.744.796a2.289 2.289 0 0 0-.267 1.073v1.21c0 .508.093.944.278 1.308.186.36.445.636.779.83.333.189.723.283 1.17.283.3 0 .57-.042.813-.125a1.81 1.81 0 0 0 .63-.38c.178-.167.313-.374.404-.62l1.92.216c-.121.508-.352.95-.693 1.33a3.38 3.38 0 0 1-1.296.875c-.526.204-1.128.306-1.806.306Zm5.62-.171v-8.727h1.966v1.483h.103c.181-.5.483-.89.903-1.17.42-.285.922-.427 1.506-.427.59 0 1.089.144 1.494.432.41.284.697.672.864 1.165h.09c.194-.485.52-.872.978-1.16.462-.291 1.01-.437 1.642-.437.803 0 1.458.254 1.966.762.507.507.761 1.248.761 2.221V30h-2.062v-5.54c0-.541-.144-.937-.432-1.187a1.542 1.542 0 0 0-1.057-.381c-.496 0-.884.155-1.165.466-.276.307-.414.706-.414 1.199V30h-2.018v-5.625c0-.45-.136-.81-.409-1.08-.269-.269-.62-.403-1.056-.403-.296 0-.565.076-.807.227a1.585 1.585 0 0 0-.58.631 1.969 1.969 0 0 0-.216.943V30h-2.057Zm14.36 0v-8.727h2.057V30h-2.057Zm1.034-9.966a1.2 1.2 0 0 1-.841-.324 1.044 1.044 0 0 1-.352-.79c0-.31.117-.573.352-.79a1.19 1.19 0 0 1 .84-.329c.33 0 .61.11.842.33.235.216.352.479.352.79 0 .306-.117.57-.352.79a1.187 1.187 0 0 1-.841.323Zm5.195 4.852V30h-2.057v-8.727h1.966v1.483h.102c.2-.489.52-.877.96-1.165.443-.288.99-.432 1.642-.432.602 0 1.127.129 1.574.387.45.257.8.63 1.046 1.119.25.488.373 1.081.369 1.778V30h-2.057v-5.239c0-.583-.151-1.04-.455-1.369-.299-.33-.714-.494-1.244-.494-.36 0-.68.08-.96.238a1.653 1.653 0 0 0-.653.677c-.156.295-.234.653-.234 1.073Zm10.931 5.267a3.3 3.3 0 0 1-1.84-.528c-.542-.352-.97-.864-1.285-1.534-.314-.67-.471-1.485-.471-2.443 0-.97.159-1.788.477-2.455.322-.67.756-1.176 1.301-1.517a3.344 3.344 0 0 1 1.824-.517c.511 0 .932.087 1.261.262.33.17.591.376.785.619.193.238.342.464.448.676h.086v-4.352h2.062V30h-2.023v-1.375h-.125c-.106.212-.26.438-.46.676-.2.235-.466.436-.795.602-.33.167-.745.25-1.245.25Zm.574-1.687c.436 0 .807-.117 1.114-.352.307-.239.54-.57.699-.995.159-.424.238-.918.238-1.483 0-.564-.08-1.055-.238-1.471-.156-.417-.387-.74-.694-.972-.302-.23-.676-.346-1.119-.346-.458 0-.84.119-1.147.357-.307.24-.538.569-.694.99-.155.42-.233.9-.233 1.442 0 .546.078 1.033.233 1.46.16.425.392.76.7 1.006.31.243.69.364 1.141.364Zm10.13 1.704c-.876 0-1.631-.181-2.268-.545a3.694 3.694 0 0 1-1.46-1.557c-.34-.674-.511-1.468-.511-2.38 0-.898.17-1.686.511-2.364a3.866 3.866 0 0 1 1.443-1.591c.618-.383 1.343-.574 2.177-.574.537 0 1.045.087 1.522.262.481.17.906.435 1.273.795.371.36.663.818.875 1.375.212.553.318 1.212.318 1.977v.63h-7.153v-1.386h5.181a2.212 2.212 0 0 0-.255-1.05 1.86 1.86 0 0 0-.699-.734 1.965 1.965 0 0 0-1.034-.267c-.42 0-.79.103-1.108.307-.318.2-.566.466-.744.796a2.29 2.29 0 0 0-.267 1.073v1.21c0 .508.092.944.278 1.308.186.36.445.636.778.83.334.189.724.283 1.17.283.3 0 .57-.042.813-.125.243-.087.453-.214.631-.38.178-.167.313-.374.404-.62l1.92.216c-.121.508-.352.95-.693 1.33a3.379 3.379 0 0 1-1.296.875c-.526.204-1.129.306-1.806.306Zm5.62-.17v-8.727h1.995v1.454h.09c.16-.503.432-.892.819-1.165.39-.276.835-.414 1.335-.414.113 0 .24.005.381.017.143.007.263.02.357.04v1.892a2.162 2.162 0 0 0-.414-.08 3.828 3.828 0 0 0-.54-.04c-.375 0-.712.082-1.011.245a1.78 1.78 0 0 0-.699.664 1.868 1.868 0 0 0-.256.983V30h-2.057Zm7.611.125c-.345 0-.64-.121-.886-.364a1.174 1.174 0 0 1-.364-.886c-.004-.34.117-.633.364-.875.246-.242.541-.364.886-.364a1.2 1.2 0 0 1 .869.364 1.196 1.196 0 0 1 .199 1.506c-.113.19-.265.34-.454.454-.186.11-.391.165-.614.165Zm0-6.227c-.345 0-.64-.122-.886-.364a1.186 1.186 0 0 1-.364-.886 1.16 1.16 0 0 1 .364-.875c.246-.247.541-.37.886-.37.333 0 .623.123.869.37.25.242.377.534.381.875a1.2 1.2 0 0 1-.182.625c-.113.19-.265.34-.454.454-.186.114-.391.17-.614.17Z"/>
  <path fill="#000" d="M117.98 30.182c-.841 0-1.566-.186-2.176-.557a3.733 3.733 0 0 1-1.403-1.568c-.326-.674-.489-1.458-.489-2.352 0-.894.163-1.682.489-2.364.329-.686.787-1.22 1.375-1.602.59-.387 1.28-.58 2.068-.58.454 0 .903.076 1.346.227.444.152.847.398 1.211.739.363.337.653.784.869 1.34.216.558.324 1.243.324 2.058v.568h-6.728v-1.16h5.364c0-.492-.098-.931-.295-1.317a2.232 2.232 0 0 0-.83-.915c-.356-.224-.776-.335-1.261-.335-.534 0-.996.132-1.387.397a2.623 2.623 0 0 0-.892 1.023c-.208.42-.312.871-.312 1.352v.773c0 .66.113 1.218.341 1.676.231.455.551.801.96 1.04.409.235.884.352 1.426.352.352 0 .671-.049.955-.148a2.03 2.03 0 0 0 .744-.454c.208-.204.369-.458.483-.761l1.295.363a2.87 2.87 0 0 1-.687 1.16c-.322.329-.72.587-1.193.772a4.43 4.43 0 0 1-1.597.273Zm8.222.023a3.548 3.548 0 0 1-1.506-.313 2.582 2.582 0 0 1-1.074-.915c-.265-.401-.398-.886-.398-1.454 0-.5.099-.906.296-1.216.197-.315.46-.56.79-.739a4.14 4.14 0 0 1 1.091-.398c.401-.09.804-.162 1.21-.216.53-.068.96-.119 1.29-.153.333-.038.575-.1.727-.187.155-.088.233-.239.233-.455v-.045c0-.561-.154-.997-.46-1.307-.303-.31-.764-.466-1.381-.466-.64 0-1.142.14-1.506.42-.363.28-.619.58-.767.898l-1.273-.454c.228-.53.531-.944.91-1.24a3.411 3.411 0 0 1 1.25-.624 5.183 5.183 0 0 1 1.34-.182 5.3 5.3 0 0 1 .966.102c.368.065.722.2 1.063.404.345.204.631.513.858.926.227.413.341.966.341 1.659V30h-1.341v-1.182h-.068a2.36 2.36 0 0 1-.455.608c-.212.216-.494.4-.847.551-.352.152-.782.227-1.289.227Zm.204-1.205c.531 0 .978-.104 1.341-.313a2.128 2.128 0 0 0 1.114-1.846v-1.227c-.057.068-.182.13-.375.187-.19.053-.409.1-.659.142a30.34 30.34 0 0 1-1.284.17 5.13 5.13 0 0 0-.978.222 1.687 1.687 0 0 0-.727.45c-.182.196-.273.465-.273.806 0 .466.173.818.517 1.057.349.235.79.352 1.324.352Zm9.789 1.182c-.819 0-1.523-.193-2.114-.58a3.783 3.783 0 0 1-1.364-1.596c-.318-.678-.477-1.453-.477-2.324 0-.886.163-1.669.489-2.347.329-.682.788-1.214 1.375-1.596.591-.387 1.28-.58 2.068-.58a3.91 3.91 0 0 1 1.659.341c.492.227.896.546 1.21.954.315.41.51.887.585 1.432h-1.34c-.103-.397-.33-.75-.682-1.056-.349-.311-.818-.466-1.409-.466-.523 0-.981.136-1.375.409-.391.269-.695.65-.915 1.142-.216.488-.324 1.062-.324 1.721 0 .675.106 1.262.318 1.762.216.5.519.888.909 1.165.394.276.856.414 1.387.414.348 0 .664-.06.948-.181.285-.122.525-.296.722-.523.197-.227.337-.5.421-.819h1.34a3.1 3.1 0 0 1-.562 1.393 3.158 3.158 0 0 1-1.176.977c-.485.238-1.049.358-1.693.358Zm6.733-5.432V30h-1.341V18.364h1.341v4.272h.113c.205-.45.512-.808.921-1.073.413-.27.962-.404 1.647-.404.595 0 1.116.12 1.563.358.447.235.793.597 1.04 1.085.25.485.375 1.102.375 1.852V30h-1.341v-5.454c0-.694-.18-1.23-.54-1.608-.356-.383-.85-.574-1.483-.574-.439 0-.833.092-1.182.278a2.035 2.035 0 0 0-.818.813c-.197.356-.295.787-.295 1.295Zm16.407-3.477v1.136h-4.523v-1.136h4.523Zm-3.204-2.091h1.341V27.5c0 .379.055.663.164.852.114.186.258.31.432.375.178.06.366.091.563.091.147 0 .269-.007.363-.023l.228-.045.272 1.204a2.713 2.713 0 0 1-.38.103c-.163.038-.37.057-.62.057-.378 0-.75-.082-1.113-.245a2.215 2.215 0 0 1-.898-.744c-.235-.333-.352-.754-.352-1.261v-8.682ZM161.352 30v-8.727h1.341V30h-1.341Zm.682-10.182a.953.953 0 0 1-.676-.267.856.856 0 0 1-.278-.642c0-.25.092-.464.278-.642a.953.953 0 0 1 .676-.267c.261 0 .485.089.671.267a.851.851 0 0 1 .284.642c0 .25-.095.464-.284.642a.936.936 0 0 1-.671.267ZM165.149 30v-8.727h1.296v1.363h.113c.182-.465.476-.827.881-1.085.405-.261.892-.392 1.46-.392.576 0 1.055.13 1.438.392.386.258.687.62.903 1.085h.091a2.54 2.54 0 0 1 1.006-1.073c.447-.27.983-.404 1.608-.404.78 0 1.418.244 1.914.733.497.485.745 1.24.745 2.267V30h-1.341v-5.84c0-.645-.176-1.105-.529-1.382a1.955 1.955 0 0 0-1.244-.414c-.614 0-1.089.185-1.426.556-.337.368-.506.834-.506 1.398V30h-1.363v-5.977c0-.497-.161-.896-.483-1.2-.322-.306-.737-.46-1.245-.46-.348 0-.674.093-.977.279a2.1 2.1 0 0 0-.727.773 2.28 2.28 0 0 0-.273 1.13V30h-1.341Zm17.565.182c-.84 0-1.566-.186-2.176-.557a3.733 3.733 0 0 1-1.403-1.568c-.326-.674-.489-1.458-.489-2.352 0-.894.163-1.682.489-2.364.329-.686.788-1.22 1.375-1.602.591-.387 1.28-.58 2.068-.58.455 0 .904.076 1.347.227a3.34 3.34 0 0 1 1.21.739c.364.337.653.784.869 1.34.216.558.324 1.243.324 2.058v.568h-6.727v-1.16h5.363c0-.492-.098-.931-.295-1.317a2.225 2.225 0 0 0-.83-.915c-.356-.224-.776-.335-1.261-.335-.534 0-.996.132-1.386.397a2.608 2.608 0 0 0-.892 1.023c-.209.42-.313.871-.313 1.352v.773c0 .66.114 1.218.341 1.676.231.455.551.801.96 1.04.409.235.885.352 1.426.352a2.9 2.9 0 0 0 .955-.148 2.03 2.03 0 0 0 .744-.454c.209-.204.37-.458.483-.761l1.296.363a2.88 2.88 0 0 1-.688 1.16 3.344 3.344 0 0 1-1.193.772 4.426 4.426 0 0 1-1.597.273Zm11.018 3.09c-.228 0-.43-.018-.608-.056a1.61 1.61 0 0 1-.37-.102l.341-1.182c.326.083.614.113.864.09.25-.022.471-.134.665-.334.197-.197.376-.517.539-.96l.25-.683-3.227-8.772h1.455l2.409 6.954h.091l2.409-6.954h1.454l-3.704 10c-.167.45-.373.824-.62 1.119-.246.3-.532.52-.858.665a2.641 2.641 0 0 1-1.09.216Zm11.275-3.09c-.788 0-1.479-.188-2.074-.563-.591-.375-1.053-.9-1.386-1.573-.33-.675-.494-1.463-.494-2.364 0-.91.164-1.703.494-2.38.333-.679.795-1.205 1.386-1.58.595-.375 1.286-.563 2.074-.563.788 0 1.477.188 2.068.563.595.375 1.057.901 1.387 1.58.333.677.5 1.47.5 2.38 0 .901-.167 1.69-.5 2.364a3.77 3.77 0 0 1-1.387 1.573c-.591.375-1.28.563-2.068.563Zm0-1.205c.599 0 1.091-.153 1.477-.46.387-.307.673-.71.858-1.21.186-.5.279-1.042.279-1.625s-.093-1.127-.279-1.63a2.74 2.74 0 0 0-.858-1.223c-.386-.31-.878-.465-1.477-.465-.598 0-1.091.155-1.477.465a2.74 2.74 0 0 0-.858 1.222 4.672 4.672 0 0 0-.279 1.63c0 .584.093 1.126.279 1.626.185.5.471.903.858 1.21.386.307.879.46 1.477.46Zm11.502-2.545v-5.16h1.34V30h-1.34v-1.477h-.091c-.205.443-.523.82-.955 1.13-.432.307-.977.46-1.636.46-.546 0-1.031-.119-1.455-.357-.424-.243-.757-.606-1-1.091-.242-.489-.363-1.104-.363-1.847v-5.545h1.34v5.454c0 .637.178 1.144.535 1.523.359.379.818.568 1.375.568.333 0 .672-.085 1.017-.256.348-.17.64-.431.875-.784.238-.352.358-.8.358-1.346Zm12.183-5.16v1.137h-4.705v-1.136h4.705ZM225.396 30v-9.932c0-.5.118-.917.353-1.25a2.18 2.18 0 0 1 .914-.75c.375-.167.771-.25 1.188-.25.329 0 .598.027.807.08a3.1 3.1 0 0 1 .466.148l-.387 1.159a6.673 6.673 0 0 0-.284-.086 1.722 1.722 0 0 0-.466-.05c-.443 0-.763.11-.96.334-.193.224-.29.552-.29.983V30h-1.341Zm8.361.182c-.788 0-1.479-.188-2.074-.563-.591-.375-1.053-.9-1.386-1.573-.33-.675-.494-1.463-.494-2.364 0-.91.164-1.703.494-2.38.333-.679.795-1.205 1.386-1.58.595-.375 1.286-.563 2.074-.563.788 0 1.477.188 2.068.563.595.375 1.057.901 1.387 1.58.333.677.5 1.47.5 2.38 0 .901-.167 1.69-.5 2.364a3.77 3.77 0 0 1-1.387 1.573c-.591.375-1.28.563-2.068.563Zm0-1.205c.599 0 1.091-.153 1.477-.46.387-.307.673-.71.858-1.21.186-.5.279-1.042.279-1.625s-.093-1.127-.279-1.63a2.74 2.74 0 0 0-.858-1.223c-.386-.31-.878-.465-1.477-.465-.598 0-1.091.155-1.477.465a2.74 2.74 0 0 0-.858 1.222 4.672 4.672 0 0 0-.279 1.63c0 .584.093 1.126.279 1.626.185.5.471.903.858 1.21.386.307.879.46 1.477.46Zm7.342-10.613V30h-1.34V18.364h1.34Zm3.797 0V30h-1.341V18.364h1.341Zm6.002 11.818c-.788 0-1.479-.188-2.074-.563-.591-.375-1.053-.9-1.386-1.573-.33-.675-.495-1.463-.495-2.364 0-.91.165-1.703.495-2.38.333-.679.795-1.205 1.386-1.58.595-.375 1.286-.563 2.074-.563.788 0 1.477.188 2.068.563.595.375 1.057.901 1.386 1.58.334.677.5 1.47.5 2.38 0 .901-.166 1.69-.5 2.364a3.763 3.763 0 0 1-1.386 1.573c-.591.375-1.28.563-2.068.563Zm0-1.205c.598 0 1.091-.153 1.477-.46a2.72 2.72 0 0 0 .858-1.21c.186-.5.278-1.042.278-1.625s-.092-1.127-.278-1.63a2.755 2.755 0 0 0-.858-1.223c-.386-.31-.879-.465-1.477-.465-.599 0-1.091.155-1.478.465a2.757 2.757 0 0 0-.858 1.222 4.695 4.695 0 0 0-.278 1.63c0 .584.093 1.126.278 1.626.186.5.472.903.858 1.21.387.307.879.46 1.478.46ZM258.58 30l-2.66-8.727h1.41l1.886 6.681h.091l1.863-6.681h1.432l1.841 6.659h.091l1.886-6.66h1.41L265.17 30h-1.318l-1.909-6.704h-.136L259.898 30h-1.318Zm21.022-3.568v-5.16h1.341V30h-1.341v-1.477h-.091c-.204.443-.522.82-.954 1.13-.432.307-.977.46-1.637.46-.545 0-1.03-.119-1.454-.357-.424-.243-.758-.606-1-1.091-.243-.489-.364-1.104-.364-1.847v-5.545h1.341v5.454c0 .637.178 1.144.534 1.523.36.379.818.568 1.375.568.334 0 .673-.085 1.017-.256.349-.17.64-.431.875-.784.239-.352.358-.8.358-1.346Zm3.797 6.84v-12h1.296v1.387h.159c.098-.151.235-.345.409-.58.178-.238.432-.45.761-.636.333-.19.784-.284 1.352-.284.735 0 1.383.184 1.944.551.56.368.998.889 1.312 1.563.314.674.472 1.47.472 2.386 0 .924-.158 1.726-.472 2.404-.314.674-.75 1.197-1.307 1.568-.557.367-1.199.55-1.926.55-.56 0-1.009-.092-1.346-.278-.338-.189-.597-.403-.779-.642a8.362 8.362 0 0 1-.42-.602h-.114v4.614h-1.341Zm1.318-7.636c0 .66.097 1.24.29 1.745.193.5.475.892.847 1.176.371.28.825.42 1.363.42.561 0 1.029-.148 1.404-.443.379-.3.663-.7.852-1.204a4.73 4.73 0 0 0 .29-1.694 4.6 4.6 0 0 0-.284-1.659c-.186-.496-.468-.888-.847-1.176-.375-.291-.846-.437-1.415-.437-.545 0-1.003.138-1.375.414-.371.273-.651.656-.841 1.148-.189.489-.284 1.059-.284 1.71Zm10.432 2.773-.091.614a12.43 12.43 0 0 1-.295 1.386c-.129.492-.263.957-.404 1.392-.14.436-.255.782-.346 1.04h-1.023l.193-.96c.08-.398.159-.843.239-1.335.083-.49.151-.99.204-1.5l.069-.637h1.454Zm10.78-7.136v1.136h-4.523v-1.136h4.523Zm-3.205-2.091h1.341V27.5c0 .379.055.663.165.852.114.186.258.31.432.375.178.06.365.091.562.091.148 0 .269-.007.364-.023l.227-.045.273 1.204a2.733 2.733 0 0 1-.381.103 2.793 2.793 0 0 1-.619.057 2.7 2.7 0 0 1-1.114-.245 2.212 2.212 0 0 1-.897-.744c-.235-.333-.353-.754-.353-1.261v-8.682Zm6.75 5.568V30h-1.34V18.364h1.34v4.272h.114c.205-.45.511-.808.921-1.073.412-.27.962-.404 1.647-.404.595 0 1.116.12 1.563.358.447.235.793.597 1.04 1.085.25.485.375 1.102.375 1.852V30h-1.341v-5.454c0-.694-.18-1.23-.54-1.608-.356-.383-.851-.574-1.483-.574-.44 0-.833.092-1.182.278a2.035 2.035 0 0 0-.818.813c-.197.356-.296.787-.296 1.295Zm8.113 5.25v-8.727h1.341V30h-1.341Zm.681-10.182a.954.954 0 0 1-.676-.267.86.86 0 0 1-.278-.642.86.86 0 0 1 .278-.642.955.955 0 0 1 .676-.267c.262 0 .485.089.671.267a.851.851 0 0 1 .284.642c0 .25-.095.464-.284.642a.934.934 0 0 1-.671.267Zm4.456 4.932V30h-1.34v-8.727h1.295v1.363h.114c.204-.443.515-.799.931-1.068.417-.273.955-.409 1.614-.409.591 0 1.108.121 1.551.364a2.45 2.45 0 0 1 1.034 1.09c.247.486.37 1.1.37 1.841V30h-1.341v-5.454c0-.686-.178-1.22-.534-1.603-.356-.386-.845-.58-1.466-.58a2.34 2.34 0 0 0-1.148.279 1.994 1.994 0 0 0-.79.813c-.193.356-.29.787-.29 1.295Zm9.269 2.068-.023-1.659h.273l3.818-3.886h1.659l-4.068 4.113h-.114l-1.545 1.432ZM330.743 30V18.364h1.341V30h-1.341Zm5.545 0-3.409-4.318.955-.932 4.159 5.25h-1.705Zm10.226.204a3.54 3.54 0 0 1-1.505-.312 2.582 2.582 0 0 1-1.074-.915c-.265-.401-.398-.886-.398-1.454 0-.5.098-.906.295-1.216a2.09 2.09 0 0 1 .79-.739c.33-.178.693-.31 1.091-.398.402-.09.805-.162 1.21-.216.531-.068.961-.119 1.29-.153.333-.038.576-.1.727-.187.156-.088.233-.239.233-.455v-.045c0-.561-.153-.997-.46-1.307-.303-.31-.763-.466-1.381-.466-.64 0-1.142.14-1.505.42-.364.28-.62.58-.767.898l-1.273-.454c.227-.53.53-.944.909-1.24a3.419 3.419 0 0 1 1.25-.624 5.196 5.196 0 0 1 1.341-.182c.28 0 .602.034.966.102.367.065.721.2 1.062.404.345.204.631.513.858.926.228.413.341.966.341 1.659V30h-1.341v-1.182h-.068c-.091.19-.242.392-.454.608-.213.216-.495.4-.847.551-.352.152-.782.227-1.29.227Zm.205-1.204c.53 0 .977-.104 1.341-.313a2.124 2.124 0 0 0 1.113-1.846v-1.227c-.057.068-.182.13-.375.187a6.29 6.29 0 0 1-.659.142 30.27 30.27 0 0 1-1.284.17 5.19 5.19 0 0 0-.977.222 1.681 1.681 0 0 0-.727.45c-.182.196-.273.465-.273.806 0 .466.172.818.517 1.057.348.235.79.352 1.324.352Zm6.424 1V18.364h1.341v4.295h.114c.098-.151.235-.345.409-.58.178-.238.432-.45.761-.636.334-.19.785-.284 1.353-.284.735 0 1.382.184 1.943.551.561.368.998.889 1.312 1.563.315.674.472 1.47.472 2.386 0 .924-.157 1.726-.472 2.404-.314.674-.75 1.197-1.306 1.568-.557.367-1.199.55-1.927.55-.56 0-1.009-.092-1.346-.278-.337-.189-.597-.403-.779-.642a8.7 8.7 0 0 1-.42-.602h-.159V30h-1.296Zm1.319-4.364c0 .66.096 1.24.289 1.745.194.5.476.892.847 1.176.371.28.826.42 1.364.42.56 0 1.028-.148 1.403-.443.379-.3.663-.7.852-1.204.194-.508.29-1.072.29-1.694a4.6 4.6 0 0 0-.284-1.659c-.186-.496-.468-.888-.847-1.176-.375-.291-.846-.437-1.414-.437-.546 0-1.004.138-1.375.414-.372.273-.652.656-.841 1.148-.19.489-.284 1.059-.284 1.71Zm11.983 4.546c-.788 0-1.48-.188-2.074-.563-.591-.375-1.053-.9-1.387-1.573-.329-.675-.494-1.463-.494-2.364 0-.91.165-1.703.494-2.38.334-.679.796-1.205 1.387-1.58.594-.375 1.286-.563 2.074-.563.787 0 1.477.188 2.068.563.594.375 1.057.901 1.386 1.58.333.677.5 1.47.5 2.38 0 .901-.167 1.69-.5 2.364a3.77 3.77 0 0 1-1.386 1.573c-.591.375-1.281.563-2.068.563Zm0-1.205c.598 0 1.091-.153 1.477-.46a2.72 2.72 0 0 0 .858-1.21c.185-.5.278-1.042.278-1.625s-.093-1.127-.278-1.63a2.755 2.755 0 0 0-.858-1.223c-.386-.31-.879-.465-1.477-.465-.599 0-1.091.155-1.478.465a2.757 2.757 0 0 0-.858 1.222 4.695 4.695 0 0 0-.278 1.63c0 .584.093 1.126.278 1.626.186.5.472.903.858 1.21.387.307.879.46 1.478.46Zm11.501-2.545v-5.16h1.341V30h-1.341v-1.477h-.091a2.86 2.86 0 0 1-.954 1.13c-.432.307-.978.46-1.637.46-.545 0-1.03-.119-1.454-.357-.425-.243-.758-.606-1-1.091-.243-.489-.364-1.104-.364-1.847v-5.545h1.341v5.454c0 .637.178 1.144.534 1.523.36.379.818.568 1.375.568.333 0 .672-.085 1.017-.256.349-.17.64-.431.875-.784.239-.352.358-.8.358-1.346Zm7.592-5.16v1.137h-4.522v-1.136h4.522Zm-3.204-2.09h1.341V27.5c0 .379.055.663.164.852.114.186.258.31.432.375.178.06.366.091.563.091.148 0 .269-.007.363-.023l.228-.045.272 1.204c-.09.035-.217.069-.38.103-.163.038-.37.057-.62.057-.378 0-.75-.082-1.113-.245a2.215 2.215 0 0 1-.898-.744c-.235-.333-.352-.754-.352-1.261v-8.682Zm11.062 5.568V30h-1.341V18.364h1.341v4.272h.114c.204-.45.511-.808.92-1.073.413-.27.963-.404 1.648-.404.595 0 1.116.12 1.563.358.447.235.793.597 1.039 1.085.25.485.375 1.102.375 1.852V30h-1.341v-5.454c0-.694-.179-1.23-.539-1.608-.356-.383-.851-.574-1.483-.574-.44 0-.834.092-1.182.278a2.035 2.035 0 0 0-.818.813c-.197.356-.296.787-.296 1.295Zm11.658 5.432c-.788 0-1.479-.188-2.074-.563-.591-.375-1.053-.9-1.386-1.573-.33-.675-.495-1.463-.495-2.364 0-.91.165-1.703.495-2.38.333-.679.795-1.205 1.386-1.58.595-.375 1.286-.563 2.074-.563.788 0 1.477.188 2.068.563.595.375 1.057.901 1.387 1.58.333.677.5 1.47.5 2.38 0 .901-.167 1.69-.5 2.364a3.77 3.77 0 0 1-1.387 1.573c-.591.375-1.28.563-2.068.563Zm0-1.205c.598 0 1.091-.153 1.477-.46.387-.307.673-.71.858-1.21.186-.5.279-1.042.279-1.625s-.093-1.127-.279-1.63a2.74 2.74 0 0 0-.858-1.223c-.386-.31-.879-.465-1.477-.465-.599 0-1.091.155-1.477.465a2.74 2.74 0 0 0-.858 1.222 4.672 4.672 0 0 0-.279 1.63c0 .584.093 1.126.279 1.626.185.5.471.903.858 1.21.386.307.878.46 1.477.46ZM412.736 30l-2.659-8.727h1.409l1.886 6.681h.091l1.864-6.681h1.432l1.84 6.659h.091l1.887-6.66h1.409L419.327 30h-1.318l-1.91-6.704h-.136L414.054 30h-1.318Zm16.386 3.273a3 3 0 0 1-.608-.057 1.597 1.597 0 0 1-.369-.102l.341-1.182c.326.083.613.113.863.09.25-.022.472-.134.665-.334.197-.197.377-.517.54-.96l.25-.683-3.227-8.772h1.454l2.409 6.954h.091l2.409-6.954h1.455l-3.705 10a3.77 3.77 0 0 1-.619 1.119c-.246.3-.532.52-.858.665a2.646 2.646 0 0 1-1.091.216Zm11.276-3.091c-.788 0-1.479-.188-2.074-.563-.591-.375-1.053-.9-1.386-1.573-.33-.675-.495-1.463-.495-2.364 0-.91.165-1.703.495-2.38.333-.679.795-1.205 1.386-1.58.595-.375 1.286-.563 2.074-.563.788 0 1.477.188 2.068.563.595.375 1.057.901 1.386 1.58.334.677.5 1.47.5 2.38 0 .901-.166 1.69-.5 2.364a3.763 3.763 0 0 1-1.386 1.573c-.591.375-1.28.563-2.068.563Zm0-1.205c.598 0 1.091-.153 1.477-.46a2.72 2.72 0 0 0 .858-1.21c.186-.5.278-1.042.278-1.625s-.092-1.127-.278-1.63a2.755 2.755 0 0 0-.858-1.223c-.386-.31-.879-.465-1.477-.465-.599 0-1.091.155-1.478.465a2.757 2.757 0 0 0-.858 1.222 4.695 4.695 0 0 0-.278 1.63c0 .584.093 1.126.278 1.626.186.5.472.903.858 1.21.387.307.879.46 1.478.46Zm11.501-2.545v-5.16h1.341V30h-1.341v-1.477h-.091c-.204.443-.522.82-.954 1.13-.432.307-.978.46-1.637.46-.545 0-1.03-.119-1.454-.357-.424-.243-.758-.606-1-1.091-.243-.489-.364-1.104-.364-1.847v-5.545h1.341v5.454c0 .637.178 1.144.534 1.523.36.379.818.568 1.375.568.333 0 .672-.085 1.017-.256.349-.17.64-.431.875-.784.239-.352.358-.8.358-1.346Zm11.842 3.75c-.818 0-1.522-.193-2.113-.58a3.776 3.776 0 0 1-1.364-1.596c-.318-.678-.477-1.453-.477-2.324 0-.886.163-1.669.489-2.347.329-.682.787-1.214 1.375-1.596.59-.387 1.28-.58 2.068-.58.613 0 1.166.114 1.659.341.492.227.896.546 1.21.954.314.41.51.887.585 1.432h-1.341c-.102-.397-.329-.75-.681-1.056-.349-.311-.819-.466-1.41-.466-.522 0-.981.136-1.375.409-.39.269-.695.65-.914 1.142-.216.488-.324 1.062-.324 1.721 0 .675.106 1.262.318 1.762.216.5.519.888.909 1.165.394.276.856.414 1.386.414.349 0 .665-.06.949-.181a1.96 1.96 0 0 0 .722-.523c.197-.227.337-.5.42-.819h1.341a3.1 3.1 0 0 1-.562 1.393 3.158 3.158 0 0 1-1.176.977c-.485.238-1.05.358-1.694.358Zm7.961.023a3.548 3.548 0 0 1-1.506-.313 2.582 2.582 0 0 1-1.074-.915c-.265-.401-.398-.886-.398-1.454 0-.5.099-.906.296-1.216.197-.315.46-.56.79-.739a4.14 4.14 0 0 1 1.091-.398c.401-.09.804-.162 1.21-.216.53-.068.96-.119 1.29-.153.333-.038.575-.1.727-.187.155-.088.233-.239.233-.455v-.045c0-.561-.154-.997-.46-1.307-.303-.31-.764-.466-1.381-.466-.64 0-1.142.14-1.506.42-.363.28-.619.58-.767.898l-1.273-.454c.228-.53.531-.944.91-1.24a3.411 3.411 0 0 1 1.25-.624 5.183 5.183 0 0 1 1.34-.182 5.3 5.3 0 0 1 .966.102c.368.065.722.2 1.063.404.345.204.631.513.858.926.227.413.341.966.341 1.659V30h-1.341v-1.182h-.068a2.36 2.36 0 0 1-.455.608c-.212.216-.494.4-.847.551-.352.152-.782.227-1.289.227Zm.204-1.205c.531 0 .978-.104 1.341-.313a2.128 2.128 0 0 0 1.114-1.846v-1.227c-.057.068-.182.13-.375.187-.19.053-.409.1-.659.142a30.34 30.34 0 0 1-1.284.17 5.13 5.13 0 0 0-.978.222 1.687 1.687 0 0 0-.727.45c-.182.196-.273.465-.273.806 0 .466.173.818.517 1.057.349.235.79.352 1.324.352Zm7.584-4.25V30h-1.341v-8.727h1.296v1.363h.113c.205-.443.515-.799.932-1.068.417-.273.955-.409 1.614-.409.591 0 1.108.121 1.551.364a2.45 2.45 0 0 1 1.034 1.09c.246.486.369 1.1.369 1.841V30h-1.341v-5.454c0-.686-.178-1.22-.534-1.603-.356-.386-.844-.58-1.466-.58-.428 0-.81.093-1.147.279a1.988 1.988 0 0 0-.79.813c-.193.356-.29.787-.29 1.295ZM31.227 56.273v-12h1.296v1.386h.159c.098-.151.235-.345.409-.58.178-.238.432-.45.761-.636.334-.19.784-.284 1.353-.284.734 0 1.382.184 1.943.551.56.368.998.889 1.312 1.563.315.674.472 1.47.472 2.386 0 .924-.157 1.726-.472 2.404-.314.674-.75 1.197-1.307 1.568-.556.367-1.198.55-1.926.55-.56 0-1.01-.092-1.346-.278-.337-.189-.597-.403-.779-.642a8.63 8.63 0 0 1-.42-.602h-.114v4.614h-1.34Zm1.318-7.637c0 .66.097 1.24.29 1.745.193.5.476.892.847 1.176.371.28.826.42 1.363.42.561 0 1.029-.147 1.404-.443.379-.3.663-.7.852-1.204.193-.508.29-1.072.29-1.694 0-.613-.095-1.166-.284-1.659-.186-.496-.468-.888-.847-1.176-.375-.291-.846-.437-1.415-.437-.545 0-1.003.138-1.375.414-.37.273-.651.656-.84 1.148-.19.489-.285 1.059-.285 1.71Zm11.978 4.546c-.788 0-1.48-.188-2.074-.563-.591-.375-1.053-.9-1.386-1.574-.33-.674-.495-1.462-.495-2.363 0-.91.165-1.703.495-2.38.333-.679.795-1.205 1.386-1.58.595-.375 1.286-.563 2.074-.563.788 0 1.477.188 2.068.563.595.375 1.057.901 1.386 1.58.334.677.5 1.47.5 2.38 0 .901-.166 1.69-.5 2.363a3.77 3.77 0 0 1-1.386 1.574c-.591.375-1.28.563-2.068.563Zm0-1.205c.598 0 1.09-.153 1.477-.46a2.72 2.72 0 0 0 .858-1.21c.186-.5.278-1.042.278-1.625 0-.584-.092-1.127-.278-1.63A2.75 2.75 0 0 0 46 45.83c-.386-.311-.879-.466-1.477-.466-.599 0-1.091.155-1.478.466-.386.31-.672.717-.858 1.221a4.681 4.681 0 0 0-.278 1.63c0 .584.093 1.126.279 1.626.185.5.471.903.857 1.21.387.307.88.46 1.478.46Zm12.183-5.75-1.205.341a2.234 2.234 0 0 0-.335-.585 1.626 1.626 0 0 0-.59-.477c-.25-.125-.57-.188-.96-.188-.535 0-.98.123-1.336.37-.352.242-.529.55-.529.926 0 .333.122.596.364.79.242.193.621.354 1.136.482l1.296.319c.78.189 1.362.479 1.744.869.383.386.574.884.574 1.494 0 .5-.144.947-.432 1.341-.284.394-.682.705-1.193.932-.511.227-1.106.34-1.784.34-.89 0-1.627-.192-2.21-.579-.584-.386-.953-.95-1.108-1.693l1.273-.318c.12.47.35.822.687 1.057.34.235.786.352 1.335.352.625 0 1.121-.133 1.489-.398.371-.269.557-.59.557-.966 0-.303-.106-.556-.319-.761-.212-.208-.537-.364-.977-.466l-1.454-.34c-.8-.19-1.387-.484-1.762-.882-.37-.401-.556-.903-.556-1.505 0-.493.138-.928.414-1.307a2.82 2.82 0 0 1 1.142-.892c.485-.216 1.034-.324 1.648-.324.864 0 1.542.19 2.034.568.496.38.849.88 1.057 1.5Zm8.36 0-1.205.341a2.237 2.237 0 0 0-.335-.585 1.627 1.627 0 0 0-.591-.477c-.25-.125-.57-.188-.96-.188-.535 0-.98.123-1.336.37-.352.242-.528.55-.528.926 0 .333.121.596.363.79.243.193.622.354 1.137.482l1.295.319c.78.189 1.362.479 1.745.869.382.386.573.884.573 1.494 0 .5-.144.947-.431 1.341-.285.394-.682.705-1.194.932-.51.227-1.106.34-1.784.34-.89 0-1.627-.192-2.21-.579-.583-.386-.952-.95-1.108-1.693l1.273-.318c.121.47.35.822.687 1.057.341.235.786.352 1.336.352.625 0 1.12-.133 1.488-.398.372-.269.557-.59.557-.966 0-.303-.106-.556-.318-.761-.212-.208-.538-.364-.977-.466l-1.455-.34c-.8-.19-1.386-.484-1.761-.882-.371-.401-.557-.903-.557-1.505 0-.493.138-.928.415-1.307.28-.379.66-.676 1.142-.892.485-.216 1.034-.324 1.647-.324.864 0 1.542.19 2.035.568.496.38.848.88 1.056 1.5ZM67.242 53v-8.727h1.34V53h-1.34Zm.682-10.182a.953.953 0 0 1-.676-.267.858.858 0 0 1-.279-.642c0-.25.093-.464.279-.642a.954.954 0 0 1 .676-.267c.261 0 .485.089.67.267a.85.85 0 0 1 .284.642.85.85 0 0 1-.284.642.934.934 0 0 1-.67.267ZM71.222 53V41.364h1.34v4.295h.114c.099-.151.235-.345.41-.58.177-.238.431-.45.76-.636.334-.19.785-.284 1.353-.284.735 0 1.382.184 1.943.551.56.368.998.889 1.313 1.563.314.674.471 1.47.471 2.386 0 .924-.157 1.726-.472 2.404-.314.674-.75 1.197-1.306 1.568-.557.367-1.2.55-1.926.55-.561 0-1.01-.092-1.347-.278-.337-.189-.597-.403-.778-.642a8.63 8.63 0 0 1-.42-.602h-.16V53h-1.295Zm1.318-4.364c0 .66.096 1.24.29 1.745.193.5.475.892.846 1.176.371.28.826.42 1.364.42.56 0 1.028-.147 1.403-.443.379-.3.663-.7.853-1.204.193-.508.29-1.072.29-1.694 0-.613-.096-1.166-.285-1.659-.186-.496-.468-.888-.847-1.176-.374-.291-.846-.437-1.414-.437-.546 0-1.004.138-1.375.414-.371.273-.652.656-.841 1.148-.19.489-.284 1.059-.284 1.71Zm9.778-7.272V53h-1.34V41.364h1.34Zm3.32 14.909c-.228 0-.43-.02-.608-.057a1.604 1.604 0 0 1-.37-.102l.341-1.182c.326.083.614.113.864.09.25-.022.472-.134.665-.334.197-.198.377-.518.54-.96l.25-.683-3.228-8.772h1.455l2.409 6.954h.09l2.41-6.954h1.454l-3.704 10a3.78 3.78 0 0 1-.62 1.119c-.246.3-.531.52-.857.665a2.645 2.645 0 0 1-1.091.216ZM99.52 47.75V53h-1.34V41.364h1.34v4.272h.114c.204-.45.511-.808.92-1.074.413-.268.963-.403 1.648-.403.595 0 1.116.12 1.563.358.447.235.793.597 1.039 1.085.25.485.375 1.103.375 1.853V53h-1.341v-5.455c0-.693-.179-1.229-.539-1.608-.356-.382-.851-.573-1.483-.573-.44 0-.834.092-1.182.278a2.036 2.036 0 0 0-.818.813c-.197.356-.296.787-.296 1.295Zm11.772 5.432c-.841 0-1.567-.186-2.177-.557a3.74 3.74 0 0 1-1.403-1.568c-.326-.674-.489-1.459-.489-2.352 0-.894.163-1.682.489-2.364.33-.686.788-1.22 1.375-1.602.591-.387 1.28-.58 2.068-.58.455 0 .904.076 1.347.227a3.34 3.34 0 0 1 1.21.739c.364.337.653.784.869 1.34.216.558.324 1.243.324 2.058v.568h-6.727v-1.16h5.364c0-.492-.099-.931-.296-1.317a2.23 2.23 0 0 0-.829-.915c-.356-.224-.777-.335-1.262-.335-.534 0-.996.132-1.386.397a2.615 2.615 0 0 0-.892 1.023 3.01 3.01 0 0 0-.313 1.352v.773c0 .66.114 1.218.341 1.676.231.455.551.801.96 1.04.41.235.885.352 1.427.352.352 0 .67-.049.954-.147.288-.103.536-.254.744-.455.209-.205.37-.458.483-.761l1.296.363a2.87 2.87 0 0 1-.688 1.16 3.344 3.344 0 0 1-1.193.772 4.42 4.42 0 0 1-1.596.273Zm6.994-11.818V53h-1.341V41.364h1.341Zm2.456 14.909v-12h1.295v1.386h.159c.099-.151.235-.345.41-.58.178-.238.431-.45.761-.636.333-.19.784-.284 1.352-.284.735 0 1.383.184 1.943.551.561.368.998.889 1.313 1.563.314.674.471 1.47.471 2.386 0 .924-.157 1.726-.471 2.404-.315.674-.75 1.197-1.307 1.568-.557.367-1.199.55-1.926.55-.561 0-1.01-.092-1.347-.278-.337-.189-.596-.403-.778-.642a8.77 8.77 0 0 1-.421-.602h-.113v4.614h-1.341Zm1.318-7.637c0 .66.097 1.24.29 1.745.193.5.475.892.846 1.176.372.28.826.42 1.364.42.561 0 1.028-.147 1.403-.443.379-.3.663-.7.853-1.204a4.73 4.73 0 0 0 .29-1.694c0-.613-.095-1.166-.285-1.659-.185-.496-.467-.888-.846-1.176-.375-.291-.847-.437-1.415-.437-.545 0-1.004.138-1.375.414-.371.273-.651.656-.841 1.148-.189.489-.284 1.059-.284 1.71Zm16.727-4.363v1.136h-4.522v-1.136h4.522Zm-3.204-2.091h1.341V50.5c0 .379.055.663.164.852.114.186.258.31.432.375.178.06.366.091.563.091.148 0 .269-.007.363-.023l.228-.045.272 1.205c-.09.034-.217.068-.38.102-.163.038-.37.057-.62.057-.378 0-.75-.082-1.113-.245a2.215 2.215 0 0 1-.898-.744c-.235-.333-.352-.754-.352-1.261v-8.682Zm6.75 5.568V53h-1.341V41.364h1.341v4.272h.113c.205-.45.512-.808.921-1.074.413-.268.962-.403 1.648-.403.594 0 1.115.12 1.562.358a2.41 2.41 0 0 1 1.04 1.085c.25.485.375 1.103.375 1.853V53h-1.341v-5.455c0-.693-.18-1.229-.54-1.608-.356-.382-.85-.573-1.483-.573-.439 0-.833.092-1.182.278a2.04 2.04 0 0 0-.818.813c-.197.356-.295.787-.295 1.295Zm8.112 5.25v-8.727h1.341V53h-1.341Zm.682-10.182a.951.951 0 0 1-.676-.267.857.857 0 0 1-.279-.642c0-.25.093-.464.279-.642a.951.951 0 0 1 .676-.267c.261 0 .485.089.67.267.19.178.284.392.284.642s-.094.464-.284.642a.932.932 0 0 1-.67.267Zm9.297 3.41-1.205.34a2.233 2.233 0 0 0-.335-.585 1.628 1.628 0 0 0-.591-.477c-.25-.125-.57-.188-.96-.188-.534 0-.979.123-1.335.37-.353.242-.529.55-.529.926 0 .333.121.596.364.79.242.193.621.354 1.136.482l1.296.319c.78.189 1.361.479 1.744.869.383.386.574.884.574 1.494 0 .5-.144.947-.432 1.341-.284.394-.682.705-1.193.932-.512.227-1.106.34-1.784.34-.89 0-1.627-.192-2.211-.579-.583-.386-.952-.95-1.107-1.693l1.272-.318c.121.47.351.822.688 1.057.341.235.786.352 1.335.352.625 0 1.121-.133 1.489-.398.371-.269.556-.59.556-.966 0-.303-.106-.556-.318-.761-.212-.208-.538-.364-.977-.466l-1.455-.34c-.799-.19-1.386-.484-1.761-.882-.371-.401-.557-.903-.557-1.505 0-.493.139-.928.415-1.307a2.82 2.82 0 0 1 1.142-.892c.485-.216 1.034-.324 1.648-.324.863 0 1.541.19 2.034.568.496.38.848.88 1.057 1.5Zm6.677 10.045v-12h1.296v1.386h.159c.098-.151.235-.345.409-.58.178-.238.432-.45.761-.636.334-.19.784-.284 1.353-.284.734 0 1.382.184 1.943.551.56.368.998.889 1.312 1.563.315.674.472 1.47.472 2.386 0 .924-.157 1.726-.472 2.404-.314.674-.75 1.197-1.307 1.568-.556.367-1.198.55-1.926.55-.56 0-1.009-.092-1.346-.278-.337-.189-.597-.403-.779-.642a8.362 8.362 0 0 1-.42-.602h-.114v4.614h-1.341Zm1.318-7.637c0 .66.097 1.24.29 1.745.193.5.476.892.847 1.176.371.28.826.42 1.363.42.561 0 1.029-.147 1.404-.443.379-.3.663-.7.852-1.204a4.73 4.73 0 0 0 .29-1.694 4.6 4.6 0 0 0-.284-1.659c-.186-.496-.468-.888-.847-1.176-.375-.291-.846-.437-1.415-.437-.545 0-1.003.138-1.375.414-.371.273-.651.656-.84 1.148-.19.489-.285 1.059-.285 1.71Zm12.091 4.546c-.841 0-1.566-.186-2.176-.557a3.733 3.733 0 0 1-1.403-1.568c-.326-.674-.489-1.459-.489-2.352 0-.894.163-1.682.489-2.364.329-.686.788-1.22 1.375-1.602.591-.387 1.28-.58 2.068-.58.455 0 .903.076 1.347.227a3.34 3.34 0 0 1 1.21.739c.363.337.653.784.869 1.34.216.558.324 1.243.324 2.058v.568h-6.727v-1.16h5.363c0-.492-.098-.931-.295-1.317a2.225 2.225 0 0 0-.83-.915c-.356-.224-.776-.335-1.261-.335-.534 0-.996.132-1.386.397a2.608 2.608 0 0 0-.892 1.023c-.209.42-.313.871-.313 1.352v.773c0 .66.114 1.218.341 1.676.231.455.551.801.96 1.04.409.235.885.352 1.426.352a2.9 2.9 0 0 0 .955-.147c.288-.103.536-.254.744-.455.209-.205.37-.458.483-.761l1.296.363a2.88 2.88 0 0 1-.688 1.16c-.322.329-.72.587-1.193.772a4.43 4.43 0 0 1-1.597.273Zm5.654-.182v-8.727h1.295v1.318h.091c.159-.432.447-.782.864-1.051a2.54 2.54 0 0 1 1.409-.404c.098 0 .221.002.369.006s.26.01.335.017v1.364a3.926 3.926 0 0 0-.312-.051 3.08 3.08 0 0 0-.506-.04c-.424 0-.803.089-1.136.267a1.955 1.955 0 0 0-1.068 1.778V53h-1.341Zm12.135-6.773-1.205.341a2.233 2.233 0 0 0-.335-.585 1.628 1.628 0 0 0-.591-.477c-.25-.125-.57-.188-.96-.188-.534 0-.979.123-1.335.37-.353.242-.529.55-.529.926 0 .333.121.596.364.79.242.193.621.354 1.136.482l1.296.319c.78.189 1.361.479 1.744.869.383.386.574.884.574 1.494 0 .5-.144.947-.432 1.341-.284.394-.682.705-1.193.932-.512.227-1.106.34-1.784.34-.89 0-1.627-.192-2.211-.579-.583-.386-.952-.95-1.107-1.693l1.272-.318c.121.47.351.822.688 1.057.341.235.786.352 1.335.352.625 0 1.121-.133 1.489-.398.371-.269.556-.59.556-.966 0-.303-.106-.556-.318-.761-.212-.208-.538-.364-.977-.466l-1.455-.34c-.799-.19-1.386-.484-1.761-.882-.371-.401-.557-.903-.557-1.505 0-.493.139-.928.415-1.307a2.82 2.82 0 0 1 1.142-.892c.485-.216 1.034-.324 1.648-.324.863 0 1.541.19 2.034.568.496.38.848.88 1.057 1.5Zm5.723 6.955c-.788 0-1.479-.188-2.074-.563-.591-.375-1.053-.9-1.387-1.574-.329-.674-.494-1.462-.494-2.363 0-.91.165-1.703.494-2.38.334-.679.796-1.205 1.387-1.58.595-.375 1.286-.563 2.074-.563.788 0 1.477.188 2.068.563.595.375 1.057.901 1.386 1.58.334.677.5 1.47.5 2.38 0 .901-.166 1.69-.5 2.363a3.763 3.763 0 0 1-1.386 1.574c-.591.375-1.28.563-2.068.563Zm0-1.205c.598 0 1.091-.153 1.477-.46a2.72 2.72 0 0 0 .858-1.21c.186-.5.278-1.042.278-1.625 0-.584-.092-1.127-.278-1.63a2.755 2.755 0 0 0-.858-1.222c-.386-.311-.879-.466-1.477-.466-.599 0-1.091.155-1.478.466-.386.31-.672.717-.857 1.221a4.672 4.672 0 0 0-.279 1.63c0 .584.093 1.126.279 1.626.185.5.471.903.857 1.21.387.307.879.46 1.478.46Zm7.342-4.227V53h-1.341v-8.727h1.296v1.363h.113c.205-.443.515-.799.932-1.068.417-.273.955-.409 1.614-.409.591 0 1.108.121 1.551.364a2.45 2.45 0 0 1 1.034 1.09c.246.486.369 1.1.369 1.842V53h-1.341v-5.455c0-.685-.178-1.22-.534-1.602-.356-.386-.844-.58-1.466-.58-.428 0-.81.093-1.147.279a1.988 1.988 0 0 0-.79.813c-.193.356-.29.787-.29 1.295Zm8.996 5.34a.985.985 0 0 1-.722-.3.983.983 0 0 1-.301-.722c0-.28.1-.52.301-.721a.984.984 0 0 1 .722-.302c.28 0 .521.1.721.302.201.2.302.44.302.721a.962.962 0 0 1-.143.512 1.06 1.06 0 0 1-.369.375.972.972 0 0 1-.511.136Zm7.406-10.215v-1.511h9.006v1.511h-3.631V53h-1.75V42.875h-3.625ZM237.72 53v-8.727h1.642v1.386h.091c.159-.47.44-.839.841-1.108a2.404 2.404 0 0 1 1.375-.409 7.242 7.242 0 0 1 .722.04v1.625a3.1 3.1 0 0 0-.364-.063 3.466 3.466 0 0 0-.523-.04 2.22 2.22 0 0 0-1.074.256 1.903 1.903 0 0 0-1.011 1.71V53h-1.699Zm7.48 3.273a3.51 3.51 0 0 1-.693-.063 2.182 2.182 0 0 1-.466-.125l.409-1.392c.311.084.587.12.83.108a.994.994 0 0 0 .642-.273c.189-.17.356-.448.5-.835l.21-.58-3.193-8.84h1.818l2.21 6.772h.091l2.21-6.772h1.824l-3.596 9.892a3.946 3.946 0 0 1-.637 1.153 2.465 2.465 0 0 1-.92.716c-.356.16-.769.239-1.239.239Zm16.297-12v1.363h-4.767v-1.363h4.767Zm-3.488-2.091h1.698v8.255c0 .33.05.578.148.745a.77.77 0 0 0 .381.335c.159.057.331.085.517.085.136 0 .256-.01.358-.028.102-.02.182-.034.238-.046l.307 1.404a2.823 2.823 0 0 1-.42.113 3.335 3.335 0 0 1-.682.069 2.989 2.989 0 0 1-1.25-.239 2.15 2.15 0 0 1-.938-.773c-.238-.348-.357-.786-.357-1.312v-8.608Zm8.95 10.994c-.818 0-1.532-.187-2.142-.562a3.792 3.792 0 0 1-1.421-1.574c-.337-.675-.505-1.462-.505-2.364 0-.905.168-1.697.505-2.375a3.785 3.785 0 0 1 1.421-1.58c.61-.374 1.324-.562 2.142-.562.818 0 1.532.188 2.142.563.61.375 1.083.901 1.42 1.58.337.677.506 1.469.506 2.374 0 .902-.169 1.69-.506 2.364a3.79 3.79 0 0 1-1.42 1.574c-.61.375-1.324.562-2.142.562Zm.005-1.426c.531 0 .97-.14 1.319-.42.348-.28.606-.654.772-1.12.171-.466.256-.979.256-1.54 0-.556-.085-1.068-.256-1.534a2.497 2.497 0 0 0-.772-1.13c-.349-.284-.788-.426-1.319-.426-.534 0-.977.142-1.329.426a2.53 2.53 0 0 0-.778 1.13 4.52 4.52 0 0 0-.25 1.534c0 .561.083 1.074.25 1.54.17.466.429.84.778 1.12.352.28.795.42 1.329.42Zm12.733 1.443a3.564 3.564 0 0 1-1.5-.307 2.524 2.524 0 0 1-1.062-.903c-.258-.394-.386-.877-.386-1.449 0-.492.094-.898.284-1.216.189-.318.445-.57.767-.755a4.013 4.013 0 0 1 1.079-.421 10.62 10.62 0 0 1 1.216-.216l1.273-.148c.326-.041.562-.108.71-.198.148-.091.222-.24.222-.444v-.04c0-.496-.14-.88-.421-1.153-.276-.273-.689-.409-1.238-.409-.572 0-1.023.127-1.353.38-.325.25-.551.53-.676.836l-1.596-.364c.189-.53.466-.958.829-1.284a3.37 3.37 0 0 1 1.267-.716 4.942 4.942 0 0 1 1.506-.227c.348 0 .718.042 1.108.125.394.08.761.227 1.102.443.345.216.627.525.847.926.219.398.329.915.329 1.552V53h-1.659v-1.193h-.068c-.11.22-.275.435-.494.648-.22.212-.502.388-.847.528s-.757.21-1.239.21Zm.37-1.363c.469 0 .871-.093 1.204-.279.337-.186.593-.428.767-.727.178-.303.267-.627.267-.972v-1.125c-.06.06-.178.118-.352.17-.17.05-.365.093-.585.131-.22.035-.434.067-.642.097-.208.026-.383.05-.523.068a4.2 4.2 0 0 0-.903.21c-.269.099-.485.24-.648.427-.159.181-.239.424-.239.727 0 .42.156.738.466.954.311.212.707.319 1.188.319Zm13.353-7.557L290.256 53h-1.818l-3.171-8.727h1.824l2.21 6.716h.091l2.205-6.716h1.823Zm4.976 8.903c-.818 0-1.532-.187-2.142-.562a3.79 3.79 0 0 1-1.42-1.574c-.337-.675-.506-1.462-.506-2.364 0-.905.169-1.697.506-2.375a3.783 3.783 0 0 1 1.42-1.58c.61-.374 1.324-.562 2.142-.562.818 0 1.533.188 2.142.563a3.78 3.78 0 0 1 1.421 1.58c.337.677.505 1.469.505 2.374 0 .902-.168 1.69-.505 2.364a3.792 3.792 0 0 1-1.421 1.574c-.609.375-1.324.562-2.142.562Zm.006-1.426c.53 0 .97-.14 1.318-.42.349-.28.606-.654.773-1.12.17-.466.256-.979.256-1.54 0-.556-.086-1.068-.256-1.534a2.498 2.498 0 0 0-.773-1.13c-.348-.284-.788-.426-1.318-.426-.534 0-.977.142-1.33.426a2.539 2.539 0 0 0-.778 1.13 4.52 4.52 0 0 0-.25 1.534c0 .561.083 1.074.25 1.54.17.466.43.84.778 1.12.353.28.796.42 1.33.42Zm5.959 1.25v-8.727h1.699V53h-1.699Zm.858-10.074c-.296 0-.549-.098-.762-.295a.961.961 0 0 1-.312-.716.95.95 0 0 1 .312-.716c.213-.2.466-.301.762-.301.295 0 .547.1.755.3a.939.939 0 0 1 .319.717.95.95 0 0 1-.319.716c-.208.197-.46.295-.755.295Zm6.393 10.244c-.704 0-1.333-.18-1.886-.54-.549-.363-.981-.88-1.296-1.55-.31-.675-.466-1.483-.466-2.427 0-.943.158-1.75.472-2.42.318-.67.754-1.184 1.307-1.54a3.399 3.399 0 0 1 1.881-.534c.541 0 .977.091 1.306.273.334.178.591.386.773.625.186.238.33.449.432.63h.102v-4.323h1.699V53h-1.659v-1.358h-.142c-.102.186-.25.398-.443.636-.19.239-.451.447-.784.625-.334.178-.765.267-1.296.267Zm.375-1.448c.489 0 .902-.13 1.239-.387.341-.261.598-.623.773-1.085.178-.462.267-1 .267-1.614 0-.606-.087-1.136-.262-1.59-.174-.455-.43-.81-.767-1.063-.337-.254-.754-.38-1.25-.38-.511 0-.937.132-1.278.397-.341.265-.599.627-.773 1.085-.17.459-.256.976-.256 1.551 0 .584.088 1.108.262 1.574.174.466.432.835.772 1.108.345.27.769.404 1.273.404Zm13.148 1.471a3.564 3.564 0 0 1-1.5-.307 2.533 2.533 0 0 1-1.063-.903c-.257-.394-.386-.877-.386-1.449 0-.492.095-.898.284-1.216a2.1 2.1 0 0 1 .767-.755 4.006 4.006 0 0 1 1.08-.421c.397-.095.803-.167 1.216-.216l1.272-.148c.326-.041.563-.108.711-.198.147-.091.221-.24.221-.444v-.04c0-.496-.14-.88-.42-1.153-.277-.273-.69-.409-1.239-.409-.572 0-1.023.127-1.352.38-.326.25-.551.53-.676.836l-1.597-.364c.19-.53.466-.958.83-1.284.367-.33.789-.568 1.267-.716a4.94 4.94 0 0 1 1.505-.227c.349 0 .718.042 1.108.125.394.08.762.227 1.103.443.344.216.627.525.846.926.22.398.33.915.33 1.552V53h-1.659v-1.193h-.069c-.109.22-.274.435-.494.648-.22.212-.502.388-.846.528-.345.14-.758.21-1.239.21Zm.369-1.363c.47 0 .871-.093 1.205-.279.337-.186.593-.428.767-.727.178-.303.267-.627.267-.972v-1.125c-.061.06-.178.118-.352.17a5.5 5.5 0 0 1-.586.131c-.219.035-.433.067-.642.097-.208.026-.382.05-.522.068a4.21 4.21 0 0 0-.904.21c-.269.099-.485.24-.648.427-.159.181-.238.424-.238.727 0 .42.155.738.466.954.31.212.706.319 1.187.319Zm14.111 1.346c-.818 0-1.532-.187-2.142-.562a3.79 3.79 0 0 1-1.42-1.574c-.338-.675-.506-1.462-.506-2.364 0-.905.168-1.697.506-2.375a3.783 3.783 0 0 1 1.42-1.58c.61-.374 1.324-.562 2.142-.562.818 0 1.532.188 2.142.563.61.375 1.083.901 1.421 1.58.337.677.505 1.469.505 2.374 0 .902-.168 1.69-.505 2.364a3.8 3.8 0 0 1-1.421 1.574c-.61.375-1.324.562-2.142.562Zm.006-1.426c.53 0 .969-.14 1.318-.42a2.47 2.47 0 0 0 .773-1.12c.17-.466.255-.979.255-1.54 0-.556-.085-1.068-.255-1.534a2.506 2.506 0 0 0-.773-1.13c-.349-.284-.788-.426-1.318-.426-.534 0-.978.142-1.33.426a2.539 2.539 0 0 0-.778 1.13 4.52 4.52 0 0 0-.25 1.534c0 .561.083 1.074.25 1.54.17.466.43.84.778 1.12.352.28.796.42 1.33.42Zm7.657-3.932V53h-1.698v-8.727h1.63v1.42h.108c.201-.462.515-.833.943-1.113.432-.28.976-.42 1.631-.42.595 0 1.116.124 1.563.374.447.246.793.614 1.039 1.102.247.489.37 1.093.37 1.813V53h-1.699v-5.347c0-.632-.165-1.127-.495-1.483-.329-.36-.782-.54-1.358-.54a2.13 2.13 0 0 0-1.051.256c-.303.17-.543.42-.721.75-.174.326-.262.72-.262 1.182Zm11.625 5.358c-.859 0-1.6-.184-2.221-.551a3.734 3.734 0 0 1-1.432-1.563c-.333-.674-.5-1.463-.5-2.369 0-.894.167-1.682.5-2.363a3.883 3.883 0 0 1 1.409-1.597c.606-.383 1.314-.574 2.125-.574.493 0 .97.081 1.432.244.462.163.877.419 1.244.767.368.349.657.802.87 1.358.212.553.318 1.226.318 2.017v.603h-6.938v-1.273h5.273c0-.447-.091-.843-.273-1.188a2.06 2.06 0 0 0-.767-.823c-.326-.201-.708-.301-1.148-.301-.477 0-.893.117-1.25.352a2.364 2.364 0 0 0-.818.909 2.629 2.629 0 0 0-.284 1.21v.994c0 .584.102 1.08.307 1.489.208.41.498.722.869.938.372.212.805.318 1.301.318a2.7 2.7 0 0 0 .881-.137 1.91 1.91 0 0 0 .688-.42c.193-.186.341-.415.443-.688l1.608.29c-.129.474-.36.888-.693 1.245-.33.352-.745.626-1.245.823-.496.194-1.062.29-1.699.29Zm10.772-5.83v1.472h-5.159v-1.471h5.159Zm8.804-.943-1.54.273a1.821 1.821 0 0 0-.307-.562 1.515 1.515 0 0 0-.557-.438c-.235-.114-.528-.17-.88-.17-.481 0-.883.108-1.205.324-.322.212-.483.486-.483.823 0 .292.108.527.324.705.216.178.564.324 1.045.438l1.387.318c.803.185 1.401.471 1.795.858.394.386.591.888.591 1.505 0 .523-.151.989-.454 1.398-.3.405-.718.724-1.256.955-.534.23-1.153.346-1.858.346-.977 0-1.775-.208-2.392-.625-.618-.42-.996-1.017-1.136-1.79l1.642-.25c.102.428.312.752.63.972.318.216.733.324 1.245.324.556 0 1.001-.116 1.335-.347.333-.235.5-.52.5-.858a.89.89 0 0 0-.307-.687c-.201-.186-.509-.326-.926-.42l-1.477-.325c-.815-.185-1.417-.48-1.807-.886-.387-.405-.58-.919-.58-1.54a2.2 2.2 0 0 1 .432-1.352c.288-.386.686-.688 1.193-.903.508-.22 1.089-.33 1.745-.33.943 0 1.685.205 2.227.614.541.405.899.949 1.074 1.63ZM380.517 53v-8.727h1.699V53h-1.699Zm.858-10.074a1.08 1.08 0 0 1-.761-.295.959.959 0 0 1-.313-.716c0-.28.104-.52.313-.716.212-.2.466-.301.761-.301s.547.1.756.3a.941.941 0 0 1 .318.717.953.953 0 0 1-.318.716 1.063 1.063 0 0 1-.756.295Zm6.393 10.244c-.704 0-1.333-.18-1.886-.54-.549-.363-.981-.88-1.295-1.55-.311-.675-.466-1.483-.466-2.427 0-.943.157-1.75.471-2.42.319-.67.754-1.184 1.307-1.54a3.399 3.399 0 0 1 1.881-.534c.541 0 .977.091 1.307.273.333.178.591.386.772.625.186.238.33.449.432.63h.102v-4.323h1.699V53h-1.659v-1.358h-.142c-.102.186-.25.398-.443.636a2.462 2.462 0 0 1-.784.625c-.333.178-.765.267-1.296.267Zm.375-1.448c.489 0 .902-.13 1.239-.387.341-.261.599-.623.773-1.085.178-.462.267-1 .267-1.614 0-.606-.087-1.136-.261-1.59-.175-.455-.43-.81-.768-1.063-.337-.254-.753-.38-1.25-.38-.511 0-.937.132-1.278.397-.341.265-.598.627-.773 1.085-.17.459-.255.976-.255 1.551 0 .584.087 1.108.261 1.574.174.466.432.835.773 1.108.344.27.769.404 1.272.404Zm10.135 1.454c-.859 0-1.6-.184-2.221-.551a3.734 3.734 0 0 1-1.432-1.563c-.333-.674-.5-1.463-.5-2.369 0-.894.167-1.682.5-2.363a3.883 3.883 0 0 1 1.409-1.597c.606-.383 1.314-.574 2.125-.574.493 0 .97.081 1.432.244.462.163.877.419 1.244.767.368.349.657.802.87 1.358.212.553.318 1.226.318 2.017v.603h-6.938v-1.273h5.273c0-.447-.091-.843-.273-1.188a2.06 2.06 0 0 0-.767-.823c-.326-.201-.708-.301-1.148-.301-.477 0-.893.117-1.25.352a2.364 2.364 0 0 0-.818.909 2.629 2.629 0 0 0-.284 1.21v.994c0 .584.102 1.08.307 1.489.208.41.498.722.869.938.372.212.805.318 1.301.318a2.7 2.7 0 0 0 .881-.137 1.91 1.91 0 0 0 .688-.42c.193-.186.341-.415.443-.688l1.608.29c-.129.474-.36.888-.693 1.245-.33.352-.745.626-1.245.823-.496.194-1.062.29-1.699.29Zm8.897-.006c-.705 0-1.334-.18-1.887-.54-.549-.363-.981-.88-1.295-1.55-.311-.675-.466-1.483-.466-2.427 0-.943.157-1.75.472-2.42.318-.67.753-1.184 1.306-1.54a3.399 3.399 0 0 1 1.881-.534c.542 0 .977.091 1.307.273.333.178.591.386.773.625.185.238.329.449.431.63h.103v-4.323h1.699V53h-1.66v-1.358h-.142c-.102.186-.25.398-.443.636a2.45 2.45 0 0 1-.784.625c-.333.178-.765.267-1.295.267Zm.375-1.448c.488 0 .901-.13 1.238-.387.341-.261.599-.623.773-1.085.178-.462.267-1 .267-1.614 0-.606-.087-1.136-.261-1.59-.174-.455-.43-.81-.767-1.063-.337-.254-.754-.38-1.25-.38-.512 0-.938.132-1.279.397-.341.265-.598.627-.772 1.085a4.414 4.414 0 0 0-.256 1.551c0 .584.087 1.108.261 1.574.175.466.432.835.773 1.108.345.27.769.404 1.273.404ZM418.158 53v-8.727h1.642v1.386h.091c.159-.47.439-.839.841-1.108a2.402 2.402 0 0 1 1.375-.409 7.242 7.242 0 0 1 .721.04v1.625a3.022 3.022 0 0 0-.364-.063 3.462 3.462 0 0 0-.522-.04c-.402 0-.76.086-1.074.256a1.899 1.899 0 0 0-1.011 1.71V53h-1.699Zm9.589.176c-.86 0-1.6-.184-2.221-.551a3.734 3.734 0 0 1-1.432-1.563c-.334-.674-.5-1.463-.5-2.369 0-.894.166-1.682.5-2.363a3.883 3.883 0 0 1 1.409-1.597c.606-.383 1.314-.574 2.125-.574.492 0 .97.081 1.432.244.462.163.877.419 1.244.767.367.349.657.802.869 1.358.212.553.318 1.226.318 2.017v.603h-6.937v-1.273h5.273c0-.447-.091-.843-.273-1.188a2.067 2.067 0 0 0-.767-.823c-.326-.201-.708-.301-1.148-.301-.477 0-.894.117-1.25.352a2.364 2.364 0 0 0-.818.909 2.629 2.629 0 0 0-.284 1.21v.994c0 .584.102 1.08.307 1.489.208.41.498.722.869.938.371.212.805.318 1.301.318a2.7 2.7 0 0 0 .881-.137 1.827 1.827 0 0 0 1.131-1.108l1.608.29c-.129.474-.36.888-.694 1.245a3.354 3.354 0 0 1-1.244.823c-.496.194-1.062.29-1.699.29Zm7.328-11.812V53h-1.699V41.364h1.699Zm4.826 11.83a3.564 3.564 0 0 1-1.5-.308 2.527 2.527 0 0 1-1.063-.903c-.258-.394-.386-.877-.386-1.449 0-.492.094-.898.284-1.216.189-.318.445-.57.767-.755a4.013 4.013 0 0 1 1.079-.421 10.62 10.62 0 0 1 1.216-.216l1.273-.148c.326-.041.563-.108.71-.198.148-.091.222-.24.222-.444v-.04c0-.496-.14-.88-.421-1.153-.276-.273-.689-.409-1.238-.409-.572 0-1.023.127-1.353.38-.325.25-.551.53-.676.836l-1.596-.364c.189-.53.466-.958.829-1.284a3.37 3.37 0 0 1 1.267-.716 4.97 4.97 0 0 1 1.506-.227c.349 0 .718.042 1.108.125.394.08.761.227 1.102.443.345.216.627.525.847.926.22.398.329.915.329 1.552V53h-1.659v-1.193h-.068c-.11.22-.275.435-.494.648-.22.212-.502.388-.847.528-.344.14-.757.21-1.238.21Zm.369-1.364c.47 0 .871-.093 1.204-.279.338-.186.593-.428.767-.727.179-.303.268-.627.268-.972v-1.125c-.061.06-.179.118-.353.17-.17.05-.365.093-.585.131-.22.035-.434.067-.642.097-.208.026-.383.05-.523.068a4.27 4.27 0 0 0-.903.21c-.269.099-.485.24-.648.427-.159.181-.239.424-.239.727 0 .42.156.738.466.954.311.212.707.319 1.188.319Zm10.274-7.557v1.363h-4.767v-1.363h4.767Zm-3.489-2.091h1.699v8.255c0 .33.05.578.148.745a.766.766 0 0 0 .381.335c.159.057.331.085.517.085a2 2 0 0 0 .358-.028l.238-.046.307 1.404a2.859 2.859 0 0 1-.42.113 3.335 3.335 0 0 1-.682.069 2.989 2.989 0 0 1-1.25-.239 2.144 2.144 0 0 1-.938-.773c-.238-.348-.358-.786-.358-1.312v-8.608ZM452.423 53v-8.727h1.699V53h-1.699Zm.858-10.074a1.08 1.08 0 0 1-.761-.295.962.962 0 0 1-.313-.716.95.95 0 0 1 .313-.716c.212-.2.466-.301.761-.301.296 0 .548.1.756.3a.941.941 0 0 1 .318.717.953.953 0 0 1-.318.716 1.06 1.06 0 0 1-.756.295Zm6.803 10.25c-.818 0-1.532-.187-2.142-.562a3.792 3.792 0 0 1-1.421-1.574c-.337-.675-.505-1.462-.505-2.364 0-.905.168-1.697.505-2.375a3.785 3.785 0 0 1 1.421-1.58c.61-.374 1.324-.562 2.142-.562.818 0 1.532.188 2.142.563.61.375 1.083.901 1.42 1.58.337.677.506 1.469.506 2.374 0 .902-.169 1.69-.506 2.364a3.79 3.79 0 0 1-1.42 1.574c-.61.375-1.324.562-2.142.562Zm.005-1.426c.531 0 .97-.14 1.319-.42.348-.28.606-.654.772-1.12.171-.466.256-.979.256-1.54 0-.556-.085-1.068-.256-1.534a2.497 2.497 0 0 0-.772-1.13c-.349-.284-.788-.426-1.319-.426-.534 0-.977.142-1.329.426a2.53 2.53 0 0 0-.778 1.13 4.52 4.52 0 0 0-.25 1.534c0 .561.083 1.074.25 1.54.17.466.429.84.778 1.12.352.28.795.42 1.329.42Zm7.658-3.932V53h-1.699v-8.727h1.631v1.42h.108c.201-.462.515-.833.943-1.113.432-.28.975-.42 1.631-.42.594 0 1.115.124 1.562.374.447.246.794.614 1.04 1.102.246.489.369 1.093.369 1.813V53h-1.698v-5.347c0-.632-.165-1.127-.495-1.483-.329-.36-.782-.54-1.358-.54-.394 0-.744.086-1.051.256-.303.17-.543.42-.721.75-.175.326-.262.72-.262 1.182Zm14.404-1.415-1.54.273a1.842 1.842 0 0 0-.307-.562 1.515 1.515 0 0 0-.557-.438c-.235-.114-.528-.17-.881-.17-.481 0-.882.108-1.204.324-.322.212-.483.486-.483.823 0 .292.108.527.324.705.216.178.564.324 1.045.438l1.387.318c.803.185 1.401.471 1.795.858.394.386.591.888.591 1.505 0 .523-.151.989-.455 1.398-.299.405-.717.724-1.255.955-.534.23-1.154.346-1.858.346-.977 0-1.775-.208-2.392-.625-.618-.42-.996-1.017-1.137-1.79l1.642-.25c.103.428.313.752.631.972.318.216.733.324 1.244.324.557 0 1.002-.116 1.336-.347.333-.235.5-.52.5-.858a.893.893 0 0 0-.307-.687c-.201-.186-.51-.326-.926-.42l-1.478-.325c-.814-.185-1.416-.48-1.806-.886-.387-.405-.58-.919-.58-1.54a2.2 2.2 0 0 1 .432-1.352c.288-.386.686-.688 1.193-.903.508-.22 1.089-.33 1.744-.33.944 0 1.686.205 2.228.614.541.405.899.949 1.074 1.63Zm3.737 1.415V53h-1.699V41.364h1.676v4.33h.108c.205-.47.517-.844.938-1.12.42-.277.969-.415 1.647-.415.599 0 1.121.123 1.568.37.451.246.8.613 1.046 1.102.25.484.375 1.09.375 1.818V53h-1.699v-5.347c0-.64-.165-1.136-.494-1.488-.33-.356-.788-.534-1.375-.534a2.25 2.25 0 0 0-1.08.255 1.84 1.84 0 0 0-.744.75c-.178.326-.267.72-.267 1.182ZM493.814 53v-8.727h1.699V53h-1.699Zm.858-10.074c-.296 0-.549-.098-.761-.295a.959.959 0 0 1-.313-.716c0-.28.104-.52.313-.716.212-.2.465-.301.761-.301.295 0 .547.1.756.3a.941.941 0 0 1 .318.717.953.953 0 0 1-.318.716 1.063 1.063 0 0 1-.756.295Zm3.126 13.347v-12h1.659v1.414h.142c.099-.181.241-.392.427-.63.185-.239.443-.447.772-.625.33-.182.765-.273 1.307-.273.705 0 1.333.178 1.886.534.554.356.987.87 1.302 1.54.318.67.477 1.477.477 2.42 0 .944-.157 1.752-.472 2.427-.314.67-.746 1.187-1.295 1.55-.549.36-1.176.54-1.881.54-.53 0-.964-.089-1.301-.267a2.462 2.462 0 0 1-.784-.625 4.839 4.839 0 0 1-.438-.636h-.102v4.63h-1.699Zm1.665-7.637c0 .614.089 1.152.267 1.614.178.462.436.824.773 1.085.337.258.75.387 1.238.387.508 0 .932-.135 1.273-.404.341-.273.599-.642.773-1.108.178-.466.267-.99.267-1.574a4.34 4.34 0 0 0-.261-1.55c-.171-.46-.428-.82-.773-1.086-.341-.265-.767-.398-1.279-.398-.492 0-.909.127-1.25.381-.337.254-.592.608-.767 1.063-.174.454-.261.984-.261 1.59Zm9.33 4.472c-.311 0-.578-.11-.802-.33a1.102 1.102 0 0 1-.335-.806c0-.311.112-.576.335-.796.224-.223.491-.335.802-.335.31 0 .577.112.801.335.223.22.335.485.335.796 0 .208-.053.4-.159.573-.102.17-.239.307-.409.41-.171.102-.36.153-.568.153Z"/>
  <rect width="584" height="74" x="1.5" y="1.5" stroke="#D9EAEF" stroke-width="3" rx="18.5"/>
</svg>
