<svg xmlns="http://www.w3.org/2000/svg" width="1043" height="35" fill="none" viewBox="0 0 1043 35">
  <rect width="77" height="35" fill="#F6E0AA" rx="17.5"/>
  <path fill="#000" d="M20.73 14.563c-.054-.497-.277-.883-.671-1.16-.39-.276-.898-.414-1.523-.414-.44 0-.816.066-1.13.198-.315.133-.555.313-.722.54a1.313 1.313 0 0 0-.256.779c0 .242.055.452.165.63.114.178.267.33.46.455.193.121.407.223.642.307.235.083.472.153.71.21l1.091.273c.44.102.862.24 1.268.415a4.43 4.43 0 0 1 1.096.659c.326.265.583.585.773.96.19.375.284.814.284 1.318 0 .682-.174 1.282-.523 1.801-.348.515-.852.919-1.511 1.21-.655.288-1.45.432-2.38.432-.906 0-1.692-.14-2.359-.42-.663-.28-1.182-.69-1.557-1.228-.37-.537-.572-1.193-.602-1.965h2.074c.03.405.155.742.375 1.01.22.27.506.47.858.603a3.39 3.39 0 0 0 1.193.199c.458 0 .86-.068 1.205-.204.348-.14.62-.334.818-.58a1.4 1.4 0 0 0 .3-.875c-.003-.303-.092-.553-.266-.75-.174-.2-.419-.367-.733-.5a7.051 7.051 0 0 0-1.091-.364l-1.324-.34c-.958-.247-1.716-.62-2.273-1.12-.553-.504-.83-1.172-.83-2.006 0-.685.186-1.286.558-1.8.375-.516.884-.915 1.528-1.2.644-.287 1.373-.431 2.188-.431.825 0 1.549.143 2.17.431.625.285 1.116.68 1.472 1.188a3.02 3.02 0 0 1 .55 1.739H20.73Zm8.333-.29v1.59h-5.017v-1.59h5.017Zm-3.778-2.091h2.057v8.193c0 .276.041.489.125.636.087.144.2.243.34.296.14.053.296.08.466.08a2 2 0 0 0 .353-.029c.11-.019.193-.036.25-.051l.346 1.608a4.59 4.59 0 0 1-.471.125 3.933 3.933 0 0 1-.739.08 3.354 3.354 0 0 1-1.392-.234 2.165 2.165 0 0 1-.983-.806c-.239-.364-.356-.819-.352-1.364v-8.534Zm9.268 10.989c-.875 0-1.63-.182-2.267-.546a3.694 3.694 0 0 1-1.46-1.557c-.34-.674-.511-1.468-.511-2.38 0-.898.17-1.686.511-2.364a3.866 3.866 0 0 1 1.443-1.591c.618-.383 1.343-.574 2.176-.574a4.41 4.41 0 0 1 1.523.261c.481.17.905.436 1.273.796.371.36.663.818.875 1.375.212.553.318 1.212.318 1.977v.63H31.28v-1.386h5.181a2.213 2.213 0 0 0-.255-1.05 1.859 1.859 0 0 0-.7-.734 1.965 1.965 0 0 0-1.033-.267c-.42 0-.79.103-1.108.307-.318.2-.566.466-.745.796a2.29 2.29 0 0 0-.267 1.073v1.21c0 .508.093.944.279 1.308.185.36.445.636.778.83.334.189.724.283 1.17.283.3 0 .57-.042.813-.125.243-.087.453-.214.63-.38.179-.167.313-.374.404-.62l1.92.216c-.12.508-.352.95-.692 1.33a3.379 3.379 0 0 1-1.296.875c-.526.204-1.129.306-1.807.306Zm5.621 3.102v-12h2.023v1.443h.12a3.78 3.78 0 0 1 .448-.676 2.38 2.38 0 0 1 .784-.62c.33-.174.75-.26 1.261-.26a3.32 3.32 0 0 1 1.824.516c.546.341.977.847 1.296 1.517.322.667.483 1.485.483 2.455 0 .958-.158 1.773-.472 2.443-.314.67-.742 1.182-1.284 1.534a3.302 3.302 0 0 1-1.84.528c-.5 0-.916-.083-1.245-.25a2.53 2.53 0 0 1-.796-.602 3.894 3.894 0 0 1-.46-.676h-.085v4.648h-2.057Zm2.017-7.637c0 .565.08 1.06.239 1.483.163.425.395.756.699.995.306.235.678.352 1.113.352.455 0 .835-.121 1.142-.364.307-.246.538-.581.693-1.005.16-.428.24-.915.24-1.46 0-.542-.079-1.023-.234-1.444-.155-.42-.386-.75-.693-.989-.307-.238-.69-.357-1.148-.357-.44 0-.812.115-1.12.346-.306.231-.539.555-.698.972-.155.416-.233.907-.233 1.471Zm11.719 2.205v-1.676l4.937-7.801h1.398v2.386h-.852l-3.324 5.267v.091h6.892v1.733H53.91ZM59.46 23v-2.67l.024-.75v-8.216h1.988V23h-2.011Zm39.012-7.937c-.053-.497-.277-.883-.67-1.16-.391-.276-.899-.414-1.524-.414-.439 0-.816.066-1.13.198-.315.133-.555.313-.722.54a1.312 1.312 0 0 0-.255.779c0 .242.054.452.164.63.114.178.267.33.46.455.194.121.408.223.642.307.235.083.472.153.71.21l1.092.273c.439.102.861.24 1.267.415a4.43 4.43 0 0 1 1.096.659c.326.265.584.585.773.96.189.375.284.814.284 1.318 0 .682-.174 1.282-.523 1.801-.348.515-.852.919-1.511 1.21-.655.288-1.449.432-2.38.432-.906 0-1.692-.14-2.359-.42-.662-.28-1.181-.69-1.556-1.228-.372-.537-.572-1.193-.603-1.965h2.074c.03.405.155.742.375 1.01.22.27.506.47.858.603a3.39 3.39 0 0 0 1.193.199c.459 0 .86-.068 1.205-.204.348-.14.621-.334.818-.58a1.4 1.4 0 0 0 .301-.875c-.004-.303-.093-.553-.267-.75-.174-.2-.419-.367-.733-.5a7.051 7.051 0 0 0-1.09-.364l-1.325-.34c-.958-.247-1.715-.62-2.272-1.12-.553-.504-.83-1.172-.83-2.006 0-.685.186-1.286.557-1.8.375-.516.884-.915 1.528-1.2.644-.287 1.373-.431 2.188-.431.826 0 1.55.143 2.17.431.625.285 1.116.68 1.472 1.188a3.03 3.03 0 0 1 .551 1.739h-2.028Zm8.333-.29v1.59h-5.017v-1.59h5.017Zm-3.778-2.091h2.057v8.193c0 .276.041.489.125.636a.675.675 0 0 0 .341.296c.14.053.295.08.466.08.128 0 .246-.01.352-.029.11-.019.193-.036.25-.051l.346 1.608c-.109.038-.267.08-.471.125a3.871 3.871 0 0 1-.739.08 3.355 3.355 0 0 1-1.392-.234 2.168 2.168 0 0 1-.983-.806c-.238-.364-.356-.819-.352-1.364v-8.534Zm8.01 10.994a3.639 3.639 0 0 1-1.494-.295 2.44 2.44 0 0 1-1.046-.887c-.254-.39-.381-.87-.381-1.443 0-.492.091-.9.273-1.221.182-.322.43-.58.745-.773a3.746 3.746 0 0 1 1.062-.438 8.657 8.657 0 0 1 1.233-.221c.511-.053.926-.1 1.244-.142.318-.046.55-.114.693-.205.148-.095.222-.24.222-.437v-.035c0-.428-.127-.759-.381-.994-.253-.235-.619-.352-1.096-.352-.504 0-.904.11-1.199.33-.292.22-.489.479-.591.778l-1.92-.273c.151-.53.401-.973.75-1.33.348-.36.774-.628 1.278-.806a4.893 4.893 0 0 1 1.67-.273c.421 0 .839.05 1.256.148.417.098.797.261 1.142.489.345.223.621.528.83.914.212.387.318.87.318 1.45v5.84h-1.977v-1.199h-.069c-.125.243-.301.47-.528.682a2.538 2.538 0 0 1-.847.506 3.411 3.411 0 0 1-1.187.187Zm.534-1.511c.413 0 .771-.082 1.074-.244a1.81 1.81 0 0 0 .699-.66c.166-.272.25-.57.25-.892v-1.028a.97.97 0 0 1-.33.148 4.64 4.64 0 0 1-.511.119c-.19.034-.377.064-.563.09l-.483.069a3.59 3.59 0 0 0-.823.205 1.365 1.365 0 0 0-.574.397c-.14.167-.211.383-.211.648 0 .379.139.665.415.858.277.193.629.29 1.057.29Zm7.108 4.608c-.28 0-.54-.023-.778-.069a2.88 2.88 0 0 1-.563-.147l.477-1.602c.3.087.567.128.801.125a.984.984 0 0 0 .62-.222c.182-.14.335-.375.46-.705l.176-.471-3.165-8.91h2.182l2.012 6.592h.09l2.018-6.591h2.187l-3.494 9.784a3.92 3.92 0 0 1-.648 1.187 2.635 2.635 0 0 1-.989.762c-.386.178-.848.267-1.386.267Zm11.909-3.273v-8.727h2.057V23.5h-2.057Zm1.034-9.966a1.2 1.2 0 0 1-.841-.324 1.043 1.043 0 0 1-.352-.79c0-.31.117-.573.352-.79.235-.219.515-.329.841-.329.33 0 .61.11.841.33.235.216.352.479.352.79 0 .306-.117.57-.352.79a1.186 1.186 0 0 1-.841.323Zm5.195 4.852V23.5h-2.057v-8.727h1.966v1.483h.102c.201-.489.521-.877.96-1.165.444-.288.991-.432 1.642-.432.603 0 1.127.129 1.574.386.451.258.8.631 1.046 1.12.25.488.373 1.081.369 1.778V23.5h-2.057v-5.239c0-.583-.151-1.04-.454-1.369-.3-.33-.714-.494-1.245-.494-.359 0-.68.08-.96.238a1.66 1.66 0 0 0-.653.677c-.156.295-.233.653-.233 1.073Zm21.713-2.596h-2.125a2.67 2.67 0 0 0-.335-.926 2.498 2.498 0 0 0-.608-.694 2.538 2.538 0 0 0-.83-.426 3.235 3.235 0 0 0-.994-.147c-.633 0-1.193.159-1.682.477-.489.314-.871.776-1.148 1.386-.276.606-.415 1.347-.415 2.222 0 .89.139 1.64.415 2.25.281.606.663 1.064 1.148 1.375.489.307 1.047.46 1.676.46.349 0 .674-.045.977-.136a2.67 2.67 0 0 0 .824-.415 2.45 2.45 0 0 0 .62-.67 2.56 2.56 0 0 0 .352-.91l2.125.012a4.588 4.588 0 0 1-.517 1.556 4.589 4.589 0 0 1-1.029 1.285c-.424.367-.92.655-1.488.863a5.554 5.554 0 0 1-1.892.307c-1.023 0-1.936-.237-2.739-.71-.803-.474-1.436-1.157-1.898-2.051-.462-.894-.693-1.966-.693-3.216 0-1.254.233-2.326.699-3.216.466-.894 1.1-1.578 1.903-2.051.803-.474 1.713-.71 2.728-.71.647 0 1.25.09 1.807.272a4.626 4.626 0 0 1 1.488.801c.436.349.794.777 1.074 1.284.284.504.47 1.08.557 1.728Zm5.646 7.88c-.852 0-1.591-.187-2.216-.562a3.814 3.814 0 0 1-1.454-1.574c-.341-.674-.512-1.462-.512-2.363 0-.902.171-1.692.512-2.37a3.806 3.806 0 0 1 1.454-1.58c.625-.374 1.364-.562 2.216-.562.852 0 1.591.188 2.216.563a3.775 3.775 0 0 1 1.449 1.58c.345.677.517 1.467.517 2.369 0 .901-.172 1.689-.517 2.363a3.783 3.783 0 0 1-1.449 1.574c-.625.375-1.364.563-2.216.563Zm.012-1.647c.462 0 .848-.127 1.159-.381.31-.258.541-.602.693-1.034.155-.432.233-.913.233-1.443 0-.534-.078-1.017-.233-1.45-.152-.435-.383-.781-.693-1.039-.311-.257-.697-.386-1.159-.386-.474 0-.868.129-1.182.386-.311.258-.544.604-.699 1.04a4.343 4.343 0 0 0-.227 1.449c0 .53.075 1.011.227 1.443.155.432.388.776.699 1.034.314.254.708.38 1.182.38Zm7.973-3.637V23.5h-2.057v-8.727h1.966v1.483h.102c.201-.489.521-.877.96-1.165.443-.288.991-.432 1.642-.432.602 0 1.127.129 1.574.386a2.6 2.6 0 0 1 1.045 1.12c.25.488.374 1.081.37 1.778V23.5h-2.057v-5.239c0-.583-.152-1.04-.455-1.369-.299-.33-.714-.494-1.244-.494-.36 0-.68.08-.96.238a1.662 1.662 0 0 0-.654.677c-.155.295-.232.653-.232 1.073Zm12.051-3.613v1.59h-5.017v-1.59h5.017Zm-3.779-2.091h2.057v8.193c0 .276.042.489.125.636a.675.675 0 0 0 .341.296c.14.053.295.08.466.08.129 0 .246-.01.352-.029.11-.019.193-.036.25-.051l.347 1.608c-.11.038-.267.08-.472.125a3.87 3.87 0 0 1-.738.08 3.357 3.357 0 0 1-1.393-.234 2.165 2.165 0 0 1-.982-.806c-.239-.364-.357-.819-.353-1.364v-8.534Zm8.01 10.994a3.639 3.639 0 0 1-1.494-.295 2.44 2.44 0 0 1-1.046-.887c-.253-.39-.38-.87-.38-1.443 0-.492.091-.9.272-1.221.182-.322.43-.58.745-.773a3.746 3.746 0 0 1 1.062-.438 8.657 8.657 0 0 1 1.233-.221c.512-.053.926-.1 1.245-.142.318-.046.549-.114.693-.205.147-.095.221-.24.221-.437v-.035c0-.428-.127-.759-.38-.994-.254-.235-.62-.352-1.097-.352-.504 0-.903.11-1.199.33-.291.22-.488.479-.591.778l-1.92-.273c.151-.53.401-.973.75-1.33.348-.36.774-.628 1.278-.806a4.894 4.894 0 0 1 1.671-.273c.42 0 .839.05 1.255.148.417.098.798.261 1.142.489.345.223.622.528.83.914.212.387.318.87.318 1.45v5.84h-1.977v-1.199h-.068a2.5 2.5 0 0 1-.529.682 2.533 2.533 0 0 1-.846.506c-.337.125-.733.187-1.188.187Zm.534-1.511c.413 0 .771-.082 1.074-.244a1.81 1.81 0 0 0 .699-.66c.167-.272.25-.57.25-.892v-1.028a.96.96 0 0 1-.33.148 4.64 4.64 0 0 1-.511.119 14.86 14.86 0 0 1-.562.09l-.483.069c-.307.042-.582.11-.824.205a1.365 1.365 0 0 0-.574.397c-.14.167-.21.383-.21.648 0 .379.138.665.414.858.277.193.629.29 1.057.29Zm9.949 1.506c-.871 0-1.619-.192-2.244-.574a3.834 3.834 0 0 1-1.438-1.586c-.333-.678-.5-1.458-.5-2.34 0-.887.171-1.67.512-2.347a3.817 3.817 0 0 1 1.443-1.591c.625-.383 1.364-.574 2.216-.574.708 0 1.335.13 1.88.392.55.258.987.623 1.313 1.097.326.47.511 1.019.557 1.648h-1.966a1.886 1.886 0 0 0-.568-1.052c-.296-.284-.692-.426-1.188-.426-.42 0-.79.114-1.108.341-.318.224-.566.546-.744.966-.174.42-.261.924-.261 1.511 0 .595.087 1.106.261 1.535.174.424.418.751.733.982a1.87 1.87 0 0 0 1.119.341c.303 0 .574-.056.813-.17.242-.118.445-.286.608-.506.163-.22.274-.487.335-.801h1.966a3.42 3.42 0 0 1-.546 1.642 3.224 3.224 0 0 1-1.284 1.114c-.541.265-1.178.398-1.909.398Zm9.786-8.898v1.59h-5.017v-1.59h5.017Zm-3.779-2.091h2.057v8.193c0 .276.042.489.125.636a.675.675 0 0 0 .341.296c.14.053.295.08.466.08.129 0 .246-.01.352-.029.11-.019.193-.036.25-.051l.347 1.608c-.11.038-.267.08-.472.125a3.87 3.87 0 0 1-.738.08 3.357 3.357 0 0 1-1.393-.234 2.165 2.165 0 0 1-.982-.806c-.239-.364-.357-.819-.353-1.364v-8.534Z"/>
</svg>
