<svg xmlns="http://www.w3.org/2000/svg" width="1043" height="35" fill="none" viewBox="0 0 1043 35">
  <rect width="77" height="35" fill="#F8EFDA" rx="17.5"/>
  <path fill="#000" d="M22.214 16.563c-.053-.497-.277-.883-.67-1.16-.39-.276-.898-.414-1.523-.414-.44 0-.817.066-1.131.198-.314.133-.555.313-.722.54a1.313 1.313 0 0 0-.255.779c0 .242.055.452.164.63.114.178.267.33.46.455.194.121.408.223.643.307.235.083.471.153.71.21l1.09.273c.44.102.863.24 1.268.415a4.43 4.43 0 0 1 1.096.659c.326.265.584.585.773.96.19.375.284.814.284 1.318 0 .682-.174 1.282-.522 1.801-.349.515-.853.919-1.512 1.21-.655.288-1.449.432-2.38.432-.906 0-1.692-.14-2.358-.42-.663-.28-1.182-.69-1.557-1.228-.371-.537-.572-1.193-.602-1.965h2.073c.03.405.156.742.375 1.01.22.27.506.47.858.603a3.39 3.39 0 0 0 1.194.199c.458 0 .86-.068 1.204-.204a1.95 1.95 0 0 0 .818-.58 1.4 1.4 0 0 0 .301-.875c-.003-.303-.092-.553-.267-.75-.174-.2-.418-.367-.733-.5a7.051 7.051 0 0 0-1.09-.364l-1.324-.34c-.959-.247-1.716-.62-2.273-1.12-.553-.504-.83-1.172-.83-2.006 0-.685.186-1.286.557-1.8.375-.516.885-.915 1.529-1.2.643-.287 1.373-.431 2.187-.431.826 0 1.55.143 2.17.431.625.285 1.116.68 1.472 1.188a3.03 3.03 0 0 1 .551 1.739h-2.028Zm8.334-.29v1.59H25.53v-1.59h5.017Zm-3.779-2.091h2.057v8.193c0 .276.042.489.125.636.087.144.2.243.34.296.141.053.296.08.467.08.129 0 .246-.01.352-.029.11-.019.193-.036.25-.051l.347 1.608c-.11.038-.267.08-.472.125-.2.045-.447.072-.739.08a3.354 3.354 0 0 1-1.392-.234 2.166 2.166 0 0 1-.983-.806c-.238-.364-.356-.819-.352-1.364v-8.534Zm9.269 10.989c-.875 0-1.631-.182-2.267-.546a3.694 3.694 0 0 1-1.46-1.557c-.341-.674-.512-1.468-.512-2.38 0-.898.17-1.686.511-2.364a3.866 3.866 0 0 1 1.444-1.591c.617-.383 1.342-.574 2.176-.574.538 0 1.045.087 1.522.262.482.17.906.435 1.273.795.371.36.663.818.875 1.375.212.553.318 1.212.318 1.977v.63h-7.153v-1.386h5.182a2.213 2.213 0 0 0-.256-1.05 1.86 1.86 0 0 0-.699-.734 1.965 1.965 0 0 0-1.034-.267c-.42 0-.79.103-1.108.307-.318.2-.566.466-.744.796a2.29 2.29 0 0 0-.267 1.073v1.21c0 .508.093.944.278 1.308.186.36.445.636.779.83.333.189.723.283 1.17.283.3 0 .57-.042.813-.125a1.81 1.81 0 0 0 .63-.38c.178-.167.313-.374.404-.62l1.92.216c-.121.508-.352.95-.693 1.33a3.379 3.379 0 0 1-1.296.875c-.526.204-1.128.306-1.806.306Zm5.62 3.102v-12h2.023v1.443h.12c.105-.212.255-.438.448-.676a2.38 2.38 0 0 1 .784-.62c.33-.174.75-.26 1.262-.26.674 0 1.282.171 1.824.516.545.341.977.847 1.295 1.517.322.667.483 1.485.483 2.455 0 .958-.157 1.773-.472 2.443-.314.67-.742 1.182-1.284 1.534a3.302 3.302 0 0 1-1.84.528c-.5 0-.915-.083-1.245-.25a2.53 2.53 0 0 1-.795-.602 3.9 3.9 0 0 1-.46-.676h-.086v4.648h-2.057Zm2.017-7.637c0 .565.08 1.06.24 1.483.162.425.395.756.698.995.307.235.678.352 1.114.352.454 0 .835-.121 1.142-.364.306-.246.538-.581.693-1.005.159-.428.238-.915.238-1.46 0-.542-.077-1.023-.232-1.444-.156-.42-.387-.75-.694-.989-.306-.238-.69-.357-1.147-.357-.44 0-.813.115-1.12.346-.307.231-.54.555-.699.972-.155.416-.233.907-.233 1.471Zm16.662-7.272V25H58.23v-9.585h-.068l-2.721 1.738v-1.931l2.892-1.858h2.005Zm38.135 2.199c-.053-.497-.277-.883-.67-1.16-.391-.276-.899-.414-1.524-.414-.439 0-.816.066-1.13.198-.315.133-.555.313-.722.54a1.312 1.312 0 0 0-.255.779c0 .242.054.452.164.63.114.178.267.33.46.455.194.121.408.223.642.307.235.083.472.153.71.21l1.092.273c.439.102.861.24 1.267.415a4.43 4.43 0 0 1 1.096.659c.326.265.584.585.773.96.189.375.284.814.284 1.318 0 .682-.174 1.282-.523 1.801-.348.515-.852.919-1.511 1.21-.655.288-1.449.432-2.38.432-.906 0-1.692-.14-2.359-.42-.662-.28-1.181-.69-1.556-1.228-.372-.537-.572-1.193-.603-1.965h2.074c.03.405.155.742.375 1.01.22.27.506.47.858.603a3.39 3.39 0 0 0 1.193.199c.459 0 .86-.068 1.205-.204.348-.14.621-.334.818-.58a1.4 1.4 0 0 0 .301-.875c-.004-.303-.093-.553-.267-.75-.174-.2-.419-.367-.733-.5a7.051 7.051 0 0 0-1.09-.364l-1.325-.34c-.958-.247-1.715-.62-2.272-1.12-.553-.504-.83-1.172-.83-2.006 0-.685.186-1.286.557-1.8.375-.516.884-.915 1.528-1.2.644-.287 1.373-.431 2.188-.431.826 0 1.55.143 2.17.431.625.285 1.116.68 1.472 1.188a3.03 3.03 0 0 1 .551 1.739h-2.028Zm7.839 8.607c-.875 0-1.631-.181-2.267-.545a3.692 3.692 0 0 1-1.46-1.557c-.341-.674-.512-1.468-.512-2.38 0-.898.171-1.686.512-2.364a3.87 3.87 0 0 1 1.443-1.591c.617-.383 1.343-.574 2.176-.574a4.41 4.41 0 0 1 1.523.261c.481.17.905.436 1.273.796.371.36.662.818.875 1.375.212.553.318 1.212.318 1.977v.63h-7.154v-1.386h5.182a2.211 2.211 0 0 0-.256-1.05 1.854 1.854 0 0 0-.698-.734 1.968 1.968 0 0 0-1.034-.267c-.421 0-.79.103-1.108.307-.319.2-.567.466-.745.796a2.295 2.295 0 0 0-.267 1.073v1.21c0 .508.093.944.279 1.308.185.36.445.636.778.83.333.189.724.283 1.17.283.3 0 .571-.042.813-.125.242-.087.453-.214.631-.38.178-.167.312-.374.403-.62l1.921.216c-.122.508-.353.95-.694 1.33a3.38 3.38 0 0 1-1.295.875c-.527.204-1.129.306-1.807.306Zm7.678-5.284V24h-2.057v-8.727h1.966v1.483H114c.201-.489.521-.877.96-1.165.443-.288.991-.432 1.642-.432.603 0 1.127.129 1.574.386.451.258.799.631 1.046 1.12.25.488.373 1.081.369 1.778V24h-2.057v-5.239c0-.583-.151-1.04-.454-1.369-.3-.33-.714-.494-1.245-.494-.36 0-.68.08-.96.238a1.65 1.65 0 0 0-.653.677c-.156.295-.233.653-.233 1.073Zm10.931 5.267a3.299 3.299 0 0 1-1.84-.528c-.542-.352-.97-.864-1.285-1.534-.314-.67-.471-1.485-.471-2.443 0-.97.159-1.788.477-2.455.322-.67.756-1.176 1.301-1.517a3.347 3.347 0 0 1 1.824-.517c.512 0 .932.087 1.262.261.329.17.59.377.784.62.193.238.342.464.448.676h.086v-4.352h2.062V24h-2.023v-1.375h-.125a3.498 3.498 0 0 1-.46.676 2.538 2.538 0 0 1-.795.602c-.33.167-.745.25-1.245.25Zm.574-1.687c.436 0 .807-.117 1.114-.352.307-.239.54-.57.699-.995.159-.424.238-.918.238-1.483 0-.564-.079-1.055-.238-1.471-.155-.417-.387-.74-.693-.972-.303-.23-.676-.346-1.12-.346-.458 0-.841.119-1.147.357-.307.24-.538.569-.694.99-.155.42-.233.9-.233 1.442 0 .546.078 1.033.233 1.46.16.425.392.76.699 1.006.311.243.692.364 1.142.364Zm12.746 1.71a3.639 3.639 0 0 1-1.494-.295 2.44 2.44 0 0 1-1.046-.887c-.254-.39-.38-.87-.38-1.443 0-.492.091-.9.272-1.221.182-.322.43-.58.745-.773a3.746 3.746 0 0 1 1.062-.438 8.657 8.657 0 0 1 1.233-.221c.511-.053.926-.1 1.244-.142.319-.046.55-.114.694-.205.147-.095.221-.24.221-.437v-.035c0-.428-.127-.759-.38-.994-.254-.235-.62-.352-1.097-.352-.504 0-.903.11-1.199.33-.292.22-.489.479-.591.778l-1.92-.273c.151-.53.401-.973.75-1.33.348-.36.774-.628 1.278-.806a4.894 4.894 0 0 1 1.671-.273c.42 0 .839.05 1.255.148.417.098.798.261 1.142.489.345.223.621.528.83.914.212.387.318.87.318 1.45V24h-1.977v-1.199h-.068a2.52 2.52 0 0 1-.529.682 2.543 2.543 0 0 1-.846.506 3.417 3.417 0 0 1-1.188.187Zm.534-1.511c.413 0 .771-.082 1.074-.244a1.81 1.81 0 0 0 .699-.66c.167-.272.25-.57.25-.892v-1.028a.97.97 0 0 1-.33.148 4.64 4.64 0 0 1-.511.119 15.88 15.88 0 0 1-.563.09l-.482.069c-.307.042-.582.11-.824.205a1.365 1.365 0 0 0-.574.397c-.14.167-.21.383-.21.648 0 .379.138.665.414.858.277.193.629.29 1.057.29Zm8.199-3.779V24h-2.057v-8.727h1.966v1.483h.102c.201-.489.521-.877.961-1.165.443-.288.99-.432 1.642-.432.602 0 1.127.129 1.574.386.45.258.799.631 1.045 1.12.25.488.373 1.081.369 1.778V24h-2.057v-5.239c0-.583-.151-1.04-.454-1.369-.299-.33-.714-.494-1.244-.494-.36 0-.68.08-.961.238a1.66 1.66 0 0 0-.653.677c-.155.295-.233.653-.233 1.073Zm22.151-.704c0 1.254-.235 2.328-.705 3.221-.466.89-1.102 1.572-1.909 2.046-.803.473-1.714.71-2.733.71-1.019 0-1.932-.237-2.739-.71-.803-.477-1.439-1.161-1.909-2.051-.466-.894-.699-1.966-.699-3.216 0-1.254.233-2.326.699-3.216.47-.894 1.106-1.578 1.909-2.051.807-.474 1.72-.71 2.739-.71s1.93.236 2.733.71c.807.473 1.443 1.157 1.909 2.05.47.891.705 1.963.705 3.217Zm-2.12 0c0-.883-.138-1.627-.415-2.233-.272-.61-.651-1.07-1.136-1.38-.485-.315-1.043-.472-1.676-.472s-1.191.157-1.676.471c-.485.31-.866.771-1.142 1.38-.273.607-.409 1.351-.409 2.234 0 .882.136 1.629.409 2.239.276.605.657 1.066 1.142 1.38.485.31 1.043.466 1.676.466s1.191-.155 1.676-.466c.485-.314.864-.774 1.136-1.38.277-.61.415-1.357.415-2.24Zm9.584 2.148v-5.057h2.057V24h-1.994v-1.551h-.091a2.624 2.624 0 0 1-.972 1.199c-.447.31-.998.466-1.653.466-.572 0-1.078-.127-1.517-.381a2.643 2.643 0 0 1-1.023-1.12c-.246-.492-.369-1.087-.369-1.784v-5.556h2.056v5.238c0 .553.152.993.455 1.319.303.325.701.488 1.193.488.303 0 .597-.074.881-.221.284-.148.517-.368.699-.66.185-.295.278-.664.278-1.108Zm8.53-5.057v1.59h-5.017v-1.59h5.017Zm-3.779-2.091h2.057v8.193c0 .276.042.489.125.636a.675.675 0 0 0 .341.296c.14.053.296.08.466.08.129 0 .246-.01.352-.029a3.08 3.08 0 0 0 .25-.051l.347 1.608c-.11.038-.267.08-.472.125a3.86 3.86 0 0 1-.738.08 3.355 3.355 0 0 1-1.392-.234 2.163 2.163 0 0 1-.983-.806c-.239-.364-.356-.819-.353-1.364v-8.534ZM186.838 24v-8.727h1.994v1.454h.091c.159-.503.432-.892.818-1.165a2.256 2.256 0 0 1 1.336-.414c.113 0 .24.005.38.017.144.007.264.02.358.04v1.892a2.162 2.162 0 0 0-.414-.08 3.828 3.828 0 0 0-.54-.04c-.375 0-.712.082-1.012.245-.295.159-.528.38-.698.664a1.868 1.868 0 0 0-.256.983V24h-2.057Zm9.848.17c-.875 0-1.631-.181-2.267-.545a3.692 3.692 0 0 1-1.46-1.557c-.341-.674-.512-1.468-.512-2.38 0-.898.171-1.686.512-2.364a3.87 3.87 0 0 1 1.443-1.591c.617-.383 1.343-.574 2.176-.574a4.41 4.41 0 0 1 1.523.261c.481.17.905.436 1.273.796.371.36.662.818.875 1.375.212.553.318 1.212.318 1.977v.63h-7.154v-1.386h5.182a2.211 2.211 0 0 0-.256-1.05 1.854 1.854 0 0 0-.698-.734 1.968 1.968 0 0 0-1.034-.267c-.421 0-.79.103-1.108.307-.319.2-.567.466-.745.796a2.295 2.295 0 0 0-.267 1.073v1.21c0 .508.093.944.279 1.308.185.36.445.636.778.83.333.189.724.283 1.17.283.3 0 .571-.042.813-.125.242-.087.453-.214.631-.38.178-.167.312-.374.403-.62l1.921.216c-.122.508-.353.95-.694 1.33a3.38 3.38 0 0 1-1.295.875c-.527.204-1.129.306-1.807.306Zm8.132.006a3.639 3.639 0 0 1-1.494-.295 2.44 2.44 0 0 1-1.046-.887c-.253-.39-.38-.87-.38-1.443 0-.492.091-.9.272-1.221.182-.322.43-.58.745-.773a3.746 3.746 0 0 1 1.062-.438 8.657 8.657 0 0 1 1.233-.221c.512-.053.926-.1 1.245-.142.318-.046.549-.114.693-.205.147-.095.221-.24.221-.437v-.035c0-.428-.127-.759-.38-.994-.254-.235-.62-.352-1.097-.352-.504 0-.903.11-1.199.33-.291.22-.488.479-.591.778l-1.92-.273c.151-.53.401-.973.75-1.33.348-.36.774-.628 1.278-.806a4.894 4.894 0 0 1 1.671-.273c.42 0 .839.05 1.255.148.417.098.798.261 1.142.489.345.223.622.528.83.914.212.387.318.87.318 1.45V24h-1.977v-1.199h-.068a2.5 2.5 0 0 1-.529.682 2.533 2.533 0 0 1-.846.506c-.337.125-.733.187-1.188.187Zm.534-1.511c.413 0 .771-.082 1.074-.244a1.81 1.81 0 0 0 .699-.66c.167-.272.25-.57.25-.892v-1.028a.96.96 0 0 1-.33.148 4.64 4.64 0 0 1-.511.119 14.86 14.86 0 0 1-.562.09l-.483.069c-.307.042-.582.11-.824.205a1.365 1.365 0 0 0-.574.397c-.14.167-.21.383-.21.648 0 .379.138.665.414.858.277.193.629.29 1.057.29Zm9.949 1.506c-.871 0-1.619-.192-2.244-.574a3.834 3.834 0 0 1-1.438-1.586c-.333-.678-.5-1.458-.5-2.34 0-.887.171-1.67.512-2.347a3.817 3.817 0 0 1 1.443-1.591c.625-.383 1.364-.574 2.216-.574.708 0 1.335.13 1.88.392.55.258.987.623 1.313 1.097.326.47.511 1.019.557 1.648h-1.966a1.886 1.886 0 0 0-.568-1.052c-.296-.284-.692-.426-1.188-.426-.42 0-.79.114-1.108.341-.318.224-.566.546-.744.966-.174.42-.261.924-.261 1.511 0 .595.087 1.106.261 1.535.174.424.418.751.733.982a1.87 1.87 0 0 0 1.119.341c.303 0 .574-.056.813-.17.242-.118.445-.286.608-.506.163-.22.274-.487.335-.801h1.966a3.42 3.42 0 0 1-.546 1.642 3.224 3.224 0 0 1-1.284 1.114c-.541.265-1.178.398-1.909.398Zm7.485-5.285V24h-2.057V12.364h2.011v4.392h.102c.205-.493.521-.881.949-1.165.432-.288.981-.432 1.648-.432.606 0 1.134.127 1.585.38.451.255.799.626 1.046 1.114.25.489.375 1.086.375 1.79V24h-2.057v-5.239c0-.587-.152-1.043-.455-1.369-.299-.33-.719-.494-1.261-.494-.364 0-.69.08-.977.238a1.676 1.676 0 0 0-.671.677c-.159.295-.238.653-.238 1.073ZM234.601 24V12.364h7.568v1.767h-5.46v3.159h5.068v1.767h-5.068v3.176h5.505V24h-7.613Zm9.628 0v-8.727h1.966v1.483h.102c.182-.5.483-.89.903-1.17.421-.285.923-.427 1.506-.427.591 0 1.089.144 1.494.432.409.284.697.672.864 1.165h.091c.193-.485.519-.872.977-1.16.462-.291 1.01-.437 1.642-.437.803 0 1.458.254 1.966.761.508.508.761 1.249.761 2.222V24h-2.062v-5.54c0-.541-.144-.937-.432-1.187a1.542 1.542 0 0 0-1.057-.381c-.496 0-.884.155-1.164.466-.277.307-.415.706-.415 1.199V24h-2.017v-5.625c0-.45-.137-.81-.409-1.08-.269-.269-.622-.403-1.057-.403a1.49 1.49 0 0 0-.807.227 1.59 1.59 0 0 0-.58.631 1.969 1.969 0 0 0-.215.943V24h-2.057Zm16.87.176a3.639 3.639 0 0 1-1.494-.295 2.436 2.436 0 0 1-1.045-.887c-.254-.39-.381-.87-.381-1.443 0-.492.091-.9.273-1.221.182-.322.43-.58.744-.773a3.752 3.752 0 0 1 1.063-.438 8.618 8.618 0 0 1 1.232-.221c.512-.053.927-.1 1.245-.142.318-.046.549-.114.693-.205.148-.095.222-.24.222-.437v-.035c0-.428-.127-.759-.381-.994s-.619-.352-1.097-.352c-.503 0-.903.11-1.199.33-.291.22-.488.479-.59.778l-1.921-.273c.152-.53.402-.973.75-1.33a3.27 3.27 0 0 1 1.278-.806 4.894 4.894 0 0 1 1.671-.273c.42 0 .839.05 1.256.148.416.098.797.261 1.142.489.344.223.621.528.829.914.212.387.318.87.318 1.45V24h-1.977v-1.199h-.068c-.125.243-.301.47-.528.682a2.548 2.548 0 0 1-.847.506c-.337.125-.733.187-1.188.187Zm.535-1.511c.412 0 .77-.082 1.073-.244a1.81 1.81 0 0 0 .699-.66c.167-.272.25-.57.25-.892v-1.028a.962.962 0 0 1-.329.148 4.662 4.662 0 0 1-.512.119 14.86 14.86 0 0 1-.562.09l-.483.069c-.307.042-.582.11-.824.205a1.371 1.371 0 0 0-.574.397c-.14.167-.21.383-.21.648 0 .379.138.665.415.858.276.193.628.29 1.057.29ZM267.776 24v-8.727h2.056V24h-2.056Zm1.034-9.966a1.2 1.2 0 0 1-.841-.324 1.044 1.044 0 0 1-.353-.79c0-.31.118-.573.353-.79.235-.219.515-.329.841-.329.329 0 .61.11.841.33.234.216.352.479.352.79 0 .306-.118.57-.352.79a1.188 1.188 0 0 1-.841.323Zm5.194-1.67V24h-2.057V12.364h2.057Z"/>
</svg>
