<svg xmlns="http://www.w3.org/2000/svg" width="1045" height="35" fill="none" viewBox="0 0 1045 35">
  <rect width="77" height="35" fill="#F6E0AA" rx="17.5"/>
  <path fill="#000" d="M20.847 14.563c-.053-.497-.277-.883-.67-1.16-.391-.276-.899-.414-1.524-.414-.439 0-.816.066-1.13.198-.315.133-.555.313-.722.54a1.312 1.312 0 0 0-.255.779c0 .242.054.452.164.63.114.178.267.33.46.455.194.121.408.223.642.307.235.083.472.153.71.21l1.092.273c.439.102.861.24 1.267.415a4.43 4.43 0 0 1 1.096.659c.326.265.584.585.773.96.19.375.284.814.284 1.318 0 .682-.174 1.282-.523 1.801-.348.515-.852.919-1.511 1.21-.655.288-1.449.432-2.38.432-.906 0-1.692-.14-2.359-.42-.662-.28-1.181-.69-1.556-1.228-.372-.537-.572-1.193-.603-1.965h2.074c.03.405.155.742.375 1.01.22.27.506.47.858.603a3.39 3.39 0 0 0 1.193.199c.459 0 .86-.068 1.205-.204.348-.14.621-.334.818-.58a1.4 1.4 0 0 0 .301-.875c-.004-.303-.093-.553-.267-.75-.174-.2-.418-.367-.733-.5a7.051 7.051 0 0 0-1.09-.364l-1.325-.34c-.958-.247-1.715-.62-2.272-1.12-.553-.504-.83-1.172-.83-2.006 0-.685.186-1.286.557-1.8.375-.516.884-.915 1.528-1.2.644-.287 1.373-.431 2.188-.431.826 0 1.55.143 2.17.431.625.285 1.116.68 1.472 1.188a3.03 3.03 0 0 1 .551 1.739h-2.028Zm8.333-.29v1.59h-5.017v-1.59h5.017Zm-3.778-2.091h2.057v8.193c0 .276.041.489.125.636.087.144.2.243.34.296.14.053.296.08.467.08.128 0 .246-.01.352-.029.11-.019.193-.036.25-.051l.347 1.608c-.11.038-.268.08-.472.125-.2.045-.447.072-.739.08a3.354 3.354 0 0 1-1.392-.234 2.165 2.165 0 0 1-.983-.806c-.238-.364-.356-.819-.352-1.364v-8.534ZM34.67 23.17c-.875 0-1.63-.182-2.267-.546a3.694 3.694 0 0 1-1.46-1.557c-.34-.674-.511-1.468-.511-2.38 0-.898.17-1.686.511-2.364a3.866 3.866 0 0 1 1.443-1.591c.618-.383 1.343-.574 2.176-.574a4.41 4.41 0 0 1 1.523.261c.481.17.905.436 1.273.796.371.36.663.818.875 1.375.212.553.318 1.212.318 1.977v.63h-7.153v-1.386h5.182a2.212 2.212 0 0 0-.256-1.05 1.86 1.86 0 0 0-.699-.734 1.965 1.965 0 0 0-1.034-.267c-.42 0-.79.103-1.108.307-.318.2-.566.466-.744.796a2.29 2.29 0 0 0-.267 1.073v1.21c0 .508.092.944.278 1.308.186.36.445.636.778.83.334.189.724.283 1.17.283.3 0 .57-.042.813-.125.243-.087.453-.214.631-.38.178-.167.313-.374.403-.62l1.92.216c-.12.508-.351.95-.692 1.33a3.379 3.379 0 0 1-1.296.875c-.526.204-1.128.306-1.806.306Zm5.621 3.102v-12h2.023v1.443h.12c.105-.212.255-.438.448-.676a2.38 2.38 0 0 1 .784-.62c.33-.174.75-.26 1.262-.26.674 0 1.282.171 1.823.516.546.341.978.847 1.296 1.517.322.667.483 1.485.483 2.455 0 .958-.157 1.773-.472 2.443-.314.67-.742 1.182-1.284 1.534a3.302 3.302 0 0 1-1.84.528c-.5 0-.915-.083-1.245-.25a2.53 2.53 0 0 1-.795-.602 3.9 3.9 0 0 1-.46-.676h-.086v4.648h-2.057Zm2.017-7.637c0 .565.08 1.06.239 1.483.163.425.396.756.699.995.307.235.678.352 1.113.352.455 0 .836-.121 1.142-.364.307-.246.538-.581.694-1.005.159-.428.238-.915.238-1.46 0-.542-.077-1.023-.233-1.444-.155-.42-.386-.75-.693-.989-.307-.238-.69-.357-1.148-.357-.439 0-.812.115-1.119.346-.307.231-.54.555-.699.972-.155.416-.233.907-.233 1.471Zm16.105 4.523c-.818 0-1.545-.14-2.181-.42-.633-.28-1.133-.67-1.5-1.17a3.034 3.034 0 0 1-.586-1.734h2.137c.019.315.123.59.312.824.19.231.441.411.756.54.314.129.666.193 1.057.193.416 0 .786-.072 1.108-.216a1.82 1.82 0 0 0 .755-.613c.182-.262.271-.563.267-.904a1.57 1.57 0 0 0-.272-.932c-.186-.269-.455-.479-.807-.63-.349-.152-.77-.228-1.262-.228H57.17v-1.625h1.028c.406 0 .76-.07 1.063-.21.307-.14.547-.337.721-.59a1.52 1.52 0 0 0 .256-.893 1.55 1.55 0 0 0-.221-.858 1.496 1.496 0 0 0-.631-.574 2.074 2.074 0 0 0-.949-.204c-.356 0-.685.064-.989.193a1.798 1.798 0 0 0-.733.551 1.397 1.397 0 0 0-.295.841h-2.028c.015-.652.202-1.223.562-1.716a3.63 3.63 0 0 1 1.455-1.159c.606-.28 1.286-.42 2.04-.42.776 0 1.45.145 2.022.437.576.288 1.021.676 1.335 1.165.315.489.472 1.028.472 1.62.004.654-.19 1.204-.58 1.647-.386.443-.894.733-1.522.87v.09c.818.114 1.445.417 1.88.91.44.488.658 1.096.654 1.823a2.92 2.92 0 0 1-.557 1.75c-.367.511-.875.913-1.523 1.205-.644.291-1.382.437-2.216.437Zm33.735.342V11.864h7.454v1.767h-5.346v3.159h4.835v1.767h-4.835V23.5h-2.108Zm12.45.17c-.852 0-1.591-.187-2.216-.562a3.814 3.814 0 0 1-1.454-1.574c-.341-.674-.512-1.462-.512-2.363 0-.902.171-1.692.512-2.37a3.806 3.806 0 0 1 1.454-1.58c.625-.374 1.364-.562 2.216-.562.852 0 1.591.188 2.216.563a3.775 3.775 0 0 1 1.449 1.58c.344.677.517 1.467.517 2.369 0 .901-.173 1.689-.517 2.363a3.783 3.783 0 0 1-1.449 1.574c-.625.375-1.364.563-2.216.563Zm.011-1.647c.462 0 .849-.127 1.159-.381.311-.258.542-.602.694-1.034.155-.432.233-.913.233-1.443 0-.534-.078-1.017-.233-1.45-.152-.435-.383-.781-.694-1.039-.31-.257-.697-.386-1.159-.386-.473 0-.867.129-1.181.386-.311.258-.544.604-.699 1.04a4.343 4.343 0 0 0-.228 1.449c0 .53.076 1.011.228 1.443.155.432.388.776.699 1.034.314.254.708.38 1.181.38Zm7.973-10.16V23.5h-2.056V11.864h2.056Zm4.172 0V23.5h-2.057V11.864h2.057Zm5.922 11.808c-.852 0-1.591-.188-2.216-.563a3.814 3.814 0 0 1-1.454-1.574c-.341-.674-.512-1.462-.512-2.363 0-.902.171-1.692.512-2.37a3.806 3.806 0 0 1 1.454-1.58c.625-.374 1.364-.562 2.216-.562.852 0 1.591.188 2.216.563a3.775 3.775 0 0 1 1.449 1.58c.345.677.517 1.467.517 2.369 0 .901-.172 1.689-.517 2.363a3.783 3.783 0 0 1-1.449 1.574c-.625.375-1.364.563-2.216.563Zm.012-1.648c.462 0 .848-.127 1.159-.381.31-.258.541-.602.693-1.034.155-.432.233-.913.233-1.443 0-.534-.078-1.017-.233-1.45-.152-.435-.383-.781-.693-1.039-.311-.257-.697-.386-1.159-.386-.474 0-.868.129-1.182.386-.311.258-.544.604-.699 1.04a4.343 4.343 0 0 0-.227 1.449c0 .53.075 1.011.227 1.443.155.432.388.776.699 1.034.314.254.708.38 1.182.38Zm7.467 1.477-2.466-8.727h2.097l1.534 6.136h.079l1.568-6.136h2.074l1.568 6.102h.086l1.511-6.102h2.102l-2.471 8.727h-2.142l-1.637-5.898h-.119l-1.636 5.898h-2.148Zm16.879-5.693V19.5h-5.239v-1.693h5.239Zm7.726 2.023v-5.057h2.057V23.5h-1.995v-1.551h-.09a2.624 2.624 0 0 1-.972 1.199c-.447.31-.998.466-1.653.466-.572 0-1.078-.127-1.518-.381a2.647 2.647 0 0 1-1.022-1.12c-.246-.492-.37-1.087-.37-1.784v-5.556h2.057v5.238c0 .553.152.993.455 1.319.303.325.701.488 1.193.488.303 0 .597-.074.881-.221.284-.148.517-.368.699-.66.185-.295.278-.664.278-1.108Zm4.172 6.943v-12h2.023v1.443h.119c.106-.212.256-.438.449-.676.193-.243.454-.45.784-.62.329-.174.75-.26 1.261-.26.674 0 1.282.171 1.824.516.546.341.977.847 1.296 1.517.321.667.482 1.485.482 2.455 0 .958-.157 1.773-.471 2.443-.315.67-.743 1.182-1.284 1.534a3.304 3.304 0 0 1-1.841.528c-.5 0-.915-.083-1.244-.25a2.531 2.531 0 0 1-.796-.602 3.903 3.903 0 0 1-.46-.676h-.085v4.648h-2.057Zm2.017-7.637c0 .565.079 1.06.239 1.483.162.425.395.756.698.995.307.235.678.352 1.114.352.455 0 .835-.121 1.142-.364.307-.246.538-.581.693-1.005.159-.428.239-.915.239-1.46 0-.542-.078-1.023-.233-1.444-.155-.42-.386-.75-.693-.989-.307-.238-.69-.357-1.148-.357-.439 0-.812.115-1.119.346-.307.231-.54.555-.699.972-.155.416-.233.907-.233 1.471Zm13.753 4.364-2.466-8.727h2.096l1.534 6.136h.08l1.568-6.136h2.074l1.568 6.102h.085l1.512-6.102h2.102l-2.471 8.727h-2.143l-1.636-5.898h-.119l-1.637 5.898h-2.147Zm11.589 0v-8.727h2.057V23.5h-2.057Zm1.034-9.966c-.325 0-.606-.108-.841-.324a1.047 1.047 0 0 1-.352-.79c0-.31.118-.573.352-.79.235-.219.516-.329.841-.329.33 0 .61.11.841.33.235.216.352.479.352.79 0 .306-.117.57-.352.79a1.186 1.186 0 0 1-.841.323Zm7.496 1.239v1.59h-5.017v-1.59h5.017Zm-3.778-2.091h2.056v8.193c0 .276.042.489.125.636a.679.679 0 0 0 .341.296c.14.053.296.08.466.08.129 0 .246-.01.353-.029.109-.019.193-.036.25-.051l.346 1.608c-.11.038-.267.08-.471.125a3.871 3.871 0 0 1-.739.08 3.355 3.355 0 0 1-1.392-.234 2.163 2.163 0 0 1-.983-.806c-.239-.364-.356-.819-.352-1.364v-8.534Zm7.743 5.704V23.5h-2.057V11.864h2.011v4.392h.102c.205-.493.521-.881.949-1.165.432-.288.981-.432 1.648-.432.606 0 1.134.127 1.585.38.451.255.799.626 1.046 1.114.25.489.375 1.086.375 1.79V23.5h-2.057v-5.239c0-.587-.152-1.043-.455-1.369-.299-.33-.719-.494-1.261-.494-.364 0-.69.08-.977.238a1.676 1.676 0 0 0-.671.677c-.159.295-.238.653-.238 1.073Zm14.235 5.29a3.639 3.639 0 0 1-1.494-.295 2.436 2.436 0 0 1-1.045-.887c-.254-.39-.381-.87-.381-1.443 0-.492.091-.9.273-1.221.181-.322.43-.58.744-.773a3.746 3.746 0 0 1 1.062-.438 8.657 8.657 0 0 1 1.233-.221c.512-.053.926-.1 1.245-.142.318-.046.549-.114.693-.205.148-.095.221-.24.221-.437v-.035c0-.428-.126-.759-.38-.994s-.62-.352-1.097-.352c-.504 0-.903.11-1.199.33-.291.22-.488.479-.591.778l-1.92-.273c.151-.53.401-.973.75-1.33a3.26 3.26 0 0 1 1.278-.806 4.894 4.894 0 0 1 1.671-.273c.42 0 .839.05 1.255.148.417.098.798.261 1.143.489.344.223.621.528.829.914.212.387.318.87.318 1.45v5.84h-1.977v-1.199h-.068a2.5 2.5 0 0 1-.529.682 2.533 2.533 0 0 1-.846.506c-.337.125-.733.187-1.188.187Zm.534-1.511c.413 0 .771-.082 1.074-.244a1.81 1.81 0 0 0 .699-.66c.167-.272.25-.57.25-.892v-1.028a.962.962 0 0 1-.329.148 4.662 4.662 0 0 1-.512.119 14.86 14.86 0 0 1-.562.09l-.483.069c-.307.042-.582.11-.824.205a1.365 1.365 0 0 0-.574.397c-.14.167-.21.383-.21.648 0 .379.138.665.415.858.276.193.628.29 1.056.29Zm9.691-8.534v-1.767h9.284v1.767h-3.597V23.5h-2.091v-9.87h-3.596Zm13.04 4.755V23.5h-2.057V11.864h2.011v4.392h.102c.205-.493.521-.881.949-1.165.432-.288.981-.432 1.648-.432.606 0 1.134.127 1.585.38.451.255.799.626 1.046 1.114.25.489.375 1.086.375 1.79V23.5h-2.057v-5.239c0-.587-.152-1.043-.455-1.369-.299-.33-.719-.494-1.261-.494-.364 0-.69.08-.977.238a1.676 1.676 0 0 0-.671.677c-.159.295-.238.653-.238 1.073Zm10.267 5.29a3.643 3.643 0 0 1-1.495-.295 2.436 2.436 0 0 1-1.045-.887c-.254-.39-.381-.87-.381-1.443 0-.492.091-.9.273-1.221.182-.322.43-.58.744-.773a3.764 3.764 0 0 1 1.063-.438 8.607 8.607 0 0 1 1.233-.221c.511-.053.926-.1 1.244-.142.318-.046.549-.114.693-.205.148-.095.222-.24.222-.437v-.035c0-.428-.127-.759-.381-.994s-.619-.352-1.097-.352c-.503 0-.903.11-1.198.33-.292.22-.489.479-.591.778l-1.921-.273c.152-.53.402-.973.75-1.33.349-.36.775-.628 1.279-.806a4.884 4.884 0 0 1 1.67-.273c.421 0 .839.05 1.256.148.416.098.797.261 1.142.489.344.223.621.528.829.914.212.387.319.87.319 1.45v5.84h-1.978v-1.199h-.068c-.125.243-.301.47-.528.682a2.548 2.548 0 0 1-.847.506 3.411 3.411 0 0 1-1.187.187Zm.534-1.511c.413 0 .77-.082 1.074-.244.303-.167.535-.387.698-.66.167-.272.25-.57.25-.892v-1.028a.962.962 0 0 1-.329.148 4.662 4.662 0 0 1-.512.119c-.189.034-.376.064-.562.09l-.483.069a3.6 3.6 0 0 0-.824.205 1.371 1.371 0 0 0-.574.397c-.14.167-.21.383-.21.648 0 .379.138.665.415.858.276.193.629.29 1.057.29Zm8.199-3.779V23.5h-2.057v-8.727h1.966v1.483h.102c.201-.489.521-.877.96-1.165.443-.288.991-.432 1.642-.432.602 0 1.127.129 1.574.386a2.6 2.6 0 0 1 1.045 1.12c.25.488.374 1.081.37 1.778V23.5h-2.057v-5.239c0-.583-.152-1.04-.455-1.369-.299-.33-.714-.494-1.244-.494-.36 0-.68.08-.96.238a1.662 1.662 0 0 0-.654.677c-.155.295-.232.653-.232 1.073Zm9.568 2.375-.006-2.483h.33l3.136-3.505h2.403l-3.858 4.295h-.426l-1.579 1.693Zm-1.875 2.739V11.864h2.057V23.5h-2.057Zm5.477 0-2.841-3.972 1.386-1.448 3.915 5.42h-2.46Zm8.484-5.693V19.5h-5.238v-1.693h5.238Zm3.442 8.966c-.28 0-.54-.023-.778-.069a2.88 2.88 0 0 1-.563-.147l.477-1.602c.3.087.567.128.802.125a.983.983 0 0 0 .619-.222c.182-.14.335-.375.46-.705l.176-.471-3.164-8.91h2.181l2.012 6.592h.091l2.017-6.591h2.187l-3.494 9.784a3.92 3.92 0 0 1-.648 1.187 2.628 2.628 0 0 1-.989.762c-.386.178-.848.267-1.386.267Zm11.45-3.102c-.852 0-1.591-.188-2.216-.563a3.82 3.82 0 0 1-1.454-1.574c-.341-.674-.511-1.462-.511-2.363 0-.902.17-1.692.511-2.37a3.813 3.813 0 0 1 1.454-1.58c.625-.374 1.364-.562 2.216-.562.853 0 1.591.188 2.216.563a3.775 3.775 0 0 1 1.449 1.58c.345.677.517 1.467.517 2.369 0 .901-.172 1.689-.517 2.363a3.783 3.783 0 0 1-1.449 1.574c-.625.375-1.363.563-2.216.563Zm.012-1.648c.462 0 .848-.127 1.159-.381.31-.258.542-.602.693-1.034.155-.432.233-.913.233-1.443 0-.534-.078-1.017-.233-1.45a2.293 2.293 0 0 0-.693-1.039c-.311-.257-.697-.386-1.159-.386-.474 0-.868.129-1.182.386-.311.258-.544.604-.699 1.04a4.369 4.369 0 0 0-.227 1.449c0 .53.076 1.011.227 1.443.155.432.388.776.699 1.034.314.254.708.38 1.182.38Zm11.478-2.194v-5.056h2.057V23.5h-1.994v-1.551h-.091a2.624 2.624 0 0 1-.972 1.199c-.447.31-.998.466-1.653.466-.572 0-1.078-.127-1.517-.381a2.643 2.643 0 0 1-1.023-1.12c-.246-.492-.369-1.087-.369-1.784v-5.556h2.057v5.238c0 .553.151.993.454 1.319.303.325.701.488 1.193.488.304 0 .597-.074.881-.221.284-.148.517-.368.699-.66.186-.295.278-.664.278-1.108Zm17.794-7.965V23.5h-1.875l-5.482-7.926h-.097V23.5h-2.108V11.864h1.886l5.478 7.931h.102v-7.931h2.096Zm6.013 11.806c-.852 0-1.591-.187-2.216-.562a3.82 3.82 0 0 1-1.454-1.574c-.341-.674-.512-1.462-.512-2.363 0-.902.171-1.692.512-2.37a3.813 3.813 0 0 1 1.454-1.58c.625-.374 1.364-.562 2.216-.562.853 0 1.591.188 2.216.563a3.775 3.775 0 0 1 1.449 1.58c.345.677.517 1.467.517 2.369 0 .901-.172 1.689-.517 2.363a3.783 3.783 0 0 1-1.449 1.574c-.625.375-1.363.563-2.216.563Zm.012-1.647c.462 0 .848-.127 1.159-.381.31-.258.541-.602.693-1.034.155-.432.233-.913.233-1.443 0-.534-.078-1.017-.233-1.45-.152-.435-.383-.781-.693-1.039-.311-.257-.697-.386-1.159-.386-.474 0-.868.129-1.182.386-.311.258-.544.604-.699 1.04a4.343 4.343 0 0 0-.227 1.449c0 .53.075 1.011.227 1.443.155.432.388.776.699 1.034.314.254.708.38 1.182.38Zm10.274-7.25v1.59h-5.017v-1.59h5.017Zm-3.779-2.091h2.057v8.193c0 .276.042.489.125.636a.675.675 0 0 0 .341.296c.14.053.296.08.466.08.129 0 .246-.01.352-.029.11-.019.193-.036.25-.051l.347 1.608c-.11.038-.267.08-.472.125a3.86 3.86 0 0 1-.738.08 3.349 3.349 0 0 1-1.392-.234 2.163 2.163 0 0 1-.983-.806c-.239-.364-.356-.819-.353-1.364v-8.534Zm9.269 10.989c-.875 0-1.631-.182-2.267-.546a3.685 3.685 0 0 1-1.46-1.557c-.341-.674-.512-1.468-.512-2.38 0-.898.171-1.686.512-2.364a3.857 3.857 0 0 1 1.443-1.591c.617-.383 1.343-.574 2.176-.574.538 0 1.045.087 1.523.261.481.17.905.436 1.272.796.372.36.663.818.875 1.375.212.553.319 1.212.319 1.977v.63h-7.154v-1.386h5.182a2.211 2.211 0 0 0-.256-1.05 1.85 1.85 0 0 0-.699-.734 1.963 1.963 0 0 0-1.034-.267c-.42 0-.789.103-1.108.307-.318.2-.566.466-.744.796a2.295 2.295 0 0 0-.267 1.073v1.21c0 .508.093.944.278 1.308.186.36.445.636.779.83.333.189.723.283 1.17.283.299 0 .57-.042.813-.125a1.81 1.81 0 0 0 .63-.38c.178-.167.313-.374.404-.62l1.92.216a2.99 2.99 0 0 1-.693 1.33 3.38 3.38 0 0 1-1.295.875c-.527.204-1.129.306-1.807.306Z"/>
</svg>
