<svg xmlns="http://www.w3.org/2000/svg" width="746" height="193" fill="none" viewBox="0 0 746 193">
  <rect width="237" height="60" x=".5" y="67" fill="#F4CE71" rx="30"/>
  <path fill="#000" d="M41.414 90.8V104h-3.04v-6.06l.1-4.06h-.04L35.174 104h-2.78l-3.26-10.12h-.04l.1 4.06V104h-3.06V90.8h4.9l2.08 6.72.74 2.8h.04l.76-2.78 2.06-6.74h4.7Zm8.224 6.86c0-.467-.133-.833-.4-1.1-.253-.28-.6-.42-1.04-.42-.44 0-.82.113-1.14.34-.307.213-.52.6-.64 1.16l-2.88-.68c.187-.96.68-1.727 1.48-2.3.8-.573 1.927-.86 3.38-.86.973 0 1.8.147 2.48.44.693.28 1.22.707 1.58 1.28.373.56.56 1.253.56 2.08v3.66c0 .52.233.78.7.78.24 0 .433-.027.58-.08l-.2 1.94c-.4.187-.887.28-1.46.28-.52 0-.98-.08-1.38-.24a2.13 2.13 0 0 1-.94-.76c-.227-.347-.34-.78-.34-1.3v-.12l.38-.14c0 .573-.173 1.053-.52 1.44-.333.387-.773.673-1.32.86a5.04 5.04 0 0 1-1.68.28c-.68 0-1.273-.107-1.78-.32-.507-.213-.9-.52-1.18-.92-.267-.413-.4-.92-.4-1.52 0-.72.213-1.313.64-1.78.44-.48 1.127-.813 2.06-1l3.78-.78-.02 1.8-1.92.4c-.4.08-.7.2-.9.36-.187.147-.28.373-.28.68 0 .293.107.513.32.66.213.147.467.22.76.22a2 2 0 0 0 .64-.1c.213-.067.4-.167.56-.3.16-.147.287-.327.38-.54.093-.213.14-.467.14-.76v-2.64Zm7.702-4.82c-.693 0-1.2-.127-1.52-.38-.307-.267-.46-.68-.46-1.24 0-.573.153-.987.46-1.24.32-.267.827-.4 1.52-.4.68 0 1.18.133 1.5.4.32.253.48.667.48 1.24 0 .56-.16.973-.48 1.24-.32.253-.82.38-1.5.38Zm1.7 1.16v10h-3.4V94h3.4Zm2.42 10V94h3.04l.18 3.44-.38-.38c.134-.72.367-1.32.7-1.8.347-.48.774-.84 1.28-1.08a3.92 3.92 0 0 1 1.74-.38c.694 0 1.294.133 1.8.4.52.267.927.66 1.22 1.18.294.52.44 1.173.44 1.96V104h-3.4v-5.76c0-.693-.133-1.173-.4-1.44-.266-.267-.606-.4-1.02-.4-.32 0-.62.08-.9.24-.28.147-.5.387-.66.72-.16.333-.24.78-.24 1.34v5.3h-3.4Zm16.524-13.18v9.62c0 .48.113.827.34 1.04.24.2.567.3.98.3.32 0 .593-.033.82-.1.24-.08.453-.193.64-.34l.36 2.1c-.333.24-.753.427-1.26.56a6.12 6.12 0 0 1-1.56.2c-.76 0-1.42-.107-1.98-.32a2.63 2.63 0 0 1-1.28-1.02c-.293-.467-.447-1.087-.46-1.86v-9.24l3.4-.94Zm2.98 3.18v2.42h-8.1V94h8.1Zm7.326 3.66c0-.467-.133-.833-.4-1.1-.253-.28-.6-.42-1.04-.42-.44 0-.82.113-1.14.34-.306.213-.52.6-.64 1.16l-2.88-.68c.187-.96.68-1.727 1.48-2.3.8-.573 1.927-.86 3.38-.86.974 0 1.8.147 2.48.44.694.28 1.22.707 1.58 1.28.374.56.56 1.253.56 2.08v3.66c0 .52.234.78.7.78.24 0 .434-.027.58-.08l-.2 1.94c-.4.187-.886.28-1.46.28-.52 0-.98-.08-1.38-.24a2.13 2.13 0 0 1-.94-.76c-.226-.347-.34-.78-.34-1.3v-.12l.38-.14c0 .573-.173 1.053-.52 1.44-.333.387-.773.673-1.32.86a5.04 5.04 0 0 1-1.68.28c-.68 0-1.273-.107-1.78-.32-.506-.213-.9-.52-1.18-.92-.266-.413-.4-.92-.4-1.52 0-.72.214-1.313.64-1.78.44-.48 1.127-.813 2.06-1l3.78-.78-.02 1.8-1.92.4c-.4.08-.7.2-.9.36-.186.147-.28.373-.28.68 0 .293.107.513.32.66.214.147.467.22.76.22a2 2 0 0 0 .64-.1c.214-.067.4-.167.56-.3.16-.147.287-.327.38-.54.094-.213.14-.467.14-.76v-2.64Zm7.702-4.82c-.693 0-1.2-.127-1.52-.38-.306-.267-.46-.68-.46-1.24 0-.573.154-.987.46-1.24.32-.267.827-.4 1.52-.4.68 0 1.18.133 1.5.4.32.253.48.667.48 1.24 0 .56-.16.973-.48 1.24-.32.253-.82.38-1.5.38Zm1.7 1.16v10h-3.4V94h3.4Zm2.421 10V94h3.04l.18 3.44-.38-.38c.133-.72.366-1.32.7-1.8.346-.48.773-.84 1.28-1.08a3.92 3.92 0 0 1 1.74-.38c.693 0 1.293.133 1.8.4.52.267.926.66 1.22 1.18.293.52.44 1.173.44 1.96V104h-3.4v-5.76c0-.693-.134-1.173-.4-1.44-.267-.267-.607-.4-1.02-.4-.32 0-.62.08-.9.24-.28.147-.5.387-.66.72-.16.333-.24.78-.24 1.34v5.3h-3.4Zm30.265-13.2V104h-3.82l-4.1-7.14-1-1.96h-.02l.08 2.44V104h-3.04V90.8h3.82l4.1 7.14 1 1.96h.02l-.08-2.44V90.8h3.04Zm7.505 13.4c-1.106 0-2.066-.207-2.88-.62a4.436 4.436 0 0 1-1.86-1.78c-.44-.773-.66-1.707-.66-2.8 0-1.093.22-2.027.66-2.8a4.469 4.469 0 0 1 1.84-1.78c.8-.413 1.714-.62 2.74-.62 1.054 0 1.947.207 2.68.62.747.4 1.314.96 1.7 1.68.387.707.58 1.52.58 2.44 0 .24-.006.48-.02.72-.013.24-.033.44-.06.6h-7.92v-1.82h6.42l-1.62.62c0-.8-.146-1.413-.44-1.84-.28-.427-.72-.64-1.32-.64-.426 0-.793.1-1.1.3-.293.2-.52.513-.68.94-.146.427-.22.973-.22 1.64 0 .653.087 1.187.26 1.6.174.4.42.693.74.88.32.173.707.26 1.16.26.507 0 .907-.1 1.2-.3.307-.2.534-.48.68-.84l2.72.9a3.188 3.188 0 0 1-.98 1.46c-.453.387-1 .68-1.64.88-.626.2-1.286.3-1.98.3Zm10.765-13.38v9.62c0 .48.113.827.34 1.04.24.2.567.3.98.3.32 0 .593-.033.82-.1.24-.08.453-.193.64-.34l.36 2.1c-.333.24-.753.427-1.26.56-.507.133-1.027.2-1.56.2-.76 0-1.42-.107-1.98-.32a2.63 2.63 0 0 1-1.28-1.02c-.293-.467-.447-1.087-.46-1.86v-9.24l3.4-.94Zm2.98 3.18v2.42h-8.1V94h8.1Zm14.671 0h3.56l-3.02 10h-4.08l-1.82-6.14-1.76 6.14h-4.06l-3.04-10h3.58l1.68 7.38 1.96-7.38h3.36l1.94 7.38 1.7-7.38Zm9.413-.2c1.054 0 1.974.207 2.76.62.8.4 1.42.993 1.86 1.78.454.773.68 1.707.68 2.8 0 1.093-.226 2.033-.68 2.82a4.436 4.436 0 0 1-1.86 1.78c-.786.4-1.706.6-2.76.6-1.026 0-1.94-.2-2.74-.6a4.568 4.568 0 0 1-1.88-1.78c-.44-.787-.66-1.727-.66-2.82 0-1.093.22-2.027.66-2.8a4.405 4.405 0 0 1 1.88-1.78c.8-.413 1.714-.62 2.74-.62Zm0 2.42c-.386 0-.72.093-1 .28-.28.187-.493.487-.64.9-.146.413-.22.947-.22 1.6 0 .653.074 1.187.22 1.6.147.4.36.7.64.9.28.187.614.28 1 .28.4 0 .74-.093 1.02-.28.28-.2.494-.5.64-.9.147-.413.22-.947.22-1.6 0-.653-.073-1.187-.22-1.6-.146-.413-.36-.713-.64-.9-.28-.187-.62-.28-1.02-.28Zm7.213 7.78V94h3l.14 2.16c.253-.747.627-1.327 1.12-1.74.507-.413 1.147-.62 1.92-.62.253 0 .467.02.64.06.187.04.333.093.44.16l-.34 2.8a2.148 2.148 0 0 0-.52-.12c-.2-.04-.447-.06-.74-.06-.4 0-.773.087-1.12.26a2.047 2.047 0 0 0-.84.78c-.2.333-.3.76-.3 1.28V104h-3.4Zm19.574-10-4.8 5.12-.64.18-2.86 3.2-.02-3.48 4.54-5.02h3.78Zm-7.58-4.24V104h-3.4V89.76h3.4Zm3.3 7.24 4.5 7h-3.76l-2.96-5 2.22-2Zm9.863 7.2c-1 0-1.933-.16-2.8-.48-.853-.333-1.56-.807-2.12-1.42l1.6-1.88c.333.427.773.787 1.32 1.08a4.1 4.1 0 0 0 1.86.42c.413 0 .753-.06 1.02-.18s.4-.307.4-.56a.534.534 0 0 0-.2-.44c-.133-.12-.4-.22-.8-.3l-1.4-.28c-1.253-.253-2.147-.627-2.68-1.12-.52-.507-.78-1.167-.78-1.98 0-.547.167-1.067.5-1.56.333-.507.847-.913 1.54-1.22.693-.32 1.58-.48 2.66-.48 1.013 0 1.907.147 2.68.44.773.293 1.387.72 1.84 1.28l-1.62 1.84a3.26 3.26 0 0 0-1.24-.94 3.695 3.695 0 0 0-1.52-.34c-.32 0-.593.033-.82.1-.213.053-.373.133-.48.24a.541.541 0 0 0-.16.4c0 .173.08.327.24.46.173.12.487.227.94.32l1.82.36c1.027.187 1.767.527 2.22 1.02.453.493.68 1.087.68 1.78a3.1 3.1 0 0 1-.52 1.76c-.347.52-.867.933-1.56 1.24-.693.293-1.567.44-2.62.44Z"/>
  <rect width="381" height="49" x="363.5" y="1" fill="#fff" rx="24.5"/>
  <path fill="#1E4460" d="M393.648 31V19.364h4.454c.841 0 1.54.132 2.097.397.56.262.979.62 1.256 1.074.28.455.42.97.42 1.546 0 .473-.091.878-.273 1.216a2.294 2.294 0 0 1-.733.812 3.102 3.102 0 0 1-1.028.449v.114c.413.022.809.15 1.187.38.383.227.695.55.938.966.242.417.364.92.364 1.511a3.07 3.07 0 0 1-.438 1.625c-.292.478-.731.855-1.318 1.131-.587.277-1.326.415-2.216.415h-4.71Zm2.108-1.761h2.267c.765 0 1.316-.146 1.653-.438.341-.295.512-.674.512-1.136a1.744 1.744 0 0 0-.983-1.591c-.315-.163-.69-.245-1.125-.245h-2.324v3.41Zm0-4.927h2.085c.364 0 .691-.066.983-.198.292-.137.521-.328.687-.574.171-.25.256-.546.256-.887 0-.45-.159-.822-.477-1.113-.315-.292-.782-.438-1.404-.438h-2.13v3.21Zm12.18 6.858c-.875 0-1.631-.181-2.267-.545a3.692 3.692 0 0 1-1.46-1.557c-.341-.674-.512-1.468-.512-2.38 0-.898.171-1.686.512-2.364a3.87 3.87 0 0 1 1.443-1.591c.617-.383 1.343-.574 2.176-.574.538 0 1.046.087 1.523.262.481.17.905.435 1.273.795.371.36.662.818.875 1.375.212.553.318 1.212.318 1.977v.63h-7.154v-1.386h5.182a2.211 2.211 0 0 0-.256-1.05 1.854 1.854 0 0 0-.698-.734 1.968 1.968 0 0 0-1.034-.267c-.421 0-.79.103-1.108.307-.319.2-.567.466-.745.796a2.295 2.295 0 0 0-.267 1.073v1.21c0 .508.093.944.279 1.308.185.36.445.636.778.83.333.189.724.283 1.17.283.3 0 .571-.042.813-.125.242-.087.453-.214.631-.38.178-.167.312-.374.403-.62l1.921.216c-.122.508-.353.95-.694 1.33a3.38 3.38 0 0 1-1.295.875c-.527.204-1.129.306-1.807.306Zm11.175-.17h-2.25l4.096-11.636h2.603L427.662 31h-2.25l-3.108-9.25h-.091L419.111 31Zm.074-4.563h6.136v1.694h-6.136v-1.694Zm13.46 4.733c-.871 0-1.619-.19-2.244-.573a3.828 3.828 0 0 1-1.438-1.586c-.333-.678-.5-1.458-.5-2.34 0-.887.171-1.67.511-2.347a3.813 3.813 0 0 1 1.444-1.591c.625-.383 1.363-.574 2.216-.574.708 0 1.335.13 1.88.392.549.258.987.623 1.313 1.097.325.47.511 1.019.557 1.648h-1.966a1.882 1.882 0 0 0-.569-1.052c-.295-.284-.691-.426-1.187-.426-.421 0-.79.114-1.108.341-.318.224-.566.546-.744.966-.175.42-.262.924-.262 1.511 0 .595.087 1.106.262 1.535.174.424.418.751.733.982a1.87 1.87 0 0 0 1.119.341c.303 0 .574-.056.812-.17.243-.118.446-.286.608-.506a1.95 1.95 0 0 0 .336-.801h1.966a3.44 3.44 0 0 1-.546 1.642 3.224 3.224 0 0 1-1.284 1.114c-.542.265-1.178.398-1.909.398Zm9.785-8.897v1.59h-5.017v-1.59h5.017Zm-3.778-2.091h2.057v8.193c0 .276.041.489.125.636a.675.675 0 0 0 .341.296c.14.053.295.08.466.08.128 0 .246-.01.352-.029.11-.019.193-.036.25-.051l.346 1.608c-.109.038-.267.08-.471.125a3.871 3.871 0 0 1-.739.08 3.355 3.355 0 0 1-1.392-.234 2.168 2.168 0 0 1-.983-.806c-.238-.364-.356-.819-.352-1.364v-8.534ZM444.151 31v-8.727h2.056V31h-2.056Zm1.034-9.966a1.2 1.2 0 0 1-.841-.324 1.044 1.044 0 0 1-.353-.79c0-.31.118-.573.353-.79.235-.219.515-.329.841-.329.329 0 .61.11.841.33.234.216.352.479.352.79 0 .306-.118.57-.352.79a1.188 1.188 0 0 1-.841.323Zm10.933 1.239L453.01 31h-2.273l-3.108-8.727h2.193l2.006 6.483h.091l2.011-6.483h2.188Zm4.99 8.898c-.875 0-1.631-.182-2.267-.546a3.692 3.692 0 0 1-1.46-1.557c-.341-.674-.512-1.468-.512-2.38 0-.898.171-1.686.512-2.364a3.857 3.857 0 0 1 1.443-1.591c.617-.383 1.343-.574 2.176-.574.538 0 1.045.087 1.523.262.481.17.905.435 1.272.795.372.36.663.818.875 1.375.213.553.319 1.212.319 1.977v.63h-7.154v-1.386h5.182a2.211 2.211 0 0 0-.256-1.05 1.85 1.85 0 0 0-.699-.734 1.963 1.963 0 0 0-1.034-.267c-.42 0-.789.103-1.108.307-.318.2-.566.466-.744.796a2.295 2.295 0 0 0-.267 1.073v1.21c0 .508.093.944.279 1.308.185.36.445.636.778.83.333.189.723.283 1.17.283.3 0 .57-.042.813-.125.242-.087.453-.214.631-.38.178-.167.312-.374.403-.62l1.92.216a2.99 2.99 0 0 1-.693 1.33 3.38 3.38 0 0 1-1.295.875c-.527.204-1.129.306-1.807.306Zm6.888-.046a1.22 1.22 0 0 1-.887-.364 1.177 1.177 0 0 1-.363-.886c-.004-.34.117-.633.363-.875a1.22 1.22 0 0 1 .887-.364 1.2 1.2 0 0 1 .869.364 1.196 1.196 0 0 1 .199 1.506c-.114.19-.265.34-.455.454a1.18 1.18 0 0 1-.613.165Zm0-6.227a1.22 1.22 0 0 1-.887-.364 1.189 1.189 0 0 1-.363-.886 1.163 1.163 0 0 1 .363-.875c.247-.247.542-.37.887-.37.333 0 .623.123.869.37.25.242.377.534.381.875a1.208 1.208 0 0 1-.182.625c-.114.19-.265.34-.455.454a1.15 1.15 0 0 1-.613.17Zm15.331-5.534h1.409v7.704c0 .796-.188 1.506-.563 2.13a3.938 3.938 0 0 1-1.574 1.473c-.678.355-1.473.534-2.386.534s-1.708-.178-2.386-.534a3.981 3.981 0 0 1-1.58-1.472c-.371-.625-.557-1.335-.557-2.13v-7.705h1.409v7.59c0 .569.125 1.074.375 1.518.25.439.606.786 1.069 1.04.466.25 1.022.374 1.67.374.648 0 1.205-.125 1.671-.375.465-.253.821-.6 1.068-1.04.25-.443.375-.948.375-1.517v-7.59Zm4.041 14.909v-12h1.295v1.386h.159c.099-.151.235-.345.41-.58.178-.238.431-.45.761-.636.333-.19.784-.284 1.352-.284.735 0 1.383.184 1.943.551.561.368.998.889 1.313 1.563.314.674.471 1.47.471 2.386 0 .924-.157 1.726-.471 2.404-.315.674-.75 1.197-1.307 1.568-.557.367-1.199.55-1.926.55-.561 0-1.01-.092-1.347-.278-.337-.189-.596-.403-.778-.642a8.77 8.77 0 0 1-.421-.602h-.113v4.614h-1.341Zm1.318-7.637c0 .66.097 1.24.29 1.745.193.5.475.892.846 1.176.372.28.826.42 1.364.42.561 0 1.028-.148 1.403-.443.379-.3.663-.7.853-1.204a4.73 4.73 0 0 0 .29-1.694c0-.613-.095-1.166-.285-1.659-.185-.496-.467-.888-.846-1.176-.375-.291-.847-.437-1.415-.437-.545 0-1.004.138-1.375.414-.371.273-.651.656-.841 1.148-.189.489-.284 1.059-.284 1.71Zm11.727 4.546c-.727 0-1.369-.184-1.926-.551-.557-.372-.992-.894-1.307-1.569-.314-.678-.471-1.479-.471-2.403 0-.917.157-1.712.471-2.386.315-.674.752-1.195 1.313-1.563.561-.367 1.208-.55 1.943-.55.568 0 1.017.094 1.347.283.333.186.587.398.761.636.178.235.316.429.415.58h.113v-4.295h1.341V31h-1.295v-1.34h-.159a8.77 8.77 0 0 1-.421.601c-.181.239-.441.453-.778.642-.337.186-.786.279-1.347.279Zm.182-1.205c.538 0 .993-.14 1.364-.42.371-.284.653-.676.846-1.176.194-.504.29-1.085.29-1.745 0-.651-.095-1.221-.284-1.71-.189-.492-.47-.875-.841-1.148-.371-.276-.829-.414-1.375-.414-.568 0-1.041.145-1.42.437-.375.288-.657.68-.847 1.176a4.689 4.689 0 0 0-.278 1.66c0 .62.094 1.185.284 1.692.193.504.477.906.852 1.205.379.296.849.443 1.409.443Zm9.029 1.227a3.548 3.548 0 0 1-1.506-.312 2.582 2.582 0 0 1-1.074-.915c-.265-.401-.398-.886-.398-1.454 0-.5.099-.906.296-1.216.197-.315.46-.56.79-.739a4.18 4.18 0 0 1 1.09-.398c.402-.09.805-.162 1.211-.216.53-.068.96-.119 1.289-.153.334-.038.576-.1.728-.187.155-.088.233-.239.233-.455v-.045c0-.561-.154-.997-.461-1.307-.303-.31-.763-.466-1.38-.466-.64 0-1.142.14-1.506.42-.364.28-.619.58-.767.898l-1.273-.454c.228-.53.531-.944.909-1.24.383-.298.8-.507 1.25-.624a5.196 5.196 0 0 1 1.341-.182 5.3 5.3 0 0 1 .966.102c.368.065.722.2 1.063.404.344.204.63.513.858.926.227.413.341.966.341 1.659V31h-1.341v-1.182h-.069a2.33 2.33 0 0 1-.454.608c-.212.216-.494.4-.847.551-.352.152-.782.227-1.289.227Zm.204-1.204c.53 0 .977-.104 1.341-.313.367-.208.644-.477.83-.806a2.06 2.06 0 0 0 .284-1.04v-1.227c-.057.068-.182.13-.375.187-.19.053-.409.1-.659.142a30.34 30.34 0 0 1-1.285.17 5.19 5.19 0 0 0-.977.222 1.687 1.687 0 0 0-.727.45c-.182.196-.273.465-.273.806 0 .466.173.818.517 1.057.349.235.79.352 1.324.352Zm10.038-7.727v1.136h-4.522v-1.136h4.522Zm-3.204-2.091h1.341V28.5c0 .379.055.663.165.852a.85.85 0 0 0 .431.375c.178.06.366.091.563.091.148 0 .269-.007.364-.023l.227-.045.273 1.204a2.733 2.733 0 0 1-.381.103 2.8 2.8 0 0 1-.619.057 2.7 2.7 0 0 1-1.114-.245 2.215 2.215 0 0 1-.898-.744c-.235-.333-.352-.754-.352-1.261v-8.682Zm8.787 11c-.841 0-1.566-.186-2.176-.557a3.742 3.742 0 0 1-1.404-1.568c-.325-.674-.488-1.458-.488-2.352 0-.894.163-1.682.488-2.364.33-.686.788-1.22 1.375-1.602.591-.387 1.281-.58 2.068-.58.455 0 .904.076 1.347.227.443.152.847.398 1.21.739.364.337.654.784.87 1.34.216.558.323 1.243.323 2.058v.568h-6.727v-1.16h5.364c0-.492-.099-.931-.296-1.317a2.223 2.223 0 0 0-.829-.915c-.356-.224-.777-.335-1.262-.335-.534 0-.996.132-1.386.397a2.615 2.615 0 0 0-.892 1.023c-.208.42-.312.871-.312 1.352v.773c0 .66.113 1.218.34 1.676.232.455.552.801.961 1.04.409.235.884.352 1.426.352.352 0 .67-.049.954-.148.288-.102.536-.253.745-.454.208-.204.369-.458.483-.761l1.295.363a2.87 2.87 0 0 1-.687 1.16 3.35 3.35 0 0 1-1.194.772 4.42 4.42 0 0 1-1.596.273Zm11.017 3.09c-.227 0-.43-.018-.608-.056a1.597 1.597 0 0 1-.369-.102l.341-1.182c.325.083.613.113.863.09.25-.022.472-.134.665-.334.197-.198.377-.518.54-.96l.25-.683-3.228-8.772h1.455l2.409 6.954h.091l2.409-6.954h1.455l-3.705 10c-.167.45-.373.824-.619 1.119-.246.3-.532.52-.858.665a2.646 2.646 0 0 1-1.091.216Zm11.275-3.09c-.787 0-1.479-.188-2.073-.563-.591-.375-1.053-.9-1.387-1.573-.329-.675-.494-1.463-.494-2.364 0-.91.165-1.703.494-2.38.334-.679.796-1.205 1.387-1.58.594-.375 1.286-.563 2.073-.563.788 0 1.478.188 2.069.563.594.375 1.056.901 1.386 1.58.333.677.5 1.47.5 2.38 0 .901-.167 1.69-.5 2.364a3.775 3.775 0 0 1-1.386 1.573c-.591.375-1.281.563-2.069.563Zm0-1.205c.599 0 1.091-.153 1.478-.46a2.72 2.72 0 0 0 .858-1.21c.185-.5.278-1.042.278-1.625s-.093-1.127-.278-1.63a2.755 2.755 0 0 0-.858-1.223c-.387-.31-.879-.465-1.478-.465-.598 0-1.09.155-1.477.465a2.757 2.757 0 0 0-.858 1.222 4.695 4.695 0 0 0-.278 1.63c0 .584.093 1.126.278 1.626.186.5.472.903.858 1.21.387.307.879.46 1.477.46Zm11.502-2.545v-5.16h1.341V31h-1.341v-1.477h-.091c-.205.443-.523.82-.955 1.13-.431.307-.977.46-1.636.46-.545 0-1.03-.119-1.454-.357-.425-.243-.758-.606-1-1.091-.243-.489-.364-1.104-.364-1.847v-5.545h1.341v5.454c0 .637.178 1.144.534 1.523.36.379.818.568 1.375.568.333 0 .672-.085 1.017-.256.348-.17.64-.431.875-.784.239-.352.358-.8.358-1.346ZM563.04 31v-8.727h1.295v1.318h.091c.159-.432.447-.782.864-1.051a2.54 2.54 0 0 1 1.409-.404c.098 0 .221.002.369.006s.26.01.335.017v1.364a3.926 3.926 0 0 0-.312-.051 3.08 3.08 0 0 0-.506-.04c-.424 0-.803.089-1.136.267a1.955 1.955 0 0 0-1.068 1.778V31h-1.341Zm10.453 3.273v-12h1.295v1.386h.159c.099-.151.235-.345.41-.58.178-.238.431-.45.761-.636.333-.19.784-.284 1.352-.284.735 0 1.383.184 1.943.551.561.368.998.889 1.313 1.563.314.674.471 1.47.471 2.386 0 .924-.157 1.726-.471 2.404-.315.674-.75 1.197-1.307 1.568-.557.367-1.199.55-1.926.55-.561 0-1.01-.092-1.347-.278-.337-.189-.596-.403-.778-.642a8.77 8.77 0 0 1-.421-.602h-.113v4.614h-1.341Zm1.318-7.637c0 .66.097 1.24.29 1.745.193.5.475.892.846 1.176.372.28.826.42 1.364.42.561 0 1.028-.148 1.403-.443.379-.3.663-.7.853-1.204a4.73 4.73 0 0 0 .29-1.694c0-.613-.095-1.166-.285-1.659-.185-.496-.467-.888-.846-1.176-.375-.291-.847-.437-1.415-.437-.545 0-1.004.138-1.375.414-.371.273-.651.656-.841 1.148-.189.489-.284 1.059-.284 1.71ZM583.243 31v-8.727h1.295v1.318h.091c.159-.432.447-.782.864-1.051a2.541 2.541 0 0 1 1.409-.404c.098 0 .222.002.369.006.148.004.26.01.336.017v1.364a4.073 4.073 0 0 0-.313-.051 3.08 3.08 0 0 0-.506-.04c-.424 0-.803.089-1.136.267a2.01 2.01 0 0 0-.784.727 1.964 1.964 0 0 0-.284 1.051V31h-1.341Zm9.233.182c-.788 0-1.479-.188-2.074-.563-.591-.375-1.053-.9-1.386-1.573-.33-.675-.495-1.463-.495-2.364 0-.91.165-1.703.495-2.38.333-.679.795-1.205 1.386-1.58.595-.375 1.286-.563 2.074-.563.788 0 1.477.188 2.068.563.595.375 1.057.901 1.386 1.58.334.677.5 1.47.5 2.38 0 .901-.166 1.69-.5 2.364a3.763 3.763 0 0 1-1.386 1.573c-.591.375-1.28.563-2.068.563Zm0-1.205c.598 0 1.091-.153 1.477-.46a2.72 2.72 0 0 0 .858-1.21c.186-.5.278-1.042.278-1.625s-.092-1.127-.278-1.63a2.755 2.755 0 0 0-.858-1.223c-.386-.31-.879-.465-1.477-.465-.599 0-1.091.155-1.477.465a2.74 2.74 0 0 0-.858 1.222 4.672 4.672 0 0 0-.279 1.63c0 .584.093 1.126.279 1.626.185.5.471.903.858 1.21.386.307.878.46 1.477.46Zm9.888-7.704v1.136h-4.705v-1.136h4.705ZM599.068 31v-9.932c0-.5.118-.917.352-1.25a2.19 2.19 0 0 1 .915-.75c.375-.167.771-.25 1.188-.25.329 0 .598.027.807.08.208.053.363.102.465.148l-.386 1.159a6.673 6.673 0 0 0-.284-.086 1.722 1.722 0 0 0-.466-.05c-.443 0-.763.11-.96.334-.193.224-.29.552-.29.983V31h-1.341Zm8.475.182c-.841 0-1.567-.186-2.177-.557a3.74 3.74 0 0 1-1.403-1.568c-.326-.674-.489-1.458-.489-2.352 0-.894.163-1.682.489-2.364.33-.686.788-1.22 1.375-1.602.591-.387 1.28-.58 2.068-.58.455 0 .904.076 1.347.227a3.34 3.34 0 0 1 1.21.739c.364.337.653.784.869 1.34.216.558.324 1.243.324 2.058v.568h-6.727v-1.16h5.364c0-.492-.099-.931-.296-1.317a2.23 2.23 0 0 0-.829-.915c-.356-.224-.777-.335-1.262-.335-.534 0-.996.132-1.386.397a2.615 2.615 0 0 0-.892 1.023 3.01 3.01 0 0 0-.313 1.352v.773c0 .66.114 1.218.341 1.676.231.455.551.801.96 1.04.41.235.885.352 1.427.352.352 0 .67-.049.954-.148a2.03 2.03 0 0 0 .744-.454c.209-.204.37-.458.483-.761l1.296.363a2.87 2.87 0 0 1-.688 1.16 3.344 3.344 0 0 1-1.193.772 4.42 4.42 0 0 1-1.596.273Zm11.835-6.955-1.205.341a2.206 2.206 0 0 0-.335-.585 1.628 1.628 0 0 0-.591-.477c-.25-.125-.57-.188-.96-.188-.534 0-.979.123-1.335.37-.353.242-.529.55-.529.926 0 .333.122.596.364.79.242.193.621.354 1.136.482l1.296.319c.78.189 1.361.479 1.744.869.383.386.574.884.574 1.494 0 .5-.144.947-.432 1.341-.284.394-.682.705-1.193.932-.511.227-1.106.34-1.784.34-.89 0-1.627-.192-2.21-.579-.584-.386-.953-.95-1.108-1.693l1.272-.318c.122.47.351.822.688 1.057.341.235.786.352 1.335.352.625 0 1.121-.133 1.489-.398.371-.269.557-.59.557-.966 0-.303-.106-.556-.319-.761-.212-.208-.537-.364-.977-.466l-1.454-.34c-.8-.19-1.387-.484-1.762-.881-.371-.402-.557-.904-.557-1.506 0-.493.139-.928.415-1.307a2.82 2.82 0 0 1 1.142-.892c.485-.216 1.034-.324 1.648-.324.864 0 1.542.19 2.034.568.496.38.849.88 1.057 1.5Zm8.359 0-1.204.341a2.238 2.238 0 0 0-.336-.585 1.616 1.616 0 0 0-.59-.477c-.25-.125-.571-.188-.961-.188-.534 0-.979.123-1.335.37-.352.242-.528.55-.528.926 0 .333.121.596.363.79.243.193.622.354 1.137.482l1.295.319c.78.189 1.362.479 1.744.869.383.386.574.884.574 1.494 0 .5-.144.947-.432 1.341-.284.394-.681.705-1.193.932-.511.227-1.106.34-1.784.34-.89 0-1.627-.192-2.21-.579-.583-.386-.953-.95-1.108-1.693l1.273-.318c.121.47.35.822.687 1.057.341.235.786.352 1.335.352.625 0 1.122-.133 1.489-.398.371-.269.557-.59.557-.966 0-.303-.106-.556-.318-.761-.212-.208-.538-.364-.978-.466l-1.454-.34c-.799-.19-1.386-.484-1.761-.881-.372-.402-.557-.904-.557-1.506 0-.493.138-.928.415-1.307a2.82 2.82 0 0 1 1.142-.892c.484-.216 1.034-.324 1.647-.324.864 0 1.542.19 2.034.568.497.38.849.88 1.057 1.5ZM629.915 31v-8.727h1.341V31h-1.341Zm.682-10.182a.955.955 0 0 1-.677-.267.86.86 0 0 1-.278-.642.86.86 0 0 1 .278-.642.955.955 0 0 1 .677-.267c.261 0 .484.089.67.267a.851.851 0 0 1 .284.642c0 .25-.095.464-.284.642a.934.934 0 0 1-.67.267Zm6.66 10.364c-.788 0-1.479-.188-2.074-.563-.591-.375-1.053-.9-1.386-1.573-.33-.675-.494-1.463-.494-2.364 0-.91.164-1.703.494-2.38.333-.679.795-1.205 1.386-1.58.595-.375 1.286-.563 2.074-.563.788 0 1.477.188 2.068.563.595.375 1.057.901 1.387 1.58.333.677.5 1.47.5 2.38 0 .901-.167 1.69-.5 2.364a3.77 3.77 0 0 1-1.387 1.573c-.591.375-1.28.563-2.068.563Zm0-1.205c.599 0 1.091-.153 1.477-.46.387-.307.673-.71.858-1.21.186-.5.279-1.042.279-1.625s-.093-1.127-.279-1.63a2.74 2.74 0 0 0-.858-1.223c-.386-.31-.878-.465-1.477-.465-.598 0-1.091.155-1.477.465a2.74 2.74 0 0 0-.858 1.222 4.672 4.672 0 0 0-.279 1.63c0 .584.093 1.126.279 1.626.185.5.471.903.858 1.21.386.307.879.46 1.477.46Zm7.342-4.227V31h-1.34v-8.727h1.295v1.363h.114c.204-.443.515-.799.931-1.068.417-.273.955-.409 1.614-.409.591 0 1.108.121 1.551.364a2.45 2.45 0 0 1 1.034 1.09c.247.486.37 1.1.37 1.841V31h-1.341v-5.454c0-.686-.178-1.22-.534-1.603-.356-.386-.845-.58-1.466-.58a2.34 2.34 0 0 0-1.148.279 1.994 1.994 0 0 0-.79.813c-.193.356-.29.787-.29 1.295Zm10.587 5.454a3.548 3.548 0 0 1-1.506-.312 2.585 2.585 0 0 1-1.073-.915c-.266-.401-.398-.886-.398-1.454 0-.5.098-.906.295-1.216.197-.315.46-.56.79-.739.33-.178.693-.31 1.091-.398.401-.09.805-.162 1.21-.216.53-.068.96-.119 1.29-.153.333-.038.576-.1.727-.187.156-.088.233-.239.233-.455v-.045c0-.561-.153-.997-.46-1.307-.303-.31-.763-.466-1.381-.466-.64 0-1.142.14-1.505.42-.364.28-.62.58-.767.898l-1.273-.454c.227-.53.53-.944.909-1.24a3.411 3.411 0 0 1 1.25-.624 5.184 5.184 0 0 1 1.341-.182c.28 0 .602.034.966.102.367.065.721.2 1.062.404.345.204.631.513.858.926.227.413.341.966.341 1.659V31h-1.341v-1.182h-.068c-.091.19-.242.392-.455.608-.212.216-.494.4-.846.551-.352.152-.782.227-1.29.227Zm.205-1.204c.53 0 .977-.104 1.341-.313a2.131 2.131 0 0 0 1.113-1.846v-1.227c-.057.068-.182.13-.375.187a6.29 6.29 0 0 1-.659.142 29.629 29.629 0 0 1-1.284.17 5.19 5.19 0 0 0-.977.222 1.68 1.68 0 0 0-.728.45c-.181.196-.272.465-.272.806 0 .466.172.818.517 1.057.348.235.79.352 1.324.352Zm7.583-10.636V31h-1.34V19.364h1.34Zm13.138 4.863-1.204.341a2.238 2.238 0 0 0-.336-.585 1.616 1.616 0 0 0-.59-.477c-.25-.125-.571-.188-.961-.188-.534 0-.979.123-1.335.37-.352.242-.528.55-.528.926 0 .333.121.596.363.79.243.193.622.354 1.137.482l1.295.319c.78.189 1.362.479 1.744.869.383.386.574.884.574 1.494 0 .5-.144.947-.432 1.341-.284.394-.681.705-1.193.932-.511.227-1.106.34-1.784.34-.89 0-1.627-.192-2.21-.579-.583-.386-.953-.95-1.108-1.693l1.273-.318c.121.47.35.822.687 1.057.341.235.786.352 1.335.352.625 0 1.122-.133 1.489-.398.371-.269.557-.59.557-.966 0-.303-.106-.556-.318-.761-.212-.208-.538-.364-.978-.466l-1.454-.34c-.799-.19-1.386-.484-1.761-.881-.372-.402-.557-.904-.557-1.506 0-.493.138-.928.415-1.307a2.82 2.82 0 0 1 1.142-.892c.484-.216 1.034-.324 1.647-.324.864 0 1.542.19 2.034.568.497.38.849.88 1.057 1.5Zm5.973-1.954v1.136h-4.523v-1.136h4.523Zm-3.204-2.091h1.341V28.5c0 .379.055.663.164.852.114.186.258.31.432.375.178.06.366.091.563.091.147 0 .269-.007.363-.023l.228-.045.272 1.204a2.713 2.713 0 0 1-.38.103c-.163.038-.37.057-.62.057-.378 0-.75-.082-1.113-.245a2.215 2.215 0 0 1-.898-.744c-.235-.333-.352-.754-.352-1.261v-8.682Zm7.789 11.023a3.543 3.543 0 0 1-1.505-.313 2.582 2.582 0 0 1-1.074-.915c-.265-.401-.398-.886-.398-1.454 0-.5.099-.906.296-1.216.197-.315.46-.56.789-.739a4.2 4.2 0 0 1 1.091-.398c.402-.09.805-.162 1.211-.216.53-.068.96-.119 1.289-.153.334-.038.576-.1.728-.187.155-.088.233-.239.233-.455v-.045c0-.561-.154-.997-.461-1.307-.303-.31-.763-.466-1.38-.466-.641 0-1.142.14-1.506.42-.364.28-.619.58-.767.898l-1.273-.454c.227-.53.53-.944.909-1.24.383-.298.8-.507 1.25-.624a5.196 5.196 0 0 1 1.341-.182c.28 0 .602.034.966.102.368.065.722.2 1.063.404.344.204.63.513.858.926.227.413.34.966.34 1.659V31h-1.34v-1.182h-.069c-.091.19-.242.392-.454.608-.212.216-.494.4-.847.551-.352.152-.782.227-1.29.227Zm.205-1.205c.53 0 .977-.104 1.341-.313.367-.208.644-.477.829-.806.19-.33.285-.677.285-1.04v-1.227c-.057.068-.182.13-.375.187-.19.053-.41.1-.66.142a29.56 29.56 0 0 1-1.284.17 5.19 5.19 0 0 0-.977.222 1.681 1.681 0 0 0-.727.45c-.182.196-.273.465-.273.806 0 .466.172.818.517 1.057.349.235.79.352 1.324.352Zm10.038-7.727v1.136h-4.522v-1.136h4.522Zm-3.204-2.091h1.341V28.5c0 .379.055.663.164.852.114.186.258.31.432.375.178.06.366.091.563.091.148 0 .269-.007.363-.023l.228-.045.272 1.204c-.09.035-.217.069-.38.103-.163.038-.37.057-.62.057-.378 0-.75-.082-1.113-.245a2.215 2.215 0 0 1-.898-.744c-.235-.333-.352-.754-.352-1.261v-8.682Zm10.721 7.25v-5.16h1.341V31h-1.341v-1.477h-.091c-.204.443-.522.82-.954 1.13-.432.307-.977.46-1.636.46-.546 0-1.031-.119-1.455-.357-.424-.243-.758-.606-1-1.091-.242-.489-.364-1.104-.364-1.847v-5.545h1.341v5.454c0 .637.178 1.144.534 1.523.36.379.819.568 1.375.568.334 0 .673-.085 1.017-.256.349-.17.641-.431.875-.784.239-.352.358-.8.358-1.346Zm9.979-3.205-1.204.341a2.238 2.238 0 0 0-.336-.585 1.628 1.628 0 0 0-.591-.477c-.25-.125-.57-.188-.96-.188-.534 0-.979.123-1.335.37-.352.242-.528.55-.528.926 0 .333.121.596.363.79.243.193.621.354 1.137.482l1.295.319c.78.189 1.362.479 1.744.869.383.386.574.884.574 1.494 0 .5-.144.947-.432 1.341-.284.394-.681.705-1.193.932-.511.227-1.106.34-1.784.34-.89 0-1.627-.192-2.21-.579-.583-.386-.953-.95-1.108-1.693l1.273-.318c.121.47.35.822.687 1.057.341.235.786.352 1.335.352.625 0 1.122-.133 1.489-.398.371-.269.557-.59.557-.966 0-.303-.106-.556-.318-.761-.212-.208-.538-.364-.978-.466l-1.454-.34c-.799-.19-1.387-.484-1.762-.881-.371-.402-.556-.904-.556-1.506 0-.493.138-.928.414-1.307a2.828 2.828 0 0 1 1.142-.892c.485-.216 1.035-.324 1.648-.324.864 0 1.542.19 2.034.568.496.38.849.88 1.057 1.5Z"/>
  <rect width="381" height="49" x="363.5" y="1" stroke="#F4CE71" stroke-width="2" rx="24.5"/>
  <rect width="347" height="49" x="363.5" y="72" fill="#fff" rx="24.5"/>
  <path fill="#1E4460" d="M399.972 93.563c-.053-.497-.277-.883-.671-1.16-.39-.276-.898-.414-1.523-.414-.439 0-.816.066-1.13.198-.315.133-.555.313-.722.54a1.312 1.312 0 0 0-.256.779c0 .242.055.452.165.63.114.178.267.33.46.455.194.121.408.223.643.307.234.083.471.153.71.21l1.091.273c.439.102.861.24 1.267.415.409.174.774.393 1.096.658.326.266.584.586.773.96.189.376.284.815.284 1.319 0 .682-.174 1.282-.523 1.801-.348.515-.852.919-1.511 1.21-.655.288-1.449.432-2.381.432-.905 0-1.691-.14-2.358-.42-.663-.281-1.181-.69-1.556-1.228-.372-.538-.572-1.193-.603-1.966h2.074c.03.406.155.743.375 1.012s.506.47.858.602a3.39 3.39 0 0 0 1.193.199c.459 0 .86-.068 1.205-.205.348-.14.621-.333.818-.58a1.4 1.4 0 0 0 .301-.874c-.004-.303-.093-.553-.267-.75-.174-.2-.418-.367-.733-.5a7.02 7.02 0 0 0-1.091-.364l-1.324-.34c-.958-.247-1.716-.62-2.272-1.12-.553-.504-.83-1.172-.83-2.006 0-.685.186-1.286.557-1.8.375-.516.884-.915 1.528-1.2.644-.287 1.373-.431 2.188-.431.826 0 1.549.144 2.17.431.625.285 1.116.68 1.472 1.188a3.03 3.03 0 0 1 .551 1.739h-2.028Zm8.333-.29v1.59h-5.017v-1.59h5.017Zm-3.778-2.091h2.057v8.193c0 .276.041.489.125.636a.676.676 0 0 0 .341.296c.14.053.295.079.466.079.128 0 .246-.009.352-.028.11-.019.193-.036.25-.051l.346 1.608a4.662 4.662 0 0 1-.471.125 3.86 3.86 0 0 1-.739.079 3.348 3.348 0 0 1-1.392-.233 2.169 2.169 0 0 1-.983-.806c-.238-.364-.356-.819-.352-1.364v-8.534Zm8.01 10.994a3.639 3.639 0 0 1-1.494-.295 2.443 2.443 0 0 1-1.046-.887c-.254-.39-.381-.871-.381-1.443 0-.492.091-.9.273-1.222.182-.321.43-.579.745-.772a3.746 3.746 0 0 1 1.062-.438 8.657 8.657 0 0 1 1.233-.221c.511-.053.926-.1 1.244-.142.318-.046.55-.114.693-.205.148-.095.222-.24.222-.437v-.035c0-.427-.127-.759-.381-.994-.253-.235-.619-.352-1.096-.352-.504 0-.904.11-1.199.33-.292.22-.489.479-.591.778l-1.92-.273c.151-.53.401-.973.75-1.33.348-.36.774-.628 1.278-.806a4.893 4.893 0 0 1 1.67-.273c.421 0 .839.05 1.256.148.417.098.797.261 1.142.489.345.223.621.528.83.914.212.387.318.87.318 1.45V102h-1.977v-1.199h-.069c-.125.243-.301.47-.528.682a2.547 2.547 0 0 1-.847.506c-.337.125-.733.187-1.187.187Zm.534-1.511c.413 0 .771-.082 1.074-.245a1.8 1.8 0 0 0 .699-.659c.166-.272.25-.57.25-.892v-1.028a.97.97 0 0 1-.33.148 4.64 4.64 0 0 1-.511.119c-.19.034-.377.064-.563.09l-.483.069a3.59 3.59 0 0 0-.823.205 1.365 1.365 0 0 0-.574.397c-.14.167-.211.383-.211.648 0 .379.139.665.415.858.277.193.629.29 1.057.29Zm7.108 4.608c-.28 0-.54-.023-.778-.068a2.892 2.892 0 0 1-.563-.148l.477-1.602c.3.087.567.128.801.125a.985.985 0 0 0 .62-.222c.182-.14.335-.375.46-.705l.176-.471-3.165-8.91h2.182l2.012 6.592h.09l2.018-6.591h2.187l-3.494 9.784a3.913 3.913 0 0 1-.648 1.187 2.638 2.638 0 0 1-.989.762c-.386.178-.848.267-1.386.267Zm12-3.273V90.364h4.364c.894 0 1.644.155 2.25.465.609.311 1.07.747 1.38 1.307.315.557.472 1.207.472 1.95 0 .745-.159 1.393-.477 1.942-.315.546-.779.968-1.392 1.267-.614.296-1.368.444-2.262.444h-3.108v-1.75h2.824c.523 0 .951-.072 1.284-.216.334-.148.58-.362.739-.642.163-.284.244-.633.244-1.046 0-.413-.081-.765-.244-1.057a1.555 1.555 0 0 0-.744-.67c-.334-.155-.764-.233-1.29-.233h-1.932V102h-2.108Zm6.011-5.273 2.881 5.273h-2.352l-2.83-5.273h2.301Zm8.043 5.443c-.875 0-1.631-.181-2.267-.545a3.686 3.686 0 0 1-1.46-1.557c-.341-.674-.512-1.468-.512-2.38 0-.898.171-1.686.512-2.364a3.857 3.857 0 0 1 1.443-1.591c.617-.383 1.343-.574 2.176-.574.538 0 1.045.087 1.523.261.481.17.905.436 1.272.796.372.36.663.818.875 1.375.213.553.319 1.212.319 1.977v.63h-7.154v-1.385h5.182a2.211 2.211 0 0 0-.256-1.052 1.854 1.854 0 0 0-.698-.733 1.97 1.97 0 0 0-1.035-.267c-.42 0-.789.103-1.108.307-.318.2-.566.466-.744.796a2.295 2.295 0 0 0-.267 1.073v1.21c0 .508.093.944.278 1.307.186.36.446.637.779.83.333.189.723.284 1.17.284.3 0 .57-.041.813-.125.242-.087.453-.214.631-.381a1.58 1.58 0 0 0 .403-.619l1.92.216a2.991 2.991 0 0 1-.693 1.33 3.388 3.388 0 0 1-1.295.875c-.527.204-1.129.306-1.807.306Zm7.678-11.806V102h-2.057V90.364h2.057Zm5.978 11.806c-.875 0-1.63-.181-2.267-.545a3.692 3.692 0 0 1-1.46-1.557c-.341-.674-.511-1.468-.511-2.38 0-.898.17-1.686.511-2.364a3.87 3.87 0 0 1 1.443-1.591c.618-.383 1.343-.574 2.176-.574a4.41 4.41 0 0 1 1.523.261c.481.17.905.436 1.273.796.371.36.663.818.875 1.375.212.553.318 1.212.318 1.977v.63h-7.154v-1.385h5.182a2.21 2.21 0 0 0-.255-1.052c-.167-.31-.4-.555-.699-.733a1.966 1.966 0 0 0-1.034-.267c-.421 0-.79.103-1.108.307a2.11 2.11 0 0 0-.745.796 2.295 2.295 0 0 0-.267 1.073v1.21c0 .508.093.944.279 1.307.185.36.445.637.778.83.333.189.724.284 1.171.284.299 0 .57-.041.812-.125.243-.087.453-.214.631-.381a1.58 1.58 0 0 0 .403-.619l1.921.216a3.003 3.003 0 0 1-.694 1.33 3.38 3.38 0 0 1-1.295.875c-.526.204-1.129.306-1.807.306Zm13.166-8.897L469.947 102h-2.272l-3.108-8.727h2.193l2.006 6.483h.091l2.011-6.483h2.187Zm3.685 8.903a3.639 3.639 0 0 1-1.494-.295 2.443 2.443 0 0 1-1.046-.887c-.254-.39-.38-.871-.38-1.443 0-.492.091-.9.272-1.222.182-.321.43-.579.745-.772a3.746 3.746 0 0 1 1.062-.438 8.657 8.657 0 0 1 1.233-.221c.511-.053.926-.1 1.244-.142.319-.046.55-.114.694-.205.147-.095.221-.24.221-.437v-.035c0-.427-.127-.759-.38-.994-.254-.235-.62-.352-1.097-.352-.504 0-.903.11-1.199.33-.292.22-.489.479-.591.778l-1.92-.273c.151-.53.401-.973.75-1.33.348-.36.774-.628 1.278-.806a4.894 4.894 0 0 1 1.671-.273c.42 0 .839.05 1.255.148.417.098.798.261 1.142.489.345.223.621.528.83.914.212.387.318.87.318 1.45V102h-1.977v-1.199h-.068a2.51 2.51 0 0 1-.529.682 2.552 2.552 0 0 1-.846.506c-.338.125-.733.187-1.188.187Zm.534-1.511c.413 0 .771-.082 1.074-.245a1.8 1.8 0 0 0 .699-.659c.167-.272.25-.57.25-.892v-1.028a.97.97 0 0 1-.33.148 4.64 4.64 0 0 1-.511.119 15.88 15.88 0 0 1-.563.09l-.482.069c-.307.042-.582.11-.824.205a1.365 1.365 0 0 0-.574.397c-.14.167-.21.383-.21.648 0 .379.138.665.414.858.277.193.629.29 1.057.29Zm8.199-3.779V102h-2.057v-8.727h1.966v1.483h.102c.201-.489.521-.877.961-1.165.443-.288.99-.432 1.642-.432.602 0 1.127.129 1.574.386.45.258.799.631 1.045 1.12.25.488.373 1.081.369 1.778V102h-2.057v-5.239c0-.583-.151-1.04-.454-1.369-.299-.33-.714-.494-1.244-.494-.36 0-.68.08-.961.238a1.66 1.66 0 0 0-.653.677c-.155.295-.233.653-.233 1.073Zm12.051-3.613v1.59h-5.017v-1.59h5.017Zm-3.778-2.091h2.057v8.193c0 .276.041.489.125.636.087.144.2.243.34.296.141.053.296.079.466.079.129 0 .247-.009.353-.028.109-.019.193-.036.25-.051l.346 1.608c-.11.038-.267.079-.471.125a3.86 3.86 0 0 1-.739.079 3.348 3.348 0 0 1-1.392-.233 2.163 2.163 0 0 1-.983-.806c-.239-.364-.356-.819-.352-1.364v-8.534Zm6.765 10.943c-.344 0-.64-.121-.886-.364a1.18 1.18 0 0 1-.364-.886 1.168 1.168 0 0 1 .364-.875 1.22 1.22 0 0 1 .886-.364 1.2 1.2 0 0 1 .87.364 1.19 1.19 0 0 1 .199 1.506 1.31 1.31 0 0 1-.455.454c-.186.11-.39.165-.614.165Zm0-6.227c-.344 0-.64-.121-.886-.364a1.193 1.193 0 0 1-.364-.886 1.168 1.168 0 0 1 .364-.875 1.21 1.21 0 0 1 .886-.37c.334 0 .623.123.87.37a1.191 1.191 0 0 1 .199 1.5 1.31 1.31 0 0 1-.455.454 1.15 1.15 0 0 1-.614.17Zm7.695 6.102V90.364h3.932c.913 0 1.659.164 2.238.494.584.326 1.016.767 1.296 1.324s.42 1.178.42 1.864c0 .685-.14 1.308-.42 1.869a3.131 3.131 0 0 1-1.284 1.34c-.58.33-1.322.495-2.227.495h-2.819V96.5h2.773c.625 0 1.127-.108 1.506-.324a1.93 1.93 0 0 0 .824-.875c.174-.371.261-.79.261-1.255 0-.467-.087-.883-.261-1.25a1.867 1.867 0 0 0-.83-.864c-.383-.212-.89-.318-1.523-.318h-2.477V102h-1.409Zm9.974 0v-8.727h1.296v1.318h.091c.159-.432.447-.782.863-1.051a2.544 2.544 0 0 1 1.409-.404c.099 0 .222.002.37.006s.259.01.335.017v1.364a4.014 4.014 0 0 0-.312-.051 3.09 3.09 0 0 0-.506-.04 2.38 2.38 0 0 0-1.137.267c-.329.174-.59.416-.784.727a1.964 1.964 0 0 0-.284 1.051V102h-1.341Zm9.233.182c-.788 0-1.479-.188-2.074-.563-.59-.375-1.053-.899-1.386-1.574-.329-.674-.494-1.462-.494-2.363 0-.91.165-1.703.494-2.38.333-.679.796-1.205 1.386-1.58.595-.375 1.286-.563 2.074-.563.788 0 1.478.188 2.069.563.594.375 1.056.901 1.386 1.58.333.677.5 1.47.5 2.38 0 .901-.167 1.69-.5 2.363a3.772 3.772 0 0 1-1.386 1.574c-.591.375-1.281.563-2.069.563Zm0-1.205c.599 0 1.091-.153 1.478-.46a2.72 2.72 0 0 0 .858-1.21c.185-.5.278-1.042.278-1.625 0-.584-.093-1.127-.278-1.63a2.755 2.755 0 0 0-.858-1.223c-.387-.31-.879-.465-1.478-.465-.598 0-1.091.155-1.477.465a2.757 2.757 0 0 0-.858 1.222 4.695 4.695 0 0 0-.278 1.63c0 .584.093 1.126.278 1.626.186.5.472.903.858 1.21.386.307.879.46 1.477.46Zm12.826-7.704L537.011 102h-1.363l-3.228-8.727h1.455l2.409 6.954h.091l2.409-6.954h1.455Zm1.77 8.727v-8.727h1.34V102h-1.34Zm.681-10.182a.954.954 0 0 1-.676-.267.86.86 0 0 1-.278-.642.86.86 0 0 1 .278-.642.955.955 0 0 1 .676-.267c.262 0 .485.089.671.267a.851.851 0 0 1 .284.642c0 .25-.095.464-.284.642a.934.934 0 0 1-.671.267Zm6.411 10.364c-.727 0-1.369-.184-1.926-.551-.557-.372-.993-.894-1.307-1.569-.314-.677-.472-1.479-.472-2.403 0-.917.158-1.712.472-2.386.314-.674.752-1.195 1.312-1.563.561-.367 1.209-.55 1.944-.55.568 0 1.017.094 1.346.283.334.186.587.398.762.636.178.235.316.429.414.58h.114v-4.295h1.341V102h-1.296v-1.341h-.159c-.098.159-.238.36-.42.602-.182.239-.441.453-.779.642-.337.186-.786.279-1.346.279Zm.182-1.205c.538 0 .992-.14 1.363-.42.372-.284.654-.676.847-1.176.193-.504.29-1.085.29-1.745 0-.651-.095-1.221-.284-1.71-.19-.492-.47-.875-.841-1.148-.372-.276-.83-.414-1.375-.414-.569 0-1.042.145-1.421.437-.375.288-.657.68-.846 1.176a4.666 4.666 0 0 0-.279 1.66c0 .62.095 1.185.284 1.692.193.504.478.906.853 1.205.378.296.848.443 1.409.443Zm10.119 1.205c-.841 0-1.566-.186-2.176-.557a3.744 3.744 0 0 1-1.404-1.568c-.325-.674-.488-1.459-.488-2.353 0-.893.163-1.681.488-2.363.33-.686.788-1.22 1.375-1.602.591-.387 1.281-.58 2.069-.58.454 0 .903.076 1.346.227.443.152.847.398 1.21.739.364.337.654.784.87 1.34.216.558.324 1.243.324 2.058v.568h-6.728v-1.16h5.364c0-.492-.098-.931-.295-1.317a2.232 2.232 0 0 0-.83-.915c-.356-.224-.777-.335-1.261-.335-.534 0-.997.132-1.387.397a2.623 2.623 0 0 0-.892 1.023c-.208.42-.312.871-.312 1.352v.773c0 .66.113 1.218.341 1.676.231.455.551.801.96 1.04.409.235.884.352 1.426.352.352 0 .67-.049.955-.147.287-.103.536-.254.744-.455.208-.205.369-.458.483-.761l1.295.363a2.86 2.86 0 0 1-.687 1.159c-.322.33-.72.587-1.193.773a4.425 4.425 0 0 1-1.597.273Zm17.29-8.91L573.464 102h-1.363l-3.227-8.727h1.454l2.409 6.954h.091l2.409-6.954h1.455Zm4.072 8.933a3.546 3.546 0 0 1-1.505-.313 2.58 2.58 0 0 1-1.074-.915c-.265-.401-.398-.886-.398-1.454 0-.5.098-.906.295-1.216a2.09 2.09 0 0 1 .79-.739 4.15 4.15 0 0 1 1.091-.397c.402-.092.805-.163 1.21-.217.531-.068.961-.119 1.29-.153.333-.038.576-.1.727-.187.156-.088.233-.239.233-.455v-.045c0-.561-.153-.997-.46-1.307-.303-.31-.763-.466-1.381-.466-.64 0-1.142.14-1.505.42-.364.28-.62.58-.767.898l-1.273-.455c.227-.53.53-.943.909-1.238a3.39 3.39 0 0 1 1.25-.625 5.196 5.196 0 0 1 1.341-.182c.28 0 .602.034.966.102.367.065.721.2 1.062.404.345.204.631.513.858.926.228.413.341.966.341 1.659V102h-1.341v-1.182h-.068c-.091.19-.242.392-.454.608-.213.216-.495.4-.847.551-.352.152-.782.228-1.29.228Zm.205-1.205c.53 0 .977-.104 1.341-.312a2.132 2.132 0 0 0 1.113-1.847v-1.227c-.057.068-.182.13-.375.187a6.29 6.29 0 0 1-.659.142 30.27 30.27 0 0 1-1.284.17 5.19 5.19 0 0 0-.977.222 1.681 1.681 0 0 0-.727.45c-.182.196-.273.465-.273.806 0 .466.172.818.517 1.057.348.235.79.352 1.324.352Zm7.584-10.636V102h-1.341V90.364h1.341Zm7.956 8.068v-5.16h1.34V102h-1.34v-1.477h-.091c-.205.443-.523.82-.955 1.13-.432.307-.977.461-1.636.461-.546 0-1.031-.12-1.455-.358-.424-.243-.757-.606-1-1.091-.242-.489-.363-1.104-.363-1.847v-5.545h1.34v5.454c0 .637.178 1.144.535 1.523.359.379.818.568 1.375.568.333 0 .672-.085 1.017-.256.348-.17.64-.431.875-.784.238-.352.358-.8.358-1.346Zm7.455 3.75c-.84 0-1.566-.186-2.176-.557a3.736 3.736 0 0 1-1.403-1.568c-.326-.674-.489-1.459-.489-2.353 0-.893.163-1.681.489-2.363.329-.686.788-1.22 1.375-1.602.591-.387 1.28-.58 2.068-.58.455 0 .904.076 1.347.227a3.34 3.34 0 0 1 1.21.739c.364.337.653.784.869 1.34.216.558.324 1.243.324 2.058v.568h-6.727v-1.16h5.363c0-.492-.098-.931-.295-1.317a2.225 2.225 0 0 0-.83-.915c-.356-.224-.776-.335-1.261-.335-.534 0-.996.132-1.386.397a2.608 2.608 0 0 0-.892 1.023c-.209.42-.313.871-.313 1.352v.773c0 .66.114 1.218.341 1.676.231.455.551.801.96 1.04.409.235.885.352 1.426.352.353 0 .671-.049.955-.147.288-.103.536-.254.744-.455.209-.205.37-.458.483-.761l1.296.363c-.137.44-.366.826-.688 1.159-.322.33-.719.587-1.193.773a4.421 4.421 0 0 1-1.597.273Zm13.949-8.91v1.137h-4.522v-1.136h4.522Zm-3.204-2.09h1.341V99.5c0 .379.055.663.164.852a.853.853 0 0 0 .432.375c.178.061.366.091.563.091.148 0 .269-.007.363-.023l.228-.045.272 1.205c-.09.034-.217.068-.38.102-.163.038-.37.057-.62.057-.378 0-.75-.082-1.113-.245a2.217 2.217 0 0 1-.898-.744c-.235-.333-.352-.754-.352-1.261v-8.682Zm8.673 11c-.788 0-1.479-.188-2.074-.563-.591-.375-1.053-.899-1.386-1.574-.33-.674-.494-1.462-.494-2.363 0-.91.164-1.703.494-2.38.333-.679.795-1.205 1.386-1.58.595-.375 1.286-.563 2.074-.563.788 0 1.477.188 2.068.563.595.375 1.057.901 1.387 1.58.333.677.5 1.47.5 2.38 0 .901-.167 1.69-.5 2.363-.33.675-.792 1.199-1.387 1.574-.591.375-1.28.563-2.068.563Zm0-1.205c.599 0 1.091-.153 1.477-.46.387-.307.673-.71.858-1.21.186-.5.279-1.042.279-1.625 0-.584-.093-1.127-.279-1.63a2.74 2.74 0 0 0-.858-1.223c-.386-.31-.878-.465-1.477-.465-.598 0-1.091.155-1.477.465a2.74 2.74 0 0 0-.858 1.222 4.672 4.672 0 0 0-.279 1.63c0 .584.093 1.126.279 1.626.185.5.471.903.858 1.21.386.307.879.46 1.477.46Zm14.047 1.205c-.788 0-1.479-.188-2.074-.563-.591-.375-1.053-.899-1.386-1.574-.33-.674-.495-1.462-.495-2.363 0-.91.165-1.703.495-2.38.333-.679.795-1.205 1.386-1.58.595-.375 1.286-.563 2.074-.563.788 0 1.477.188 2.068.563.595.375 1.057.901 1.387 1.58.333.677.5 1.47.5 2.38 0 .901-.167 1.69-.5 2.363-.33.675-.792 1.199-1.387 1.574-.591.375-1.28.563-2.068.563Zm0-1.205c.598 0 1.091-.153 1.477-.46.387-.307.673-.71.858-1.21.186-.5.279-1.042.279-1.625 0-.584-.093-1.127-.279-1.63a2.74 2.74 0 0 0-.858-1.223c-.386-.31-.879-.465-1.477-.465-.599 0-1.091.155-1.477.465a2.74 2.74 0 0 0-.858 1.222 4.672 4.672 0 0 0-.279 1.63c0 .584.093 1.126.279 1.626.185.5.471.903.858 1.21.386.307.878.46 1.477.46Zm9.797-7.704v1.136h-4.523v-1.136h4.523Zm-3.205-2.091h1.341V99.5c0 .379.055.663.165.852a.853.853 0 0 0 .432.375c.178.061.365.091.562.091.148 0 .269-.007.364-.023l.227-.045.273 1.205a2.74 2.74 0 0 1-.381.102 2.792 2.792 0 0 1-.619.057 2.7 2.7 0 0 1-1.114-.245 2.208 2.208 0 0 1-.897-.744c-.235-.333-.353-.754-.353-1.261v-8.682Zm6.75 5.568V102h-1.341V90.364h1.341v4.272h.114c.204-.45.511-.808.92-1.073.413-.27.963-.404 1.648-.404.595 0 1.116.12 1.563.358.447.235.793.597 1.039 1.085.25.485.375 1.102.375 1.852V102h-1.341v-5.454c0-.694-.179-1.23-.539-1.609-.356-.382-.851-.573-1.483-.573-.44 0-.834.092-1.182.278a2.035 2.035 0 0 0-.818.813c-.197.356-.296.787-.296 1.295Zm11.772 5.432c-.841 0-1.567-.186-2.177-.557a3.742 3.742 0 0 1-1.403-1.568c-.326-.674-.489-1.459-.489-2.353 0-.893.163-1.681.489-2.363.33-.686.788-1.22 1.375-1.602.591-.387 1.28-.58 2.068-.58.455 0 .904.076 1.347.227a3.34 3.34 0 0 1 1.21.739c.364.337.653.784.869 1.34.216.558.324 1.243.324 2.058v.568h-6.727v-1.16h5.364c0-.492-.099-.931-.296-1.317a2.23 2.23 0 0 0-.829-.915c-.356-.224-.777-.335-1.262-.335-.534 0-.996.132-1.386.397a2.615 2.615 0 0 0-.892 1.023 3.01 3.01 0 0 0-.313 1.352v.773c0 .66.114 1.218.341 1.676.231.455.551.801.96 1.04.41.235.885.352 1.427.352.352 0 .67-.049.954-.147.288-.103.536-.254.744-.455.209-.205.37-.458.483-.761l1.296.363c-.136.44-.366.826-.688 1.159-.322.33-.719.587-1.193.773a4.416 4.416 0 0 1-1.596.273Zm5.653-.182v-8.727h1.295v1.318h.091c.159-.432.447-.782.864-1.051a2.541 2.541 0 0 1 1.409-.404c.099 0 .222.002.369.006.148.004.26.01.336.017v1.364a4.073 4.073 0 0 0-.313-.051 3.071 3.071 0 0 0-.506-.04c-.424 0-.803.089-1.136.267a2.016 2.016 0 0 0-.784.727 1.964 1.964 0 0 0-.284 1.051V102h-1.341Zm12.135-6.773-1.205.341a2.206 2.206 0 0 0-.335-.585 1.628 1.628 0 0 0-.591-.477c-.25-.125-.57-.188-.96-.188-.534 0-.979.123-1.335.37-.352.242-.529.55-.529.926 0 .333.122.596.364.79.242.193.621.354 1.136.482l1.296.319c.78.189 1.362.479 1.744.869.383.386.574.884.574 1.494 0 .5-.144.947-.432 1.341-.284.394-.682.705-1.193.932-.511.227-1.106.341-1.784.341-.89 0-1.627-.193-2.21-.58-.584-.386-.953-.95-1.108-1.693l1.273-.318c.121.47.35.822.687 1.057.341.235.786.352 1.335.352.625 0 1.121-.133 1.489-.398.371-.269.557-.591.557-.966 0-.303-.106-.556-.318-.761-.213-.208-.538-.364-.978-.466l-1.454-.34c-.8-.19-1.387-.484-1.762-.882-.371-.401-.556-.903-.556-1.505 0-.493.138-.928.414-1.307a2.828 2.828 0 0 1 1.142-.892c.485-.216 1.034-.324 1.648-.324.864 0 1.542.19 2.034.568.496.38.849.88 1.057 1.5Z"/>
  <rect width="347" height="49" x="363.5" y="72" stroke="#F4CE71" stroke-width="2" rx="24.5"/>
  <rect width="362" height="49" x="363.5" y="143" fill="#fff" rx="24.5"/>
  <path fill="#1E4460" d="M393.648 173v-11.636h4.454c.841 0 1.54.132 2.097.397.56.262.979.62 1.256 1.074.28.455.42.97.42 1.546 0 .473-.091.878-.273 1.216a2.292 2.292 0 0 1-.733.812 3.108 3.108 0 0 1-1.028.449v.114c.413.022.809.149 1.187.38.383.228.695.55.938.966.242.417.364.921.364 1.512 0 .602-.146 1.143-.438 1.625-.292.477-.731.854-1.318 1.13-.587.277-1.326.415-2.216.415h-4.71Zm2.108-1.761h2.267c.765 0 1.316-.146 1.653-.438.341-.295.512-.674.512-1.136a1.743 1.743 0 0 0-.983-1.591c-.315-.163-.69-.244-1.125-.244h-2.324v3.409Zm0-4.927h2.085c.364 0 .691-.066.983-.198.292-.137.521-.328.687-.574.171-.25.256-.546.256-.887 0-.45-.159-.822-.477-1.113-.315-.292-.782-.438-1.404-.438h-2.13v3.21Zm12.18 6.858c-.875 0-1.631-.181-2.267-.545a3.686 3.686 0 0 1-1.46-1.557c-.341-.674-.512-1.468-.512-2.38 0-.898.171-1.686.512-2.364a3.872 3.872 0 0 1 1.443-1.591c.617-.383 1.343-.574 2.176-.574a4.41 4.41 0 0 1 1.523.261c.481.171.905.436 1.273.796.371.36.662.818.875 1.375.212.553.318 1.212.318 1.977v.631h-7.154v-1.387h5.182a2.214 2.214 0 0 0-.256-1.051 1.858 1.858 0 0 0-.698-.733 1.968 1.968 0 0 0-1.034-.267c-.421 0-.79.103-1.108.307a2.11 2.11 0 0 0-.745.796 2.29 2.29 0 0 0-.267 1.074v1.21c0 .507.093.943.279 1.307.185.359.445.636.778.829.333.189.724.284 1.17.284.3 0 .571-.041.813-.125.242-.087.453-.214.631-.381.178-.166.312-.373.403-.619l1.921.216a3.003 3.003 0 0 1-.694 1.33 3.388 3.388 0 0 1-1.295.875c-.527.204-1.129.306-1.807.306Zm9.68-.17v-11.636h7.569v1.767h-5.461v3.159h5.069v1.767h-5.069v3.176h5.506V173h-7.614Zm11.31-8.727 1.762 3.221 1.789-3.221h2.176l-2.63 4.363 2.676 4.364h-2.165l-1.846-3.142-1.83 3.142h-2.182l2.659-4.364-2.591-4.363h2.182Zm7.318 12v-12h2.023v1.443h.119c.106-.212.256-.438.449-.676.193-.243.455-.449.784-.62.33-.174.75-.261 1.262-.261.674 0 1.282.172 1.824.517.545.341.977.847 1.295 1.517.322.667.483 1.485.483 2.455 0 .958-.157 1.772-.472 2.443-.314.67-.742 1.182-1.284 1.534a3.302 3.302 0 0 1-1.841.528c-.5 0-.914-.083-1.244-.25a2.514 2.514 0 0 1-.795-.602 3.932 3.932 0 0 1-.461-.676h-.085v4.648h-2.057Zm2.017-7.637c0 .565.08 1.059.239 1.483.163.425.396.756.699.995.307.234.678.352 1.113.352.455 0 .836-.121 1.143-.364.306-.246.537-.581.693-1.005.159-.428.238-.915.238-1.461 0-.541-.077-1.022-.233-1.443-.155-.42-.386-.75-.693-.988-.307-.239-.689-.358-1.148-.358-.439 0-.812.115-1.119.346-.307.231-.54.555-.699.972-.155.416-.233.907-.233 1.471Zm7.983 4.364v-8.727h1.995v1.454h.091c.159-.504.431-.892.818-1.165.39-.276.835-.414 1.335-.414.114 0 .24.005.381.017.144.007.263.021.358.04v1.892a2.147 2.147 0 0 0-.415-.08 3.906 3.906 0 0 0-.54-.04c-.375 0-.712.082-1.011.245a1.78 1.78 0 0 0-.699.664 1.869 1.869 0 0 0-.256.983V173h-2.057Zm9.848.17c-.875 0-1.63-.181-2.267-.545a3.692 3.692 0 0 1-1.46-1.557c-.341-.674-.511-1.468-.511-2.38 0-.898.17-1.686.511-2.364a3.872 3.872 0 0 1 1.443-1.591c.618-.383 1.343-.574 2.176-.574a4.41 4.41 0 0 1 1.523.261c.481.171.905.436 1.273.796.371.36.663.818.875 1.375.212.553.318 1.212.318 1.977v.631h-7.153v-1.387h5.181a2.213 2.213 0 0 0-.255-1.051c-.167-.31-.4-.555-.699-.733a1.966 1.966 0 0 0-1.034-.267c-.421 0-.79.103-1.108.307a2.114 2.114 0 0 0-.744.796 2.28 2.28 0 0 0-.268 1.074v1.21c0 .507.093.943.279 1.307.185.359.445.636.778.829.334.189.724.284 1.171.284.299 0 .57-.041.812-.125.243-.087.453-.214.631-.381.178-.166.312-.373.403-.619l1.921.216a2.991 2.991 0 0 1-.693 1.33 3.392 3.392 0 0 1-1.296.875c-.526.204-1.129.306-1.807.306Zm12.519-6.59-1.875.204a1.507 1.507 0 0 0-.279-.534 1.372 1.372 0 0 0-.522-.403c-.22-.103-.489-.154-.807-.154-.428 0-.788.093-1.08.279-.288.185-.43.426-.426.721a.752.752 0 0 0 .279.619c.193.16.511.29.954.393l1.489.318c.826.178 1.439.46 1.841.846.405.387.61.892.613 1.517a2.364 2.364 0 0 1-.483 1.455c-.314.417-.752.742-1.312.977-.561.235-1.205.352-1.932.352-1.068 0-1.928-.223-2.58-.67-.651-.451-1.039-1.078-1.164-1.881l2.005-.193c.091.394.284.691.58.892.295.201.68.301 1.153.301.489 0 .881-.1 1.176-.301.3-.201.449-.449.449-.744a.773.773 0 0 0-.289-.619c-.19-.163-.485-.288-.887-.375l-1.488-.313c-.838-.174-1.457-.468-1.858-.881-.402-.416-.601-.943-.597-1.579-.004-.538.142-1.004.438-1.398.299-.398.714-.704 1.244-.92.534-.22 1.149-.33 1.846-.33 1.023 0 1.828.218 2.415.653.591.436.957 1.025 1.097 1.768Zm8.781 0-1.875.204a1.52 1.52 0 0 0-.278-.534 1.376 1.376 0 0 0-.523-.403c-.22-.103-.489-.154-.807-.154-.428 0-.788.093-1.079.279-.288.185-.43.426-.427.721a.755.755 0 0 0 .279.619c.193.16.511.29.954.393l1.489.318c.826.178 1.439.46 1.841.846.405.387.61.892.614 1.517a2.377 2.377 0 0 1-.483 1.455c-.315.417-.752.742-1.313.977-.561.235-1.204.352-1.932.352-1.068 0-1.928-.223-2.579-.67-.652-.451-1.04-1.078-1.165-1.881l2.006-.193c.091.394.284.691.579.892.296.201.68.301 1.154.301.488 0 .88-.1 1.176-.301.299-.201.449-.449.449-.744a.774.774 0 0 0-.29-.619c-.19-.163-.485-.288-.887-.375l-1.488-.313c-.837-.174-1.457-.468-1.858-.881-.402-.416-.601-.943-.597-1.579-.004-.538.142-1.004.438-1.398.299-.398.714-.704 1.244-.92.534-.22 1.15-.33 1.847-.33 1.022 0 1.827.218 2.414.653.591.436.957 1.025 1.097 1.768Zm1.884 6.42v-8.727h2.056V173h-2.056Zm1.034-9.966a1.2 1.2 0 0 1-.841-.324 1.043 1.043 0 0 1-.353-.79c0-.31.118-.573.353-.789.235-.22.515-.33.841-.33.329 0 .61.11.841.33.234.216.352.479.352.789 0 .307-.118.571-.352.79a1.188 1.188 0 0 1-.841.324Zm10.933 1.239L488.135 173h-2.273l-3.108-8.727h2.193l2.006 6.483h.091l2.011-6.483h2.188Zm4.99 8.897c-.875 0-1.631-.181-2.267-.545a3.686 3.686 0 0 1-1.46-1.557c-.341-.674-.512-1.468-.512-2.38 0-.898.171-1.686.512-2.364a3.858 3.858 0 0 1 1.443-1.591c.617-.383 1.343-.574 2.176-.574.538 0 1.045.087 1.523.261.481.171.905.436 1.272.796.372.36.663.818.875 1.375.213.553.319 1.212.319 1.977v.631h-7.154v-1.387h5.182a2.214 2.214 0 0 0-.256-1.051 1.858 1.858 0 0 0-.698-.733 1.97 1.97 0 0 0-1.035-.267c-.42 0-.789.103-1.108.307a2.114 2.114 0 0 0-.744.796 2.29 2.29 0 0 0-.267 1.074v1.21c0 .507.093.943.278 1.307.186.359.446.636.779.829.333.189.723.284 1.17.284.3 0 .57-.041.813-.125.242-.087.453-.214.631-.381.178-.166.312-.373.403-.619l1.92.216a2.991 2.991 0 0 1-.693 1.33 3.388 3.388 0 0 1-1.295.875c-.527.204-1.129.306-1.807.306Zm6.888-.045c-.345 0-.64-.121-.887-.364a1.176 1.176 0 0 1-.363-.886 1.163 1.163 0 0 1 .363-.875c.247-.242.542-.364.887-.364a1.2 1.2 0 0 1 .869.364 1.195 1.195 0 0 1 .199 1.506 1.301 1.301 0 0 1-.455.454c-.185.11-.39.165-.613.165Zm0-6.227c-.345 0-.64-.121-.887-.364a1.189 1.189 0 0 1-.363-.886 1.163 1.163 0 0 1 .363-.875c.247-.246.542-.37.887-.37.333 0 .623.124.869.37.25.242.377.534.381.875a1.21 1.21 0 0 1-.182.625 1.301 1.301 0 0 1-.455.454c-.185.114-.39.171-.613.171Zm8.703 6.102h-1.477l4.272-11.636h1.455L520.347 173h-1.478l-3.477-9.795h-.091L511.824 173Zm.545-4.545h5.955v1.25h-5.955v-1.25Zm10.949-7.091V173h-1.341v-11.636h1.341ZM527.751 173l-2.659-8.727h1.409l1.887 6.682h.091l1.863-6.682h1.432l1.841 6.659h.091l1.886-6.659h1.409L534.342 173h-1.318l-1.909-6.705h-.136L529.07 173h-1.319Zm13.591.205a3.546 3.546 0 0 1-1.505-.313 2.58 2.58 0 0 1-1.074-.915c-.265-.401-.398-.886-.398-1.454 0-.5.099-.906.296-1.216.196-.315.46-.561.789-.739.33-.178.693-.31 1.091-.398.402-.09.805-.162 1.21-.215.531-.069.961-.12 1.29-.154.334-.038.576-.1.727-.187.156-.087.233-.239.233-.455v-.045c0-.561-.153-.997-.46-1.307-.303-.311-.763-.466-1.38-.466-.641 0-1.143.14-1.506.42-.364.281-.619.58-.767.898l-1.273-.454c.227-.531.53-.944.909-1.239a3.406 3.406 0 0 1 1.25-.625 5.205 5.205 0 0 1 1.341-.182c.28 0 .602.034.966.102a3.09 3.09 0 0 1 1.062.404c.345.204.631.513.858.926.228.413.341.966.341 1.659V173h-1.341v-1.182h-.068c-.091.19-.242.392-.454.608-.212.216-.495.4-.847.551-.352.152-.782.228-1.29.228Zm.205-1.205c.53 0 .977-.104 1.341-.312a2.133 2.133 0 0 0 1.113-1.847v-1.227c-.056.068-.181.13-.375.187a6.143 6.143 0 0 1-.659.142 27.7 27.7 0 0 1-.721.102c-.231.027-.419.05-.563.069a5.114 5.114 0 0 0-.977.221 1.684 1.684 0 0 0-.727.449c-.182.197-.273.466-.273.807 0 .466.172.818.517 1.057.348.235.79.352 1.324.352Zm6.794 4.273a2.93 2.93 0 0 1-.608-.057 1.601 1.601 0 0 1-.369-.102l.341-1.182c.325.083.613.113.863.091a1.04 1.04 0 0 0 .665-.335c.197-.197.377-.518.54-.961l.25-.682-3.228-8.772h1.455l2.409 6.954h.091l2.409-6.954h1.455l-3.705 10c-.167.45-.373.824-.619 1.119a2.321 2.321 0 0 1-.858.665 2.646 2.646 0 0 1-1.091.216Zm14.224-10.046-1.204.341a2.253 2.253 0 0 0-.335-.585 1.63 1.63 0 0 0-.591-.477c-.25-.125-.57-.188-.961-.188-.534 0-.979.123-1.335.37-.352.242-.528.551-.528.926 0 .333.121.596.363.789.243.194.622.355 1.137.483l1.295.319c.781.189 1.362.479 1.745.869.382.386.573.884.573 1.494 0 .5-.144.947-.431 1.341-.284.394-.682.705-1.194.932-.511.227-1.106.341-1.784.341-.89 0-1.627-.193-2.21-.58-.583-.386-.953-.95-1.108-1.693l1.273-.318c.121.47.35.822.687 1.057.341.235.786.352 1.336.352.625 0 1.121-.133 1.488-.398.371-.269.557-.591.557-.966 0-.303-.106-.556-.318-.761-.212-.208-.538-.364-.977-.466l-1.455-.341c-.799-.189-1.386-.483-1.761-.88-.372-.402-.557-.904-.557-1.506 0-.493.138-.928.415-1.307a2.82 2.82 0 0 1 1.142-.892c.485-.216 1.034-.324 1.647-.324.864 0 1.542.189 2.035.568.496.379.848.879 1.056 1.5Zm6.86 6.773v-11.636h1.341v4.295h.113c.099-.151.235-.345.409-.579.178-.239.432-.451.762-.637.333-.189.784-.284 1.352-.284.735 0 1.383.184 1.943.551.561.368.998.888 1.313 1.563.314.674.471 1.469.471 2.386 0 .924-.157 1.725-.471 2.403-.315.675-.75 1.197-1.307 1.569-.557.367-1.199.551-1.926.551-.561 0-1.01-.093-1.347-.279-.337-.189-.596-.403-.778-.642a8.677 8.677 0 0 1-.421-.602h-.159V173h-1.295Zm1.318-4.364c0 .659.096 1.241.29 1.745.193.5.475.892.846 1.176.371.28.826.42 1.364.42.561 0 1.028-.147 1.403-.443.379-.299.663-.701.853-1.204a4.734 4.734 0 0 0 .289-1.694c0-.613-.094-1.166-.284-1.659-.185-.496-.468-.888-.846-1.176-.375-.292-.847-.437-1.415-.437-.546 0-1.004.138-1.375.414-.371.273-.652.656-.841 1.148-.189.489-.284 1.059-.284 1.71Zm12.096 4.546c-.84 0-1.566-.186-2.176-.557a3.736 3.736 0 0 1-1.403-1.568c-.326-.674-.489-1.459-.489-2.352 0-.894.163-1.682.489-2.364.329-.686.788-1.22 1.375-1.602.591-.387 1.28-.58 2.068-.58.455 0 .904.076 1.347.227.443.152.846.398 1.21.739.364.337.653.784.869 1.341.216.557.324 1.242.324 2.057v.568h-6.727v-1.159h5.363c0-.493-.098-.932-.295-1.318a2.219 2.219 0 0 0-.83-.915c-.356-.224-.776-.335-1.261-.335-.534 0-.996.132-1.386.397a2.617 2.617 0 0 0-.892 1.023 2.997 2.997 0 0 0-.313 1.352v.773c0 .659.114 1.218.341 1.676.231.455.551.801.96 1.04.409.235.885.352 1.426.352.353 0 .671-.049.955-.147.288-.103.536-.254.744-.455.209-.205.37-.458.483-.761l1.296.363c-.137.44-.366.826-.688 1.159-.322.33-.719.587-1.193.773a4.421 4.421 0 0 1-1.597.273Zm11.404-3.364-.023-1.659h.273l3.818-3.886h1.659l-4.068 4.113h-.114l-1.545 1.432Zm-1.25 3.182v-11.636h1.341V173h-1.341Zm5.545 0-3.409-4.318.955-.932 4.159 5.25h-1.705Zm3.158 0v-8.727h1.341V173h-1.341Zm.682-10.182a.951.951 0 0 1-.676-.267.857.857 0 0 1-.279-.642c0-.25.093-.464.279-.642a.951.951 0 0 1 .676-.267c.261 0 .485.089.67.267.19.178.284.392.284.642s-.094.464-.284.642a.932.932 0 0 1-.67.267Zm4.456 4.932V173h-1.341v-8.727h1.295v1.363h.114c.205-.443.515-.799.932-1.068.416-.273.954-.409 1.613-.409.591 0 1.108.121 1.552.364.443.238.787.602 1.034 1.091.246.484.369 1.098.369 1.841V173h-1.341v-5.455c0-.685-.178-1.219-.534-1.602-.356-.386-.845-.579-1.466-.579-.428 0-.811.092-1.148.278a1.99 1.99 0 0 0-.789.813c-.194.356-.29.787-.29 1.295Zm11.314 5.432c-.728 0-1.37-.184-1.926-.551-.557-.372-.993-.894-1.307-1.569-.315-.678-.472-1.479-.472-2.403 0-.917.157-1.712.472-2.386.314-.675.752-1.195 1.312-1.563.561-.367 1.209-.551 1.943-.551.569 0 1.018.095 1.347.284.333.186.587.398.761.637.178.234.317.428.415.579h.114v-4.295h1.341V173h-1.296v-1.341h-.159c-.098.159-.238.36-.42.602-.182.239-.442.453-.779.642-.337.186-.786.279-1.346.279Zm.182-1.205c.537 0 .992-.14 1.363-.42.371-.284.654-.676.847-1.176.193-.504.29-1.086.29-1.745 0-.651-.095-1.221-.285-1.71-.189-.492-.469-.875-.84-1.148-.372-.276-.83-.414-1.375-.414-.569 0-1.042.145-1.421.437-.375.288-.657.68-.847 1.176a4.694 4.694 0 0 0-.278 1.659c0 .622.095 1.186.284 1.694.193.503.477.905.852 1.204.379.296.849.443 1.41.443Zm14.755-7.704v1.136h-4.523v-1.136h4.523Zm-3.204-2.091h1.341v8.318c0 .379.055.663.164.852a.853.853 0 0 0 .432.375c.178.061.366.091.563.091.147 0 .269-.007.363-.023l.228-.045.272 1.205a2.72 2.72 0 0 1-.38.102c-.163.038-.37.057-.62.057-.378 0-.75-.082-1.113-.245a2.217 2.217 0 0 1-.898-.744c-.235-.333-.352-.754-.352-1.261v-8.682Zm8.673 11c-.788 0-1.479-.188-2.074-.563-.591-.375-1.053-.899-1.386-1.574-.33-.674-.495-1.462-.495-2.363 0-.909.165-1.703.495-2.381.333-.678.795-1.204 1.386-1.579.595-.375 1.286-.563 2.074-.563.788 0 1.477.188 2.068.563.595.375 1.057.901 1.387 1.579.333.678.5 1.472.5 2.381 0 .901-.167 1.689-.5 2.363-.33.675-.792 1.199-1.387 1.574-.591.375-1.28.563-2.068.563Zm0-1.205c.598 0 1.091-.153 1.477-.46.387-.307.673-.71.858-1.21.186-.5.279-1.042.279-1.625 0-.584-.093-1.127-.279-1.631a2.732 2.732 0 0 0-.858-1.221c-.386-.311-.879-.466-1.477-.466-.599 0-1.091.155-1.477.466-.387.31-.673.717-.858 1.221a4.672 4.672 0 0 0-.279 1.631c0 .583.093 1.125.279 1.625.185.5.471.903.858 1.21.386.307.878.46 1.477.46Zm14.047 1.205c-.788 0-1.479-.188-2.074-.563-.591-.375-1.053-.899-1.386-1.574-.33-.674-.495-1.462-.495-2.363 0-.909.165-1.703.495-2.381.333-.678.795-1.204 1.386-1.579.595-.375 1.286-.563 2.074-.563.788 0 1.477.188 2.068.563.595.375 1.057.901 1.386 1.579.334.678.5 1.472.5 2.381 0 .901-.166 1.689-.5 2.363a3.758 3.758 0 0 1-1.386 1.574c-.591.375-1.28.563-2.068.563Zm0-1.205c.598 0 1.091-.153 1.477-.46a2.72 2.72 0 0 0 .858-1.21c.186-.5.278-1.042.278-1.625 0-.584-.092-1.127-.278-1.631a2.748 2.748 0 0 0-.858-1.221c-.386-.311-.879-.466-1.477-.466-.599 0-1.091.155-1.477.466-.387.31-.673.717-.858 1.221a4.672 4.672 0 0 0-.279 1.631c0 .583.093 1.125.279 1.625.185.5.471.903.858 1.21.386.307.878.46 1.477.46Zm9.797-7.704v1.136h-4.523v-1.136h4.523Zm-3.205-2.091h1.341v8.318c0 .379.055.663.165.852a.849.849 0 0 0 .432.375c.178.061.365.091.562.091.148 0 .269-.007.364-.023l.227-.045.273 1.205a2.74 2.74 0 0 1-.381.102 2.792 2.792 0 0 1-.619.057 2.7 2.7 0 0 1-1.114-.245 2.217 2.217 0 0 1-.898-.744c-.234-.333-.352-.754-.352-1.261v-8.682Zm6.75 5.568V173h-1.341v-11.636h1.341v4.272h.114c.204-.45.511-.808.92-1.074.413-.268.962-.403 1.648-.403.595 0 1.116.119 1.563.358.446.235.793.597 1.039 1.085.25.485.375 1.103.375 1.853V173h-1.341v-5.455c0-.693-.18-1.229-.539-1.607-.356-.383-.851-.574-1.483-.574-.44 0-.834.092-1.182.278a2.025 2.025 0 0 0-.818.813c-.197.356-.296.787-.296 1.295Zm11.771 5.432c-.84 0-1.566-.186-2.176-.557a3.736 3.736 0 0 1-1.403-1.568c-.326-.674-.489-1.459-.489-2.352 0-.894.163-1.682.489-2.364.329-.686.788-1.22 1.375-1.602.591-.387 1.28-.58 2.068-.58.455 0 .904.076 1.347.227.443.152.846.398 1.21.739.364.337.653.784.869 1.341.216.557.324 1.242.324 2.057v.568h-6.727v-1.159h5.363c0-.493-.098-.932-.295-1.318a2.219 2.219 0 0 0-.83-.915c-.356-.224-.776-.335-1.261-.335-.534 0-.996.132-1.386.397a2.617 2.617 0 0 0-.892 1.023 2.997 2.997 0 0 0-.313 1.352v.773c0 .659.114 1.218.341 1.676.231.455.551.801.96 1.04.409.235.885.352 1.426.352.353 0 .671-.049.955-.147.288-.103.536-.254.744-.455.209-.205.37-.458.483-.761l1.296.363c-.137.44-.366.826-.688 1.159-.322.33-.719.587-1.193.773a4.421 4.421 0 0 1-1.597.273Zm5.654-.182v-8.727h1.295v1.318h.091c.159-.432.447-.782.864-1.051a2.542 2.542 0 0 1 1.409-.404c.098 0 .222.002.369.006.148.004.26.01.336.017v1.364a3.462 3.462 0 0 0-.313-.051 3.026 3.026 0 0 0-.506-.04c-.424 0-.803.089-1.136.267-.33.174-.591.417-.784.727a1.963 1.963 0 0 0-.284 1.051V173h-1.341Zm12.135-6.773-1.205.341a2.197 2.197 0 0 0-.335-.585 1.63 1.63 0 0 0-.591-.477c-.25-.125-.57-.188-.96-.188-.534 0-.979.123-1.335.37-.353.242-.529.551-.529.926 0 .333.122.596.364.789.242.194.621.355 1.136.483l1.296.319c.78.189 1.361.479 1.744.869.383.386.574.884.574 1.494 0 .5-.144.947-.432 1.341-.284.394-.682.705-1.193.932-.511.227-1.106.341-1.784.341-.89 0-1.627-.193-2.21-.58-.584-.386-.953-.95-1.108-1.693l1.272-.318c.122.47.351.822.688 1.057.341.235.786.352 1.335.352.625 0 1.121-.133 1.489-.398.371-.269.557-.591.557-.966 0-.303-.106-.556-.319-.761-.212-.208-.537-.364-.977-.466l-1.454-.341c-.8-.189-1.387-.483-1.762-.88-.371-.402-.557-.904-.557-1.506 0-.493.139-.928.415-1.307a2.82 2.82 0 0 1 1.142-.892c.485-.216 1.034-.324 1.648-.324.864 0 1.542.189 2.034.568.496.379.849.879 1.057 1.5Z"/>
  <rect width="362" height="49" x="363.5" y="143" stroke="#F4CE71" stroke-width="2" rx="24.5"/>
  <path fill="#F4CE71" d="M241.5 96a1 1 0 0 0 0 2v-2Zm117.707-69.793a1 1 0 0 0 0-1.414l-6.364-6.364a1 1 0 1 0-1.414 1.414l5.657 5.657-5.657 5.657a1 1 0 1 0 1.414 1.414l6.364-6.364ZM241.5 98h17v-2h-17v2Zm42-25V49.5h-2V73h2Zm23-46.5h52v-2h-52v2Zm-23 23c0-12.703 10.297-23 23-23v-2c-13.807 0-25 11.193-25 25h2Zm-25 48.5c13.807 0 25-11.193 25-25h-2c0 12.703-10.297 23-23 23v2Z"/>
  <path fill="#F4CE71" d="M241.5 96a1 1 0 0 0 0 2v-2Zm117.707 1.707a1 1 0 0 0 0-1.414l-6.364-6.364a1 1 0 1 0-1.414 1.414L357.086 97l-5.657 5.657a.999.999 0 1 0 1.414 1.414l6.364-6.364ZM241.5 98h117v-2h-117v2Z"/>
  <path fill="#F4CE71" d="M241.5 96a1 1 0 0 0 0 2v-2Zm117.707 72.207a.999.999 0 0 0 0-1.414l-6.364-6.364a.999.999 0 1 0-1.414 1.414l5.657 5.657-5.657 5.657a.999.999 0 1 0 1.414 1.414l6.364-6.364ZM241.5 98h13v-2h-13v2Zm36 23v22.5h2V121h-2Zm25 47.5h56v-2h-56v2Zm-25-25c0 13.807 11.193 25 25 25v-2c-12.703 0-23-10.297-23-23h-2Zm-23-45.5c12.703 0 23 10.297 23 23h2c0-13.807-11.193-25-25-25v2Z"/>
</svg>
