<svg xmlns="http://www.w3.org/2000/svg" width="959" height="35" fill="none" viewBox="0 0 959 35">
  <rect width="77" height="35" fill="#F6E0AA" rx="17.5"/>
  <path fill="#000" d="M21.089 16.563c-.053-.497-.277-.883-.67-1.16-.39-.276-.898-.414-1.523-.414-.44 0-.817.066-1.131.198-.314.133-.555.313-.722.54a1.313 1.313 0 0 0-.255.779c0 .242.055.452.164.63.114.178.267.33.46.455.194.121.408.223.643.307.235.083.471.153.71.21l1.09.273c.44.102.863.24 1.268.415a4.43 4.43 0 0 1 1.096.659c.326.265.584.585.773.96.19.375.284.814.284 1.318 0 .682-.174 1.282-.522 1.801-.349.515-.853.919-1.512 1.21-.655.288-1.449.432-2.38.432-.906 0-1.692-.14-2.358-.42-.663-.28-1.182-.69-1.557-1.228-.371-.537-.572-1.193-.602-1.965h2.073c.03.405.156.742.375 1.01.22.27.506.47.858.603a3.39 3.39 0 0 0 1.194.199c.458 0 .86-.068 1.204-.204a1.95 1.95 0 0 0 .818-.58 1.4 1.4 0 0 0 .301-.875c-.003-.303-.092-.553-.267-.75-.174-.2-.418-.367-.733-.5a7.051 7.051 0 0 0-1.09-.364l-1.324-.34c-.959-.247-1.716-.62-2.273-1.12-.553-.504-.83-1.172-.83-2.006 0-.685.186-1.286.557-1.8.375-.516.885-.915 1.528-1.2.644-.287 1.374-.431 2.188-.431.826 0 1.55.143 2.17.431.625.285 1.116.68 1.472 1.188a3.03 3.03 0 0 1 .551 1.739H21.09Zm8.334-.29v1.59h-5.017v-1.59h5.017Zm-3.779-2.091h2.057v8.193c0 .276.042.489.125.636.087.144.2.243.34.296.141.053.296.08.467.08.129 0 .246-.01.352-.029.11-.019.193-.036.25-.051l.347 1.608c-.11.038-.267.08-.472.125-.2.045-.447.072-.739.08a3.354 3.354 0 0 1-1.392-.234 2.166 2.166 0 0 1-.983-.806c-.238-.364-.356-.819-.352-1.364v-8.534Zm9.269 10.989c-.875 0-1.631-.182-2.267-.546a3.694 3.694 0 0 1-1.46-1.557c-.341-.674-.512-1.468-.512-2.38 0-.898.17-1.686.511-2.364a3.866 3.866 0 0 1 1.444-1.591c.617-.383 1.342-.574 2.176-.574.538 0 1.045.087 1.522.262.482.17.906.435 1.273.795.371.36.663.818.875 1.375.212.553.318 1.212.318 1.977v.63H31.64v-1.386h5.182a2.213 2.213 0 0 0-.256-1.05 1.86 1.86 0 0 0-.699-.734 1.965 1.965 0 0 0-1.034-.267c-.42 0-.79.103-1.108.307-.318.2-.566.466-.744.796a2.29 2.29 0 0 0-.267 1.073v1.21c0 .508.093.944.278 1.308.186.36.445.636.779.83.333.189.723.283 1.17.283.3 0 .57-.042.813-.125a1.81 1.81 0 0 0 .63-.38c.178-.167.313-.374.404-.62l1.92.216c-.121.508-.352.95-.693 1.33a3.379 3.379 0 0 1-1.296.875c-.526.204-1.128.306-1.806.306Zm5.62 3.102v-12h2.023v1.443h.12c.105-.212.255-.438.448-.676a2.38 2.38 0 0 1 .784-.62c.33-.174.75-.26 1.262-.26.674 0 1.282.171 1.824.516.545.341.977.847 1.295 1.517.322.667.483 1.485.483 2.455 0 .958-.157 1.773-.472 2.443-.314.67-.742 1.182-1.284 1.534a3.302 3.302 0 0 1-1.84.528c-.5 0-.915-.083-1.245-.25a2.53 2.53 0 0 1-.795-.602 3.9 3.9 0 0 1-.46-.676h-.086v4.648h-2.057Zm2.017-7.637c0 .565.08 1.06.24 1.483.162.425.395.756.698.995.307.235.678.352 1.114.352.454 0 .835-.121 1.142-.364.306-.246.538-.581.693-1.005.159-.428.238-.915.238-1.46 0-.542-.077-1.023-.232-1.444-.156-.42-.387-.75-.694-.989-.306-.238-.69-.357-1.147-.357-.44 0-.813.115-1.12.346-.307.231-.54.555-.699.972-.155.416-.233.907-.233 1.471ZM54.48 25v-1.523l4.04-3.96c.386-.39.707-.737.965-1.04.258-.303.45-.596.58-.88.128-.285.193-.588.193-.91 0-.367-.084-.681-.25-.943a1.662 1.662 0 0 0-.688-.613 2.217 2.217 0 0 0-.994-.216c-.383 0-.718.08-1.006.238a1.642 1.642 0 0 0-.67.665c-.155.288-.233.63-.233 1.029H54.41c0-.739.169-1.381.506-1.927a3.413 3.413 0 0 1 1.392-1.267c.595-.299 1.277-.449 2.045-.449.78 0 1.466.146 2.057.438.591.292 1.05.691 1.375 1.199a3.12 3.12 0 0 1 .495 1.739c0 .435-.084.863-.25 1.284-.167.42-.46.886-.881 1.397-.417.512-1.002 1.131-1.756 1.858l-2.005 2.04v.08h5.068V25h-7.978Zm47.463-7.852h-1.773a2.707 2.707 0 0 0-1.062-1.733 2.946 2.946 0 0 0-.904-.455 3.529 3.529 0 0 0-1.05-.153 3.29 3.29 0 0 0-1.802.505c-.526.338-.943.832-1.25 1.484-.303.651-.454 1.446-.454 2.386 0 .947.151 1.746.454 2.398.307.651.726 1.144 1.256 1.477.53.333 1.127.5 1.79.5.367 0 .716-.05 1.045-.148a3.01 3.01 0 0 0 .904-.449 2.72 2.72 0 0 0 1.073-1.71l1.773.006a4.747 4.747 0 0 1-.551 1.58c-.269.477-.615.89-1.04 1.238-.42.345-.901.612-1.443.801a5.337 5.337 0 0 1-1.773.284c-1.007 0-1.905-.238-2.693-.716-.788-.48-1.409-1.168-1.864-2.062-.45-.894-.676-1.96-.676-3.2 0-1.242.228-2.308.682-3.198.455-.894 1.076-1.58 1.864-2.057.788-.48 1.684-.722 2.687-.722.618 0 1.194.09 1.728.268a4.55 4.55 0 0 1 1.448.772c.429.337.783.75 1.063 1.239.28.485.47 1.04.568 1.665Zm5.641 8.028c-.818 0-1.532-.187-2.142-.562a3.792 3.792 0 0 1-1.421-1.574c-.337-.674-.505-1.462-.505-2.364 0-.905.168-1.697.505-2.375a3.785 3.785 0 0 1 1.421-1.58c.61-.374 1.324-.562 2.142-.562.818 0 1.532.188 2.142.563.61.375 1.083.901 1.42 1.58.337.677.506 1.469.506 2.374 0 .902-.169 1.69-.506 2.364a3.79 3.79 0 0 1-1.42 1.574c-.61.375-1.324.562-2.142.562Zm.005-1.426c.531 0 .97-.14 1.319-.42.348-.28.606-.654.772-1.12.171-.466.256-.979.256-1.54 0-.556-.085-1.068-.256-1.534a2.497 2.497 0 0 0-.772-1.13c-.349-.284-.788-.427-1.319-.427-.534 0-.977.143-1.329.427a2.53 2.53 0 0 0-.778 1.13c-.167.466-.25.978-.25 1.535 0 .56.083 1.073.25 1.54.17.465.429.838.778 1.119.352.28.795.42 1.329.42Zm7.658-3.932V25h-1.699v-8.727h1.631v1.42h.108c.201-.462.515-.833.943-1.114.432-.28.975-.42 1.631-.42.594 0 1.115.125 1.562.375.447.246.794.614 1.04 1.102.246.489.369 1.093.369 1.813V25h-1.698v-5.347c0-.632-.165-1.127-.495-1.482-.329-.36-.782-.54-1.358-.54-.394 0-.744.085-1.051.255-.303.17-.543.42-.721.75-.175.326-.262.72-.262 1.182Zm9.563 0V25h-1.699v-8.727h1.63v1.42h.108c.201-.462.516-.833.944-1.114.431-.28.975-.42 1.63-.42.595 0 1.116.125 1.563.375.447.246.793.614 1.04 1.102.246.489.369 1.093.369 1.813V25h-1.699v-5.347c0-.632-.165-1.127-.494-1.482-.33-.36-.782-.54-1.358-.54a2.13 2.13 0 0 0-1.051.255c-.303.17-.544.42-.722.75-.174.326-.261.72-.261 1.182Zm11.625 5.358c-.86 0-1.601-.184-2.222-.551a3.74 3.74 0 0 1-1.432-1.563c-.333-.674-.5-1.463-.5-2.369 0-.894.167-1.682.5-2.364a3.883 3.883 0 0 1 1.409-1.596c.606-.383 1.315-.574 2.125-.574.493 0 .97.082 1.432.244.462.163.877.419 1.244.768.368.348.658.8.87 1.357.212.553.318 1.226.318 2.018v.602h-6.938v-1.273h5.273c0-.447-.091-.843-.273-1.188a2.053 2.053 0 0 0-.767-.823c-.325-.201-.708-.302-1.147-.302-.478 0-.894.118-1.25.353a2.356 2.356 0 0 0-.818.909c-.19.371-.285.774-.285 1.21v.994c0 .584.103 1.08.307 1.489.209.41.498.722.87.938.371.212.804.318 1.301.318.322 0 .615-.046.88-.137.266-.094.495-.235.688-.42.193-.186.341-.415.443-.688l1.608.29c-.129.474-.36.888-.693 1.244-.33.353-.744.627-1.244.824-.497.194-1.063.29-1.699.29Zm9.305 0c-.845 0-1.572-.191-2.182-.574a3.793 3.793 0 0 1-1.397-1.596c-.326-.678-.489-1.455-.489-2.33 0-.886.167-1.668.5-2.346a3.827 3.827 0 0 1 1.409-1.597c.606-.383 1.32-.574 2.142-.574.663 0 1.254.123 1.773.37.519.242.937.583 1.255 1.022.322.44.514.953.574 1.54h-1.653a1.98 1.98 0 0 0-.625-1.057c-.322-.295-.754-.443-1.296-.443a2.11 2.11 0 0 0-1.244.375c-.352.246-.627.598-.824 1.057-.197.454-.295.992-.295 1.613 0 .637.096 1.186.29 1.648.193.462.465.82.818 1.074.356.254.774.38 1.255.38.322 0 .614-.058.875-.175.266-.122.487-.294.665-.517a1.95 1.95 0 0 0 .381-.807h1.653a3.204 3.204 0 0 1-.551 1.511 3.174 3.174 0 0 1-1.233 1.046c-.511.253-1.112.38-1.801.38Zm9.476-8.903v1.363h-4.767v-1.363h4.767Zm-3.489-2.091h1.699v8.255c0 .33.049.578.148.745a.766.766 0 0 0 .381.335c.159.057.331.085.517.085a2 2 0 0 0 .358-.028l.238-.046.307 1.404a2.859 2.859 0 0 1-.42.114c-.182.041-.41.064-.682.068a2.989 2.989 0 0 1-1.25-.239 2.144 2.144 0 0 1-.938-.773c-.238-.348-.358-.786-.358-1.312v-8.608ZM163.222 25l-2.569-8.727h1.756l1.71 6.409h.086l1.715-6.41h1.756l1.705 6.381h.085l1.699-6.38h1.755L170.358 25h-1.733l-1.773-6.301h-.13L164.949 25h-1.727Zm11.311 0v-8.727h1.699V25h-1.699Zm.858-10.074a1.08 1.08 0 0 1-.762-.295.961.961 0 0 1-.312-.716.95.95 0 0 1 .312-.716c.212-.2.466-.301.762-.301.295 0 .547.1.755.3a.941.941 0 0 1 .318.717.953.953 0 0 1-.318.716c-.208.197-.46.295-.755.295Zm7.2 1.347v1.363h-4.767v-1.363h4.767Zm-3.489-2.091h1.699v8.255c0 .33.049.578.148.745a.766.766 0 0 0 .381.335c.159.057.331.085.517.085a2 2 0 0 0 .358-.028l.238-.046.307 1.404a2.859 2.859 0 0 1-.42.114c-.182.041-.41.064-.682.068a2.989 2.989 0 0 1-1.25-.239 2.144 2.144 0 0 1-.938-.773c-.238-.348-.358-.786-.358-1.312v-8.608Zm7.255 5.636V25h-1.699V13.364h1.676v4.33h.108c.204-.47.517-.844.937-1.12.421-.277.97-.415 1.648-.415.598 0 1.121.123 1.568.37a2.5 2.5 0 0 1 1.046 1.102c.25.485.375 1.09.375 1.818V25h-1.699v-5.347c0-.64-.165-1.136-.495-1.488-.329-.356-.787-.534-1.375-.534-.401 0-.761.085-1.079.255a1.84 1.84 0 0 0-.744.75c-.178.326-.267.72-.267 1.182Zm16.234-3.545v1.363h-4.767v-1.363h4.767Zm-3.489-2.091h1.699v8.255c0 .33.049.578.148.745a.766.766 0 0 0 .381.335c.159.057.331.085.517.085a2 2 0 0 0 .358-.028l.238-.046.307 1.404a2.859 2.859 0 0 1-.42.114c-.182.041-.41.064-.682.068a2.989 2.989 0 0 1-1.25-.239 2.144 2.144 0 0 1-.938-.773c-.238-.348-.358-.786-.358-1.312v-8.608Zm7.255 5.636V25h-1.699V13.364h1.676v4.33h.108c.204-.47.517-.844.937-1.12.421-.277.97-.415 1.648-.415.598 0 1.121.123 1.568.37a2.5 2.5 0 0 1 1.046 1.102c.25.485.375 1.09.375 1.818V25h-1.699v-5.347c0-.64-.165-1.136-.495-1.488-.329-.356-.787-.534-1.375-.534-.401 0-.761.085-1.079.255a1.84 1.84 0 0 0-.744.75c-.178.326-.267.72-.267 1.182Zm11.687 5.358c-.86 0-1.6-.184-2.222-.551a3.738 3.738 0 0 1-1.431-1.563c-.334-.674-.5-1.463-.5-2.369 0-.894.166-1.682.5-2.364a3.876 3.876 0 0 1 1.409-1.596c.606-.383 1.314-.574 2.125-.574.492 0 .969.082 1.432.244a3.47 3.47 0 0 1 1.244.768c.367.348.657.8.869 1.357.212.553.318 1.226.318 2.018v.602h-6.937v-1.273h5.273c0-.447-.091-.843-.273-1.188a2.067 2.067 0 0 0-.767-.823c-.326-.201-.709-.302-1.148-.302-.477 0-.894.118-1.25.353a2.364 2.364 0 0 0-.818.909 2.629 2.629 0 0 0-.284 1.21v.994c0 .584.102 1.08.307 1.489.208.41.498.722.869.938.371.212.805.318 1.301.318a2.7 2.7 0 0 0 .881-.137 1.825 1.825 0 0 0 1.13-1.108l1.608.29a2.896 2.896 0 0 1-.693 1.244 3.354 3.354 0 0 1-1.244.824c-.496.194-1.063.29-1.699.29Zm5.629-.176v-8.727h1.631v1.42h.108a2.26 2.26 0 0 1 .892-1.125c.413-.273.907-.409 1.483-.409.583 0 1.072.137 1.466.41.398.272.691.647.881 1.124h.09a2.46 2.46 0 0 1 .995-1.114c.454-.28.996-.42 1.625-.42.791 0 1.437.248 1.937.744.504.497.756 1.245.756 2.245V25h-1.699v-5.693c0-.591-.161-1.02-.483-1.284a1.756 1.756 0 0 0-1.153-.398c-.553 0-.983.17-1.29.511-.307.338-.46.771-.46 1.302V25h-1.693v-5.801c0-.474-.148-.854-.444-1.142-.295-.288-.68-.432-1.153-.432-.322 0-.619.085-.892.256a1.88 1.88 0 0 0-.654.698 2.15 2.15 0 0 0-.244 1.04V25h-1.699Z"/>
</svg>
