<svg xmlns="http://www.w3.org/2000/svg" width="593" height="124" fill="none" viewBox="0 0 593 124">
  <rect width="572" height="94" x="1.727" y="28.5" fill="#F4CE71" fill-opacity=".21" rx="18.5"/>
  <path fill="#1E4460" d="M25 47.614v-1.25h8.727v1.25h-3.66V58h-1.409V47.614H25Zm13 10.568c-.789 0-1.48-.188-2.075-.563-.59-.375-1.053-.9-1.386-1.574-.33-.674-.494-1.462-.494-2.363 0-.91.164-1.703.494-2.38.333-.679.795-1.205 1.386-1.58.595-.375 1.286-.563 2.074-.563.788 0 1.478.188 2.069.563.594.375 1.056.901 1.386 1.58.333.677.5 1.47.5 2.38 0 .901-.167 1.69-.5 2.363a3.769 3.769 0 0 1-1.386 1.574c-.591.375-1.28.563-2.069.563Zm0-1.205c.598 0 1.09-.153 1.477-.46a2.72 2.72 0 0 0 .858-1.21c.185-.5.278-1.042.278-1.625 0-.584-.093-1.127-.279-1.63a2.75 2.75 0 0 0-.857-1.222c-.387-.311-.88-.466-1.478-.466s-1.09.155-1.477.466a2.75 2.75 0 0 0-.858 1.221 4.681 4.681 0 0 0-.278 1.63c0 .584.092 1.126.278 1.626.186.5.472.903.858 1.21.386.307.879.46 1.477.46Zm14.387-7.704v1.136h-4.705v-1.136h4.705ZM49.092 58v-9.932c0-.5.117-.916.352-1.25a2.19 2.19 0 0 1 .915-.75 2.89 2.89 0 0 1 1.187-.25c.33 0 .599.027.807.08.208.053.364.102.466.147l-.387 1.16a6.685 6.685 0 0 0-.284-.086 1.722 1.722 0 0 0-.466-.05c-.443 0-.763.11-.96.334-.193.224-.29.552-.29.983V58h-1.34Zm8.36.182c-.788 0-1.479-.188-2.073-.563-.591-.375-1.053-.9-1.387-1.574-.33-.674-.494-1.462-.494-2.363 0-.91.165-1.703.494-2.38.334-.679.796-1.205 1.387-1.58.594-.375 1.285-.563 2.073-.563s1.478.188 2.069.563c.594.375 1.056.901 1.386 1.58.333.677.5 1.47.5 2.38 0 .901-.167 1.69-.5 2.363a3.77 3.77 0 0 1-1.386 1.574c-.591.375-1.28.563-2.069.563Zm0-1.205c.599 0 1.091-.153 1.478-.46a2.72 2.72 0 0 0 .858-1.21c.185-.5.278-1.042.278-1.625 0-.584-.093-1.127-.278-1.63a2.748 2.748 0 0 0-.858-1.222c-.387-.311-.88-.466-1.478-.466s-1.09.155-1.477.466a2.75 2.75 0 0 0-.858 1.221 4.681 4.681 0 0 0-.278 1.63c0 .584.093 1.126.278 1.626.186.5.472.903.858 1.21.386.307.879.46 1.477.46ZM63.454 58v-8.727h1.295v1.318h.091c.16-.432.447-.782.864-1.051a2.542 2.542 0 0 1 1.409-.404c.098 0 .222.002.37.006.147.004.259.01.334.017v1.364a4.008 4.008 0 0 0-.312-.051 3.077 3.077 0 0 0-.506-.04c-.424 0-.803.089-1.136.267-.33.174-.591.416-.784.727a1.96 1.96 0 0 0-.284 1.051V58h-1.341Zm5.953 0v-8.727h1.295v1.363h.114c.182-.466.475-.827.88-1.085.406-.261.893-.392 1.461-.392.576 0 1.055.13 1.438.392.386.258.687.62.903 1.085h.09c.224-.45.56-.808 1.007-1.074.446-.268.982-.403 1.607-.403.78 0 1.419.244 1.915.733.496.485.745 1.24.745 2.267V58H79.52v-5.84c0-.645-.177-1.105-.529-1.382a1.956 1.956 0 0 0-1.244-.414c-.614 0-1.09.185-1.426.556-.337.368-.506.834-.506 1.398V58h-1.364v-5.977c0-.497-.16-.896-.483-1.2-.322-.306-.736-.46-1.244-.46-.348 0-.674.093-.977.279-.3.186-.542.443-.727.773a2.281 2.281 0 0 0-.273 1.13V58h-1.341Zm20.974.205a3.546 3.546 0 0 1-1.505-.313 2.585 2.585 0 0 1-1.074-.915c-.265-.401-.398-.886-.398-1.454 0-.5.099-.906.296-1.216.197-.315.46-.56.79-.739a4.18 4.18 0 0 1 1.09-.398c.402-.09.805-.162 1.21-.215.53-.069.96-.12 1.29-.154.334-.038.576-.1.728-.187.155-.087.232-.239.232-.455v-.045c0-.561-.153-.997-.46-1.307-.303-.31-.763-.466-1.38-.466-.64 0-1.142.14-1.506.42-.364.28-.62.58-.767.898l-1.273-.454c.227-.53.53-.944.91-1.24a3.411 3.411 0 0 1 1.25-.624 5.19 5.19 0 0 1 1.34-.182c.28 0 .602.034.966.102a3.09 3.09 0 0 1 1.063.404c.344.204.63.513.857.926.228.413.341.966.341 1.659V58h-1.34v-1.182h-.069a2.36 2.36 0 0 1-.454.608c-.212.216-.495.4-.847.551-.352.152-.782.228-1.29.228ZM90.586 57c.53 0 .977-.104 1.34-.313a2.127 2.127 0 0 0 1.114-1.846v-1.227c-.056.068-.181.13-.375.187-.189.053-.409.1-.659.142a29.881 29.881 0 0 1-1.284.17 5.19 5.19 0 0 0-.977.222 1.67 1.67 0 0 0-.727.45c-.182.196-.273.465-.273.806 0 .466.172.818.517 1.057.349.235.79.352 1.324.352Zm13.925 1.17c-.705 0-1.334-.18-1.887-.54-.549-.363-.981-.88-1.295-1.55-.311-.675-.466-1.483-.466-2.427 0-.943.157-1.75.472-2.42.318-.67.753-1.184 1.306-1.54a3.399 3.399 0 0 1 1.881-.534c.542 0 .977.091 1.307.273.333.178.591.386.773.625.185.238.329.449.431.63h.103v-4.323h1.699V58h-1.66v-1.358h-.142c-.102.186-.25.398-.443.636a2.462 2.462 0 0 1-.784.625c-.333.178-.765.267-1.295.267Zm.375-1.448c.488 0 .901-.13 1.238-.387.341-.261.599-.623.773-1.085.178-.462.267-1 .267-1.614 0-.606-.087-1.136-.261-1.59-.175-.455-.43-.81-.767-1.063-.337-.254-.754-.38-1.25-.38-.512 0-.938.132-1.279.397-.341.265-.598.627-.772 1.085a4.414 4.414 0 0 0-.256 1.551c0 .584.087 1.108.261 1.574.174.466.432.835.773 1.108.345.27.769.404 1.273.404Zm10.135 1.454c-.86 0-1.601-.184-2.222-.551a3.74 3.74 0 0 1-1.432-1.563c-.333-.674-.5-1.463-.5-2.369 0-.894.167-1.682.5-2.363a3.883 3.883 0 0 1 1.409-1.597c.606-.383 1.315-.574 2.125-.574.493 0 .97.081 1.432.244.462.163.877.419 1.244.767.368.349.658.802.87 1.358.212.553.318 1.226.318 2.017v.603h-6.938v-1.273h5.273c0-.447-.091-.843-.273-1.188a2.053 2.053 0 0 0-.767-.823c-.325-.201-.708-.301-1.147-.301-.478 0-.894.117-1.25.352a2.367 2.367 0 0 0-.819.909 2.629 2.629 0 0 0-.284 1.21v.994c0 .584.103 1.08.307 1.489.209.41.498.722.87.938.371.212.804.318 1.301.318.322 0 .615-.046.88-.137.265-.094.495-.235.688-.42.193-.186.341-.415.443-.688l1.608.29c-.129.474-.36.888-.693 1.245-.33.352-.745.626-1.245.823-.496.194-1.062.29-1.698.29Zm9.39 0c-.86 0-1.6-.184-2.221-.551a3.734 3.734 0 0 1-1.432-1.563c-.334-.674-.5-1.463-.5-2.369 0-.894.166-1.682.5-2.363a3.883 3.883 0 0 1 1.409-1.597c.606-.383 1.314-.574 2.125-.574.492 0 .97.081 1.432.244.462.163.877.419 1.244.767.367.349.657.802.869 1.358.212.553.319 1.226.319 2.017v.603h-6.938v-1.273h5.273c0-.447-.091-.843-.273-1.188a2.06 2.06 0 0 0-.767-.823c-.326-.201-.708-.301-1.148-.301-.477 0-.894.117-1.25.352a2.364 2.364 0 0 0-.818.909 2.629 2.629 0 0 0-.284 1.21v.994c0 .584.102 1.08.307 1.489.208.41.498.722.869.938.371.212.805.318 1.301.318a2.7 2.7 0 0 0 .881-.137 1.827 1.827 0 0 0 1.131-1.108l1.608.29c-.129.474-.36.888-.694 1.245a3.354 3.354 0 0 1-1.244.823c-.496.194-1.062.29-1.699.29Zm5.629 3.097v-12h1.66v1.414h.142a4.67 4.67 0 0 1 .426-.63c.185-.239.443-.447.772-.625.33-.182.766-.273 1.307-.273.705 0 1.334.178 1.887.534.553.356.986.87 1.301 1.54.318.67.477 1.477.477 2.42 0 .944-.157 1.752-.472 2.427-.314.67-.746 1.187-1.295 1.55-.549.36-1.176.54-1.881.54-.53 0-.964-.089-1.301-.267a2.473 2.473 0 0 1-.784-.625 4.725 4.725 0 0 1-.437-.636h-.103v4.63h-1.699Zm1.665-7.637c0 .614.089 1.152.267 1.614.178.462.436.824.773 1.085.337.258.75.387 1.239.387.507 0 .931-.135 1.272-.404.341-.273.599-.642.773-1.108.178-.466.267-.99.267-1.574a4.34 4.34 0 0 0-.261-1.55c-.171-.46-.428-.82-.773-1.086-.341-.265-.767-.398-1.278-.398-.493 0-.909.127-1.25.381-.337.254-.593.608-.767 1.063-.175.454-.262.984-.262 1.59Zm11.972 4.54c-.86 0-1.601-.184-2.222-.551a3.747 3.747 0 0 1-1.432-1.563c-.333-.674-.5-1.463-.5-2.369 0-.894.167-1.682.5-2.363.338-.682.807-1.215 1.41-1.597.606-.383 1.314-.574 2.125-.574.492 0 .969.081 1.431.244.462.163.877.419 1.245.767.367.349.657.802.869 1.358.212.553.318 1.226.318 2.017v.603h-6.937v-1.273h5.272a2.52 2.52 0 0 0-.272-1.188 2.067 2.067 0 0 0-.767-.823c-.326-.201-.709-.301-1.148-.301-.477 0-.894.117-1.25.352a2.364 2.364 0 0 0-.818.909c-.19.371-.284.775-.284 1.21v.994c0 .584.102 1.08.306 1.489.209.41.499.722.87.938.371.212.805.318 1.301.318.322 0 .615-.046.881-.137a1.825 1.825 0 0 0 1.13-1.108l1.608.29c-.129.474-.36.888-.693 1.245-.33.352-.744.626-1.244.823-.497.194-1.063.29-1.699.29Zm5.629-.176v-8.727h1.642v1.386h.091c.159-.47.439-.839.841-1.108a2.404 2.404 0 0 1 1.375-.409 7.242 7.242 0 0 1 .722.04v1.625a3.1 3.1 0 0 0-.364-.063 3.475 3.475 0 0 0-.523-.04 2.22 2.22 0 0 0-1.074.256 1.903 1.903 0 0 0-1.011 1.71V58h-1.699Zm10.375 0v-8.727h1.642v1.386h.091c.159-.47.439-.839.841-1.108a2.404 2.404 0 0 1 1.375-.409 7.242 7.242 0 0 1 .722.04v1.625a3.1 3.1 0 0 0-.364-.063 3.475 3.475 0 0 0-.523-.04 2.22 2.22 0 0 0-1.074.256 1.903 1.903 0 0 0-1.011 1.71V58h-1.699Zm9.59.176c-.86 0-1.601-.184-2.222-.551a3.74 3.74 0 0 1-1.432-1.563c-.333-.674-.5-1.463-.5-2.369 0-.894.167-1.682.5-2.363a3.883 3.883 0 0 1 1.409-1.597c.606-.383 1.315-.574 2.125-.574.493 0 .97.081 1.432.244.462.163.877.419 1.244.767.368.349.658.802.87 1.358.212.553.318 1.226.318 2.017v.603h-6.938v-1.273h5.273c0-.447-.091-.843-.273-1.188a2.053 2.053 0 0 0-.767-.823c-.325-.201-.708-.301-1.147-.301-.478 0-.894.117-1.25.352a2.367 2.367 0 0 0-.819.909 2.629 2.629 0 0 0-.284 1.21v.994c0 .584.103 1.08.307 1.489.209.41.498.722.87.938.371.212.804.318 1.301.318.322 0 .615-.046.88-.137.265-.094.495-.235.688-.42.193-.186.341-.415.443-.688l1.608.29c-.129.474-.36.888-.693 1.245-.33.352-.745.626-1.245.823-.496.194-1.062.29-1.698.29Zm7.328-11.812V58H174.9V46.364h1.699Zm4.825 11.83a3.564 3.564 0 0 1-1.5-.308 2.524 2.524 0 0 1-1.062-.903c-.258-.394-.387-.877-.387-1.449 0-.492.095-.898.284-1.216a2.1 2.1 0 0 1 .767-.755 4.006 4.006 0 0 1 1.08-.421 10.62 10.62 0 0 1 1.216-.216l1.272-.148c.326-.041.563-.108.711-.198.147-.091.221-.24.221-.444v-.04c0-.496-.14-.88-.42-1.153-.277-.273-.69-.409-1.239-.409-.572 0-1.023.127-1.352.38-.326.25-.551.53-.676.836l-1.597-.364c.19-.53.466-.958.83-1.284.367-.33.79-.568 1.267-.716a4.94 4.94 0 0 1 1.505-.227c.349 0 .718.042 1.108.125.394.08.762.227 1.103.443.344.216.627.525.846.926.22.398.33.915.33 1.552V58h-1.659v-1.193h-.068c-.11.22-.275.435-.495.648a2.623 2.623 0 0 1-.846.528c-.345.14-.758.21-1.239.21Zm.369-1.364c.47 0 .872-.093 1.205-.279.337-.186.593-.428.767-.727.178-.303.267-.627.267-.972v-1.125c-.061.06-.178.118-.352.17a5.5 5.5 0 0 1-.586.131c-.219.035-.433.067-.642.097-.208.026-.382.05-.522.068a4.21 4.21 0 0 0-.904.21c-.269.099-.485.24-.647.427-.16.181-.239.424-.239.727 0 .42.155.738.466.954.31.212.706.319 1.187.319Zm10.274-7.557v1.363H187.3v-1.363h4.767Zm-3.488-2.091h1.699v8.255c0 .33.049.578.147.745a.775.775 0 0 0 .381.335c.159.057.332.085.517.085.137 0 .256-.01.358-.028.102-.02.182-.034.239-.046l.307 1.404a2.878 2.878 0 0 1-.421.113 3.335 3.335 0 0 1-.682.069 2.992 2.992 0 0 1-1.25-.239 2.141 2.141 0 0 1-.937-.773c-.239-.348-.358-.786-.358-1.312v-8.608ZM193.947 58v-8.727h1.699V58h-1.699Zm.858-10.074a1.08 1.08 0 0 1-.762-.295.961.961 0 0 1-.312-.716.95.95 0 0 1 .312-.716c.212-.2.466-.301.762-.301.295 0 .547.1.755.3a.942.942 0 0 1 .319.717.954.954 0 0 1-.319.716c-.208.197-.46.295-.755.295Zm6.802 10.25c-.818 0-1.532-.187-2.142-.562a3.79 3.79 0 0 1-1.42-1.574c-.337-.675-.506-1.462-.506-2.364 0-.905.169-1.697.506-2.375a3.783 3.783 0 0 1 1.42-1.58c.61-.374 1.324-.562 2.142-.562.818 0 1.532.188 2.142.563a3.78 3.78 0 0 1 1.421 1.58c.337.677.505 1.469.505 2.374 0 .902-.168 1.69-.505 2.364a3.792 3.792 0 0 1-1.421 1.574c-.61.375-1.324.562-2.142.562Zm.006-1.426c.53 0 .97-.14 1.318-.42.349-.28.606-.654.773-1.12.17-.466.256-.979.256-1.54 0-.556-.086-1.068-.256-1.534a2.498 2.498 0 0 0-.773-1.13c-.348-.284-.788-.426-1.318-.426-.534 0-.977.142-1.33.426a2.539 2.539 0 0 0-.778 1.13 4.52 4.52 0 0 0-.25 1.534c0 .561.083 1.074.25 1.54.17.466.43.84.778 1.12.353.28.796.42 1.33.42Zm7.658-3.932V58h-1.699v-8.727h1.63v1.42h.108c.201-.462.516-.833.944-1.113.431-.28.975-.42 1.63-.42.595 0 1.116.124 1.563.374.447.246.793.614 1.04 1.102.246.489.369 1.093.369 1.813V58h-1.699v-5.347c0-.632-.165-1.127-.494-1.483-.33-.36-.783-.54-1.358-.54a2.13 2.13 0 0 0-1.051.256c-.303.17-.544.42-.722.75-.174.326-.261.72-.261 1.182Zm14.403-1.415-1.54.273a1.8 1.8 0 0 0-.307-.562 1.52 1.52 0 0 0-.556-.438c-.235-.114-.529-.17-.881-.17-.481 0-.883.108-1.205.324-.322.212-.483.486-.483.823 0 .292.108.527.324.705.216.178.565.324 1.046.438l1.386.318c.803.185 1.402.471 1.796.858.393.386.59.888.59 1.505 0 .523-.151.989-.454 1.398-.299.405-.718.724-1.256.955-.534.23-1.153.346-1.858.346-.977 0-1.774-.208-2.392-.625-.617-.42-.996-1.017-1.136-1.79l1.642-.25c.102.428.312.752.631.972.318.216.733.324 1.244.324.557 0 1.002-.116 1.335-.347.333-.235.5-.52.5-.858a.89.89 0 0 0-.307-.687c-.2-.186-.509-.326-.926-.42l-1.477-.325c-.814-.185-1.417-.48-1.807-.886-.386-.405-.579-.919-.579-1.54a2.2 2.2 0 0 1 .431-1.352c.288-.386.686-.688 1.194-.903.507-.22 1.089-.33 1.744-.33.943 0 1.685.205 2.227.614.542.405.9.949 1.074 1.63Zm3.737 1.415V58h-1.699V46.364h1.676v4.33h.108c.205-.47.517-.844.938-1.12.42-.277.97-.415 1.648-.415.598 0 1.121.123 1.568.37.451.246.799.613 1.045 1.102.25.484.375 1.09.375 1.818V58h-1.699v-5.347c0-.64-.164-1.136-.494-1.488-.329-.356-.788-.534-1.375-.534-.401 0-.761.085-1.079.255-.315.17-.563.42-.745.75-.178.326-.267.72-.267 1.182ZM235.337 58v-8.727h1.699V58h-1.699Zm.858-10.074a1.08 1.08 0 0 1-.761-.295.962.962 0 0 1-.313-.716.95.95 0 0 1 .313-.716c.212-.2.466-.301.761-.301.296 0 .548.1.756.3a.941.941 0 0 1 .318.717.953.953 0 0 1-.318.716 1.06 1.06 0 0 1-.756.295Zm3.127 13.347v-12h1.659v1.414h.142a4.67 4.67 0 0 1 .426-.63c.186-.239.443-.447.773-.625.329-.182.765-.273 1.307-.273.704 0 1.333.178 1.886.534.553.356.987.87 1.301 1.54.318.67.477 1.477.477 2.42 0 .944-.157 1.752-.471 2.427-.315.67-.746 1.187-1.296 1.55-.549.36-1.176.54-1.88.54-.531 0-.964-.089-1.302-.267a2.473 2.473 0 0 1-.784-.625 4.725 4.725 0 0 1-.437-.636h-.102v4.63h-1.699Zm1.665-7.637c0 .614.089 1.152.267 1.614.178.462.435.824.772 1.085.337.258.75.387 1.239.387.507 0 .932-.135 1.273-.404.341-.273.598-.642.772-1.108.178-.466.267-.99.267-1.574a4.34 4.34 0 0 0-.261-1.55c-.17-.46-.428-.82-.773-1.086-.341-.265-.767-.398-1.278-.398-.493 0-.909.127-1.25.381-.337.254-.593.608-.767 1.063-.174.454-.261.984-.261 1.59Zm10.295 2.773-.091.614a12.43 12.43 0 0 1-.295 1.386c-.129.492-.264.956-.404 1.392-.14.436-.255.782-.346 1.04h-1.023l.193-.96c.08-.398.159-.843.239-1.336.083-.488.151-.988.204-1.5l.068-.636h1.455ZM36.227 78.864c-.459 0-.877-.112-1.256-.336a2.612 2.612 0 0 1-.91-.909 2.425 2.425 0 0 1-.334-1.255 2.4 2.4 0 0 1 .335-1.256c.227-.379.53-.68.909-.904.379-.227.797-.34 1.256-.34.462 0 .88.113 1.255.34.379.224.68.525.904.904.227.375.34.793.34 1.256 0 .458-.113.876-.34 1.255a2.565 2.565 0 0 1-.904.91 2.406 2.406 0 0 1-1.255.335Zm15.795 2.34a3.546 3.546 0 0 1-1.506-.312 2.584 2.584 0 0 1-1.073-.915c-.266-.401-.398-.886-.398-1.454 0-.5.098-.906.295-1.216.197-.315.46-.56.79-.739a4.15 4.15 0 0 1 1.09-.397c.402-.092.806-.163 1.211-.217.53-.068.96-.119 1.29-.153.333-.038.576-.1.727-.187.155-.088.233-.239.233-.455v-.045c0-.561-.153-.997-.46-1.307-.303-.31-.763-.466-1.38-.466-.641 0-1.143.14-1.507.42-.363.28-.619.58-.767.898l-1.272-.455c.227-.53.53-.943.909-1.238.382-.3.8-.508 1.25-.625a5.191 5.191 0 0 1 1.34-.182c.281 0 .603.034.967.102.367.065.721.2 1.062.404.345.204.63.513.858.926.227.413.341.966.341 1.659V81h-1.34v-1.182h-.07a2.36 2.36 0 0 1-.454.608c-.212.216-.494.4-.846.551-.352.152-.782.227-1.29.227ZM52.227 80c.53 0 .977-.104 1.34-.313a2.127 2.127 0 0 0 1.114-1.846v-1.227c-.057.068-.182.13-.375.187-.19.053-.409.1-.659.142a29.81 29.81 0 0 1-1.284.17 5.13 5.13 0 0 0-.977.222 1.68 1.68 0 0 0-.728.45c-.181.196-.272.465-.272.806 0 .466.172.818.517 1.057.348.235.79.352 1.324.352Zm12.424-5.773-1.204.341a2.234 2.234 0 0 0-.336-.585 1.626 1.626 0 0 0-.59-.477c-.25-.125-.57-.188-.96-.188-.535 0-.98.123-1.336.37-.352.242-.528.55-.528.926 0 .333.12.596.363.79.243.193.622.354 1.137.482l1.295.319c.78.189 1.362.479 1.745.869.382.386.573.884.573 1.494 0 .5-.144.947-.431 1.341-.285.394-.682.705-1.194.932-.511.227-1.106.34-1.784.34-.89 0-1.627-.192-2.21-.579-.583-.386-.953-.95-1.108-1.693l1.273-.318c.121.47.35.822.687 1.057.341.235.786.352 1.336.352.625 0 1.12-.133 1.488-.398.371-.269.557-.59.557-.966 0-.303-.106-.556-.318-.761-.212-.208-.538-.364-.977-.466l-1.455-.34c-.8-.19-1.386-.484-1.761-.882-.372-.401-.557-.903-.557-1.505 0-.493.138-.928.415-1.307.28-.379.66-.676 1.142-.892.485-.216 1.034-.324 1.647-.324.864 0 1.542.19 2.034.568.497.38.849.88 1.057 1.5Zm3.428 3.591-.023-1.659h.273l3.818-3.886h1.66l-4.07 4.113h-.113l-1.545 1.432ZM66.829 81V69.364h1.34V81h-1.34Zm5.545 0-3.409-4.318.955-.932L74.079 81h-1.705Zm11.544-8.727v1.136h-4.704v-1.136h4.704ZM80.623 81v-9.932c0-.5.117-.916.352-1.25a2.19 2.19 0 0 1 .915-.75 2.89 2.89 0 0 1 1.187-.25c.33 0 .599.027.807.08.209.053.364.102.466.148l-.386 1.158a6.685 6.685 0 0 0-.284-.085 1.722 1.722 0 0 0-.466-.05c-.443 0-.763.11-.96.334-.194.224-.29.551-.29.983V81h-1.341Zm8.36.182c-.787 0-1.479-.188-2.073-.563-.591-.375-1.053-.9-1.387-1.573-.33-.675-.494-1.463-.494-2.364 0-.91.165-1.703.494-2.38.334-.679.796-1.205 1.387-1.58.594-.375 1.286-.563 2.074-.563.788 0 1.477.188 2.068.563.594.375 1.057.901 1.386 1.58.334.677.5 1.47.5 2.38 0 .901-.166 1.69-.5 2.364a3.769 3.769 0 0 1-1.386 1.573c-.591.375-1.28.563-2.068.563Zm0-1.205c.6 0 1.092-.153 1.478-.46a2.72 2.72 0 0 0 .858-1.21c.185-.5.278-1.042.278-1.625 0-.584-.093-1.127-.278-1.63a2.749 2.749 0 0 0-.858-1.223c-.386-.31-.879-.465-1.477-.465-.599 0-1.091.155-1.478.465a2.757 2.757 0 0 0-.858 1.222 4.681 4.681 0 0 0-.278 1.63c0 .584.093 1.126.278 1.626.186.5.472.903.858 1.21.387.307.88.46 1.478.46ZM94.986 81v-8.727h1.296v1.318h.09c.16-.432.447-.782.864-1.051a2.542 2.542 0 0 1 1.41-.404c.098 0 .22.002.368.006s.26.01.336.017v1.364a3.999 3.999 0 0 0-.313-.051 3.077 3.077 0 0 0-.505-.04c-.425 0-.803.089-1.137.267-.33.174-.59.416-.784.727a1.96 1.96 0 0 0-.284 1.051V81h-1.34Zm14.34-8.727v1.136h-4.705v-1.136h4.705ZM106.029 81v-9.932c0-.5.118-.916.352-1.25a2.19 2.19 0 0 1 .915-.75c.375-.166.771-.25 1.188-.25.329 0 .598.027.806.08.209.053.364.102.466.148l-.386 1.158a6.673 6.673 0 0 0-.284-.085 1.722 1.722 0 0 0-.466-.05c-.443 0-.763.11-.96.334-.193.224-.29.551-.29.983V81h-1.341Zm8.475.182c-.841 0-1.567-.186-2.177-.557a3.74 3.74 0 0 1-1.403-1.568c-.326-.674-.489-1.459-.489-2.353 0-.893.163-1.681.489-2.363.33-.686.788-1.22 1.375-1.602.591-.387 1.28-.58 2.068-.58.455 0 .904.076 1.347.227a3.34 3.34 0 0 1 1.21.739c.364.337.653.784.869 1.34.216.558.324 1.243.324 2.058v.568h-6.727v-1.16h5.364c0-.492-.099-.931-.296-1.317a2.23 2.23 0 0 0-.829-.915c-.357-.224-.777-.335-1.262-.335-.534 0-.996.132-1.386.397a2.608 2.608 0 0 0-.892 1.023c-.209.42-.313.871-.313 1.352v.773c0 .66.114 1.218.341 1.676.231.455.551.801.96 1.04.41.235.885.352 1.427.352.352 0 .67-.049.954-.148a2.03 2.03 0 0 0 .744-.454c.209-.204.37-.458.483-.761l1.296.363a2.88 2.88 0 0 1-.688 1.16 3.344 3.344 0 0 1-1.193.772 4.424 4.424 0 0 1-1.596.273Zm9.312 0c-.841 0-1.566-.186-2.176-.557a3.733 3.733 0 0 1-1.403-1.568c-.326-.674-.489-1.459-.489-2.353 0-.893.163-1.681.489-2.363.329-.686.787-1.22 1.375-1.602.59-.387 1.28-.58 2.068-.58.454 0 .903.076 1.346.227a3.35 3.35 0 0 1 1.211.739c.363.337.653.784.869 1.34.216.558.324 1.243.324 2.058v.568h-6.728v-1.16h5.364c0-.492-.098-.931-.295-1.317a2.232 2.232 0 0 0-.83-.915c-.356-.224-.776-.335-1.261-.335-.534 0-.997.132-1.387.397a2.623 2.623 0 0 0-.892 1.023c-.208.42-.312.871-.312 1.352v.773c0 .66.113 1.218.341 1.676.231.455.551.801.96 1.04.409.235.884.352 1.426.352.352 0 .671-.049.955-.148.287-.102.536-.253.744-.454.208-.204.369-.458.483-.761l1.295.363a2.87 2.87 0 0 1-.687 1.16c-.322.329-.72.587-1.193.772a4.43 4.43 0 0 1-1.597.273Zm8.949 0c-.727 0-1.369-.184-1.926-.551-.557-.371-.993-.894-1.307-1.569-.314-.677-.472-1.479-.472-2.403 0-.917.158-1.712.472-2.386.314-.674.752-1.195 1.312-1.563.561-.367 1.209-.55 1.944-.55.568 0 1.017.094 1.346.283.334.186.587.398.762.636.178.235.316.429.414.58h.114v-4.295h1.341V81h-1.296v-1.34h-.159a8.522 8.522 0 0 1-.42.601c-.182.239-.441.453-.778.642-.338.186-.786.279-1.347.279Zm.182-1.205c.538 0 .992-.14 1.363-.42.372-.284.654-.676.847-1.176.193-.504.29-1.085.29-1.745 0-.651-.095-1.221-.284-1.71-.19-.492-.47-.875-.841-1.148-.371-.276-.83-.414-1.375-.414-.568 0-1.042.145-1.421.437-.375.288-.657.68-.846 1.176a4.666 4.666 0 0 0-.279 1.66c0 .62.095 1.185.284 1.692.194.504.478.906.853 1.205.378.295.848.443 1.409.443ZM139.589 81V69.364h1.341v4.295h.113c.099-.151.235-.345.409-.58.178-.238.432-.45.762-.636.333-.19.784-.284 1.352-.284.735 0 1.383.184 1.943.551.561.368.998.889 1.313 1.563.314.674.471 1.47.471 2.386 0 .924-.157 1.725-.471 2.403-.315.675-.75 1.198-1.307 1.569-.557.367-1.199.55-1.926.55-.561 0-1.01-.092-1.347-.278-.337-.189-.596-.403-.778-.642a8.77 8.77 0 0 1-.421-.602h-.159V81h-1.295Zm1.318-4.364c0 .66.097 1.24.29 1.745.193.5.475.892.846 1.176.372.28.826.42 1.364.42.561 0 1.028-.148 1.403-.443.379-.3.663-.7.853-1.205a4.73 4.73 0 0 0 .289-1.693c0-.613-.094-1.166-.284-1.659-.185-.496-.467-.888-.846-1.176-.375-.291-.847-.437-1.415-.437-.545 0-1.004.138-1.375.414-.371.273-.652.656-.841 1.148-.189.489-.284 1.059-.284 1.71Zm11.006 4.569a3.548 3.548 0 0 1-1.506-.313 2.582 2.582 0 0 1-1.074-.915c-.265-.401-.398-.886-.398-1.454 0-.5.099-.906.296-1.216.197-.315.46-.56.79-.739a4.14 4.14 0 0 1 1.091-.397c.401-.092.804-.163 1.21-.217.53-.068.96-.119 1.29-.153.333-.038.575-.1.727-.187.155-.088.233-.239.233-.455v-.045c0-.561-.154-.997-.46-1.307-.304-.31-.764-.466-1.381-.466-.64 0-1.142.14-1.506.42-.363.28-.619.58-.767.898l-1.273-.455c.228-.53.531-.943.909-1.238.383-.3.8-.508 1.25-.625a5.196 5.196 0 0 1 1.341-.182 5.3 5.3 0 0 1 .966.102c.368.065.722.2 1.063.404.344.204.63.513.858.926.227.413.341.966.341 1.659V81h-1.341v-1.182h-.068a2.36 2.36 0 0 1-.455.608c-.212.216-.494.4-.847.551-.352.152-.782.227-1.289.227Zm.204-1.205c.53 0 .977-.104 1.341-.313a2.128 2.128 0 0 0 1.114-1.846v-1.227c-.057.068-.182.13-.375.187-.19.053-.409.1-.659.142a30.34 30.34 0 0 1-1.284.17 5.13 5.13 0 0 0-.978.222 1.687 1.687 0 0 0-.727.45c-.182.196-.273.465-.273.806 0 .466.173.818.517 1.057.349.235.79.352 1.324.352Zm9.789 1.182c-.819 0-1.523-.193-2.114-.58a3.776 3.776 0 0 1-1.364-1.596c-.318-.678-.477-1.453-.477-2.324 0-.886.163-1.669.489-2.347.329-.682.788-1.214 1.375-1.596.591-.387 1.28-.58 2.068-.58.613 0 1.166.114 1.659.341.492.227.896.546 1.21.954.315.41.51.887.585 1.432h-1.341c-.102-.397-.329-.75-.681-1.056-.349-.311-.819-.466-1.409-.466-.523 0-.982.136-1.375.409-.391.269-.696.65-.915 1.142-.216.488-.324 1.062-.324 1.721 0 .675.106 1.262.318 1.762.216.5.519.888.909 1.165.394.276.856.414 1.387.414.348 0 .664-.06.948-.181a1.96 1.96 0 0 0 .722-.523c.197-.227.337-.5.42-.819h1.341a3.1 3.1 0 0 1-.562 1.393 3.158 3.158 0 0 1-1.176.977c-.485.239-1.05.358-1.693.358Zm6.642-3.364-.023-1.659h.273l3.818-3.886h1.659l-4.068 4.113h-.114l-1.545 1.432ZM167.298 81V69.364h1.34V81h-1.34Zm5.545 0-3.409-4.318.954-.932 4.16 5.25h-1.705Zm11.544-8.727v1.136h-4.704v-1.136h4.704ZM181.092 81v-9.932c0-.5.117-.916.352-1.25a2.19 2.19 0 0 1 .915-.75c.375-.166.77-.25 1.187-.25.33 0 .599.027.807.08.208.053.364.102.466.148l-.386 1.158a6.8 6.8 0 0 0-.285-.085 1.714 1.714 0 0 0-.465-.05c-.444 0-.764.11-.961.334-.193.224-.289.551-.289.983V81h-1.341Zm8.36.182c-.787 0-1.479-.188-2.073-.563-.591-.375-1.053-.9-1.387-1.573-.329-.675-.494-1.463-.494-2.364 0-.91.165-1.703.494-2.38.334-.679.796-1.205 1.387-1.58.594-.375 1.286-.563 2.073-.563.788 0 1.478.188 2.069.563.594.375 1.056.901 1.386 1.58.333.677.5 1.47.5 2.38 0 .901-.167 1.69-.5 2.364a3.775 3.775 0 0 1-1.386 1.573c-.591.375-1.281.563-2.069.563Zm0-1.205c.599 0 1.091-.153 1.478-.46a2.72 2.72 0 0 0 .858-1.21c.185-.5.278-1.042.278-1.625 0-.584-.093-1.127-.278-1.63a2.755 2.755 0 0 0-.858-1.223c-.387-.31-.879-.465-1.478-.465-.598 0-1.09.155-1.477.465a2.757 2.757 0 0 0-.858 1.222 4.695 4.695 0 0 0-.278 1.63c0 .584.093 1.126.278 1.626.186.5.472.903.858 1.21.387.307.879.46 1.477.46ZM195.454 81v-8.727h1.295v1.318h.091c.159-.432.447-.782.864-1.051a2.541 2.541 0 0 1 1.409-.404c.098 0 .222.002.369.006.148.004.26.01.335.017v1.364a3.926 3.926 0 0 0-.312-.051 3.08 3.08 0 0 0-.506-.04c-.424 0-.803.089-1.136.267a1.955 1.955 0 0 0-1.068 1.778V81h-1.341Zm14.248-8.727v1.136h-4.522v-1.136h4.522Zm-3.204-2.091h1.341V78.5c0 .379.055.663.165.852a.85.85 0 0 0 .431.375c.178.06.366.091.563.091.148 0 .269-.007.364-.022l.227-.046.273 1.204a2.733 2.733 0 0 1-.381.103 2.8 2.8 0 0 1-.619.057 2.7 2.7 0 0 1-1.114-.245 2.215 2.215 0 0 1-.898-.744c-.235-.333-.352-.754-.352-1.261v-8.682Zm6.75 5.568V81h-1.341V69.364h1.341v4.272h.114c.204-.45.511-.808.92-1.073.413-.27.962-.404 1.648-.404.594 0 1.115.12 1.562.358a2.41 2.41 0 0 1 1.04 1.085c.25.485.375 1.102.375 1.852V81h-1.341v-5.454c0-.694-.18-1.23-.54-1.609-.356-.382-.85-.573-1.483-.573-.439 0-.833.092-1.181.278a2.037 2.037 0 0 0-.819.813c-.197.356-.295.787-.295 1.295Zm11.771 5.432c-.841 0-1.566-.186-2.176-.557a3.733 3.733 0 0 1-1.403-1.568c-.326-.674-.489-1.459-.489-2.353 0-.893.163-1.681.489-2.363.329-.686.788-1.22 1.375-1.602.591-.387 1.28-.58 2.068-.58.454 0 .903.076 1.346.227.444.152.847.398 1.211.739.363.337.653.784.869 1.34.216.558.324 1.243.324 2.058v.568h-6.727v-1.16h5.363c0-.492-.098-.931-.295-1.317a2.225 2.225 0 0 0-.83-.915c-.356-.224-.776-.335-1.261-.335-.534 0-.996.132-1.387.397a2.623 2.623 0 0 0-.892 1.023c-.208.42-.312.871-.312 1.352v.773c0 .66.114 1.218.341 1.676.231.455.551.801.96 1.04.409.235.885.352 1.426.352.352 0 .671-.049.955-.148a2.03 2.03 0 0 0 .744-.454c.208-.204.369-.458.483-.761l1.295.363a2.87 2.87 0 0 1-.687 1.16c-.322.329-.72.587-1.193.772a4.43 4.43 0 0 1-1.597.273Zm10.154 3.09v-12h1.295v1.387h.159c.099-.151.235-.345.409-.58.178-.238.432-.45.762-.636.333-.19.784-.284 1.352-.284.735 0 1.382.184 1.943.551.561.368.998.889 1.313 1.563.314.674.471 1.47.471 2.386 0 .924-.157 1.725-.471 2.403-.315.675-.75 1.198-1.307 1.569-.557.367-1.199.55-1.926.55-.561 0-1.01-.092-1.347-.278-.337-.189-.597-.403-.778-.642a8.77 8.77 0 0 1-.421-.602h-.114v4.614h-1.34Zm1.318-7.636c0 .66.096 1.24.29 1.745.193.5.475.892.846 1.176.371.28.826.42 1.364.42.56 0 1.028-.148 1.403-.443.379-.3.663-.7.852-1.205.194-.507.29-1.071.29-1.693 0-.613-.094-1.166-.284-1.659-.185-.496-.468-.888-.846-1.176-.375-.291-.847-.437-1.415-.437-.546 0-1.004.138-1.375.414-.371.273-.652.656-.841 1.148-.19.489-.284 1.059-.284 1.71ZM244.923 81v-8.727h1.295v1.318h.091c.159-.432.447-.782.864-1.051a2.54 2.54 0 0 1 1.409-.404c.098 0 .221.002.369.006s.259.01.335.017v1.364a3.926 3.926 0 0 0-.312-.051 3.08 3.08 0 0 0-.506-.04c-.424 0-.803.089-1.136.267a1.956 1.956 0 0 0-1.069 1.778V81h-1.34Zm9.233.182c-.788 0-1.48-.188-2.074-.563-.591-.375-1.053-.9-1.387-1.573-.329-.675-.494-1.463-.494-2.364 0-.91.165-1.703.494-2.38.334-.679.796-1.205 1.387-1.58.594-.375 1.286-.563 2.074-.563.787 0 1.477.188 2.068.563.594.375 1.057.901 1.386 1.58.333.677.5 1.47.5 2.38 0 .901-.167 1.69-.5 2.364a3.77 3.77 0 0 1-1.386 1.573c-.591.375-1.281.563-2.068.563Zm0-1.205c.598 0 1.09-.153 1.477-.46a2.72 2.72 0 0 0 .858-1.21c.185-.5.278-1.042.278-1.625 0-.584-.093-1.127-.278-1.63a2.755 2.755 0 0 0-.858-1.223c-.387-.31-.879-.465-1.477-.465-.599 0-1.091.155-1.478.465a2.757 2.757 0 0 0-.858 1.222 4.695 4.695 0 0 0-.278 1.63c0 .584.093 1.126.278 1.626.186.5.472.903.858 1.21.387.307.879.46 1.478.46Zm9.887-7.704v1.136h-4.704v-1.136h4.704ZM260.748 81v-9.932c0-.5.117-.916.352-1.25a2.19 2.19 0 0 1 .915-.75 2.89 2.89 0 0 1 1.187-.25c.33 0 .599.027.807.08.209.053.364.102.466.148l-.386 1.158a6.673 6.673 0 0 0-.284-.085 1.727 1.727 0 0 0-.466-.05c-.443 0-.763.11-.96.334-.194.224-.29.551-.29.983V81h-1.341Zm8.474.182c-.841 0-1.566-.186-2.176-.557a3.733 3.733 0 0 1-1.403-1.568c-.326-.674-.489-1.459-.489-2.353 0-.893.163-1.681.489-2.363.329-.686.788-1.22 1.375-1.602.591-.387 1.28-.58 2.068-.58.454 0 .903.076 1.347.227a3.34 3.34 0 0 1 1.21.739c.363.337.653.784.869 1.34.216.558.324 1.243.324 2.058v.568h-6.727v-1.16h5.363c0-.492-.098-.931-.295-1.317a2.225 2.225 0 0 0-.83-.915c-.356-.224-.776-.335-1.261-.335-.534 0-.996.132-1.386.397a2.608 2.608 0 0 0-.892 1.023c-.209.42-.313.871-.313 1.352v.773c0 .66.114 1.218.341 1.676.231.455.551.801.96 1.04.409.235.885.352 1.426.352a2.9 2.9 0 0 0 .955-.148 2.03 2.03 0 0 0 .744-.454c.208-.204.369-.458.483-.761l1.296.363a2.88 2.88 0 0 1-.688 1.16c-.322.329-.72.587-1.193.772a4.43 4.43 0 0 1-1.597.273Zm11.836-6.955-1.205.341a2.262 2.262 0 0 0-.335-.585 1.628 1.628 0 0 0-.591-.477c-.25-.125-.57-.188-.96-.188-.534 0-.98.123-1.336.37-.352.242-.528.55-.528.926 0 .333.121.596.364.79.242.193.621.354 1.136.482l1.295.319c.781.189 1.362.479 1.745.869.382.386.574.884.574 1.494 0 .5-.144.947-.432 1.341-.284.394-.682.705-1.193.932-.512.227-1.106.34-1.784.34-.891 0-1.627-.192-2.211-.579-.583-.386-.952-.95-1.108-1.693l1.273-.318c.121.47.35.822.688 1.057.34.235.786.352 1.335.352.625 0 1.121-.133 1.488-.398.372-.269.557-.59.557-.966 0-.303-.106-.556-.318-.761-.212-.208-.538-.364-.977-.466l-1.455-.34c-.799-.19-1.386-.484-1.761-.882-.371-.401-.557-.903-.557-1.505 0-.493.138-.928.415-1.307a2.82 2.82 0 0 1 1.142-.892c.485-.216 1.034-.324 1.648-.324.863 0 1.541.19 2.034.568.496.38.848.88 1.057 1.5Zm8.359 0-1.205.341a2.206 2.206 0 0 0-.335-.585 1.628 1.628 0 0 0-.591-.477c-.25-.125-.57-.188-.96-.188-.534 0-.979.123-1.335.37-.353.242-.529.55-.529.926 0 .333.122.596.364.79.242.193.621.354 1.136.482l1.296.319c.78.189 1.362.479 1.744.869.383.386.574.884.574 1.494 0 .5-.144.947-.432 1.341-.284.394-.682.705-1.193.932-.511.227-1.106.34-1.784.34-.89 0-1.627-.192-2.21-.579-.584-.386-.953-.95-1.108-1.693l1.272-.318c.122.47.351.822.688 1.057.341.235.786.352 1.335.352.625 0 1.121-.133 1.489-.398.371-.269.557-.59.557-.966 0-.303-.106-.556-.319-.761-.212-.208-.537-.364-.977-.466l-1.454-.34c-.8-.19-1.387-.484-1.762-.882-.371-.401-.557-.903-.557-1.505 0-.493.139-.928.415-1.307a2.828 2.828 0 0 1 1.142-.892c.485-.216 1.034-.324 1.648-.324.864 0 1.542.19 2.034.568.496.38.849.88 1.057 1.5Zm5.723 6.955c-.788 0-1.479-.188-2.074-.563-.591-.375-1.053-.9-1.386-1.573-.33-.675-.495-1.463-.495-2.364 0-.91.165-1.703.495-2.38.333-.679.795-1.205 1.386-1.58.595-.375 1.286-.563 2.074-.563.788 0 1.477.188 2.068.563.595.375 1.057.901 1.386 1.58.334.677.5 1.47.5 2.38 0 .901-.166 1.69-.5 2.364a3.763 3.763 0 0 1-1.386 1.573c-.591.375-1.28.563-2.068.563Zm0-1.205c.598 0 1.091-.153 1.477-.46.387-.307.673-.71.858-1.21.186-.5.279-1.042.279-1.625 0-.584-.093-1.127-.279-1.63a2.74 2.74 0 0 0-.858-1.223c-.386-.31-.879-.465-1.477-.465-.599 0-1.091.155-1.477.465a2.74 2.74 0 0 0-.858 1.222 4.672 4.672 0 0 0-.279 1.63c0 .584.093 1.126.279 1.626.185.5.471.903.858 1.21.386.307.878.46 1.477.46ZM301.141 81v-8.727h1.296v1.318h.091c.159-.432.447-.782.863-1.051a2.544 2.544 0 0 1 1.409-.404c.099 0 .222.002.37.006.147.004.259.01.335.017v1.364a3.983 3.983 0 0 0-.313-.051 3.068 3.068 0 0 0-.505-.04 2.38 2.38 0 0 0-1.137.267c-.329.174-.59.416-.784.727a1.964 1.964 0 0 0-.284 1.051V81h-1.341Zm12.135-6.773-1.204.341a2.262 2.262 0 0 0-.335-.585 1.628 1.628 0 0 0-.591-.477c-.25-.125-.57-.188-.961-.188-.534 0-.979.123-1.335.37-.352.242-.528.55-.528.926 0 .333.121.596.363.79.243.193.622.354 1.137.482l1.295.319c.78.189 1.362.479 1.745.869.382.386.573.884.573 1.494 0 .5-.144.947-.431 1.341-.285.394-.682.705-1.194.932-.511.227-1.106.34-1.784.34-.89 0-1.627-.192-2.21-.579-.583-.386-.953-.95-1.108-1.693l1.273-.318c.121.47.35.822.687 1.057.341.235.786.352 1.336.352.625 0 1.121-.133 1.488-.398.371-.269.557-.59.557-.966 0-.303-.106-.556-.318-.761-.212-.208-.538-.364-.977-.466l-1.455-.34c-.799-.19-1.386-.484-1.761-.882-.372-.401-.557-.903-.557-1.505 0-.493.138-.928.415-1.307a2.82 2.82 0 0 1 1.142-.892c.484-.216 1.034-.324 1.647-.324.864 0 1.542.19 2.034.568.497.38.849.88 1.057 1.5Zm10.473-1.954v1.136h-4.522v-1.136h4.522Zm-3.204-2.091h1.341V78.5c0 .379.055.663.164.852.114.186.258.31.432.375.178.06.366.091.563.091a2.4 2.4 0 0 0 .363-.022l.228-.046.272 1.204a2.713 2.713 0 0 1-.38.103c-.163.038-.37.057-.62.057-.378 0-.75-.082-1.113-.245a2.215 2.215 0 0 1-.898-.744c-.235-.333-.352-.754-.352-1.261v-8.682Zm8.673 11c-.788 0-1.479-.188-2.074-.563-.591-.375-1.053-.9-1.386-1.573-.33-.675-.495-1.463-.495-2.364 0-.91.165-1.703.495-2.38.333-.679.795-1.205 1.386-1.58.595-.375 1.286-.563 2.074-.563.788 0 1.477.188 2.068.563.595.375 1.057.901 1.387 1.58.333.677.5 1.47.5 2.38 0 .901-.167 1.69-.5 2.364a3.77 3.77 0 0 1-1.387 1.573c-.591.375-1.28.563-2.068.563Zm0-1.205c.599 0 1.091-.153 1.477-.46.387-.307.673-.71.858-1.21.186-.5.279-1.042.279-1.625 0-.584-.093-1.127-.279-1.63a2.74 2.74 0 0 0-.858-1.223c-.386-.31-.878-.465-1.477-.465-.598 0-1.091.155-1.477.465a2.74 2.74 0 0 0-.858 1.222 4.672 4.672 0 0 0-.279 1.63c0 .584.093 1.126.279 1.626.185.5.471.903.858 1.21.386.307.879.46 1.477.46ZM339.719 81v-8.727h1.296v1.318h.091c.159-.432.447-.782.863-1.051a2.545 2.545 0 0 1 1.41-.404c.098 0 .221.002.369.006s.259.01.335.017v1.364a4.014 4.014 0 0 0-.312-.051 3.08 3.08 0 0 0-.506-.04c-.424 0-.803.089-1.136.267-.33.174-.591.416-.785.727a1.964 1.964 0 0 0-.284 1.051V81h-1.341Zm9.347.182c-.841 0-1.566-.186-2.176-.557a3.733 3.733 0 0 1-1.403-1.568c-.326-.674-.489-1.459-.489-2.353 0-.893.163-1.681.489-2.363.329-.686.787-1.22 1.375-1.602.59-.387 1.28-.58 2.068-.58.454 0 .903.076 1.346.227a3.35 3.35 0 0 1 1.211.739c.363.337.653.784.869 1.34.216.558.324 1.243.324 2.058v.568h-6.728v-1.16h5.364c0-.492-.098-.931-.295-1.317a2.232 2.232 0 0 0-.83-.915c-.356-.224-.776-.335-1.261-.335-.534 0-.997.132-1.387.397a2.623 2.623 0 0 0-.892 1.023c-.208.42-.312.871-.312 1.352v.773c0 .66.113 1.218.341 1.676.231.455.551.801.96 1.04.409.235.884.352 1.426.352.352 0 .671-.049.955-.148.287-.102.536-.253.744-.454.208-.204.369-.458.483-.761l1.295.363a2.87 2.87 0 0 1-.687 1.16c-.322.329-.72.587-1.193.772a4.43 4.43 0 0 1-1.597.273Zm9.54-8.91v1.137h-4.705v-1.136h4.705ZM355.31 81v-9.932c0-.5.118-.916.353-1.25a2.18 2.18 0 0 1 .914-.75c.375-.166.771-.25 1.188-.25.329 0 .598.027.807.08a3.1 3.1 0 0 1 .466.148l-.387 1.158a6.673 6.673 0 0 0-.284-.085 1.722 1.722 0 0 0-.466-.05c-.443 0-.763.11-.96.334-.193.224-.29.551-.29.983V81h-1.341Zm6.516-11.636V81h-1.341V69.364h1.341Zm6.115 11.818c-.841 0-1.566-.186-2.176-.557a3.733 3.733 0 0 1-1.403-1.568c-.326-.674-.489-1.459-.489-2.353 0-.893.163-1.681.489-2.363.329-.686.787-1.22 1.375-1.602.59-.387 1.28-.58 2.068-.58.454 0 .903.076 1.346.227a3.35 3.35 0 0 1 1.211.739c.363.337.653.784.869 1.34.216.558.324 1.243.324 2.058v.568h-6.728v-1.16h5.364c0-.492-.098-.931-.295-1.317a2.232 2.232 0 0 0-.83-.915c-.356-.224-.776-.335-1.261-.335-.534 0-.997.132-1.387.397a2.623 2.623 0 0 0-.892 1.023c-.208.42-.312.871-.312 1.352v.773c0 .66.113 1.218.341 1.676.231.455.551.801.96 1.04.409.235.884.352 1.426.352.352 0 .671-.049.955-.148.287-.102.536-.253.744-.454.208-.204.369-.458.483-.761l1.295.363a2.87 2.87 0 0 1-.687 1.16c-.322.329-.72.587-1.193.772a4.43 4.43 0 0 1-1.597.273Zm9.199 0c-.818 0-1.523-.193-2.114-.58a3.774 3.774 0 0 1-1.363-1.596c-.319-.678-.478-1.453-.478-2.324 0-.886.163-1.669.489-2.347.33-.682.788-1.214 1.375-1.596.591-.387 1.28-.58 2.068-.58a3.91 3.91 0 0 1 1.659.341 3.18 3.18 0 0 1 1.211.954c.314.41.509.887.585 1.432h-1.341c-.102-.397-.33-.75-.682-1.056-.348-.311-.818-.466-1.409-.466-.523 0-.981.136-1.375.409-.39.269-.695.65-.915 1.142-.216.488-.324 1.062-.324 1.721 0 .675.106 1.262.318 1.762.216.5.519.888.91 1.165.393.276.856.414 1.386.414a2.4 2.4 0 0 0 .949-.181c.284-.122.524-.296.721-.523.197-.227.337-.5.421-.819h1.341c-.076.516-.264.98-.563 1.393a3.142 3.142 0 0 1-1.176.977c-.485.239-1.049.358-1.693.358Zm9.187-8.91v1.137h-4.522v-1.136h4.522Zm-3.204-2.09h1.341V78.5c0 .379.055.663.165.852a.85.85 0 0 0 .431.375c.178.06.366.091.563.091.148 0 .269-.007.364-.022l.227-.046.273 1.204a2.733 2.733 0 0 1-.381.103 2.8 2.8 0 0 1-.619.057 2.7 2.7 0 0 1-1.114-.245 2.215 2.215 0 0 1-.898-.744c-.235-.333-.352-.754-.352-1.261v-8.682Zm13.267 11c-.788 0-1.479-.188-2.074-.563-.591-.375-1.053-.9-1.386-1.573-.33-.675-.495-1.463-.495-2.364 0-.91.165-1.703.495-2.38.333-.679.795-1.205 1.386-1.58.595-.375 1.286-.563 2.074-.563.788 0 1.477.188 2.068.563.595.375 1.057.901 1.386 1.58.334.677.5 1.47.5 2.38 0 .901-.166 1.69-.5 2.364a3.763 3.763 0 0 1-1.386 1.573c-.591.375-1.28.563-2.068.563Zm0-1.205c.598 0 1.091-.153 1.477-.46.387-.307.673-.71.858-1.21.186-.5.279-1.042.279-1.625 0-.584-.093-1.127-.279-1.63a2.74 2.74 0 0 0-.858-1.223c-.386-.31-.879-.465-1.477-.465-.599 0-1.091.155-1.477.465a2.74 2.74 0 0 0-.858 1.222 4.672 4.672 0 0 0-.279 1.63c0 .584.093 1.126.279 1.626.185.5.471.903.858 1.21.386.307.878.46 1.477.46Zm7.342-4.227V81h-1.341v-8.727h1.296v1.363h.113a2.5 2.5 0 0 1 .932-1.068c.417-.272.955-.409 1.614-.409.591 0 1.108.121 1.551.364a2.45 2.45 0 0 1 1.034 1.09c.246.486.369 1.1.369 1.841V81h-1.34v-5.454c0-.686-.179-1.22-.535-1.603-.356-.386-.844-.58-1.465-.58-.429 0-.811.093-1.148.279a1.988 1.988 0 0 0-.79.813c-.193.356-.29.787-.29 1.295Zm13.382 8.523a3 3 0 0 1-.608-.057 1.597 1.597 0 0 1-.369-.102l.341-1.182c.326.083.614.114.864.09.25-.022.471-.134.664-.335.197-.197.377-.516.54-.96l.25-.681-3.227-8.773h1.454l2.41 6.954h.09l2.41-6.954h1.454l-3.704 10c-.167.45-.374.824-.62 1.119-.246.3-.532.52-.858.665a2.643 2.643 0 0 1-1.091.216Zm11.276-3.091c-.788 0-1.479-.188-2.074-.563-.591-.375-1.053-.9-1.386-1.573-.33-.675-.495-1.463-.495-2.364 0-.91.165-1.703.495-2.38.333-.679.795-1.205 1.386-1.58.595-.375 1.286-.563 2.074-.563.788 0 1.477.188 2.068.563.595.375 1.057.901 1.386 1.58.334.677.5 1.47.5 2.38 0 .901-.166 1.69-.5 2.364a3.763 3.763 0 0 1-1.386 1.573c-.591.375-1.28.563-2.068.563Zm0-1.205c.598 0 1.091-.153 1.477-.46.387-.307.673-.71.858-1.21.186-.5.279-1.042.279-1.625 0-.584-.093-1.127-.279-1.63a2.74 2.74 0 0 0-.858-1.223c-.386-.31-.879-.465-1.477-.465-.599 0-1.091.155-1.477.465a2.74 2.74 0 0 0-.858 1.222 4.672 4.672 0 0 0-.279 1.63c0 .584.093 1.126.279 1.626.185.5.471.903.858 1.21.386.307.878.46 1.477.46Zm11.501-2.545v-5.16h1.341V81h-1.341v-1.477h-.091c-.204.443-.522.82-.954 1.13-.432.307-.977.46-1.636.46-.546 0-1.031-.119-1.455-.357-.424-.243-.758-.606-1-1.091-.242-.489-.364-1.104-.364-1.847v-5.545h1.341v5.454c0 .637.178 1.144.534 1.523.36.379.819.568 1.375.568.334 0 .673-.085 1.017-.255.349-.171.641-.432.875-.785.239-.352.358-.8.358-1.346Zm4.774 3.659c-.28 0-.52-.1-.721-.301a.983.983 0 0 1-.301-.722c0-.28.1-.52.301-.721a.984.984 0 0 1 .721-.301c.281 0 .521.1.722.3a.985.985 0 0 1 .301.722.96.96 0 0 1-.142.511c-.091.156-.214.28-.369.376a.976.976 0 0 1-.512.136ZM36.227 101.864c-.459 0-.877-.112-1.256-.336a2.607 2.607 0 0 1-.91-.909 2.422 2.422 0 0 1-.334-1.255 2.4 2.4 0 0 1 .335-1.256c.227-.379.53-.68.909-.904.379-.227.797-.34 1.256-.34.462 0 .88.113 1.255.34.379.224.68.525.904.904.227.375.34.793.34 1.256 0 .458-.113.877-.34 1.255a2.56 2.56 0 0 1-.904.909 2.401 2.401 0 0 1-1.255.336Zm19.409-4.637-1.205.341a2.234 2.234 0 0 0-.335-.585 1.627 1.627 0 0 0-.591-.477c-.25-.125-.57-.188-.96-.188-.534 0-.98.123-1.336.37-.352.242-.528.55-.528.926 0 .333.121.596.364.79.242.193.621.354 1.136.482l1.296.319c.78.189 1.361.479 1.744.869.383.386.574.884.574 1.494 0 .5-.144.947-.432 1.341-.284.394-.682.705-1.193.932-.512.227-1.106.341-1.784.341-.89 0-1.627-.193-2.21-.58-.584-.386-.953-.95-1.108-1.693l1.272-.318c.121.47.35.822.688 1.057.34.235.786.352 1.335.352.625 0 1.121-.133 1.489-.398.37-.269.556-.591.556-.966 0-.303-.106-.556-.318-.761-.212-.208-.538-.364-.977-.466l-1.455-.341c-.799-.19-1.386-.483-1.761-.88-.371-.402-.557-.904-.557-1.506 0-.493.138-.928.415-1.307a2.82 2.82 0 0 1 1.142-.892c.485-.216 1.034-.324 1.648-.324.863 0 1.541.19 2.034.568.496.38.848.88 1.057 1.5Zm5.836 6.955c-.84 0-1.566-.186-2.176-.557a3.74 3.74 0 0 1-1.403-1.568c-.326-.674-.489-1.459-.489-2.353 0-.893.163-1.681.489-2.363.33-.686.788-1.22 1.375-1.602.59-.387 1.28-.58 2.068-.58.455 0 .903.076 1.346.227a3.33 3.33 0 0 1 1.21.739c.364.337.654.784.87 1.34.216.558.324 1.243.324 2.058v.568h-6.727v-1.16h5.363c0-.492-.098-.931-.295-1.317a2.226 2.226 0 0 0-.83-.915c-.356-.224-.776-.335-1.261-.335-.534 0-.996.132-1.386.397a2.616 2.616 0 0 0-.893 1.023c-.208.42-.312.871-.312 1.352v.773c0 .659.114 1.218.34 1.676.232.455.552.801.961 1.04.41.235.885.352 1.426.352.353 0 .67-.049.955-.147.288-.103.536-.254.744-.455.209-.205.37-.458.483-.761l1.296.363c-.137.44-.366.826-.688 1.159-.322.33-.72.587-1.193.773a4.421 4.421 0 0 1-1.597.273Zm6.995-5.432V104h-1.341v-8.727h1.295v1.363h.114c.204-.443.515-.799.932-1.068.416-.272.954-.409 1.613-.409.591 0 1.108.121 1.551.364.444.238.788.602 1.034 1.09.247.486.37 1.1.37 1.841V104h-1.341v-5.454c0-.686-.178-1.22-.534-1.603-.356-.386-.845-.58-1.466-.58-.428 0-.81.093-1.148.279a1.993 1.993 0 0 0-.79.813c-.193.356-.29.787-.29 1.295Zm11.314 5.432c-.728 0-1.37-.184-1.927-.551-.556-.372-.992-.894-1.306-1.569-.315-.678-.472-1.479-.472-2.403 0-.917.157-1.712.472-2.386.314-.674.751-1.195 1.312-1.563.56-.367 1.208-.55 1.943-.55.568 0 1.017.094 1.347.283.333.186.587.398.761.636.178.235.317.429.415.58h.114v-4.295h1.34V104h-1.295v-1.341h-.159a8.61 8.61 0 0 1-.42.602c-.182.239-.442.453-.779.642-.337.186-.786.279-1.346.279Zm.181-1.205c.538 0 .993-.14 1.364-.42.371-.284.653-.676.847-1.176.193-.504.29-1.086.29-1.745 0-.651-.095-1.221-.285-1.71-.19-.492-.47-.875-.84-1.148-.372-.276-.83-.414-1.376-.414-.568 0-1.041.145-1.42.437-.375.288-.657.68-.847 1.176a4.675 4.675 0 0 0-.278 1.66c0 .621.095 1.185.284 1.693.193.503.477.905.852 1.204.38.296.849.443 1.41.443Zm13.529 1.228a3.551 3.551 0 0 1-1.506-.313 2.582 2.582 0 0 1-1.074-.915c-.265-.401-.398-.886-.398-1.454 0-.5.099-.906.296-1.216.197-.315.46-.56.79-.739.33-.178.693-.31 1.09-.397.402-.092.806-.163 1.21-.217.531-.068.961-.119 1.29-.153.334-.038.576-.1.728-.187.155-.088.233-.239.233-.455v-.045c0-.561-.154-.997-.46-1.307-.303-.31-.764-.466-1.381-.466-.64 0-1.142.14-1.506.42-.363.28-.62.58-.767.898l-1.273-.455c.228-.53.53-.943.91-1.238.382-.3.799-.508 1.25-.625a5.19 5.19 0 0 1 1.34-.182c.28 0 .603.034.966.102a3.09 3.09 0 0 1 1.063.404c.345.204.63.513.858.926.227.413.34.966.34 1.659V104h-1.34v-1.182h-.068a2.35 2.35 0 0 1-.455.608c-.212.216-.494.4-.846.551-.353.152-.783.228-1.29.228Zm.204-1.205c.53 0 .978-.104 1.341-.312.368-.209.644-.478.83-.807.19-.33.284-.676.284-1.04v-1.227c-.057.068-.182.13-.375.187-.19.053-.41.1-.66.142-.245.038-.486.072-.72.102-.232.027-.42.05-.563.069a5.108 5.108 0 0 0-.978.221 1.69 1.69 0 0 0-.727.449c-.182.197-.273.466-.273.807 0 .466.173.818.517 1.057.349.235.79.352 1.324.352Zm14.539-7.727v1.136h-4.523v-1.136h4.523Zm-3.205-2.091h1.341v8.318c0 .379.055.663.165.852a.845.845 0 0 0 .432.375c.178.061.365.091.562.091.148 0 .269-.007.364-.023l.227-.045.273 1.205a2.74 2.74 0 0 1-.381.102 2.792 2.792 0 0 1-.619.057 2.7 2.7 0 0 1-1.114-.245 2.217 2.217 0 0 1-.898-.744c-.234-.333-.352-.754-.352-1.261v-8.682Zm6.75 5.568V104h-1.341V92.364h1.341v4.272h.114c.204-.45.511-.808.92-1.073.413-.27.962-.404 1.648-.404.595 0 1.115.12 1.562.358a2.41 2.41 0 0 1 1.04 1.085c.25.485.375 1.102.375 1.852V104h-1.341v-5.454c0-.694-.18-1.23-.539-1.609-.357-.382-.851-.573-1.483-.573-.44 0-.834.092-1.182.278a2.028 2.028 0 0 0-.818.813c-.197.356-.296.787-.296 1.295Zm10.681 5.455a3.55 3.55 0 0 1-1.506-.313 2.58 2.58 0 0 1-1.074-.915c-.265-.401-.398-.886-.398-1.454 0-.5.099-.906.296-1.216.197-.315.46-.56.789-.739.33-.178.694-.31 1.091-.397.402-.092.805-.163 1.211-.217.53-.068.96-.119 1.289-.153.334-.038.576-.1.728-.187.155-.088.233-.239.233-.455v-.045c0-.561-.154-.997-.461-1.307-.303-.31-.763-.466-1.38-.466-.64 0-1.142.14-1.506.42-.364.28-.619.58-.767.898l-1.273-.455c.228-.53.531-.943.909-1.238.383-.3.8-.508 1.25-.625a5.196 5.196 0 0 1 1.341-.182 5.3 5.3 0 0 1 .966.102c.368.065.722.2 1.063.404.344.204.63.513.858.926.227.413.341.966.341 1.659V104h-1.341v-1.182h-.069a2.33 2.33 0 0 1-.454.608c-.212.216-.494.4-.847.551-.352.152-.782.228-1.289.228Zm.204-1.205c.53 0 .977-.104 1.341-.312.367-.209.644-.478.83-.807.189-.33.284-.676.284-1.04v-1.227c-.057.068-.182.13-.375.187-.19.053-.409.1-.659.142a28.825 28.825 0 0 1-1.285.171 5.114 5.114 0 0 0-.977.221 1.684 1.684 0 0 0-.727.449c-.182.197-.273.466-.273.807 0 .466.173.818.517 1.057.349.235.79.352 1.324.352Zm7.584-4.25V104h-1.341v-8.727h1.295v1.363h.114c.205-.443.515-.799.932-1.068.417-.272.954-.409 1.614-.409.59 0 1.107.121 1.551.364a2.45 2.45 0 0 1 1.034 1.09c.246.486.369 1.1.369 1.841V104h-1.341v-5.454c0-.686-.178-1.22-.534-1.603-.356-.386-.845-.58-1.466-.58-.428 0-.81.093-1.148.279a1.992 1.992 0 0 0-.789.813c-.194.356-.29.787-.29 1.295Zm9.268 2.068-.022-1.659h.272l3.819-3.886h1.659l-4.069 4.113h-.113l-1.546 1.432Zm-1.25 3.182V92.364h1.341V104h-1.341Zm5.546 0-3.409-4.318.954-.932 4.159 5.25h-1.704Zm7.423-5.614v1.25h-5.091v-1.25h5.091Zm3.223 8.887a2.93 2.93 0 0 1-.608-.057 1.601 1.601 0 0 1-.369-.102l.341-1.182c.325.083.613.113.863.091a1.04 1.04 0 0 0 .665-.335c.197-.197.377-.518.54-.961l.25-.682-3.227-8.772h1.454l2.409 6.954h.091l2.409-6.954h1.455l-3.705 10c-.166.45-.373.824-.619 1.119a2.321 2.321 0 0 1-.858.665 2.646 2.646 0 0 1-1.091.216Zm11.276-3.091c-.788 0-1.48-.188-2.074-.563-.591-.375-1.053-.899-1.387-1.574-.329-.674-.494-1.462-.494-2.363 0-.91.165-1.703.494-2.38.334-.679.796-1.205 1.387-1.58.594-.375 1.286-.563 2.074-.563.788 0 1.477.188 2.068.563.595.375 1.057.901 1.386 1.58.334.677.5 1.47.5 2.38 0 .901-.166 1.689-.5 2.363a3.758 3.758 0 0 1-1.386 1.574c-.591.375-1.28.563-2.068.563Zm0-1.205c.598 0 1.091-.153 1.477-.46a2.72 2.72 0 0 0 .858-1.21c.185-.5.278-1.042.278-1.625 0-.584-.093-1.127-.278-1.63a2.755 2.755 0 0 0-.858-1.223c-.386-.31-.879-.465-1.477-.465-.599 0-1.091.155-1.478.465a2.757 2.757 0 0 0-.858 1.222 4.695 4.695 0 0 0-.278 1.63c0 .584.093 1.126.278 1.626.186.5.472.903.858 1.21.387.307.879.46 1.478.46Zm11.501-2.545v-5.16h1.341V104h-1.341v-1.477h-.091a2.86 2.86 0 0 1-.954 1.13c-.432.307-.978.461-1.637.461a2.92 2.92 0 0 1-1.454-.358c-.425-.243-.758-.606-1-1.091-.243-.489-.364-1.104-.364-1.847v-5.545h1.341v5.454c0 .637.178 1.144.534 1.523.36.379.818.568 1.375.568.333 0 .672-.085 1.017-.256.349-.17.64-.431.875-.784.239-.352.358-.801.358-1.346Zm9.638-1.682V104h-1.341v-8.727h1.295v1.363h.114c.205-.443.515-.799.932-1.068.417-.272.954-.409 1.614-.409.59 0 1.107.121 1.551.364a2.45 2.45 0 0 1 1.034 1.09c.246.486.369 1.1.369 1.841V104H191.1v-5.454c0-.686-.178-1.22-.534-1.603-.356-.386-.845-.58-1.466-.58-.428 0-.81.093-1.148.279a1.992 1.992 0 0 0-.789.813c-.194.356-.29.787-.29 1.295Zm11.564 5.432c-.788 0-1.479-.188-2.074-.563-.591-.375-1.053-.899-1.386-1.574-.33-.674-.495-1.462-.495-2.363 0-.91.165-1.703.495-2.38.333-.679.795-1.205 1.386-1.58.595-.375 1.286-.563 2.074-.563.788 0 1.477.188 2.068.563.595.375 1.057.901 1.386 1.58.334.677.5 1.47.5 2.38 0 .901-.166 1.689-.5 2.363a3.758 3.758 0 0 1-1.386 1.574c-.591.375-1.28.563-2.068.563Zm0-1.205c.598 0 1.091-.153 1.477-.46a2.72 2.72 0 0 0 .858-1.21c.186-.5.278-1.042.278-1.625 0-.584-.092-1.127-.278-1.63a2.755 2.755 0 0 0-.858-1.223c-.386-.31-.879-.465-1.477-.465-.599 0-1.091.155-1.477.465a2.74 2.74 0 0 0-.858 1.222 4.672 4.672 0 0 0-.279 1.63c0 .584.093 1.126.279 1.626.185.5.471.903.858 1.21.386.307.878.46 1.477.46Zm9.797-7.704v1.136h-4.523v-1.136h4.523Zm-3.205-2.091h1.341v8.318c0 .379.055.663.165.852a.845.845 0 0 0 .432.375c.178.061.365.091.562.091.148 0 .269-.007.364-.023l.227-.045.273 1.205a2.74 2.74 0 0 1-.381.102 2.792 2.792 0 0 1-.619.057 2.7 2.7 0 0 1-1.114-.245 2.217 2.217 0 0 1-.898-.744c-.234-.333-.352-.754-.352-1.261v-8.682Zm8.787 11c-.841 0-1.566-.186-2.176-.557a3.736 3.736 0 0 1-1.403-1.568c-.326-.674-.489-1.459-.489-2.353 0-.893.163-1.681.489-2.363.329-.686.787-1.22 1.375-1.602.59-.387 1.28-.58 2.068-.58.454 0 .903.076 1.346.227a3.35 3.35 0 0 1 1.211.739c.363.337.653.784.869 1.34.216.558.324 1.243.324 2.058v.568h-6.728v-1.16h5.364c0-.492-.098-.931-.295-1.317a2.232 2.232 0 0 0-.83-.915c-.356-.224-.776-.335-1.261-.335-.534 0-.997.132-1.387.397a2.623 2.623 0 0 0-.892 1.023c-.208.42-.312.871-.312 1.352v.773c0 .659.113 1.218.341 1.676.231.455.551.801.96 1.04.409.235.884.352 1.426.352.352 0 .671-.049.955-.147.287-.103.536-.254.744-.455.208-.205.369-.458.483-.761l1.295.363a2.86 2.86 0 0 1-.687 1.159c-.322.33-.72.587-1.193.773a4.425 4.425 0 0 1-1.597.273Zm12.722.023a3.554 3.554 0 0 1-1.506-.313 2.58 2.58 0 0 1-1.074-.915c-.265-.401-.398-.886-.398-1.454 0-.5.099-.906.296-1.216.197-.315.46-.56.79-.739a4.14 4.14 0 0 1 1.091-.397c.401-.092.804-.163 1.21-.217.53-.068.96-.119 1.29-.153.333-.038.575-.1.727-.187.155-.088.233-.239.233-.455v-.045c0-.561-.154-.997-.46-1.307-.304-.31-.764-.466-1.381-.466-.64 0-1.142.14-1.506.42-.363.28-.619.58-.767.898l-1.273-.455c.228-.53.531-.943.909-1.238.383-.3.8-.508 1.25-.625a5.196 5.196 0 0 1 1.341-.182 5.3 5.3 0 0 1 .966.102c.368.065.722.2 1.063.404.344.204.63.513.858.926.227.413.341.966.341 1.659V104h-1.341v-1.182h-.068a2.36 2.36 0 0 1-.455.608c-.212.216-.494.4-.847.551-.352.152-.782.228-1.289.228Zm.204-1.205c.53 0 .977-.104 1.341-.312.368-.209.644-.478.83-.807.189-.33.284-.676.284-1.04v-1.227c-.057.068-.182.13-.375.187-.19.053-.409.1-.659.142-.247.038-.487.072-.722.102-.231.027-.419.05-.562.069a5.107 5.107 0 0 0-.978.221 1.69 1.69 0 0 0-.727.449c-.182.197-.273.466-.273.807 0 .466.173.818.517 1.057.349.235.79.352 1.324.352Zm10.129-7.727v1.136h-4.704v-1.136h4.704ZM233.576 104v-9.932c0-.5.117-.916.352-1.25a2.19 2.19 0 0 1 .915-.75c.375-.166.771-.25 1.188-.25.329 0 .598.027.806.08.209.053.364.102.466.148l-.386 1.158a6.673 6.673 0 0 0-.284-.085 1.727 1.727 0 0 0-.466-.05c-.443 0-.763.11-.96.334-.194.224-.29.551-.29.983V104h-1.341Zm8.97-8.727v1.136h-4.523v-1.136h4.523Zm-3.204-2.091h1.341v8.318c0 .379.054.663.164.852a.853.853 0 0 0 .432.375c.178.061.366.091.563.091.147 0 .269-.007.363-.023l.228-.045.272 1.205a2.76 2.76 0 0 1-.38.102c-.163.038-.37.057-.62.057-.379 0-.75-.082-1.113-.245a2.217 2.217 0 0 1-.898-.744c-.235-.333-.352-.754-.352-1.261v-8.682Zm8.787 11c-.841 0-1.567-.186-2.177-.557a3.742 3.742 0 0 1-1.403-1.568c-.326-.674-.489-1.459-.489-2.353 0-.893.163-1.681.489-2.363.33-.686.788-1.22 1.375-1.602.591-.387 1.28-.58 2.068-.58.455 0 .904.076 1.347.227a3.34 3.34 0 0 1 1.21.739c.364.337.653.784.869 1.34.216.558.324 1.243.324 2.058v.568h-6.727v-1.16h5.364c0-.492-.099-.931-.296-1.317a2.23 2.23 0 0 0-.829-.915c-.357-.224-.777-.335-1.262-.335-.534 0-.996.132-1.386.397a2.608 2.608 0 0 0-.892 1.023c-.209.42-.313.871-.313 1.352v.773c0 .659.114 1.218.341 1.676.231.455.551.801.96 1.04.41.235.885.352 1.427.352.352 0 .67-.049.954-.147.288-.103.536-.254.744-.455.209-.205.37-.458.483-.761l1.296.363c-.137.44-.366.826-.688 1.159-.322.33-.719.587-1.193.773a4.42 4.42 0 0 1-1.596.273Zm5.653-.182v-8.727h1.295v1.318h.091c.159-.432.447-.782.864-1.051a2.541 2.541 0 0 1 1.409-.404c.099 0 .222.002.369.006.148.004.26.01.336.017v1.364a4.073 4.073 0 0 0-.313-.051 3.08 3.08 0 0 0-.506-.04c-.424 0-.803.089-1.136.267a2.016 2.016 0 0 0-.784.727 1.964 1.964 0 0 0-.284 1.051V104h-1.341Zm14.112.182c-.841 0-1.566-.186-2.176-.557a3.736 3.736 0 0 1-1.403-1.568c-.326-.674-.489-1.459-.489-2.353 0-.893.163-1.681.489-2.363.329-.686.788-1.22 1.375-1.602.591-.387 1.28-.58 2.068-.58.454 0 .903.076 1.346.227.444.152.847.398 1.211.739.363.337.653.784.869 1.34.216.558.324 1.243.324 2.058v.568h-6.727v-1.16h5.363c0-.492-.098-.931-.295-1.317a2.225 2.225 0 0 0-.83-.915c-.356-.224-.776-.335-1.261-.335-.534 0-.996.132-1.387.397a2.623 2.623 0 0 0-.892 1.023c-.208.42-.312.871-.312 1.352v.773c0 .659.114 1.218.341 1.676.231.455.551.801.96 1.04.409.235.885.352 1.426.352.352 0 .671-.049.955-.147.288-.103.536-.254.744-.455.208-.205.369-.458.483-.761l1.295.363a2.86 2.86 0 0 1-.687 1.159c-.322.33-.72.587-1.193.773a4.425 4.425 0 0 1-1.597.273Zm8.222.023a3.554 3.554 0 0 1-1.506-.313 2.58 2.58 0 0 1-1.074-.915c-.265-.401-.398-.886-.398-1.454 0-.5.099-.906.296-1.216.197-.315.46-.56.79-.739a4.14 4.14 0 0 1 1.091-.397c.401-.092.805-.163 1.21-.217.53-.068.96-.119 1.29-.153.333-.038.575-.1.727-.187.155-.088.233-.239.233-.455v-.045c0-.561-.154-.997-.46-1.307-.303-.31-.764-.466-1.381-.466-.64 0-1.142.14-1.506.42-.363.28-.619.58-.767.898l-1.273-.455c.228-.53.531-.943.91-1.238.382-.3.799-.508 1.25-.625a5.183 5.183 0 0 1 1.34-.182 5.3 5.3 0 0 1 .966.102c.368.065.722.2 1.063.404.345.204.631.513.858.926.227.413.341.966.341 1.659V104h-1.341v-1.182h-.068a2.36 2.36 0 0 1-.455.608c-.212.216-.494.4-.846.551-.353.152-.783.228-1.29.228Zm.204-1.205c.531 0 .978-.104 1.341-.312.368-.209.644-.478.83-.807.189-.33.284-.676.284-1.04v-1.227c-.057.068-.182.13-.375.187-.19.053-.409.1-.659.142-.246.038-.487.072-.722.102-.231.027-.418.05-.562.069a5.107 5.107 0 0 0-.978.221 1.69 1.69 0 0 0-.727.449c-.182.197-.273.466-.273.807 0 .466.173.818.517 1.057.349.235.79.352 1.324.352Zm9.789 1.182c-.819 0-1.523-.193-2.114-.58a3.78 3.78 0 0 1-1.364-1.596c-.318-.678-.477-1.453-.477-2.324 0-.886.163-1.669.489-2.347.329-.682.788-1.214 1.375-1.596.591-.387 1.28-.58 2.068-.58a3.91 3.91 0 0 1 1.659.341c.492.227.896.546 1.21.954.315.41.51.887.585 1.432h-1.34c-.103-.397-.33-.75-.682-1.056-.349-.311-.818-.466-1.409-.466-.523 0-.981.136-1.375.409-.39.269-.695.65-.915 1.142-.216.488-.324 1.062-.324 1.721 0 .675.106 1.262.318 1.762.216.5.519.888.909 1.164.394.277.856.415 1.387.415.348 0 .664-.06.949-.182.284-.121.524-.295.721-.522.197-.228.337-.5.421-.818h1.34a3.1 3.1 0 0 1-.562 1.392 3.15 3.15 0 0 1-1.176.977c-.485.238-1.049.358-1.693.358Zm6.733-5.432V104h-1.341V92.364h1.341v4.272h.113c.205-.45.512-.808.921-1.073.413-.27.962-.404 1.647-.404.595 0 1.116.12 1.563.358.447.235.793.597 1.04 1.085.25.485.375 1.102.375 1.852V104h-1.341v-5.454c0-.694-.18-1.23-.54-1.609-.356-.382-.85-.573-1.483-.573-.439 0-.833.092-1.182.278a2.04 2.04 0 0 0-.818.813c-.197.356-.295.787-.295 1.295Zm12.612 5.25v-8.727h1.295v1.363h.114c.182-.465.475-.827.881-1.085.405-.261.892-.392 1.46-.392.576 0 1.055.13 1.437.392.387.258.688.62.904 1.085h.091c.223-.45.558-.808 1.005-1.073.447-.27.983-.404 1.608-.404.781 0 1.419.244 1.915.733.496.485.744 1.24.744 2.267V104h-1.341v-5.84c0-.645-.176-1.105-.528-1.382a1.955 1.955 0 0 0-1.244-.414c-.614 0-1.089.185-1.426.556-.338.368-.506.834-.506 1.398V104h-1.364v-5.977c0-.496-.161-.896-.483-1.2-.322-.306-.736-.46-1.244-.46-.348 0-.674.093-.977.279a2.11 2.11 0 0 0-.728.773 2.29 2.29 0 0 0-.272 1.13V104h-1.341Zm17.565.182c-.841 0-1.566-.186-2.176-.557a3.736 3.736 0 0 1-1.403-1.568c-.326-.674-.489-1.459-.489-2.353 0-.893.163-1.681.489-2.363.329-.686.788-1.22 1.375-1.602.591-.387 1.28-.58 2.068-.58.454 0 .903.076 1.346.227.444.152.847.398 1.211.739.363.337.653.784.869 1.34.216.558.324 1.243.324 2.058v.568h-6.727v-1.16h5.363c0-.492-.098-.931-.295-1.317a2.225 2.225 0 0 0-.83-.915c-.356-.224-.776-.335-1.261-.335-.534 0-.996.132-1.387.397a2.623 2.623 0 0 0-.892 1.023c-.208.42-.312.871-.312 1.352v.773c0 .659.114 1.218.341 1.676.231.455.551.801.96 1.04.409.235.885.352 1.426.352.352 0 .671-.049.955-.147.288-.103.536-.254.744-.455.208-.205.369-.458.483-.761l1.295.363a2.86 2.86 0 0 1-.687 1.159c-.322.33-.72.587-1.193.773a4.425 4.425 0 0 1-1.597.273Zm9.313 0c-.841 0-1.567-.186-2.176-.557a3.738 3.738 0 0 1-1.404-1.568c-.326-.674-.489-1.459-.489-2.353 0-.893.163-1.681.489-2.363.33-.686.788-1.22 1.375-1.602.591-.387 1.28-.58 2.068-.58.455 0 .904.076 1.347.227a3.34 3.34 0 0 1 1.21.739c.364.337.654.784.869 1.34.216.558.324 1.243.324 2.058v.568h-6.727v-1.16h5.364c0-.492-.099-.931-.296-1.317a2.223 2.223 0 0 0-.829-.915c-.356-.224-.777-.335-1.262-.335-.534 0-.996.132-1.386.397a2.615 2.615 0 0 0-.892 1.023 3.01 3.01 0 0 0-.313 1.352v.773c0 .659.114 1.218.341 1.676.231.455.551.801.961 1.04.409.235.884.352 1.426.352.352 0 .67-.049.954-.147.288-.103.536-.254.745-.455.208-.205.369-.458.482-.761l1.296.363c-.136.44-.366.826-.688 1.159-.322.33-.719.587-1.193.773a4.416 4.416 0 0 1-1.596.273Zm9.449-8.91v1.137h-4.523v-1.136h4.523Zm-3.205-2.09h1.341v8.318c0 .379.055.663.165.852a.847.847 0 0 0 .431.375c.179.061.366.091.563.091.148 0 .269-.007.364-.023l.227-.045.273 1.205a2.74 2.74 0 0 1-.381.102 2.792 2.792 0 0 1-.619.057 2.7 2.7 0 0 1-1.114-.245 2.217 2.217 0 0 1-.898-.744c-.235-.333-.352-.754-.352-1.261v-8.682ZM343.798 104v-8.727h1.34V104h-1.34Zm.681-10.182a.954.954 0 0 1-.676-.267.86.86 0 0 1-.278-.642.86.86 0 0 1 .278-.642.955.955 0 0 1 .676-.267c.262 0 .485.089.671.267a.851.851 0 0 1 .284.642c0 .25-.095.464-.284.642a.934.934 0 0 1-.671.267Zm4.456 4.932V104h-1.341v-8.727h1.296v1.363h.114c.204-.443.515-.799.931-1.068.417-.272.955-.409 1.614-.409.591 0 1.108.121 1.551.364a2.45 2.45 0 0 1 1.034 1.09c.246.486.37 1.1.37 1.841V104h-1.341v-5.454c0-.686-.178-1.22-.534-1.603-.357-.386-.845-.58-1.466-.58a2.34 2.34 0 0 0-1.148.279 1.994 1.994 0 0 0-.79.813c-.193.356-.29.787-.29 1.295Zm11.542 8.705c-.648 0-1.205-.084-1.671-.25a3.55 3.55 0 0 1-1.165-.648 3.563 3.563 0 0 1-.733-.852l1.069-.75c.121.159.274.34.46.545.185.208.439.388.761.54.326.155.752.233 1.279.233.704 0 1.286-.171 1.744-.512.458-.341.687-.875.687-1.602v-1.773h-.113a7.374 7.374 0 0 1-.421.591c-.178.231-.435.438-.772.62-.334.178-.785.267-1.353.267-.704 0-1.337-.167-1.897-.5-.557-.334-.999-.819-1.324-1.455-.322-.636-.483-1.409-.483-2.318 0-.894.157-1.672.471-2.335.315-.667.752-1.182 1.313-1.546.56-.367 1.208-.55 1.943-.55.568 0 1.019.094 1.352.283.337.186.595.398.773.636.182.235.322.429.42.58h.137v-1.386h1.295v8.977c0 .75-.17 1.36-.511 1.83a2.91 2.91 0 0 1-1.364 1.039 5.13 5.13 0 0 1-1.897.336Zm-.046-4.796c.538 0 .993-.123 1.364-.369.371-.246.653-.601.846-1.063.194-.462.29-1.015.29-1.659 0-.629-.095-1.183-.284-1.665-.189-.48-.47-.858-.841-1.13-.371-.273-.829-.41-1.375-.41-.568 0-1.042.145-1.42.433a2.627 2.627 0 0 0-.847 1.158 4.473 4.473 0 0 0-.278 1.614c0 .606.094 1.142.284 1.608.193.462.477.826.852 1.091.379.261.849.392 1.409.392Zm14.568-7.386v1.136h-4.522v-1.136h4.522Zm-3.204-2.091h1.341v8.318c0 .379.055.663.164.852a.853.853 0 0 0 .432.375c.178.061.366.091.563.091.147 0 .269-.007.363-.023l.228-.045.272 1.205a2.72 2.72 0 0 1-.38.102c-.163.038-.37.057-.62.057-.378 0-.75-.082-1.113-.245a2.217 2.217 0 0 1-.898-.744c-.235-.333-.352-.754-.352-1.261v-8.682Zm8.673 11c-.788 0-1.479-.188-2.074-.563-.591-.375-1.053-.899-1.386-1.574-.33-.674-.495-1.462-.495-2.363 0-.91.165-1.703.495-2.38.333-.679.795-1.205 1.386-1.58.595-.375 1.286-.563 2.074-.563.788 0 1.477.188 2.068.563.595.375 1.057.901 1.387 1.58.333.677.5 1.47.5 2.38 0 .901-.167 1.689-.5 2.363-.33.675-.792 1.199-1.387 1.574-.591.375-1.28.563-2.068.563Zm0-1.205c.599 0 1.091-.153 1.477-.46.387-.307.673-.71.858-1.21.186-.5.279-1.042.279-1.625 0-.584-.093-1.127-.279-1.63a2.74 2.74 0 0 0-.858-1.223c-.386-.31-.878-.465-1.477-.465-.598 0-1.091.155-1.477.465a2.74 2.74 0 0 0-.858 1.222 4.672 4.672 0 0 0-.279 1.63c0 .584.093 1.126.279 1.626.185.5.471.903.858 1.21.386.307.879.46 1.477.46Zm10.501 4.296v-12h1.296v1.386h.159c.098-.151.235-.345.409-.58.178-.238.432-.45.761-.636.334-.19.785-.284 1.353-.284.735 0 1.382.184 1.943.551.561.368.998.889 1.312 1.563.315.674.472 1.47.472 2.386 0 .924-.157 1.725-.472 2.403-.314.675-.75 1.197-1.306 1.569-.557.367-1.199.551-1.927.551-.56 0-1.009-.093-1.346-.279-.337-.189-.597-.403-.779-.642a8.61 8.61 0 0 1-.42-.602h-.114v4.614h-1.341Zm1.319-7.637c0 .659.096 1.241.289 1.745.194.5.476.892.847 1.176.371.28.826.42 1.364.42.56 0 1.028-.147 1.403-.443.379-.299.663-.701.852-1.204.194-.508.29-1.072.29-1.694a4.6 4.6 0 0 0-.284-1.659c-.186-.496-.468-.888-.847-1.176-.375-.291-.846-.437-1.414-.437-.546 0-1.004.138-1.375.414-.372.273-.652.656-.841 1.148-.19.489-.284 1.059-.284 1.71Zm8.431 4.364v-8.727h1.296v1.318h.091c.159-.432.447-.782.863-1.051a2.545 2.545 0 0 1 1.41-.404c.098 0 .221.002.369.006s.259.01.335.017v1.364a4.014 4.014 0 0 0-.312-.051 3.08 3.08 0 0 0-.506-.04c-.424 0-.803.089-1.136.267-.33.174-.591.416-.785.727a1.964 1.964 0 0 0-.284 1.051V104h-1.341Zm9.233.182c-.787 0-1.479-.188-2.073-.563-.591-.375-1.053-.899-1.387-1.574-.329-.674-.494-1.462-.494-2.363 0-.91.165-1.703.494-2.38.334-.679.796-1.205 1.387-1.58.594-.375 1.286-.563 2.073-.563.788 0 1.478.188 2.069.563.594.375 1.056.901 1.386 1.58.333.677.5 1.47.5 2.38 0 .901-.167 1.689-.5 2.363a3.772 3.772 0 0 1-1.386 1.574c-.591.375-1.281.563-2.069.563Zm0-1.205c.599 0 1.091-.153 1.478-.46a2.72 2.72 0 0 0 .858-1.21c.185-.5.278-1.042.278-1.625 0-.584-.093-1.127-.278-1.63a2.755 2.755 0 0 0-.858-1.223c-.387-.31-.879-.465-1.478-.465-.598 0-1.09.155-1.477.465a2.757 2.757 0 0 0-.858 1.222 4.695 4.695 0 0 0-.278 1.63c0 .584.093 1.126.278 1.626.186.5.472.903.858 1.21.387.307.879.46 1.477.46Zm12.826-7.704L419.55 104h-1.363l-3.227-8.727h1.454l2.409 6.954h.091l2.409-6.954h1.455Zm1.77 8.727v-8.727h1.34V104h-1.34Zm.681-10.182a.954.954 0 0 1-.676-.267.86.86 0 0 1-.278-.642.86.86 0 0 1 .278-.642.955.955 0 0 1 .676-.267c.262 0 .485.089.671.267a.851.851 0 0 1 .284.642c0 .25-.095.464-.284.642a.934.934 0 0 1-.671.267Zm6.411 10.364c-.727 0-1.369-.184-1.926-.551-.557-.372-.993-.894-1.307-1.569-.314-.678-.472-1.479-.472-2.403 0-.917.158-1.712.472-2.386.314-.674.752-1.195 1.312-1.563.561-.367 1.209-.55 1.944-.55.568 0 1.017.094 1.346.283.334.186.587.398.762.636.178.235.316.429.414.58h.114v-4.295h1.341V104h-1.296v-1.341h-.159c-.098.159-.238.36-.42.602-.182.239-.441.453-.778.642-.338.186-.786.279-1.347.279Zm.182-1.205c.538 0 .992-.14 1.363-.42.372-.284.654-.676.847-1.176.193-.504.29-1.086.29-1.745 0-.651-.095-1.221-.284-1.71-.19-.492-.47-.875-.841-1.148-.371-.276-.83-.414-1.375-.414-.568 0-1.042.145-1.421.437-.375.288-.657.68-.846 1.176a4.666 4.666 0 0 0-.279 1.66c0 .621.095 1.185.284 1.693.194.503.478.905.853 1.204.378.296.848.443 1.409.443Zm10.119 1.205c-.841 0-1.566-.186-2.176-.557a3.736 3.736 0 0 1-1.403-1.568c-.326-.674-.489-1.459-.489-2.353 0-.893.163-1.681.489-2.363.329-.686.787-1.22 1.375-1.602.59-.387 1.28-.58 2.068-.58.454 0 .903.076 1.346.227a3.35 3.35 0 0 1 1.211.739c.363.337.653.784.869 1.34.216.558.324 1.243.324 2.058v.568h-6.728v-1.16h5.364c0-.492-.098-.931-.295-1.317a2.232 2.232 0 0 0-.83-.915c-.356-.224-.776-.335-1.261-.335-.534 0-.997.132-1.387.397a2.623 2.623 0 0 0-.892 1.023c-.208.42-.312.871-.312 1.352v.773c0 .659.113 1.218.341 1.676.231.455.551.801.96 1.04.409.235.884.352 1.426.352.352 0 .671-.049.955-.147.287-.103.536-.254.744-.455.208-.205.369-.458.483-.761l1.295.363a2.86 2.86 0 0 1-.687 1.159c-.322.33-.72.587-1.193.773a4.425 4.425 0 0 1-1.597.273Zm11.017 3.091a2.93 2.93 0 0 1-.608-.057 1.601 1.601 0 0 1-.369-.102l.341-1.182c.325.083.613.113.863.091a1.04 1.04 0 0 0 .665-.335c.197-.197.377-.518.54-.961l.25-.682-3.227-8.772h1.454l2.409 6.954h.091l2.409-6.954h1.455l-3.705 10c-.166.45-.373.824-.619 1.119a2.321 2.321 0 0 1-.858.665 2.646 2.646 0 0 1-1.091.216Zm11.276-3.091c-.788 0-1.48-.188-2.074-.563-.591-.375-1.053-.899-1.387-1.574-.329-.674-.494-1.462-.494-2.363 0-.91.165-1.703.494-2.38.334-.679.796-1.205 1.387-1.58.594-.375 1.286-.563 2.074-.563.788 0 1.477.188 2.068.563.595.375 1.057.901 1.386 1.58.334.677.5 1.47.5 2.38 0 .901-.166 1.689-.5 2.363a3.758 3.758 0 0 1-1.386 1.574c-.591.375-1.28.563-2.068.563Zm0-1.205c.598 0 1.091-.153 1.477-.46a2.72 2.72 0 0 0 .858-1.21c.185-.5.278-1.042.278-1.625 0-.584-.093-1.127-.278-1.63a2.755 2.755 0 0 0-.858-1.223c-.386-.31-.879-.465-1.477-.465-.599 0-1.091.155-1.478.465a2.757 2.757 0 0 0-.858 1.222 4.695 4.695 0 0 0-.278 1.63c0 .584.093 1.126.278 1.626.186.5.472.903.858 1.21.387.307.879.46 1.478.46Zm11.501-2.545v-5.16h1.341V104h-1.341v-1.477h-.091a2.86 2.86 0 0 1-.954 1.13c-.432.307-.978.461-1.637.461a2.92 2.92 0 0 1-1.454-.358c-.425-.243-.758-.606-1-1.091-.243-.489-.364-1.104-.364-1.847v-5.545h1.341v5.454c0 .637.178 1.144.534 1.523.36.379.818.568 1.375.568.333 0 .672-.085 1.017-.256.349-.17.64-.431.875-.784.239-.352.358-.801.358-1.346Zm3.797 3.568v-8.727h1.295v1.318h.091c.159-.432.447-.782.864-1.051a2.541 2.541 0 0 1 1.409-.404c.099 0 .222.002.369.006.148.004.26.01.336.017v1.364a4.073 4.073 0 0 0-.313-.051 3.08 3.08 0 0 0-.506-.04c-.424 0-.803.089-1.136.267a2.016 2.016 0 0 0-.784.727 1.964 1.964 0 0 0-.284 1.051V104h-1.341Zm13.976 3.455c-.648 0-1.205-.084-1.671-.25a3.535 3.535 0 0 1-1.164-.648 3.518 3.518 0 0 1-.733-.852l1.068-.75c.121.159.274.34.46.545.186.208.439.388.761.54.326.155.752.233 1.279.233.704 0 1.286-.171 1.744-.512.458-.341.688-.875.688-1.602v-1.773h-.114a7.324 7.324 0 0 1-.42.591c-.178.231-.436.438-.773.62-.334.178-.784.267-1.352.267-.705 0-1.338-.167-1.898-.5-.557-.334-.998-.819-1.324-1.455-.322-.636-.483-1.409-.483-2.318 0-.894.157-1.672.472-2.335.314-.667.751-1.182 1.312-1.546.561-.367 1.208-.55 1.943-.55.568 0 1.019.094 1.353.283.337.186.594.398.772.636.182.235.322.429.421.58h.136v-1.386h1.296v8.977c0 .75-.171 1.36-.512 1.83-.337.473-.791.82-1.363 1.039a5.139 5.139 0 0 1-1.898.336Zm-.046-4.796c.538 0 .993-.123 1.364-.369.371-.246.653-.601.847-1.063.193-.462.289-1.015.289-1.659 0-.629-.094-1.183-.284-1.665-.189-.48-.469-.858-.841-1.13-.371-.273-.829-.41-1.375-.41-.568 0-1.041.145-1.42.433a2.634 2.634 0 0 0-.847 1.158 4.495 4.495 0 0 0-.278 1.614c0 .606.095 1.142.284 1.608.193.462.477.826.852 1.091.379.261.849.392 1.409.392Zm6.273 1.341v-8.727h1.296v1.318h.09a2.1 2.1 0 0 1 .864-1.051 2.541 2.541 0 0 1 1.409-.404c.099 0 .222.002.369.006.148.004.26.01.336.017v1.364a4.073 4.073 0 0 0-.313-.051 3.068 3.068 0 0 0-.505-.04c-.425 0-.803.089-1.137.267a2.016 2.016 0 0 0-.784.727 1.964 1.964 0 0 0-.284 1.051V104h-1.341Zm8.521.205a3.546 3.546 0 0 1-1.505-.313 2.58 2.58 0 0 1-1.074-.915c-.265-.401-.398-.886-.398-1.454 0-.5.099-.906.296-1.216.197-.315.46-.56.789-.739.33-.178.694-.31 1.091-.397.402-.092.805-.163 1.21-.217.531-.068.961-.119 1.29-.153.334-.038.576-.1.728-.187.155-.088.232-.239.232-.455v-.045c0-.561-.153-.997-.46-1.307-.303-.31-.763-.466-1.38-.466-.641 0-1.142.14-1.506.42-.364.28-.619.58-.767.898l-1.273-.455c.227-.53.53-.943.909-1.238a3.39 3.39 0 0 1 1.25-.625 5.196 5.196 0 0 1 1.341-.182c.28 0 .602.034.966.102.367.065.722.2 1.063.404.344.204.63.513.857.926.228.413.341.966.341 1.659V104h-1.341v-1.182h-.068c-.091.19-.242.392-.454.608-.212.216-.495.4-.847.551-.352.152-.782.228-1.29.228Zm.205-1.205c.53 0 .977-.104 1.341-.312a2.133 2.133 0 0 0 1.113-1.847v-1.227c-.056.068-.181.13-.375.187a6.29 6.29 0 0 1-.659.142 27.7 27.7 0 0 1-.721.102c-.231.027-.419.05-.563.069a5.114 5.114 0 0 0-.977.221 1.684 1.684 0 0 0-.727.449c-.182.197-.273.466-.273.807 0 .466.172.818.517 1.057.349.235.79.352 1.324.352Zm10.038-7.727v1.136h-4.522v-1.136h4.522Zm-3.204-2.091h1.341v8.318c0 .379.055.663.164.852a.853.853 0 0 0 .432.375c.178.061.366.091.563.091.147 0 .269-.007.363-.023l.228-.045.272 1.205a2.72 2.72 0 0 1-.38.102c-.163.038-.37.057-.62.057-.378 0-.75-.082-1.113-.245a2.217 2.217 0 0 1-.898-.744c-.235-.333-.352-.754-.352-1.261v-8.682ZM520.516 104v-8.727h1.341V104h-1.341Zm.682-10.182a.953.953 0 0 1-.676-.267.856.856 0 0 1-.278-.642c0-.25.092-.464.278-.642a.953.953 0 0 1 .676-.267c.262 0 .485.089.671.267a.851.851 0 0 1 .284.642c0 .25-.095.464-.284.642a.934.934 0 0 1-.671.267Zm6.911 1.455v1.136h-4.523v-1.136h4.523Zm-3.205-2.091h1.341v8.318c0 .379.055.663.165.852a.845.845 0 0 0 .432.375c.178.061.365.091.562.091.148 0 .269-.007.364-.023l.227-.045.273 1.205a2.74 2.74 0 0 1-.381.102 2.792 2.792 0 0 1-.619.057 2.7 2.7 0 0 1-1.114-.245 2.217 2.217 0 0 1-.898-.744c-.234-.333-.352-.754-.352-1.261v-8.682Zm10.722 7.25v-5.16h1.341V104h-1.341v-1.477h-.091c-.205.443-.523.82-.955 1.13-.432.307-.977.461-1.636.461-.546 0-1.03-.12-1.455-.358-.424-.243-.757-.606-1-1.091-.242-.489-.363-1.104-.363-1.847v-5.545h1.341v5.454c0 .637.178 1.144.534 1.523.36.379.818.568 1.375.568.333 0 .672-.085 1.017-.256.348-.17.64-.431.875-.784.238-.352.358-.801.358-1.346Zm7.092 3.75c-.727 0-1.369-.184-1.926-.551-.557-.372-.993-.894-1.307-1.569-.314-.678-.472-1.479-.472-2.403 0-.917.158-1.712.472-2.386.314-.674.752-1.195 1.313-1.563.56-.367 1.208-.55 1.943-.55.568 0 1.017.094 1.346.283.334.186.587.398.762.636.178.235.316.429.414.58h.114v-4.295h1.341V104h-1.295v-1.341h-.16c-.098.159-.238.36-.42.602-.182.239-.441.453-.778.642-.337.186-.786.279-1.347.279Zm.182-1.205c.538 0 .992-.14 1.363-.42.372-.284.654-.676.847-1.176.193-.504.29-1.086.29-1.745 0-.651-.095-1.221-.284-1.71-.19-.492-.47-.875-.841-1.148-.371-.276-.83-.414-1.375-.414-.568 0-1.042.145-1.421.437-.375.288-.657.68-.846 1.176a4.666 4.666 0 0 0-.279 1.66c0 .621.095 1.185.284 1.693.194.503.478.905.853 1.204.379.296.848.443 1.409.443Zm10.119 1.205c-.841 0-1.566-.186-2.176-.557a3.736 3.736 0 0 1-1.403-1.568c-.326-.674-.489-1.459-.489-2.353 0-.893.163-1.681.489-2.363.329-.686.788-1.22 1.375-1.602.591-.387 1.28-.58 2.068-.58.454 0 .903.076 1.346.227.444.152.847.398 1.211.739.363.337.653.784.869 1.34.216.558.324 1.243.324 2.058v.568h-6.727v-1.16h5.363c0-.492-.098-.931-.295-1.317a2.225 2.225 0 0 0-.83-.915c-.356-.224-.776-.335-1.261-.335-.534 0-.996.132-1.387.397a2.623 2.623 0 0 0-.892 1.023c-.208.42-.312.871-.312 1.352v.773c0 .659.114 1.218.341 1.676.231.455.551.801.96 1.04.409.235.885.352 1.426.352.352 0 .671-.049.955-.147.288-.103.536-.254.744-.455.208-.205.369-.458.483-.761l1.295.363a2.86 2.86 0 0 1-.687 1.159c-.322.33-.72.587-1.193.773a4.425 4.425 0 0 1-1.597.273Zm6.631-.091c-.28 0-.521-.1-.722-.301a.989.989 0 0 1-.301-.722c0-.28.101-.521.301-.721a.986.986 0 0 1 .722-.302c.28 0 .521.101.721.302.201.2.302.441.302.721a.973.973 0 0 1-.142.512c-.091.155-.214.28-.37.375a.981.981 0 0 1-.511.136Z"/>
  <rect width="572" height="94" x="1.727" y="28.5" stroke="#F4CE71" stroke-dasharray="6 6" stroke-width="3" rx="18.5"/>
  <g clip-path="url(#a)">
    <path fill="#616466" d="M556.096 41.258a2.57 2.57 0 0 0 1.229 3.409 2.57 2.57 0 0 0 3.409-1.229l-4.638-2.18Z"/>
    <path fill="#FFCE31" d="m557.023 34.615 8.175 3.842c1.636-2.275 4.346-3.974 7.168-5.762 3.303-2.058 6.719-4.204 8.108-7.16 2.644-5.624-.421-12.657-6.799-15.655-6.377-2.998-13.748-.87-16.391 4.754-1.39 2.956-.863 6.956-.398 10.785.424 3.314.845 6.485.137 9.196Z"/>
    <path fill="#C79127" d="M561.818 26.675c-.106.375-.153.778-.259 1.153-.126.72-.282 1.354-.408 2.073-.514 2.448-.922 4.522-1.198 6.162l.348.163c.392-1.585.885-3.69 1.399-6.138.156-.634.282-1.353.466-2.046.078-.317.184-.692.204-1.036.519.102 1.784.272 3.458-.428.529 1.735 1.467 2.601 1.876 2.935-.221.32-.416.583-.668.818-.416.584-.889 1.14-1.278 1.665a180.936 180.936 0 0 0-3.833 4.994l.347.163c1.03-1.286 2.423-2.896 3.981-4.854.388-.525.862-1.081 1.336-1.637.221-.32.501-.614.722-.934.491.16.952.234 1.378.08.511-.184.876-.508.978-1.026.051-.26.071-.604-.249-.825a.71.71 0 0 0-.464-.218.986.986 0 0 0-.457.068c-.454.212-.733.505-1.012.799l-.42.44s-.491-.16-1.238-1.432c-.389-.678-.427-1.05-.519-1.306.283-.15.539-.242.849-.45.14-.147.252-.235.419-.44.082-.174.191-.406.157-.634-.034-.229-.069-.457-.304-.71-.089-.112-.205-.166-.321-.22-.116-.055-.232-.11-.375-.107-.286.008-.542.1-.74.22-.197.119-.306.35-.388.524a1.025 1.025 0 0 0-.071.604c-.021.344.044.658.194.94-.255.093-.565.301-1.336.434-1.371.206-1.892-.04-1.892-.04l.071-.603c.047-.402.095-.805-.031-1.289-.031-.085-.093-.256-.239-.395-.147-.14-.321-.222-.464-.218-.402-.048-.655.187-.794.334-.276.437-.293.924-.167 1.408.212.454.563.76.942 1.01Zm7.134 2.292c.252-.236.532-.529.845-.594.085-.03.143-.003.143-.003l.116.054c.058.027.089.113.065.314-.051.259-.33.552-.644.617a2.369 2.369 0 0 1-.774-.01c.082-.173.136-.29.249-.378Zm-2.519-4.582c.171-.061.341-.123.457-.068.116.054.205.167.239.395.034.229-.133.433-.358.61a1.39 1.39 0 0 1-.507.328c-.035-.228-.096-.398-.072-.6-.035-.228.017-.487.241-.665Zm-4.896.176c.055-.116.14-.146.283-.15l.116.055s.031.085.089.112c.092.256.102.686.082 1.03.004.143-.051.259-.047.402-.205-.167-.41-.334-.502-.59-.177-.224-.157-.569-.021-.859Z"/>
    <path fill="#94989B" d="m556.479 35.773 8.29 3.897-.49 1.044-8.291-3.897.491-1.044Zm-.402 2.36 7.131 3.352-.49 1.044-7.131-3.352.49-1.044Z"/>
    <path fill="#616466" d="m556.568 37.09 7.132 3.352-.491 1.043-7.131-3.352.49-1.043Z"/>
    <path fill="#94989B" d="m564.77 39.671-8.692-1.537-.518 1.102 8.719 1.479.491-1.044Zm-9.121.88 5.972 2.808-.491 1.043-5.972-2.807.491-1.043Z"/>
    <path fill="#616466" d="m556.139 39.508 5.971 2.807-.49 1.043-5.972-2.807.491-1.043Z"/>
    <path fill="#94989B" d="m563.208 41.486-7.56-.935-.518 1.102 7.56.934.518-1.101Z"/>
  </g>
  <defs>
    <clipPath id="a">
      <path fill="#fff" d="M0 0h41v41H0z" transform="rotate(25.176 277.834 1244.187)"/>
    </clipPath>
  </defs>
</svg>
