<svg xmlns="http://www.w3.org/2000/svg" width="959" height="35" fill="none" viewBox="0 0 959 35">
  <rect width="77" height="35" fill="#F8EFDA" rx="17.5"/>
  <path fill="#000" d="M22.214 14.563c-.053-.497-.277-.883-.67-1.16-.39-.276-.898-.414-1.523-.414-.44 0-.817.066-1.131.198-.314.133-.555.313-.722.54a1.313 1.313 0 0 0-.255.779c0 .242.055.452.164.63.114.178.267.33.46.455.194.121.408.223.643.307.235.083.471.153.71.21l1.09.273c.44.102.863.24 1.268.415a4.43 4.43 0 0 1 1.096.659c.326.265.584.585.773.96.19.375.284.814.284 1.318 0 .682-.174 1.282-.522 1.801-.349.515-.853.919-1.512 1.21-.655.288-1.449.432-2.38.432-.906 0-1.692-.14-2.358-.42-.663-.28-1.182-.69-1.557-1.228-.371-.537-.572-1.193-.602-1.965h2.073c.03.405.156.742.375 1.01.22.27.506.47.858.603a3.39 3.39 0 0 0 1.194.199c.458 0 .86-.068 1.204-.204a1.95 1.95 0 0 0 .818-.58 1.4 1.4 0 0 0 .301-.875c-.003-.303-.092-.553-.267-.75-.174-.2-.418-.367-.733-.5a7.051 7.051 0 0 0-1.09-.364l-1.324-.34c-.959-.247-1.716-.62-2.273-1.12-.553-.504-.83-1.172-.83-2.006 0-.685.186-1.286.557-1.8.375-.516.885-.915 1.529-1.2.643-.287 1.373-.431 2.187-.431.826 0 1.55.143 2.17.431.625.285 1.116.68 1.472 1.188a3.03 3.03 0 0 1 .551 1.739h-2.028Zm8.334-.29v1.59H25.53v-1.59h5.017Zm-3.779-2.091h2.057v8.193c0 .276.042.489.125.636.087.144.2.243.34.296.141.053.296.08.467.08.129 0 .246-.01.352-.029.11-.019.193-.036.25-.051l.347 1.608c-.11.038-.267.08-.472.125-.2.045-.447.072-.739.08a3.354 3.354 0 0 1-1.392-.234 2.166 2.166 0 0 1-.983-.806c-.238-.364-.356-.819-.352-1.364v-8.534Zm9.269 10.989c-.875 0-1.631-.182-2.267-.546a3.694 3.694 0 0 1-1.46-1.557c-.341-.674-.512-1.468-.512-2.38 0-.898.17-1.686.511-2.364a3.866 3.866 0 0 1 1.444-1.591c.617-.383 1.342-.574 2.176-.574.538 0 1.045.087 1.522.261.482.17.906.436 1.273.796.371.36.663.818.875 1.375.212.553.318 1.212.318 1.977v.63h-7.153v-1.386h5.182a2.213 2.213 0 0 0-.256-1.05 1.86 1.86 0 0 0-.699-.734 1.965 1.965 0 0 0-1.034-.267c-.42 0-.79.103-1.108.307-.318.2-.566.466-.744.796a2.29 2.29 0 0 0-.267 1.073v1.21c0 .508.093.944.278 1.308.186.36.445.636.779.83.333.189.723.283 1.17.283.3 0 .57-.042.813-.125a1.81 1.81 0 0 0 .63-.38c.178-.167.313-.374.404-.62l1.92.216c-.121.508-.352.95-.693 1.33a3.379 3.379 0 0 1-1.296.875c-.526.204-1.128.306-1.806.306Zm5.62 3.102v-12h2.023v1.443h.12c.105-.212.255-.438.448-.676a2.38 2.38 0 0 1 .784-.62c.33-.174.75-.26 1.262-.26.674 0 1.282.171 1.824.516.545.341.977.847 1.295 1.517.322.667.483 1.485.483 2.455 0 .958-.157 1.773-.472 2.443-.314.67-.742 1.182-1.284 1.534a3.302 3.302 0 0 1-1.84.528c-.5 0-.915-.083-1.245-.25a2.53 2.53 0 0 1-.795-.602 3.9 3.9 0 0 1-.46-.676h-.086v4.648h-2.057Zm2.017-7.637c0 .565.08 1.06.24 1.483.162.425.395.756.698.995.307.235.678.352 1.114.352.454 0 .835-.121 1.142-.364.306-.246.538-.581.693-1.005.159-.428.238-.915.238-1.46 0-.542-.077-1.023-.232-1.444-.156-.42-.387-.75-.694-.989-.306-.238-.69-.357-1.147-.357-.44 0-.813.115-1.12.346-.307.231-.54.555-.699.972-.155.416-.233.907-.233 1.471Zm16.662-7.272V23H58.23v-9.585h-.068l-2.721 1.738v-1.931l2.892-1.858h2.005ZM92.278 23.5V11.864h4.148c.902 0 1.65.155 2.245.465.598.311 1.045.741 1.34 1.29.296.546.444 1.177.444 1.892 0 .713-.15 1.34-.449 1.881-.296.538-.743.957-1.341 1.256-.595.299-1.343.449-2.245.449h-3.142v-1.512h2.983c.569 0 1.03-.081 1.387-.244.36-.163.623-.4.79-.71.166-.31.25-.684.25-1.12 0-.439-.086-.82-.256-1.142a1.65 1.65 0 0 0-.79-.738c-.356-.175-.824-.262-1.403-.262h-2.205V23.5h-1.756Zm5.745-5.25 2.875 5.25h-2l-2.819-5.25h1.944Zm8.084 5.426c-.86 0-1.601-.184-2.222-.551a3.74 3.74 0 0 1-1.432-1.563c-.333-.674-.5-1.463-.5-2.369 0-.894.167-1.682.5-2.364a3.883 3.883 0 0 1 1.409-1.596c.606-.383 1.315-.574 2.125-.574.493 0 .97.082 1.432.244.462.163.877.419 1.244.768.368.348.658.8.87 1.357.212.553.318 1.226.318 2.018v.602h-6.938v-1.273h5.273c0-.447-.091-.843-.273-1.188a2.053 2.053 0 0 0-.767-.823c-.325-.201-.708-.302-1.147-.302-.478 0-.894.118-1.25.353a2.367 2.367 0 0 0-.819.909 2.629 2.629 0 0 0-.284 1.21v.994c0 .584.103 1.08.307 1.489.208.41.498.722.869.938.372.212.805.318 1.302.318.322 0 .615-.046.88-.137.265-.094.495-.235.688-.42.193-.186.341-.415.443-.688l1.608.29c-.129.474-.36.888-.693 1.244-.33.353-.745.627-1.245.824-.496.194-1.062.29-1.698.29Zm12.169-6.773-1.54.273a1.842 1.842 0 0 0-.307-.562 1.515 1.515 0 0 0-.557-.438c-.235-.113-.528-.17-.881-.17-.481 0-.882.108-1.204.323-.322.213-.483.487-.483.824 0 .292.108.527.324.705.216.178.564.324 1.045.438l1.387.318c.803.185 1.401.471 1.795.858.394.386.591.888.591 1.505 0 .523-.151.989-.455 1.398-.299.405-.717.724-1.255.954-.534.232-1.154.347-1.858.347-.977 0-1.775-.208-2.392-.625-.618-.42-.996-1.017-1.137-1.79l1.642-.25c.103.428.313.752.631.972.318.216.733.324 1.244.324.557 0 1.002-.116 1.336-.347.333-.235.5-.52.5-.858a.893.893 0 0 0-.307-.687c-.201-.186-.51-.326-.926-.42l-1.478-.325c-.814-.185-1.416-.48-1.806-.886-.387-.405-.58-.918-.58-1.54a2.2 2.2 0 0 1 .432-1.352c.288-.386.686-.688 1.193-.903.508-.22 1.089-.33 1.744-.33.944 0 1.686.205 2.228.614.541.405.899.949 1.074 1.63Zm5.799 6.773c-.86 0-1.6-.184-2.221-.551a3.734 3.734 0 0 1-1.432-1.563c-.333-.674-.5-1.463-.5-2.369 0-.894.167-1.682.5-2.364a3.883 3.883 0 0 1 1.409-1.596c.606-.383 1.314-.574 2.125-.574a4.3 4.3 0 0 1 1.432.244c.462.163.877.419 1.244.768.368.348.657.8.869 1.357.213.553.319 1.226.319 2.018v.602h-6.938v-1.273h5.273c0-.447-.091-.843-.273-1.188a2.06 2.06 0 0 0-.767-.823c-.326-.201-.708-.302-1.148-.302-.477 0-.894.118-1.25.353a2.364 2.364 0 0 0-.818.909 2.629 2.629 0 0 0-.284 1.21v.994c0 .584.102 1.08.307 1.489.208.41.498.722.869.938.371.212.805.318 1.301.318a2.7 2.7 0 0 0 .881-.137 1.91 1.91 0 0 0 .688-.42 1.84 1.84 0 0 0 .443-.688l1.608.29c-.129.474-.36.888-.694 1.244a3.354 3.354 0 0 1-1.244.824c-.496.194-1.062.29-1.699.29Zm8.169.017a3.564 3.564 0 0 1-1.5-.307 2.524 2.524 0 0 1-1.062-.903c-.258-.394-.387-.877-.387-1.449 0-.492.095-.898.285-1.216.189-.318.445-.57.767-.756a4 4 0 0 1 1.079-.42 10.62 10.62 0 0 1 1.216-.216l1.273-.148c.326-.041.562-.107.71-.198.148-.091.222-.24.222-.444v-.04c0-.496-.141-.88-.421-1.153-.276-.273-.689-.409-1.238-.409-.572 0-1.023.127-1.353.38-.326.25-.551.53-.676.836l-1.597-.364c.19-.53.466-.958.83-1.284.367-.33.79-.568 1.267-.716a4.942 4.942 0 0 1 1.506-.227c.348 0 .718.042 1.108.125.394.08.761.227 1.102.443.345.216.627.525.847.926.219.398.329.915.329 1.552V23.5h-1.659v-1.193h-.068c-.11.22-.275.435-.494.648-.22.212-.502.388-.847.528s-.758.21-1.239.21Zm.37-1.364c.469 0 .871-.092 1.204-.278.337-.185.593-.428.767-.727.178-.303.267-.627.267-.972v-1.125c-.06.06-.178.118-.352.17a5.11 5.11 0 0 1-.585.131c-.22.035-.434.067-.642.097-.209.026-.383.05-.523.068a4.24 4.24 0 0 0-.903.21c-.269.099-.485.24-.648.427-.159.181-.239.424-.239.727 0 .42.156.739.466.954.311.213.707.319 1.188.319Zm6.2 1.171v-8.727h1.642v1.386h.091c.159-.47.439-.839.841-1.108a2.402 2.402 0 0 1 1.375-.409 7.242 7.242 0 0 1 .721.04v1.625a3.033 3.033 0 0 0-.363-.063 3.485 3.485 0 0 0-.523-.04c-.402 0-.759.086-1.074.256a1.896 1.896 0 0 0-1.011 1.71v5.33h-1.699Zm9.504.176c-.845 0-1.572-.191-2.182-.574a3.793 3.793 0 0 1-1.397-1.596c-.326-.678-.489-1.455-.489-2.33 0-.886.167-1.668.5-2.346a3.827 3.827 0 0 1 1.409-1.597c.606-.383 1.32-.574 2.142-.574.663 0 1.254.123 1.773.37.519.242.937.583 1.256 1.022.322.44.513.953.573 1.54h-1.653a1.98 1.98 0 0 0-.625-1.057c-.322-.295-.754-.443-1.295-.443-.474 0-.889.125-1.245.375-.352.246-.627.598-.824 1.057-.197.454-.295.992-.295 1.613 0 .637.097 1.186.29 1.648.193.462.466.82.818 1.074.356.254.774.38 1.256.38.322 0 .613-.058.875-.175.265-.122.486-.294.664-.517a1.95 1.95 0 0 0 .381-.807h1.653a3.204 3.204 0 0 1-.551 1.511 3.174 3.174 0 0 1-1.233 1.046c-.511.253-1.111.38-1.801.38Zm7.101-5.358V23.5h-1.699V11.864h1.676v4.33h.108c.205-.47.517-.844.938-1.12.42-.277.969-.415 1.647-.415.599 0 1.122.123 1.569.37a2.5 2.5 0 0 1 1.045 1.102c.25.485.375 1.09.375 1.818V23.5h-1.699v-5.347c0-.64-.165-1.136-.494-1.488-.33-.356-.788-.534-1.375-.534-.402 0-.761.085-1.08.255a1.84 1.84 0 0 0-.744.75c-.178.326-.267.72-.267 1.182Zm15.547 5.347c-.78 0-1.453-.142-2.017-.426-.561-.285-.993-.67-1.296-1.16a3.122 3.122 0 0 1-.454-1.67c0-.473.098-.894.295-1.261.197-.372.472-.714.824-1.029.352-.314.76-.63 1.222-.948l1.875-1.324c.318-.209.566-.428.744-.66.178-.234.267-.524.267-.869 0-.272-.117-.534-.352-.784s-.549-.375-.943-.375c-.273 0-.514.066-.722.199a1.46 1.46 0 0 0-.483.511 1.32 1.32 0 0 0-.17.648c0 .265.072.532.216.801.147.27.337.548.568.835.231.285.473.58.727.887l5.403 6.46h-1.92l-4.472-5.256c-.375-.443-.723-.86-1.045-1.25a6.463 6.463 0 0 1-.784-1.193 2.963 2.963 0 0 1-.296-1.312c0-.535.122-1.008.364-1.42a2.583 2.583 0 0 1 1.028-.978c.44-.235.955-.352 1.546-.352.598 0 1.112.117 1.54.352.432.231.763.54.994.926.235.383.352.801.352 1.256 0 .553-.138 1.041-.415 1.466-.272.42-.649.806-1.13 1.159l-2.335 1.721c-.455.334-.771.663-.949.989-.175.322-.262.574-.262.756 0 .333.086.642.256.926.174.284.417.511.727.682.315.17.682.255 1.103.255.431 0 .852-.093 1.261-.278.413-.19.786-.46 1.119-.813.337-.352.604-.774.801-1.267a4.416 4.416 0 0 0 .296-1.653h1.534c0 .75-.085 1.384-.256 1.903-.17.515-.377.936-.619 1.262a4.652 4.652 0 0 1-.676.755 4.926 4.926 0 0 0-.193.182 4.97 4.97 0 0 1-.194.182 3.601 3.601 0 0 1-1.431.88 5.096 5.096 0 0 1-1.648.285Zm12.969-11.801V23.5h-1.699V11.864h1.699Zm6.047 11.812c-.86 0-1.601-.184-2.222-.551a3.74 3.74 0 0 1-1.432-1.563c-.333-.674-.5-1.463-.5-2.369 0-.894.167-1.682.5-2.364a3.883 3.883 0 0 1 1.409-1.596c.606-.383 1.315-.574 2.125-.574.493 0 .97.082 1.432.244.462.163.877.419 1.244.768.368.348.658.8.87 1.357.212.553.318 1.226.318 2.018v.602h-6.938v-1.273h5.273c0-.447-.091-.843-.273-1.188a2.053 2.053 0 0 0-.767-.823c-.325-.201-.708-.302-1.147-.302-.478 0-.894.118-1.25.353a2.367 2.367 0 0 0-.819.909 2.629 2.629 0 0 0-.284 1.21v.994c0 .584.103 1.08.307 1.489.208.41.498.722.869.938.372.212.805.318 1.302.318.322 0 .615-.046.88-.137.265-.094.495-.235.688-.42.193-.186.341-.415.443-.688l1.608.29c-.129.474-.36.888-.693 1.244-.33.353-.745.627-1.245.824-.496.194-1.062.29-1.698.29Zm8.169.017a3.564 3.564 0 0 1-1.5-.307 2.527 2.527 0 0 1-1.063-.903c-.258-.394-.386-.877-.386-1.449 0-.492.094-.898.284-1.216.189-.318.445-.57.767-.756a4.013 4.013 0 0 1 1.079-.42 10.62 10.62 0 0 1 1.216-.216l1.273-.148c.326-.041.563-.107.71-.198.148-.091.222-.24.222-.444v-.04c0-.496-.14-.88-.421-1.153-.276-.273-.689-.409-1.238-.409-.572 0-1.023.127-1.353.38-.325.25-.551.53-.676.836l-1.596-.364c.189-.53.466-.958.829-1.284a3.37 3.37 0 0 1 1.267-.716 4.97 4.97 0 0 1 1.506-.227c.349 0 .718.042 1.108.125.394.08.761.227 1.102.443.345.216.627.525.847.926.22.398.329.915.329 1.552V23.5h-1.659v-1.193h-.068c-.11.22-.275.435-.494.648-.22.212-.502.388-.847.528-.344.14-.757.21-1.238.21Zm.369-1.364c.47 0 .871-.092 1.204-.278.338-.185.593-.428.767-.727.179-.303.268-.627.268-.972v-1.125c-.061.06-.179.118-.353.17-.17.05-.365.094-.585.131-.22.035-.434.067-.642.097-.208.026-.383.05-.523.068a4.27 4.27 0 0 0-.903.21c-.269.099-.485.24-.648.427-.159.181-.239.424-.239.727 0 .42.156.739.466.954.311.213.707.319 1.188.319Zm6.2 1.171v-8.727h1.642v1.386h.091c.159-.47.44-.839.841-1.108a2.404 2.404 0 0 1 1.375-.409 7.242 7.242 0 0 1 .722.04v1.625a3.1 3.1 0 0 0-.364-.063 3.466 3.466 0 0 0-.523-.04 2.22 2.22 0 0 0-1.074.256 1.903 1.903 0 0 0-1.011 1.71v5.33h-1.699Zm7.84-5.182V23.5h-1.699v-8.727h1.63v1.42h.108c.201-.462.516-.833.944-1.114.431-.28.975-.42 1.63-.42.595 0 1.116.125 1.563.375.447.246.793.614 1.04 1.102.246.489.369 1.093.369 1.813V23.5h-1.699v-5.347c0-.632-.165-1.127-.494-1.482-.33-.36-.782-.54-1.358-.54a2.13 2.13 0 0 0-1.051.255c-.303.17-.544.42-.722.75-.174.326-.261.72-.261 1.182Zm14.637 5.375a3.564 3.564 0 0 1-1.5-.307 2.524 2.524 0 0 1-1.062-.903c-.258-.394-.386-.877-.386-1.449 0-.492.094-.898.284-1.216.189-.318.445-.57.767-.756a4.013 4.013 0 0 1 1.079-.42 10.62 10.62 0 0 1 1.216-.216l1.273-.148c.326-.041.562-.107.71-.198.148-.091.222-.24.222-.444v-.04c0-.496-.14-.88-.421-1.153-.276-.273-.689-.409-1.238-.409-.572 0-1.023.127-1.353.38-.325.25-.551.53-.676.836l-1.596-.364c.189-.53.466-.958.829-1.284a3.37 3.37 0 0 1 1.267-.716 4.942 4.942 0 0 1 1.506-.227c.348 0 .718.042 1.108.125.394.08.761.227 1.102.443.345.216.627.525.847.926.219.398.329.915.329 1.552V23.5h-1.659v-1.193h-.068c-.11.22-.275.435-.494.648-.22.212-.502.388-.847.528s-.757.21-1.239.21Zm.37-1.364c.469 0 .871-.092 1.204-.278.337-.185.593-.428.767-.727.178-.303.267-.627.267-.972v-1.125c-.06.06-.178.118-.352.17-.17.05-.365.094-.585.131-.22.035-.434.067-.642.097-.208.026-.383.05-.523.068a4.2 4.2 0 0 0-.903.21c-.269.099-.485.24-.648.427-.159.181-.239.424-.239.727 0 .42.156.739.466.954.311.213.707.319 1.188.319Zm6.336 1.171V11.864h1.699v4.323h.103a4.67 4.67 0 0 1 .426-.63c.185-.239.443-.447.772-.625.33-.182.766-.273 1.307-.273.705 0 1.334.178 1.887.534.553.356.986.87 1.301 1.54.318.67.477 1.477.477 2.42 0 .944-.157 1.752-.472 2.427-.314.67-.746 1.187-1.295 1.55-.549.36-1.176.54-1.881.54-.53 0-.964-.089-1.301-.267a2.462 2.462 0 0 1-.784-.625 4.725 4.725 0 0 1-.437-.636h-.143V23.5h-1.659Zm1.665-4.364c0 .614.089 1.152.267 1.614.178.462.436.824.773 1.085.337.258.75.387 1.239.387.507 0 .931-.135 1.272-.404.341-.273.599-.642.773-1.108.178-.466.267-.99.267-1.574a4.34 4.34 0 0 0-.261-1.55c-.171-.46-.428-.82-.773-1.086-.341-.265-.767-.398-1.278-.398-.493 0-.909.127-1.25.381-.338.254-.593.608-.767 1.063-.175.454-.262.984-.262 1.59Zm11.891 4.54c-.818 0-1.532-.187-2.142-.562a3.792 3.792 0 0 1-1.421-1.574c-.337-.674-.505-1.462-.505-2.364 0-.905.168-1.697.505-2.375a3.785 3.785 0 0 1 1.421-1.58c.61-.374 1.324-.562 2.142-.562.818 0 1.532.188 2.142.563.61.375 1.083.901 1.42 1.58.337.677.506 1.469.506 2.374 0 .902-.169 1.69-.506 2.364a3.79 3.79 0 0 1-1.42 1.574c-.61.375-1.324.562-2.142.562Zm.005-1.426c.531 0 .97-.14 1.319-.42.348-.28.606-.654.772-1.12.171-.466.256-.979.256-1.54 0-.556-.085-1.068-.256-1.534a2.497 2.497 0 0 0-.772-1.13c-.349-.284-.788-.427-1.319-.427-.534 0-.977.143-1.329.427a2.53 2.53 0 0 0-.778 1.13c-.167.466-.25.978-.25 1.535 0 .56.083 1.073.25 1.54.17.465.429.838.778 1.119.352.28.795.42 1.329.42Zm11.488-2.37v-5.107h1.704V23.5h-1.67v-1.511h-.091a2.727 2.727 0 0 1-.966 1.164c-.439.307-.987.46-1.642.46-.561 0-1.057-.122-1.489-.369-.428-.25-.765-.619-1.011-1.108-.242-.488-.364-1.092-.364-1.812v-5.551h1.699v5.346c0 .595.165 1.069.494 1.42.33.353.758.53 1.285.53.318 0 .634-.08.948-.24.319-.159.582-.4.79-.721.212-.322.316-.731.313-1.227Zm8.061-5.107v1.363h-4.767v-1.363h4.767Zm-3.489-2.091h1.699v8.255c0 .33.049.578.148.745a.768.768 0 0 0 .38.335c.16.057.332.085.517.085.137 0 .256-.01.358-.028.103-.02.182-.034.239-.046l.307 1.404a2.878 2.878 0 0 1-.421.114 3.324 3.324 0 0 1-.681.068 2.989 2.989 0 0 1-1.25-.239 2.144 2.144 0 0 1-.938-.773c-.239-.348-.358-.786-.358-1.312v-8.608Zm10.676 14.09c-.254 0-.485-.02-.693-.062a2.182 2.182 0 0 1-.466-.125l.409-1.392c.311.083.587.12.83.108a.994.994 0 0 0 .642-.273c.189-.17.356-.448.5-.835l.21-.58-3.193-8.84h1.818l2.21 6.773h.091l2.21-6.773h1.824l-3.596 9.892a3.946 3.946 0 0 1-.637 1.153 2.465 2.465 0 0 1-.92.716c-.356.16-.769.239-1.239.239Zm11.368-3.096c-.818 0-1.532-.187-2.142-.562a3.79 3.79 0 0 1-1.42-1.574c-.337-.674-.506-1.462-.506-2.364 0-.905.169-1.697.506-2.375a3.783 3.783 0 0 1 1.42-1.58c.61-.374 1.324-.562 2.142-.562.818 0 1.532.188 2.142.563a3.78 3.78 0 0 1 1.421 1.58c.337.677.505 1.469.505 2.374 0 .902-.168 1.69-.505 2.364a3.792 3.792 0 0 1-1.421 1.574c-.61.375-1.324.562-2.142.562Zm.006-1.426c.53 0 .97-.14 1.318-.42.349-.28.606-.654.773-1.12.17-.466.255-.979.255-1.54 0-.556-.085-1.068-.255-1.534a2.498 2.498 0 0 0-.773-1.13c-.348-.284-.788-.427-1.318-.427-.534 0-.977.143-1.33.427a2.539 2.539 0 0 0-.778 1.13c-.167.466-.25.978-.25 1.535 0 .56.083 1.073.25 1.54.17.465.43.838.778 1.119.353.28.796.42 1.33.42Zm11.487-2.37v-5.107h1.705V23.5h-1.671v-1.511h-.091c-.2.465-.522.854-.966 1.164-.439.307-.986.46-1.642.46-.56 0-1.057-.122-1.488-.369-.428-.25-.765-.619-1.012-1.108-.242-.488-.363-1.092-.363-1.812v-5.551h1.699v5.346c0 .595.164 1.069.494 1.42.329.353.757.53 1.284.53.318 0 .634-.08.949-.24.318-.159.581-.4.79-.721.212-.322.316-.731.312-1.227Zm3.987 3.62v-8.727h1.642v1.386h.091c.159-.47.44-.839.841-1.108a2.404 2.404 0 0 1 1.375-.409 7.242 7.242 0 0 1 .722.04v1.625a3.06 3.06 0 0 0-.364-.063 3.466 3.466 0 0 0-.523-.04c-.401 0-.759.086-1.073.256a1.899 1.899 0 0 0-1.012 1.71v5.33h-1.699Zm10.375 0v-8.727h1.699V23.5h-1.699Zm.858-10.074a1.08 1.08 0 0 1-.761-.295.962.962 0 0 1-.313-.716.95.95 0 0 1 .313-.716c.212-.2.466-.301.761-.301.296 0 .548.1.756.3a.941.941 0 0 1 .318.717.953.953 0 0 1-.318.716 1.06 1.06 0 0 1-.756.295Zm4.826 4.892V23.5h-1.699v-8.727h1.63v1.42h.108c.201-.462.515-.833.943-1.114.432-.28.976-.42 1.631-.42.595 0 1.116.125 1.563.375.447.246.793.614 1.039 1.102.247.489.37 1.093.37 1.813V23.5h-1.699v-5.347c0-.632-.165-1.127-.494-1.482-.33-.36-.783-.54-1.358-.54-.394 0-.745.085-1.052.255-.303.17-.543.42-.721.75-.174.326-.261.72-.261 1.182Zm11.937-3.545v1.363h-4.767v-1.363h4.767Zm-3.489-2.091h1.699v8.255c0 .33.05.578.148.745a.766.766 0 0 0 .381.335c.159.057.331.085.517.085a2 2 0 0 0 .358-.028l.238-.046.307 1.404a2.859 2.859 0 0 1-.42.114 3.335 3.335 0 0 1-.682.068 2.989 2.989 0 0 1-1.25-.239 2.144 2.144 0 0 1-.938-.773c-.238-.348-.358-.786-.358-1.312v-8.608Zm9.036 10.994c-.86 0-1.6-.184-2.222-.551a3.738 3.738 0 0 1-1.431-1.563c-.334-.674-.5-1.463-.5-2.369 0-.894.166-1.682.5-2.364a3.876 3.876 0 0 1 1.409-1.596c.606-.383 1.314-.574 2.125-.574.492 0 .969.082 1.431.244.463.163.877.419 1.245.768.367.348.657.8.869 1.357.212.553.318 1.226.318 2.018v.602h-6.937v-1.273h5.272c0-.447-.09-.843-.272-1.188a2.067 2.067 0 0 0-.767-.823c-.326-.201-.709-.302-1.148-.302-.477 0-.894.118-1.25.353a2.364 2.364 0 0 0-.818.909c-.19.371-.284.774-.284 1.21v.994c0 .584.102 1.08.307 1.489.208.41.498.722.869.938.371.212.805.318 1.301.318.322 0 .615-.046.881-.137a1.825 1.825 0 0 0 1.13-1.108l1.608.29c-.129.474-.36.888-.693 1.244a3.354 3.354 0 0 1-1.244.824c-.496.194-1.063.29-1.699.29Zm5.629-.176v-8.727h1.642v1.386h.091c.159-.47.44-.839.841-1.108a2.404 2.404 0 0 1 1.375-.409 7.242 7.242 0 0 1 .722.04v1.625a3.1 3.1 0 0 0-.364-.063 3.466 3.466 0 0 0-.523-.04 2.22 2.22 0 0 0-1.074.256 1.903 1.903 0 0 0-1.011 1.71v5.33h-1.699Zm9.59.176c-.86 0-1.601-.184-2.222-.551a3.74 3.74 0 0 1-1.432-1.563c-.333-.674-.5-1.463-.5-2.369 0-.894.167-1.682.5-2.364a3.883 3.883 0 0 1 1.409-1.596c.606-.383 1.315-.574 2.125-.574.493 0 .97.082 1.432.244.462.163.877.419 1.244.768.368.348.658.8.87 1.357.212.553.318 1.226.318 2.018v.602h-6.938v-1.273h5.273c0-.447-.091-.843-.273-1.188a2.053 2.053 0 0 0-.767-.823c-.325-.201-.708-.302-1.147-.302-.478 0-.894.118-1.25.353a2.356 2.356 0 0 0-.818.909c-.19.371-.285.774-.285 1.21v.994c0 .584.103 1.08.307 1.489.209.41.498.722.87.938.371.212.804.318 1.301.318.322 0 .615-.046.88-.137.266-.094.495-.235.688-.42.193-.186.341-.415.443-.688l1.608.29c-.129.474-.36.888-.693 1.244-.33.353-.744.627-1.244.824-.497.194-1.063.29-1.699.29Zm12.169-6.773-1.54.273a1.821 1.821 0 0 0-.307-.562 1.515 1.515 0 0 0-.557-.438c-.235-.113-.528-.17-.88-.17-.481 0-.883.108-1.205.323-.322.213-.483.487-.483.824 0 .292.108.527.324.705.216.178.564.324 1.045.438l1.387.318c.803.185 1.401.471 1.795.858.394.386.591.888.591 1.505 0 .523-.151.989-.454 1.398-.3.405-.718.724-1.256.954-.534.232-1.153.347-1.858.347-.977 0-1.775-.208-2.392-.625-.618-.42-.996-1.017-1.136-1.79l1.642-.25c.102.428.312.752.63.972.318.216.733.324 1.245.324.556 0 1.001-.116 1.335-.347.333-.235.5-.52.5-.858a.89.89 0 0 0-.307-.687c-.201-.186-.509-.326-.926-.42l-1.477-.325c-.815-.185-1.417-.48-1.807-.886-.387-.405-.58-.918-.58-1.54a2.2 2.2 0 0 1 .432-1.352c.288-.386.686-.688 1.193-.903.508-.22 1.089-.33 1.745-.33.943 0 1.685.205 2.227.614.541.405.899.949 1.074 1.63Zm6.112-2.13v1.363h-4.767v-1.363h4.767Zm-3.489-2.091h1.699v8.255c0 .33.049.578.148.745a.766.766 0 0 0 .381.335c.159.057.331.085.517.085a2 2 0 0 0 .358-.028l.238-.046.307 1.404a2.859 2.859 0 0 1-.42.114c-.182.041-.41.064-.682.068a2.989 2.989 0 0 1-1.25-.239 2.144 2.144 0 0 1-.938-.773c-.238-.348-.358-.786-.358-1.312v-8.608Zm9.036 10.994c-.86 0-1.601-.184-2.222-.551a3.74 3.74 0 0 1-1.432-1.563c-.333-.674-.5-1.463-.5-2.369 0-.894.167-1.682.5-2.364a3.883 3.883 0 0 1 1.409-1.596c.607-.383 1.315-.574 2.125-.574.493 0 .97.082 1.432.244.462.163.877.419 1.245.768.367.348.657.8.869 1.357.212.553.318 1.226.318 2.018v.602h-6.937v-1.273h5.272a2.52 2.52 0 0 0-.272-1.188 2.067 2.067 0 0 0-.767-.823c-.326-.201-.709-.302-1.148-.302-.477 0-.894.118-1.25.353a2.364 2.364 0 0 0-.818.909c-.19.371-.284.774-.284 1.21v.994c0 .584.102 1.08.306 1.489.209.41.498.722.87.938.371.212.805.318 1.301.318.322 0 .615-.046.881-.137a1.825 1.825 0 0 0 1.13-1.108l1.608.29c-.129.474-.36.888-.693 1.244-.33.353-.744.627-1.244.824-.497.194-1.063.29-1.699.29Zm8.896-.005c-.704 0-1.333-.18-1.886-.54-.55-.364-.981-.881-1.296-1.552-.31-.674-.466-1.482-.466-2.426 0-.943.158-1.75.472-2.42.318-.67.754-1.184 1.307-1.54a3.398 3.398 0 0 1 1.88-.534c.542 0 .978.091 1.307.273.334.178.591.386.773.625.186.239.33.449.432.63h.102v-4.323h1.699V23.5h-1.659v-1.358h-.142c-.102.186-.25.398-.443.636-.19.239-.451.447-.784.625-.334.178-.766.268-1.296.268Zm.375-1.45c.489 0 .902-.128 1.239-.386.341-.261.598-.623.772-1.085.178-.462.268-1 .268-1.614 0-.606-.088-1.136-.262-1.59-.174-.455-.43-.81-.767-1.063-.337-.254-.754-.38-1.25-.38-.511 0-.937.132-1.278.397-.341.265-.599.627-.773 1.085-.17.459-.256.976-.256 1.551 0 .584.087 1.108.262 1.574.174.466.431.835.772 1.108.345.27.769.404 1.273.404Zm10.608 4.552v-12h1.659v1.415h.142a4.87 4.87 0 0 1 .426-.631c.186-.239.444-.447.773-.625.33-.182.765-.273 1.307-.273.704 0 1.333.178 1.886.534.553.356.987.87 1.301 1.54.319.67.478 1.477.478 2.42 0 .944-.158 1.752-.472 2.427-.314.67-.746 1.187-1.295 1.55-.55.36-1.177.54-1.881.54-.53 0-.964-.089-1.301-.267a2.45 2.45 0 0 1-.784-.625 4.65 4.65 0 0 1-.438-.636h-.102v4.63h-1.699Zm1.665-7.637c0 .614.089 1.152.267 1.614.178.462.435.824.773 1.085.337.258.75.387 1.238.387.508 0 .932-.135 1.273-.404.341-.273.598-.642.773-1.108.178-.466.267-.99.267-1.574 0-.575-.087-1.092-.262-1.55-.17-.46-.428-.82-.772-1.086-.341-.265-.767-.398-1.279-.398-.492 0-.909.127-1.25.381-.337.254-.593.608-.767 1.063-.174.454-.261.984-.261 1.59Zm8.21 4.364v-8.727h1.642v1.386h.091c.159-.47.439-.839.841-1.108a2.404 2.404 0 0 1 1.375-.409 7.242 7.242 0 0 1 .721.04v1.625a3.033 3.033 0 0 0-.363-.063 3.475 3.475 0 0 0-.523-.04 2.22 2.22 0 0 0-1.074.256 1.896 1.896 0 0 0-1.011 1.71v5.33h-1.699Zm9.504.176c-.818 0-1.532-.187-2.142-.562a3.79 3.79 0 0 1-1.42-1.574c-.337-.674-.506-1.462-.506-2.364 0-.905.169-1.697.506-2.375a3.783 3.783 0 0 1 1.42-1.58c.61-.374 1.324-.562 2.142-.562.818 0 1.533.188 2.142.563a3.78 3.78 0 0 1 1.421 1.58c.337.677.505 1.469.505 2.374 0 .902-.168 1.69-.505 2.364a3.792 3.792 0 0 1-1.421 1.574c-.609.375-1.324.562-2.142.562Zm.006-1.426c.53 0 .97-.14 1.318-.42.349-.28.606-.654.773-1.12.17-.466.256-.979.256-1.54 0-.556-.086-1.068-.256-1.534a2.498 2.498 0 0 0-.773-1.13c-.348-.284-.788-.427-1.318-.427-.534 0-.977.143-1.33.427a2.539 2.539 0 0 0-.778 1.13c-.167.466-.25.978-.25 1.535 0 .56.083 1.073.25 1.54.17.465.43.838.778 1.119.353.28.796.42 1.33.42Zm10.112-7.477v1.363h-4.932v-1.363h4.932Zm-3.579 8.727v-9.739c0-.545.119-.998.358-1.358.238-.363.555-.634.948-.812a3.028 3.028 0 0 1 1.285-.273c.34 0 .632.029.875.085.242.053.422.103.539.148l-.397 1.375a8.446 8.446 0 0 0-.307-.08 1.752 1.752 0 0 0-.455-.05c-.413 0-.708.102-.886.306-.174.205-.261.5-.261.887V23.5h-1.699Zm8.75.176c-.86 0-1.601-.184-2.222-.551a3.74 3.74 0 0 1-1.432-1.563c-.333-.674-.5-1.463-.5-2.369 0-.894.167-1.682.5-2.364a3.883 3.883 0 0 1 1.409-1.596c.606-.383 1.315-.574 2.125-.574.493 0 .97.082 1.432.244.462.163.877.419 1.244.768.368.348.658.8.87 1.357.212.553.318 1.226.318 2.018v.602h-6.938v-1.273h5.273c0-.447-.091-.843-.273-1.188a2.053 2.053 0 0 0-.767-.823c-.325-.201-.708-.302-1.147-.302-.478 0-.894.118-1.25.353a2.356 2.356 0 0 0-.818.909c-.19.371-.285.774-.285 1.21v.994c0 .584.103 1.08.307 1.489.209.41.498.722.87.938.371.212.804.318 1.301.318.322 0 .615-.046.88-.137.266-.094.495-.235.688-.42.193-.186.341-.415.443-.688l1.608.29c-.129.474-.36.888-.693 1.244-.33.353-.744.627-1.244.824-.497.194-1.063.29-1.699.29Zm12.169-6.773-1.54.273a1.821 1.821 0 0 0-.307-.562 1.515 1.515 0 0 0-.557-.438c-.235-.113-.528-.17-.88-.17-.481 0-.883.108-1.205.323-.322.213-.483.487-.483.824 0 .292.108.527.324.705.216.178.564.324 1.045.438l1.387.318c.803.185 1.401.471 1.795.858.394.386.591.888.591 1.505 0 .523-.151.989-.454 1.398-.3.405-.718.724-1.256.954-.534.232-1.153.347-1.858.347-.977 0-1.775-.208-2.392-.625-.618-.42-.996-1.017-1.136-1.79l1.642-.25c.102.428.312.752.63.972.318.216.733.324 1.245.324.556 0 1.001-.116 1.335-.347.333-.235.5-.52.5-.858a.89.89 0 0 0-.307-.687c-.201-.186-.509-.326-.926-.42l-1.477-.325c-.815-.185-1.417-.48-1.807-.886-.387-.405-.58-.918-.58-1.54a2.2 2.2 0 0 1 .432-1.352c.288-.386.686-.688 1.193-.903.508-.22 1.089-.33 1.745-.33.943 0 1.685.205 2.227.614.541.405.899.949 1.074 1.63Zm8.578 0-1.54.273a1.821 1.821 0 0 0-.307-.562 1.515 1.515 0 0 0-.557-.438c-.234-.113-.528-.17-.88-.17-.481 0-.883.108-1.205.323-.322.213-.483.487-.483.824 0 .292.108.527.324.705.216.178.564.324 1.046.438l1.386.318c.803.185 1.401.471 1.795.858.394.386.591.888.591 1.505 0 .523-.151.989-.454 1.398-.3.405-.718.724-1.256.954-.534.232-1.153.347-1.858.347-.977 0-1.775-.208-2.392-.625-.617-.42-.996-1.017-1.136-1.79l1.642-.25c.102.428.312.752.63.972.319.216.733.324 1.245.324.557 0 1.002-.116 1.335-.347.333-.235.5-.52.5-.858a.89.89 0 0 0-.307-.687c-.201-.186-.509-.326-.926-.42l-1.477-.325c-.815-.185-1.417-.48-1.807-.886-.386-.405-.58-.918-.58-1.54a2.2 2.2 0 0 1 .432-1.352c.288-.386.686-.688 1.193-.903.508-.22 1.089-.33 1.745-.33.943 0 1.685.205 2.227.614.542.405.9.949 1.074 1.63Zm5.714 6.773c-.818 0-1.532-.187-2.142-.562a3.79 3.79 0 0 1-1.42-1.574c-.337-.674-.506-1.462-.506-2.364 0-.905.169-1.697.506-2.375a3.783 3.783 0 0 1 1.42-1.58c.61-.374 1.324-.562 2.142-.562.818 0 1.533.188 2.142.563a3.78 3.78 0 0 1 1.421 1.58c.337.677.505 1.469.505 2.374 0 .902-.168 1.69-.505 2.364a3.792 3.792 0 0 1-1.421 1.574c-.609.375-1.324.562-2.142.562Zm.006-1.426c.53 0 .97-.14 1.318-.42.349-.28.606-.654.773-1.12.17-.466.256-.979.256-1.54 0-.556-.086-1.068-.256-1.534a2.498 2.498 0 0 0-.773-1.13c-.348-.284-.788-.427-1.318-.427-.534 0-.977.143-1.33.427a2.539 2.539 0 0 0-.778 1.13c-.167.466-.25.978-.25 1.535 0 .56.083 1.073.25 1.54.17.465.43.838.778 1.119.353.28.796.42 1.33.42Zm5.959 1.25v-8.727h1.642v1.386h.091c.159-.47.439-.839.841-1.108a2.402 2.402 0 0 1 1.375-.409 7.242 7.242 0 0 1 .721.04v1.625a3.033 3.033 0 0 0-.363-.063 3.485 3.485 0 0 0-.523-.04c-.402 0-.76.086-1.074.256a1.899 1.899 0 0 0-1.011 1.71v5.33h-1.699Zm12.68-6.597-1.54.273a1.818 1.818 0 0 0-.306-.562 1.524 1.524 0 0 0-.557-.438c-.235-.113-.529-.17-.881-.17-.481 0-.882.108-1.204.323-.322.213-.483.487-.483.824a.87.87 0 0 0 .323.705c.216.178.565.324 1.046.438l1.386.318c.803.185 1.402.471 1.796.858.394.386.591.888.591 1.505 0 .523-.152.989-.455 1.398-.299.405-.718.724-1.256.954-.534.232-1.153.347-1.858.347-.977 0-1.774-.208-2.392-.625-.617-.42-.996-1.017-1.136-1.79l1.642-.25c.102.428.313.752.631.972.318.216.733.324 1.244.324.557 0 1.002-.116 1.335-.347.334-.235.5-.52.5-.858a.893.893 0 0 0-.306-.687c-.201-.186-.51-.326-.927-.42l-1.477-.325c-.814-.185-1.417-.48-1.807-.886-.386-.405-.579-.918-.579-1.54a2.2 2.2 0 0 1 .432-1.352c.287-.386.685-.688 1.193-.903.507-.22 1.089-.33 1.744-.33.943 0 1.686.205 2.227.614.542.405.9.949 1.074 1.63Z"/>
</svg>
