<svg width="117" height="117" viewBox="0 0 117 117" fill="none" xmlns="http://www.w3.org/2000/svg">
<rect width="117" height="117" rx="20" fill="#D9EAEF"/>
<path d="M20 38C20 29.1634 27.1634 22 36 22H81C89.8366 22 97 29.1634 97 38V79C97 87.8366 89.8366 95 81 95H36C27.1634 95 20 87.8366 20 79V38Z" fill="white"/>
<path d="M91.225 20H25.775C24.2434 20 22.7745 20.6084 21.6915 21.6915C20.6084 22.7745 20 24.2434 20 25.775V91.225C20 92.7566 20.6084 94.2255 21.6915 95.3085C22.7745 96.3916 24.2434 97 25.775 97H91.225C92.7566 97 94.2255 96.3916 95.3085 95.3085C96.3916 94.2255 97 92.7566 97 91.225V25.775C97 24.2434 96.3916 22.7745 95.3085 21.6915C94.2255 20.6084 92.7566 20 91.225 20ZM43.1 85.45H31.55V50.8H43.1V85.45ZM37.325 44.0625C36.0013 44.0247 34.7181 43.5976 33.6357 42.8346C32.5534 42.0717 31.7198 41.0067 31.2393 39.7727C30.7587 38.5388 30.6525 37.1906 30.9338 35.8965C31.2151 34.6025 31.8715 33.4201 32.8209 32.497C33.7704 31.5739 34.9709 30.9511 36.2723 30.7063C37.5737 30.4616 38.9184 30.6058 40.1383 31.1209C41.3583 31.636 42.3994 32.4992 43.1315 33.6026C43.8637 34.706 44.2545 36.0008 44.255 37.325C44.2246 39.1358 43.4786 40.861 42.18 42.1235C40.8815 43.386 39.136 44.0831 37.325 44.0625ZM85.45 85.45H73.9V67.201C73.9 61.734 71.59 59.7705 68.587 59.7705C67.7065 59.8291 66.8463 60.0611 66.0558 60.4531C65.2653 60.8452 64.56 61.3895 63.9804 62.0549C63.4009 62.7203 62.9585 63.4937 62.6787 64.3306C62.3989 65.1674 62.2872 66.0513 62.35 66.9315C62.3309 67.1107 62.3309 67.2913 62.35 67.4705V85.45H50.8V50.8H61.965V55.805C63.0912 54.0918 64.6385 52.6964 66.4587 51.7526C68.2788 50.8089 70.3108 50.3483 72.36 50.415C78.3275 50.415 85.296 53.726 85.296 64.506L85.45 85.45Z" fill="#0A66C2"/>
</svg>
