<svg xmlns="http://www.w3.org/2000/svg" width="598" height="224" fill="none" viewBox="0 0 598 224">
  <rect width="230" height="48" y="87" fill="#F4CE71" rx="24"/>
  <path fill="#000" d="M40.459 104.8V118h-3.04v-6.06l.1-4.06h-.04L34.219 118h-2.78l-3.26-10.12h-.04l.1 4.06V118h-3.06v-13.2h4.9l2.08 6.72.74 2.8h.04l.76-2.78 2.06-6.74h4.7Zm7.504 13.4c-1.106 0-2.066-.207-2.88-.62a4.436 4.436 0 0 1-1.86-1.78c-.44-.773-.66-1.707-.66-2.8 0-1.093.22-2.027.66-2.8a4.465 4.465 0 0 1 1.84-1.78c.8-.413 1.714-.62 2.74-.62 1.054 0 1.947.207 2.68.62.747.4 1.314.96 1.7 1.68.387.707.58 1.52.58 2.44 0 .24-.006.48-.02.72-.013.24-.033.44-.06.6h-7.92v-1.82h6.42l-1.62.62c0-.8-.146-1.413-.44-1.84-.28-.427-.72-.64-1.32-.64-.426 0-.793.1-1.1.3-.293.2-.52.513-.68.94-.146.427-.22.973-.22 1.64 0 .653.087 1.187.26 1.6.174.4.42.693.74.88.32.173.707.26 1.16.26.507 0 .907-.1 1.2-.3.307-.2.534-.48.68-.84l2.72.9a3.196 3.196 0 0 1-.98 1.46c-.453.387-1 .68-1.64.88-.626.2-1.286.3-1.98.3Zm6.702-.2v-10h3.04l.18 3.44-.38-.38c.134-.72.367-1.32.7-1.8.347-.48.774-.84 1.28-1.08.52-.253 1.1-.38 1.74-.38.694 0 1.294.133 1.8.4.52.267.927.66 1.22 1.18.294.52.44 1.173.44 1.96V118h-3.4v-5.76c0-.693-.133-1.173-.4-1.44-.266-.267-.606-.4-1.02-.4-.32 0-.62.08-.9.24-.28.147-.5.387-.66.72-.16.333-.24.78-.24 1.34v5.3h-3.4Zm16.524-13.18v9.62c0 .48.113.827.34 1.04.24.2.567.3.98.3.32 0 .593-.033.82-.1.24-.08.453-.193.64-.34l.36 2.1c-.333.24-.753.427-1.26.56a6.12 6.12 0 0 1-1.56.2c-.76 0-1.42-.107-1.98-.32a2.629 2.629 0 0 1-1.28-1.02c-.293-.467-.447-1.087-.46-1.86v-9.24l3.4-.94Zm2.98 3.18v2.42h-8.1V108h8.1Zm6.33-.2c1.054 0 1.974.207 2.76.62.8.4 1.42.993 1.86 1.78.454.773.68 1.707.68 2.8 0 1.093-.226 2.033-.68 2.82a4.436 4.436 0 0 1-1.86 1.78c-.786.4-1.706.6-2.76.6-1.026 0-1.94-.2-2.74-.6a4.565 4.565 0 0 1-1.88-1.78c-.44-.787-.66-1.727-.66-2.82 0-1.093.22-2.027.66-2.8a4.4 4.4 0 0 1 1.88-1.78c.8-.413 1.714-.62 2.74-.62Zm0 2.42c-.386 0-.72.093-1 .28-.28.187-.493.487-.64.9-.146.413-.22.947-.22 1.6 0 .653.074 1.187.22 1.6.147.4.36.7.64.9.28.187.614.28 1 .28.4 0 .74-.093 1.02-.28.28-.2.494-.5.64-.9.147-.413.22-.947.22-1.6 0-.653-.073-1.187-.22-1.6-.146-.413-.36-.713-.64-.9-.28-.187-.62-.28-1.02-.28Zm7.213 7.78v-10h3l.14 2.16c.254-.747.627-1.327 1.12-1.74.507-.413 1.147-.62 1.92-.62.254 0 .467.02.64.06.187.04.334.093.44.16l-.34 2.8a2.177 2.177 0 0 0-.52-.12c-.2-.04-.447-.06-.74-.06-.4 0-.773.087-1.12.26a2.047 2.047 0 0 0-.84.78c-.2.333-.3.76-.3 1.28V118h-3.4Zm10.294-11.16c-.693 0-1.2-.127-1.52-.38-.307-.267-.46-.68-.46-1.24 0-.573.153-.987.46-1.24.32-.267.827-.4 1.52-.4.68 0 1.18.133 1.5.4.32.253.48.667.48 1.24 0 .56-.16.973-.48 1.24-.32.253-.82.38-1.5.38Zm1.7 1.16v10h-3.4v-10h3.4Zm2.42 10v-10h3.04l.18 3.44-.38-.38c.134-.72.367-1.32.7-1.8.347-.48.774-.84 1.28-1.08.52-.253 1.1-.38 1.74-.38.694 0 1.294.133 1.8.4.52.267.927.66 1.22 1.18.294.52.44 1.173.44 1.96V118h-3.4v-5.76c0-.693-.133-1.173-.4-1.44-.266-.267-.606-.4-1.02-.4-.32 0-.62.08-.9.24-.28.147-.5.387-.66.72-.16.333-.24.78-.24 1.34v5.3h-3.4Zm22.083-12.68.28 2.28a.746.746 0 0 0-.24-.04c-.08-.013-.16-.02-.24-.02-.587 0-1.027.147-1.32.44-.28.28-.42.633-.42 1.06l-1.2-.44c0-.547.1-1.073.3-1.58.2-.507.506-.92.92-1.24.426-.32.96-.48 1.6-.48h.14c.066 0 .126.007.18.02Zm-3.44 10.46c1.16 0 2.046.247 2.66.74.626.48.94 1.173.94 2.08 0 .827-.227 1.513-.68 2.06-.454.547-1.094.953-1.92 1.22-.814.28-1.78.42-2.9.42-1.814 0-3.12-.227-3.92-.68-.8-.453-1.2-1.067-1.2-1.84 0-.56.226-1.013.68-1.36.453-.347 1.206-.533 2.26-.56l-.08.32c-.814-.107-1.42-.347-1.82-.72-.4-.373-.6-.88-.6-1.52s.253-1.16.76-1.56c.506-.4 1.18-.62 2.02-.66l1.24.58h-.32c-.52.027-.887.113-1.1.26-.214.147-.32.327-.32.54 0 .227.093.4.28.52.186.107.466.16.84.16h3.18Zm-1.88 4.32c.64 0 1.166-.047 1.58-.14.426-.08.746-.2.96-.36.213-.147.32-.32.32-.52a.59.59 0 0 0-.22-.48c-.147-.107-.414-.16-.8-.16h-3.58c-.254 0-.46.067-.62.2a.646.646 0 0 0-.22.5c0 .307.226.54.68.7.453.173 1.086.26 1.9.26Zm.12-12.3c1.013 0 1.88.133 2.6.4.72.267 1.266.653 1.64 1.16.386.493.58 1.107.58 1.84 0 .72-.194 1.333-.58 1.84-.374.507-.92.893-1.64 1.16-.72.253-1.587.38-2.6.38-1.587 0-2.794-.293-3.62-.88-.814-.587-1.22-1.42-1.22-2.5 0-.733.186-1.347.56-1.84.386-.507.94-.893 1.66-1.16.72-.267 1.593-.4 2.62-.4Zm0 1.94c-.44 0-.8.127-1.08.38-.267.253-.4.613-.4 1.08 0 .453.133.807.4 1.06.28.253.64.38 1.08.38.426 0 .78-.127 1.06-.38s.42-.607.42-1.06c0-.467-.14-.827-.42-1.08-.28-.253-.634-.38-1.06-.38Zm18.594-5.14c1.333 0 2.48.273 3.44.82a5.382 5.382 0 0 1 2.24 2.32c.52 1.013.78 2.233.78 3.66s-.26 2.647-.78 3.66a5.507 5.507 0 0 1-2.24 2.34c-.96.533-2.107.8-3.44.8-1.334 0-2.487-.267-3.46-.8a5.501 5.501 0 0 1-2.24-2.34c-.52-1.013-.78-2.233-.78-3.66s.26-2.647.78-3.66a5.376 5.376 0 0 1 2.24-2.32c.973-.547 2.126-.82 3.46-.82Zm0 2.7c-.64 0-1.18.153-1.62.46-.44.307-.774.767-1 1.38-.227.6-.34 1.353-.34 2.26 0 .893.113 1.647.34 2.26.226.613.56 1.073 1 1.38.44.307.98.46 1.62.46.64 0 1.173-.153 1.6-.46.44-.307.773-.767 1-1.38.226-.613.34-1.367.34-2.26 0-.907-.114-1.66-.34-2.26-.227-.613-.56-1.073-1-1.38-.427-.307-.96-.46-1.6-.46Zm8.547 14.9V108h3.06l.18 3.62-.4-.42c.093-.667.3-1.253.62-1.76a3.55 3.55 0 0 1 1.24-1.2c.506-.293 1.086-.44 1.74-.44.826 0 1.546.207 2.16.62.613.4 1.086.987 1.42 1.76.346.76.52 1.687.52 2.78 0 1.093-.174 2.033-.52 2.82-.347.787-.834 1.387-1.46 1.8-.614.413-1.334.62-2.16.62-.907 0-1.64-.267-2.2-.8-.56-.547-.934-1.233-1.12-2.06l.32-.48v7.34h-3.4Zm5.24-6.5c.586 0 1.046-.213 1.38-.64.333-.44.5-1.127.5-2.06s-.167-1.613-.5-2.04c-.32-.44-.774-.66-1.36-.66-.374 0-.7.107-.98.32-.28.2-.5.5-.66.9-.147.4-.22.893-.22 1.48 0 .56.066 1.047.2 1.46.146.4.36.707.64.92.28.213.613.32 1 .32Zm11.42-10.88v9.62c0 .48.113.827.34 1.04.24.2.567.3.98.3.32 0 .593-.033.82-.1.24-.08.453-.193.64-.34l.36 2.1c-.333.24-.753.427-1.26.56-.507.133-1.027.2-1.56.2-.76 0-1.42-.107-1.98-.32a2.63 2.63 0 0 1-1.28-1.02c-.293-.467-.447-1.087-.46-1.86v-9.24l3.4-.94Zm2.98 3.18v2.42h-8.1V108h8.1Zm3.271-1.16c-.694 0-1.2-.127-1.52-.38-.307-.267-.46-.68-.46-1.24 0-.573.153-.987.46-1.24.32-.267.826-.4 1.52-.4.68 0 1.18.133 1.5.4.32.253.48.667.48 1.24 0 .56-.16.973-.48 1.24-.32.253-.82.38-1.5.38Zm1.7 1.16v10h-3.4v-10h3.4Zm7.18-.2c1.053 0 1.973.207 2.76.62.8.4 1.42.993 1.86 1.78.453.773.68 1.707.68 2.8 0 1.093-.227 2.033-.68 2.82a4.436 4.436 0 0 1-1.86 1.78c-.787.4-1.707.6-2.76.6-1.027 0-1.94-.2-2.74-.6a4.562 4.562 0 0 1-1.88-1.78c-.44-.787-.66-1.727-.66-2.82 0-1.093.22-2.027.66-2.8a4.397 4.397 0 0 1 1.88-1.78c.8-.413 1.713-.62 2.74-.62Zm0 2.42c-.387 0-.72.093-1 .28-.28.187-.493.487-.64.9-.147.413-.22.947-.22 1.6 0 .653.073 1.187.22 1.6.147.4.36.7.64.9.28.187.613.28 1 .28.4 0 .74-.093 1.02-.28.28-.2.493-.5.64-.9.147-.413.22-.947.22-1.6 0-.653-.073-1.187-.22-1.6-.147-.413-.36-.713-.64-.9-.28-.187-.62-.28-1.02-.28Zm7.213 7.78v-10h3.04l.18 3.44-.38-.38c.133-.72.366-1.32.7-1.8.346-.48.773-.84 1.28-1.08.52-.253 1.1-.38 1.74-.38.693 0 1.293.133 1.8.4.52.267.926.66 1.22 1.18.293.52.44 1.173.44 1.96V118h-3.4v-5.76c0-.693-.134-1.173-.4-1.44-.267-.267-.607-.4-1.02-.4-.32 0-.62.08-.9.24-.28.147-.5.387-.66.72-.16.333-.24.78-.24 1.34v5.3h-3.4Zm16.602.2c-1 0-1.933-.16-2.8-.48-.853-.333-1.56-.807-2.12-1.42l1.6-1.88c.333.427.773.787 1.32 1.08a4.1 4.1 0 0 0 1.86.42c.413 0 .753-.06 1.02-.18s.4-.307.4-.56a.534.534 0 0 0-.2-.44c-.133-.12-.4-.22-.8-.3l-1.4-.28c-1.253-.253-2.147-.627-2.68-1.12-.52-.507-.78-1.167-.78-1.98 0-.547.167-1.067.5-1.56.333-.507.847-.913 1.54-1.22.693-.32 1.58-.48 2.66-.48 1.013 0 1.907.147 2.68.44.773.293 1.387.72 1.84 1.28l-1.62 1.84c-.32-.4-.733-.713-1.24-.94a3.69 3.69 0 0 0-1.52-.34c-.32 0-.593.033-.82.1-.213.053-.373.133-.48.24a.542.542 0 0 0-.16.4c0 .173.08.327.24.46.173.12.487.227.94.32l1.82.36c1.027.187 1.767.527 2.22 1.02.453.493.68 1.087.68 1.78a3.1 3.1 0 0 1-.52 1.76c-.347.52-.867.933-1.56 1.24-.693.293-1.567.44-2.62.44Z"/>
  <rect width="239" height="39" x="358" y="1" fill="#fff" rx="19.5"/>
  <path fill="#1E4460" d="M384.773 18h-1.409a2.947 2.947 0 0 0-1.188-1.84 3.186 3.186 0 0 0-.971-.478 3.891 3.891 0 0 0-1.114-.16 3.55 3.55 0 0 0-1.915.535c-.568.356-1.021.88-1.358 1.574-.333.693-.5 1.543-.5 2.55 0 1.008.167 1.859.5 2.552.337.693.79 1.218 1.358 1.574a3.55 3.55 0 0 0 1.915.534c.386 0 .757-.053 1.114-.16a3.24 3.24 0 0 0 .971-.47 2.976 2.976 0 0 0 1.188-1.847h1.409a4.7 4.7 0 0 1-.58 1.596c-.28.47-.629.87-1.045 1.2a4.585 4.585 0 0 1-1.404.743 5.227 5.227 0 0 1-1.653.256c-.993 0-1.875-.242-2.648-.727-.773-.485-1.38-1.174-1.824-2.068-.443-.894-.664-1.955-.664-3.182 0-1.227.221-2.288.664-3.182.444-.894 1.051-1.583 1.824-2.068.773-.485 1.655-.728 2.648-.728a5.23 5.23 0 0 1 1.653.256 4.5 4.5 0 0 1 1.404.75 4.29 4.29 0 0 1 1.045 1.193c.28.466.474.998.58 1.597Zm4.663 8.204a3.548 3.548 0 0 1-1.506-.312 2.585 2.585 0 0 1-1.073-.915c-.266-.401-.398-.886-.398-1.454 0-.5.098-.906.295-1.216.197-.315.46-.56.79-.739.33-.178.693-.31 1.091-.398.401-.09.805-.162 1.21-.216.53-.068.96-.119 1.29-.153.333-.038.576-.1.727-.187.156-.088.233-.239.233-.455v-.045c0-.561-.153-.997-.46-1.307-.303-.31-.763-.466-1.381-.466-.64 0-1.142.14-1.505.42-.364.28-.62.58-.767.898l-1.273-.454c.227-.53.53-.944.909-1.24a3.411 3.411 0 0 1 1.25-.624 5.184 5.184 0 0 1 1.341-.182c.28 0 .602.034.966.102.367.065.721.2 1.062.404.345.204.631.513.858.926.227.413.341.966.341 1.659V26h-1.341v-1.182h-.068c-.091.19-.242.392-.455.608-.212.216-.494.4-.846.551-.352.152-.782.227-1.29.227Zm.205-1.204c.53 0 .977-.104 1.341-.313a2.131 2.131 0 0 0 1.113-1.846v-1.227c-.057.068-.182.13-.375.187a6.29 6.29 0 0 1-.659.142 29.629 29.629 0 0 1-1.284.17 5.19 5.19 0 0 0-.977.222 1.68 1.68 0 0 0-.728.45c-.181.196-.272.465-.272.806 0 .466.172.818.517 1.057.348.235.79.352 1.324.352Zm6.243 1v-8.727h1.295v1.318h.091c.159-.432.447-.782.864-1.051a2.54 2.54 0 0 1 1.409-.404c.098 0 .221.002.369.006s.259.01.335.017v1.364a3.926 3.926 0 0 0-.312-.051 3.08 3.08 0 0 0-.506-.04c-.424 0-.803.089-1.136.267a1.956 1.956 0 0 0-1.069 1.778V26h-1.34Zm9.346.182c-.841 0-1.566-.186-2.176-.557a3.733 3.733 0 0 1-1.403-1.568c-.326-.674-.489-1.458-.489-2.352 0-.894.163-1.682.489-2.364.329-.686.787-1.22 1.375-1.602.59-.387 1.28-.58 2.068-.58.454 0 .903.076 1.346.227.444.152.847.398 1.211.739.363.337.653.784.869 1.34.216.558.324 1.243.324 2.058v.568h-6.728v-1.16h5.364c0-.492-.098-.931-.295-1.317a2.232 2.232 0 0 0-.83-.915c-.356-.224-.776-.335-1.261-.335-.534 0-.996.132-1.387.397a2.623 2.623 0 0 0-.892 1.023c-.208.42-.312.871-.312 1.352v.773c0 .66.113 1.218.341 1.676.231.455.551.801.96 1.04.409.235.884.352 1.426.352.352 0 .671-.049.955-.148a2.03 2.03 0 0 0 .744-.454c.208-.204.369-.458.483-.761l1.295.363a2.87 2.87 0 0 1-.687 1.16c-.322.329-.72.587-1.193.772a4.43 4.43 0 0 1-1.597.273Zm9.313 0c-.841 0-1.567-.186-2.177-.557a3.74 3.74 0 0 1-1.403-1.568c-.326-.674-.489-1.458-.489-2.352 0-.894.163-1.682.489-2.364.33-.686.788-1.22 1.375-1.602.591-.387 1.28-.58 2.068-.58.455 0 .904.076 1.347.227a3.34 3.34 0 0 1 1.21.739c.364.337.653.784.869 1.34.216.558.324 1.243.324 2.058v.568h-6.727v-1.16h5.364c0-.492-.099-.931-.296-1.317a2.23 2.23 0 0 0-.829-.915c-.356-.224-.777-.335-1.262-.335-.534 0-.996.132-1.386.397a2.615 2.615 0 0 0-.892 1.023 3.01 3.01 0 0 0-.313 1.352v.773c0 .66.114 1.218.341 1.676.231.455.551.801.96 1.04.41.235.885.352 1.427.352.352 0 .67-.049.954-.148a2.03 2.03 0 0 0 .744-.454c.209-.204.37-.458.483-.761l1.296.363a2.87 2.87 0 0 1-.688 1.16 3.344 3.344 0 0 1-1.193.772 4.42 4.42 0 0 1-1.596.273Zm5.653-.182v-8.727h1.295v1.318h.091c.159-.432.447-.782.864-1.051a2.541 2.541 0 0 1 1.409-.404c.099 0 .222.002.369.006.148.004.26.01.336.017v1.364a4.073 4.073 0 0 0-.313-.051 3.071 3.071 0 0 0-.506-.04c-.424 0-.803.089-1.136.267a2.016 2.016 0 0 0-.784.727 1.964 1.964 0 0 0-.284 1.051V26h-1.341Zm16.635-6.773-1.205.341a2.206 2.206 0 0 0-.335-.585 1.628 1.628 0 0 0-.591-.477c-.25-.125-.57-.188-.96-.188-.534 0-.979.123-1.335.37-.352.242-.529.55-.529.926 0 .333.122.596.364.79.242.193.621.354 1.136.482l1.296.319c.78.189 1.362.479 1.744.869.383.386.574.884.574 1.494 0 .5-.144.947-.432 1.341-.284.394-.682.705-1.193.932-.511.227-1.106.34-1.784.34-.89 0-1.627-.192-2.21-.579-.584-.386-.953-.95-1.108-1.693l1.273-.318c.121.47.35.822.687 1.057.341.235.786.352 1.335.352.625 0 1.121-.133 1.489-.398.371-.269.557-.59.557-.966 0-.303-.106-.556-.318-.761-.213-.208-.538-.364-.978-.466l-1.454-.34c-.8-.19-1.387-.484-1.762-.881-.371-.402-.556-.904-.556-1.506 0-.493.138-.928.414-1.307a2.828 2.828 0 0 1 1.142-.892c.485-.216 1.034-.324 1.648-.324.864 0 1.542.19 2.034.568.496.38.849.88 1.057 1.5Zm3.518 1.523V26h-1.34V14.364h1.34v4.272h.114c.205-.45.511-.808.921-1.073.412-.27.962-.404 1.647-.404.595 0 1.116.12 1.563.358.447.235.793.597 1.04 1.085.25.485.375 1.102.375 1.852V26h-1.341v-5.454c0-.694-.18-1.23-.54-1.608-.356-.383-.851-.574-1.483-.574-.44 0-.833.092-1.182.278a2.035 2.035 0 0 0-.818.813c-.197.356-.296.787-.296 1.295Zm10.681 5.454a3.548 3.548 0 0 1-1.506-.312 2.582 2.582 0 0 1-1.074-.915c-.265-.401-.397-.886-.397-1.454 0-.5.098-.906.295-1.216.197-.315.46-.56.79-.739a4.14 4.14 0 0 1 1.091-.398c.401-.09.805-.162 1.21-.216.53-.068.96-.119 1.29-.153.333-.038.575-.1.727-.187.155-.088.233-.239.233-.455v-.045c0-.561-.153-.997-.46-1.307-.303-.31-.764-.466-1.381-.466-.64 0-1.142.14-1.506.42-.363.28-.619.58-.767.898l-1.272-.454c.227-.53.53-.944.909-1.24a3.411 3.411 0 0 1 1.25-.624 5.184 5.184 0 0 1 1.341-.182c.28 0 .602.034.965.102.368.065.722.2 1.063.404.345.204.631.513.858.926.227.413.341.966.341 1.659V26h-1.341v-1.182h-.068a2.36 2.36 0 0 1-.455.608c-.212.216-.494.4-.846.551-.353.152-.783.227-1.29.227Zm.204-1.204c.531 0 .978-.104 1.341-.313a2.128 2.128 0 0 0 1.114-1.846v-1.227c-.057.068-.182.13-.375.187a6.29 6.29 0 0 1-.659.142 29.629 29.629 0 0 1-1.284.17 5.13 5.13 0 0 0-.978.222 1.687 1.687 0 0 0-.727.45c-.182.196-.273.465-.273.806 0 .466.173.818.518 1.057.348.235.789.352 1.323.352Zm9.539 1.182c-.728 0-1.37-.184-1.926-.551-.557-.372-.993-.894-1.307-1.569-.315-.678-.472-1.479-.472-2.403 0-.917.157-1.712.472-2.386.314-.674.752-1.195 1.312-1.563.561-.367 1.209-.55 1.943-.55.569 0 1.018.094 1.347.283.333.186.587.398.761.636.178.235.317.429.415.58h.114v-4.295h1.341V26h-1.296v-1.34h-.159a8.522 8.522 0 0 1-.42.601c-.182.239-.442.453-.779.642-.337.186-.786.279-1.346.279Zm.182-1.205c.537 0 .992-.14 1.363-.42.371-.284.654-.676.847-1.176.193-.504.29-1.085.29-1.745 0-.651-.095-1.221-.285-1.71-.189-.492-.469-.875-.84-1.148-.372-.276-.83-.414-1.375-.414-.569 0-1.042.145-1.421.437-.375.288-.657.68-.846 1.176a4.666 4.666 0 0 0-.279 1.66c0 .62.095 1.185.284 1.692.193.504.477.906.852 1.205.379.296.849.443 1.41.443Zm10.005 1.205c-.788 0-1.479-.188-2.074-.563-.591-.375-1.053-.9-1.386-1.573-.33-.675-.494-1.463-.494-2.364 0-.91.164-1.703.494-2.38.333-.679.795-1.205 1.386-1.58.595-.375 1.286-.563 2.074-.563.788 0 1.478.188 2.068.563.595.375 1.057.901 1.387 1.58.333.677.5 1.47.5 2.38 0 .901-.167 1.69-.5 2.364a3.77 3.77 0 0 1-1.387 1.573c-.59.375-1.28.563-2.068.563Zm0-1.205c.599 0 1.091-.153 1.478-.46a2.71 2.71 0 0 0 .857-1.21c.186-.5.279-1.042.279-1.625s-.093-1.127-.279-1.63a2.745 2.745 0 0 0-.857-1.223c-.387-.31-.879-.465-1.478-.465-.598 0-1.091.155-1.477.465a2.757 2.757 0 0 0-.858 1.222 4.672 4.672 0 0 0-.278 1.63c0 .584.092 1.126.278 1.626.186.5.472.903.858 1.21.386.307.879.46 1.477.46ZM478.642 26l-2.659-8.727h1.409l1.886 6.681h.091l1.864-6.681h1.432l1.841 6.659h.091l1.886-6.66h1.409L485.233 26h-1.318l-1.909-6.704h-.137L479.96 26h-1.318Zm11.023 0v-8.727h1.341V26h-1.341Zm.682-10.182a.955.955 0 0 1-.677-.267.86.86 0 0 1-.278-.642.86.86 0 0 1 .278-.642.955.955 0 0 1 .677-.267c.261 0 .484.089.67.267a.851.851 0 0 1 .284.642c0 .25-.095.464-.284.642a.934.934 0 0 1-.67.267Zm4.456 4.932V26h-1.341v-8.727h1.295v1.363h.114c.204-.443.515-.799.932-1.068.416-.273.954-.409 1.613-.409.591 0 1.108.121 1.551.364.444.238.788.602 1.034 1.09.247.486.37 1.1.37 1.841V26h-1.341v-5.454c0-.686-.178-1.22-.534-1.603-.356-.386-.845-.58-1.466-.58a2.34 2.34 0 0 0-1.148.279 2 2 0 0 0-.79.813c-.193.356-.289.787-.289 1.295Zm11.541 8.704c-.648 0-1.205-.083-1.671-.25a3.53 3.53 0 0 1-1.164-.647 3.52 3.52 0 0 1-.733-.852l1.068-.75c.121.159.274.34.46.545.186.208.439.388.761.54.326.155.752.233 1.279.233.704 0 1.286-.17 1.744-.512.458-.34.688-.875.688-1.602v-1.773h-.114a7.34 7.34 0 0 1-.421.591c-.178.231-.435.438-.772.62-.334.178-.784.267-1.353.267-.704 0-1.337-.167-1.897-.5-.557-.334-.998-.819-1.324-1.455-.322-.636-.483-1.409-.483-2.318 0-.894.157-1.672.472-2.335.314-.667.751-1.182 1.312-1.546.561-.367 1.208-.55 1.943-.55.568 0 1.019.094 1.352.283.338.186.595.398.773.636.182.235.322.429.421.58h.136v-1.386h1.295v8.977c0 .75-.17 1.36-.511 1.83-.337.473-.792.82-1.364 1.04a5.14 5.14 0 0 1-1.897.334Zm-.046-4.795c.538 0 .993-.123 1.364-.37.371-.245.653-.6.847-1.062.193-.462.289-1.015.289-1.659 0-.629-.094-1.184-.284-1.665-.189-.48-.469-.857-.841-1.13-.371-.273-.829-.41-1.375-.41-.568 0-1.041.145-1.42.433a2.634 2.634 0 0 0-.847 1.159 4.495 4.495 0 0 0-.278 1.613c0 .606.095 1.142.284 1.608.193.462.477.826.852 1.091.379.261.849.392 1.409.392Zm14.068 1.5c-.765 0-1.424-.14-1.977-.42a3.1 3.1 0 0 1-1.278-1.154c-.299-.488-.449-1.047-.449-1.676 0-.485.102-.915.307-1.29a3.94 3.94 0 0 1 .858-1.05 12.58 12.58 0 0 1 1.267-.978l1.682-1.25c.329-.216.592-.447.789-.693.201-.247.301-.569.301-.966 0-.296-.13-.582-.392-.858-.257-.277-.596-.415-1.017-.415-.295 0-.556.076-.784.227a1.62 1.62 0 0 0-.528.569 1.445 1.445 0 0 0-.188.704c0 .273.074.55.222.83.151.276.343.56.574.852.235.288.477.583.727.886L525.821 26h-1.614l-4.409-5.318-1.113-1.341a6.344 6.344 0 0 1-.796-1.188 2.77 2.77 0 0 1-.295-1.267c0-.522.115-.98.346-1.375.235-.397.563-.706.983-.926.425-.223.921-.335 1.489-.335.583 0 1.085.114 1.506.34.42.224.744.522.971.893.227.367.341.767.341 1.199 0 .557-.138 1.04-.415 1.449-.276.409-.653.79-1.13 1.142L519.366 21c-.522.386-.876.761-1.062 1.125-.186.364-.278.625-.278.784 0 .364.094.703.284 1.017.189.315.456.568.801.762.344.193.748.29 1.21.29.439 0 .867-.094 1.284-.28a3.594 3.594 0 0 0 1.131-.817c.341-.356.61-.784.807-1.284.2-.5.301-1.063.301-1.688h1.295c0 .773-.089 1.404-.267 1.892-.178.489-.379.871-.602 1.148a8.551 8.551 0 0 1-.54.62 2.638 2.638 0 0 0-.125.17 2.289 2.289 0 0 1-.125.17c-.375.42-.848.735-1.42.943a5.01 5.01 0 0 1-1.694.307Zm14.008.046a3.548 3.548 0 0 1-1.506-.313 2.582 2.582 0 0 1-1.074-.915c-.265-.401-.398-.886-.398-1.454 0-.5.099-.906.296-1.216.197-.315.46-.56.79-.739a4.18 4.18 0 0 1 1.09-.398c.402-.09.805-.162 1.211-.216.53-.068.96-.119 1.289-.153.334-.038.576-.1.728-.187.155-.088.233-.239.233-.455v-.045c0-.561-.154-.997-.461-1.307-.303-.31-.763-.466-1.38-.466-.64 0-1.142.14-1.506.42-.364.28-.619.58-.767.898l-1.273-.454c.228-.53.531-.944.909-1.24.383-.298.8-.507 1.25-.624a5.196 5.196 0 0 1 1.341-.182 5.3 5.3 0 0 1 .966.102c.368.065.722.2 1.063.404.344.204.63.513.858.926.227.413.341.966.341 1.659V26h-1.341v-1.182h-.069a2.33 2.33 0 0 1-.454.608c-.212.216-.494.4-.847.551-.352.152-.782.227-1.289.227Zm.204-1.205c.53 0 .977-.104 1.341-.313.367-.208.644-.477.83-.806a2.06 2.06 0 0 0 .284-1.04v-1.227c-.057.068-.182.13-.375.187-.19.053-.409.1-.659.142a30.34 30.34 0 0 1-1.285.17 5.19 5.19 0 0 0-.977.222 1.687 1.687 0 0 0-.727.45c-.182.196-.273.465-.273.806 0 .466.173.818.517 1.057.349.235.79.352 1.324.352Zm9.538 1.182c-.727 0-1.369-.184-1.926-.551-.556-.372-.992-.894-1.306-1.569-.315-.678-.472-1.479-.472-2.403 0-.917.157-1.712.472-2.386.314-.674.751-1.195 1.312-1.563.561-.367 1.208-.55 1.943-.55.568 0 1.017.094 1.347.283.333.186.587.398.761.636.178.235.316.429.415.58h.114v-4.295h1.34V26h-1.295v-1.34h-.159a8.77 8.77 0 0 1-.421.601c-.181.239-.441.453-.778.642-.337.186-.786.279-1.347.279Zm.182-1.205c.538 0 .993-.14 1.364-.42.371-.284.653-.676.847-1.176.193-.504.289-1.085.289-1.745 0-.651-.094-1.221-.284-1.71-.189-.492-.469-.875-.841-1.148-.371-.276-.829-.414-1.375-.414-.568 0-1.041.145-1.42.437-.375.288-.657.68-.847 1.176a4.689 4.689 0 0 0-.278 1.66c0 .62.095 1.185.284 1.692.193.504.477.906.852 1.205.379.296.849.443 1.409.443Zm13.597-7.704L554.668 26h-1.364l-3.227-8.727h1.454l2.409 6.954h.091l2.409-6.954h1.455Zm1.77 8.727v-8.727h1.341V26h-1.341Zm.682-10.182a.955.955 0 0 1-.677-.267.86.86 0 0 1-.278-.642.86.86 0 0 1 .278-.642.955.955 0 0 1 .677-.267c.261 0 .484.089.67.267a.851.851 0 0 1 .284.642c0 .25-.095.464-.284.642a.934.934 0 0 1-.67.267Zm6.66 10.364c-.818 0-1.523-.193-2.114-.58a3.781 3.781 0 0 1-1.363-1.596c-.318-.678-.477-1.453-.477-2.324 0-.886.162-1.669.488-2.347.33-.682.788-1.214 1.375-1.596.591-.387 1.28-.58 2.068-.58a3.91 3.91 0 0 1 1.659.341 3.18 3.18 0 0 1 1.211.954c.314.41.509.887.585 1.432h-1.341c-.102-.397-.33-.75-.682-1.056-.348-.311-.818-.466-1.409-.466-.523 0-.981.136-1.375.409-.39.269-.695.65-.915 1.142-.216.488-.324 1.062-.324 1.721 0 .675.107 1.262.319 1.762.216.5.519.888.909 1.165.394.276.856.414 1.386.414.349 0 .665-.06.949-.181a1.96 1.96 0 0 0 .722-.523c.197-.227.337-.5.42-.819h1.341a3.101 3.101 0 0 1-1.739 2.37c-.485.238-1.049.358-1.693.358Zm9.051 0c-.841 0-1.566-.186-2.176-.557a3.733 3.733 0 0 1-1.403-1.568c-.326-.674-.489-1.458-.489-2.352 0-.894.163-1.682.489-2.364.329-.686.788-1.22 1.375-1.602.591-.387 1.28-.58 2.068-.58.454 0 .903.076 1.346.227.444.152.847.398 1.211.739.363.337.653.784.869 1.34.216.558.324 1.243.324 2.058v.568h-6.727v-1.16h5.363c0-.492-.098-.931-.295-1.317a2.225 2.225 0 0 0-.83-.915c-.356-.224-.776-.335-1.261-.335-.534 0-.996.132-1.386.397a2.618 2.618 0 0 0-.893 1.023c-.208.42-.312.871-.312 1.352v.773c0 .66.114 1.218.341 1.676.231.455.551.801.96 1.04.409.235.885.352 1.426.352a2.9 2.9 0 0 0 .955-.148 2.03 2.03 0 0 0 .744-.454c.208-.204.369-.458.483-.761l1.296.363a2.88 2.88 0 0 1-.688 1.16c-.322.329-.72.587-1.193.772a4.43 4.43 0 0 1-1.597.273Z"/>
  <rect width="239" height="39" x="358" y="1" stroke="#F4CE71" stroke-width="2" rx="19.5"/>
  <rect width="147" height="39" x="358" y="62" fill="#fff" rx="19.5"/>
  <path fill="#1E4460" d="M375.409 87V75.364h3.932c.909 0 1.655.155 2.239.465.583.307 1.015.73 1.295 1.268s.42 1.15.42 1.835-.14 1.293-.42 1.824c-.28.53-.71.947-1.29 1.25-.579.299-1.32.448-2.221.448h-3.182v-1.272h3.136c.621 0 1.121-.091 1.5-.273.383-.182.659-.44.83-.773.174-.337.261-.738.261-1.204 0-.466-.087-.873-.261-1.222a1.785 1.785 0 0 0-.836-.807c-.382-.193-.888-.29-1.517-.29h-2.477V87h-1.409Zm5.477-5.227L383.75 87h-1.636l-2.819-5.227h1.591Zm8.141 5.409c-.841 0-1.566-.186-2.176-.557a3.742 3.742 0 0 1-1.404-1.568c-.325-.674-.488-1.459-.488-2.353 0-.893.163-1.681.488-2.363.33-.686.788-1.22 1.375-1.602.591-.387 1.281-.58 2.069-.58.454 0 .903.076 1.346.227.443.152.847.398 1.21.739.364.337.654.784.87 1.34.216.558.324 1.243.324 2.058v.568h-6.728v-1.16h5.364c0-.492-.098-.931-.295-1.317a2.232 2.232 0 0 0-.83-.915c-.356-.224-.777-.335-1.261-.335-.534 0-.997.132-1.387.397a2.623 2.623 0 0 0-.892 1.023c-.208.42-.312.871-.312 1.352v.773c0 .66.113 1.218.341 1.676.231.455.551.801.96 1.04.409.235.884.352 1.426.352.352 0 .67-.049.955-.148.287-.102.536-.253.744-.454.208-.204.369-.458.483-.761l1.295.363a2.87 2.87 0 0 1-.687 1.16c-.322.329-.72.587-1.193.772a4.43 4.43 0 0 1-1.597.273Zm11.835-6.955-1.204.341a2.238 2.238 0 0 0-.336-.585 1.616 1.616 0 0 0-.59-.477c-.25-.125-.571-.188-.961-.188-.534 0-.979.123-1.335.37-.352.242-.528.55-.528.926 0 .333.121.596.363.79.243.193.622.354 1.137.482l1.295.319c.78.189 1.362.479 1.744.869.383.386.574.884.574 1.494 0 .5-.144.947-.432 1.341-.284.394-.681.705-1.193.932-.511.227-1.106.34-1.784.34-.89 0-1.627-.192-2.21-.579-.583-.386-.953-.95-1.108-1.693l1.273-.318c.121.47.35.822.687 1.057.341.235.786.352 1.335.352.625 0 1.122-.133 1.489-.398.371-.269.557-.59.557-.966 0-.303-.106-.556-.318-.761-.212-.208-.538-.364-.978-.466l-1.454-.34c-.799-.19-1.386-.484-1.761-.882-.372-.401-.557-.903-.557-1.505 0-.493.138-.928.415-1.307a2.82 2.82 0 0 1 1.142-.892c.484-.216 1.034-.324 1.647-.324.864 0 1.542.19 2.034.568.497.38.849.88 1.057 1.5Zm7.678 3.205v-5.16h1.341V87h-1.341v-1.477h-.091c-.205.443-.523.82-.955 1.13-.431.307-.977.46-1.636.46-.546 0-1.03-.119-1.455-.357-.424-.243-.757-.606-1-1.091-.242-.489-.363-1.104-.363-1.847v-5.545h1.341v5.454c0 .637.178 1.144.534 1.523.36.379.818.568 1.375.568a2.29 2.29 0 0 0 1.017-.255c.348-.171.64-.432.875-.785.238-.352.358-.8.358-1.346ZM412.337 87v-8.727h1.295v1.363h.114a2.2 2.2 0 0 1 .88-1.085c.406-.261.892-.392 1.461-.392.575 0 1.055.13 1.437.392.387.258.688.62.904 1.085h.09c.224-.45.559-.808 1.006-1.073.447-.27.983-.404 1.608-.404.78 0 1.419.244 1.915.733.496.485.744 1.24.744 2.267V87h-1.341v-5.84c0-.645-.176-1.105-.528-1.382a1.955 1.955 0 0 0-1.244-.414c-.614 0-1.089.185-1.427.556-.337.368-.505.834-.505 1.398V87h-1.364v-5.977c0-.496-.161-.896-.483-1.2-.322-.306-.737-.46-1.244-.46-.349 0-.674.093-.977.279-.3.186-.542.443-.728.773a2.279 2.279 0 0 0-.272 1.13V87h-1.341Zm17.565.182c-.841 0-1.566-.186-2.176-.557a3.742 3.742 0 0 1-1.404-1.568c-.325-.674-.488-1.459-.488-2.353 0-.893.163-1.681.488-2.363.33-.686.788-1.22 1.375-1.602.591-.387 1.281-.58 2.069-.58.454 0 .903.076 1.346.227.443.152.847.398 1.21.739.364.337.654.784.87 1.34.216.558.324 1.243.324 2.058v.568h-6.728v-1.16h5.364c0-.492-.098-.931-.295-1.317a2.232 2.232 0 0 0-.83-.915c-.356-.224-.777-.335-1.261-.335-.534 0-.997.132-1.387.397a2.623 2.623 0 0 0-.892 1.023c-.208.42-.312.871-.312 1.352v.773c0 .66.113 1.218.341 1.676.231.455.551.801.96 1.04.409.235.884.352 1.426.352.352 0 .67-.049.955-.148.287-.102.536-.253.744-.454.208-.204.369-.458.483-.761l1.295.363a2.87 2.87 0 0 1-.687 1.16c-.322.329-.72.587-1.193.772a4.43 4.43 0 0 1-1.597.273ZM440.055 87v-8.727h1.296v1.318h.091c.159-.432.447-.782.863-1.051a2.544 2.544 0 0 1 1.409-.404c.099 0 .222.002.37.006s.259.01.335.017v1.364a4.014 4.014 0 0 0-.312-.051 3.09 3.09 0 0 0-.506-.04 2.38 2.38 0 0 0-1.137.267c-.329.174-.59.416-.784.727a1.964 1.964 0 0 0-.284 1.051V87h-1.341Zm9.347.182c-.841 0-1.566-.186-2.176-.557a3.742 3.742 0 0 1-1.404-1.568c-.325-.674-.488-1.459-.488-2.353 0-.893.163-1.681.488-2.363.33-.686.788-1.22 1.375-1.602.591-.387 1.281-.58 2.069-.58.454 0 .903.076 1.346.227.443.152.847.398 1.21.739.364.337.654.784.87 1.34.216.558.324 1.243.324 2.058v.568h-6.728v-1.16h5.364c0-.492-.098-.931-.295-1.317a2.232 2.232 0 0 0-.83-.915c-.356-.224-.777-.335-1.261-.335-.534 0-.997.132-1.387.397a2.623 2.623 0 0 0-.892 1.023c-.208.42-.312.871-.312 1.352v.773c0 .66.113 1.218.341 1.676.231.455.551.801.96 1.04.409.235.884.352 1.426.352.352 0 .67-.049.955-.148.287-.102.536-.253.744-.454.208-.204.369-.458.483-.761l1.295.363a2.87 2.87 0 0 1-.687 1.16c-.322.329-.72.587-1.193.772a4.43 4.43 0 0 1-1.597.273Zm12.524-8.91L458.699 87h-1.364l-3.227-8.727h1.454l2.41 6.954h.09l2.41-6.954h1.454Zm1.77 8.728v-8.727h1.341V87h-1.341Zm.682-10.182a.951.951 0 0 1-.676-.267.857.857 0 0 1-.279-.642c0-.25.093-.464.279-.642a.951.951 0 0 1 .676-.267c.261 0 .485.089.67.267.19.178.284.392.284.642s-.094.464-.284.642a.932.932 0 0 1-.67.267Zm6.774 10.364c-.841 0-1.566-.186-2.176-.557a3.742 3.742 0 0 1-1.404-1.568c-.325-.674-.488-1.459-.488-2.353 0-.893.163-1.681.488-2.363.33-.686.788-1.22 1.375-1.602.591-.387 1.281-.58 2.069-.58.454 0 .903.076 1.346.227.443.152.847.398 1.21.739.364.337.654.784.87 1.34.216.558.324 1.243.324 2.058v.568h-6.728v-1.16h5.364c0-.492-.098-.931-.295-1.317a2.232 2.232 0 0 0-.83-.915c-.356-.224-.777-.335-1.261-.335-.534 0-.997.132-1.387.397a2.623 2.623 0 0 0-.892 1.023c-.208.42-.312.871-.312 1.352v.773c0 .66.113 1.218.341 1.676.231.455.551.801.96 1.04.409.235.884.352 1.426.352.352 0 .67-.049.955-.148.287-.102.536-.253.744-.454.208-.204.369-.458.483-.761l1.295.363a2.87 2.87 0 0 1-.687 1.16c-.322.329-.72.587-1.193.772a4.43 4.43 0 0 1-1.597.273Zm7.631-.182-2.659-8.727h1.409l1.886 6.681h.091l1.864-6.681h1.431l1.841 6.659h.091l1.887-6.66h1.409L485.374 87h-1.319l-1.909-6.704h-.136L480.101 87h-1.318Z"/>
  <rect width="147" height="39" x="358" y="62" stroke="#F4CE71" stroke-width="2" rx="19.5"/>
  <rect width="108" height="39" x="358" y="123" fill="#fff" rx="19.5"/>
  <path fill="#1E4460" d="M376.818 136.364V148h-1.409v-11.636h1.409Zm3.985 6.386V148h-1.341v-8.727h1.295v1.363h.114c.204-.443.515-.799.932-1.068.416-.273.954-.409 1.613-.409.591 0 1.108.121 1.551.364.444.238.788.602 1.034 1.091.247.484.37 1.098.37 1.841V148h-1.341v-5.455c0-.685-.178-1.219-.534-1.602-.356-.386-.845-.579-1.466-.579-.428 0-.811.092-1.148.278a1.998 1.998 0 0 0-.79.813c-.193.356-.289.787-.289 1.295Zm11.813-3.477v1.136h-4.522v-1.136h4.522Zm-3.204-2.091h1.341v8.318c0 .379.055.663.165.852a.847.847 0 0 0 .431.375c.178.061.366.091.563.091.148 0 .269-.007.364-.023l.227-.045.273 1.205a2.74 2.74 0 0 1-.381.102 2.792 2.792 0 0 1-.619.057 2.7 2.7 0 0 1-1.114-.245 2.217 2.217 0 0 1-.898-.744c-.235-.333-.352-.754-.352-1.261v-8.682Zm8.787 11c-.841 0-1.566-.186-2.176-.557a3.744 3.744 0 0 1-1.404-1.568c-.325-.674-.488-1.459-.488-2.352 0-.894.163-1.682.488-2.364.33-.686.788-1.22 1.375-1.602.591-.387 1.281-.58 2.068-.58.455 0 .904.076 1.347.227.443.152.847.398 1.21.739.364.337.654.784.87 1.341.216.557.323 1.242.323 2.057v.568h-6.727v-1.159h5.364c0-.493-.099-.932-.296-1.318a2.217 2.217 0 0 0-.829-.915c-.356-.224-.777-.335-1.262-.335-.534 0-.996.132-1.386.397a2.625 2.625 0 0 0-.892 1.023 3.01 3.01 0 0 0-.312 1.352v.773c0 .659.113 1.218.34 1.676.232.455.552.801.961 1.04.409.235.884.352 1.426.352.352 0 .67-.049.954-.147.288-.103.536-.254.745-.455.208-.205.369-.458.483-.761l1.295.363a2.86 2.86 0 0 1-.687 1.159 3.35 3.35 0 0 1-1.194.773 4.416 4.416 0 0 1-1.596.273Zm5.653-.182v-8.727h1.296v1.318h.091c.159-.432.447-.782.863-1.051a2.544 2.544 0 0 1 1.409-.404c.099 0 .222.002.37.006.147.004.259.01.335.017v1.364a3.462 3.462 0 0 0-.313-.051 3.014 3.014 0 0 0-.505-.04c-.425 0-.803.089-1.137.267a2.019 2.019 0 0 0-.784.727 1.963 1.963 0 0 0-.284 1.051V148h-1.341Zm7.294-5.25V148h-1.341v-8.727h1.296v1.363h.113c.205-.443.516-.799.932-1.068.417-.273.955-.409 1.614-.409.591 0 1.108.121 1.551.364.443.238.788.602 1.034 1.091.246.484.369 1.098.369 1.841V148h-1.34v-5.455c0-.685-.178-1.219-.535-1.602-.356-.386-.844-.579-1.465-.579-.428 0-.811.092-1.148.278a1.992 1.992 0 0 0-.79.813c-.193.356-.29.787-.29 1.295Zm14.201-1.523-1.205.341a2.224 2.224 0 0 0-.335-.585 1.63 1.63 0 0 0-.591-.477c-.25-.125-.57-.188-.96-.188-.534 0-.979.123-1.336.37-.352.242-.528.551-.528.926 0 .333.121.596.364.789.242.194.621.355 1.136.483l1.296.319c.78.189 1.361.479 1.744.869.382.386.574.884.574 1.494 0 .5-.144.947-.432 1.341-.284.394-.682.705-1.193.932-.512.227-1.106.341-1.784.341-.891 0-1.627-.193-2.211-.58-.583-.386-.952-.95-1.108-1.693l1.273-.318c.121.47.351.822.688 1.057.341.235.786.352 1.335.352.625 0 1.121-.133 1.488-.398.372-.269.557-.591.557-.966 0-.303-.106-.556-.318-.761-.212-.208-.538-.364-.977-.466l-1.455-.341c-.799-.189-1.386-.483-1.761-.88-.371-.402-.557-.904-.557-1.506 0-.493.138-.928.415-1.307a2.82 2.82 0 0 1 1.142-.892c.485-.216 1.034-.324 1.648-.324.863 0 1.541.189 2.034.568a3.07 3.07 0 0 1 1.057 1.5Zm3.518 1.523V148h-1.341v-11.636h1.341v4.272h.114c.204-.45.511-.808.92-1.074.413-.268.962-.403 1.648-.403.595 0 1.115.119 1.562.358a2.41 2.41 0 0 1 1.04 1.085c.25.485.375 1.103.375 1.853V148h-1.341v-5.455c0-.693-.18-1.229-.54-1.607-.356-.383-.85-.574-1.482-.574-.44 0-.834.092-1.182.278a2.025 2.025 0 0 0-.818.813c-.197.356-.296.787-.296 1.295Zm8.112 5.25v-8.727h1.341V148h-1.341Zm.682-10.182a.953.953 0 0 1-.676-.267.856.856 0 0 1-.278-.642c0-.25.092-.464.278-.642a.953.953 0 0 1 .676-.267c.261 0 .485.089.671.267a.851.851 0 0 1 .284.642c0 .25-.095.464-.284.642a.936.936 0 0 1-.671.267Zm3.115 13.455v-12h1.296v1.386h.159c.098-.151.235-.345.409-.579.178-.239.432-.451.761-.637.333-.189.784-.284 1.352-.284.735 0 1.383.184 1.944.551.56.368.998.888 1.312 1.563.314.674.472 1.469.472 2.386 0 .924-.158 1.725-.472 2.403-.314.675-.75 1.197-1.307 1.569-.557.367-1.199.551-1.926.551-.56 0-1.009-.093-1.346-.279-.338-.189-.597-.403-.779-.642a8.279 8.279 0 0 1-.42-.602h-.114v4.614h-1.341Zm1.318-7.637c0 .659.097 1.241.29 1.745.193.5.475.892.847 1.176.371.28.825.42 1.363.42.561 0 1.029-.147 1.404-.443.379-.299.663-.701.852-1.204.193-.508.29-1.072.29-1.694 0-.613-.095-1.166-.284-1.659-.186-.496-.468-.888-.847-1.176-.375-.292-.846-.437-1.415-.437-.545 0-1.003.138-1.375.414-.371.273-.651.656-.841 1.148-.189.489-.284 1.059-.284 1.71Z"/>
  <rect width="108" height="39" x="358" y="123" stroke="#F4CE71" stroke-width="2" rx="19.5"/>
  <rect width="156" height="39" x="358" y="184" fill="#fff" rx="19.5"/>
  <path fill="#1E4460" d="M375.409 197.364h1.682l3.954 9.659h.137l3.954-9.659h1.682V209H385.5v-8.841h-.114L381.75 209h-1.273l-3.636-8.841h-.114V209h-1.318v-11.636Zm17.712 11.818c-.841 0-1.567-.186-2.176-.557a3.744 3.744 0 0 1-1.404-1.568c-.326-.674-.488-1.459-.488-2.352 0-.894.162-1.682.488-2.364.33-.686.788-1.22 1.375-1.602.591-.387 1.28-.58 2.068-.58.455 0 .904.076 1.347.227.443.152.847.398 1.21.739.364.337.654.784.87 1.341.215.557.323 1.242.323 2.057v.568h-6.727v-1.159h5.364c0-.493-.099-.932-.296-1.318a2.217 2.217 0 0 0-.829-.915c-.356-.224-.777-.335-1.262-.335-.534 0-.996.132-1.386.397a2.625 2.625 0 0 0-.892 1.023 3.01 3.01 0 0 0-.313 1.352v.773c0 .659.114 1.218.341 1.676.231.455.552.801.961 1.04.409.235.884.352 1.426.352.352 0 .67-.049.954-.147.288-.103.536-.254.745-.455.208-.205.369-.458.483-.761l1.295.363c-.136.44-.366.826-.687 1.159a3.35 3.35 0 0 1-1.194.773 4.416 4.416 0 0 1-1.596.273Zm6.994-5.432V209h-1.341v-8.727h1.296v1.363h.113c.205-.443.515-.799.932-1.068.417-.273.955-.409 1.614-.409.591 0 1.108.121 1.551.364.443.238.788.602 1.034 1.091.246.484.369 1.098.369 1.841V209h-1.341v-5.455c0-.685-.178-1.219-.534-1.602-.356-.386-.844-.579-1.466-.579-.428 0-.81.092-1.147.278a1.985 1.985 0 0 0-.79.813c-.193.356-.29.787-.29 1.295Zm11.814-3.477v1.136h-4.523v-1.136h4.523Zm-3.205-2.091h1.341v8.318c0 .379.055.663.165.852a.853.853 0 0 0 .432.375c.178.061.365.091.562.091.148 0 .269-.007.364-.023l.227-.045.273 1.205a2.74 2.74 0 0 1-.381.102 2.785 2.785 0 0 1-.619.057 2.7 2.7 0 0 1-1.114-.245 2.214 2.214 0 0 1-.897-.744c-.235-.333-.353-.754-.353-1.261v-8.682Zm8.674 11c-.788 0-1.479-.188-2.074-.563-.591-.375-1.053-.899-1.386-1.574-.33-.674-.495-1.462-.495-2.363 0-.909.165-1.703.495-2.381.333-.678.795-1.204 1.386-1.579.595-.375 1.286-.563 2.074-.563.788 0 1.477.188 2.068.563.595.375 1.057.901 1.386 1.579.334.678.5 1.472.5 2.381 0 .901-.166 1.689-.5 2.363a3.758 3.758 0 0 1-1.386 1.574c-.591.375-1.28.563-2.068.563Zm0-1.205c.598 0 1.091-.153 1.477-.46a2.72 2.72 0 0 0 .858-1.21c.186-.5.278-1.042.278-1.625 0-.584-.092-1.127-.278-1.631a2.748 2.748 0 0 0-.858-1.221c-.386-.311-.879-.466-1.477-.466-.599 0-1.091.155-1.478.466-.386.31-.672.717-.858 1.221a4.695 4.695 0 0 0-.278 1.631c0 .583.093 1.125.278 1.625.186.5.472.903.858 1.21.387.307.879.46 1.478.46Zm6.001 1.023v-8.727h1.296v1.318h.091c.159-.432.446-.782.863-1.051a2.544 2.544 0 0 1 1.409-.404c.099 0 .222.002.37.006.147.004.259.01.335.017v1.364a3.462 3.462 0 0 0-.313-.051 3.014 3.014 0 0 0-.505-.04c-.425 0-.803.089-1.137.267a2.019 2.019 0 0 0-.784.727 1.963 1.963 0 0 0-.284 1.051V209h-1.341Zm5.953 0v-8.727h1.341V209h-1.341Zm.682-10.182a.953.953 0 0 1-.676-.267.856.856 0 0 1-.278-.642c0-.25.092-.464.278-.642a.953.953 0 0 1 .676-.267c.261 0 .485.089.671.267a.851.851 0 0 1 .284.642c0 .25-.095.464-.284.642a.936.936 0 0 1-.671.267Zm4.456 4.932V209h-1.341v-8.727h1.296v1.363h.113c.205-.443.515-.799.932-1.068.417-.273.955-.409 1.614-.409.591 0 1.108.121 1.551.364.443.238.788.602 1.034 1.091.246.484.369 1.098.369 1.841V209h-1.341v-5.455c0-.685-.178-1.219-.534-1.602-.356-.386-.844-.579-1.466-.579-.428 0-.81.092-1.147.278a1.985 1.985 0 0 0-.79.813c-.193.356-.29.787-.29 1.295Zm11.541 8.705c-.647 0-1.204-.084-1.67-.25a3.55 3.55 0 0 1-1.165-.648 3.54 3.54 0 0 1-.733-.852l1.068-.75c.121.159.275.34.46.545.186.208.44.388.762.54.326.155.752.233 1.278.233.705 0 1.286-.171 1.745-.512.458-.341.687-.875.687-1.602v-1.773h-.114a7.079 7.079 0 0 1-.42.591c-.178.231-.436.438-.773.62-.333.178-.784.267-1.352.267a3.646 3.646 0 0 1-1.898-.5c-.557-.334-.998-.819-1.324-1.455-.322-.636-.483-1.409-.483-2.318 0-.894.158-1.672.472-2.335.314-.667.752-1.182 1.313-1.546.56-.367 1.208-.551 1.943-.551.568 0 1.019.095 1.352.284.337.186.595.398.773.637.182.234.322.428.42.579h.137v-1.386h1.295v8.977c0 .75-.17 1.36-.511 1.83-.338.473-.792.82-1.364 1.039a5.135 5.135 0 0 1-1.898.336Zm-.045-4.796c.538 0 .992-.123 1.363-.369.372-.246.654-.601.847-1.063.193-.462.29-1.015.29-1.659 0-.629-.095-1.184-.284-1.665-.19-.481-.47-.858-.841-1.13-.371-.273-.83-.409-1.375-.409-.568 0-1.042.144-1.421.431a2.628 2.628 0 0 0-.846 1.16 4.465 4.465 0 0 0-.279 1.613c0 .606.095 1.142.284 1.608.194.462.478.826.853 1.091.378.261.848.392 1.409.392Zm14.659-7.386v1.136h-4.705v-1.136h4.705ZM457.349 209v-9.932c0-.5.118-.916.353-1.25.235-.333.539-.583.914-.75.375-.166.771-.25 1.188-.25.33 0 .598.027.807.08.208.053.363.102.466.147l-.387 1.16a5.962 5.962 0 0 0-.284-.086 1.721 1.721 0 0 0-.466-.051c-.443 0-.763.112-.96.335-.193.224-.29.552-.29.983V209h-1.341Zm8.361.182c-.788 0-1.479-.188-2.074-.563-.591-.375-1.053-.899-1.386-1.574-.33-.674-.494-1.462-.494-2.363 0-.909.164-1.703.494-2.381.333-.678.795-1.204 1.386-1.579.595-.375 1.286-.563 2.074-.563.788 0 1.478.188 2.068.563.595.375 1.057.901 1.387 1.579.333.678.5 1.472.5 2.381 0 .901-.167 1.689-.5 2.363-.33.675-.792 1.199-1.387 1.574-.59.375-1.28.563-2.068.563Zm0-1.205c.599 0 1.091-.153 1.478-.46a2.71 2.71 0 0 0 .857-1.21c.186-.5.279-1.042.279-1.625 0-.584-.093-1.127-.279-1.631a2.738 2.738 0 0 0-.857-1.221c-.387-.311-.879-.466-1.478-.466-.598 0-1.091.155-1.477.466-.386.31-.672.717-.858 1.221a4.671 4.671 0 0 0-.278 1.631c0 .583.092 1.125.278 1.625.186.5.472.903.858 1.21.386.307.879.46 1.477.46Zm6.002 1.023v-8.727h1.295v1.318h.091c.159-.432.447-.782.864-1.051a2.54 2.54 0 0 1 1.409-.404c.098 0 .221.002.369.006s.26.01.335.017v1.364a3.351 3.351 0 0 0-.312-.051 3.026 3.026 0 0 0-.506-.04c-.424 0-.803.089-1.136.267a1.954 1.954 0 0 0-1.068 1.778V209h-1.341Zm13.021.205a3.554 3.554 0 0 1-1.506-.313 2.592 2.592 0 0 1-1.074-.915c-.265-.401-.397-.886-.397-1.454 0-.5.098-.906.295-1.216.197-.315.46-.561.79-.739.329-.178.693-.31 1.091-.398.401-.09.805-.162 1.21-.215.53-.069.96-.12 1.29-.154.333-.038.576-.1.727-.187.155-.087.233-.239.233-.455v-.045c0-.561-.153-.997-.46-1.307-.303-.311-.763-.466-1.381-.466-.64 0-1.142.14-1.506.42-.363.281-.619.58-.767.898l-1.272-.454c.227-.531.53-.944.909-1.239a3.398 3.398 0 0 1 1.25-.625 5.193 5.193 0 0 1 1.341-.182c.28 0 .602.034.966.102.367.065.721.199 1.062.404.345.204.631.513.858.926.227.413.341.966.341 1.659V209h-1.341v-1.182h-.068a2.36 2.36 0 0 1-.455.608c-.212.216-.494.4-.846.551-.353.152-.782.228-1.29.228Zm.205-1.205c.53 0 .977-.104 1.34-.312.368-.209.644-.478.83-.807.189-.33.284-.676.284-1.04v-1.227c-.057.068-.182.13-.375.187a6.143 6.143 0 0 1-.659.142c-.246.038-.487.072-.722.102-.231.027-.418.05-.562.069a5.097 5.097 0 0 0-.977.221c-.3.099-.542.248-.728.449-.181.197-.272.466-.272.807 0 .466.172.818.517 1.057.348.235.789.352 1.324.352Zm7.583-10.636V209h-1.341v-11.636h1.341Zm3.797 0V209h-1.341v-11.636h1.341Z"/>
  <rect width="156" height="39" x="358" y="184" stroke="#F4CE71" stroke-width="2" rx="19.5"/>
  <path fill="#F4CE71" d="M234 110a1 1 0 0 0 0 2v-2Zm119.707-88.793a1 1 0 0 0 0-1.414l-6.364-6.364a1 1 0 1 0-1.414 1.414l5.657 5.657-5.657 5.657a1 1 0 1 0 1.414 1.414l6.364-6.364ZM234 112h1v-2h-1v2Zm26-25V44.5h-2V87h2Zm23-65.5h70v-2h-70v2Zm-23 23c0-12.703 10.297-23 23-23v-2c-13.807 0-25 11.193-25 25h2ZM235 112c13.807 0 25-11.193 25-25h-2c0 12.703-10.297 23-23 23v2Z"/>
  <path fill="#F4CE71" d="M234 110a1 1 0 0 0 0 2v-2Zm119.707-27.793a1 1 0 0 0 0-1.414l-6.364-6.364a1 1 0 1 0-1.414 1.414l5.657 5.657-5.657 5.657a1 1 0 1 0 1.414 1.414l6.364-6.364ZM234 112h7.25v-2H234v2Zm36.75-29.5H353v-2h-82.25v2ZM257 96.25c0-7.594 6.156-13.75 13.75-13.75v-2c-8.698 0-15.75 7.052-15.75 15.75h2ZM241.25 112c8.698 0 15.75-7.052 15.75-15.75h-2c0 7.594-6.156 13.75-13.75 13.75v2Z"/>
  <path fill="#F4CE71" d="M234 110a1 1 0 0 0 0 2v-2Zm119.707 94.207a.999.999 0 0 0 0-1.414l-6.364-6.364a.999.999 0 1 0-1.414 1.414l5.657 5.657-5.657 5.657a.999.999 0 1 0 1.414 1.414l6.364-6.364ZM234 112h1v-2h-1v2Zm24 23v44.5h2V135h-2Zm25 69.5h70v-2h-70v2Zm-25-25c0 13.807 11.193 25 25 25v-2c-12.703 0-23-10.297-23-23h-2ZM235 112c12.703 0 23 10.297 23 23h2c0-13.807-11.193-25-25-25v2Z"/>
  <path fill="#F4CE71" d="M234 110a1 1 0 0 0 0 2v-2Zm119.707 33.207a.999.999 0 0 0 0-1.414l-6.364-6.364a.999.999 0 1 0-1.414 1.414l5.657 5.657-5.657 5.657a.999.999 0 1 0 1.414 1.414l6.364-6.364ZM234 112h9.25v-2H234v2Zm40.75 31.5H353v-2h-78.25v2ZM258 126.75c0 9.251 7.499 16.75 16.75 16.75v-2c-8.146 0-14.75-6.604-14.75-14.75h-2ZM243.25 112c8.146 0 14.75 6.604 14.75 14.75h2c0-9.251-7.499-16.75-16.75-16.75v2Z"/>
</svg>
