<svg xmlns="http://www.w3.org/2000/svg" width="594" height="170" fill="none" viewBox="0 0 594 170">
  <rect width="572" height="140" x="2.227" y="28.5" fill="#F4CE71" fill-opacity=".21" rx="18.5"/>
  <path fill="#1E4460" d="M36.727 55.864c-.459 0-.877-.112-1.256-.336a2.612 2.612 0 0 1-.91-.909 2.425 2.425 0 0 1-.334-1.255c0-.462.111-.881.335-1.256.227-.379.53-.68.909-.903a2.388 2.388 0 0 1 1.256-.341c.462 0 .88.113 1.255.34.379.224.68.525.904.904.227.375.34.794.34 1.256 0 .458-.113.877-.34 1.255a2.565 2.565 0 0 1-.904.91 2.406 2.406 0 0 1-1.255.335ZM50.136 58V46.364h1.409v5.772h.136l5.227-5.772h1.841l-4.886 5.25L58.749 58h-1.704l-4.046-5.41-1.454 1.637V58h-1.41Zm13.274.182c-.841 0-1.566-.186-2.176-.557a3.737 3.737 0 0 1-1.404-1.568c-.325-.674-.488-1.459-.488-2.352 0-.894.163-1.682.488-2.364.33-.686.788-1.22 1.375-1.602.591-.387 1.28-.58 2.068-.58.455 0 .904.076 1.347.227.443.152.847.398 1.21.739.364.337.654.784.87 1.34.215.558.323 1.243.323 2.058v.568h-6.727v-1.16h5.364c0-.492-.099-.931-.296-1.317a2.226 2.226 0 0 0-.83-.915c-.355-.224-.776-.335-1.26-.335-.535 0-.997.132-1.387.397a2.616 2.616 0 0 0-.892 1.023c-.208.42-.313.871-.313 1.352v.773c0 .66.114 1.218.341 1.676.231.455.552.801.96 1.04.41.235.885.352 1.427.352.352 0 .67-.049.954-.147.288-.103.536-.254.745-.455.208-.205.369-.458.483-.761l1.295.363a2.87 2.87 0 0 1-.687 1.16c-.322.329-.72.587-1.194.772a4.426 4.426 0 0 1-1.596.273Zm9.312 0c-.84 0-1.566-.186-2.176-.557a3.737 3.737 0 0 1-1.403-1.568c-.326-.674-.489-1.459-.489-2.352 0-.894.163-1.682.489-2.364.33-.686.788-1.22 1.375-1.602.59-.387 1.28-.58 2.068-.58.454 0 .903.076 1.347.227.443.152.846.398 1.21.739.363.337.653.784.87 1.34.215.558.323 1.243.323 2.058v.568h-6.727v-1.16h5.363c0-.492-.098-.931-.295-1.317a2.226 2.226 0 0 0-.83-.915c-.356-.224-.776-.335-1.261-.335-.534 0-.996.132-1.386.397a2.616 2.616 0 0 0-.892 1.023c-.209.42-.313.871-.313 1.352v.773c0 .66.114 1.218.34 1.676.232.455.552.801.961 1.04.41.235.885.352 1.426.352.353 0 .67-.049.955-.147.288-.103.536-.254.744-.455.208-.205.37-.458.483-.761l1.296.363c-.137.44-.366.826-.688 1.16-.322.329-.72.587-1.193.772a4.426 4.426 0 0 1-1.597.273Zm5.654 3.09v-12h1.295v1.387h.16c.098-.151.234-.345.408-.58.178-.238.432-.45.762-.636.333-.19.784-.284 1.352-.284.735 0 1.383.184 1.943.551.56.368.998.889 1.313 1.563.314.674.471 1.47.471 2.386 0 .924-.157 1.726-.471 2.404-.315.674-.75 1.197-1.307 1.568-.557.367-1.199.55-1.926.55-.56 0-1.01-.092-1.347-.278-.337-.189-.596-.403-.778-.642a8.589 8.589 0 0 1-.42-.602h-.114v4.614h-1.341Zm1.318-7.636c0 .66.096 1.24.29 1.745.193.5.475.892.846 1.176.371.28.826.42 1.364.42.56 0 1.028-.147 1.403-.443.38-.3.663-.7.853-1.204.193-.508.29-1.072.29-1.694 0-.613-.095-1.166-.285-1.659-.185-.496-.468-.888-.846-1.176-.375-.291-.847-.437-1.415-.437-.546 0-1.004.138-1.375.414-.371.273-.652.656-.841 1.148-.19.489-.284 1.059-.284 1.71Zm15.5 4.569a3.546 3.546 0 0 1-1.506-.313 2.585 2.585 0 0 1-1.074-.915c-.265-.401-.397-.886-.397-1.454 0-.5.098-.906.295-1.216.197-.315.46-.56.79-.739.33-.178.693-.31 1.09-.398.402-.09.806-.162 1.211-.215.53-.069.96-.12 1.29-.154.333-.038.576-.1.727-.187.155-.087.233-.239.233-.455v-.045c0-.561-.153-.997-.46-1.307-.303-.31-.764-.466-1.38-.466-.641 0-1.143.14-1.507.42-.363.28-.619.58-.767.898l-1.272-.454c.227-.53.53-.944.909-1.24a3.411 3.411 0 0 1 1.25-.624 5.19 5.19 0 0 1 1.34-.182c.28 0 .603.034.967.102a3.09 3.09 0 0 1 1.062.404c.345.204.63.513.858.926.227.413.34.966.34 1.659V58h-1.34v-1.182h-.068a2.36 2.36 0 0 1-.455.608c-.212.216-.494.4-.846.551-.353.152-.782.228-1.29.228ZM95.398 57c.53 0 .978-.104 1.341-.313a2.127 2.127 0 0 0 1.114-1.846v-1.227c-.057.068-.182.13-.375.187-.19.053-.41.1-.66.142a29.881 29.881 0 0 1-1.283.17c-.349.046-.674.12-.977.222a1.68 1.68 0 0 0-.728.45c-.182.196-.272.465-.272.806 0 .466.172.818.517 1.057.348.235.79.352 1.323.352Zm7.584-4.25V58h-1.341v-8.727h1.296v1.363h.113a2.5 2.5 0 0 1 .932-1.068c.417-.273.955-.409 1.614-.409.591 0 1.108.121 1.551.364a2.45 2.45 0 0 1 1.034 1.09c.246.486.369 1.1.369 1.842V58h-1.34v-5.455c0-.685-.179-1.22-.535-1.602-.356-.386-.844-.58-1.465-.58-.429 0-.811.093-1.148.279a1.988 1.988 0 0 0-.79.813c-.193.356-.29.787-.29 1.295Zm16.178 5.432c-.841 0-1.566-.186-2.176-.557a3.742 3.742 0 0 1-1.404-1.568c-.326-.674-.488-1.459-.488-2.352 0-.894.162-1.682.488-2.364.33-.686.788-1.22 1.375-1.602.591-.387 1.281-.58 2.068-.58.455 0 .904.076 1.347.227.443.152.847.398 1.21.739.364.337.654.784.87 1.34.215.558.323 1.243.323 2.058v.568h-6.727v-1.16h5.364c0-.492-.099-.931-.296-1.317a2.223 2.223 0 0 0-.829-.915c-.356-.224-.777-.335-1.262-.335-.534 0-.996.132-1.386.397a2.615 2.615 0 0 0-.892 1.023c-.208.42-.312.871-.312 1.352v.773c0 .66.113 1.218.34 1.676.231.455.552.801.961 1.04.409.235.884.352 1.426.352.352 0 .67-.049.954-.147.288-.103.536-.254.745-.455.208-.205.369-.458.483-.761l1.295.363a2.87 2.87 0 0 1-.687 1.16 3.35 3.35 0 0 1-1.194.772 4.42 4.42 0 0 1-1.596.273Zm6.251 3.09c-.227 0-.43-.018-.608-.056a1.597 1.597 0 0 1-.369-.102l.341-1.182c.326.083.613.113.863.09.25-.022.472-.134.665-.334.197-.198.377-.518.54-.96l.25-.683-3.227-8.772h1.454l2.409 6.954h.091l2.409-6.954h1.455l-3.705 10a3.77 3.77 0 0 1-.619 1.119c-.246.3-.532.52-.858.665a2.643 2.643 0 0 1-1.091.216Zm11.389-3.09c-.84 0-1.566-.186-2.176-.557a3.733 3.733 0 0 1-1.403-1.568c-.326-.674-.489-1.459-.489-2.352 0-.894.163-1.682.489-2.364.329-.686.788-1.22 1.375-1.602.591-.387 1.28-.58 2.068-.58.455 0 .903.076 1.347.227a3.34 3.34 0 0 1 1.21.739c.364.337.653.784.869 1.34.216.558.324 1.243.324 2.058v.568h-6.727v-1.16h5.363c0-.492-.098-.931-.295-1.317a2.225 2.225 0 0 0-.83-.915c-.356-.224-.776-.335-1.261-.335-.534 0-.996.132-1.386.397a2.608 2.608 0 0 0-.892 1.023c-.209.42-.313.871-.313 1.352v.773c0 .66.114 1.218.341 1.676.231.455.551.801.96 1.04.409.235.885.352 1.426.352a2.9 2.9 0 0 0 .955-.147c.288-.103.536-.254.744-.455.209-.205.37-.458.483-.761l1.296.363a2.88 2.88 0 0 1-.688 1.16 3.344 3.344 0 0 1-1.193.772 4.426 4.426 0 0 1-1.597.273Zm13.699 0c-.788 0-1.479-.188-2.074-.563-.59-.375-1.053-.9-1.386-1.574-.329-.674-.494-1.462-.494-2.363 0-.91.165-1.703.494-2.38.333-.679.796-1.205 1.386-1.58.595-.375 1.286-.563 2.074-.563.788 0 1.478.188 2.068.563.595.375 1.057.901 1.387 1.58.333.677.5 1.47.5 2.38 0 .901-.167 1.69-.5 2.363-.33.675-.792 1.2-1.387 1.574-.59.375-1.28.563-2.068.563Zm0-1.205c.599 0 1.091-.153 1.478-.46a2.72 2.72 0 0 0 .858-1.21c.185-.5.278-1.042.278-1.625 0-.584-.093-1.127-.278-1.63a2.755 2.755 0 0 0-.858-1.222c-.387-.311-.879-.466-1.478-.466-.598 0-1.091.155-1.477.466-.386.31-.672.717-.858 1.221a4.672 4.672 0 0 0-.278 1.63c0 .584.092 1.126.278 1.626.186.5.472.903.858 1.21.386.307.879.46 1.477.46Zm11.502-2.545v-5.16h1.341V58h-1.341v-1.477h-.091c-.205.443-.523.82-.955 1.13-.432.307-.977.46-1.636.46-.546 0-1.03-.119-1.455-.357-.424-.243-.757-.606-1-1.091-.242-.489-.363-1.104-.363-1.847v-5.545h1.341v5.454c0 .637.178 1.144.534 1.523.36.379.818.568 1.375.568a2.29 2.29 0 0 0 1.017-.255c.348-.171.64-.432.875-.785.238-.352.358-.8.358-1.346Zm7.592-5.16v1.137h-4.523v-1.136h4.523Zm-3.205-2.09h1.341V55.5c0 .379.055.663.165.852.114.186.258.31.432.375.178.06.366.091.562.091.148 0 .269-.007.364-.023l.227-.045.273 1.205a2.733 2.733 0 0 1-.381.102 2.793 2.793 0 0 1-.619.057 2.7 2.7 0 0 1-1.114-.245 2.212 2.212 0 0 1-.897-.744c-.235-.333-.353-.754-.353-1.261v-8.682ZM176.11 58v-8.727h1.341V58h-1.341Zm.682-10.182a.953.953 0 0 1-.676-.267.857.857 0 0 1-.279-.642c0-.25.093-.464.279-.642a.953.953 0 0 1 .676-.267c.261 0 .485.089.67.267.19.178.284.392.284.642s-.094.464-.284.642a.932.932 0 0 1-.67.267Zm4.456 4.932V58h-1.341v-8.727h1.295v1.363h.114c.205-.443.515-.799.932-1.068.417-.273.954-.409 1.614-.409.59 0 1.107.121 1.551.364a2.45 2.45 0 0 1 1.034 1.09c.246.486.369 1.1.369 1.842V58h-1.341v-5.455c0-.685-.178-1.22-.534-1.602-.356-.386-.845-.58-1.466-.58-.428 0-.81.093-1.148.279a1.992 1.992 0 0 0-.789.813c-.194.356-.29.787-.29 1.295Zm16.064 5.432c-.818 0-1.523-.193-2.114-.58a3.774 3.774 0 0 1-1.363-1.596c-.319-.678-.478-1.453-.478-2.324 0-.887.163-1.669.489-2.347.329-.682.788-1.214 1.375-1.596.591-.387 1.28-.58 2.068-.58a3.91 3.91 0 0 1 1.659.341 3.17 3.17 0 0 1 1.21.955c.315.409.51.886.586 1.431h-1.341c-.103-.397-.33-.75-.682-1.056-.349-.311-.818-.466-1.409-.466-.523 0-.981.136-1.375.409-.39.269-.695.65-.915 1.142-.216.488-.324 1.062-.324 1.721 0 .675.106 1.262.318 1.762.216.5.519.888.909 1.164.394.277.856.415 1.387.415a2.4 2.4 0 0 0 .949-.181c.284-.122.524-.296.721-.523.197-.228.337-.5.421-.819h1.341c-.076.516-.264.98-.563 1.393a3.142 3.142 0 0 1-1.176.977c-.485.239-1.049.358-1.693.358Zm6.733-11.818V58h-1.341V46.364h1.341Zm5.024 11.84a3.548 3.548 0 0 1-1.506-.312 2.582 2.582 0 0 1-1.074-.915c-.265-.401-.397-.886-.397-1.454 0-.5.098-.906.295-1.216.197-.315.46-.56.79-.739a4.14 4.14 0 0 1 1.091-.398c.401-.09.805-.162 1.21-.215.53-.069.96-.12 1.29-.154.333-.038.576-.1.727-.187.155-.087.233-.239.233-.455v-.045c0-.561-.153-.997-.46-1.307-.303-.31-.764-.466-1.381-.466-.64 0-1.142.14-1.506.42-.363.28-.619.58-.767.898l-1.272-.454c.227-.53.53-.944.909-1.24a3.411 3.411 0 0 1 1.25-.624 5.184 5.184 0 0 1 1.341-.182c.28 0 .602.034.966.102.367.065.721.2 1.062.404.345.204.631.513.858.926.227.413.341.966.341 1.659V58h-1.341v-1.182h-.068a2.36 2.36 0 0 1-.455.608c-.212.216-.494.4-.846.551-.353.152-.783.228-1.29.228Zm.204-1.204c.531 0 .978-.104 1.341-.313a2.128 2.128 0 0 0 1.114-1.846v-1.227c-.057.068-.182.13-.375.187a6.29 6.29 0 0 1-.659.142 29.629 29.629 0 0 1-1.284.17 5.12 5.12 0 0 0-.977.222 1.68 1.68 0 0 0-.728.45c-.182.196-.272.465-.272.806 0 .466.172.818.517 1.057.348.235.789.352 1.323.352Zm12.425-5.773-1.204.341a2.238 2.238 0 0 0-.336-.585 1.628 1.628 0 0 0-.591-.477c-.25-.125-.57-.188-.96-.188-.534 0-.979.123-1.335.37-.352.242-.528.55-.528.926 0 .333.121.596.363.79.243.193.621.354 1.137.482l1.295.319c.78.189 1.362.479 1.744.869.383.386.574.884.574 1.494 0 .5-.144.947-.432 1.341-.284.394-.681.705-1.193.932-.511.227-1.106.34-1.784.34-.89 0-1.627-.192-2.21-.579-.583-.386-.953-.95-1.108-1.693l1.273-.318c.121.47.35.822.687 1.057.341.235.786.352 1.335.352.625 0 1.122-.133 1.489-.398.371-.269.557-.59.557-.966 0-.303-.106-.556-.318-.761-.212-.208-.538-.364-.978-.466l-1.454-.34c-.799-.19-1.386-.484-1.761-.882-.372-.401-.557-.903-.557-1.505 0-.493.138-.928.414-1.307a2.824 2.824 0 0 1 1.143-.892c.484-.216 1.034-.324 1.647-.324.864 0 1.542.19 2.034.568.497.38.849.88 1.057 1.5Zm8.36 0-1.205.341a2.262 2.262 0 0 0-.335-.585 1.628 1.628 0 0 0-.591-.477c-.25-.125-.57-.188-.96-.188-.534 0-.98.123-1.336.37-.352.242-.528.55-.528.926 0 .333.121.596.364.79.242.193.621.354 1.136.482l1.295.319c.781.189 1.362.479 1.745.869.382.386.574.884.574 1.494 0 .5-.144.947-.432 1.341-.284.394-.682.705-1.193.932-.512.227-1.106.34-1.784.34-.891 0-1.627-.192-2.211-.579-.583-.386-.952-.95-1.108-1.693l1.273-.318c.121.47.35.822.688 1.057.34.235.786.352 1.335.352.625 0 1.121-.133 1.488-.398.372-.269.557-.59.557-.966 0-.303-.106-.556-.318-.761-.212-.208-.538-.364-.977-.466l-1.455-.34c-.799-.19-1.386-.484-1.761-.882-.371-.401-.557-.903-.557-1.505 0-.493.138-.928.415-1.307a2.82 2.82 0 0 1 1.142-.892c.485-.216 1.034-.324 1.648-.324.863 0 1.541.19 2.034.568.496.38.848.88 1.057 1.5Zm3.154 6.864c-.28 0-.52-.1-.721-.301a.983.983 0 0 1-.301-.722c0-.28.1-.52.301-.721a.984.984 0 0 1 .721-.302c.281 0 .521.1.722.302.201.2.301.44.301.721a.96.96 0 0 1-.142.512c-.091.155-.214.28-.369.375a.976.976 0 0 1-.512.136ZM36.727 78.864c-.459 0-.877-.112-1.256-.336a2.612 2.612 0 0 1-.91-.909 2.425 2.425 0 0 1-.334-1.255 2.4 2.4 0 0 1 .335-1.256c.227-.379.53-.68.909-.904.379-.227.797-.34 1.256-.34.462 0 .88.113 1.255.34.379.224.68.525.904.904.227.375.34.793.34 1.256 0 .458-.113.876-.34 1.255a2.565 2.565 0 0 1-.904.91 2.406 2.406 0 0 1-1.255.335Zm21.045-9.5h1.41v7.704c0 .796-.188 1.506-.563 2.13a3.939 3.939 0 0 1-1.574 1.473c-.678.355-1.474.533-2.387.533s-1.708-.177-2.386-.533a3.98 3.98 0 0 1-1.58-1.472c-.37-.625-.556-1.335-.556-2.13v-7.705h1.409v7.59c0 .569.125 1.074.375 1.518.25.439.606.786 1.068 1.04.466.25 1.023.374 1.67.374.648 0 1.205-.125 1.67-.375.467-.253.823-.6 1.069-1.04.25-.443.375-.948.375-1.517v-7.59Zm7.837 2.909v1.136h-4.523v-1.136h4.523Zm-3.205-2.091h1.341V78.5c0 .379.055.663.165.852a.85.85 0 0 0 .432.375c.178.06.365.091.562.091.148 0 .27-.007.364-.022l.227-.046.273 1.204a2.731 2.731 0 0 1-.38.103c-.164.038-.37.057-.62.057a2.7 2.7 0 0 1-1.114-.245 2.213 2.213 0 0 1-.898-.744c-.234-.333-.352-.754-.352-1.261v-8.682ZM67.626 81v-8.727h1.34V81h-1.34Zm.681-10.182a.953.953 0 0 1-.676-.267.858.858 0 0 1-.278-.642.86.86 0 0 1 .278-.642.954.954 0 0 1 .677-.267c.26 0 .484.089.67.267a.85.85 0 0 1 .284.642.85.85 0 0 1-.284.642.934.934 0 0 1-.67.267Zm4.456-1.454V81h-1.34V69.364h1.34ZM75.22 81v-8.727h1.341V81h-1.34Zm.682-10.182a.953.953 0 0 1-.676-.267.858.858 0 0 1-.278-.642.86.86 0 0 1 .278-.642.954.954 0 0 1 .676-.267.93.93 0 0 1 .67.267.85.85 0 0 1 .285.642.85.85 0 0 1-.284.642.934.934 0 0 1-.67.267ZM78.766 81v-1.023l4.955-6.363v-.091h-4.796v-1.25h6.523v1.068l-4.818 6.318v.091h4.977V81h-6.84Zm12.316.182c-.841 0-1.567-.186-2.176-.557a3.738 3.738 0 0 1-1.404-1.568c-.326-.674-.489-1.459-.489-2.353 0-.893.163-1.681.49-2.363.329-.686.787-1.22 1.374-1.602.591-.387 1.28-.58 2.068-.58.455 0 .904.076 1.347.227.443.152.846.398 1.21.739.364.337.654.784.87 1.34.215.558.323 1.243.323 2.058v.568h-6.727v-1.16h5.364c0-.492-.099-.931-.296-1.317a2.226 2.226 0 0 0-.83-.915c-.355-.224-.776-.335-1.26-.335-.535 0-.997.132-1.387.397a2.615 2.615 0 0 0-.892 1.023c-.208.42-.313.871-.313 1.352v.773c0 .66.114 1.218.341 1.676.231.455.551.801.96 1.04.41.235.885.352 1.427.352.352 0 .67-.049.954-.148.288-.102.536-.253.745-.454.208-.204.369-.458.482-.761l1.296.363c-.136.44-.366.826-.688 1.16a3.35 3.35 0 0 1-1.193.772 4.426 4.426 0 0 1-1.596.273Zm13.949-8.91v1.137h-4.523v-1.136h4.523Zm-3.205-2.09h1.341V78.5c0 .379.055.663.165.852a.85.85 0 0 0 .431.375c.179.06.366.091.563.091.148 0 .269-.007.364-.022l.227-.046.273 1.204a2.733 2.733 0 0 1-.381.103 2.8 2.8 0 0 1-.619.057 2.7 2.7 0 0 1-1.114-.245 2.215 2.215 0 0 1-.898-.744c-.235-.333-.352-.754-.352-1.261v-8.682Zm6.75 5.568V81h-1.341V69.364h1.341v4.272h.114c.204-.45.511-.808.92-1.073.413-.27.962-.404 1.648-.404.595 0 1.115.12 1.562.358a2.41 2.41 0 0 1 1.04 1.085c.25.485.375 1.102.375 1.852V81h-1.341v-5.454c0-.694-.18-1.23-.54-1.609-.356-.382-.85-.573-1.483-.573-.439 0-.833.092-1.181.278a2.037 2.037 0 0 0-.819.813c-.197.356-.295.787-.295 1.295Zm11.771 5.432c-.841 0-1.566-.186-2.176-.557a3.733 3.733 0 0 1-1.403-1.568c-.326-.674-.489-1.459-.489-2.353 0-.893.163-1.681.489-2.363.329-.686.788-1.22 1.375-1.602.591-.387 1.28-.58 2.068-.58.454 0 .903.076 1.347.227a3.34 3.34 0 0 1 1.21.739c.363.337.653.784.869 1.34.216.558.324 1.243.324 2.058v.568h-6.727v-1.16h5.363c0-.492-.098-.931-.295-1.317a2.225 2.225 0 0 0-.83-.915c-.356-.224-.776-.335-1.261-.335-.534 0-.996.132-1.386.397a2.608 2.608 0 0 0-.892 1.023c-.209.42-.313.871-.313 1.352v.773c0 .66.114 1.218.341 1.676.231.455.551.801.96 1.04.409.235.885.352 1.426.352a2.9 2.9 0 0 0 .955-.148 2.03 2.03 0 0 0 .744-.454c.208-.204.369-.458.483-.761l1.296.363a2.88 2.88 0 0 1-.688 1.16c-.322.329-.72.587-1.193.772a4.43 4.43 0 0 1-1.597.273Zm13.699 0c-.788 0-1.479-.188-2.074-.563-.591-.375-1.053-.9-1.386-1.573-.33-.675-.494-1.463-.494-2.364 0-.91.164-1.703.494-2.38.333-.679.795-1.205 1.386-1.58.595-.375 1.286-.563 2.074-.563.788 0 1.477.188 2.068.563.595.375 1.057.901 1.387 1.58.333.677.5 1.47.5 2.38 0 .901-.167 1.69-.5 2.364a3.77 3.77 0 0 1-1.387 1.573c-.591.375-1.28.563-2.068.563Zm0-1.205c.599 0 1.091-.153 1.477-.46.387-.307.673-.71.858-1.21.186-.5.279-1.042.279-1.625 0-.584-.093-1.127-.279-1.63a2.74 2.74 0 0 0-.858-1.223c-.386-.31-.878-.465-1.477-.465-.598 0-1.091.155-1.477.465a2.757 2.757 0 0 0-.858 1.222 4.672 4.672 0 0 0-.278 1.63c0 .584.092 1.126.278 1.626.186.5.472.903.858 1.21.386.307.879.46 1.477.46Zm7.342-4.227V81h-1.34v-8.727h1.295v1.363h.114c.204-.443.515-.799.931-1.068.417-.272.955-.409 1.614-.409.591 0 1.108.121 1.551.364a2.45 2.45 0 0 1 1.034 1.09c.247.486.37 1.1.37 1.841V81h-1.341v-5.454c0-.686-.178-1.22-.534-1.603-.356-.386-.845-.58-1.466-.58a2.34 2.34 0 0 0-1.148.279 1.994 1.994 0 0 0-.79.813c-.193.356-.29.787-.29 1.295Zm9.36-6.386V81h-1.341V69.364h1.341ZM153.204 81v-8.727h1.341V81h-1.341Zm.682-10.182a.951.951 0 0 1-.676-.267.857.857 0 0 1-.279-.642c0-.25.093-.464.279-.642a.951.951 0 0 1 .676-.267c.261 0 .485.089.67.267.19.178.284.392.284.642s-.094.464-.284.642a.932.932 0 0 1-.67.267Zm4.456 4.932V81h-1.341v-8.727h1.295v1.363h.114c.204-.443.515-.799.932-1.068.416-.272.954-.409 1.613-.409.591 0 1.108.121 1.551.364.444.238.788.602 1.034 1.09.247.486.37 1.1.37 1.841V81h-1.341v-5.454c0-.686-.178-1.22-.534-1.603-.356-.386-.845-.58-1.466-.58a2.34 2.34 0 0 0-1.148.279 2 2 0 0 0-.79.813c-.193.356-.289.787-.289 1.295Zm11.677 5.432c-.841 0-1.566-.186-2.176-.557a3.733 3.733 0 0 1-1.403-1.568c-.326-.674-.489-1.459-.489-2.353 0-.893.163-1.681.489-2.363.329-.686.788-1.22 1.375-1.602.591-.387 1.28-.58 2.068-.58.454 0 .903.076 1.346.227.444.152.847.398 1.211.739.363.337.653.784.869 1.34.216.558.324 1.243.324 2.058v.568h-6.727v-1.16h5.363c0-.492-.098-.931-.295-1.317a2.225 2.225 0 0 0-.83-.915c-.356-.224-.776-.335-1.261-.335-.534 0-.996.132-1.387.397a2.623 2.623 0 0 0-.892 1.023c-.208.42-.312.871-.312 1.352v.773c0 .66.114 1.218.341 1.676.231.455.551.801.96 1.04.409.235.885.352 1.426.352.352 0 .671-.049.955-.148a2.03 2.03 0 0 0 .744-.454c.208-.204.369-.458.483-.761l1.295.363a2.87 2.87 0 0 1-.687 1.16c-.322.329-.72.587-1.193.772a4.43 4.43 0 0 1-1.597.273Zm10.154 3.09v-12h1.295v1.387h.159c.099-.151.235-.345.409-.58.178-.238.432-.45.762-.636.333-.19.784-.284 1.352-.284.735 0 1.382.184 1.943.551.561.368.998.889 1.313 1.563.314.674.471 1.47.471 2.386 0 .924-.157 1.725-.471 2.403-.315.675-.75 1.198-1.307 1.569-.557.367-1.199.55-1.926.55-.561 0-1.01-.092-1.347-.278-.337-.189-.597-.403-.778-.642a8.77 8.77 0 0 1-.421-.602h-.114v4.614h-1.34Zm1.318-7.636c0 .66.096 1.24.29 1.745.193.5.475.892.846 1.176.371.28.826.42 1.364.42.56 0 1.028-.148 1.403-.443.379-.3.663-.7.852-1.205.194-.507.29-1.071.29-1.693 0-.613-.094-1.166-.284-1.659-.185-.496-.468-.888-.846-1.176-.375-.291-.847-.437-1.415-.437-.546 0-1.004.138-1.375.414-.371.273-.652.656-.841 1.148-.19.489-.284 1.059-.284 1.71Zm9.772-7.272V81h-1.34V69.364h1.34Zm5.025 11.84a3.548 3.548 0 0 1-1.506-.312 2.582 2.582 0 0 1-1.074-.915c-.265-.401-.398-.886-.398-1.454 0-.5.099-.906.296-1.216.197-.315.46-.56.79-.739a4.14 4.14 0 0 1 1.091-.397c.401-.092.804-.163 1.21-.217.53-.068.96-.119 1.29-.153.333-.038.575-.1.727-.187.155-.088.233-.239.233-.455v-.045c0-.561-.154-.997-.46-1.307-.304-.31-.764-.466-1.381-.466-.64 0-1.142.14-1.506.42-.363.28-.619.58-.767.898l-1.273-.455c.228-.53.531-.943.909-1.238.383-.3.8-.508 1.25-.625a5.196 5.196 0 0 1 1.341-.182 5.3 5.3 0 0 1 .966.102c.368.065.722.2 1.063.404.344.204.63.513.858.926.227.413.341.966.341 1.659V81h-1.341v-1.182h-.068a2.36 2.36 0 0 1-.455.608c-.212.216-.494.4-.847.551-.352.152-.782.227-1.289.227Zm.204-1.204c.53 0 .977-.104 1.341-.313a2.128 2.128 0 0 0 1.114-1.846v-1.227c-.057.068-.182.13-.375.187-.19.053-.409.1-.659.142a30.34 30.34 0 0 1-1.284.17 5.13 5.13 0 0 0-.978.222 1.687 1.687 0 0 0-.727.45c-.182.196-.273.465-.273.806 0 .466.173.818.517 1.057.349.235.79.352 1.324.352Zm10.039-7.727v1.136h-4.523v-1.136h4.523Zm-3.205-2.091h1.341V78.5c0 .379.055.663.165.852a.85.85 0 0 0 .431.375c.179.06.366.091.563.091.148 0 .269-.007.364-.022l.227-.046.273 1.204a2.733 2.733 0 0 1-.381.103 2.8 2.8 0 0 1-.619.057 2.7 2.7 0 0 1-1.114-.245 2.215 2.215 0 0 1-.898-.744c-.235-.333-.352-.754-.352-1.261v-8.682Zm9.108 2.09v1.137h-4.705v-1.136h4.705ZM209.138 81v-9.932c0-.5.118-.916.353-1.25a2.19 2.19 0 0 1 .915-.75c.375-.166.77-.25 1.187-.25.33 0 .599.027.807.08a3.1 3.1 0 0 1 .466.148l-.387 1.158a6.252 6.252 0 0 0-.284-.085 1.717 1.717 0 0 0-.466-.05c-.443 0-.763.11-.96.334-.193.224-.29.551-.29.983V81h-1.341Zm8.361.182c-.788 0-1.479-.188-2.074-.563-.59-.375-1.053-.9-1.386-1.573-.329-.675-.494-1.463-.494-2.364 0-.91.165-1.703.494-2.38.333-.679.796-1.205 1.386-1.58.595-.375 1.286-.563 2.074-.563.788 0 1.478.188 2.068.563.595.375 1.057.901 1.387 1.58.333.677.5 1.47.5 2.38 0 .901-.167 1.69-.5 2.364a3.77 3.77 0 0 1-1.387 1.573c-.59.375-1.28.563-2.068.563Zm0-1.205c.599 0 1.091-.153 1.478-.46a2.72 2.72 0 0 0 .858-1.21c.185-.5.278-1.042.278-1.625 0-.584-.093-1.127-.278-1.63a2.755 2.755 0 0 0-.858-1.223c-.387-.31-.879-.465-1.478-.465-.598 0-1.091.155-1.477.465a2.757 2.757 0 0 0-.858 1.222 4.672 4.672 0 0 0-.278 1.63c0 .584.092 1.126.278 1.626.186.5.472.903.858 1.21.386.307.879.46 1.477.46ZM223.501 81v-8.727h1.295v1.318h.091c.159-.432.447-.782.864-1.051a2.54 2.54 0 0 1 1.409-.404c.098 0 .221.002.369.006s.26.01.335.017v1.364a3.926 3.926 0 0 0-.312-.051 3.08 3.08 0 0 0-.506-.04c-.424 0-.803.089-1.136.267a1.955 1.955 0 0 0-1.068 1.778V81h-1.341Zm5.953 0v-8.727h1.295v1.363h.114c.182-.465.475-.827.881-1.085.405-.261.892-.392 1.46-.392.576 0 1.055.13 1.437.392.387.258.688.62.904 1.085h.091c.223-.45.558-.808 1.005-1.073.447-.27.983-.404 1.608-.404.781 0 1.419.244 1.915.733.496.485.744 1.24.744 2.267V81h-1.341v-5.84c0-.645-.176-1.105-.528-1.382a1.955 1.955 0 0 0-1.244-.414c-.614 0-1.089.185-1.426.556-.338.368-.506.834-.506 1.398V81h-1.364v-5.977c0-.496-.161-.896-.483-1.2-.322-.306-.736-.46-1.244-.46-.348 0-.674.093-.977.279a2.11 2.11 0 0 0-.728.773 2.29 2.29 0 0 0-.272 1.13V81h-1.341Zm20.088-6.773-1.205.341a2.206 2.206 0 0 0-.335-.585 1.628 1.628 0 0 0-.591-.477c-.25-.125-.57-.188-.96-.188-.534 0-.979.123-1.335.37-.353.242-.529.55-.529.926 0 .333.122.596.364.79.242.193.621.354 1.136.482l1.296.319c.78.189 1.362.479 1.744.869.383.386.574.884.574 1.494 0 .5-.144.947-.432 1.341-.284.394-.682.705-1.193.932-.511.227-1.106.34-1.784.34-.89 0-1.627-.192-2.21-.579-.584-.386-.953-.95-1.108-1.693l1.272-.318c.122.47.351.822.688 1.057.341.235.786.352 1.335.352.625 0 1.121-.133 1.489-.398.371-.269.557-.59.557-.966 0-.303-.106-.556-.319-.761-.212-.208-.537-.364-.977-.466l-1.454-.34c-.8-.19-1.387-.484-1.762-.882-.371-.401-.557-.903-.557-1.505 0-.493.139-.928.415-1.307a2.828 2.828 0 0 1 1.142-.892c.485-.216 1.034-.324 1.648-.324.864 0 1.542.19 2.034.568.496.38.849.88 1.057 1.5Zm10.473-1.954v1.136h-4.523v-1.136h4.523Zm-3.205-2.091h1.341V78.5c0 .379.055.663.165.852.114.186.258.31.432.375.178.06.365.091.562.091.148 0 .269-.007.364-.022l.227-.046.273 1.204a2.733 2.733 0 0 1-.381.103 2.8 2.8 0 0 1-.619.057 2.7 2.7 0 0 1-1.114-.245 2.212 2.212 0 0 1-.897-.744c-.235-.333-.353-.754-.353-1.261v-8.682Zm8.674 11c-.788 0-1.48-.188-2.074-.563-.591-.375-1.053-.9-1.387-1.573-.329-.675-.494-1.463-.494-2.364 0-.91.165-1.703.494-2.38.334-.679.796-1.205 1.387-1.58.594-.375 1.286-.563 2.074-.563.788 0 1.477.188 2.068.563.595.375 1.057.901 1.386 1.58.334.677.5 1.47.5 2.38 0 .901-.166 1.69-.5 2.364a3.763 3.763 0 0 1-1.386 1.573c-.591.375-1.28.563-2.068.563Zm0-1.205c.598 0 1.091-.153 1.477-.46a2.72 2.72 0 0 0 .858-1.21c.185-.5.278-1.042.278-1.625 0-.584-.093-1.127-.278-1.63a2.755 2.755 0 0 0-.858-1.223c-.386-.31-.879-.465-1.477-.465-.599 0-1.091.155-1.478.465a2.757 2.757 0 0 0-.858 1.222 4.695 4.695 0 0 0-.278 1.63c0 .584.093 1.126.278 1.626.186.5.472.903.858 1.21.387.307.879.46 1.478.46Zm13.069 1.227a3.54 3.54 0 0 1-1.505-.312 2.582 2.582 0 0 1-1.074-.915c-.265-.401-.398-.886-.398-1.454 0-.5.098-.906.295-1.216a2.09 2.09 0 0 1 .79-.739 4.15 4.15 0 0 1 1.091-.397c.402-.092.805-.163 1.21-.217.531-.068.961-.119 1.29-.153.333-.038.576-.1.727-.187.156-.088.233-.239.233-.455v-.045c0-.561-.153-.997-.46-1.307-.303-.31-.763-.466-1.381-.466-.64 0-1.142.14-1.505.42-.364.28-.62.58-.767.898l-1.273-.455c.227-.53.53-.943.909-1.238a3.39 3.39 0 0 1 1.25-.625 5.196 5.196 0 0 1 1.341-.182c.28 0 .602.034.966.102.367.065.721.2 1.062.404.345.204.631.513.858.926.228.413.341.966.341 1.659V81h-1.341v-1.182h-.068c-.091.19-.242.392-.454.608-.212.216-.495.4-.847.551-.352.152-.782.227-1.29.227Zm.205-1.204c.53 0 .977-.104 1.341-.313a2.124 2.124 0 0 0 1.113-1.846v-1.227c-.056.068-.181.13-.375.187a6.29 6.29 0 0 1-.659.142 29.56 29.56 0 0 1-1.284.17 5.19 5.19 0 0 0-.977.222 1.681 1.681 0 0 0-.727.45c-.182.196-.273.465-.273.806 0 .466.172.818.517 1.057.348.235.79.352 1.324.352Zm6.243 4.273v-12h1.295v1.386h.159c.099-.151.235-.345.409-.58.178-.238.432-.45.762-.636.333-.19.784-.284 1.352-.284.735 0 1.383.184 1.943.551.561.368.998.889 1.313 1.563.314.674.471 1.47.471 2.386 0 .924-.157 1.725-.471 2.403-.315.675-.75 1.198-1.307 1.569-.557.367-1.199.55-1.926.55-.561 0-1.01-.092-1.347-.278-.337-.189-.596-.403-.778-.642a8.77 8.77 0 0 1-.421-.602h-.113v4.614h-1.341Zm1.318-7.637c0 .66.096 1.24.29 1.745.193.5.475.892.846 1.176.371.28.826.42 1.364.42.56 0 1.028-.148 1.403-.443.379-.3.663-.7.853-1.205a4.73 4.73 0 0 0 .289-1.693c0-.613-.094-1.166-.284-1.659-.185-.496-.468-.888-.846-1.176-.375-.291-.847-.437-1.415-.437-.546 0-1.004.138-1.375.414-.371.273-.652.656-.841 1.148-.189.489-.284 1.059-.284 1.71Zm8.432 7.637v-12h1.295v1.386h.159c.099-.151.235-.345.409-.58.178-.238.432-.45.762-.636.333-.19.784-.284 1.352-.284.735 0 1.383.184 1.943.551.561.368.998.889 1.313 1.563.314.674.471 1.47.471 2.386 0 .924-.157 1.725-.471 2.403-.315.675-.75 1.198-1.307 1.569-.557.367-1.199.55-1.926.55-.561 0-1.01-.092-1.347-.278-.337-.189-.596-.403-.778-.642a8.77 8.77 0 0 1-.421-.602h-.113v4.614h-1.341Zm1.318-7.637c0 .66.096 1.24.29 1.745.193.5.475.892.846 1.176.371.28.826.42 1.364.42.56 0 1.028-.148 1.403-.443.379-.3.663-.7.853-1.205a4.73 4.73 0 0 0 .289-1.693c0-.613-.094-1.166-.284-1.659-.185-.496-.468-.888-.846-1.176-.375-.291-.847-.437-1.415-.437-.546 0-1.004.138-1.375.414-.371.273-.652.656-.841 1.148-.189.489-.284 1.059-.284 1.71ZM304.501 81v-8.727h1.295v1.318h.091c.159-.432.447-.782.864-1.051a2.54 2.54 0 0 1 1.409-.404c.098 0 .221.002.369.006s.26.01.335.017v1.364a3.926 3.926 0 0 0-.312-.051 3.08 3.08 0 0 0-.506-.04c-.424 0-.803.089-1.136.267a1.955 1.955 0 0 0-1.068 1.778V81h-1.341Zm9.233.182c-.788 0-1.48-.188-2.074-.563-.591-.375-1.053-.9-1.387-1.573-.329-.675-.494-1.463-.494-2.364 0-.91.165-1.703.494-2.38.334-.679.796-1.205 1.387-1.58.594-.375 1.286-.563 2.074-.563.788 0 1.477.188 2.068.563.595.375 1.057.901 1.386 1.58.334.677.5 1.47.5 2.38 0 .901-.166 1.69-.5 2.364a3.763 3.763 0 0 1-1.386 1.573c-.591.375-1.28.563-2.068.563Zm0-1.205c.598 0 1.091-.153 1.477-.46a2.72 2.72 0 0 0 .858-1.21c.185-.5.278-1.042.278-1.625 0-.584-.093-1.127-.278-1.63a2.755 2.755 0 0 0-.858-1.223c-.386-.31-.879-.465-1.477-.465-.599 0-1.091.155-1.478.465a2.757 2.757 0 0 0-.858 1.222 4.695 4.695 0 0 0-.278 1.63c0 .584.093 1.126.278 1.626.186.5.472.903.858 1.21.387.307.879.46 1.478.46Zm8.569 1.227a3.54 3.54 0 0 1-1.505-.312 2.582 2.582 0 0 1-1.074-.915c-.265-.401-.398-.886-.398-1.454 0-.5.098-.906.295-1.216a2.09 2.09 0 0 1 .79-.739 4.15 4.15 0 0 1 1.091-.397c.402-.092.805-.163 1.21-.217.531-.068.961-.119 1.29-.153.333-.038.576-.1.727-.187.156-.088.233-.239.233-.455v-.045c0-.561-.153-.997-.46-1.307-.303-.31-.763-.466-1.381-.466-.64 0-1.142.14-1.505.42-.364.28-.62.58-.767.898l-1.273-.455c.227-.53.53-.943.909-1.238a3.39 3.39 0 0 1 1.25-.625 5.196 5.196 0 0 1 1.341-.182c.28 0 .602.034.966.102.367.065.721.2 1.062.404.345.204.631.513.858.926.228.413.341.966.341 1.659V81h-1.341v-1.182h-.068c-.091.19-.242.392-.454.608-.212.216-.495.4-.847.551-.352.152-.782.227-1.29.227Zm.205-1.204c.53 0 .977-.104 1.341-.313a2.124 2.124 0 0 0 1.113-1.846v-1.227c-.056.068-.181.13-.375.187a6.29 6.29 0 0 1-.659.142 29.56 29.56 0 0 1-1.284.17 5.19 5.19 0 0 0-.977.222 1.681 1.681 0 0 0-.727.45c-.182.196-.273.465-.273.806 0 .466.172.818.517 1.057.348.235.79.352 1.324.352Zm9.788 1.182c-.818 0-1.523-.193-2.113-.58a3.776 3.776 0 0 1-1.364-1.596c-.318-.678-.477-1.453-.477-2.324 0-.886.162-1.669.488-2.347.33-.682.788-1.214 1.375-1.596.591-.387 1.281-.58 2.068-.58.614 0 1.167.114 1.66.341a3.19 3.19 0 0 1 1.21.954c.314.41.509.887.585 1.432h-1.341c-.102-.397-.329-.75-.682-1.056-.348-.311-.818-.466-1.409-.466-.523 0-.981.136-1.375.409-.39.269-.695.65-.915 1.142-.216.488-.323 1.062-.323 1.721 0 .675.106 1.262.318 1.762.216.5.519.888.909 1.165.394.276.856.414 1.386.414.349 0 .665-.06.949-.181a1.96 1.96 0 0 0 .722-.523c.197-.227.337-.5.42-.819h1.341a3.101 3.101 0 0 1-1.739 2.37c-.485.239-1.049.358-1.693.358Zm6.733-5.432V81h-1.341V69.364h1.341v4.272h.114c.204-.45.511-.808.92-1.073.413-.27.962-.404 1.648-.404.595 0 1.115.12 1.562.358a2.41 2.41 0 0 1 1.04 1.085c.25.485.375 1.102.375 1.852V81h-1.341v-5.454c0-.694-.18-1.23-.539-1.609-.357-.382-.851-.573-1.483-.573-.44 0-.834.092-1.182.278a2.028 2.028 0 0 0-.818.813c-.197.356-.296.787-.296 1.295Zm16.408-3.477v1.136h-4.523v-1.136h4.523Zm-3.205-2.091h1.341V78.5c0 .379.055.663.165.852.114.186.258.31.432.375.178.06.365.091.562.091.148 0 .269-.007.364-.022l.227-.046.273 1.204a2.733 2.733 0 0 1-.381.103 2.8 2.8 0 0 1-.619.057 2.7 2.7 0 0 1-1.114-.245 2.205 2.205 0 0 1-.897-.744c-.235-.333-.353-.754-.353-1.261v-8.682Zm6.75 5.568V81h-1.341V69.364h1.341v4.272h.114c.204-.45.511-.808.92-1.073.413-.27.962-.404 1.648-.404.595 0 1.116.12 1.563.358.447.235.793.597 1.039 1.085.25.485.375 1.102.375 1.852V81H363.3v-5.454c0-.694-.179-1.23-.539-1.609-.356-.382-.851-.573-1.483-.573-.44 0-.834.092-1.182.278a2.028 2.028 0 0 0-.818.813c-.197.356-.296.787-.296 1.295Zm11.772 5.432c-.841 0-1.567-.186-2.177-.557a3.74 3.74 0 0 1-1.403-1.568c-.326-.674-.489-1.459-.489-2.353 0-.893.163-1.681.489-2.363.33-.686.788-1.22 1.375-1.602.591-.387 1.28-.58 2.068-.58.455 0 .904.076 1.347.227a3.34 3.34 0 0 1 1.21.739c.364.337.653.784.869 1.34.216.558.324 1.243.324 2.058v.568h-6.727v-1.16h5.364c0-.492-.099-.931-.296-1.317a2.23 2.23 0 0 0-.829-.915c-.357-.224-.777-.335-1.262-.335-.534 0-.996.132-1.386.397a2.608 2.608 0 0 0-.892 1.023c-.209.42-.313.871-.313 1.352v.773c0 .66.114 1.218.341 1.676.231.455.551.801.96 1.04.41.235.885.352 1.427.352.352 0 .67-.049.954-.148a2.03 2.03 0 0 0 .744-.454c.209-.204.37-.458.483-.761l1.296.363a2.88 2.88 0 0 1-.688 1.16 3.344 3.344 0 0 1-1.193.772 4.424 4.424 0 0 1-1.596.273Zm5.653-.182v-8.727h1.295v1.363h.114c.182-.465.475-.827.881-1.085.405-.261.892-.392 1.46-.392.576 0 1.055.13 1.437.392.387.258.688.62.904 1.085h.091c.223-.45.558-.808 1.005-1.073.447-.27.983-.404 1.608-.404.781 0 1.419.244 1.915.733.496.485.745 1.24.745 2.267V81h-1.341v-5.84c0-.645-.177-1.105-.529-1.382a1.955 1.955 0 0 0-1.244-.414c-.614 0-1.089.185-1.426.556-.337.368-.506.834-.506 1.398V81h-1.364v-5.977c0-.496-.161-.896-.483-1.2-.322-.306-.736-.46-1.244-.46-.348 0-.674.093-.977.279a2.1 2.1 0 0 0-.727.773 2.28 2.28 0 0 0-.273 1.13V81h-1.341ZM60.443 101.864c-.474 0-.889-.118-1.245-.353a2.116 2.116 0 0 1-.784-.943 2.282 2.282 0 0 1-.13-1.295 2.74 2.74 0 0 1 .528-1.222 3.058 3.058 0 0 1 1.017-.864 2.65 2.65 0 0 1 1.273-.323c.473 0 .884.119 1.233.358.352.234.613.549.784.943.17.39.217.82.142 1.29a2.7 2.7 0 0 1-.529 1.227 3.062 3.062 0 0 1-1.017.863 2.677 2.677 0 0 1-1.273.319Zm16.42 2.318c-.837 0-1.528-.186-2.074-.557-.545-.375-.926-.898-1.142-1.568-.216-.674-.25-1.459-.102-2.353.147-.893.441-1.681.88-2.363a4.84 4.84 0 0 1 1.642-1.602 4.174 4.174 0 0 1 2.16-.58c.454 0 .892.076 1.312.227.42.152.784.398 1.091.739.307.337.52.784.642 1.34.121.558.114 1.243-.023 2.058l-.09.568H74.43l.182-1.16h5.364c.087-.492.064-.931-.069-1.317a1.757 1.757 0 0 0-.676-.915c-.318-.224-.721-.335-1.21-.335-.504 0-.974.136-1.41.409a3.71 3.71 0 0 0-1.09 1.023c-.292.408-.474.825-.545 1.25l-.16.999c-.113.724-.096 1.3.052 1.728.151.428.414.736.79.926.374.185.844.278 1.408.278.36 0 .692-.049.995-.147.303-.103.574-.254.812-.455a2.63 2.63 0 0 0 .603-.761l1.227.363c-.208.44-.502.826-.88 1.159-.376.33-.815.587-1.319.773-.5.182-1.047.273-1.642.273Zm6.844-.091a.97.97 0 0 1-.722-.296 1.052 1.052 0 0 1-.301-.727.91.91 0 0 1 .301-.71c.205-.193.445-.29.722-.29.28 0 .522.099.727.296a.905.905 0 0 1 .295.704 1.01 1.01 0 0 1-.147.517 1.013 1.013 0 0 1-.875.506Zm6.247 3.364c-.652 0-1.197-.084-1.636-.25-.44-.163-.792-.379-1.057-.648a2.874 2.874 0 0 1-.603-.852l1.205-.75c.09.159.208.34.352.545.144.208.362.388.654.54.295.155.71.233 1.244.233.7 0 1.314-.171 1.84-.512.527-.341.853-.875.978-1.602l.273-1.773h-.114c-.121.159-.29.356-.505.591a3.036 3.036 0 0 1-.87.62c-.363.178-.83.267-1.398.267-.708 0-1.314-.167-1.818-.5-.503-.334-.865-.819-1.085-1.455-.216-.636-.248-1.409-.097-2.318.148-.894.432-1.672.853-2.335.424-.667.947-1.182 1.568-1.546a3.924 3.924 0 0 1 2.034-.55c.568 0 1.004.094 1.307.283.307.186.53.398.67.636.14.235.247.429.319.58h.136l.227-1.386h1.296l-1.478 8.977c-.125.75-.395 1.36-.812 1.83-.417.473-.928.82-1.534 1.039a5.577 5.577 0 0 1-1.95.336Zm.704-4.796c.534 0 1.01-.123 1.427-.369a2.96 2.96 0 0 0 1.045-1.063c.276-.462.468-1.015.574-1.659.106-.629.098-1.183-.023-1.665-.121-.48-.35-.858-.687-1.13-.334-.273-.771-.41-1.313-.41-.572 0-1.066.145-1.483.433a3.229 3.229 0 0 0-1.005 1.158 5.256 5.256 0 0 0-.535 1.614c-.098.606-.094 1.142.012 1.608.106.462.322.826.647 1.091.33.261.777.392 1.341.392Zm7.205 1.432a.97.97 0 0 1-.722-.296 1.052 1.052 0 0 1-.3-.727.91.91 0 0 1 .3-.71c.205-.193.445-.29.722-.29.28 0 .523.099.727.296a.906.906 0 0 1 .296.704 1.01 1.01 0 0 1-.148.517 1.013 1.013 0 0 1-.875.506ZM109.45 104h-3.636l1.931-11.636h3.705c1.129 0 2.059.236 2.79.71.735.473 1.246 1.15 1.534 2.028.292.88.335 1.928.131 3.148-.197 1.197-.58 2.225-1.148 3.085a5.74 5.74 0 0 1-2.193 1.977c-.894.459-1.932.688-3.114.688Zm-2.017-1.25h2.062c.963 0 1.792-.189 2.489-.568a4.422 4.422 0 0 0 1.693-1.62c.432-.7.728-1.532.887-2.494.159-.924.144-1.718-.046-2.38-.185-.667-.551-1.178-1.096-1.535-.542-.36-1.267-.54-2.177-.54h-2.301l-1.511 9.137Zm9.699 1.25 1.454-8.727h1.341L118.474 104h-1.341Zm2.534-10.204a.953.953 0 0 1-.676-.268.857.857 0 0 1-.279-.642c0-.25.093-.464.279-.642a.953.953 0 0 1 .676-.267c.261 0 .485.09.67.267.19.178.284.392.284.642s-.094.464-.284.642a.933.933 0 0 1-.67.267Zm8.581 3.431-1.273.341a1.98 1.98 0 0 0-.238-.59 1.22 1.22 0 0 0-.512-.472c-.227-.125-.538-.188-.932-.188-.534 0-.998.123-1.392.37-.394.242-.619.55-.676.926-.057.33.019.592.227.79.209.196.557.357 1.046.482l1.25.319c.75.193 1.284.483 1.602.869.322.382.432.881.33 1.494-.084.5-.301.947-.654 1.341a3.649 3.649 0 0 1-1.352.932 4.761 4.761 0 0 1-1.835.341c-.898 0-1.606-.193-2.125-.58-.519-.39-.796-.954-.83-1.693l1.341-.318c.034.466.201.818.5 1.057.303.235.727.352 1.273.352.625 0 1.146-.133 1.562-.398.417-.269.654-.591.711-.966.056-.306-.004-.562-.182-.767-.174-.204-.477-.358-.909-.46l-1.387-.341c-.772-.193-1.314-.489-1.625-.886-.306-.398-.409-.898-.306-1.5.083-.493.295-.928.636-1.307a3.581 3.581 0 0 1 1.295-.892 4.422 4.422 0 0 1 1.705-.324c.864 0 1.509.19 1.937.568.428.375.699.875.813 1.5Zm4.564 6.955c-.822 0-1.496-.193-2.023-.58-.523-.386-.886-.918-1.091-1.596-.204-.678-.235-1.453-.091-2.324.144-.886.436-1.669.875-2.347a4.865 4.865 0 0 1 1.642-1.596 4.187 4.187 0 0 1 2.165-.58c.614 0 1.148.114 1.602.341.455.227.805.546 1.051.954.247.41.362.887.347 1.432h-1.341a1.703 1.703 0 0 0-.511-1.056c-.299-.311-.743-.466-1.33-.466-.522 0-1.004.136-1.443.409a3.34 3.34 0 0 0-1.108 1.142c-.299.488-.502 1.062-.608 1.721-.113.675-.104 1.262.029 1.762.132.5.373.888.721 1.164.349.277.788.415 1.318.415.349 0 .675-.06.978-.182a2.454 2.454 0 0 0 1.363-1.34h1.341a3.876 3.876 0 0 1-.801 1.392 4.077 4.077 0 0 1-1.335.977 4.176 4.176 0 0 1-1.75.358Zm9.017 0c-.803 0-1.476-.191-2.017-.574-.542-.383-.924-.919-1.148-1.608-.22-.689-.256-1.492-.108-2.41.144-.893.43-1.671.858-2.334a4.639 4.639 0 0 1 1.608-1.546 4.212 4.212 0 0 1 2.125-.55c.803 0 1.474.192 2.011.579.542.382.925.92 1.148 1.613.224.69.261 1.496.114 2.42-.144.887-.434 1.662-.87 2.325a4.702 4.702 0 0 1-1.608 1.539 4.177 4.177 0 0 1-2.113.546Zm.023-1.205c.613 0 1.145-.157 1.596-.471a3.536 3.536 0 0 0 1.102-1.245 5.137 5.137 0 0 0 .574-1.67 4.449 4.449 0 0 0-.011-1.585c-.099-.493-.309-.889-.631-1.188-.322-.303-.774-.454-1.358-.454-.613 0-1.149.159-1.608.477a3.584 3.584 0 0 0-1.102 1.256 5.203 5.203 0 0 0-.562 1.676 4.55 4.55 0 0 0 .005 1.585c.099.485.309.877.631 1.176.326.296.78.443 1.364.443Zm5.921 1.023 1.455-8.727h1.295l-.227 1.318h.091c.227-.432.574-.782 1.04-1.051a2.92 2.92 0 0 1 1.483-.404c.102 0 .225.002.369.006.144 0 .256.006.335.017l-.227 1.364a3.994 3.994 0 0 0-.307-.051 3.107 3.107 0 0 0-.511-.04c-.424 0-.816.089-1.176.267-.36.174-.661.416-.904.727a2.314 2.314 0 0 0-.466 1.051l-.909 5.523h-1.341Zm9.003.182c-.731 0-1.344-.184-1.841-.551-.496-.372-.846-.894-1.051-1.569-.201-.678-.225-1.479-.074-2.403.156-.917.445-1.712.87-2.386.428-.674.952-1.195 1.574-1.563a3.923 3.923 0 0 1 2.034-.55c.568 0 1.002.094 1.301.283.303.186.523.398.659.636.136.235.24.429.312.58h.114l.716-4.295h1.341L160.799 104h-1.295l.227-1.341h-.159c-.125.159-.3.36-.523.602a3.205 3.205 0 0 1-.886.642c-.364.186-.826.279-1.387.279Zm.33-1.205a2.56 2.56 0 0 0 1.443-.42 3.385 3.385 0 0 0 1.068-1.176 5.308 5.308 0 0 0 .591-1.745c.11-.651.106-1.221-.011-1.71-.118-.492-.343-.875-.676-1.148-.334-.276-.775-.414-1.324-.414-.565 0-1.055.145-1.472.437-.417.288-.756.68-1.017 1.176a5.412 5.412 0 0 0-.545 1.66c-.103.621-.105 1.185-.006 1.693.098.503.307.905.625 1.204.322.296.763.443 1.324.443Zm8.596-.568-.204.614c-.136.432-.311.894-.523 1.386-.212.493-.422.957-.631 1.392-.208.436-.376.782-.505 1.04h-1.023c.083-.243.197-.563.341-.96.144-.398.297-.841.46-1.33.163-.489.313-.99.449-1.506l.182-.636h1.454ZM183.278 96h-1.387a2.599 2.599 0 0 0-.25-1.068 2.275 2.275 0 0 0-.613-.773 2.591 2.591 0 0 0-.875-.477 3.435 3.435 0 0 0-1.057-.16 4.06 4.06 0 0 0-2.046.552c-.644.364-1.195.9-1.653 1.608-.458.704-.771 1.568-.937 2.59-.167.993-.143 1.828.073 2.506.216.678.574 1.192 1.074 1.54.5.349 1.095.523 1.784.523.398 0 .788-.053 1.171-.159a4.02 4.02 0 0 0 1.079-.472c.337-.212.637-.471.898-.778.265-.311.474-.667.625-1.068h1.409a5.78 5.78 0 0 1-.846 1.596c-.353.47-.76.87-1.222 1.199a5.439 5.439 0 0 1-3.159 1c-1.008 0-1.866-.246-2.574-.739-.705-.496-1.208-1.197-1.511-2.102-.3-.909-.347-1.985-.142-3.227.204-1.212.596-2.258 1.176-3.136.579-.883 1.29-1.561 2.13-2.034a5.456 5.456 0 0 1 2.739-.717c.591 0 1.135.086 1.631.256s.928.42 1.295.75c.368.326.654.724.858 1.193.208.466.318.998.33 1.597Zm3.322 8.205c-.553 0-1.038-.105-1.454-.313a2.043 2.043 0 0 1-.927-.915c-.2-.401-.255-.886-.164-1.454.087-.5.255-.906.505-1.216.25-.315.553-.56.909-.739.36-.182.747-.316 1.16-.403.416-.091.831-.161 1.244-.21.538-.069.975-.122 1.312-.16.337-.037.591-.1.762-.187.17-.087.274-.237.312-.449v-.045c.091-.557.017-.99-.221-1.302-.239-.314-.665-.471-1.279-.471-.636 0-1.168.14-1.596.42-.428.28-.745.58-.949.898l-1.182-.455c.311-.53.682-.943 1.114-1.238a4.1 4.1 0 0 1 1.358-.625 5.508 5.508 0 0 1 1.369-.182c.28 0 .596.034.949.102.352.065.682.2.988.404.311.204.544.513.699.926.159.413.182.966.068 1.659l-.954 5.75h-1.341l.205-1.182h-.069c-.121.19-.306.392-.556.608-.247.216-.559.4-.938.551-.375.152-.816.228-1.324.228Zm.387-1.205c.53 0 .994-.104 1.392-.312.401-.209.723-.478.965-.807.247-.33.4-.676.461-1.04l.204-1.227c-.068.068-.202.13-.403.187-.201.053-.428.1-.682.142-.25.038-.494.072-.733.102-.235.027-.424.05-.568.069a5.749 5.749 0 0 0-1.017.221 2.102 2.102 0 0 0-.807.449c-.216.197-.35.466-.403.807-.08.466.032.818.335 1.057.303.235.721.352 1.256.352Zm8.288-4.25-.864 5.25h-1.341l1.455-8.727h1.295l-.227 1.363h.114a3.086 3.086 0 0 1 1.108-1.068c.466-.272 1.028-.409 1.687-.409.583 0 1.076.121 1.477.364.406.238.692.602.858 1.09.171.486.195 1.1.074 1.841l-.932 5.546h-1.341l.91-5.454c.113-.682.024-1.217-.267-1.603-.288-.386-.745-.58-1.37-.58-.432 0-.831.093-1.199.279a2.567 2.567 0 0 0-.926.813c-.25.356-.42.787-.511 1.295Zm15.433-3.477L206.026 104h-1.363l-1.773-8.727h1.398l1.25 6.954h.091l3.568-6.954h1.511Zm2.595 8.932c-.553 0-1.038-.105-1.454-.313a2.036 2.036 0 0 1-.926-.915c-.201-.401-.256-.886-.165-1.454.087-.5.255-.906.505-1.216.25-.315.554-.56.91-.739a4.703 4.703 0 0 1 1.159-.403c.416-.091.831-.161 1.244-.21.538-.069.975-.122 1.312-.16.338-.037.591-.1.762-.187.17-.087.274-.237.312-.449v-.045c.091-.557.017-.99-.221-1.302-.239-.314-.665-.471-1.279-.471-.636 0-1.168.14-1.596.42-.428.28-.745.58-.949.898l-1.182-.455c.311-.53.682-.943 1.114-1.238a4.11 4.11 0 0 1 1.358-.625c.473-.121.93-.182 1.369-.182.28 0 .597.034.949.102.352.065.682.2.988.404.311.204.544.513.699.926.159.413.182.966.069 1.659l-.955 5.75h-1.341l.205-1.182h-.069c-.121.19-.306.392-.556.608-.247.216-.559.4-.938.551-.375.152-.816.228-1.324.228Zm.387-1.205c.53 0 .994-.104 1.392-.312.401-.209.723-.478.966-.807.246-.33.399-.676.46-1.04l.204-1.227c-.068.068-.202.13-.403.187-.201.053-.428.1-.682.142-.25.038-.494.072-.733.102-.235.027-.424.05-.568.069a5.749 5.749 0 0 0-1.017.221 2.102 2.102 0 0 0-.807.449c-.216.197-.35.466-.403.807-.08.466.032.818.335 1.057.303.235.722.352 1.256.352Zm13.402-5.773-1.273.341a1.983 1.983 0 0 0-.239-.59 1.212 1.212 0 0 0-.511-.472c-.227-.125-.538-.188-.932-.188-.534 0-.998.123-1.392.37-.394.242-.619.55-.676.926-.057.33.019.592.227.79.208.196.557.357 1.046.482l1.25.319c.75.193 1.284.483 1.602.869.322.382.432.881.329 1.494-.083.5-.301.947-.653 1.341a3.649 3.649 0 0 1-1.352.932 4.761 4.761 0 0 1-1.835.341c-.898 0-1.607-.193-2.125-.58-.519-.39-.796-.954-.83-1.693l1.341-.318c.034.466.201.818.5 1.057.303.235.727.352 1.273.352.625 0 1.145-.133 1.562-.398.417-.269.654-.591.71-.966.057-.306-.003-.562-.181-.767-.175-.204-.478-.358-.91-.46l-1.386-.341c-.773-.193-1.314-.489-1.625-.886-.307-.398-.409-.898-.307-1.5a2.56 2.56 0 0 1 .637-1.307 3.573 3.573 0 0 1 1.295-.892 4.422 4.422 0 0 1 1.705-.324c.863 0 1.509.19 1.937.568.428.375.699.875.813 1.5Zm3.314 5.182-.205.614c-.136.432-.311.894-.523 1.386-.212.493-.422.957-.63 1.392-.209.436-.377.782-.506 1.04h-1.023c.084-.243.197-.563.341-.96.144-.398.297-.841.46-1.33.163-.489.313-.99.449-1.506l.182-.636h1.455Zm6.893 1.591 1.932-11.636h6.977l-.204 1.25h-5.569l-.659 3.931h5.046l-.205 1.25h-5.045l-.864 5.205h-1.409Zm11.754.205c-.553 0-1.038-.105-1.454-.313a2.036 2.036 0 0 1-.926-.915c-.201-.401-.256-.886-.165-1.454.087-.5.255-.906.505-1.216.25-.315.554-.56.91-.739a4.703 4.703 0 0 1 1.159-.403c.416-.091.831-.161 1.244-.21.538-.069.975-.122 1.312-.16.338-.037.591-.1.762-.187.17-.087.274-.237.312-.449v-.045c.091-.557.017-.99-.221-1.302-.239-.314-.665-.471-1.279-.471-.636 0-1.168.14-1.596.42-.428.28-.745.58-.949.898l-1.182-.455c.311-.53.682-.943 1.114-1.238a4.11 4.11 0 0 1 1.358-.625c.473-.121.93-.182 1.369-.182.28 0 .597.034.949.102.352.065.682.2.988.404.311.204.544.513.699.926.159.413.182.966.069 1.659l-.955 5.75h-1.341l.205-1.182h-.069c-.121.19-.306.392-.556.608-.247.216-.559.4-.938.551-.375.152-.816.228-1.324.228Zm.387-1.205c.53 0 .994-.104 1.392-.312.401-.209.723-.478.966-.807.246-.33.399-.676.46-1.04l.204-1.227c-.068.068-.202.13-.403.187-.201.053-.428.1-.682.142-.25.038-.494.072-.733.102-.235.027-.424.05-.568.069a5.749 5.749 0 0 0-1.017.221 2.102 2.102 0 0 0-.807.449c-.216.197-.35.466-.403.807-.08.466.032.818.335 1.057.303.235.722.352 1.256.352Zm9.606 1.182c-.822 0-1.496-.193-2.023-.58-.522-.386-.886-.918-1.09-1.596-.205-.678-.235-1.453-.091-2.324.144-.886.435-1.669.875-2.347a4.847 4.847 0 0 1 1.642-1.596 4.183 4.183 0 0 1 2.164-.58c.614 0 1.148.114 1.603.341a2.5 2.5 0 0 1 1.051.954c.246.41.362.887.346 1.432h-1.34a1.704 1.704 0 0 0-.512-1.056c-.299-.311-.742-.466-1.329-.466-.523 0-1.004.136-1.444.409a3.35 3.35 0 0 0-1.108 1.142c-.299.488-.501 1.062-.607 1.721-.114.675-.105 1.262.028 1.762s.373.888.722 1.164c.348.277.787.415 1.318.415.348 0 .674-.06.977-.182a2.469 2.469 0 0 0 1.364-1.34h1.341a3.864 3.864 0 0 1-.802 1.392 4.077 4.077 0 0 1-1.335.977 4.176 4.176 0 0 1-1.75.358Zm9.051 0c-.837 0-1.528-.186-2.074-.557-.545-.375-.926-.898-1.142-1.568-.216-.674-.25-1.459-.102-2.353.148-.893.441-1.681.881-2.363a4.839 4.839 0 0 1 1.642-1.602 4.173 4.173 0 0 1 2.159-.58c.454 0 .892.076 1.312.227a2.66 2.66 0 0 1 1.091.739c.307.337.521.784.642 1.34.122.558.114 1.243-.022 2.058l-.091.568h-6.728l.182-1.16h5.364c.087-.492.064-.931-.068-1.317a1.758 1.758 0 0 0-.676-.915c-.319-.224-.722-.335-1.211-.335a2.61 2.61 0 0 0-1.409.409c-.435.269-.799.61-1.091 1.023-.291.408-.473.825-.545 1.25l-.159.999c-.114.724-.097 1.3.051 1.728.151.428.415.736.79.926.375.185.844.278 1.409.278.36 0 .691-.049.994-.147a2.5 2.5 0 0 0 .813-.455c.238-.205.439-.458.602-.761l1.227.363c-.208.44-.502.826-.88 1.159-.375.33-.815.587-1.319.773-.5.182-1.047.273-1.642.273Zm5.89-.182 1.931-11.636h1.341l-.704 4.295h.113c.122-.151.29-.345.506-.58.216-.238.506-.45.869-.636.364-.19.83-.284 1.398-.284.735 0 1.35.184 1.847.551.5.368.85.889 1.051 1.563.204.674.231 1.47.079 2.386-.151.924-.441 1.725-.869 2.403-.424.675-.947 1.197-1.568 1.569a3.88 3.88 0 0 1-2.017.551c-.561 0-.995-.093-1.301-.279-.303-.189-.527-.403-.671-.642a9.039 9.039 0 0 1-.324-.602h-.159l-.227 1.341h-1.295Zm2.045-4.364c-.106.659-.104 1.241.006 1.745.109.5.327.892.653 1.176.326.28.758.42 1.296.42.56 0 1.053-.147 1.477-.443a3.454 3.454 0 0 0 1.045-1.204 5.503 5.503 0 0 0 .568-1.694c.099-.613.095-1.166-.011-1.659-.102-.496-.318-.888-.648-1.176-.325-.291-.772-.437-1.341-.437-.545 0-1.028.138-1.448.414-.417.273-.762.656-1.035 1.148-.268.489-.456 1.059-.562 1.71Zm11.312 4.546c-.803 0-1.475-.191-2.017-.574-.541-.383-.924-.919-1.147-1.608-.22-.689-.256-1.492-.108-2.41.144-.893.43-1.671.858-2.334a4.63 4.63 0 0 1 1.608-1.546 4.212 4.212 0 0 1 2.125-.55c.803 0 1.473.192 2.011.579.542.382.924.92 1.148 1.613.223.69.261 1.496.113 2.42-.144.887-.433 1.662-.869 2.325a4.72 4.72 0 0 1-1.608 1.539 4.181 4.181 0 0 1-2.114.546Zm.023-1.205c.614 0 1.146-.157 1.597-.471a3.545 3.545 0 0 0 1.102-1.245 5.185 5.185 0 0 0 .574-1.67 4.449 4.449 0 0 0-.011-1.585c-.099-.493-.309-.889-.631-1.188-.322-.303-.775-.454-1.358-.454-.614 0-1.15.159-1.608.477a3.574 3.574 0 0 0-1.102 1.256 5.205 5.205 0 0 0-.563 1.676 4.526 4.526 0 0 0 .006 1.585c.098.485.309.877.631 1.176.325.296.78.443 1.363.443Zm9.524 1.205c-.803 0-1.475-.191-2.017-.574-.541-.383-.924-.919-1.147-1.608-.22-.689-.256-1.492-.108-2.41.144-.893.43-1.671.858-2.334a4.622 4.622 0 0 1 1.608-1.546 4.21 4.21 0 0 1 2.125-.55c.803 0 1.473.192 2.011.579.542.382.924.92 1.148 1.613.223.69.261 1.496.113 2.42-.144.887-.433 1.662-.869 2.325a4.72 4.72 0 0 1-1.608 1.539 4.181 4.181 0 0 1-2.114.546Zm.023-1.205c.614 0 1.146-.157 1.597-.471a3.545 3.545 0 0 0 1.102-1.245 5.185 5.185 0 0 0 .574-1.67 4.425 4.425 0 0 0-.012-1.585c-.098-.493-.308-.889-.63-1.188-.322-.303-.775-.454-1.358-.454-.614 0-1.15.159-1.608.477a3.574 3.574 0 0 0-1.102 1.256 5.205 5.205 0 0 0-.563 1.676 4.526 4.526 0 0 0 .006 1.585c.098.485.308.877.63 1.176.326.296.781.443 1.364.443Zm7.695-2.159.25-1.659h.272l4.478-3.886h1.659l-4.75 4.113h-.114l-1.795 1.432ZM302.836 104l1.932-11.636h1.341L304.177 104h-1.341Zm5.545 0-2.681-4.318 1.09-.932 3.296 5.25h-1.705Zm5.431-1.591-.205.614c-.136.432-.31.894-.522 1.386-.213.493-.423.957-.631 1.392-.208.436-.377.782-.506 1.04h-1.023c.084-.243.197-.563.341-.96.144-.398.298-.841.461-1.33.162-.489.312-.99.448-1.506l.182-.636h1.455Zm6.507 1.591.182-1.023 7.818-9.363h-6.341l.205-1.25h8.022l-.159 1.022-7.841 9.364h6.341l-.204 1.25h-8.023Zm13.807.182c-.803 0-1.476-.191-2.017-.574-.542-.383-.925-.919-1.148-1.608-.22-.689-.256-1.492-.108-2.41.144-.893.43-1.671.858-2.334a4.639 4.639 0 0 1 1.608-1.546 4.212 4.212 0 0 1 2.125-.55c.803 0 1.473.192 2.011.579.542.382.924.92 1.148 1.613.223.69.261 1.496.114 2.42-.144.887-.434 1.662-.87 2.325a4.72 4.72 0 0 1-1.608 1.539 4.18 4.18 0 0 1-2.113.546Zm.022-1.205c.614 0 1.146-.157 1.597-.471a3.536 3.536 0 0 0 1.102-1.245 5.161 5.161 0 0 0 .574-1.67 4.449 4.449 0 0 0-.011-1.585c-.099-.493-.309-.889-.631-1.188-.322-.303-.775-.454-1.358-.454-.613 0-1.149.159-1.608.477a3.584 3.584 0 0 0-1.102 1.256 5.23 5.23 0 0 0-.563 1.676 4.55 4.55 0 0 0 .006 1.585c.099.485.309.877.631 1.176.326.296.78.443 1.363.443Zm9.525 1.205c-.803 0-1.476-.191-2.017-.574-.542-.383-.925-.919-1.148-1.608-.22-.689-.256-1.492-.108-2.41.144-.893.43-1.671.858-2.334a4.639 4.639 0 0 1 1.608-1.546 4.212 4.212 0 0 1 2.125-.55c.803 0 1.473.192 2.011.579.542.382.924.92 1.148 1.613.223.69.261 1.496.113 2.42-.143.887-.433 1.662-.869 2.325a4.72 4.72 0 0 1-1.608 1.539 4.18 4.18 0 0 1-2.113.546Zm.022-1.205c.614 0 1.146-.157 1.597-.471a3.545 3.545 0 0 0 1.102-1.245 5.161 5.161 0 0 0 .574-1.67 4.449 4.449 0 0 0-.011-1.585c-.099-.493-.309-.889-.631-1.188-.322-.303-.775-.454-1.358-.454-.614 0-1.15.159-1.608.477a3.584 3.584 0 0 0-1.102 1.256 5.23 5.23 0 0 0-.563 1.676 4.526 4.526 0 0 0 .006 1.585c.098.485.309.877.631 1.176.325.296.78.443 1.363.443Zm5.922 1.023 1.455-8.727h1.295l-.227 1.363h.114a2.81 2.81 0 0 1 1.062-1.085c.451-.261.96-.392 1.528-.392.569 0 1.025.13 1.37.392.344.258.585.62.721 1.085h.091c.296-.454.69-.814 1.182-1.08a3.525 3.525 0 0 1 1.682-.397c.773 0 1.367.244 1.784.733.42.489.545 1.244.375 2.267l-.977 5.841h-1.341l.977-5.84c.102-.649 0-1.109-.307-1.382-.303-.276-.693-.414-1.17-.414-.614 0-1.119.183-1.517.55a2.357 2.357 0 0 0-.733 1.404l-.955 5.682h-1.363l1-5.977c.079-.5-.016-.902-.284-1.205-.269-.303-.66-.454-1.171-.454-.348 0-.689.094-1.023.284a2.647 2.647 0 0 0-.858.773 2.56 2.56 0 0 0-.46 1.124l-.909 5.455h-1.341Zm16.179-1.591-.204.614c-.137.432-.311.894-.523 1.386-.212.493-.422.957-.631 1.392-.208.436-.377.782-.505 1.04h-1.023c.083-.243.197-.563.341-.96.144-.398.297-.841.46-1.33.163-.489.312-.99.449-1.506l.182-.636h1.454Zm10.348 1.773c-.837 0-1.528-.186-2.074-.557-.545-.375-.926-.898-1.142-1.568-.216-.674-.25-1.459-.102-2.353.148-.893.441-1.681.881-2.363a4.83 4.83 0 0 1 1.642-1.602 4.173 4.173 0 0 1 2.159-.58c.454 0 .892.076 1.312.227.421.152.784.398 1.091.739.307.337.521.784.642 1.34.121.558.114 1.243-.022 2.058l-.091.568h-6.728l.182-1.16h5.364c.087-.492.064-.931-.068-1.317a1.76 1.76 0 0 0-.677-.915c-.318-.224-.721-.335-1.21-.335-.504 0-.973.136-1.409.409-.435.269-.799.61-1.091 1.023-.291.408-.473.825-.545 1.25l-.159.999c-.114.724-.097 1.3.051 1.728.151.428.415.736.79.926.375.185.844.278 1.409.278.36 0 .691-.049.994-.147a2.5 2.5 0 0 0 .813-.455c.238-.205.439-.458.602-.761l1.227.363c-.208.44-.502.826-.881 1.159-.375.33-.814.587-1.318.773-.5.182-1.047.273-1.642.273Zm10.958-8.91-.182 1.137h-4.523l.182-1.136h4.523Zm-2.864-2.09h1.341l-1.387 8.318c-.06.379-.051.663.029.852a.67.67 0 0 0 .375.375c.17.061.354.091.551.091.148 0 .269-.007.364-.023l.227-.045.091 1.205a3.492 3.492 0 0 1-.415.102c-.17.038-.381.057-.631.057-.378 0-.734-.082-1.068-.245a1.698 1.698 0 0 1-.767-.744c-.178-.333-.225-.754-.142-1.261l1.432-8.682Zm6.855 11c-.822 0-1.496-.193-2.023-.58-.522-.386-.886-.918-1.091-1.596-.204-.678-.234-1.453-.091-2.324.144-.886.436-1.669.875-2.347a4.859 4.859 0 0 1 1.643-1.596 4.18 4.18 0 0 1 2.164-.58c.614 0 1.148.114 1.603.341a2.5 2.5 0 0 1 1.051.954c.246.41.361.887.346 1.432h-1.341a1.698 1.698 0 0 0-.511-1.056c-.299-.311-.742-.466-1.33-.466-.522 0-1.003.136-1.443.409a3.35 3.35 0 0 0-1.108 1.142c-.299.488-.502 1.062-.608 1.721-.113.675-.104 1.262.029 1.762.132.5.373.888.721 1.164.349.277.788.415 1.319.415.348 0 .674-.06.977-.182a2.469 2.469 0 0 0 1.363-1.34h1.341a3.847 3.847 0 0 1-.801 1.392 4.077 4.077 0 0 1-1.335.977 4.176 4.176 0 0 1-1.75.358Zm6.551-.091a.968.968 0 0 1-.721-.296 1.05 1.05 0 0 1-.302-.727.91.91 0 0 1 .302-.71c.204-.193.445-.29.721-.29.28 0 .523.099.727.296a.907.907 0 0 1 .296.704 1.01 1.01 0 0 1-.148.517 1.015 1.015 0 0 1-.875.506ZM36.727 124.864c-.459 0-.877-.112-1.256-.336a2.607 2.607 0 0 1-.91-.909 2.422 2.422 0 0 1-.334-1.255c0-.462.111-.881.335-1.256.227-.379.53-.68.909-.903a2.388 2.388 0 0 1 1.256-.341c.462 0 .88.113 1.255.341.379.223.68.524.904.903.227.375.34.794.34 1.256 0 .458-.113.877-.34 1.255a2.56 2.56 0 0 1-.904.909 2.401 2.401 0 0 1-1.255.336Zm19.772-6.591a1.783 1.783 0 0 0-.83-1.341c-.484-.318-1.079-.477-1.783-.477-.516 0-.966.083-1.353.25a2.15 2.15 0 0 0-.897.687 1.648 1.648 0 0 0-.319.994c0 .311.074.578.222.802.152.219.345.403.58.551.234.144.48.263.738.358.258.09.495.164.71.221l1.182.318c.303.08.64.19 1.012.33.375.14.733.331 1.073.574.345.238.63.545.853.92.223.375.335.835.335 1.381a3.06 3.06 0 0 1-.494 1.704c-.326.508-.803.911-1.432 1.211-.625.299-1.385.449-2.278.449-.834 0-1.555-.135-2.165-.404-.606-.269-1.084-.644-1.432-1.125a3.21 3.21 0 0 1-.585-1.676h1.454c.038.439.186.803.443 1.091.262.284.591.496.989.636.401.137.833.205 1.296.205.537 0 1.02-.087 1.448-.262.428-.178.767-.424 1.017-.738.25-.318.375-.69.375-1.114 0-.386-.108-.701-.324-.943a2.388 2.388 0 0 0-.852-.591 9.089 9.089 0 0 0-1.142-.398l-1.432-.409c-.909-.261-1.628-.634-2.159-1.119-.53-.485-.795-1.119-.795-1.903 0-.652.176-1.22.528-1.705a3.507 3.507 0 0 1 1.432-1.136c.602-.273 1.275-.409 2.017-.409.75 0 1.417.134 2 .403.583.265 1.046.629 1.387 1.091.344.462.526.987.545 1.574h-1.364Zm7.317 8.909c-.84 0-1.566-.186-2.176-.557a3.74 3.74 0 0 1-1.404-1.568c-.325-.674-.488-1.459-.488-2.352 0-.894.163-1.682.489-2.364.33-.686.787-1.22 1.374-1.602.591-.387 1.28-.58 2.069-.58.454 0 .903.076 1.346.227a3.33 3.33 0 0 1 1.21.739c.364.337.654.784.87 1.341.216.557.324 1.242.324 2.057v.568h-6.728v-1.159h5.364c0-.493-.098-.932-.295-1.318a2.22 2.22 0 0 0-.83-.915c-.356-.224-.776-.335-1.261-.335-.534 0-.996.132-1.387.397a2.625 2.625 0 0 0-.892 1.023 3.004 3.004 0 0 0-.312 1.352v.773c0 .659.113 1.218.34 1.676.232.455.552.801.96 1.04.41.235.885.352 1.427.352.352 0 .67-.049.955-.147a2.05 2.05 0 0 0 .744-.455c.208-.205.37-.458.483-.761l1.295.363a2.86 2.86 0 0 1-.687 1.159 3.35 3.35 0 0 1-1.193.773 4.42 4.42 0 0 1-1.597.273Zm9.449-8.909v1.136h-4.523v-1.136h4.523Zm-3.205-2.091h1.341v8.318c0 .379.055.663.165.852a.85.85 0 0 0 .432.375c.178.061.365.091.562.091.148 0 .27-.007.364-.023l.227-.045.273 1.205a2.72 2.72 0 0 1-.38.102c-.164.038-.37.057-.62.057a2.7 2.7 0 0 1-1.114-.245 2.215 2.215 0 0 1-.897-.744c-.235-.333-.353-.754-.353-1.261v-8.682Zm15.222 7.25v-5.159h1.34V127h-1.34v-1.477h-.09a2.86 2.86 0 0 1-.955 1.13c-.432.307-.978.461-1.637.461a2.92 2.92 0 0 1-1.454-.358c-.425-.243-.758-.606-1-1.091-.243-.489-.364-1.104-.364-1.847v-5.545h1.34v5.454c0 .637.179 1.144.535 1.523.36.379.818.568 1.375.568.333 0 .672-.085 1.017-.256.348-.17.64-.431.875-.784.239-.352.358-.801.358-1.346Zm3.797 6.841v-12h1.295v1.386h.16c.098-.151.234-.345.408-.579.179-.239.432-.451.762-.637.333-.189.784-.284 1.352-.284.735 0 1.383.184 1.943.551.56.368.998.888 1.313 1.563.314.674.471 1.469.471 2.386 0 .924-.157 1.725-.471 2.403-.315.675-.75 1.197-1.307 1.569-.557.367-1.199.551-1.926.551-.56 0-1.01-.093-1.347-.279-.337-.189-.596-.403-.778-.642a8.534 8.534 0 0 1-.42-.602h-.114v4.614h-1.341Zm1.318-7.637c0 .659.097 1.241.29 1.745.193.5.475.892.846 1.176.372.28.826.42 1.364.42.56 0 1.028-.147 1.403-.443.38-.299.663-.701.853-1.204a4.73 4.73 0 0 0 .29-1.694c0-.613-.095-1.166-.285-1.659-.185-.496-.467-.888-.846-1.176-.375-.292-.847-.437-1.415-.437-.545 0-1.004.138-1.375.414-.371.273-.651.656-.84 1.148-.19.489-.285 1.059-.285 1.71ZM103.329 127v-8.727h1.341V127h-1.341Zm.682-10.182a.951.951 0 0 1-.676-.267.857.857 0 0 1-.279-.642c0-.25.093-.464.279-.642a.951.951 0 0 1 .676-.267c.261 0 .485.089.67.267.19.178.284.392.284.642s-.094.464-.284.642a.932.932 0 0 1-.67.267Zm4.456 4.932V127h-1.341v-8.727h1.295v1.363h.114c.204-.443.515-.799.932-1.068.416-.273.954-.409 1.613-.409.591 0 1.108.121 1.551.364.444.238.788.602 1.034 1.091.247.484.37 1.098.37 1.841V127h-1.341v-5.455c0-.685-.178-1.219-.534-1.602-.356-.386-.845-.579-1.466-.579-.428 0-.811.092-1.148.278a1.998 1.998 0 0 0-.79.813c-.193.356-.289.787-.289 1.295Zm11.904-3.477v1.136h-4.704v-1.136h4.704ZM117.076 127v-9.932c0-.5.117-.916.352-1.25a2.19 2.19 0 0 1 .915-.75c.375-.166.771-.25 1.188-.25.329 0 .598.027.806.08.209.053.364.102.466.147l-.386 1.16a5.962 5.962 0 0 0-.284-.086 1.731 1.731 0 0 0-.466-.051c-.443 0-.763.112-.96.335-.194.224-.29.552-.29.983V127h-1.341Zm8.361.182c-.788 0-1.479-.188-2.074-.563-.591-.375-1.053-.899-1.386-1.574-.33-.674-.495-1.462-.495-2.363 0-.909.165-1.703.495-2.381.333-.678.795-1.204 1.386-1.579.595-.375 1.286-.563 2.074-.563.788 0 1.477.188 2.068.563.595.375 1.057.901 1.386 1.579.334.678.5 1.472.5 2.381 0 .901-.166 1.689-.5 2.363a3.758 3.758 0 0 1-1.386 1.574c-.591.375-1.28.563-2.068.563Zm0-1.205c.598 0 1.091-.153 1.477-.46a2.72 2.72 0 0 0 .858-1.21c.186-.5.278-1.042.278-1.625 0-.584-.092-1.127-.278-1.631a2.748 2.748 0 0 0-.858-1.221c-.386-.311-.879-.466-1.477-.466-.599 0-1.091.155-1.477.466-.387.31-.673.717-.858 1.221a4.672 4.672 0 0 0-.279 1.631c0 .583.093 1.125.279 1.625.185.5.471.903.858 1.21.386.307.878.46 1.477.46Zm6.001 1.023v-8.727h1.296v1.318h.091c.159-.432.447-.782.863-1.051a2.544 2.544 0 0 1 1.409-.404c.099 0 .222.002.37.006.147.004.259.01.335.017v1.364a3.462 3.462 0 0 0-.313-.051 3.014 3.014 0 0 0-.505-.04c-.425 0-.803.089-1.137.267a2.019 2.019 0 0 0-.784.727 1.963 1.963 0 0 0-.284 1.051V127h-1.341Zm5.953 0v-8.727h1.296v1.363h.113c.182-.466.476-.827.881-1.085.405-.261.892-.392 1.46-.392.576 0 1.055.131 1.438.392.386.258.687.619.903 1.085h.091c.224-.45.559-.808 1.006-1.074.447-.268.983-.403 1.608-.403.78 0 1.418.244 1.915.733.496.485.744 1.241.744 2.267V127h-1.341v-5.841c0-.644-.176-1.104-.528-1.381a1.96 1.96 0 0 0-1.245-.414c-.613 0-1.089.185-1.426.556-.337.368-.506.834-.506 1.398V127h-1.363v-5.977c0-.496-.161-.896-.483-1.199-.322-.307-.737-.46-1.244-.46-.349 0-.675.092-.978.278a2.107 2.107 0 0 0-.727.773 2.277 2.277 0 0 0-.273 1.13V127h-1.341Zm16.475.205a3.554 3.554 0 0 1-1.506-.313 2.58 2.58 0 0 1-1.074-.915c-.265-.401-.398-.886-.398-1.454 0-.5.099-.906.296-1.216.197-.315.46-.561.79-.739.329-.178.693-.31 1.091-.398.401-.09.805-.162 1.21-.215.53-.069.96-.12 1.29-.154.333-.038.575-.1.727-.187.155-.087.233-.239.233-.455v-.045c0-.561-.154-.997-.46-1.307-.303-.311-.764-.466-1.381-.466-.64 0-1.142.14-1.506.42-.363.281-.619.58-.767.898l-1.273-.454c.228-.531.531-.944.91-1.239a3.398 3.398 0 0 1 1.25-.625 5.192 5.192 0 0 1 1.34-.182c.281 0 .603.034.966.102.368.065.722.199 1.063.404.345.204.631.513.858.926.227.413.341.966.341 1.659V127h-1.341v-1.182h-.068a2.36 2.36 0 0 1-.455.608c-.212.216-.494.4-.846.551-.353.152-.783.228-1.29.228Zm.204-1.205c.531 0 .978-.104 1.341-.312.368-.209.644-.478.83-.807.189-.33.284-.676.284-1.04v-1.227c-.057.068-.182.13-.375.187-.19.053-.409.101-.659.142-.246.038-.487.072-.722.102-.231.027-.418.05-.562.069a5.107 5.107 0 0 0-.978.221 1.69 1.69 0 0 0-.727.449c-.182.197-.273.466-.273.807 0 .466.173.818.517 1.057.349.235.79.352 1.324.352Zm7.584-10.636V127h-1.341v-11.636h1.341ZM168.61 127v-8.727h1.296v1.363h.113c.182-.466.476-.827.881-1.085.405-.261.892-.392 1.46-.392.576 0 1.055.131 1.438.392.386.258.687.619.903 1.085h.091a2.55 2.55 0 0 1 1.006-1.074c.447-.268.983-.403 1.608-.403.78 0 1.418.244 1.914.733.497.485.745 1.241.745 2.267V127h-1.341v-5.841c0-.644-.176-1.104-.529-1.381a1.957 1.957 0 0 0-1.244-.414c-.614 0-1.089.185-1.426.556-.337.368-.506.834-.506 1.398V127h-1.363v-5.977c0-.496-.161-.896-.483-1.199-.322-.307-.737-.46-1.245-.46-.348 0-.674.092-.977.278a2.1 2.1 0 0 0-.727.773 2.277 2.277 0 0 0-.273 1.13V127h-1.341Zm17.565.182c-.84 0-1.566-.186-2.176-.557a3.736 3.736 0 0 1-1.403-1.568c-.326-.674-.489-1.459-.489-2.352 0-.894.163-1.682.489-2.364.329-.686.788-1.22 1.375-1.602.591-.387 1.28-.58 2.068-.58.455 0 .903.076 1.347.227.443.152.846.398 1.21.739.364.337.653.784.869 1.341.216.557.324 1.242.324 2.057v.568h-6.727v-1.159h5.363c0-.493-.098-.932-.295-1.318a2.219 2.219 0 0 0-.83-.915c-.356-.224-.776-.335-1.261-.335-.534 0-.996.132-1.386.397a2.617 2.617 0 0 0-.892 1.023 2.997 2.997 0 0 0-.313 1.352v.773c0 .659.114 1.218.341 1.676.231.455.551.801.96 1.04.409.235.885.352 1.426.352.353 0 .671-.049.955-.147.288-.103.536-.254.744-.455.209-.205.37-.458.483-.761l1.296.363c-.137.44-.366.826-.688 1.159-.322.33-.719.587-1.193.773a4.421 4.421 0 0 1-1.597.273Zm9.313 0c-.841 0-1.566-.186-2.176-.557a3.744 3.744 0 0 1-1.404-1.568c-.325-.674-.488-1.459-.488-2.352 0-.894.163-1.682.488-2.364.33-.686.788-1.22 1.375-1.602.591-.387 1.281-.58 2.069-.58.454 0 .903.076 1.346.227.443.152.847.398 1.21.739.364.337.654.784.87 1.341.216.557.324 1.242.324 2.057v.568h-6.728v-1.159h5.364c0-.493-.099-.932-.296-1.318a2.217 2.217 0 0 0-.829-.915c-.356-.224-.777-.335-1.261-.335-.535 0-.997.132-1.387.397a2.625 2.625 0 0 0-.892 1.023 3.01 3.01 0 0 0-.312 1.352v.773c0 .659.113 1.218.341 1.676.231.455.551.801.96 1.04.409.235.884.352 1.426.352.352 0 .67-.049.954-.147.288-.103.536-.254.745-.455.208-.205.369-.458.483-.761l1.295.363a2.86 2.86 0 0 1-.687 1.159c-.322.33-.72.587-1.193.773a4.425 4.425 0 0 1-1.597.273Zm9.449-8.909v1.136h-4.523v-1.136h4.523Zm-3.205-2.091h1.341v8.318c0 .379.055.663.165.852a.853.853 0 0 0 .432.375c.178.061.365.091.562.091.148 0 .269-.007.364-.023l.227-.045.273 1.205a2.74 2.74 0 0 1-.381.102 2.792 2.792 0 0 1-.619.057 2.7 2.7 0 0 1-1.114-.245 2.208 2.208 0 0 1-.897-.744c-.235-.333-.353-.754-.353-1.261v-8.682ZM206.954 127v-8.727h1.341V127h-1.341Zm.682-10.182a.951.951 0 0 1-.676-.267.857.857 0 0 1-.279-.642c0-.25.093-.464.279-.642a.951.951 0 0 1 .676-.267c.261 0 .485.089.67.267.19.178.284.392.284.642s-.094.464-.284.642a.932.932 0 0 1-.67.267Zm4.456 4.932V127h-1.341v-8.727h1.295v1.363h.114c.204-.443.515-.799.932-1.068.416-.273.954-.409 1.613-.409.591 0 1.108.121 1.551.364.444.238.788.602 1.034 1.091.247.484.37 1.098.37 1.841V127h-1.341v-5.455c0-.685-.178-1.219-.534-1.602-.356-.386-.845-.579-1.466-.579-.428 0-.811.092-1.148.278a1.998 1.998 0 0 0-.79.813c-.193.356-.289.787-.289 1.295Zm11.541 8.705c-.648 0-1.205-.084-1.671-.25a3.535 3.535 0 0 1-1.164-.648 3.518 3.518 0 0 1-.733-.852l1.068-.75c.121.159.274.34.46.545.186.208.439.388.761.54.326.155.752.233 1.279.233.704 0 1.286-.171 1.744-.512.458-.341.688-.875.688-1.602v-1.773h-.114a7.324 7.324 0 0 1-.42.591c-.178.231-.436.438-.773.62-.334.178-.784.267-1.352.267-.705 0-1.338-.167-1.898-.5-.557-.334-.998-.819-1.324-1.455-.322-.636-.483-1.409-.483-2.318 0-.894.157-1.672.472-2.335.314-.667.751-1.182 1.312-1.546.561-.367 1.208-.551 1.943-.551.568 0 1.019.095 1.353.284.337.186.594.398.772.637.182.234.322.428.421.579h.136v-1.386h1.296v8.977c0 .75-.171 1.36-.512 1.83-.337.473-.791.82-1.363 1.039a5.139 5.139 0 0 1-1.898.336Zm-.046-4.796c.538 0 .993-.123 1.364-.369.371-.246.653-.601.847-1.063.193-.462.289-1.015.289-1.659 0-.629-.094-1.184-.284-1.665-.189-.481-.469-.858-.841-1.13-.371-.273-.829-.409-1.375-.409-.568 0-1.041.144-1.42.431a2.637 2.637 0 0 0-.847 1.16 4.487 4.487 0 0 0-.278 1.613c0 .606.095 1.142.284 1.608.193.462.477.826.852 1.091.379.261.849.392 1.409.392Zm12.455-5.432-1.205.341a2.197 2.197 0 0 0-.335-.585 1.63 1.63 0 0 0-.591-.477c-.25-.125-.57-.188-.96-.188-.534 0-.979.123-1.335.37-.353.242-.529.551-.529.926 0 .333.122.596.364.789.242.194.621.355 1.136.483l1.296.319c.78.189 1.362.479 1.744.869.383.386.574.884.574 1.494 0 .5-.144.947-.432 1.341-.284.394-.682.705-1.193.932-.511.227-1.106.341-1.784.341-.89 0-1.627-.193-2.21-.58-.584-.386-.953-.95-1.108-1.693l1.272-.318c.122.47.351.822.688 1.057.341.235.786.352 1.335.352.625 0 1.121-.133 1.489-.398.371-.269.557-.591.557-.966 0-.303-.106-.556-.319-.761-.212-.208-.537-.364-.977-.466l-1.454-.341c-.8-.189-1.387-.483-1.762-.88-.371-.402-.557-.904-.557-1.506 0-.493.139-.928.415-1.307a2.827 2.827 0 0 1 1.142-.892c.485-.216 1.034-.324 1.648-.324.864 0 1.542.189 2.034.568.496.379.849.879 1.057 1.5Zm-175.6 27.637c-.473 0-.888-.118-1.244-.353a2.116 2.116 0 0 1-.784-.943 2.281 2.281 0 0 1-.13-1.295 2.74 2.74 0 0 1 .528-1.222 3.05 3.05 0 0 1 1.017-.863 2.649 2.649 0 0 1 1.273-.324c.473 0 .884.119 1.233.358.352.234.613.549.784.943.17.39.217.82.142 1.29a2.7 2.7 0 0 1-.529 1.227 3.062 3.062 0 0 1-1.017.863 2.677 2.677 0 0 1-1.273.319Zm16.42 2.318c-.836 0-1.527-.186-2.073-.557-.545-.375-.926-.898-1.142-1.568-.216-.674-.25-1.459-.102-2.352.147-.894.441-1.682.88-2.364a4.83 4.83 0 0 1 1.642-1.602 4.168 4.168 0 0 1 2.16-.58c.454 0 .892.076 1.312.227.42.152.784.398 1.091.739.307.337.52.784.642 1.341.121.557.114 1.242-.023 2.057l-.09.568H74.43l.182-1.159h5.364c.087-.493.064-.932-.069-1.318a1.754 1.754 0 0 0-.676-.915c-.318-.224-.721-.335-1.21-.335-.504 0-.974.136-1.41.409a3.72 3.72 0 0 0-1.09 1.022c-.292.41-.474.826-.545 1.25l-.16 1c-.113.724-.096 1.3.052 1.728.151.428.414.736.79.926.374.185.844.278 1.408.278.36 0 .692-.049.995-.147.303-.103.574-.254.812-.455a2.63 2.63 0 0 0 .603-.761l1.227.363c-.208.44-.502.826-.88 1.159-.376.33-.815.587-1.319.773-.5.182-1.047.273-1.642.273Zm6.845-.091a.97.97 0 0 1-.722-.296 1.052 1.052 0 0 1-.301-.727.91.91 0 0 1 .301-.71c.205-.193.445-.29.722-.29.28 0 .522.099.727.296a.905.905 0 0 1 .295.704 1.01 1.01 0 0 1-.147.517 1.013 1.013 0 0 1-.875.506Zm6.247 3.364c-.652 0-1.197-.084-1.636-.25-.44-.163-.792-.379-1.057-.648a2.874 2.874 0 0 1-.603-.852l1.205-.75c.09.159.208.34.352.545.144.208.362.388.654.54.295.155.71.233 1.244.233.7 0 1.314-.171 1.84-.512.527-.341.853-.875.978-1.602l.273-1.773h-.114c-.121.159-.29.356-.505.591a3.036 3.036 0 0 1-.87.62c-.363.178-.83.267-1.398.267-.708 0-1.314-.167-1.818-.5-.503-.334-.865-.819-1.085-1.455-.216-.636-.248-1.409-.097-2.318.148-.894.432-1.672.853-2.335.424-.667.947-1.182 1.568-1.546a3.928 3.928 0 0 1 2.034-.551c.568 0 1.004.095 1.307.284.307.186.53.398.67.637.14.234.247.428.319.579h.136l.227-1.386h1.296l-1.478 8.977c-.125.75-.395 1.36-.812 1.83-.417.473-.928.82-1.534 1.039a5.577 5.577 0 0 1-1.95.336Zm.704-4.796c.534 0 1.01-.123 1.427-.369a2.96 2.96 0 0 0 1.045-1.063c.276-.462.468-1.015.574-1.659.106-.629.098-1.184-.023-1.665-.121-.481-.35-.858-.687-1.13-.334-.273-.771-.409-1.313-.409-.572 0-1.066.144-1.483.431a3.232 3.232 0 0 0-1.005 1.16 5.243 5.243 0 0 0-.535 1.613c-.098.606-.094 1.142.012 1.608.106.462.322.826.647 1.091.33.261.777.392 1.341.392Zm7.205 1.432a.97.97 0 0 1-.722-.296 1.052 1.052 0 0 1-.3-.727.91.91 0 0 1 .3-.71c.205-.193.445-.29.722-.29.28 0 .523.099.727.296a.906.906 0 0 1 .296.704 1.01 1.01 0 0 1-.148.517 1.013 1.013 0 0 1-.875.506Zm11.293-11.727L107.224 150h-1.409l1.931-11.636h1.41Zm2.916 6.386-.864 5.25h-1.341l1.455-8.727h1.295l-.227 1.363h.114a3.086 3.086 0 0 1 1.108-1.068c.465-.273 1.028-.409 1.687-.409.583 0 1.076.121 1.477.364.406.238.692.602.858 1.091.171.484.195 1.098.074 1.841l-.932 5.545h-1.341l.909-5.455c.114-.681.025-1.215-.267-1.602-.287-.386-.744-.579-1.369-.579-.432 0-.831.092-1.199.278a2.562 2.562 0 0 0-.926.813c-.25.356-.42.787-.511 1.295Zm15.433-3.477L122.823 150h-1.363l-1.773-8.727h1.398l1.25 6.954h.09l3.569-6.954h1.511Zm.315 8.727 1.455-8.727h1.341L129.161 150h-1.341Zm2.534-10.205a.955.955 0 0 1-.676-.267.86.86 0 0 1-.278-.642.86.86 0 0 1 .278-.642.955.955 0 0 1 .676-.267c.262 0 .485.089.671.267a.851.851 0 0 1 .284.642c0 .25-.095.464-.284.642a.935.935 0 0 1-.671.267Zm6.513 1.478-.182 1.136h-4.522l.181-1.136h4.523Zm-2.863-2.091h1.34l-1.386 8.318c-.061.379-.051.663.029.852a.67.67 0 0 0 .375.375c.17.061.354.091.551.091.147 0 .269-.007.363-.023l.228-.045.09 1.205c-.102.034-.24.068-.414.102a2.961 2.961 0 0 1-.631.057c-.379 0-.735-.082-1.068-.245a1.693 1.693 0 0 1-.767-.744c-.178-.333-.226-.754-.142-1.261l1.432-8.682Zm6.968 11c-.837 0-1.528-.186-2.074-.557-.545-.375-.926-.898-1.142-1.568-.216-.674-.25-1.459-.102-2.352.148-.894.441-1.682.881-2.364a4.829 4.829 0 0 1 1.642-1.602 4.167 4.167 0 0 1 2.159-.58c.454 0 .892.076 1.312.227a2.66 2.66 0 0 1 1.091.739c.307.337.521.784.642 1.341.122.557.114 1.242-.022 2.057l-.091.568h-6.728l.182-1.159h5.364c.087-.493.064-.932-.068-1.318a1.754 1.754 0 0 0-.676-.915c-.319-.224-.722-.335-1.211-.335-.503 0-.973.136-1.409.409-.435.269-.799.61-1.091 1.022-.291.41-.473.826-.545 1.25l-.159 1c-.114.724-.097 1.3.051 1.728.151.428.415.736.79.926.375.185.844.278 1.409.278.36 0 .691-.049.994-.147a2.5 2.5 0 0 0 .813-.455c.238-.205.439-.458.602-.761l1.227.363c-.208.44-.502.826-.88 1.159-.375.33-.815.587-1.319.773-.5.182-1.047.273-1.642.273Zm15.458-8.909-.182 1.136h-4.523l.182-1.136h4.523Zm-2.864-2.091h1.341l-1.386 8.318c-.061.379-.052.663.028.852a.67.67 0 0 0 .375.375c.17.061.354.091.551.091.148 0 .269-.007.364-.023l.227-.045.091 1.205a3.492 3.492 0 0 1-.415.102c-.17.038-.38.057-.63.057-.379 0-.735-.082-1.069-.245a1.698 1.698 0 0 1-.767-.744c-.178-.333-.225-.754-.142-1.261l1.432-8.682Zm5.818 5.568-.863 5.25h-1.341l1.932-11.636h1.34l-.704 4.272h.114a3.038 3.038 0 0 1 1.09-1.079c.459-.265 1.035-.398 1.728-.398.591 0 1.089.119 1.494.358.409.235.697.597.864 1.085.17.485.195 1.103.074 1.853L164.18 150h-1.341l.909-5.455c.114-.693.021-1.229-.279-1.607-.295-.383-.755-.574-1.38-.574-.44 0-.849.092-1.227.278a2.607 2.607 0 0 0-.955.813c-.258.356-.432.787-.523 1.295Zm10.885 5.432c-.837 0-1.528-.186-2.074-.557-.545-.375-.926-.898-1.142-1.568-.216-.674-.25-1.459-.102-2.352.148-.894.441-1.682.881-2.364a4.82 4.82 0 0 1 1.642-1.602 4.167 4.167 0 0 1 2.159-.58c.454 0 .892.076 1.312.227.421.152.784.398 1.091.739.307.337.521.784.642 1.341.121.557.114 1.242-.022 2.057l-.091.568h-6.728l.182-1.159h5.364c.087-.493.064-.932-.068-1.318a1.756 1.756 0 0 0-.677-.915c-.318-.224-.721-.335-1.21-.335-.504 0-.973.136-1.409.409-.435.269-.799.61-1.091 1.022-.291.41-.473.826-.545 1.25l-.159 1c-.114.724-.097 1.3.051 1.728.151.428.415.736.79.926.375.185.844.278 1.409.278.36 0 .691-.049.994-.147a2.5 2.5 0 0 0 .813-.455c.238-.205.439-.458.602-.761l1.227.363c-.208.44-.502.826-.881 1.159-.375.33-.814.587-1.318.773-.5.182-1.047.273-1.642.273Zm5.708-.182 1.454-8.727h1.296l-.228 1.363h.114a2.812 2.812 0 0 1 1.062-1.085 2.998 2.998 0 0 1 1.529-.392c.568 0 1.024.131 1.369.392.345.258.585.619.722 1.085h.091a3.182 3.182 0 0 1 1.181-1.079 3.517 3.517 0 0 1 1.682-.398c.773 0 1.368.244 1.784.733.421.489.546 1.244.375 2.267l-.977 5.841h-1.341l.977-5.841c.103-.648 0-1.108-.306-1.381-.303-.276-.694-.414-1.171-.414-.613 0-1.119.183-1.517.551-.398.367-.642.835-.733 1.403l-.954 5.682h-1.364l1-5.977c.08-.5-.015-.902-.284-1.205-.269-.303-.659-.454-1.171-.454-.348 0-.689.094-1.022.284-.334.185-.62.443-.858.772a2.556 2.556 0 0 0-.46 1.125l-.91 5.455h-1.34Zm23.656-8.727-.182 1.136h-4.523l.182-1.136h4.523Zm-2.864-2.091h1.341l-1.386 8.318c-.061.379-.051.663.028.852a.67.67 0 0 0 .375.375c.171.061.354.091.551.091.148 0 .269-.007.364-.023l.227-.045.091 1.205c-.102.034-.24.068-.415.102-.17.038-.38.057-.63.057-.379 0-.735-.082-1.069-.245a1.698 1.698 0 0 1-.767-.744c-.178-.333-.225-.754-.142-1.261l1.432-8.682Zm6.935 11c-.803 0-1.476-.191-2.017-.574-.542-.383-.924-.919-1.148-1.608-.22-.689-.256-1.492-.108-2.409.144-.894.43-1.672.858-2.335a4.64 4.64 0 0 1 1.608-1.546 4.216 4.216 0 0 1 2.125-.551c.803 0 1.474.193 2.011.58.542.382.925.92 1.148 1.613.224.69.261 1.496.114 2.421-.144.886-.434 1.661-.87 2.324a4.702 4.702 0 0 1-1.608 1.539 4.177 4.177 0 0 1-2.113.546Zm.023-1.205c.613 0 1.145-.157 1.596-.471a3.536 3.536 0 0 0 1.102-1.245 5.138 5.138 0 0 0 .574-1.67 4.448 4.448 0 0 0-.011-1.585c-.099-.493-.309-.889-.631-1.188-.322-.303-.774-.454-1.358-.454-.613 0-1.149.159-1.608.477a3.582 3.582 0 0 0-1.102 1.256 5.2 5.2 0 0 0-.562 1.676 4.55 4.55 0 0 0 .005 1.585c.099.485.309.877.631 1.176.326.296.78.443 1.364.443Zm13.694-10.613L215.489 150h-1.341l1.932-11.636h1.341Zm6.615 8.068.864-5.159h1.341L224.786 150h-1.341l.25-1.477h-.091c-.272.443-.653.82-1.142 1.13-.488.307-1.062.461-1.721.461-.546 0-1.012-.12-1.398-.358-.383-.243-.655-.606-.818-1.091-.159-.489-.178-1.104-.057-1.847l.932-5.545h1.341l-.909 5.454c-.103.637-.006 1.144.289 1.523.296.379.722.568 1.279.568.333 0 .685-.085 1.057-.256.375-.17.708-.431 1-.784.295-.352.488-.801.579-1.346Zm5.411-1.682-.864 5.25h-1.341l1.455-8.727h1.295l-.227 1.363h.114a3.086 3.086 0 0 1 1.108-1.068c.465-.273 1.028-.409 1.687-.409.583 0 1.076.121 1.477.364.406.238.692.602.858 1.091.171.484.195 1.098.074 1.841l-.932 5.545h-1.341l.909-5.455c.114-.681.025-1.215-.267-1.602-.287-.386-.744-.579-1.369-.579-.432 0-.831.092-1.199.278a2.562 2.562 0 0 0-.926.813c-.25.356-.42.787-.511 1.295Zm10.677 5.432c-.822 0-1.496-.193-2.022-.58-.523-.386-.887-.918-1.091-1.596-.205-.678-.235-1.453-.091-2.324.144-.887.435-1.669.875-2.347a4.838 4.838 0 0 1 1.642-1.596 4.178 4.178 0 0 1 2.165-.58c.613 0 1.147.114 1.602.341.454.227.805.545 1.051.955.246.409.362.886.347 1.431h-1.341a1.702 1.702 0 0 0-.512-1.056c-.299-.311-.742-.466-1.329-.466a2.68 2.68 0 0 0-1.443.409c-.44.269-.809.649-1.108 1.142-.3.488-.502 1.062-.608 1.721-.114.675-.105 1.262.028 1.762s.373.888.722 1.164c.348.277.788.415 1.318.415.348 0 .674-.06.977-.182a2.469 2.469 0 0 0 1.364-1.34h1.341a3.876 3.876 0 0 1-.801 1.392 4.091 4.091 0 0 1-1.336.977 4.173 4.173 0 0 1-1.75.358Zm7.62-5.432-.864 5.25h-1.341l1.932-11.636h1.341l-.705 4.272h.114a3.04 3.04 0 0 1 1.091-1.079c.458-.265 1.034-.398 1.727-.398.591 0 1.089.119 1.494.358.409.235.697.597.864 1.085.17.485.195 1.103.074 1.853l-.932 5.545h-1.341l.909-5.455c.114-.693.021-1.229-.278-1.607-.296-.383-.756-.574-1.381-.574-.439 0-.848.092-1.227.278a2.615 2.615 0 0 0-.955.813c-.257.356-.431.787-.522 1.295Zm14.294 5.455c-.553 0-1.038-.105-1.455-.313a2.041 2.041 0 0 1-.926-.915c-.201-.401-.256-.886-.165-1.454.087-.5.256-.906.506-1.216.25-.315.553-.561.909-.739.36-.182.746-.316 1.159-.403.417-.091.831-.161 1.244-.21.538-.069.976-.122 1.313-.16.337-.037.591-.1.761-.187.171-.087.275-.237.313-.449v-.045c.091-.557.017-.991-.222-1.302-.238-.314-.665-.471-1.278-.471-.637 0-1.169.14-1.597.42-.428.281-.744.58-.949.898l-1.182-.454c.311-.531.682-.944 1.114-1.239a4.115 4.115 0 0 1 1.358-.625 5.53 5.53 0 0 1 1.369-.182c.281 0 .597.034.949.102.353.065.682.199.989.404.31.204.543.513.699.926.159.413.182.966.068 1.659l-.955 5.75h-1.341l.205-1.182h-.068a2.91 2.91 0 0 1-.557.608c-.246.216-.559.4-.937.551-.375.152-.817.228-1.324.228Zm.386-1.205c.53 0 .994-.104 1.392-.312.402-.209.724-.478.966-.807.246-.33.4-.676.46-1.04l.205-1.227c-.068.068-.203.13-.404.187-.2.053-.428.101-.681.142-.25.038-.495.072-.733.102-.235.027-.425.05-.569.069a5.749 5.749 0 0 0-1.017.221 2.09 2.09 0 0 0-.806.449c-.216.197-.351.466-.404.807-.079.466.032.818.335 1.057.303.235.722.352 1.256.352Zm11.425-7.727-.182 1.136h-4.705l.182-1.136h4.705Zm-4.75 8.727 1.659-9.932c.076-.5.257-.916.545-1.25a2.8 2.8 0 0 1 1.04-.75c.405-.166.816-.25 1.233-.25.33 0 .593.027.79.08.201.053.346.102.437.147l-.568 1.16a8.077 8.077 0 0 0-.273-.086 1.593 1.593 0 0 0-.454-.051c-.443 0-.78.112-1.012.335-.231.224-.386.552-.465.983L270.44 150h-1.341Zm10.424-8.727-.181 1.136h-4.523l.182-1.136h4.522Zm-2.863-2.091h1.341l-1.387 8.318c-.06.379-.051.663.029.852a.67.67 0 0 0 .375.375c.17.061.354.091.551.091.148 0 .269-.007.364-.023l.227-.045.091 1.205a3.543 3.543 0 0 1-.415.102 2.961 2.961 0 0 1-.631.057c-.379 0-.735-.082-1.068-.245a1.698 1.698 0 0 1-.767-.744c-.178-.333-.225-.754-.142-1.261l1.432-8.682Zm6.969 11c-.838 0-1.529-.186-2.074-.557-.546-.375-.926-.898-1.142-1.568-.216-.674-.25-1.459-.103-2.352.148-.894.442-1.682.881-2.364a4.829 4.829 0 0 1 1.642-1.602 4.167 4.167 0 0 1 2.159-.58c.455 0 .892.076 1.313.227.42.152.784.398 1.091.739.306.337.52.784.642 1.341.121.557.113 1.242-.023 2.057l-.091.568h-6.727l.182-1.159h5.363c.087-.493.065-.932-.068-1.318a1.754 1.754 0 0 0-.676-.915c-.318-.224-.722-.335-1.21-.335-.504 0-.974.136-1.409.409-.436.269-.8.61-1.091 1.022-.292.41-.474.826-.546 1.25l-.159 1c-.114.724-.096 1.3.051 1.728.152.428.415.736.79.926.375.185.845.278 1.409.278.36 0 .691-.049.994-.147a2.5 2.5 0 0 0 .813-.455c.239-.205.439-.458.602-.761l1.227.363c-.208.44-.501.826-.88 1.159-.375.33-.815.587-1.318.773a4.77 4.77 0 0 1-1.642.273Zm5.707-.182 1.454-8.727h1.296l-.227 1.318h.091c.227-.432.573-.782 1.039-1.051a2.923 2.923 0 0 1 1.483-.404c.103 0 .226.002.37.006.144 0 .255.006.335.017l-.227 1.364a3.455 3.455 0 0 0-.307-.051 3.065 3.065 0 0 0-.512-.04c-.424 0-.816.089-1.176.267-.36.174-.661.417-.903.727a2.293 2.293 0 0 0-.466 1.051l-.909 5.523h-1.341Zm14.007.182c-.822 0-1.496-.193-2.023-.58-.522-.386-.886-.918-1.091-1.596-.204-.678-.234-1.453-.091-2.324.144-.887.436-1.669.875-2.347a4.85 4.85 0 0 1 1.643-1.596 4.175 4.175 0 0 1 2.164-.58c.614 0 1.148.114 1.603.341.454.227.805.545 1.051.955.246.409.361.886.346 1.431h-1.341a1.695 1.695 0 0 0-.511-1.056c-.299-.311-.742-.466-1.33-.466-.522 0-1.003.136-1.443.409a3.345 3.345 0 0 0-1.108 1.142c-.299.488-.502 1.062-.608 1.721-.113.675-.104 1.262.029 1.762.132.5.373.888.721 1.164.349.277.788.415 1.319.415.348 0 .674-.06.977-.182a2.469 2.469 0 0 0 1.363-1.34h1.341a3.847 3.847 0 0 1-.801 1.392 4.077 4.077 0 0 1-1.335.977 4.176 4.176 0 0 1-1.75.358Zm8.688-11.818L310.099 150h-1.341l1.932-11.636h1.341Zm3.069 11.841c-.553 0-1.038-.105-1.454-.313a2.043 2.043 0 0 1-.927-.915c-.2-.401-.255-.886-.164-1.454.087-.5.255-.906.505-1.216.25-.315.553-.561.909-.739.36-.182.747-.316 1.16-.403.416-.091.831-.161 1.244-.21.538-.069.975-.122 1.312-.16.337-.037.591-.1.762-.187.17-.087.274-.237.312-.449v-.045c.091-.557.017-.991-.221-1.302-.239-.314-.665-.471-1.279-.471-.636 0-1.168.14-1.596.42-.428.281-.745.58-.949.898l-1.182-.454c.311-.531.682-.944 1.114-1.239a4.097 4.097 0 0 1 1.358-.625 5.518 5.518 0 0 1 1.369-.182c.28 0 .596.034.949.102.352.065.682.199.988.404.311.204.544.513.699.926.159.413.182.966.068 1.659l-.954 5.75h-1.341l.205-1.182h-.069c-.121.19-.306.392-.556.608-.247.216-.559.4-.938.551-.375.152-.816.228-1.324.228Zm.387-1.205c.53 0 .994-.104 1.392-.312.401-.209.723-.478.965-.807.247-.33.4-.676.461-1.04l.204-1.227c-.068.068-.202.13-.403.187a7.157 7.157 0 0 1-.682.142c-.25.038-.494.072-.733.102-.235.027-.424.05-.568.069a5.749 5.749 0 0 0-1.017.221 2.102 2.102 0 0 0-.807.449c-.216.197-.35.466-.403.807-.08.466.032.818.335 1.057.303.235.721.352 1.256.352Zm13.401-5.773-1.272.341a1.996 1.996 0 0 0-.239-.591c-.11-.193-.28-.35-.511-.471-.228-.125-.538-.188-.932-.188-.534 0-.998.123-1.392.37-.394.242-.619.551-.676.926-.057.329.019.592.227.789.208.197.557.358 1.045.483l1.25.319c.75.193 1.285.482 1.603.869.322.382.432.881.329 1.494-.083.5-.301.947-.653 1.341a3.649 3.649 0 0 1-1.352.932 4.766 4.766 0 0 1-1.836.341c-.897 0-1.606-.193-2.125-.58-.519-.39-.795-.954-.829-1.693l1.341-.318c.034.466.201.818.5 1.057.303.235.727.352 1.272.352.625 0 1.146-.133 1.563-.398.417-.269.653-.591.71-.966.057-.306-.004-.562-.182-.767-.174-.204-.477-.358-.909-.46l-1.386-.341c-.773-.193-1.314-.488-1.625-.886-.307-.398-.409-.898-.307-1.5a2.56 2.56 0 0 1 .636-1.307 3.584 3.584 0 0 1 1.296-.892 4.42 4.42 0 0 1 1.704-.324c.864 0 1.51.189 1.938.568.428.375.699.875.812 1.5Zm8.36 0-1.273.341a1.993 1.993 0 0 0-.238-.591 1.219 1.219 0 0 0-.512-.471c-.227-.125-.538-.188-.932-.188-.534 0-.998.123-1.392.37-.394.242-.619.551-.676.926-.057.329.019.592.227.789.209.197.557.358 1.046.483l1.25.319c.75.193 1.284.482 1.602.869.322.382.432.881.33 1.494-.084.5-.301.947-.654 1.341a3.649 3.649 0 0 1-1.352.932 4.761 4.761 0 0 1-1.835.341c-.898 0-1.606-.193-2.125-.58-.519-.39-.796-.954-.83-1.693l1.341-.318c.034.466.201.818.5 1.057.303.235.727.352 1.273.352.625 0 1.146-.133 1.562-.398.417-.269.654-.591.711-.966.056-.306-.004-.562-.182-.767-.174-.204-.477-.358-.909-.46l-1.387-.341c-.772-.193-1.314-.488-1.625-.886-.306-.398-.409-.898-.306-1.5.083-.493.295-.928.636-1.307a3.58 3.58 0 0 1 1.295-.892 4.422 4.422 0 0 1 1.705-.324c.864 0 1.509.189 1.937.568.428.375.699.875.813 1.5Zm9.143 6.955c-.803 0-1.475-.191-2.017-.574-.541-.383-.924-.919-1.147-1.608-.22-.689-.256-1.492-.108-2.409.144-.894.43-1.672.858-2.335a4.623 4.623 0 0 1 1.608-1.546 4.214 4.214 0 0 1 2.125-.551c.803 0 1.473.193 2.011.58.542.382.924.92 1.148 1.613.223.69.261 1.496.113 2.421-.144.886-.433 1.661-.869 2.324a4.72 4.72 0 0 1-1.608 1.539 4.181 4.181 0 0 1-2.114.546Zm.023-1.205c.614 0 1.146-.157 1.597-.471a3.545 3.545 0 0 0 1.102-1.245 5.185 5.185 0 0 0 .574-1.67 4.424 4.424 0 0 0-.012-1.585c-.098-.493-.308-.889-.63-1.188-.322-.303-.775-.454-1.358-.454-.614 0-1.15.159-1.608.477a3.572 3.572 0 0 0-1.102 1.256 5.201 5.201 0 0 0-.563 1.676 4.524 4.524 0 0 0 .006 1.585c.098.485.308.877.63 1.176.326.296.781.443 1.364.443Zm5.922 1.023 1.454-8.727h1.296l-.227 1.318h.091c.227-.432.573-.782 1.039-1.051a2.923 2.923 0 0 1 1.483-.404c.103 0 .226.002.37.006.144 0 .255.006.335.017l-.227 1.364a3.455 3.455 0 0 0-.307-.051 3.065 3.065 0 0 0-.512-.04c-.424 0-.816.089-1.176.267-.36.174-.661.417-.903.727a2.293 2.293 0 0 0-.466 1.051l-.909 5.523h-1.341Zm17.802-6.773-1.272.341a1.996 1.996 0 0 0-.239-.591c-.11-.193-.28-.35-.511-.471-.228-.125-.538-.188-.932-.188-.534 0-.998.123-1.392.37-.394.242-.619.551-.676.926-.057.329.019.592.227.789.208.197.557.358 1.045.483l1.25.319c.75.193 1.285.482 1.603.869.322.382.432.881.329 1.494-.083.5-.301.947-.653 1.341a3.649 3.649 0 0 1-1.352.932 4.766 4.766 0 0 1-1.836.341c-.897 0-1.606-.193-2.125-.58-.519-.39-.795-.954-.829-1.693l1.341-.318c.034.466.201.818.5 1.057.303.235.727.352 1.272.352.625 0 1.146-.133 1.563-.398.417-.269.653-.591.71-.966.057-.306-.004-.562-.182-.767-.174-.204-.477-.358-.909-.46l-1.386-.341c-.773-.193-1.314-.488-1.625-.886-.307-.398-.409-.898-.307-1.5a2.56 2.56 0 0 1 .636-1.307 3.584 3.584 0 0 1 1.296-.892 4.42 4.42 0 0 1 1.704-.324c.864 0 1.51.189 1.938.568.428.375.699.875.812 1.5Zm6.292-1.954-.182 1.136h-4.523l.182-1.136h4.523Zm-2.864-2.091h1.341l-1.386 8.318c-.061.379-.052.663.028.852a.67.67 0 0 0 .375.375c.17.061.354.091.551.091.148 0 .269-.007.364-.023l.227-.045.091 1.205a3.492 3.492 0 0 1-.415.102c-.17.038-.38.057-.63.057-.379 0-.735-.082-1.069-.245a1.698 1.698 0 0 1-.767-.744c-.178-.333-.225-.754-.142-1.261l1.432-8.682Zm9.517 7.25.864-5.159h1.341L383.833 150h-1.341l.25-1.477h-.091c-.272.443-.653.82-1.142 1.13-.488.307-1.062.461-1.721.461-.546 0-1.012-.12-1.398-.358-.383-.243-.655-.606-.818-1.091-.159-.489-.178-1.104-.057-1.847l.932-5.545h1.341l-.909 5.454c-.103.637-.006 1.144.289 1.523.296.379.722.568 1.279.568.333 0 .685-.085 1.057-.256.375-.17.708-.431 1-.784.295-.352.488-.801.579-1.346Zm6.49 3.75c-.731 0-1.345-.184-1.841-.551-.496-.372-.846-.894-1.051-1.569-.201-.678-.225-1.479-.074-2.403.156-.917.445-1.712.87-2.386.428-.675.952-1.195 1.573-1.563a3.932 3.932 0 0 1 2.035-.551c.568 0 1.001.095 1.301.284.303.186.522.398.659.637.136.234.24.428.312.579h.114l.716-4.295h1.341L393.596 150H392.3l.228-1.341h-.159c-.125.159-.3.36-.523.602a3.22 3.22 0 0 1-.886.642c-.364.186-.826.279-1.387.279Zm.33-1.205a2.56 2.56 0 0 0 1.443-.42 3.385 3.385 0 0 0 1.068-1.176 5.307 5.307 0 0 0 .591-1.745c.11-.651.106-1.221-.011-1.71-.118-.492-.343-.875-.677-1.148-.333-.276-.774-.414-1.323-.414-.565 0-1.055.145-1.472.437-.417.288-.756.68-1.017 1.176a5.423 5.423 0 0 0-.545 1.659c-.103.622-.105 1.186-.006 1.694.098.503.307.905.625 1.204.322.296.763.443 1.324.443Zm6.653 4.296c-.227 0-.428-.019-.602-.057a1.443 1.443 0 0 1-.352-.102l.545-1.182c.311.083.587.108.83.074.246-.031.479-.15.698-.358.224-.205.457-.527.699-.966l.375-.682-1.75-8.727h1.398l1.25 6.977h.091l3.568-6.977h1.511l-5.352 9.988c-.25.466-.524.847-.824 1.142a2.89 2.89 0 0 1-2.085.87Zm20.395-10.046-1.273.341a1.993 1.993 0 0 0-.238-.591 1.219 1.219 0 0 0-.512-.471c-.227-.125-.538-.188-.932-.188-.534 0-.998.123-1.392.37-.394.242-.619.551-.676.926-.057.329.019.592.228.789.208.197.556.358 1.045.483l1.25.319c.75.193 1.284.482 1.602.869.322.382.432.881.33 1.494-.084.5-.301.947-.654 1.341a3.649 3.649 0 0 1-1.352.932 4.761 4.761 0 0 1-1.835.341c-.898 0-1.606-.193-2.125-.58-.519-.39-.796-.954-.83-1.693l1.341-.318c.034.466.201.818.5 1.057.303.235.728.352 1.273.352.625 0 1.146-.133 1.562-.398.417-.269.654-.591.711-.966.057-.306-.004-.562-.182-.767-.174-.204-.477-.358-.909-.46l-1.387-.341c-.772-.193-1.314-.488-1.625-.886-.306-.398-.409-.898-.306-1.5.083-.493.295-.928.636-1.307a3.589 3.589 0 0 1 1.295-.892 4.422 4.422 0 0 1 1.705-.324c.864 0 1.509.189 1.937.568.429.375.699.875.813 1.5Zm4.678 6.955c-.838 0-1.529-.186-2.074-.557-.546-.375-.926-.898-1.142-1.568-.216-.674-.25-1.459-.103-2.352.148-.894.442-1.682.881-2.364a4.829 4.829 0 0 1 1.642-1.602 4.167 4.167 0 0 1 2.159-.58c.455 0 .892.076 1.313.227.42.152.784.398 1.091.739.306.337.52.784.642 1.341.121.557.113 1.242-.023 2.057l-.091.568h-6.727l.182-1.159h5.363c.087-.493.065-.932-.068-1.318a1.754 1.754 0 0 0-.676-.915c-.318-.224-.722-.335-1.21-.335-.504 0-.974.136-1.409.409-.436.269-.8.61-1.091 1.022-.292.41-.474.826-.546 1.25l-.159 1c-.114.724-.096 1.3.051 1.728.152.428.415.736.79.926.375.185.845.278 1.409.278.36 0 .691-.049.994-.147a2.5 2.5 0 0 0 .813-.455c.239-.205.439-.458.602-.761l1.227.363c-.208.44-.501.826-.88 1.159-.375.33-.815.587-1.318.773a4.77 4.77 0 0 1-1.642.273Zm13.025-6.955-1.273.341a1.993 1.993 0 0 0-.238-.591 1.219 1.219 0 0 0-.512-.471c-.227-.125-.537-.188-.931-.188-.535 0-.999.123-1.392.37-.394.242-.62.551-.677.926-.056.329.019.592.228.789.208.197.556.358 1.045.483l1.25.319c.75.193 1.284.482 1.602.869.322.382.432.881.33 1.494-.083.5-.301.947-.653 1.341a3.66 3.66 0 0 1-1.353.932 4.761 4.761 0 0 1-1.835.341c-.898 0-1.606-.193-2.125-.58-.519-.39-.795-.954-.83-1.693l1.341-.318c.034.466.201.818.5 1.057.303.235.728.352 1.273.352.625 0 1.146-.133 1.563-.398.416-.269.653-.591.71-.966.057-.306-.004-.562-.182-.767-.174-.204-.477-.358-.909-.46l-1.386-.341c-.773-.193-1.315-.488-1.625-.886-.307-.398-.41-.898-.307-1.5.083-.493.295-.928.636-1.307a3.584 3.584 0 0 1 1.296-.892 4.413 4.413 0 0 1 1.704-.324c.864 0 1.51.189 1.938.568.428.375.698.875.812 1.5Zm8.359 0-1.272.341a1.996 1.996 0 0 0-.239-.591c-.11-.193-.28-.35-.511-.471-.228-.125-.538-.188-.932-.188-.534 0-.998.123-1.392.37-.394.242-.619.551-.676.926-.057.329.019.592.227.789.208.197.557.358 1.045.483l1.25.319c.75.193 1.285.482 1.603.869.322.382.432.881.329 1.494-.083.5-.301.947-.653 1.341a3.649 3.649 0 0 1-1.352.932 4.766 4.766 0 0 1-1.836.341c-.897 0-1.606-.193-2.125-.58-.519-.39-.795-.954-.829-1.693l1.341-.318c.034.466.201.818.5 1.057.303.235.727.352 1.272.352.625 0 1.146-.133 1.563-.398.417-.269.653-.591.71-.966.057-.306-.004-.562-.182-.767-.174-.204-.477-.358-.909-.46l-1.386-.341c-.773-.193-1.314-.488-1.625-.886-.307-.398-.409-.898-.307-1.5a2.56 2.56 0 0 1 .636-1.307 3.584 3.584 0 0 1 1.296-.892 4.42 4.42 0 0 1 1.704-.324c.864 0 1.51.189 1.938.568.428.375.699.875.812 1.5Zm1.042 6.773 1.454-8.727h1.341L445.396 150h-1.341Zm2.534-10.205a.951.951 0 0 1-.676-.267.857.857 0 0 1-.279-.642c0-.25.093-.464.279-.642a.951.951 0 0 1 .676-.267c.261 0 .485.089.67.267.19.178.284.392.284.642s-.094.464-.284.642a.932.932 0 0 1-.67.267Zm4.865 10.387c-.803 0-1.476-.191-2.017-.574-.542-.383-.924-.919-1.148-1.608-.22-.689-.256-1.492-.108-2.409.144-.894.43-1.672.858-2.335a4.64 4.64 0 0 1 1.608-1.546 4.216 4.216 0 0 1 2.125-.551c.803 0 1.474.193 2.011.58.542.382.925.92 1.148 1.613.224.69.261 1.496.114 2.421-.144.886-.434 1.661-.87 2.324a4.702 4.702 0 0 1-1.608 1.539 4.177 4.177 0 0 1-2.113.546Zm.023-1.205c.613 0 1.145-.157 1.596-.471a3.536 3.536 0 0 0 1.102-1.245 5.138 5.138 0 0 0 .574-1.67 4.448 4.448 0 0 0-.011-1.585c-.099-.493-.309-.889-.631-1.188-.322-.303-.774-.454-1.358-.454-.613 0-1.149.159-1.608.477a3.582 3.582 0 0 0-1.102 1.256 5.2 5.2 0 0 0-.562 1.676 4.55 4.55 0 0 0 .005 1.585c.099.485.309.877.631 1.176.326.296.78.443 1.364.443Zm8.126-4.227-.864 5.25h-1.341l1.455-8.727h1.295l-.227 1.363h.114a3.094 3.094 0 0 1 1.108-1.068c.466-.273 1.028-.409 1.687-.409.584 0 1.076.121 1.478.364.405.238.691.602.857 1.091.171.484.196 1.098.074 1.841l-.931 5.545h-1.341l.909-5.455c.113-.681.024-1.215-.267-1.602-.288-.386-.745-.579-1.37-.579a2.62 2.62 0 0 0-1.199.278 2.562 2.562 0 0 0-.926.813c-.25.356-.42.787-.511 1.295Zm14.473-1.523-1.273.341a1.993 1.993 0 0 0-.238-.591 1.219 1.219 0 0 0-.512-.471c-.227-.125-.538-.188-.932-.188-.534 0-.998.123-1.392.37-.394.242-.619.551-.676.926-.057.329.019.592.228.789.208.197.556.358 1.045.483l1.25.319c.75.193 1.284.482 1.602.869.322.382.432.881.33 1.494-.084.5-.301.947-.654 1.341a3.649 3.649 0 0 1-1.352.932 4.761 4.761 0 0 1-1.835.341c-.898 0-1.606-.193-2.125-.58-.519-.39-.796-.954-.83-1.693l1.341-.318c.034.466.201.818.5 1.057.303.235.728.352 1.273.352.625 0 1.146-.133 1.562-.398.417-.269.654-.591.711-.966.057-.306-.004-.562-.182-.767-.174-.204-.477-.358-.909-.46l-1.387-.341c-.772-.193-1.314-.488-1.625-.886-.306-.398-.409-.898-.306-1.5.083-.493.295-.928.636-1.307a3.589 3.589 0 0 1 1.295-.892 4.422 4.422 0 0 1 1.705-.324c.864 0 1.509.189 1.937.568.429.375.699.875.813 1.5Zm8.087 6.978c-.553 0-1.038-.105-1.455-.313a2.041 2.041 0 0 1-.926-.915c-.201-.401-.256-.886-.165-1.454.087-.5.256-.906.506-1.216.25-.315.553-.561.909-.739.36-.182.746-.316 1.159-.403.417-.091.831-.161 1.244-.21.538-.069.976-.122 1.313-.16.337-.037.591-.1.761-.187.171-.087.275-.237.313-.449v-.045c.091-.557.017-.991-.222-1.302-.238-.314-.665-.471-1.278-.471-.637 0-1.169.14-1.597.42-.428.281-.744.58-.949.898l-1.182-.454c.311-.531.682-.944 1.114-1.239a4.115 4.115 0 0 1 1.358-.625 5.53 5.53 0 0 1 1.369-.182c.281 0 .597.034.949.102.353.065.682.199.989.404.31.204.543.513.699.926.159.413.182.966.068 1.659l-.955 5.75h-1.341l.205-1.182h-.068a2.91 2.91 0 0 1-.557.608c-.246.216-.559.4-.937.551-.375.152-.817.228-1.324.228Zm.386-1.205c.53 0 .994-.104 1.392-.312.402-.209.724-.478.966-.807.246-.33.4-.676.46-1.04l.205-1.227c-.068.068-.203.13-.404.187-.2.053-.428.101-.681.142-.25.038-.495.072-.733.102-.235.027-.425.05-.569.069a5.749 5.749 0 0 0-1.017.221 2.09 2.09 0 0 0-.806.449c-.216.197-.351.466-.404.807-.079.466.032.818.335 1.057.303.235.722.352 1.256.352Zm11.334-7.727-.182 1.136h-4.523l.182-1.136h4.523Zm-2.864-2.091h1.341l-1.386 8.318c-.061.379-.051.663.028.852a.67.67 0 0 0 .375.375c.171.061.354.091.551.091.148 0 .269-.007.364-.023l.227-.045.091 1.205c-.102.034-.24.068-.415.102-.17.038-.38.057-.63.057-.379 0-.735-.082-1.069-.245a1.698 1.698 0 0 1-.767-.744c-.178-.333-.225-.754-.142-1.261l1.432-8.682ZM508.4 142a3.723 3.723 0 0 0-.296-1.028 2.358 2.358 0 0 0-.545-.779 2.267 2.267 0 0 0-.824-.494 3.177 3.177 0 0 0-1.108-.176c-.689 0-1.356.178-2 .534-.64.356-1.195.881-1.665 1.574-.466.693-.782 1.543-.949 2.551-.166 1.007-.149 1.858.052 2.551.204.693.555 1.218 1.051 1.574.5.356 1.11.534 1.829.534.667 0 1.288-.142 1.864-.426a4.038 4.038 0 0 0 1.449-1.216c.39-.527.642-1.146.755-1.858l.41.091h-3.5l.227-1.25h4.432l-.228 1.25c-.151.962-.488 1.797-1.011 2.506a5.354 5.354 0 0 1-1.955 1.642 5.683 5.683 0 0 1-2.556.579c-1.031 0-1.894-.242-2.591-.727-.697-.485-1.188-1.174-1.472-2.068-.284-.894-.324-1.955-.119-3.182.148-.921.405-1.748.773-2.483a6.882 6.882 0 0 1 1.363-1.887 5.864 5.864 0 0 1 1.813-1.193 5.511 5.511 0 0 1 2.119-.414c.614 0 1.17.092 1.67.278a3.78 3.78 0 0 1 1.302.778c.363.334.645.733.846 1.199.201.462.307.976.318 1.54H508.4Zm6.072 8.182c-.837 0-1.528-.186-2.074-.557-.545-.375-.926-.898-1.142-1.568-.216-.674-.25-1.459-.102-2.352.148-.894.441-1.682.881-2.364a4.829 4.829 0 0 1 1.642-1.602 4.167 4.167 0 0 1 2.159-.58c.454 0 .892.076 1.312.227a2.66 2.66 0 0 1 1.091.739c.307.337.521.784.642 1.341.122.557.114 1.242-.022 2.057l-.091.568h-6.728l.182-1.159h5.364c.087-.493.064-.932-.068-1.318a1.754 1.754 0 0 0-.676-.915c-.319-.224-.722-.335-1.211-.335-.503 0-.973.136-1.409.409-.435.269-.799.61-1.091 1.022-.291.41-.473.826-.545 1.25l-.159 1c-.114.724-.097 1.3.051 1.728.151.428.415.736.79.926.375.185.844.278 1.409.278.36 0 .691-.049.994-.147a2.5 2.5 0 0 0 .813-.455c.238-.205.439-.458.602-.761l1.227.363c-.208.44-.502.826-.88 1.159-.375.33-.815.587-1.319.773-.5.182-1.047.273-1.642.273Zm5.708-.182 1.454-8.727h1.341L521.521 150h-1.341Zm2.534-10.205a.951.951 0 0 1-.676-.267.857.857 0 0 1-.279-.642c0-.25.093-.464.279-.642a.951.951 0 0 1 .676-.267c.261 0 .485.089.67.267.19.178.284.392.284.642s-.094.464-.284.642a.932.932 0 0 1-.67.267Zm8.581 3.432-1.273.341a1.97 1.97 0 0 0-.239-.591 1.21 1.21 0 0 0-.511-.471c-.227-.125-.538-.188-.932-.188-.534 0-.998.123-1.392.37-.394.242-.619.551-.676.926-.057.329.019.592.227.789.209.197.557.358 1.046.483l1.25.319c.75.193 1.284.482 1.602.869.322.382.432.881.33 1.494-.084.5-.302.947-.654 1.341a3.649 3.649 0 0 1-1.352.932 4.761 4.761 0 0 1-1.835.341c-.898 0-1.606-.193-2.125-.58-.519-.39-.796-.954-.83-1.693l1.341-.318c.034.466.201.818.5 1.057.303.235.727.352 1.273.352.625 0 1.146-.133 1.562-.398.417-.269.654-.591.71-.966.057-.306-.003-.562-.181-.767-.175-.204-.478-.358-.909-.46l-1.387-.341c-.773-.193-1.314-.488-1.625-.886-.307-.398-.409-.898-.307-1.5a2.56 2.56 0 0 1 .637-1.307 3.571 3.571 0 0 1 1.295-.892 4.422 4.422 0 0 1 1.705-.324c.863 0 1.509.189 1.937.568.428.375.699.875.813 1.5Zm4.677 6.955c-.837 0-1.528-.186-2.074-.557-.545-.375-.926-.898-1.142-1.568-.216-.674-.25-1.459-.102-2.352.148-.894.441-1.682.881-2.364a4.829 4.829 0 0 1 1.642-1.602 4.167 4.167 0 0 1 2.159-.58c.454 0 .892.076 1.312.227a2.66 2.66 0 0 1 1.091.739c.307.337.521.784.642 1.341.122.557.114 1.242-.022 2.057l-.091.568h-6.728l.182-1.159h5.364c.087-.493.064-.932-.068-1.318a1.754 1.754 0 0 0-.676-.915c-.319-.224-.722-.335-1.211-.335-.503 0-.973.136-1.409.409-.435.269-.799.61-1.091 1.022-.291.41-.473.826-.545 1.25l-.159 1c-.114.724-.097 1.3.051 1.728.151.428.415.736.79.926.375.185.844.278 1.409.278.36 0 .691-.049.994-.147a2.5 2.5 0 0 0 .813-.455c.238-.205.439-.458.602-.761l1.227.363c-.208.44-.502.826-.88 1.159-.375.33-.815.587-1.319.773-.5.182-1.047.273-1.642.273Zm8.98-11.818L543.021 150h-1.341l1.932-11.636h1.34Z"/>
  <rect width="572" height="140" x="2.227" y="28.5" stroke="#F4CE71" stroke-dasharray="6 6" stroke-width="3" rx="18.5"/>
  <g clip-path="url(#a)">
    <path fill="#616466" d="M556.596 41.258a2.57 2.57 0 0 0 1.229 3.409 2.57 2.57 0 0 0 3.409-1.229l-4.638-2.18Z"/>
    <path fill="#FFCE31" d="m557.523 34.615 8.175 3.842c1.636-2.275 4.346-3.974 7.168-5.762 3.303-2.058 6.719-4.204 8.108-7.16 2.644-5.624-.421-12.657-6.799-15.655-6.377-2.998-13.748-.87-16.391 4.754-1.39 2.956-.863 6.956-.398 10.785.424 3.314.845 6.485.137 9.196"/>
    <path fill="#C79127" d="M562.318 26.675c-.106.375-.153.778-.259 1.153-.126.72-.282 1.354-.408 2.073-.514 2.448-.922 4.522-1.198 6.162l.348.163c.392-1.585.885-3.69 1.399-6.138.156-.634.282-1.353.466-2.046.078-.317.184-.692.204-1.036.519.102 1.784.272 3.458-.428.529 1.735 1.467 2.601 1.876 2.935-.221.32-.416.583-.668.818-.416.584-.889 1.14-1.278 1.665a180.936 180.936 0 0 0-3.833 4.994l.347.163c1.03-1.286 2.423-2.896 3.981-4.854.388-.525.862-1.081 1.336-1.637.221-.32.501-.614.722-.934.491.16.952.234 1.378.08.511-.184.876-.508.978-1.026.051-.26.071-.604-.249-.825a.71.71 0 0 0-.464-.218.986.986 0 0 0-.457.068c-.454.212-.733.505-1.012.799l-.42.44s-.491-.16-1.238-1.432c-.389-.678-.427-1.05-.519-1.306.283-.15.539-.242.849-.45.14-.147.252-.235.419-.44.082-.174.191-.406.157-.634-.034-.229-.069-.457-.304-.71-.089-.112-.205-.166-.321-.22-.116-.055-.232-.11-.375-.107-.286.008-.542.1-.74.22-.197.119-.306.35-.388.524a1.025 1.025 0 0 0-.071.604c-.021.344.044.658.194.94-.255.093-.565.301-1.336.434-1.371.206-1.892-.04-1.892-.04l.071-.603c.047-.402.095-.805-.031-1.289-.031-.085-.093-.256-.239-.395-.147-.14-.321-.222-.464-.218-.402-.048-.655.187-.794.334-.276.437-.293.924-.167 1.408.212.454.563.76.942 1.01m7.134 2.29c.252-.235.532-.528.845-.593.085-.03.143-.003.143-.003l.116.054c.058.027.089.113.065.314-.051.259-.33.552-.644.617a2.369 2.369 0 0 1-.774-.01c.082-.173.136-.29.249-.378m-2.519-4.582c.171-.061.341-.123.457-.068.116.054.205.167.239.395.034.229-.133.433-.358.61a1.39 1.39 0 0 1-.507.328c-.035-.228-.096-.398-.072-.6-.035-.228.017-.487.241-.665Zm-4.896.176c.055-.116.14-.146.283-.15l.116.055s.031.085.089.112c.092.256.102.686.082 1.03.004.143-.051.259-.047.402-.205-.167-.41-.334-.502-.59-.177-.224-.157-.569-.021-.859"/>
    <path fill="#94989B" d="m556.979 35.773 8.29 3.897-.49 1.044-8.291-3.897.491-1.044Zm-.402 2.36 7.131 3.352-.49 1.044-7.131-3.352.49-1.044Z"/>
    <path fill="#616466" d="m557.068 37.09 7.132 3.352-.491 1.043-7.131-3.352.49-1.043Z"/>
    <path fill="#94989B" d="m565.27 39.671-8.692-1.537-.518 1.102 8.719 1.479.491-1.044Zm-9.121.88 5.972 2.808-.491 1.043-5.972-2.807.491-1.043Z"/>
    <path fill="#616466" d="m556.639 39.508 5.971 2.807-.49 1.043-5.972-2.807.491-1.043Z"/>
    <path fill="#94989B" d="m563.708 41.486-7.56-.935-.518 1.102 7.56.934.518-1.101Z"/>
  </g>
  <defs>
    <clipPath id="a">
      <path fill="#fff" d="M0 0h41v41H0z" transform="rotate(25.176 278.084 1245.306)"/>
    </clipPath>
  </defs>
</svg>
