<svg xmlns="http://www.w3.org/2000/svg" width="20" height="21" fill="none" viewBox="0 0 20 21">
  <circle cx="9.731" cy="9.731" r="9.731" fill="#E2983A" fill-opacity=".27"/>
  <path fill="#B27224" d="M6.903 15v-1.114l3.446-3.57c.367-.387.67-.727.91-1.018a3.83 3.83 0 0 0 .541-.84c.12-.266.18-.547.18-.846 0-.338-.08-.63-.24-.875a1.56 1.56 0 0 0-.65-.572 2.071 2.071 0 0 0-.93-.203c-.365 0-.683.074-.955.223-.272.15-.48.36-.626.632a1.99 1.99 0 0 0-.22.954H6.894c0-.62.143-1.161.428-1.625a2.904 2.904 0 0 1 1.173-1.08c.497-.258 1.062-.387 1.696-.387.64 0 1.203.128 1.69.383.49.252.873.596 1.148 1.034.275.434.413.925.413 1.471 0 .378-.071.748-.214 1.11-.14.36-.383.763-.73 1.207-.349.441-.833.976-1.452 1.606L9.02 13.608v.074h4.584V15H6.903Z"/>
</svg>
