<svg xmlns="http://www.w3.org/2000/svg" width="601" height="87" fill="none" viewBox="0 0 601 87">
  <path fill="#1E4460" d="M46.648 35.785V24.15h4.363c.894 0 1.644.155 2.25.466.61.31 1.07.746 1.381 1.307.314.556.472 1.206.472 1.948 0 .747-.16 1.394-.478 1.944-.314.545-.778.967-1.392 1.267-.613.295-1.367.443-2.261.443h-3.108v-1.75h2.824c.523 0 .95-.072 1.284-.216.333-.148.58-.362.739-.642.163-.284.244-.633.244-1.046 0-.413-.081-.765-.244-1.056a1.554 1.554 0 0 0-.745-.67c-.333-.156-.763-.234-1.29-.234h-1.931v9.875h-2.108Zm6.011-5.273 2.88 5.273h-2.352l-2.829-5.273h2.301Zm8.043 5.444c-.875 0-1.631-.182-2.267-.546a3.694 3.694 0 0 1-1.46-1.557c-.342-.674-.512-1.468-.512-2.38 0-.898.17-1.686.511-2.364a3.867 3.867 0 0 1 1.444-1.59c.617-.383 1.342-.575 2.176-.575.538 0 1.045.087 1.523.262.48.17.905.435 1.272.795.371.36.663.818.875 1.375.212.553.318 1.212.318 1.977v.631H57.43v-1.386h5.182a2.212 2.212 0 0 0-.256-1.051 1.86 1.86 0 0 0-.699-.733 1.964 1.964 0 0 0-1.034-.267c-.42 0-.79.102-1.108.306a2.114 2.114 0 0 0-.744.796 2.288 2.288 0 0 0-.267 1.074v1.21c0 .508.093.943.278 1.307.186.36.445.636.779.83.333.189.723.283 1.17.283.3 0 .57-.041.813-.125a1.81 1.81 0 0 0 .63-.38c.178-.167.313-.373.404-.62l1.92.216a2.991 2.991 0 0 1-.693 1.33 3.38 3.38 0 0 1-1.296.875c-.526.204-1.128.307-1.806.307Zm5.62-.17v-8.728h1.966v1.483h.103c.181-.5.483-.89.903-1.17.42-.285.922-.427 1.506-.427.59 0 1.089.144 1.494.432.41.284.697.672.864 1.165h.09a2.4 2.4 0 0 1 .978-1.16c.462-.29 1.01-.437 1.642-.437.803 0 1.458.254 1.966.762.507.507.761 1.248.761 2.221v5.858h-2.062v-5.54c0-.541-.144-.937-.432-1.187a1.542 1.542 0 0 0-1.057-.38c-.496 0-.884.154-1.165.465-.276.307-.415.706-.415 1.199v5.443h-2.017V30.16c0-.45-.136-.81-.409-1.08-.269-.268-.62-.403-1.056-.403-.296 0-.565.076-.807.227a1.585 1.585 0 0 0-.58.631 1.969 1.969 0 0 0-.216.943v5.307h-2.057Zm14.36 0v-8.728h2.057v8.727h-2.057Zm1.034-9.967a1.2 1.2 0 0 1-.841-.324 1.044 1.044 0 0 1-.352-.79c0-.31.117-.573.352-.79a1.19 1.19 0 0 1 .84-.329c.33 0 .61.11.842.33.235.216.352.479.352.79 0 .306-.117.57-.352.79a1.187 1.187 0 0 1-.841.323Zm5.195 4.853v5.113h-2.057v-8.727h1.966v1.483h.102c.2-.489.52-.877.96-1.165.443-.288.99-.432 1.642-.432.602 0 1.127.129 1.574.387.45.257.8.63 1.046 1.119.25.489.373 1.081.369 1.778v5.557h-2.057v-5.238c0-.584-.151-1.04-.455-1.37-.299-.33-.714-.494-1.244-.494-.36 0-.68.08-.96.239-.277.155-.494.38-.653.676-.156.295-.234.653-.234 1.074Zm10.931 5.267a3.302 3.302 0 0 1-1.84-.529c-.542-.352-.97-.863-1.285-1.534-.314-.67-.471-1.485-.471-2.443 0-.97.159-1.788.477-2.455.322-.67.756-1.176 1.301-1.517a3.344 3.344 0 0 1 1.824-.517c.511 0 .932.087 1.261.262.33.17.591.377.785.619a3.8 3.8 0 0 1 .448.676h.086V24.15h2.062v11.636h-2.023V34.41h-.125a3.502 3.502 0 0 1-.46.676c-.2.235-.466.436-.795.603-.33.166-.745.25-1.245.25Zm.574-1.688c.436 0 .807-.117 1.114-.352.307-.239.54-.57.699-.995.159-.424.238-.918.238-1.483 0-.564-.079-1.054-.238-1.471-.156-.417-.387-.74-.694-.972-.302-.23-.676-.346-1.119-.346-.458 0-.84.12-1.147.358-.307.238-.538.568-.694.988a4.15 4.15 0 0 0-.233 1.444c0 .545.078 1.032.233 1.46.16.424.392.76.7 1.005.31.243.69.364 1.141.364Zm10.129 1.705c-.875 0-1.63-.182-2.267-.546a3.698 3.698 0 0 1-1.46-1.557c-.341-.674-.511-1.468-.511-2.38 0-.898.17-1.686.511-2.364a3.872 3.872 0 0 1 1.443-1.59c.618-.383 1.343-.575 2.177-.575.537 0 1.045.087 1.522.262.481.17.906.435 1.273.795.371.36.663.818.875 1.375.212.553.318 1.212.318 1.977v.631h-7.153v-1.386h5.182a2.211 2.211 0 0 0-.256-1.051 1.86 1.86 0 0 0-.699-.733 1.962 1.962 0 0 0-1.034-.267c-.421 0-.79.102-1.108.306a2.114 2.114 0 0 0-.744.796 2.27 2.27 0 0 0-.267 1.074v1.21c0 .508.092.943.278 1.307.186.36.445.636.778.83.334.189.724.283 1.171.283.299 0 .57-.041.812-.125a1.8 1.8 0 0 0 .631-.38c.178-.167.313-.373.403-.62l1.921.216a2.99 2.99 0 0 1-.693 1.33 3.377 3.377 0 0 1-1.296.875c-.526.204-1.129.307-1.807.307Zm5.621-.17v-8.728h1.995v1.454h.09c.16-.503.432-.892.819-1.164a2.25 2.25 0 0 1 1.335-.415c.113 0 .24.006.381.017.143.008.263.02.357.04v1.892a2.156 2.156 0 0 0-.414-.08 3.829 3.829 0 0 0-.54-.04 2.08 2.08 0 0 0-1.011.245c-.296.159-.529.38-.699.665a1.869 1.869 0 0 0-.256.982v5.131h-2.057Zm7.611.124c-.345 0-.64-.121-.886-.363a1.174 1.174 0 0 1-.364-.887 1.16 1.16 0 0 1 .364-.875c.246-.242.541-.363.886-.363.333 0 .623.12.869.363a1.196 1.196 0 0 1 .199 1.506c-.113.19-.265.34-.454.454-.186.11-.391.165-.614.165Zm0-6.227c-.345 0-.64-.121-.886-.364a1.186 1.186 0 0 1-.364-.886 1.16 1.16 0 0 1 .364-.875c.246-.246.541-.37.886-.37.333 0 .623.124.869.37.25.242.377.534.381.875a1.2 1.2 0 0 1-.182.625c-.113.19-.265.34-.454.454-.186.114-.391.17-.614.17Z"/>
  <path fill="#000" d="M132.585 35.967c-.727 0-1.369-.184-1.926-.551-.557-.371-.992-.894-1.307-1.568-.314-.678-.471-1.48-.471-2.404 0-.916.157-1.712.471-2.386.315-.674.752-1.195 1.313-1.563.56-.367 1.208-.55 1.943-.55.568 0 1.017.094 1.347.283.333.186.587.398.761.637.178.235.316.428.415.58h.113v-4.296h1.341v11.636h-1.295v-1.34h-.159c-.099.158-.239.36-.421.602-.182.238-.441.452-.778.642-.337.185-.786.278-1.347.278Zm.182-1.205c.538 0 .992-.14 1.364-.42.371-.284.653-.676.846-1.176.193-.504.29-1.085.29-1.744 0-.652-.095-1.222-.284-1.71-.189-.493-.47-.876-.841-1.148-.371-.277-.829-.415-1.375-.415-.568 0-1.042.146-1.42.437-.375.288-.658.68-.847 1.176a4.667 4.667 0 0 0-.278 1.66c0 .62.094 1.185.284 1.693.193.503.477.905.852 1.204.379.296.848.443 1.409.443Zm10.006 1.205c-.788 0-1.479-.188-2.074-.563-.591-.375-1.053-.9-1.387-1.573-.329-.675-.494-1.463-.494-2.364 0-.91.165-1.703.494-2.38.334-.679.796-1.205 1.387-1.58.595-.375 1.286-.563 2.074-.563.788 0 1.477.188 2.068.563.595.375 1.057.901 1.386 1.58.334.677.5 1.47.5 2.38 0 .901-.166 1.69-.5 2.364a3.762 3.762 0 0 1-1.386 1.573c-.591.375-1.28.563-2.068.563Zm0-1.205c.598 0 1.091-.153 1.477-.46a2.72 2.72 0 0 0 .858-1.21c.186-.5.278-1.042.278-1.625s-.092-1.127-.278-1.63a2.754 2.754 0 0 0-.858-1.222c-.386-.31-.879-.466-1.477-.466-.599 0-1.091.155-1.478.466-.386.31-.672.718-.857 1.221a4.672 4.672 0 0 0-.279 1.631c0 .583.093 1.125.279 1.625.185.5.471.903.857 1.21.387.307.879.46 1.478.46Zm7.342-4.227v5.25h-1.341v-8.727h1.296v1.364h.113c.205-.444.515-.8.932-1.069.417-.272.955-.409 1.614-.409.591 0 1.108.122 1.551.364.443.239.788.602 1.034 1.09.246.486.369 1.1.369 1.842v5.545h-1.341v-5.454c0-.686-.178-1.22-.534-1.603-.356-.386-.844-.58-1.466-.58-.428 0-.81.094-1.147.28a1.987 1.987 0 0 0-.79.812c-.193.356-.29.788-.29 1.295Zm9.2-6.386v1.023c0 .31-.056.642-.17.994-.11.348-.273.687-.489 1.017-.212.326-.469.61-.772.852l-.728-.59c.239-.342.445-.696.62-1.063.178-.372.267-.767.267-1.188V24.15h1.272Zm5.801 2.909v1.136h-4.522v-1.136h4.522Zm-3.204-2.091h1.341v8.318c0 .379.055.663.165.852a.85.85 0 0 0 .431.375c.178.061.366.091.563.091.148 0 .269-.007.364-.022l.227-.046.273 1.205a2.733 2.733 0 0 1-.381.102 2.8 2.8 0 0 1-.619.057 2.7 2.7 0 0 1-1.114-.245 2.215 2.215 0 0 1-.898-.744c-.235-.333-.352-.754-.352-1.261v-8.682Zm13.267 11c-.788 0-1.479-.188-2.074-.563-.591-.375-1.053-.9-1.386-1.573-.33-.675-.495-1.463-.495-2.364 0-.91.165-1.703.495-2.38.333-.679.795-1.205 1.386-1.58.595-.375 1.286-.563 2.074-.563.788 0 1.477.188 2.068.563.595.375 1.057.901 1.387 1.58.333.677.5 1.47.5 2.38 0 .901-.167 1.69-.5 2.364a3.77 3.77 0 0 1-1.387 1.573c-.591.375-1.28.563-2.068.563Zm0-1.205c.598 0 1.091-.153 1.477-.46.387-.307.673-.71.858-1.21.186-.5.279-1.042.279-1.625s-.093-1.127-.279-1.63a2.739 2.739 0 0 0-.858-1.222c-.386-.31-.879-.466-1.477-.466-.599 0-1.091.155-1.477.466-.387.31-.673.718-.858 1.221a4.672 4.672 0 0 0-.279 1.631c0 .583.093 1.125.279 1.625.185.5.471.903.858 1.21.386.307.878.46 1.477.46Zm12.825-7.704-3.227 8.727h-1.364l-3.227-8.727h1.455l2.409 6.954h.091l2.409-6.954h1.454Zm5.117 8.909c-.841 0-1.567-.186-2.176-.557a3.743 3.743 0 0 1-1.404-1.568c-.326-.674-.488-1.458-.488-2.352 0-.894.162-1.682.488-2.364.33-.686.788-1.22 1.375-1.602.591-.387 1.28-.58 2.068-.58.455 0 .904.076 1.347.228a3.33 3.33 0 0 1 1.21.738c.364.337.654.784.87 1.341.215.557.323 1.242.323 2.057v.568h-6.727v-1.159h5.364a2.86 2.86 0 0 0-.296-1.318 2.223 2.223 0 0 0-.829-.915c-.356-.224-.777-.335-1.262-.335-.534 0-.996.132-1.386.398a2.617 2.617 0 0 0-.892 1.022 3.01 3.01 0 0 0-.313 1.353v.772c0 .66.114 1.218.341 1.676.231.455.552.802.961 1.04.409.235.884.352 1.426.352.352 0 .67-.049.954-.147.288-.103.536-.254.745-.455.208-.204.369-.458.483-.761l1.295.363c-.136.44-.366.826-.687 1.16a3.35 3.35 0 0 1-1.194.772 4.418 4.418 0 0 1-1.596.273Zm5.653-.182v-8.727h1.296v1.318h.091c.159-.432.446-.782.863-1.051a2.545 2.545 0 0 1 1.409-.403c.099 0 .222.001.37.005.147.004.259.01.335.017v1.364a4.054 4.054 0 0 0-.313-.051 3.068 3.068 0 0 0-.505-.04c-.425 0-.803.089-1.137.267a2.017 2.017 0 0 0-.784.727 1.963 1.963 0 0 0-.284 1.051v5.523h-1.341Zm8.071 0-2.659-8.727h1.409l1.887 6.682h.09l1.864-6.682h1.432l1.841 6.659h.091l1.886-6.66h1.409l-2.659 8.728h-1.318l-1.909-6.704h-.137l-1.909 6.704h-1.318Zm12.364-5.25v5.25h-1.341V24.15h1.341v4.273h.113c.205-.451.512-.81.921-1.074.413-.27.962-.404 1.648-.404.594 0 1.115.12 1.562.358a2.41 2.41 0 0 1 1.04 1.085c.25.485.375 1.103.375 1.853v5.545h-1.341v-5.454c0-.694-.18-1.23-.54-1.608-.356-.383-.85-.574-1.483-.574-.439 0-.833.093-1.182.278a2.04 2.04 0 0 0-.818.813c-.197.356-.295.788-.295 1.295Zm11.771 5.432c-.841 0-1.566-.186-2.176-.557a3.734 3.734 0 0 1-1.403-1.568c-.326-.674-.489-1.458-.489-2.352 0-.894.163-1.682.489-2.364.329-.686.787-1.22 1.375-1.602.59-.387 1.28-.58 2.068-.58.454 0 .903.076 1.346.228.444.151.847.397 1.211.738.363.337.653.784.869 1.341.216.557.324 1.242.324 2.057v.568h-6.728v-1.159h5.364a2.86 2.86 0 0 0-.295-1.318 2.232 2.232 0 0 0-.83-.915c-.356-.224-.776-.335-1.261-.335-.534 0-.996.132-1.387.398a2.625 2.625 0 0 0-.892 1.022 3.01 3.01 0 0 0-.312 1.353v.772c0 .66.113 1.218.341 1.676.231.455.551.802.96 1.04.409.235.884.352 1.426.352.352 0 .671-.049.955-.147a2.04 2.04 0 0 0 .744-.455c.208-.204.369-.458.483-.761l1.295.363a2.87 2.87 0 0 1-.687 1.16 3.34 3.34 0 0 1-1.193.772 4.427 4.427 0 0 1-1.597.273Zm6.994-11.818v11.636h-1.34V24.15h1.34Zm2.456 11.636v-8.727h1.296v1.364h.113a2.2 2.2 0 0 1 .881-1.086c.405-.261.892-.392 1.46-.392.576 0 1.055.13 1.438.392.386.258.687.62.903 1.086h.091c.224-.451.559-.81 1.006-1.074.447-.27.983-.404 1.608-.404.78 0 1.418.245 1.915.733.496.485.744 1.24.744 2.267v5.841h-1.341v-5.84c0-.645-.176-1.105-.528-1.381a1.957 1.957 0 0 0-1.245-.415c-.613 0-1.089.185-1.426.557-.337.367-.506.833-.506 1.397v5.682h-1.363v-5.977c0-.496-.161-.896-.483-1.199-.322-.307-.737-.46-1.244-.46a1.84 1.84 0 0 0-.978.278 2.107 2.107 0 0 0-.727.773 2.28 2.28 0 0 0-.273 1.13v5.455h-1.341Zm18.407 3.273v-12h1.295v1.386h.159c.099-.151.235-.345.409-.58.178-.238.432-.45.762-.636.333-.19.784-.284 1.352-.284.735 0 1.382.184 1.943.551.561.368.998.889 1.313 1.563.314.674.471 1.47.471 2.386 0 .924-.157 1.726-.471 2.404-.315.674-.75 1.197-1.307 1.568-.557.367-1.199.551-1.926.551-.561 0-1.01-.093-1.347-.278-.337-.19-.597-.404-.778-.642a8.745 8.745 0 0 1-.421-.603h-.113v4.614h-1.341Zm1.318-7.636c0 .659.096 1.24.29 1.744.193.5.475.892.846 1.176.371.28.826.42 1.364.42.56 0 1.028-.147 1.403-.443.379-.299.663-.7.853-1.204a4.731 4.731 0 0 0 .289-1.694 4.58 4.58 0 0 0-.284-1.659c-.185-.496-.468-.888-.846-1.176-.375-.291-.847-.437-1.415-.437-.546 0-1.004.138-1.375.415-.371.272-.652.655-.841 1.147-.189.489-.284 1.059-.284 1.71Zm12.091 4.545c-.841 0-1.567-.186-2.176-.557a3.743 3.743 0 0 1-1.404-1.568c-.326-.674-.488-1.458-.488-2.352 0-.894.162-1.682.488-2.364.33-.686.788-1.22 1.375-1.602.591-.387 1.28-.58 2.068-.58.455 0 .904.076 1.347.228a3.33 3.33 0 0 1 1.21.738c.364.337.654.784.87 1.341.215.557.323 1.242.323 2.057v.568h-6.727v-1.159h5.364a2.86 2.86 0 0 0-.296-1.318 2.223 2.223 0 0 0-.829-.915c-.356-.224-.777-.335-1.262-.335-.534 0-.996.132-1.386.398a2.617 2.617 0 0 0-.892 1.022 3.01 3.01 0 0 0-.313 1.353v.772c0 .66.114 1.218.341 1.676.231.455.552.802.961 1.04.409.235.884.352 1.426.352.352 0 .67-.049.954-.147.288-.103.536-.254.745-.455.208-.204.369-.458.483-.761l1.295.363c-.136.44-.366.826-.687 1.16a3.35 3.35 0 0 1-1.194.772 4.418 4.418 0 0 1-1.596.273Zm9.199 0c-.788 0-1.48-.188-2.074-.563-.591-.375-1.053-.9-1.387-1.573-.329-.675-.494-1.463-.494-2.364 0-.91.165-1.703.494-2.38.334-.679.796-1.205 1.387-1.58.594-.375 1.286-.563 2.074-.563.787 0 1.477.188 2.068.563.594.375 1.057.901 1.386 1.58.333.677.5 1.47.5 2.38 0 .901-.167 1.69-.5 2.364a3.77 3.77 0 0 1-1.386 1.573c-.591.375-1.281.563-2.068.563Zm0-1.205c.598 0 1.091-.153 1.477-.46a2.72 2.72 0 0 0 .858-1.21c.185-.5.278-1.042.278-1.625s-.093-1.127-.278-1.63a2.754 2.754 0 0 0-.858-1.222c-.386-.31-.879-.466-1.477-.466-.599 0-1.091.155-1.478.466-.386.31-.672.718-.858 1.221a4.694 4.694 0 0 0-.278 1.631c0 .583.093 1.125.278 1.625.186.5.472.903.858 1.21.387.307.879.46 1.478.46Zm6.001 4.296v-12h1.295v1.386h.16c.098-.151.234-.345.409-.58.178-.238.431-.45.761-.636.333-.19.784-.284 1.352-.284.735 0 1.383.184 1.943.551.561.368.999.889 1.313 1.563.314.674.472 1.47.472 2.386 0 .924-.158 1.726-.472 2.404-.314.674-.75 1.197-1.307 1.568-.557.367-1.199.551-1.926.551-.561 0-1.009-.093-1.347-.278-.337-.19-.596-.404-.778-.642a8.34 8.34 0 0 1-.42-.603h-.114v4.614h-1.341Zm1.318-7.636c0 .659.097 1.24.29 1.744.193.5.475.892.847 1.176.371.28.825.42 1.363.42.561 0 1.029-.147 1.404-.443.378-.299.662-.7.852-1.204.193-.508.29-1.072.29-1.694a4.6 4.6 0 0 0-.284-1.659c-.186-.496-.468-.888-.847-1.176-.375-.291-.847-.437-1.415-.437-.545 0-1.004.138-1.375.415-.371.272-.651.655-.841 1.147-.189.489-.284 1.059-.284 1.71Zm9.773-7.273v11.636h-1.341V24.15h1.341Zm6.115 11.818c-.841 0-1.566-.186-2.176-.557a3.743 3.743 0 0 1-1.404-1.568c-.325-.674-.488-1.458-.488-2.352 0-.894.163-1.682.488-2.364.33-.686.788-1.22 1.375-1.602.591-.387 1.281-.58 2.069-.58.454 0 .903.076 1.346.228a3.33 3.33 0 0 1 1.21.738c.364.337.654.784.87 1.341.216.557.324 1.242.324 2.057v.568h-6.728v-1.159h5.364a2.86 2.86 0 0 0-.295-1.318 2.232 2.232 0 0 0-.83-.915c-.356-.224-.777-.335-1.261-.335-.534 0-.997.132-1.387.398a2.625 2.625 0 0 0-.892 1.022 3.01 3.01 0 0 0-.312 1.353v.772c0 .66.113 1.218.341 1.676.231.455.551.802.96 1.04.409.235.884.352 1.426.352.352 0 .67-.049.955-.147.287-.103.536-.254.744-.455.208-.204.369-.458.483-.761l1.295.363a2.87 2.87 0 0 1-.687 1.16 3.34 3.34 0 0 1-1.193.772 4.427 4.427 0 0 1-1.597.273Zm12.131-.182-2.659-8.727h1.409l1.886 6.682h.091l1.864-6.682h1.431l1.841 6.659h.091l1.887-6.66h1.409l-2.659 8.728h-1.319l-1.909-6.704h-.136l-1.909 6.704h-1.318Zm11.022 0v-8.727h1.341v8.727h-1.341Zm.682-10.182a.953.953 0 0 1-.676-.267.856.856 0 0 1-.278-.642c0-.25.092-.464.278-.642a.953.953 0 0 1 .676-.267c.262 0 .485.09.671.267a.851.851 0 0 1 .284.642c0 .25-.095.464-.284.642a.935.935 0 0 1-.671.267Zm6.911 1.455v1.136h-4.523v-1.136h4.523Zm-3.205-2.091h1.341v8.318c0 .379.055.663.165.852a.849.849 0 0 0 .432.375c.178.061.365.091.562.091.148 0 .269-.007.364-.022l.227-.046.273 1.205a2.733 2.733 0 0 1-.381.102 2.8 2.8 0 0 1-.619.057 2.7 2.7 0 0 1-1.114-.245 2.215 2.215 0 0 1-.898-.744c-.234-.333-.352-.754-.352-1.261v-8.682Zm6.75 5.568v5.25h-1.341V24.15h1.341v4.273h.114c.204-.451.511-.81.92-1.074.413-.27.962-.404 1.648-.404.595 0 1.116.12 1.563.358a2.41 2.41 0 0 1 1.039 1.085c.25.485.375 1.103.375 1.853v5.545h-1.341v-5.454c0-.694-.18-1.23-.539-1.608-.356-.383-.851-.574-1.483-.574-.44 0-.834.093-1.182.278a2.027 2.027 0 0 0-.818.813c-.197.356-.296.788-.296 1.295Zm15.181 5.455a3.55 3.55 0 0 1-1.506-.313 2.581 2.581 0 0 1-1.074-.915c-.265-.401-.398-.886-.398-1.454 0-.5.099-.905.296-1.216.197-.314.46-.56.79-.739.329-.178.693-.31 1.09-.397.402-.091.805-.163 1.211-.216.53-.068.96-.12 1.289-.154.334-.038.576-.1.728-.187.155-.087.233-.239.233-.455V29.9c0-.56-.154-.996-.461-1.307-.303-.31-.763-.466-1.38-.466-.64 0-1.142.14-1.506.42-.364.28-.619.58-.767.898l-1.273-.454c.228-.53.531-.943.909-1.239.383-.3.8-.508 1.25-.625a5.196 5.196 0 0 1 1.341-.182 5.3 5.3 0 0 1 .966.103c.368.064.722.198 1.063.403.344.204.63.513.858.926.227.413.341.966.341 1.66v5.75h-1.341v-1.183h-.069a2.33 2.33 0 0 1-.454.608c-.212.216-.494.4-.847.551-.352.152-.782.228-1.289.228Zm.204-1.205c.53 0 .977-.104 1.341-.312.367-.209.644-.478.83-.807a2.06 2.06 0 0 0 .284-1.04V31.4c-.057.068-.182.13-.375.187-.19.053-.409.1-.659.142a30.34 30.34 0 0 1-1.285.17 5.19 5.19 0 0 0-.977.222 1.688 1.688 0 0 0-.727.45c-.182.196-.273.465-.273.806 0 .466.173.818.517 1.057.349.235.79.352 1.324.352Zm14.538-7.727v1.136h-4.522v-1.136h4.522Zm-3.204-2.091h1.341v8.318c0 .379.055.663.165.852a.85.85 0 0 0 .431.375c.178.061.366.091.563.091.148 0 .269-.007.364-.022l.227-.046.273 1.205a2.733 2.733 0 0 1-.381.102 2.8 2.8 0 0 1-.619.057 2.7 2.7 0 0 1-1.114-.245 2.215 2.215 0 0 1-.898-.744c-.235-.333-.352-.754-.352-1.261v-8.682Zm8.673 11c-.788 0-1.479-.188-2.074-.563-.591-.375-1.053-.9-1.386-1.573-.33-.675-.494-1.463-.494-2.364 0-.91.164-1.703.494-2.38.333-.679.795-1.205 1.386-1.58.595-.375 1.286-.563 2.074-.563.788 0 1.478.188 2.068.563.595.375 1.057.901 1.387 1.58.333.677.5 1.47.5 2.38 0 .901-.167 1.69-.5 2.364a3.77 3.77 0 0 1-1.387 1.573c-.59.375-1.28.563-2.068.563Zm0-1.205c.599 0 1.091-.153 1.477-.46.387-.307.673-.71.858-1.21.186-.5.279-1.042.279-1.625s-.093-1.127-.279-1.63a2.739 2.739 0 0 0-.858-1.222c-.386-.31-.878-.466-1.477-.466-.598 0-1.091.155-1.477.466-.386.31-.672.718-.858 1.221a4.671 4.671 0 0 0-.278 1.631c0 .583.092 1.125.278 1.625.186.5.472.903.858 1.21.386.307.879.46 1.477.46Zm7.343-4.227v5.25h-1.341v-8.727h1.295v1.364h.114c.204-.444.515-.8.932-1.069.416-.272.954-.409 1.613-.409.591 0 1.108.122 1.551.364.444.239.788.602 1.034 1.09.247.486.37 1.1.37 1.842v5.545h-1.341v-5.454c0-.686-.178-1.22-.534-1.603-.356-.386-.845-.58-1.466-.58a2.34 2.34 0 0 0-1.148.28 2 2 0 0 0-.79.812c-.193.356-.289.788-.289 1.295Zm16.063 5.432c-.787 0-1.479-.188-2.073-.563-.591-.375-1.053-.9-1.387-1.573-.329-.675-.494-1.463-.494-2.364 0-.91.165-1.703.494-2.38.334-.679.796-1.205 1.387-1.58.594-.375 1.286-.563 2.073-.563.788 0 1.478.188 2.069.563.594.375 1.056.901 1.386 1.58.333.677.5 1.47.5 2.38 0 .901-.167 1.69-.5 2.364a3.775 3.775 0 0 1-1.386 1.573c-.591.375-1.281.563-2.069.563Zm0-1.205c.599 0 1.091-.153 1.478-.46a2.72 2.72 0 0 0 .858-1.21c.185-.5.278-1.042.278-1.625s-.093-1.127-.278-1.63a2.754 2.754 0 0 0-.858-1.222c-.387-.31-.879-.466-1.478-.466-.598 0-1.09.155-1.477.466-.386.31-.672.718-.858 1.221a4.694 4.694 0 0 0-.278 1.631c0 .583.093 1.125.278 1.625.186.5.472.903.858 1.21.387.307.879.46 1.477.46Zm9.888-7.704v1.136h-4.704v-1.136h4.704Zm-3.295 8.727v-9.932c0-.5.117-.916.352-1.25a2.19 2.19 0 0 1 .915-.75c.375-.166.771-.25 1.187-.25.33 0 .599.027.807.08a3.1 3.1 0 0 1 .466.148l-.386 1.159a6.673 6.673 0 0 0-.284-.085 1.726 1.726 0 0 0-.466-.052c-.443 0-.764.112-.961.336-.193.223-.289.55-.289.983v9.613h-1.341Zm9.675 0v-8.727h1.34v8.727h-1.34Zm.681-10.182a.955.955 0 0 1-.676-.267.86.86 0 0 1-.278-.642.86.86 0 0 1 .278-.642.955.955 0 0 1 .676-.267c.262 0 .485.09.671.267a.851.851 0 0 1 .284.642c0 .25-.095.464-.284.642a.935.935 0 0 1-.671.267Zm4.456 4.932v5.25h-1.341v-8.727h1.296v1.364h.113a2.5 2.5 0 0 1 .932-1.069c.417-.272.955-.409 1.614-.409.591 0 1.108.122 1.551.364.443.239.788.602 1.034 1.09.246.486.369 1.1.369 1.842v5.545h-1.34v-5.454c0-.686-.178-1.22-.535-1.603-.356-.386-.844-.58-1.465-.58a2.34 2.34 0 0 0-1.148.28 1.993 1.993 0 0 0-.79.812c-.193.356-.29.788-.29 1.295Zm11.905-3.477v1.136h-4.704v-1.136h4.704Zm-3.295 8.727v-9.932c0-.5.117-.916.352-1.25a2.19 2.19 0 0 1 .915-.75c.375-.166.771-.25 1.187-.25.33 0 .599.027.807.08.208.053.364.102.466.148l-.386 1.159a6.8 6.8 0 0 0-.285-.085 1.713 1.713 0 0 0-.465-.052c-.444 0-.764.112-.961.336-.193.223-.289.55-.289.983v9.613h-1.341Zm8.36.182c-.787 0-1.479-.188-2.073-.563-.591-.375-1.053-.9-1.387-1.573-.329-.675-.494-1.463-.494-2.364 0-.91.165-1.703.494-2.38.334-.679.796-1.205 1.387-1.58.594-.375 1.286-.563 2.073-.563.788 0 1.478.188 2.069.563.594.375 1.056.901 1.386 1.58.333.677.5 1.47.5 2.38 0 .901-.167 1.69-.5 2.364a3.775 3.775 0 0 1-1.386 1.573c-.591.375-1.281.563-2.069.563Zm0-1.205c.599 0 1.091-.153 1.478-.46a2.72 2.72 0 0 0 .858-1.21c.185-.5.278-1.042.278-1.625s-.093-1.127-.278-1.63a2.754 2.754 0 0 0-.858-1.222c-.387-.31-.879-.466-1.478-.466-.598 0-1.09.155-1.477.466-.386.31-.672.718-.858 1.221a4.694 4.694 0 0 0-.278 1.631c0 .583.093 1.125.278 1.625.186.5.472.903.858 1.21.387.307.879.46 1.477.46Zm6.002 1.023v-8.727h1.295v1.318h.091c.159-.432.447-.782.864-1.051a2.542 2.542 0 0 1 1.409-.403c.098 0 .222.001.369.005.148.004.26.01.336.017v1.364a4.054 4.054 0 0 0-.313-.051 3.08 3.08 0 0 0-.506-.04c-.424 0-.803.089-1.136.267a2.01 2.01 0 0 0-.784.727 1.963 1.963 0 0 0-.284 1.051v5.523h-1.341Zm5.953 0v-8.727h1.295v1.364h.114a2.19 2.19 0 0 1 .881-1.086c.405-.261.892-.392 1.46-.392.576 0 1.055.13 1.438.392.386.258.687.62.903 1.086h.091a2.54 2.54 0 0 1 1.006-1.074c.446-.27.982-.404 1.607-.404.781 0 1.419.245 1.915.733.496.485.745 1.24.745 2.267v5.841h-1.341v-5.84c0-.645-.176-1.105-.529-1.381a1.954 1.954 0 0 0-1.244-.415c-.614 0-1.089.185-1.426.557-.337.367-.506.833-.506 1.397v5.682h-1.364v-5.977c0-.496-.161-.896-.482-1.199-.322-.307-.737-.46-1.245-.46-.348 0-.674.093-.977.278a2.099 2.099 0 0 0-.727.773 2.28 2.28 0 0 0-.273 1.13v5.455h-1.341Zm16.474.205a3.545 3.545 0 0 1-1.505-.313 2.581 2.581 0 0 1-1.074-.915c-.265-.401-.398-.886-.398-1.454 0-.5.099-.905.296-1.216.197-.314.46-.56.789-.739.33-.178.694-.31 1.091-.397.402-.091.805-.163 1.211-.216.53-.068.96-.12 1.289-.154.334-.038.576-.1.728-.187.155-.087.233-.239.233-.455V29.9c0-.56-.154-.996-.461-1.307-.303-.31-.763-.466-1.38-.466-.641 0-1.142.14-1.506.42-.364.28-.619.58-.767.898l-1.273-.454c.227-.53.53-.943.909-1.239.383-.3.8-.508 1.25-.625a5.196 5.196 0 0 1 1.341-.182c.28 0 .602.034.966.103.368.064.722.198 1.063.403.344.204.63.513.858.926.227.413.34.966.34 1.66v5.75h-1.34v-1.183h-.069c-.091.19-.242.392-.454.608-.212.216-.494.4-.847.551-.352.152-.782.228-1.29.228Zm.205-1.205c.53 0 .977-.104 1.341-.312a2.133 2.133 0 0 0 1.114-1.847V31.4c-.057.068-.182.13-.375.187-.19.053-.41.1-.66.142a29.56 29.56 0 0 1-1.284.17 5.19 5.19 0 0 0-.977.222 1.682 1.682 0 0 0-.727.45c-.182.196-.273.465-.273.806 0 .466.172.818.517 1.057.349.235.79.352 1.324.352Zm10.038-7.727v1.136h-4.522v-1.136h4.522Zm-3.204-2.091h1.341v8.318c0 .379.055.663.164.852a.853.853 0 0 0 .432.375c.178.061.366.091.563.091.148 0 .269-.007.363-.022l.228-.046.272 1.205c-.09.034-.217.068-.38.102-.163.038-.37.057-.62.057-.378 0-.75-.082-1.113-.245a2.215 2.215 0 0 1-.898-.744c-.235-.333-.352-.754-.352-1.261v-8.682Zm5.221 10.818v-8.727h1.341v8.727h-1.341Zm.682-10.182a.953.953 0 0 1-.676-.267.856.856 0 0 1-.278-.642c0-.25.092-.464.278-.642a.953.953 0 0 1 .676-.267c.262 0 .485.09.671.267a.851.851 0 0 1 .284.642c0 .25-.095.464-.284.642a.935.935 0 0 1-.671.267Zm6.661 10.364c-.788 0-1.479-.188-2.074-.563-.591-.375-1.053-.9-1.386-1.573-.33-.675-.495-1.463-.495-2.364 0-.91.165-1.703.495-2.38.333-.679.795-1.205 1.386-1.58.595-.375 1.286-.563 2.074-.563.788 0 1.477.188 2.068.563.595.375 1.057.901 1.386 1.58.334.677.5 1.47.5 2.38 0 .901-.166 1.69-.5 2.364a3.762 3.762 0 0 1-1.386 1.573c-.591.375-1.28.563-2.068.563Zm0-1.205c.598 0 1.091-.153 1.477-.46a2.72 2.72 0 0 0 .858-1.21c.186-.5.278-1.042.278-1.625s-.092-1.127-.278-1.63a2.754 2.754 0 0 0-.858-1.222c-.386-.31-.879-.466-1.477-.466-.599 0-1.091.155-1.478.466-.386.31-.672.718-.858 1.221a4.694 4.694 0 0 0-.278 1.631c0 .583.093 1.125.278 1.625.186.5.472.903.858 1.21.387.307.879.46 1.478.46Zm7.342-4.227v5.25h-1.341v-8.727h1.296v1.364h.113c.205-.444.515-.8.932-1.069.417-.272.955-.409 1.614-.409.591 0 1.108.122 1.551.364.443.239.788.602 1.034 1.09.246.486.369 1.1.369 1.842v5.545h-1.341v-5.454c0-.686-.178-1.22-.534-1.603-.356-.386-.844-.58-1.466-.58-.428 0-.81.094-1.147.28a1.987 1.987 0 0 0-.79.812c-.193.356-.29.788-.29 1.295Zm22.791-.363v1.25h-16v-1.25h16Zm5.114-3.114v1.136h-4.705v-1.136h4.705Zm-3.296 8.727v-9.932c0-.5.118-.916.353-1.25.235-.333.539-.583.914-.75.375-.166.771-.25 1.188-.25.33 0 .598.027.807.08a3.1 3.1 0 0 1 .466.148l-.387 1.159a6.673 6.673 0 0 0-.284-.085 1.716 1.716 0 0 0-.466-.052c-.443 0-.763.112-.96.336-.193.223-.29.55-.29.983v9.613h-1.341Zm8.361.182c-.788 0-1.479-.188-2.074-.563-.591-.375-1.053-.9-1.386-1.573-.33-.675-.494-1.463-.494-2.364 0-.91.164-1.703.494-2.38.333-.679.795-1.205 1.386-1.58.595-.375 1.286-.563 2.074-.563.788 0 1.478.188 2.068.563.595.375 1.057.901 1.387 1.58.333.677.5 1.47.5 2.38 0 .901-.167 1.69-.5 2.364a3.77 3.77 0 0 1-1.387 1.573c-.59.375-1.28.563-2.068.563Zm0-1.205c.599 0 1.091-.153 1.478-.46a2.71 2.71 0 0 0 .857-1.21c.186-.5.279-1.042.279-1.625s-.093-1.127-.279-1.63a2.745 2.745 0 0 0-.857-1.222c-.387-.31-.879-.466-1.478-.466-.598 0-1.091.155-1.477.466-.386.31-.672.718-.858 1.221a4.671 4.671 0 0 0-.278 1.631c0 .583.092 1.125.278 1.625.186.5.472.903.858 1.21.386.307.879.46 1.477.46Zm9.547 1.205c-.818 0-1.523-.193-2.114-.58a3.78 3.78 0 0 1-1.363-1.596c-.318-.678-.477-1.453-.477-2.324 0-.886.162-1.669.488-2.347.33-.681.788-1.214 1.375-1.596.591-.387 1.28-.58 2.068-.58a3.91 3.91 0 0 1 1.659.341 3.18 3.18 0 0 1 1.211.955c.314.409.509.886.585 1.432h-1.341c-.102-.398-.33-.75-.682-1.057-.348-.31-.818-.466-1.409-.466-.523 0-.981.136-1.375.409-.39.269-.695.65-.915 1.142-.216.489-.324 1.062-.324 1.722 0 .674.107 1.26.319 1.76.216.5.519.89.909 1.166.394.276.856.414 1.386.414.349 0 .665-.06.949-.181a1.96 1.96 0 0 0 .722-.523c.197-.227.337-.5.42-.818h1.341a3.1 3.1 0 0 1-1.739 2.369c-.485.239-1.049.358-1.693.358Zm10.892-3.75v-5.16h1.341v8.728h-1.341v-1.477h-.091c-.204.443-.522.82-.954 1.13-.432.307-.978.46-1.637.46-.545 0-1.03-.119-1.454-.357-.424-.243-.758-.606-1-1.091-.243-.489-.364-1.104-.364-1.847v-5.545h1.341v5.454c0 .637.178 1.144.534 1.523.36.379.818.568 1.375.568a2.29 2.29 0 0 0 1.017-.255c.349-.17.64-.432.875-.784.239-.353.358-.802.358-1.347Zm9.979-3.205-1.205.341a2.209 2.209 0 0 0-.335-.585 1.628 1.628 0 0 0-.591-.477c-.25-.125-.57-.188-.96-.188-.534 0-.979.123-1.335.37-.353.242-.529.55-.529.926 0 .333.122.596.364.79.242.193.621.354 1.136.483l1.296.318c.78.19 1.361.479 1.744.869.383.386.574.884.574 1.494 0 .5-.144.947-.432 1.341-.284.394-.682.705-1.193.932-.511.227-1.106.341-1.784.341-.89 0-1.627-.193-2.21-.58-.584-.386-.953-.95-1.108-1.693l1.272-.318c.122.47.351.822.688 1.057.341.235.786.352 1.335.352.625 0 1.121-.132 1.489-.398.371-.269.557-.59.557-.965 0-.303-.106-.557-.319-.762-.212-.208-.537-.363-.977-.466l-1.454-.34c-.8-.19-1.387-.484-1.762-.881-.371-.402-.557-.904-.557-1.506 0-.492.139-.928.415-1.307a2.82 2.82 0 0 1 1.142-.892c.485-.216 1.034-.324 1.648-.324.864 0 1.542.19 2.034.568.496.38.849.88 1.057 1.5ZM50.273 58.967c-.788 0-1.48-.188-2.074-.563-.591-.375-1.053-.9-1.386-1.573-.33-.675-.495-1.463-.495-2.364 0-.91.165-1.703.495-2.38.333-.679.795-1.205 1.386-1.58.595-.375 1.286-.563 2.074-.563.788 0 1.477.188 2.068.563.595.375 1.057.901 1.386 1.58.334.677.5 1.47.5 2.38 0 .901-.166 1.69-.5 2.364a3.77 3.77 0 0 1-1.386 1.573c-.591.375-1.28.563-2.068.563Zm0-1.205c.598 0 1.09-.153 1.477-.46a2.72 2.72 0 0 0 .858-1.21c.186-.5.278-1.042.278-1.625a4.68 4.68 0 0 0-.278-1.63 2.749 2.749 0 0 0-.858-1.222c-.386-.31-.879-.466-1.477-.466-.599 0-1.091.155-1.478.466-.386.31-.672.718-.858 1.221a4.68 4.68 0 0 0-.278 1.631c0 .583.093 1.125.279 1.625.185.5.471.903.857 1.21.387.307.88.46 1.478.46Zm7.342-4.227v5.25h-1.34v-8.727h1.295v1.364h.113c.205-.444.515-.8.932-1.069.417-.272.955-.409 1.614-.409.59 0 1.108.121 1.55.364.444.239.789.602 1.035 1.09.246.486.37 1.1.37 1.842v5.545h-1.342v-5.454c0-.686-.178-1.22-.534-1.603-.356-.386-.844-.58-1.466-.58-.428 0-.81.094-1.147.28a1.992 1.992 0 0 0-.79.812c-.193.356-.29.788-.29 1.295Zm14.325 5.25-2.568-8.727h1.756l1.71 6.409h.085l1.716-6.41h1.756l1.704 6.382h.086l1.698-6.381h1.756l-2.562 8.727h-1.733l-1.773-6.301h-.13l-1.773 6.301H71.94Zm13.01-5.182v5.182h-1.699V47.15h1.677v4.33h.108a2.51 2.51 0 0 1 .937-1.12c.42-.276.97-.415 1.648-.415.598 0 1.121.123 1.568.37.45.246.8.613 1.045 1.102.25.485.375 1.09.375 1.818v5.551h-1.698V53.44c0-.64-.165-1.137-.495-1.49-.33-.355-.788-.533-1.375-.533a2.25 2.25 0 0 0-1.08.256 1.84 1.84 0 0 0-.744.75c-.178.325-.267.72-.267 1.181Zm10.466 5.375a3.563 3.563 0 0 1-1.5-.306 2.526 2.526 0 0 1-1.062-.904c-.258-.394-.387-.877-.387-1.449 0-.492.095-.898.284-1.216.19-.318.445-.57.767-.755a4.006 4.006 0 0 1 1.08-.42 10.72 10.72 0 0 1 1.216-.217l1.273-.147c.325-.042.562-.108.71-.2.148-.09.222-.238.222-.442v-.04c0-.496-.14-.88-.421-1.154-.276-.272-.69-.409-1.239-.409-.572 0-1.022.127-1.352.38-.326.25-.551.53-.676.836l-1.597-.363c.19-.53.466-.959.83-1.285.367-.33.79-.568 1.267-.715.477-.152.98-.228 1.506-.228.348 0 .718.042 1.108.125.394.08.761.227 1.102.443.345.216.627.525.847.927.22.397.329.914.329 1.55v5.796h-1.66v-1.193h-.067c-.11.22-.275.436-.495.648-.22.212-.502.388-.846.528-.345.14-.758.21-1.239.21Zm.37-1.363c.47 0 .87-.093 1.204-.279.337-.185.593-.428.767-.727.178-.303.267-.627.267-.972v-1.125c-.06.061-.178.118-.352.17-.17.05-.366.094-.585.132-.22.034-.434.066-.642.096l-.523.068c-.33.042-.63.112-.903.21-.27.1-.485.241-.648.427-.16.181-.239.424-.239.727 0 .42.155.739.466.955.31.212.707.318 1.188.318Zm10.274-7.557v1.364h-4.767v-1.364h4.767Zm-3.489-2.091h1.699v8.256c0 .33.049.577.148.744a.768.768 0 0 0 .38.335c.159.057.332.085.517.085.137 0 .256-.009.358-.028l.239-.045.307 1.403a2.88 2.88 0 0 1-.421.114 3.327 3.327 0 0 1-.682.068 2.997 2.997 0 0 1-1.25-.239 2.147 2.147 0 0 1-.937-.773c-.239-.348-.358-.786-.358-1.312v-8.608Zm9.602 10.818v-8.727h1.631v1.42h.108a2.26 2.26 0 0 1 .892-1.125c.413-.272.907-.409 1.483-.409.583 0 1.072.137 1.466.41.398.272.691.647.881 1.124h.09c.209-.466.54-.837.995-1.113.454-.28.996-.42 1.625-.42.791 0 1.437.247 1.937.744.504.496.756 1.244.756 2.244v5.852h-1.699v-5.693c0-.59-.161-1.019-.483-1.284a1.755 1.755 0 0 0-1.153-.398c-.553 0-.983.17-1.29.512-.307.337-.46.77-.46 1.3v5.563h-1.693v-5.801c0-.474-.148-.854-.444-1.142-.295-.288-.68-.432-1.153-.432-.322 0-.619.085-.892.256a1.88 1.88 0 0 0-.654.699 2.15 2.15 0 0 0-.244 1.04v5.38h-1.699Zm16.681.193a3.563 3.563 0 0 1-1.5-.306 2.531 2.531 0 0 1-1.063-.904c-.257-.394-.386-.877-.386-1.449 0-.492.095-.898.284-1.216.189-.318.445-.57.767-.755a4.006 4.006 0 0 1 1.08-.42c.397-.095.803-.167 1.215-.217l1.273-.147c.326-.042.563-.108.71-.2.148-.09.222-.238.222-.442v-.04c0-.496-.14-.88-.42-1.154-.277-.272-.69-.409-1.239-.409-.572 0-1.023.127-1.352.38-.326.25-.552.53-.677.836l-1.596-.363c.189-.53.466-.959.829-1.285.368-.33.79-.568 1.267-.715a4.94 4.94 0 0 1 1.506-.228c.349 0 .718.042 1.108.125.394.08.761.227 1.102.443.345.216.627.525.847.927.22.397.33.914.33 1.55v5.796h-1.66v-1.193h-.068c-.11.22-.274.436-.494.648-.22.212-.502.388-.847.528-.344.14-.757.21-1.238.21Zm.369-1.363c.47 0 .871-.093 1.205-.279.337-.185.592-.428.767-.727.178-.303.267-.627.267-.972v-1.125c-.061.061-.178.118-.353.17-.17.05-.365.094-.585.132-.22.034-.434.066-.642.096l-.523.068a4.22 4.22 0 0 0-.903.21c-.269.1-.485.241-.648.427-.159.181-.238.424-.238.727 0 .42.155.739.466.955.31.212.706.318 1.187.318Zm7.763-1.79-.012-2.074h.296l3.477-3.693h2.034l-3.966 4.204h-.267l-1.562 1.563Zm-1.563 2.96V47.15h1.699v11.636h-1.699Zm5.512 0-3.125-4.148 1.17-1.187 4.04 5.335h-2.085Zm6.797.176c-.86 0-1.601-.183-2.222-.55a3.742 3.742 0 0 1-1.432-1.563c-.333-.675-.5-1.464-.5-2.37 0-.894.167-1.681.5-2.363a3.884 3.884 0 0 1 1.409-1.597c.606-.383 1.315-.574 2.125-.574.493 0 .97.082 1.432.245.462.162.877.418 1.244.767.368.348.658.8.87 1.358.212.553.318 1.225.318 2.017v.602h-6.938V53.66h5.273c0-.447-.091-.843-.273-1.187a2.053 2.053 0 0 0-.767-.824c-.325-.201-.708-.301-1.147-.301-.478 0-.894.117-1.25.352a2.367 2.367 0 0 0-.819.909 2.629 2.629 0 0 0-.284 1.21v.995c0 .583.103 1.08.307 1.488.208.41.498.722.869.938.372.212.805.318 1.302.318.322 0 .615-.046.88-.136.265-.095.495-.235.688-.42.193-.187.341-.416.443-.688l1.608.29c-.129.473-.36.888-.693 1.244a3.37 3.37 0 0 1-1.245.824c-.496.193-1.062.29-1.698.29Zm12.169-6.772-1.54.272a1.84 1.84 0 0 0-.307-.562 1.514 1.514 0 0 0-.557-.438c-.235-.113-.528-.17-.881-.17-.481 0-.882.108-1.204.324-.322.212-.483.486-.483.824 0 .291.108.526.324.704.216.178.564.324 1.045.438l1.387.318c.803.185 1.401.471 1.795.858.394.386.591.888.591 1.505 0 .523-.151.99-.455 1.398-.299.406-.717.724-1.255.955-.534.23-1.154.346-1.858.346-.977 0-1.775-.208-2.392-.625-.618-.42-.996-1.017-1.137-1.79l1.642-.25c.103.429.313.752.631.972.318.216.733.324 1.244.324.557 0 1.002-.116 1.336-.347.333-.234.5-.52.5-.858a.894.894 0 0 0-.307-.687c-.201-.186-.51-.326-.926-.42l-1.478-.324c-.814-.186-1.416-.481-1.806-.887-.387-.405-.58-.918-.58-1.54a2.2 2.2 0 0 1 .432-1.352c.288-.386.686-.687 1.193-.903.508-.22 1.089-.33 1.744-.33.944 0 1.686.205 2.228.614.541.405.899.949 1.074 1.63Zm7.346 9.869c-.254 0-.485-.02-.693-.063a2.188 2.188 0 0 1-.466-.125l.409-1.392c.311.084.587.12.83.108a.995.995 0 0 0 .642-.272c.189-.17.356-.45.5-.836l.21-.58-3.193-8.84h1.818l2.21 6.773h.091l2.21-6.773h1.824l-3.596 9.892a3.945 3.945 0 0 1-.637 1.153 2.464 2.464 0 0 1-.92.716c-.356.16-.769.239-1.239.239Zm11.368-3.097c-.818 0-1.532-.187-2.142-.562a3.79 3.79 0 0 1-1.42-1.574c-.338-.674-.506-1.462-.506-2.364 0-.905.168-1.697.506-2.375a3.783 3.783 0 0 1 1.42-1.58c.61-.374 1.324-.562 2.142-.562.818 0 1.532.188 2.142.563.61.375 1.083.901 1.421 1.58.337.677.505 1.469.505 2.374 0 .902-.168 1.69-.505 2.364a3.799 3.799 0 0 1-1.421 1.574c-.61.375-1.324.562-2.142.562Zm.006-1.426c.53 0 .969-.14 1.318-.42a2.47 2.47 0 0 0 .773-1.12c.17-.465.255-.979.255-1.54 0-.556-.085-1.068-.255-1.533a2.506 2.506 0 0 0-.773-1.131c-.349-.284-.788-.426-1.318-.426-.534 0-.978.142-1.33.426a2.539 2.539 0 0 0-.778 1.13c-.167.466-.25.978-.25 1.535 0 .56.083 1.073.25 1.54.17.465.43.838.778 1.119.352.28.796.42 1.33.42Zm11.487-2.37v-5.107h1.704v8.727h-1.67v-1.511h-.091a2.727 2.727 0 0 1-.966 1.165c-.439.306-.987.46-1.642.46-.56 0-1.057-.123-1.488-.37-.428-.25-.766-.619-1.012-1.108-.242-.488-.363-1.092-.363-1.812v-5.551h1.698v5.346c0 .595.165 1.069.495 1.42.329.353.757.53 1.284.53.318 0 .634-.08.949-.24a1.99 1.99 0 0 0 .789-.72c.213-.323.317-.732.313-1.228Zm14.761-2.976-1.539.272a1.84 1.84 0 0 0-.307-.562 1.523 1.523 0 0 0-.557-.438c-.235-.113-.528-.17-.881-.17-.481 0-.882.108-1.204.324-.322.212-.483.486-.483.824 0 .291.108.526.324.704.216.178.564.324 1.045.438l1.386.318c.803.185 1.402.471 1.796.858.394.386.591.888.591 1.505 0 .523-.152.99-.455 1.398-.299.406-.718.724-1.255.955-.535.23-1.154.346-1.858.346-.978 0-1.775-.208-2.392-.625-.618-.42-.997-1.017-1.137-1.79l1.642-.25c.103.429.313.752.631.972.318.216.733.324 1.244.324.557 0 1.002-.116 1.335-.347.334-.234.5-.52.5-.858a.893.893 0 0 0-.306-.687c-.201-.186-.51-.326-.927-.42l-1.477-.324c-.814-.186-1.416-.481-1.807-.887-.386-.405-.579-.918-.579-1.54a2.2 2.2 0 0 1 .432-1.352c.288-.386.685-.687 1.193-.903.507-.22 1.089-.33 1.744-.33.943 0 1.686.205 2.227.614.542.405.9.949 1.074 1.63Zm6.113-2.131v1.364h-4.768v-1.364h4.768Zm-3.489-2.091h1.699v8.256c0 .33.049.577.147.744a.775.775 0 0 0 .381.335c.159.057.332.085.517.085.137 0 .256-.009.358-.028l.239-.045.307 1.403a2.88 2.88 0 0 1-.421.114 3.327 3.327 0 0 1-.682.068 2.994 2.994 0 0 1-1.25-.239 2.142 2.142 0 0 1-.937-.773c-.239-.348-.358-.786-.358-1.312v-8.608Zm7.908 11.011a3.563 3.563 0 0 1-1.5-.306 2.525 2.525 0 0 1-1.063-.904c-.258-.394-.386-.877-.386-1.449 0-.492.094-.898.284-1.216.189-.318.445-.57.767-.755a4.013 4.013 0 0 1 1.079-.42 10.73 10.73 0 0 1 1.216-.217l1.273-.147c.326-.042.563-.108.71-.2.148-.09.222-.238.222-.442v-.04c0-.496-.14-.88-.421-1.154-.276-.272-.689-.409-1.238-.409-.572 0-1.023.127-1.353.38-.325.25-.551.53-.676.836l-1.596-.363c.189-.53.466-.959.829-1.285.368-.33.79-.568 1.267-.715a4.94 4.94 0 0 1 1.506-.228c.349 0 .718.042 1.108.125.394.08.761.227 1.102.443.345.216.627.525.847.927.22.397.329.914.329 1.55v5.796h-1.659v-1.193h-.068c-.11.22-.275.436-.494.648-.22.212-.502.388-.847.528-.344.14-.757.21-1.238.21Zm.369-1.363c.47 0 .871-.093 1.204-.279.338-.185.593-.428.767-.727.179-.303.268-.627.268-.972v-1.125c-.061.061-.179.118-.353.17-.17.05-.365.094-.585.132-.22.034-.434.066-.642.096l-.523.068a4.22 4.22 0 0 0-.903.21c-.269.1-.485.241-.648.427-.159.181-.239.424-.239.727 0 .42.156.739.466.955.311.212.707.318 1.188.318Zm7.899-4.012v5.182h-1.699v-8.727h1.631v1.42h.108c.201-.462.515-.833.943-1.113.432-.28.975-.42 1.631-.42.594 0 1.115.124 1.562.374.447.246.794.614 1.04 1.102.246.49.369 1.093.369 1.813v5.551h-1.699V53.44c0-.633-.164-1.127-.494-1.483-.329-.36-.782-.54-1.358-.54-.394 0-.744.085-1.051.256a1.84 1.84 0 0 0-.722.75c-.174.325-.261.72-.261 1.181Zm11.131 5.353c-.705 0-1.334-.18-1.887-.54-.549-.364-.981-.88-1.295-1.551-.311-.675-.466-1.483-.466-2.426 0-.944.157-1.75.472-2.42.318-.671.753-1.185 1.306-1.54a3.4 3.4 0 0 1 1.881-.535c.542 0 .977.091 1.307.273.333.178.591.386.773.625.185.239.329.449.431.63h.103V47.15h1.699v11.636h-1.66v-1.358h-.142c-.102.186-.25.398-.443.637-.189.238-.45.447-.784.625-.333.178-.765.267-1.295.267Zm.375-1.45c.488 0 .901-.128 1.238-.386.341-.261.599-.623.773-1.085.178-.462.267-1 .267-1.613 0-.606-.087-1.137-.261-1.591-.174-.455-.43-.81-.767-1.063-.337-.254-.754-.38-1.25-.38-.512 0-.938.132-1.279.397-.341.265-.598.627-.772 1.085a4.413 4.413 0 0 0-.256 1.552c0 .583.087 1.108.261 1.573.175.466.432.836.773 1.108.345.27.769.404 1.273.404Zm14.284 1.455c-.818 0-1.532-.187-2.142-.562a3.792 3.792 0 0 1-1.421-1.574c-.337-.674-.505-1.462-.505-2.364 0-.905.168-1.697.505-2.375a3.785 3.785 0 0 1 1.421-1.58c.61-.374 1.324-.562 2.142-.562.818 0 1.532.188 2.142.563.61.375 1.083.901 1.42 1.58.337.677.506 1.469.506 2.374 0 .902-.169 1.69-.506 2.364a3.79 3.79 0 0 1-1.42 1.574c-.61.375-1.324.562-2.142.562Zm.005-1.426c.531 0 .97-.14 1.319-.42.348-.28.606-.654.772-1.12a4.44 4.44 0 0 0 .256-1.54c0-.556-.085-1.068-.256-1.533a2.497 2.497 0 0 0-.772-1.131c-.349-.284-.788-.426-1.319-.426-.534 0-.977.142-1.329.426a2.53 2.53 0 0 0-.778 1.13c-.167.466-.25.978-.25 1.535 0 .56.083 1.073.25 1.54.17.465.429.838.778 1.119.352.28.795.42 1.329.42Zm11.488-2.37v-5.107h1.704v8.727h-1.67v-1.511h-.091a2.727 2.727 0 0 1-.966 1.165c-.439.306-.987.46-1.642.46-.561 0-1.057-.123-1.489-.37-.428-.25-.765-.619-1.011-1.108-.242-.488-.364-1.092-.364-1.812v-5.551h1.699v5.346c0 .595.165 1.069.494 1.42.33.353.758.53 1.285.53.318 0 .634-.08.948-.24.319-.158.582-.399.79-.72.212-.323.316-.732.313-1.228Zm8.061-5.107v1.364h-4.767v-1.364h4.767Zm-3.489-2.091h1.699v8.256c0 .33.049.577.148.744a.768.768 0 0 0 .38.335c.16.057.332.085.517.085.137 0 .256-.009.358-.028l.239-.045.307 1.403a2.88 2.88 0 0 1-.421.114 3.316 3.316 0 0 1-.681.068 2.99 2.99 0 0 1-1.25-.239 2.144 2.144 0 0 1-.938-.773c-.239-.348-.358-.786-.358-1.312v-8.608Zm13.574 2.09v1.137h-4.705v-1.136h4.705Zm-3.295 8.728v-9.932c0-.5.117-.916.352-1.25a2.19 2.19 0 0 1 .915-.75 2.89 2.89 0 0 1 1.187-.25c.33 0 .599.027.807.08.208.053.364.102.466.148l-.387 1.159a6.252 6.252 0 0 0-.284-.086 1.716 1.716 0 0 0-.466-.05c-.443 0-.763.111-.96.335-.193.223-.29.55-.29.983v9.613h-1.34Zm5.174 0v-8.727h1.296v1.318h.091c.159-.432.447-.782.863-1.051a2.545 2.545 0 0 1 1.409-.404c.099 0 .222.002.37.006.147.004.259.01.335.017v1.364a4.054 4.054 0 0 0-.313-.051 3.068 3.068 0 0 0-.505-.04c-.425 0-.803.089-1.137.267a2.017 2.017 0 0 0-.784.727 1.963 1.963 0 0 0-.284 1.051v5.523h-1.341Zm9.233.182c-.788 0-1.479-.188-2.074-.563-.591-.375-1.053-.9-1.386-1.573-.33-.675-.494-1.463-.494-2.364 0-.91.164-1.703.494-2.38.333-.679.795-1.205 1.386-1.58.595-.375 1.286-.563 2.074-.563.788 0 1.478.188 2.068.563.595.375 1.057.901 1.387 1.58.333.677.5 1.47.5 2.38 0 .901-.167 1.69-.5 2.364a3.77 3.77 0 0 1-1.387 1.573c-.59.375-1.28.563-2.068.563Zm0-1.205c.599 0 1.091-.153 1.478-.46a2.71 2.71 0 0 0 .857-1.21c.186-.5.279-1.042.279-1.625s-.093-1.127-.279-1.63a2.745 2.745 0 0 0-.857-1.222c-.387-.31-.879-.466-1.478-.466-.598 0-1.091.155-1.477.466-.386.31-.672.718-.858 1.221a4.671 4.671 0 0 0-.278 1.631c0 .583.092 1.125.278 1.625.186.5.472.903.858 1.21.386.307.879.46 1.477.46Zm6.002 1.023v-8.727h1.295v1.364h.114c.182-.466.475-.828.88-1.086.406-.261.892-.392 1.461-.392.575 0 1.055.13 1.437.392.387.258.688.62.904 1.086h.09c.224-.451.559-.81 1.006-1.074.447-.27.983-.404 1.608-.404.78 0 1.419.245 1.915.733.496.485.744 1.24.744 2.267v5.841h-1.341v-5.84c0-.645-.176-1.105-.528-1.381a1.954 1.954 0 0 0-1.244-.415c-.614 0-1.089.185-1.427.557-.337.367-.505.833-.505 1.397v5.682h-1.364v-5.977c0-.496-.161-.896-.483-1.199-.322-.307-.737-.46-1.244-.46a1.84 1.84 0 0 0-.977.278c-.3.186-.542.443-.728.773a2.28 2.28 0 0 0-.272 1.13v5.455h-1.341Zm20.974.205a3.55 3.55 0 0 1-1.506-.313 2.585 2.585 0 0 1-1.073-.915c-.266-.401-.398-.886-.398-1.454 0-.5.098-.905.295-1.216.197-.314.46-.56.79-.739a4.15 4.15 0 0 1 1.091-.397 13.22 13.22 0 0 1 1.21-.216c.53-.069.96-.12 1.29-.154.333-.038.576-.1.727-.187.156-.087.233-.239.233-.455V52.9c0-.56-.153-.996-.46-1.307-.303-.31-.763-.466-1.381-.466-.64 0-1.142.14-1.505.42-.364.28-.62.58-.767.898l-1.273-.454c.227-.53.53-.944.909-1.239a3.4 3.4 0 0 1 1.25-.625 5.185 5.185 0 0 1 1.341-.182c.28 0 .602.034.966.102.367.065.721.2 1.062.404.345.204.631.513.858.926.227.413.341.966.341 1.66v5.75h-1.341v-1.183h-.068c-.091.19-.242.392-.455.608-.212.216-.494.4-.846.551-.352.152-.782.228-1.29.228Zm.205-1.205c.53 0 .977-.104 1.341-.312a2.132 2.132 0 0 0 1.113-1.847V54.4c-.057.068-.182.13-.375.187-.189.053-.409.1-.659.142a29.629 29.629 0 0 1-1.284.17 5.19 5.19 0 0 0-.977.222 1.68 1.68 0 0 0-.728.45c-.181.196-.272.465-.272.806 0 .466.172.818.517 1.057.348.235.79.352 1.324.352Zm12.083-4.25v5.25h-1.34V47.15h1.34v4.273h.114c.205-.451.511-.81.921-1.074.412-.27.962-.404 1.647-.404.595 0 1.116.12 1.563.358.447.235.793.597 1.04 1.085.25.485.375 1.103.375 1.853v5.545h-1.341v-5.454c0-.694-.18-1.23-.54-1.608-.356-.383-.851-.574-1.483-.574-.44 0-.833.093-1.182.278a2.033 2.033 0 0 0-.818.813c-.197.356-.296.788-.296 1.295Zm13.613 1.682v-5.16h1.341v8.728h-1.341v-1.477h-.091c-.205.443-.523.82-.955 1.13-.432.307-.977.46-1.636.46-.546 0-1.03-.119-1.455-.357-.424-.243-.757-.606-1-1.091-.242-.489-.363-1.104-.363-1.847v-5.545h1.341v5.454c0 .637.178 1.144.534 1.523.359.379.818.568 1.375.568a2.29 2.29 0 0 0 1.017-.255c.348-.17.64-.432.875-.784.238-.353.358-.802.358-1.347Zm7.319 7.023c-.647 0-1.204-.084-1.67-.25a3.55 3.55 0 0 1-1.165-.648 3.545 3.545 0 0 1-.733-.852l1.068-.75c.121.159.275.34.46.545.186.209.44.388.762.54.326.155.752.233 1.278.233.705 0 1.286-.17 1.745-.511.458-.341.687-.875.687-1.603v-1.773h-.114a7.03 7.03 0 0 1-.42.591c-.178.231-.436.438-.773.62-.333.178-.784.267-1.352.267a3.646 3.646 0 0 1-1.898-.5c-.557-.334-.998-.818-1.324-1.455-.322-.636-.483-1.409-.483-2.318 0-.894.158-1.672.472-2.335.314-.667.752-1.182 1.313-1.546.56-.367 1.208-.55 1.943-.55.568 0 1.019.094 1.352.283.337.186.595.398.773.637.182.234.322.428.42.58h.137v-1.387h1.295v8.977c0 .75-.17 1.36-.511 1.83-.338.473-.792.82-1.364 1.04a5.155 5.155 0 0 1-1.898.335Zm-.045-4.796c.538 0 .992-.123 1.363-.37.372-.245.654-.6.847-1.062.193-.462.29-1.015.29-1.659 0-.628-.095-1.183-.284-1.664-.19-.481-.47-.858-.841-1.131s-.83-.41-1.375-.41c-.568 0-1.042.145-1.421.433a2.626 2.626 0 0 0-.846 1.159 4.472 4.472 0 0 0-.279 1.613c0 .606.095 1.142.284 1.608.194.462.478.826.853 1.091.378.262.848.392 1.409.392Zm9.932 1.523c-.841 0-1.567-.186-2.177-.557a3.74 3.74 0 0 1-1.403-1.568c-.326-.674-.489-1.458-.489-2.352 0-.894.163-1.682.489-2.364.33-.685.788-1.22 1.375-1.602.591-.387 1.28-.58 2.068-.58.455 0 .904.076 1.347.227.443.152.846.398 1.21.74.364.336.653.783.869 1.34.216.557.324 1.242.324 2.057v.568h-6.727v-1.159h5.364a2.86 2.86 0 0 0-.296-1.318 2.23 2.23 0 0 0-.829-.915c-.356-.224-.777-.335-1.262-.335-.534 0-.996.132-1.386.398a2.617 2.617 0 0 0-.892 1.022 3.01 3.01 0 0 0-.313 1.352v.773c0 .66.114 1.218.341 1.676.231.455.551.802.96 1.04.41.235.885.352 1.427.352.352 0 .67-.049.954-.147a2.04 2.04 0 0 0 .744-.455 2.05 2.05 0 0 0 .483-.761l1.296.363c-.136.44-.366.826-.688 1.16a3.33 3.33 0 0 1-1.193.772 4.418 4.418 0 0 1-1.596.273Zm10.153 3.09v-12h1.295v1.387h.16c.098-.151.234-.345.409-.58.178-.238.431-.45.761-.636.333-.19.784-.284 1.352-.284.735 0 1.383.184 1.943.551.561.368.999.889 1.313 1.563.314.674.472 1.47.472 2.386 0 .924-.158 1.726-.472 2.404-.314.674-.75 1.197-1.307 1.568-.557.367-1.199.551-1.926.551-.561 0-1.009-.093-1.347-.278-.337-.19-.596-.404-.778-.642a8.34 8.34 0 0 1-.42-.603h-.114v4.614h-1.341Zm1.318-7.636c0 .66.097 1.241.29 1.745.193.5.475.892.847 1.176.371.28.825.42 1.363.42.561 0 1.029-.147 1.404-.443.378-.299.662-.7.852-1.204.193-.508.29-1.072.29-1.694a4.6 4.6 0 0 0-.284-1.659c-.186-.496-.468-.888-.847-1.176-.375-.291-.847-.437-1.415-.437-.545 0-1.004.138-1.375.415-.371.272-.651.655-.841 1.147-.189.489-.284 1.059-.284 1.71Zm11.977 4.546c-.787 0-1.479-.188-2.073-.563-.591-.375-1.053-.9-1.387-1.573-.329-.675-.494-1.463-.494-2.364 0-.91.165-1.703.494-2.38.334-.679.796-1.205 1.387-1.58.594-.375 1.286-.563 2.073-.563.788 0 1.478.188 2.069.563.594.375 1.056.901 1.386 1.58.333.677.5 1.47.5 2.38 0 .901-.167 1.69-.5 2.364a3.775 3.775 0 0 1-1.386 1.573c-.591.375-1.281.563-2.069.563Zm0-1.205c.599 0 1.091-.153 1.478-.46a2.72 2.72 0 0 0 .858-1.21c.185-.5.278-1.042.278-1.625s-.093-1.127-.278-1.63a2.754 2.754 0 0 0-.858-1.222c-.387-.31-.879-.466-1.478-.466-.598 0-1.09.155-1.477.466-.386.31-.672.718-.858 1.221a4.694 4.694 0 0 0-.278 1.631c0 .583.093 1.125.278 1.625.186.5.472.903.858 1.21.387.307.879.46 1.477.46Zm9.547 1.205c-.788 0-1.479-.188-2.074-.563-.59-.375-1.053-.9-1.386-1.573-.329-.675-.494-1.463-.494-2.364 0-.91.165-1.703.494-2.38.333-.679.796-1.205 1.386-1.58.595-.375 1.286-.563 2.074-.563.788 0 1.478.188 2.069.563.594.375 1.056.901 1.386 1.58.333.677.5 1.47.5 2.38 0 .901-.167 1.69-.5 2.364a3.775 3.775 0 0 1-1.386 1.573c-.591.375-1.281.563-2.069.563Zm0-1.205c.599 0 1.091-.153 1.478-.46a2.72 2.72 0 0 0 .858-1.21c.185-.5.278-1.042.278-1.625s-.093-1.127-.278-1.63a2.754 2.754 0 0 0-.858-1.222c-.387-.31-.879-.466-1.478-.466-.598 0-1.091.155-1.477.466-.386.31-.672.718-.858 1.221a4.694 4.694 0 0 0-.278 1.631c0 .583.093 1.125.278 1.625.186.5.472.903.858 1.21.386.307.879.46 1.477.46Zm7.343-10.613v11.636h-1.341V47.15h1.341Zm10.501 11.818c-.788 0-1.479-.188-2.074-.563-.591-.375-1.053-.9-1.386-1.573-.33-.675-.494-1.463-.494-2.364 0-.91.164-1.703.494-2.38.333-.679.795-1.205 1.386-1.58.595-.375 1.286-.563 2.074-.563.788 0 1.477.188 2.068.563.595.375 1.057.901 1.387 1.58.333.677.5 1.47.5 2.38 0 .901-.167 1.69-.5 2.364a3.77 3.77 0 0 1-1.387 1.573c-.591.375-1.28.563-2.068.563Zm0-1.205c.599 0 1.091-.153 1.477-.46.387-.307.673-.71.858-1.21.186-.5.279-1.042.279-1.625s-.093-1.127-.279-1.63a2.739 2.739 0 0 0-.858-1.222c-.386-.31-.878-.466-1.477-.466-.598 0-1.091.155-1.477.466-.387.31-.673.718-.858 1.221a4.672 4.672 0 0 0-.279 1.631c0 .583.093 1.125.279 1.625.185.5.471.903.858 1.21.386.307.879.46 1.477.46Zm9.888-7.704v1.136h-4.705v-1.136h4.705Zm-3.296 8.727v-9.932c0-.5.118-.916.353-1.25.235-.333.539-.583.914-.75.375-.166.771-.25 1.188-.25.33 0 .598.027.807.08a3.1 3.1 0 0 1 .466.148l-.387 1.159a6.673 6.673 0 0 0-.284-.086 1.716 1.716 0 0 0-.466-.05c-.443 0-.763.111-.96.335-.193.223-.29.55-.29.983v9.613h-1.341Zm13.221.182c-.819 0-1.523-.193-2.114-.58a3.782 3.782 0 0 1-1.364-1.596c-.318-.678-.477-1.453-.477-2.324 0-.886.163-1.669.489-2.347.329-.681.788-1.214 1.375-1.596.591-.387 1.28-.58 2.068-.58a3.91 3.91 0 0 1 1.659.341c.492.227.896.546 1.21.955.315.409.51.886.585 1.431h-1.34c-.103-.397-.33-.75-.682-1.056-.349-.31-.818-.466-1.409-.466-.523 0-.981.136-1.375.409-.391.269-.695.65-.915 1.142-.216.489-.324 1.062-.324 1.721 0 .675.106 1.262.318 1.762.216.5.519.888.909 1.165.394.276.856.414 1.387.414.348 0 .664-.06.948-.181.285-.122.525-.296.722-.523.197-.227.337-.5.421-.818h1.34a3.1 3.1 0 0 1-.562 1.392 3.148 3.148 0 0 1-1.176.977c-.485.239-1.049.358-1.693.358Zm8.937 0c-.788 0-1.479-.188-2.074-.563-.591-.375-1.053-.9-1.386-1.573-.33-.675-.494-1.463-.494-2.364 0-.91.164-1.703.494-2.38.333-.679.795-1.205 1.386-1.58.595-.375 1.286-.563 2.074-.563.788 0 1.477.188 2.068.563.595.375 1.057.901 1.387 1.58.333.677.5 1.47.5 2.38 0 .901-.167 1.69-.5 2.364a3.77 3.77 0 0 1-1.387 1.573c-.591.375-1.28.563-2.068.563Zm0-1.205c.599 0 1.091-.153 1.477-.46.387-.307.673-.71.858-1.21.186-.5.279-1.042.279-1.625s-.093-1.127-.279-1.63a2.739 2.739 0 0 0-.858-1.222c-.386-.31-.878-.466-1.477-.466-.598 0-1.091.155-1.477.466-.387.31-.673.718-.858 1.221a4.672 4.672 0 0 0-.279 1.631c0 .583.093 1.125.279 1.625.185.5.471.903.858 1.21.386.307.879.46 1.477.46Zm6.002 1.023v-8.727h1.295v1.364h.114a2.19 2.19 0 0 1 .88-1.086c.406-.261.892-.392 1.461-.392.575 0 1.054.13 1.437.392.386.258.688.62.903 1.086h.091c.224-.451.559-.81 1.006-1.074.447-.27.983-.404 1.608-.404.78 0 1.419.245 1.915.733.496.485.744 1.24.744 2.267v5.841h-1.341v-5.84c0-.645-.176-1.105-.528-1.381a1.957 1.957 0 0 0-1.245-.415c-.613 0-1.089.185-1.426.557-.337.367-.505.833-.505 1.397v5.682h-1.364v-5.977c0-.496-.161-.896-.483-1.199-.322-.307-.737-.46-1.244-.46a1.84 1.84 0 0 0-.978.278 2.107 2.107 0 0 0-.727.773 2.28 2.28 0 0 0-.273 1.13v5.455h-1.34Zm13.906 3.273v-12h1.295v1.386h.159c.099-.151.235-.345.409-.58.178-.238.432-.45.762-.636.333-.19.784-.284 1.352-.284.735 0 1.383.184 1.943.551.561.368.998.889 1.313 1.563.314.674.471 1.47.471 2.386 0 .924-.157 1.726-.471 2.404-.315.674-.75 1.197-1.307 1.568-.557.367-1.199.551-1.926.551-.561 0-1.01-.093-1.347-.278-.337-.19-.596-.404-.778-.642a8.745 8.745 0 0 1-.421-.603h-.113v4.614h-1.341Zm1.318-7.636c0 .659.097 1.24.29 1.744.193.5.475.892.846 1.176.372.28.826.42 1.364.42.561 0 1.028-.147 1.403-.443.379-.299.663-.7.853-1.204a4.731 4.731 0 0 0 .289-1.694 4.58 4.58 0 0 0-.284-1.659c-.185-.496-.467-.888-.846-1.176-.375-.291-.847-.437-1.415-.437-.545 0-1.004.138-1.375.415-.371.272-.652.655-.841 1.147-.189.489-.284 1.059-.284 1.71Zm12.091 4.545c-.841 0-1.566-.186-2.176-.557a3.743 3.743 0 0 1-1.404-1.568c-.325-.674-.488-1.458-.488-2.352 0-.894.163-1.682.488-2.364.33-.685.788-1.22 1.375-1.602.591-.387 1.281-.58 2.068-.58.455 0 .904.076 1.347.227a3.33 3.33 0 0 1 1.21.74c.364.336.654.783.87 1.34.216.557.323 1.242.323 2.057v.568h-6.727v-1.159h5.364a2.86 2.86 0 0 0-.296-1.318 2.223 2.223 0 0 0-.829-.915c-.356-.224-.777-.335-1.262-.335-.534 0-.996.132-1.386.398a2.617 2.617 0 0 0-.892 1.022c-.208.42-.312.871-.312 1.352v.773c0 .66.113 1.218.34 1.676.232.455.552.802.961 1.04.409.235.884.352 1.426.352.352 0 .67-.049.954-.147.288-.103.536-.254.745-.455.208-.204.369-.458.483-.761l1.295.363a2.87 2.87 0 0 1-.687 1.16 3.35 3.35 0 0 1-1.194.772 4.418 4.418 0 0 1-1.596.273Zm9.449-8.91v1.137h-4.523v-1.136h4.523Zm-3.205-2.09h1.341v8.318c0 .379.055.663.165.852a.849.849 0 0 0 .432.375c.178.061.365.091.562.091.148 0 .269-.007.364-.022l.227-.046.273 1.205a2.733 2.733 0 0 1-.381.102 2.8 2.8 0 0 1-.619.057 2.7 2.7 0 0 1-1.114-.245 2.215 2.215 0 0 1-.898-.744c-.234-.333-.352-.754-.352-1.261v-8.682Zm5.222 10.818v-8.727h1.341v8.727h-1.341Zm.682-10.182a.955.955 0 0 1-.677-.267.86.86 0 0 1-.278-.642.86.86 0 0 1 .278-.642.955.955 0 0 1 .677-.267c.261 0 .484.09.67.267a.851.851 0 0 1 .284.642c0 .25-.095.464-.284.642a.934.934 0 0 1-.67.267Zm6.91 1.455v1.136h-4.523v-1.136h4.523Zm-3.204-2.091h1.34v8.318c0 .379.055.663.165.852a.853.853 0 0 0 .432.375c.178.061.366.091.563.091.147 0 .268-.007.363-.022l.227-.046.273 1.205a2.753 2.753 0 0 1-.38.102c-.163.038-.37.057-.62.057-.379 0-.75-.082-1.113-.245a2.208 2.208 0 0 1-.898-.744c-.235-.333-.352-.754-.352-1.261v-8.682Zm8.673 11c-.788 0-1.479-.188-2.074-.563-.591-.375-1.053-.9-1.386-1.573-.33-.675-.495-1.463-.495-2.364 0-.91.165-1.703.495-2.38.333-.679.795-1.205 1.386-1.58.595-.375 1.286-.563 2.074-.563.788 0 1.477.188 2.068.563.595.375 1.057.901 1.386 1.58.334.677.5 1.47.5 2.38 0 .901-.166 1.69-.5 2.364a3.762 3.762 0 0 1-1.386 1.573c-.591.375-1.28.563-2.068.563Zm0-1.205c.598 0 1.091-.153 1.477-.46a2.72 2.72 0 0 0 .858-1.21c.186-.5.278-1.042.278-1.625s-.092-1.127-.278-1.63a2.754 2.754 0 0 0-.858-1.222c-.386-.31-.879-.466-1.477-.466-.599 0-1.091.155-1.477.466-.387.31-.673.718-.858 1.221a4.672 4.672 0 0 0-.279 1.631c0 .583.093 1.125.279 1.625.185.5.471.903.858 1.21.386.307.878.46 1.477.46Zm6.001 1.023v-8.727h1.296v1.318h.091c.159-.432.447-.782.863-1.051a2.545 2.545 0 0 1 1.409-.404c.099 0 .222.002.37.006.147.004.259.01.335.017v1.364a4.054 4.054 0 0 0-.313-.051 3.068 3.068 0 0 0-.505-.04c-.425 0-.803.089-1.137.267a2.017 2.017 0 0 0-.784.727 1.963 1.963 0 0 0-.284 1.051v5.523h-1.341Zm12.135-6.773-1.204.341a2.24 2.24 0 0 0-.336-.585 1.616 1.616 0 0 0-.59-.477c-.25-.125-.571-.188-.961-.188-.534 0-.979.123-1.335.37-.352.242-.528.55-.528.926 0 .333.121.596.363.79.243.193.622.354 1.137.483l1.295.318c.78.19 1.362.479 1.744.869.383.386.574.884.574 1.494 0 .5-.144.947-.432 1.341-.284.394-.681.705-1.193.932-.511.227-1.106.341-1.784.341-.89 0-1.627-.193-2.21-.58-.583-.386-.953-.95-1.108-1.693l1.273-.318c.121.47.35.822.687 1.057.341.235.786.352 1.335.352.625 0 1.122-.132 1.489-.398.371-.269.557-.59.557-.965 0-.303-.106-.557-.318-.762-.212-.208-.538-.363-.978-.466l-1.454-.34c-.799-.19-1.386-.484-1.761-.881-.372-.402-.557-.904-.557-1.506 0-.492.138-.928.415-1.307a2.82 2.82 0 0 1 1.142-.892c.484-.216 1.034-.324 1.647-.324.864 0 1.542.19 2.034.568.497.38.849.88 1.057 1.5Zm3.155 6.864c-.28 0-.521-.1-.722-.301a.987.987 0 0 1-.301-.722c0-.28.101-.52.301-.721a.986.986 0 0 1 .722-.301c.28 0 .521.1.722.3a.99.99 0 0 1 .301.722 1.058 1.058 0 0 1-.512.886.973.973 0 0 1-.511.137Z"/>
  <rect width="597" height="84" x="2" y="1.5" stroke="#D9EAEF" stroke-width="3" rx="18.5"/>
</svg>
