<svg xmlns="http://www.w3.org/2000/svg" width="1043" height="35" fill="none" viewBox="0 0 1043 35">
  <rect width="77" height="35" fill="#F6E0AA" rx="17.5"/>
  <path fill="#000" d="M21.089 16.563c-.053-.497-.277-.883-.67-1.16-.39-.276-.898-.414-1.523-.414-.44 0-.817.066-1.131.198-.314.133-.555.313-.722.54a1.313 1.313 0 0 0-.255.779c0 .242.055.452.164.63.114.178.267.33.46.455.194.121.408.223.643.307.235.083.471.153.71.21l1.09.273c.44.102.863.24 1.268.415a4.43 4.43 0 0 1 1.096.659c.326.265.584.585.773.96.19.375.284.814.284 1.318 0 .682-.174 1.282-.522 1.801-.349.515-.853.919-1.512 1.21-.655.288-1.449.432-2.38.432-.906 0-1.692-.14-2.358-.42-.663-.28-1.182-.69-1.557-1.228-.371-.537-.572-1.193-.602-1.965h2.073c.03.405.156.742.375 1.01.22.27.506.47.858.603a3.39 3.39 0 0 0 1.194.199c.458 0 .86-.068 1.204-.204a1.95 1.95 0 0 0 .818-.58 1.4 1.4 0 0 0 .301-.875c-.003-.303-.092-.553-.267-.75-.174-.2-.418-.367-.733-.5a7.051 7.051 0 0 0-1.09-.364l-1.324-.34c-.959-.247-1.716-.62-2.273-1.12-.553-.504-.83-1.172-.83-2.006 0-.685.186-1.286.557-1.8.375-.516.885-.915 1.528-1.2.644-.287 1.374-.431 2.188-.431.826 0 1.55.143 2.17.431.625.285 1.116.68 1.472 1.188a3.03 3.03 0 0 1 .551 1.739H21.09Zm8.334-.29v1.59h-5.017v-1.59h5.017Zm-3.779-2.091h2.057v8.193c0 .276.042.489.125.636.087.144.2.243.34.296.141.053.296.08.467.08.129 0 .246-.01.352-.029.11-.019.193-.036.25-.051l.347 1.608c-.11.038-.267.08-.472.125-.2.045-.447.072-.739.08a3.354 3.354 0 0 1-1.392-.234 2.166 2.166 0 0 1-.983-.806c-.238-.364-.356-.819-.352-1.364v-8.534Zm9.269 10.989c-.875 0-1.631-.182-2.267-.546a3.694 3.694 0 0 1-1.46-1.557c-.341-.674-.512-1.468-.512-2.38 0-.898.17-1.686.511-2.364a3.866 3.866 0 0 1 1.444-1.591c.617-.383 1.342-.574 2.176-.574.538 0 1.045.087 1.522.262.482.17.906.435 1.273.795.371.36.663.818.875 1.375.212.553.318 1.212.318 1.977v.63H31.64v-1.386h5.182a2.213 2.213 0 0 0-.256-1.05 1.86 1.86 0 0 0-.699-.734 1.965 1.965 0 0 0-1.034-.267c-.42 0-.79.103-1.108.307-.318.2-.566.466-.744.796a2.29 2.29 0 0 0-.267 1.073v1.21c0 .508.093.944.278 1.308.186.36.445.636.779.83.333.189.723.283 1.17.283.3 0 .57-.042.813-.125a1.81 1.81 0 0 0 .63-.38c.178-.167.313-.374.404-.62l1.92.216c-.121.508-.352.95-.693 1.33a3.379 3.379 0 0 1-1.296.875c-.526.204-1.128.306-1.806.306Zm5.62 3.102v-12h2.023v1.443h.12c.105-.212.255-.438.448-.676a2.38 2.38 0 0 1 .784-.62c.33-.174.75-.26 1.262-.26.674 0 1.282.171 1.824.516.545.341.977.847 1.295 1.517.322.667.483 1.485.483 2.455 0 .958-.157 1.773-.472 2.443-.314.67-.742 1.182-1.284 1.534a3.302 3.302 0 0 1-1.84.528c-.5 0-.915-.083-1.245-.25a2.53 2.53 0 0 1-.795-.602 3.9 3.9 0 0 1-.46-.676h-.086v4.648h-2.057Zm2.017-7.637c0 .565.08 1.06.24 1.483.162.425.395.756.698.995.307.235.678.352 1.114.352.454 0 .835-.121 1.142-.364.306-.246.538-.581.693-1.005.159-.428.238-.915.238-1.46 0-.542-.077-1.023-.232-1.444-.156-.42-.387-.75-.694-.989-.306-.238-.69-.357-1.147-.357-.44 0-.813.115-1.12.346-.307.231-.54.555-.699.972-.155.416-.233.907-.233 1.471ZM54.48 25v-1.523l4.04-3.96c.386-.39.707-.737.965-1.04.258-.303.45-.596.58-.88.128-.285.193-.588.193-.91 0-.367-.084-.681-.25-.943a1.662 1.662 0 0 0-.688-.613 2.217 2.217 0 0 0-.994-.216c-.383 0-.718.08-1.006.238a1.642 1.642 0 0 0-.67.665c-.155.288-.233.63-.233 1.029H54.41c0-.739.169-1.381.506-1.927a3.413 3.413 0 0 1 1.392-1.267c.595-.299 1.277-.449 2.045-.449.78 0 1.466.146 2.057.438.591.292 1.05.691 1.375 1.199a3.12 3.12 0 0 1 .495 1.739c0 .435-.084.863-.25 1.284-.167.42-.46.886-.881 1.397-.417.512-1.002 1.131-1.756 1.858l-2.005 2.04v.08h5.068V25h-7.978Zm37.668-1.5V11.864h7.568v1.767h-5.46v3.159h5.068v1.767h-5.068v3.176h5.505V23.5h-7.613Zm11.309-8.727 1.762 3.221 1.79-3.221h2.176l-2.631 4.363 2.676 4.364h-2.165l-1.846-3.142-1.83 3.142h-2.182l2.659-4.364-2.59-4.363h2.181Zm7.319 12v-12h2.022v1.443h.12c.106-.212.255-.438.448-.676.194-.243.455-.45.785-.62.329-.174.75-.26 1.261-.26.674 0 1.282.171 1.824.516.545.341.977.847 1.295 1.517.322.667.483 1.485.483 2.455 0 .958-.157 1.773-.471 2.443-.315.67-.743 1.182-1.284 1.534a3.304 3.304 0 0 1-1.841.528c-.5 0-.915-.083-1.245-.25a2.538 2.538 0 0 1-.795-.602 3.848 3.848 0 0 1-.46-.676h-.086v4.648h-2.056Zm2.017-7.637c0 .565.079 1.06.238 1.483.163.425.396.756.699.995.307.235.678.352 1.114.352.454 0 .835-.121 1.142-.364.307-.246.538-.581.693-1.005.159-.428.239-.915.239-1.46 0-.542-.078-1.023-.233-1.444-.156-.42-.387-.75-.694-.989-.306-.238-.689-.357-1.147-.357-.44 0-.813.115-1.12.346-.306.231-.539.555-.698.972-.156.416-.233.907-.233 1.471Zm10.494 4.54a3.639 3.639 0 0 1-1.494-.295 2.44 2.44 0 0 1-1.046-.887c-.254-.39-.381-.87-.381-1.443 0-.492.091-.9.273-1.221.182-.322.43-.58.745-.773a3.746 3.746 0 0 1 1.062-.438 8.657 8.657 0 0 1 1.233-.221c.511-.053.926-.1 1.244-.142.318-.046.55-.114.693-.205.148-.095.222-.24.222-.437v-.035c0-.428-.127-.759-.381-.994-.253-.235-.619-.352-1.096-.352-.504 0-.904.11-1.199.33-.292.22-.489.479-.591.778l-1.92-.273c.151-.53.401-.973.75-1.33.348-.36.774-.628 1.278-.806a4.893 4.893 0 0 1 1.67-.273c.421 0 .839.05 1.256.148.417.098.797.261 1.142.489.345.223.621.528.83.914.212.387.318.87.318 1.45v5.84h-1.977v-1.199h-.069c-.125.243-.301.47-.528.682a2.538 2.538 0 0 1-.847.506 3.411 3.411 0 0 1-1.187.187Zm.534-1.511c.413 0 .771-.082 1.074-.244a1.81 1.81 0 0 0 .699-.66c.166-.272.25-.57.25-.892v-1.028a.97.97 0 0 1-.33.148 4.64 4.64 0 0 1-.511.119c-.19.034-.377.064-.563.09l-.483.069a3.59 3.59 0 0 0-.823.205 1.365 1.365 0 0 0-.574.397c-.14.167-.211.383-.211.648 0 .379.139.665.415.858.277.193.629.29 1.057.29Zm8.199-3.779V23.5h-2.057v-8.727h1.966v1.483h.102c.201-.489.521-.877.96-1.165.444-.288.991-.432 1.643-.432.602 0 1.126.129 1.573.386.451.258.8.631 1.046 1.12.25.488.373 1.081.369 1.778V23.5h-2.057v-5.239c0-.583-.151-1.04-.454-1.369-.299-.33-.714-.494-1.245-.494-.359 0-.679.08-.96.238a1.66 1.66 0 0 0-.653.677c-.155.295-.233.653-.233 1.073Zm10.932 5.267a3.3 3.3 0 0 1-1.841-.528c-.542-.352-.97-.864-1.284-1.534-.315-.67-.472-1.485-.472-2.443 0-.97.159-1.788.477-2.455.322-.67.756-1.176 1.302-1.517a3.34 3.34 0 0 1 1.823-.517c.512 0 .932.087 1.262.261.329.17.591.377.784.62.193.238.343.464.449.676h.085v-4.352h2.062V23.5h-2.022v-1.375h-.125c-.106.212-.26.438-.461.676-.2.235-.465.436-.795.602-.33.167-.744.25-1.244.25Zm.574-1.687c.435 0 .806-.117 1.113-.352.307-.239.54-.57.699-.995.159-.424.239-.918.239-1.483 0-.564-.08-1.055-.239-1.471-.155-.417-.386-.74-.693-.972-.303-.23-.676-.346-1.119-.346-.459 0-.841.119-1.148.357-.307.24-.538.569-.693.99-.156.42-.233.9-.233 1.442 0 .546.077 1.033.233 1.46.159.425.392.76.699 1.006.31.243.691.364 1.142.364Zm9.529-10.102h2.381l2.847 5.147h.113l2.847-5.147h2.381l-4.233 7.295V23.5h-2.103v-4.34l-4.233-7.296Zm14.152 11.806c-.852 0-1.591-.187-2.216-.562a3.82 3.82 0 0 1-1.454-1.574c-.341-.674-.511-1.462-.511-2.363 0-.902.17-1.692.511-2.37a3.813 3.813 0 0 1 1.454-1.58c.625-.374 1.364-.562 2.216-.562.853 0 1.591.188 2.216.563a3.775 3.775 0 0 1 1.449 1.58c.345.677.517 1.467.517 2.369 0 .901-.172 1.689-.517 2.363a3.783 3.783 0 0 1-1.449 1.574c-.625.375-1.363.563-2.216.563Zm.012-1.647c.462 0 .848-.127 1.159-.381.31-.258.542-.602.693-1.034.155-.432.233-.913.233-1.443 0-.534-.078-1.017-.233-1.45a2.293 2.293 0 0 0-.693-1.039c-.311-.257-.697-.386-1.159-.386-.474 0-.868.129-1.182.386-.311.258-.544.604-.699 1.04a4.369 4.369 0 0 0-.227 1.449c0 .53.076 1.011.227 1.443.155.432.388.776.699 1.034.314.254.708.38 1.182.38Zm11.478-2.194v-5.056h2.057V23.5h-1.994v-1.551h-.091a2.624 2.624 0 0 1-.972 1.199c-.447.31-.998.466-1.653.466-.572 0-1.078-.127-1.517-.381a2.643 2.643 0 0 1-1.023-1.12c-.246-.492-.369-1.087-.369-1.784v-5.556h2.057v5.238c0 .553.151.993.454 1.319.303.325.701.488 1.193.488.304 0 .597-.074.881-.221.284-.148.517-.368.699-.66.186-.295.278-.664.278-1.108Zm4.172 3.671v-8.727h1.995v1.454h.091c.159-.504.431-.892.818-1.165.39-.276.835-.414 1.335-.414.114 0 .24.005.381.017.144.007.263.02.358.04v1.892a2.193 2.193 0 0 0-.415-.08 3.828 3.828 0 0 0-.54-.04c-.375 0-.712.082-1.011.245a1.78 1.78 0 0 0-.699.664 1.868 1.868 0 0 0-.256.983V23.5h-2.057Zm10.404 0V11.864h4.363c.894 0 1.644.166 2.25.5.61.333 1.07.791 1.381 1.375.314.58.472 1.238.472 1.977 0 .746-.158 1.409-.472 1.989a3.365 3.365 0 0 1-1.392 1.369c-.614.33-1.369.494-2.267.494h-2.892v-1.733h2.608c.523 0 .951-.09 1.284-.273.333-.181.58-.431.739-.75a2.38 2.38 0 0 0 .244-1.096 2.35 2.35 0 0 0-.244-1.091 1.662 1.662 0 0 0-.745-.733c-.333-.178-.763-.267-1.29-.267h-1.931V23.5h-2.108Zm10.206 0v-8.727h1.994v1.454h.091c.159-.504.432-.892.818-1.165.39-.276.835-.414 1.335-.414.114 0 .241.005.381.017.144.007.263.02.358.04v1.892a2.16 2.16 0 0 0-.415-.08 3.807 3.807 0 0 0-.54-.04c-.375 0-.712.082-1.011.245-.295.159-.528.38-.699.664a1.88 1.88 0 0 0-.255.983V23.5h-2.057Zm9.791.17c-.852 0-1.591-.187-2.216-.562a3.823 3.823 0 0 1-1.455-1.574c-.34-.674-.511-1.462-.511-2.363 0-.902.171-1.692.511-2.37a3.815 3.815 0 0 1 1.455-1.58c.625-.374 1.364-.562 2.216-.562.852 0 1.591.188 2.216.563a3.775 3.775 0 0 1 1.449 1.58c.344.677.517 1.467.517 2.369 0 .901-.173 1.689-.517 2.363a3.783 3.783 0 0 1-1.449 1.574c-.625.375-1.364.563-2.216.563Zm.011-1.647c.462 0 .849-.127 1.159-.381.311-.258.542-.602.694-1.034a4.25 4.25 0 0 0 .232-1.443c0-.534-.077-1.017-.232-1.45-.152-.435-.383-.781-.694-1.039-.31-.257-.697-.386-1.159-.386-.473 0-.867.129-1.182.386-.31.258-.543.604-.698 1.04a4.343 4.343 0 0 0-.228 1.449c0 .53.076 1.011.228 1.443.155.432.388.776.698 1.034.315.254.709.38 1.182.38Zm10.337-7.25v1.59h-5.159v-1.59h5.159Zm-3.869 8.727v-9.551c0-.587.121-1.076.363-1.466a2.3 2.3 0 0 1 .989-.875c.413-.193.871-.29 1.375-.29.356 0 .672.029.949.085.276.057.481.108.613.154l-.409 1.59a3.581 3.581 0 0 0-.329-.079 2 2 0 0 0-.443-.045c-.383 0-.654.093-.813.278-.155.182-.233.443-.233.784V23.5h-2.062Zm9.015.17c-.875 0-1.63-.181-2.267-.545a3.698 3.698 0 0 1-1.46-1.557c-.341-.674-.511-1.468-.511-2.38 0-.898.17-1.686.511-2.364a3.87 3.87 0 0 1 1.443-1.591c.618-.383 1.343-.574 2.176-.574a4.41 4.41 0 0 1 1.523.261c.481.17.905.436 1.273.796.371.36.663.818.875 1.375.212.553.318 1.212.318 1.977v.63h-7.154v-1.386h5.182a2.21 2.21 0 0 0-.255-1.05 1.863 1.863 0 0 0-.699-.734 1.966 1.966 0 0 0-1.034-.267c-.421 0-.79.103-1.108.307a2.11 2.11 0 0 0-.745.796 2.295 2.295 0 0 0-.267 1.073v1.21c0 .508.093.944.279 1.308.185.36.445.636.778.83.333.189.724.283 1.171.283.299 0 .57-.042.812-.125.243-.087.453-.214.631-.38.178-.167.312-.374.403-.62l1.921.216c-.122.508-.353.95-.694 1.33a3.373 3.373 0 0 1-1.295.875c-.526.204-1.129.306-1.807.306Zm12.519-6.59-1.875.204a1.501 1.501 0 0 0-.279-.534 1.387 1.387 0 0 0-.522-.403 1.906 1.906 0 0 0-.807-.154c-.428 0-.788.093-1.08.279-.288.185-.43.426-.426.721a.755.755 0 0 0 .278.62c.194.159.512.29.955.392l1.489.318c.825.178 1.439.46 1.841.846.405.387.609.892.613 1.517a2.376 2.376 0 0 1-.483 1.455c-.314.417-.752.742-1.312.977-.561.235-1.205.352-1.932.352-1.068 0-1.928-.223-2.58-.67-.651-.45-1.039-1.078-1.164-1.88l2.005-.194c.091.394.284.691.58.892.295.2.68.301 1.153.301.489 0 .881-.1 1.176-.3.3-.202.449-.45.449-.745a.773.773 0 0 0-.29-.62c-.189-.162-.484-.287-.886-.375l-1.489-.312c-.837-.174-1.456-.468-1.858-.88-.401-.417-.6-.944-.596-1.58-.004-.538.142-1.004.437-1.398.3-.398.714-.705 1.245-.92.534-.22 1.149-.33 1.846-.33 1.023 0 1.828.218 2.415.653.591.436.957 1.025 1.097 1.768Zm8.781 0-1.875.204a1.515 1.515 0 0 0-.278-.534 1.39 1.39 0 0 0-.523-.403 1.906 1.906 0 0 0-.807-.154c-.428 0-.788.093-1.08.279-.287.185-.43.426-.426.721a.753.753 0 0 0 .279.62c.193.159.511.29.954.392l1.489.318c.826.178 1.439.46 1.841.846.405.387.61.892.613 1.517a2.363 2.363 0 0 1-.483 1.455c-.314.417-.751.742-1.312.977s-1.205.352-1.932.352c-1.068 0-1.928-.223-2.579-.67-.652-.45-1.04-1.078-1.165-1.88l2.006-.194c.09.394.284.691.579.892.296.2.68.301 1.153.301.489 0 .881-.1 1.177-.3.299-.202.448-.45.448-.745a.775.775 0 0 0-.289-.62c-.19-.162-.485-.287-.887-.375l-1.488-.312c-.837-.174-1.457-.468-1.858-.88-.402-.417-.601-.944-.597-1.58-.004-.538.142-1.004.438-1.398.299-.398.714-.705 1.244-.92.534-.22 1.15-.33 1.847-.33 1.022 0 1.827.218 2.414.653.591.436.957 1.025 1.097 1.768Zm1.883 6.42v-8.727h2.057V23.5h-2.057Zm1.035-9.966c-.326 0-.607-.108-.841-.324a1.044 1.044 0 0 1-.353-.79c0-.31.118-.573.353-.79a1.19 1.19 0 0 1 .841-.329c.329 0 .609.11.84.33.235.216.353.479.353.79 0 .306-.118.57-.353.79a1.186 1.186 0 0 1-.84.323Zm6.944 10.136c-.852 0-1.591-.187-2.216-.562a3.814 3.814 0 0 1-1.454-1.574c-.341-.674-.512-1.462-.512-2.363 0-.902.171-1.692.512-2.37a3.806 3.806 0 0 1 1.454-1.58c.625-.374 1.364-.562 2.216-.562.852 0 1.591.188 2.216.563a3.775 3.775 0 0 1 1.449 1.58c.345.677.517 1.467.517 2.369 0 .901-.172 1.689-.517 2.363a3.783 3.783 0 0 1-1.449 1.574c-.625.375-1.364.563-2.216.563Zm.012-1.647c.462 0 .848-.127 1.159-.381.31-.258.541-.602.693-1.034.155-.432.233-.913.233-1.443 0-.534-.078-1.017-.233-1.45-.152-.435-.383-.781-.693-1.039-.311-.257-.697-.386-1.159-.386-.474 0-.868.129-1.182.386-.311.258-.544.604-.699 1.04a4.343 4.343 0 0 0-.227 1.449c0 .53.075 1.011.227 1.443.155.432.388.776.699 1.034.314.254.708.38 1.182.38Zm7.973-3.637V23.5h-2.057v-8.727h1.966v1.483h.102c.201-.489.521-.877.96-1.165.443-.288.991-.432 1.642-.432.602 0 1.127.129 1.574.386a2.6 2.6 0 0 1 1.045 1.12c.25.488.374 1.081.37 1.778V23.5h-2.057v-5.239c0-.583-.152-1.04-.455-1.369-.299-.33-.714-.494-1.244-.494-.36 0-.68.08-.96.238a1.662 1.662 0 0 0-.654.677c-.155.295-.232.653-.232 1.073Zm10.204 5.29a3.639 3.639 0 0 1-1.494-.295 2.44 2.44 0 0 1-1.046-.887c-.254-.39-.38-.87-.38-1.443 0-.492.091-.9.272-1.221.182-.322.43-.58.745-.773a3.746 3.746 0 0 1 1.062-.438 8.657 8.657 0 0 1 1.233-.221c.511-.053.926-.1 1.244-.142.319-.046.55-.114.694-.205.147-.095.221-.24.221-.437v-.035c0-.428-.127-.759-.38-.994-.254-.235-.62-.352-1.097-.352-.504 0-.903.11-1.199.33-.292.22-.489.479-.591.778l-1.92-.273c.151-.53.401-.973.75-1.33.348-.36.774-.628 1.278-.806a4.894 4.894 0 0 1 1.671-.273c.42 0 .839.05 1.255.148.417.098.798.261 1.142.489.345.223.621.528.83.914.212.387.318.87.318 1.45v5.84h-1.977v-1.199h-.068a2.52 2.52 0 0 1-.529.682 2.543 2.543 0 0 1-.846.506 3.417 3.417 0 0 1-1.188.187Zm.534-1.511c.413 0 .771-.082 1.074-.244a1.81 1.81 0 0 0 .699-.66c.167-.272.25-.57.25-.892v-1.028a.97.97 0 0 1-.33.148 4.64 4.64 0 0 1-.511.119 15.88 15.88 0 0 1-.563.09l-.482.069c-.307.042-.582.11-.824.205a1.365 1.365 0 0 0-.574.397c-.14.167-.21.383-.21.648 0 .379.138.665.414.858.277.193.629.29 1.057.29Zm8.199-10.301V23.5h-2.057V11.864h2.057Zm15.737 0V23.5h-1.875l-5.483-7.926h-.096V23.5h-2.108V11.864h1.886l5.477 7.931h.103v-7.931h2.096Zm6.07 11.806c-.875 0-1.631-.181-2.267-.545a3.685 3.685 0 0 1-1.46-1.557c-.341-.674-.512-1.468-.512-2.38 0-.898.171-1.686.512-2.364a3.857 3.857 0 0 1 1.443-1.591c.617-.383 1.343-.574 2.176-.574.538 0 1.045.087 1.523.261.481.17.905.436 1.272.796.372.36.663.818.875 1.375.212.553.319 1.212.319 1.977v.63h-7.154v-1.386h5.182a2.211 2.211 0 0 0-.256-1.05 1.85 1.85 0 0 0-.699-.734 1.963 1.963 0 0 0-1.034-.267c-.42 0-.789.103-1.108.307-.318.2-.566.466-.744.796a2.295 2.295 0 0 0-.267 1.073v1.21c0 .508.093.944.278 1.308.186.36.445.636.779.83.333.189.723.283 1.17.283.299 0 .57-.042.813-.125a1.81 1.81 0 0 0 .63-.38c.178-.167.313-.374.404-.62l1.92.216a2.99 2.99 0 0 1-.693 1.33 3.38 3.38 0 0 1-1.295.875c-.527.204-1.129.306-1.807.306Zm9.979-8.897v1.59h-5.018v-1.59h5.018Zm-3.779-2.091h2.057v8.193c0 .276.042.489.125.636a.675.675 0 0 0 .341.296c.14.053.295.08.466.08.129 0 .246-.01.352-.029.11-.019.193-.036.25-.051l.347 1.608c-.11.038-.267.08-.472.125a3.871 3.871 0 0 1-.739.08 3.355 3.355 0 0 1-1.392-.234 2.168 2.168 0 0 1-.983-.806c-.238-.364-.356-.819-.352-1.364v-8.534Zm7.3 10.818-2.466-8.727h2.097l1.534 6.136h.079l1.568-6.136h2.074l1.568 6.102h.086l1.511-6.102h2.102l-2.471 8.727h-2.142l-1.637-5.898h-.119l-1.636 5.898h-2.148Zm15.146.17c-.852 0-1.591-.187-2.216-.562a3.814 3.814 0 0 1-1.454-1.574c-.341-.674-.512-1.462-.512-2.363 0-.902.171-1.692.512-2.37a3.806 3.806 0 0 1 1.454-1.58c.625-.374 1.364-.562 2.216-.562.852 0 1.591.188 2.216.563a3.775 3.775 0 0 1 1.449 1.58c.345.677.517 1.467.517 2.369 0 .901-.172 1.689-.517 2.363a3.783 3.783 0 0 1-1.449 1.574c-.625.375-1.364.563-2.216.563Zm.011-1.647c.463 0 .849-.127 1.16-.381.31-.258.541-.602.693-1.034.155-.432.233-.913.233-1.443 0-.534-.078-1.017-.233-1.45-.152-.435-.383-.781-.693-1.039-.311-.257-.697-.386-1.16-.386-.473 0-.867.129-1.181.386-.311.258-.544.604-.699 1.04a4.343 4.343 0 0 0-.227 1.449c0 .53.075 1.011.227 1.443.155.432.388.776.699 1.034.314.254.708.38 1.181.38Zm5.917 1.477v-8.727h1.994v1.454h.091c.159-.504.432-.892.818-1.165.39-.276.835-.414 1.335-.414.114 0 .241.005.381.017.144.007.263.02.358.04v1.892a2.16 2.16 0 0 0-.415-.08 3.807 3.807 0 0 0-.54-.04c-.375 0-.712.082-1.011.245-.295.159-.528.38-.699.664a1.88 1.88 0 0 0-.255.983V23.5h-2.057Zm8.218-2.739-.005-2.483h.329l3.137-3.505h2.403l-3.858 4.295h-.426l-1.58 1.693Zm-1.875 2.739V11.864h2.057V23.5h-2.057Zm5.478 0-2.841-3.972 1.386-1.448 3.915 5.42h-2.46Z"/>
</svg>
