<svg xmlns="http://www.w3.org/2000/svg" width="424" height="35" fill="none" viewBox="0 0 424 35">
  <rect width="77" height="35" fill="#F8EFDA" rx="17.5"/>
  <path fill="#000" d="M22.214 16.563c-.053-.497-.277-.883-.67-1.16-.39-.276-.898-.414-1.523-.414-.44 0-.817.066-1.131.198-.314.133-.555.313-.722.54a1.313 1.313 0 0 0-.255.779c0 .242.055.452.164.63.114.178.267.33.46.455.194.121.408.223.643.307.235.083.471.153.71.21l1.09.273c.44.102.863.24 1.268.415a4.43 4.43 0 0 1 1.096.659c.326.265.584.585.773.96.19.375.284.814.284 1.318 0 .682-.174 1.282-.522 1.801-.349.515-.853.919-1.512 1.21-.655.288-1.449.432-2.38.432-.906 0-1.692-.14-2.358-.42-.663-.28-1.182-.69-1.557-1.228-.371-.537-.572-1.193-.602-1.965h2.073c.03.405.156.742.375 1.01.22.27.506.47.858.603a3.39 3.39 0 0 0 1.194.199c.458 0 .86-.068 1.204-.204a1.95 1.95 0 0 0 .818-.58 1.4 1.4 0 0 0 .301-.875c-.003-.303-.092-.553-.267-.75-.174-.2-.418-.367-.733-.5a7.051 7.051 0 0 0-1.09-.364l-1.324-.34c-.959-.247-1.716-.62-2.273-1.12-.553-.504-.83-1.172-.83-2.006 0-.685.186-1.286.557-1.8.375-.516.885-.915 1.529-1.2.643-.287 1.373-.431 2.187-.431.826 0 1.55.143 2.17.431.625.285 1.116.68 1.472 1.188a3.03 3.03 0 0 1 .551 1.739h-2.028Zm8.334-.29v1.59H25.53v-1.59h5.017Zm-3.779-2.091h2.057v8.193c0 .276.042.489.125.636.087.144.2.243.34.296.141.053.296.08.467.08.129 0 .246-.01.352-.029.11-.019.193-.036.25-.051l.347 1.608c-.11.038-.267.08-.472.125-.2.045-.447.072-.739.08a3.354 3.354 0 0 1-1.392-.234 2.166 2.166 0 0 1-.983-.806c-.238-.364-.356-.819-.352-1.364v-8.534Zm9.269 10.989c-.875 0-1.631-.182-2.267-.546a3.694 3.694 0 0 1-1.46-1.557c-.341-.674-.512-1.468-.512-2.38 0-.898.17-1.686.511-2.364a3.866 3.866 0 0 1 1.444-1.591c.617-.383 1.342-.574 2.176-.574.538 0 1.045.087 1.522.262.482.17.906.435 1.273.795.371.36.663.818.875 1.375.212.553.318 1.212.318 1.977v.63h-7.153v-1.386h5.182a2.213 2.213 0 0 0-.256-1.05 1.86 1.86 0 0 0-.699-.734 1.965 1.965 0 0 0-1.034-.267c-.42 0-.79.103-1.108.307-.318.2-.566.466-.744.796a2.29 2.29 0 0 0-.267 1.073v1.21c0 .508.093.944.278 1.308.186.36.445.636.779.83.333.189.723.283 1.17.283.3 0 .57-.042.813-.125a1.81 1.81 0 0 0 .63-.38c.178-.167.313-.374.404-.62l1.92.216c-.121.508-.352.95-.693 1.33a3.379 3.379 0 0 1-1.296.875c-.526.204-1.128.306-1.806.306Zm5.62 3.102v-12h2.023v1.443h.12c.105-.212.255-.438.448-.676a2.38 2.38 0 0 1 .784-.62c.33-.174.75-.26 1.262-.26.674 0 1.282.171 1.824.516.545.341.977.847 1.295 1.517.322.667.483 1.485.483 2.455 0 .958-.157 1.773-.472 2.443-.314.67-.742 1.182-1.284 1.534a3.302 3.302 0 0 1-1.84.528c-.5 0-.915-.083-1.245-.25a2.53 2.53 0 0 1-.795-.602 3.9 3.9 0 0 1-.46-.676h-.086v4.648h-2.057Zm2.017-7.637c0 .565.08 1.06.24 1.483.162.425.395.756.698.995.307.235.678.352 1.114.352.454 0 .835-.121 1.142-.364.306-.246.538-.581.693-1.005.159-.428.238-.915.238-1.46 0-.542-.077-1.023-.232-1.444-.156-.42-.387-.75-.694-.989-.306-.238-.69-.357-1.147-.357-.44 0-.813.115-1.12.346-.307.231-.54.555-.699.972-.155.416-.233.907-.233 1.471Zm16.662-7.272V25H58.23v-9.585h-.068l-2.721 1.738v-1.931l2.892-1.858h2.005ZM92.148 23V11.364h4.454c.841 0 1.54.132 2.097.397.56.262.979.62 1.255 1.074.281.455.421.97.421 1.546 0 .473-.091.878-.273 1.216a2.29 2.29 0 0 1-.733.812c-.306.208-.65.358-1.028.449v.114c.413.022.809.15 1.187.38.383.227.695.55.938.966.242.417.364.92.364 1.511a3.07 3.07 0 0 1-.438 1.625c-.292.478-.731.855-1.318 1.131-.587.277-1.326.415-2.216.415h-4.71Zm2.108-1.761h2.267c.765 0 1.316-.146 1.653-.438.341-.295.511-.674.511-1.136a1.74 1.74 0 0 0-.983-1.591c-.314-.163-.689-.245-1.124-.245h-2.324v3.41Zm0-4.927h2.085c.364 0 .691-.066.983-.198.291-.137.52-.328.687-.574.17-.25.256-.546.256-.887 0-.45-.159-.822-.477-1.113-.315-.292-.782-.438-1.404-.438h-2.13v3.21Zm13.879 3.017v-5.056h2.057V23h-1.995v-1.551h-.09a2.624 2.624 0 0 1-.972 1.199c-.447.31-.998.466-1.653.466-.572 0-1.078-.127-1.518-.381a2.647 2.647 0 0 1-1.022-1.12c-.246-.492-.37-1.087-.37-1.784v-5.556h2.057v5.238c0 .553.152.993.455 1.319.303.325.701.488 1.193.488.303 0 .597-.074.881-.221.284-.148.517-.368.699-.66.185-.295.278-.664.278-1.108ZM112.307 23v-8.727h2.057V23h-2.057Zm1.034-9.966a1.2 1.2 0 0 1-.841-.324 1.043 1.043 0 0 1-.352-.79c0-.31.117-.573.352-.79.235-.219.515-.329.841-.329.329 0 .61.11.841.33.235.216.352.479.352.79 0 .306-.117.57-.352.79a1.188 1.188 0 0 1-.841.323Zm5.195-1.67V23h-2.057V11.364h2.057Zm5.353 11.79a3.304 3.304 0 0 1-1.841-.529c-.541-.352-.969-.864-1.284-1.534-.314-.67-.471-1.485-.471-2.443 0-.97.159-1.788.477-2.455.322-.67.756-1.176 1.301-1.517a3.342 3.342 0 0 1 1.824-.517c.511 0 .932.087 1.261.261.33.17.591.377.784.62.194.238.343.464.449.676h.085v-4.352h2.063V23h-2.023v-1.375h-.125a3.498 3.498 0 0 1-.46.676 2.538 2.538 0 0 1-.795.602c-.33.167-.745.25-1.245.25Zm.574-1.688c.436 0 .807-.117 1.114-.352.307-.239.539-.57.699-.995.159-.424.238-.918.238-1.483 0-.564-.079-1.055-.238-1.471-.156-.417-.387-.74-.694-.972-.303-.23-.676-.346-1.119-.346-.458 0-.841.119-1.148.357-.306.24-.538.569-.693.99-.155.42-.233.9-.233 1.442 0 .546.078 1.033.233 1.46.159.425.392.76.699 1.006.311.243.691.364 1.142.364Zm12.746 1.71a3.647 3.647 0 0 1-1.495-.295 2.442 2.442 0 0 1-1.045-.887c-.254-.39-.381-.87-.381-1.443 0-.492.091-.9.273-1.221.182-.322.43-.58.744-.773a3.764 3.764 0 0 1 1.063-.438 8.657 8.657 0 0 1 1.233-.221c.511-.053.926-.1 1.244-.142.318-.046.549-.114.693-.205.148-.095.222-.24.222-.437v-.035c0-.428-.127-.759-.381-.994s-.619-.352-1.096-.352c-.504 0-.904.11-1.199.33-.292.22-.489.479-.591.778l-1.921-.273c.152-.53.402-.973.75-1.33.349-.36.775-.628 1.279-.806a4.888 4.888 0 0 1 1.67-.273c.421 0 .839.05 1.256.148.417.098.797.261 1.142.489.345.223.621.528.83.914.212.387.318.87.318 1.45V23h-1.978v-1.199h-.068c-.125.243-.301.47-.528.682a2.548 2.548 0 0 1-.847.506 3.411 3.411 0 0 1-1.187.187Zm.534-1.511c.413 0 .771-.082 1.074-.244a1.81 1.81 0 0 0 .699-.66c.166-.272.25-.57.25-.892v-1.028a.979.979 0 0 1-.33.148 4.64 4.64 0 0 1-.511.119c-.19.034-.377.064-.563.09l-.483.069a3.6 3.6 0 0 0-.824.205 1.368 1.368 0 0 0-.573.397c-.141.167-.211.383-.211.648 0 .379.139.665.415.858.277.193.629.29 1.057.29ZM147.945 23V11.364h4.363c.894 0 1.644.166 2.25.5.61.333 1.07.791 1.381 1.375.314.58.472 1.238.472 1.977 0 .746-.158 1.409-.472 1.989a3.365 3.365 0 0 1-1.392 1.369c-.614.33-1.369.494-2.267.494h-2.892v-1.733h2.608c.522 0 .95-.09 1.284-.273a1.72 1.72 0 0 0 .738-.75c.163-.318.245-.683.245-1.096 0-.413-.082-.777-.245-1.091a1.66 1.66 0 0 0-.744-.733c-.333-.178-.763-.267-1.29-.267h-1.931V23h-2.108Zm10.206 0v-8.727h1.994v1.454h.091c.159-.504.432-.892.818-1.165.39-.276.835-.414 1.335-.414.114 0 .241.005.381.017.144.007.263.02.358.04v1.892a2.176 2.176 0 0 0-.415-.08 3.818 3.818 0 0 0-.54-.04c-.375 0-.712.082-1.011.245-.296.159-.528.38-.699.664a1.88 1.88 0 0 0-.256.983V23h-2.056Zm9.791.17c-.853 0-1.591-.187-2.216-.562a3.823 3.823 0 0 1-1.455-1.574c-.341-.674-.511-1.462-.511-2.363 0-.902.17-1.692.511-2.37a3.815 3.815 0 0 1 1.455-1.58c.625-.374 1.363-.562 2.216-.562.852 0 1.591.188 2.216.563a3.775 3.775 0 0 1 1.449 1.58c.344.677.517 1.467.517 2.369 0 .901-.173 1.689-.517 2.363a3.783 3.783 0 0 1-1.449 1.574c-.625.375-1.364.563-2.216.563Zm.011-1.647c.462 0 .849-.127 1.159-.381.311-.258.542-.602.693-1.034.156-.432.233-.913.233-1.443 0-.534-.077-1.017-.233-1.45-.151-.435-.382-.781-.693-1.039-.31-.257-.697-.386-1.159-.386-.473 0-.867.129-1.182.386-.31.258-.543.604-.699 1.04a4.369 4.369 0 0 0-.227 1.449c0 .53.076 1.011.227 1.443.156.432.389.776.699 1.034.315.254.709.38 1.182.38Zm10.337-7.25v1.59h-5.159v-1.59h5.159ZM174.42 23v-9.551c0-.587.122-1.076.364-1.466a2.3 2.3 0 0 1 .989-.875c.413-.193.871-.29 1.375-.29.356 0 .672.029.949.085.276.057.481.108.613.154l-.409 1.59a3.581 3.581 0 0 0-.329-.079 2.002 2.002 0 0 0-.444-.045c-.382 0-.653.093-.812.278-.155.182-.233.443-.233.784V23h-2.063Zm9.016.17c-.875 0-1.631-.181-2.267-.545a3.692 3.692 0 0 1-1.46-1.557c-.341-.674-.512-1.468-.512-2.38 0-.898.171-1.686.512-2.364a3.87 3.87 0 0 1 1.443-1.591c.617-.383 1.343-.574 2.176-.574a4.41 4.41 0 0 1 1.523.261c.481.17.905.436 1.273.796.371.36.662.818.875 1.375.212.553.318 1.212.318 1.977v.63h-7.154v-1.386h5.182a2.211 2.211 0 0 0-.256-1.05 1.854 1.854 0 0 0-.698-.734 1.968 1.968 0 0 0-1.034-.267c-.421 0-.79.103-1.108.307-.319.2-.567.466-.745.796a2.295 2.295 0 0 0-.267 1.073v1.21c0 .508.093.944.279 1.308.185.36.445.636.778.83.333.189.724.283 1.17.283.3 0 .571-.042.813-.125.242-.087.453-.214.631-.38.178-.167.312-.374.403-.62l1.921.216c-.122.508-.353.95-.694 1.33a3.38 3.38 0 0 1-1.295.875c-.527.204-1.129.306-1.807.306Zm12.519-6.59-1.875.204a1.501 1.501 0 0 0-.279-.534 1.383 1.383 0 0 0-.523-.403c-.219-.103-.488-.154-.806-.154-.428 0-.788.093-1.08.279-.288.185-.43.426-.426.721a.755.755 0 0 0 .278.62c.194.159.512.29.955.392l1.489.318c.825.178 1.439.46 1.84.846.406.387.61.892.614 1.517a2.376 2.376 0 0 1-.483 1.455c-.314.417-.752.742-1.312.977-.561.235-1.205.352-1.932.352-1.068 0-1.928-.223-2.58-.67-.651-.45-1.04-1.078-1.165-1.88l2.006-.194c.091.394.284.691.58.892.295.2.68.301 1.153.301.489 0 .881-.1 1.176-.3.299-.202.449-.45.449-.745a.773.773 0 0 0-.29-.62c-.189-.162-.485-.287-.886-.375l-1.489-.312c-.837-.174-1.456-.468-1.858-.88-.401-.417-.6-.944-.596-1.58-.004-.538.142-1.004.437-1.398.3-.398.714-.705 1.245-.92.534-.22 1.149-.33 1.846-.33 1.023 0 1.828.218 2.415.653.591.436.956 1.025 1.097 1.768Zm8.781 0-1.875.204a1.501 1.501 0 0 0-.279-.534 1.379 1.379 0 0 0-.522-.403 1.906 1.906 0 0 0-.807-.154c-.428 0-.788.093-1.08.279-.288.185-.43.426-.426.721a.753.753 0 0 0 .279.62c.193.159.511.29.954.392l1.489.318c.826.178 1.439.46 1.841.846.405.387.61.892.613 1.517a2.363 2.363 0 0 1-.483 1.455c-.314.417-.752.742-1.312.977-.561.235-1.205.352-1.932.352-1.068 0-1.928-.223-2.58-.67-.651-.45-1.039-1.078-1.164-1.88l2.005-.194c.091.394.284.691.58.892.295.2.68.301 1.153.301.489 0 .881-.1 1.176-.3.3-.202.449-.45.449-.745a.775.775 0 0 0-.289-.62c-.19-.162-.485-.287-.887-.375l-1.488-.312c-.838-.174-1.457-.468-1.858-.88-.402-.417-.601-.944-.597-1.58-.004-.538.142-1.004.438-1.398.299-.398.714-.705 1.244-.92.534-.22 1.149-.33 1.846-.33 1.023 0 1.828.218 2.415.653.591.436.957 1.025 1.097 1.768Zm1.883 6.42v-8.727h2.057V23h-2.057Zm1.034-9.966c-.325 0-.606-.108-.841-.324a1.047 1.047 0 0 1-.352-.79c0-.31.118-.573.352-.79.235-.219.516-.329.841-.329.33 0 .61.11.841.33.235.216.353.479.353.79 0 .306-.118.57-.353.79a1.186 1.186 0 0 1-.841.323Zm6.945 10.136c-.852 0-1.591-.187-2.216-.562a3.814 3.814 0 0 1-1.454-1.574c-.341-.674-.512-1.462-.512-2.363 0-.902.171-1.692.512-2.37a3.806 3.806 0 0 1 1.454-1.58c.625-.374 1.364-.562 2.216-.562.852 0 1.591.188 2.216.563a3.775 3.775 0 0 1 1.449 1.58c.344.677.517 1.467.517 2.369 0 .901-.173 1.689-.517 2.363a3.783 3.783 0 0 1-1.449 1.574c-.625.375-1.364.563-2.216.563Zm.011-1.647c.462 0 .849-.127 1.159-.381.311-.258.542-.602.694-1.034.155-.432.233-.913.233-1.443 0-.534-.078-1.017-.233-1.45-.152-.435-.383-.781-.694-1.039-.31-.257-.697-.386-1.159-.386-.473 0-.867.129-1.181.386-.311.258-.544.604-.699 1.04a4.343 4.343 0 0 0-.228 1.449c0 .53.076 1.011.228 1.443.155.432.388.776.699 1.034.314.254.708.38 1.181.38Zm7.973-3.637V23h-2.056v-8.727h1.965v1.483h.103c.201-.489.521-.877.96-1.165.443-.288.991-.432 1.642-.432.602 0 1.127.129 1.574.386a2.6 2.6 0 0 1 1.045 1.12c.25.488.373 1.081.37 1.778V23h-2.057v-5.239c0-.583-.152-1.04-.455-1.369-.299-.33-.714-.494-1.244-.494-.36 0-.68.08-.96.238a1.655 1.655 0 0 0-.654.677c-.155.295-.233.653-.233 1.073Zm10.205 5.29a3.639 3.639 0 0 1-1.494-.295 2.44 2.44 0 0 1-1.046-.887c-.254-.39-.381-.87-.381-1.443 0-.492.091-.9.273-1.221.182-.322.43-.58.745-.773a3.746 3.746 0 0 1 1.062-.438 8.657 8.657 0 0 1 1.233-.221c.511-.053.926-.1 1.244-.142.318-.046.55-.114.693-.205.148-.095.222-.24.222-.437v-.035c0-.428-.127-.759-.381-.994-.253-.235-.619-.352-1.096-.352-.504 0-.904.11-1.199.33-.292.22-.489.479-.591.778l-1.92-.273c.151-.53.401-.973.75-1.33.348-.36.774-.628 1.278-.806a4.893 4.893 0 0 1 1.67-.273c.421 0 .839.05 1.256.148.417.098.797.261 1.142.489.345.223.621.528.83.914.212.387.318.87.318 1.45V23h-1.977v-1.199h-.069c-.125.243-.301.47-.528.682a2.538 2.538 0 0 1-.847.506 3.411 3.411 0 0 1-1.187.187Zm.534-1.511c.413 0 .771-.082 1.074-.244a1.81 1.81 0 0 0 .699-.66c.166-.272.25-.57.25-.892v-1.028a.97.97 0 0 1-.33.148 4.64 4.64 0 0 1-.511.119c-.19.034-.377.064-.563.09l-.483.069a3.59 3.59 0 0 0-.823.205 1.365 1.365 0 0 0-.574.397c-.14.167-.211.383-.211.648 0 .379.139.665.415.858.277.193.629.29 1.057.29Zm8.199-10.301V23h-2.057V11.364h2.057Zm9.561 11.806c-.795 0-1.479-.144-2.051-.431-.572-.288-1.013-.677-1.324-1.165a3.082 3.082 0 0 1-.46-1.665c0-.466.094-.879.284-1.238.193-.36.458-.694.795-1a10.94 10.94 0 0 1 1.182-.915l2.063-1.404c.303-.197.532-.405.687-.625.159-.22.239-.477.239-.773 0-.25-.106-.486-.318-.71-.209-.223-.497-.335-.864-.335a1.24 1.24 0 0 0-1.091.625 1.209 1.209 0 0 0-.153.591c0 .254.07.511.21.773.144.261.329.532.557.812l.738.892L257.036 23h-2.228l-4.534-5.193a74.357 74.357 0 0 1-.977-1.165 6.175 6.175 0 0 1-.767-1.193 3.124 3.124 0 0 1-.296-1.352c0-.55.127-1.04.381-1.472a2.72 2.72 0 0 1 1.063-1.028c.458-.25.994-.375 1.608-.375.613 0 1.14.12 1.579.363.439.243.778.565 1.017.966.239.402.358.84.358 1.313 0 .549-.136 1.041-.409 1.477-.273.432-.652.824-1.136 1.176l-2.353 1.722c-.386.28-.663.564-.829.852-.167.284-.25.526-.25.727 0 .307.077.585.233.835.155.25.373.451.653.603.284.147.616.221.994.221.417 0 .828-.093 1.233-.278a3.68 3.68 0 0 0 1.108-.807 3.91 3.91 0 0 0 .796-1.25 4.31 4.31 0 0 0 .295-1.625h1.767c0 .735-.081 1.375-.244 1.92-.163.542-.373 1-.631 1.375a3.99 3.99 0 0 1-.818.892 7.384 7.384 0 0 0-.261.194 8.502 8.502 0 0 1-.262.193 3.836 3.836 0 0 1-1.437.818 5.272 5.272 0 0 1-1.608.262Zm12.686-.17h-2.25l4.097-11.636h2.602L272.318 23h-2.25l-3.108-9.25h-.091L263.767 23Zm.074-4.563h6.136v1.694h-6.136v-1.694Zm13.73-4.164v1.59h-5.017v-1.59h5.017Zm-3.778-2.091h2.056v8.193c0 .276.042.489.125.636a.679.679 0 0 0 .341.296c.14.053.296.08.466.08.129 0 .246-.01.353-.029.109-.019.193-.036.25-.051l.346 1.608c-.11.038-.267.08-.471.125a3.871 3.871 0 0 1-.739.08 3.355 3.355 0 0 1-1.392-.234 2.163 2.163 0 0 1-.983-.806c-.239-.364-.356-.819-.352-1.364v-8.534Zm9.856 2.09v1.592h-5.017v-1.591h5.017Zm-3.778-2.09h2.057v8.193c0 .276.041.489.125.636.087.144.2.243.34.296.141.053.296.08.466.08.129 0 .247-.01.353-.029.109-.019.193-.036.25-.051l.346 1.608c-.11.038-.267.08-.471.125a3.871 3.871 0 0 1-.739.08 3.355 3.355 0 0 1-1.392-.234 2.163 2.163 0 0 1-.983-.806c-.239-.364-.356-.819-.352-1.364v-8.534ZM285.369 23v-8.727h1.995v1.454h.091c.159-.504.431-.892.818-1.165.39-.276.835-.414 1.335-.414.114 0 .24.005.381.017.144.007.263.02.358.04v1.892a2.193 2.193 0 0 0-.415-.08 3.828 3.828 0 0 0-.54-.04c-.375 0-.712.082-1.011.245a1.78 1.78 0 0 0-.699.664 1.868 1.868 0 0 0-.256.983V23h-2.057Zm8.699.176a3.639 3.639 0 0 1-1.494-.295 2.44 2.44 0 0 1-1.046-.887c-.253-.39-.38-.87-.38-1.443 0-.492.091-.9.272-1.221.182-.322.43-.58.745-.773a3.746 3.746 0 0 1 1.062-.438 8.657 8.657 0 0 1 1.233-.221c.512-.053.926-.1 1.245-.142.318-.046.549-.114.693-.205.147-.095.221-.24.221-.437v-.035c0-.428-.127-.759-.38-.994-.254-.235-.62-.352-1.097-.352-.504 0-.903.11-1.199.33-.291.22-.488.479-.591.778l-1.92-.273c.151-.53.401-.973.75-1.33.348-.36.774-.628 1.278-.806a4.894 4.894 0 0 1 1.671-.273c.42 0 .839.05 1.255.148.417.098.798.261 1.142.489.345.223.622.528.83.914.212.387.318.87.318 1.45V23h-1.977v-1.199h-.068a2.5 2.5 0 0 1-.529.682 2.533 2.533 0 0 1-.846.506c-.337.125-.733.187-1.188.187Zm.534-1.511c.413 0 .771-.082 1.074-.244a1.81 1.81 0 0 0 .699-.66c.167-.272.25-.57.25-.892v-1.028a.96.96 0 0 1-.33.148 4.64 4.64 0 0 1-.511.119 14.86 14.86 0 0 1-.562.09l-.483.069c-.307.042-.582.11-.824.205a1.365 1.365 0 0 0-.574.397c-.14.167-.21.383-.21.648 0 .379.138.665.414.858.277.193.629.29 1.057.29Zm9.949 1.506c-.871 0-1.619-.192-2.244-.574a3.834 3.834 0 0 1-1.438-1.586c-.333-.678-.5-1.458-.5-2.34 0-.887.171-1.67.512-2.347a3.817 3.817 0 0 1 1.443-1.591c.625-.383 1.364-.574 2.216-.574.708 0 1.335.13 1.88.392.55.258.987.623 1.313 1.097.326.47.511 1.019.557 1.648h-1.966a1.886 1.886 0 0 0-.568-1.052c-.296-.284-.692-.426-1.188-.426-.42 0-.79.114-1.108.341-.318.224-.566.546-.744.966-.174.42-.261.924-.261 1.511 0 .595.087 1.106.261 1.535.174.424.418.751.733.982a1.87 1.87 0 0 0 1.119.341c.303 0 .574-.056.813-.17.242-.118.445-.286.608-.506.163-.22.274-.487.335-.801h1.966a3.42 3.42 0 0 1-.546 1.642 3.224 3.224 0 0 1-1.284 1.114c-.541.265-1.178.398-1.909.398Zm9.786-8.898v1.59h-5.017v-1.59h5.017Zm-3.779-2.091h2.057v8.193c0 .276.042.489.125.636a.675.675 0 0 0 .341.296c.14.053.295.08.466.08.129 0 .246-.01.352-.029.11-.019.193-.036.25-.051l.347 1.608c-.11.038-.267.08-.472.125a3.87 3.87 0 0 1-.738.08 3.357 3.357 0 0 1-1.393-.234 2.165 2.165 0 0 1-.982-.806c-.239-.364-.357-.819-.353-1.364v-8.534ZM316.057 23v-8.727h2.057V23h-2.057Zm1.034-9.966a1.2 1.2 0 0 1-.841-.324 1.043 1.043 0 0 1-.352-.79c0-.31.117-.573.352-.79.235-.219.515-.329.841-.329.329 0 .61.11.841.33.235.216.352.479.352.79 0 .306-.117.57-.352.79a1.188 1.188 0 0 1-.841.323Zm5.195 4.852V23h-2.057v-8.727h1.966v1.483h.102c.201-.489.521-.877.96-1.165.443-.288.991-.432 1.642-.432.602 0 1.127.129 1.574.386a2.6 2.6 0 0 1 1.045 1.12c.25.488.374 1.081.37 1.778V23h-2.057v-5.239c0-.583-.152-1.04-.455-1.369-.299-.33-.714-.494-1.244-.494-.36 0-.68.08-.96.238a1.662 1.662 0 0 0-.654.677c-.155.295-.232.653-.232 1.073Zm11.488 8.569c-.738 0-1.373-.1-1.903-.302-.531-.197-.957-.462-1.279-.795a2.753 2.753 0 0 1-.67-1.108l1.852-.449c.083.17.205.34.364.506.159.17.373.31.642.42.273.114.615.17 1.028.17.584 0 1.067-.141 1.449-.425.383-.28.574-.743.574-1.387v-1.653h-.102c-.106.212-.262.43-.466.653a2.388 2.388 0 0 1-.801.563c-.33.151-.745.227-1.245.227a3.59 3.59 0 0 1-1.824-.472c-.541-.318-.973-.791-1.295-1.42-.318-.633-.477-1.424-.477-2.375 0-.958.159-1.767.477-2.426.322-.663.756-1.165 1.301-1.506a3.347 3.347 0 0 1 1.824-.517c.511 0 .932.087 1.261.261.334.17.599.377.796.62.197.238.346.464.449.676h.113v-1.443h2.029v8.869c0 .746-.178 1.364-.534 1.852-.356.489-.843.855-1.461 1.097-.617.242-1.318.363-2.102.363Zm.017-5.194c.436 0 .807-.106 1.114-.318.307-.212.54-.517.699-.915.159-.397.238-.875.238-1.431 0-.55-.079-1.03-.238-1.444-.156-.412-.387-.732-.693-.96-.304-.23-.677-.346-1.12-.346-.458 0-.841.119-1.148.357-.306.24-.537.567-.693.983a3.99 3.99 0 0 0-.233 1.41c0 .534.078 1.002.233 1.403.159.398.392.708.699.932.311.22.691.33 1.142.33ZM344.038 23V11.364h4.364c.894 0 1.644.166 2.25.5.61.333 1.07.791 1.381 1.375.314.58.471 1.238.471 1.977 0 .746-.157 1.409-.471 1.989a3.377 3.377 0 0 1-1.392 1.369c-.614.33-1.37.494-2.267.494h-2.892v-1.733h2.607c.523 0 .951-.09 1.285-.273a1.72 1.72 0 0 0 .738-.75c.163-.318.245-.683.245-1.096 0-.413-.082-.777-.245-1.091a1.66 1.66 0 0 0-.744-.733c-.333-.178-.763-.267-1.29-.267h-1.932V23h-2.108Zm10.206 0v-8.727h1.995v1.454h.091c.159-.504.431-.892.818-1.165.39-.276.835-.414 1.335-.414.114 0 .24.005.381.017.144.007.263.02.358.04v1.892a2.193 2.193 0 0 0-.415-.08 3.828 3.828 0 0 0-.54-.04c-.375 0-.712.082-1.011.245a1.78 1.78 0 0 0-.699.664 1.868 1.868 0 0 0-.256.983V23h-2.057Zm9.792.17c-.853 0-1.591-.187-2.216-.562a3.823 3.823 0 0 1-1.455-1.574c-.341-.674-.511-1.462-.511-2.363 0-.902.17-1.692.511-2.37a3.815 3.815 0 0 1 1.455-1.58c.625-.374 1.363-.562 2.216-.562.852 0 1.59.188 2.215.563a3.775 3.775 0 0 1 1.449 1.58c.345.677.517 1.467.517 2.369 0 .901-.172 1.689-.517 2.363a3.783 3.783 0 0 1-1.449 1.574c-.625.375-1.363.563-2.215.563Zm.011-1.647c.462 0 .848-.127 1.159-.381.311-.258.542-.602.693-1.034.155-.432.233-.913.233-1.443 0-.534-.078-1.017-.233-1.45-.151-.435-.382-.781-.693-1.039-.311-.257-.697-.386-1.159-.386-.474 0-.868.129-1.182.386-.311.258-.544.604-.699 1.04a4.369 4.369 0 0 0-.227 1.449c0 .53.076 1.011.227 1.443.155.432.388.776.699 1.034.314.254.708.38 1.182.38Zm10.337-7.25v1.59h-5.16v-1.59h5.16ZM370.514 23v-9.551c0-.587.121-1.076.364-1.466.246-.39.576-.682.988-.875a3.21 3.21 0 0 1 1.375-.29c.357 0 .673.029.949.085.277.057.481.108.614.154l-.409 1.59a3.532 3.532 0 0 0-.33-.079 1.987 1.987 0 0 0-.443-.045c-.382 0-.653.093-.812.278-.156.182-.233.443-.233.784V23h-2.063Zm5.48 0v-8.727h2.057V23h-2.057Zm1.034-9.966c-.325 0-.606-.108-.84-.324a1.044 1.044 0 0 1-.353-.79c0-.31.118-.573.353-.79.234-.219.515-.329.84-.329.33 0 .61.11.841.33.235.216.353.479.353.79 0 .306-.118.57-.353.79a1.186 1.186 0 0 1-.841.323Zm5.195-1.67V23h-2.057V11.364h2.057Zm5.979 11.806c-.875 0-1.631-.181-2.267-.545a3.694 3.694 0 0 1-1.461-1.557c-.34-.674-.511-1.468-.511-2.38 0-.898.171-1.686.511-2.364a3.866 3.866 0 0 1 1.444-1.591c.617-.383 1.342-.574 2.176-.574.538 0 1.045.087 1.522.261.482.17.906.436 1.273.796.371.36.663.818.875 1.375.212.553.318 1.212.318 1.977v.63h-7.153v-1.386h5.182a2.211 2.211 0 0 0-.256-1.05 1.863 1.863 0 0 0-.699-.734 1.963 1.963 0 0 0-1.034-.267c-.42 0-.79.103-1.108.307-.318.2-.566.466-.744.796a2.295 2.295 0 0 0-.267 1.073v1.21c0 .508.093.944.278 1.308.186.36.445.636.779.83.333.189.723.283 1.17.283.299 0 .57-.042.813-.125a1.81 1.81 0 0 0 .63-.38c.178-.167.313-.374.404-.62l1.92.216a2.99 2.99 0 0 1-.693 1.33 3.38 3.38 0 0 1-1.295.875c-.527.204-1.129.306-1.807.306Z"/>
</svg>
