<svg xmlns="http://www.w3.org/2000/svg" width="701" height="264" fill="none" viewBox="0 0 701 264">
  <rect width="220" height="60" x=".5" y="97" fill="#F4CE71" rx="30"/>
  <path fill="#000" d="M57.39 130.22c-.253.92-.66 1.68-1.22 2.28a5.146 5.146 0 0 1-2 1.3c-.773.267-1.626.4-2.56.4-1.333 0-2.486-.267-3.46-.8a5.505 5.505 0 0 1-2.24-2.34c-.52-1.013-.78-2.233-.78-3.66s.26-2.647.78-3.66a5.38 5.38 0 0 1 2.24-2.32c.974-.547 2.12-.82 3.44-.82.92 0 1.767.133 2.54.4a4.864 4.864 0 0 1 1.96 1.18c.534.533.914 1.22 1.14 2.06l-3.02 1.22c-.186-.827-.493-1.393-.92-1.7-.413-.307-.94-.46-1.58-.46-.626 0-1.173.153-1.64.46-.453.307-.806.767-1.06 1.38-.24.6-.36 1.353-.36 2.26 0 .893.114 1.647.34 2.26.227.613.567 1.073 1.02 1.38.467.307 1.04.46 1.72.46.64 0 1.18-.173 1.62-.52.454-.36.76-.907.92-1.64l3.12.88Zm6.434-6.42c1.053 0 1.973.207 2.76.62.8.4 1.42.993 1.86 1.78.453.773.68 1.707.68 2.8 0 1.093-.227 2.033-.68 2.82a4.436 4.436 0 0 1-1.86 1.78c-.787.4-1.707.6-2.76.6-1.027 0-1.94-.2-2.74-.6a4.564 4.564 0 0 1-1.88-1.78c-.44-.787-.66-1.727-.66-2.82 0-1.093.22-2.027.66-2.8a4.399 4.399 0 0 1 1.88-1.78c.8-.413 1.713-.62 2.74-.62Zm0 2.42c-.387 0-.72.093-1 .28-.28.187-.494.487-.64.9-.147.413-.22.947-.22 1.6 0 .653.073 1.187.22 1.6.146.4.36.7.64.9.28.187.613.28 1 .28.4 0 .74-.093 1.02-.28.28-.2.493-.5.64-.9.146-.413.22-.947.22-1.6 0-.653-.074-1.187-.22-1.6-.147-.413-.36-.713-.64-.9-.28-.187-.62-.28-1.02-.28Zm7.212 7.78v-10h3.04l.18 3.44-.38-.38c.134-.72.367-1.32.7-1.8.347-.48.774-.84 1.28-1.08.52-.253 1.1-.38 1.74-.38.694 0 1.294.133 1.8.4.52.267.927.66 1.22 1.18.294.52.44 1.173.44 1.96V134h-3.4v-5.76c0-.693-.133-1.173-.4-1.44-.266-.267-.606-.4-1.02-.4-.32 0-.62.08-.9.24-.28.147-.5.387-.66.72-.16.333-.24.78-.24 1.34v5.3h-3.4Zm12.403 0v-10h3.04l.18 3.44-.38-.38c.133-.72.366-1.32.7-1.8.346-.48.773-.84 1.28-1.08.52-.253 1.1-.38 1.74-.38.693 0 1.293.133 1.8.4.52.267.926.66 1.22 1.18.293.52.44 1.173.44 1.96V134h-3.4v-5.76c0-.693-.134-1.173-.4-1.44-.267-.267-.607-.4-1.02-.4-.32 0-.62.08-.9.24-.28.147-.5.387-.66.72-.16.333-.24.78-.24 1.34v5.3h-3.4Zm17.282.2c-1.107 0-2.067-.207-2.88-.62a4.436 4.436 0 0 1-1.86-1.78c-.44-.773-.66-1.707-.66-2.8 0-1.093.22-2.027.66-2.8a4.465 4.465 0 0 1 1.84-1.78c.8-.413 1.713-.62 2.74-.62 1.053 0 1.947.207 2.68.62.747.4 1.313.96 1.7 1.68.387.707.58 1.52.58 2.44 0 .24-.007.48-.02.72-.013.24-.033.44-.06.6h-7.92v-1.82h6.42l-1.62.62c0-.8-.147-1.413-.44-1.84-.28-.427-.72-.64-1.32-.64-.427 0-.793.1-1.1.3-.293.2-.52.513-.68.94-.147.427-.22.973-.22 1.64 0 .653.087 1.187.26 1.6.173.4.42.693.74.88.32.173.707.26 1.16.26.507 0 .907-.1 1.2-.3.307-.2.533-.48.68-.84l2.72.9a3.195 3.195 0 0 1-.98 1.46c-.453.387-1 .68-1.64.88-.627.2-1.287.3-1.98.3Zm11.442-10.4c1.013 0 1.853.147 2.52.44.68.28 1.207.66 1.58 1.14.387.467.627.973.72 1.52l-3.14 1.04c-.093-.573-.267-1-.52-1.28-.24-.293-.593-.44-1.06-.44-.427 0-.787.1-1.08.3-.28.187-.493.493-.64.92-.147.413-.22.947-.22 1.6 0 .653.08 1.187.24 1.6.16.4.387.693.68.88.293.173.64.26 1.04.26.333 0 .607-.06.82-.18.227-.133.413-.32.56-.56.147-.24.24-.533.28-.88l3.06.98a3.074 3.074 0 0 1-.76 1.58c-.4.453-.933.813-1.6 1.08-.667.267-1.447.4-2.34.4-1.093 0-2.047-.2-2.86-.6a4.411 4.411 0 0 1-1.88-1.78c-.44-.787-.66-1.727-.66-2.82 0-1.093.22-2.027.66-2.8a4.303 4.303 0 0 1 1.84-1.78c.8-.413 1.72-.62 2.76-.62Zm10.788-2.98v9.62c0 .48.113.827.34 1.04.24.2.566.3.98.3.32 0 .593-.033.82-.1.24-.08.453-.193.64-.34l.36 2.1c-.334.24-.754.427-1.26.56-.507.133-1.027.2-1.56.2-.76 0-1.42-.107-1.98-.32a2.625 2.625 0 0 1-1.28-1.02c-.294-.467-.447-1.087-.46-1.86v-9.24l3.4-.94Zm2.98 3.18v2.42h-8.1V124h8.1Zm19.963 0h3.56l-3.02 10h-4.08l-1.82-6.14-1.76 6.14h-4.06l-3.04-10h3.58l1.68 7.38 1.96-7.38h3.36l1.94 7.38 1.7-7.38Zm6.608-1.16c-.693 0-1.2-.127-1.52-.38-.307-.267-.46-.68-.46-1.24 0-.573.153-.987.46-1.24.32-.267.827-.4 1.52-.4.68 0 1.18.133 1.5.4.32.253.48.667.48 1.24 0 .56-.16.973-.48 1.24-.32.253-.82.38-1.5.38Zm1.7 1.16v10h-3.4v-10h3.4Zm6.6-3.18v9.62c0 .48.114.827.34 1.04.24.2.567.3.98.3.32 0 .594-.033.82-.1.24-.08.454-.193.64-.34l.36 2.1c-.333.24-.753.427-1.26.56-.506.133-1.026.2-1.56.2-.76 0-1.42-.107-1.98-.32a2.634 2.634 0 0 1-1.28-1.02c-.293-.467-.446-1.087-.46-1.86v-9.24l3.4-.94Zm2.98 3.18v2.42h-8.1V124h8.1Zm1.805 10v-14.24h3.4v6.06c.294-.667.714-1.167 1.26-1.5.547-.347 1.18-.52 1.9-.52.694 0 1.294.133 1.8.4.52.267.927.66 1.22 1.18.294.52.44 1.173.44 1.96V134h-3.4v-5.72c0-.72-.133-1.213-.4-1.48-.253-.28-.593-.42-1.02-.42-.32 0-.62.08-.9.24-.28.16-.5.413-.66.76-.16.347-.24.8-.24 1.36V134h-3.4Z"/>
  <rect width="351" height="49" x="348.5" y="1" fill="#fff" rx="24.5"/>
  <path fill="#1E4460" d="M378.909 31V19.364h3.932c.913 0 1.659.164 2.239.494.583.326 1.015.767 1.295 1.324s.42 1.178.42 1.864c0 .685-.14 1.308-.42 1.869a3.131 3.131 0 0 1-1.284 1.34c-.58.33-1.322.495-2.227.495h-2.819V25.5h2.773c.625 0 1.127-.108 1.506-.324a1.93 1.93 0 0 0 .824-.875c.174-.371.261-.79.261-1.255 0-.466-.087-.883-.261-1.25a1.867 1.867 0 0 0-.83-.864c-.382-.212-.89-.318-1.523-.318h-2.477V31h-1.409Zm13.54.182c-.841 0-1.566-.186-2.176-.557a3.742 3.742 0 0 1-1.404-1.568c-.325-.674-.488-1.458-.488-2.352 0-.894.163-1.682.488-2.364.33-.686.788-1.22 1.375-1.602.591-.387 1.281-.58 2.068-.58.455 0 .904.076 1.347.227.443.152.847.398 1.21.739.364.337.654.784.87 1.34.216.558.323 1.243.323 2.058v.568h-6.727v-1.16h5.364c0-.492-.099-.931-.296-1.317a2.223 2.223 0 0 0-.829-.915c-.356-.224-.777-.335-1.262-.335-.534 0-.996.132-1.386.397a2.615 2.615 0 0 0-.892 1.023c-.208.42-.312.871-.312 1.352v.773c0 .66.113 1.218.34 1.676.232.455.552.801.961 1.04.409.235.884.352 1.426.352.352 0 .67-.049.954-.148.288-.102.536-.253.745-.454.208-.204.369-.458.483-.761l1.295.363a2.87 2.87 0 0 1-.687 1.16 3.35 3.35 0 0 1-1.194.772 4.42 4.42 0 0 1-1.596.273Zm9.199 0c-.788 0-1.479-.188-2.074-.563-.591-.375-1.053-.9-1.386-1.573-.33-.675-.495-1.463-.495-2.364 0-.91.165-1.703.495-2.38.333-.679.795-1.205 1.386-1.58.595-.375 1.286-.563 2.074-.563.788 0 1.477.188 2.068.563.595.375 1.057.901 1.386 1.58.334.677.5 1.47.5 2.38 0 .901-.166 1.69-.5 2.364a3.763 3.763 0 0 1-1.386 1.573c-.591.375-1.28.563-2.068.563Zm0-1.205c.598 0 1.091-.153 1.477-.46a2.72 2.72 0 0 0 .858-1.21c.186-.5.278-1.042.278-1.625s-.092-1.127-.278-1.63a2.755 2.755 0 0 0-.858-1.223c-.386-.31-.879-.465-1.477-.465-.599 0-1.091.155-1.478.465a2.757 2.757 0 0 0-.858 1.222 4.695 4.695 0 0 0-.278 1.63c0 .584.093 1.126.278 1.626.186.5.472.903.858 1.21.387.307.879.46 1.478.46Zm6.001 4.296v-12h1.296v1.386h.159c.098-.151.235-.345.409-.58.178-.238.432-.45.761-.636.333-.19.784-.284 1.352-.284.735 0 1.383.184 1.944.551.56.368.998.889 1.312 1.563.314.674.472 1.47.472 2.386 0 .924-.158 1.726-.472 2.404-.314.674-.75 1.197-1.307 1.568-.557.367-1.199.55-1.926.55-.56 0-1.009-.092-1.346-.278-.338-.189-.597-.403-.779-.642a8.362 8.362 0 0 1-.42-.602h-.114v4.614h-1.341Zm1.318-7.637c0 .66.097 1.24.29 1.745.193.5.475.892.847 1.176.371.28.825.42 1.363.42.561 0 1.029-.148 1.404-.443.379-.3.663-.7.852-1.204a4.73 4.73 0 0 0 .29-1.694 4.6 4.6 0 0 0-.284-1.659c-.186-.496-.468-.888-.847-1.176-.375-.291-.846-.437-1.415-.437-.545 0-1.003.138-1.375.414-.371.273-.651.656-.841 1.148-.189.489-.284 1.059-.284 1.71Zm9.773-7.272V31h-1.341V19.364h1.341Zm6.115 11.818c-.841 0-1.566-.186-2.176-.557a3.733 3.733 0 0 1-1.403-1.568c-.326-.674-.489-1.458-.489-2.352 0-.894.163-1.682.489-2.364.329-.686.787-1.22 1.375-1.602.59-.387 1.28-.58 2.068-.58.454 0 .903.076 1.346.227.444.152.847.398 1.211.739.363.337.653.784.869 1.34.216.558.324 1.243.324 2.058v.568h-6.728v-1.16h5.364c0-.492-.098-.931-.295-1.317a2.232 2.232 0 0 0-.83-.915c-.356-.224-.776-.335-1.261-.335-.534 0-.996.132-1.387.397a2.623 2.623 0 0 0-.892 1.023c-.208.42-.312.871-.312 1.352v.773c0 .66.113 1.218.341 1.676.231.455.551.801.96 1.04.409.235.884.352 1.426.352.352 0 .671-.049.955-.148a2.03 2.03 0 0 0 .744-.454c.208-.204.369-.458.483-.761l1.295.363a2.87 2.87 0 0 1-.687 1.16c-.322.329-.72.587-1.193.772a4.43 4.43 0 0 1-1.597.273Zm11.017 3.09c-.227 0-.43-.018-.608-.056a1.597 1.597 0 0 1-.369-.102l.341-1.182c.326.083.613.113.863.09.25-.022.472-.134.665-.334.197-.198.377-.518.54-.96l.25-.683-3.227-8.772h1.454l2.409 6.954h.091l2.409-6.954h1.455l-3.705 10a3.77 3.77 0 0 1-.619 1.119c-.246.3-.532.52-.858.665a2.646 2.646 0 0 1-1.091.216Zm11.276-3.09c-.788 0-1.479-.188-2.074-.563-.591-.375-1.053-.9-1.386-1.573-.33-.675-.495-1.463-.495-2.364 0-.91.165-1.703.495-2.38.333-.679.795-1.205 1.386-1.58.595-.375 1.286-.563 2.074-.563.788 0 1.477.188 2.068.563.595.375 1.057.901 1.386 1.58.334.677.5 1.47.5 2.38 0 .901-.166 1.69-.5 2.364a3.763 3.763 0 0 1-1.386 1.573c-.591.375-1.28.563-2.068.563Zm0-1.205c.598 0 1.091-.153 1.477-.46a2.72 2.72 0 0 0 .858-1.21c.186-.5.278-1.042.278-1.625s-.092-1.127-.278-1.63a2.755 2.755 0 0 0-.858-1.223c-.386-.31-.879-.465-1.477-.465-.599 0-1.091.155-1.478.465a2.757 2.757 0 0 0-.858 1.222 4.695 4.695 0 0 0-.278 1.63c0 .584.093 1.126.278 1.626.186.5.472.903.858 1.21.387.307.879.46 1.478.46Zm11.501-2.545v-5.16h1.341V31h-1.341v-1.477h-.091c-.204.443-.522.82-.954 1.13-.432.307-.978.46-1.637.46-.545 0-1.03-.119-1.454-.357-.424-.243-.758-.606-1-1.091-.243-.489-.364-1.104-.364-1.847v-5.545h1.341v5.454c0 .637.178 1.144.534 1.523.36.379.818.568 1.375.568.333 0 .672-.085 1.017-.256.349-.17.64-.431.875-.784.239-.352.358-.8.358-1.346Zm10.638 3.744a3.639 3.639 0 0 1-1.494-.295 2.44 2.44 0 0 1-1.046-.887c-.254-.39-.381-.87-.381-1.443 0-.492.091-.9.273-1.221.182-.322.43-.58.745-.773a3.746 3.746 0 0 1 1.062-.438 8.657 8.657 0 0 1 1.233-.221c.511-.053.926-.1 1.244-.142.318-.046.55-.114.693-.205.148-.095.222-.24.222-.437v-.035c0-.428-.127-.759-.381-.994-.253-.235-.619-.352-1.096-.352-.504 0-.904.11-1.199.33-.292.22-.489.479-.591.778l-1.92-.273c.151-.53.401-.973.75-1.33.348-.36.774-.628 1.278-.806a4.893 4.893 0 0 1 1.67-.273c.421 0 .839.05 1.256.148.417.098.797.261 1.142.489.345.223.621.528.83.914.212.387.318.87.318 1.45V31h-1.977v-1.199h-.069c-.125.243-.301.47-.528.682a2.538 2.538 0 0 1-.847.506 3.411 3.411 0 0 1-1.187.187Zm.534-1.511c.413 0 .771-.082 1.074-.244a1.81 1.81 0 0 0 .699-.66c.166-.272.25-.57.25-.892v-1.028a.97.97 0 0 1-.33.148 4.64 4.64 0 0 1-.511.119c-.19.034-.377.064-.563.09l-.483.069a3.59 3.59 0 0 0-.823.205 1.365 1.365 0 0 0-.574.397c-.14.167-.211.383-.211.648 0 .379.139.665.415.858.277.193.629.29 1.057.29Zm8.199-10.301V31h-2.057V19.364h2.057ZM480.135 31v-8.727h1.994v1.454h.091c.159-.503.432-.892.818-1.165a2.256 2.256 0 0 1 1.336-.414c.113 0 .24.005.38.017.144.007.264.02.358.04v1.892a2.16 2.16 0 0 0-.415-.08 3.804 3.804 0 0 0-.539-.04c-.375 0-.712.082-1.012.245-.295.159-.528.38-.699.664a1.88 1.88 0 0 0-.255.983V31h-2.057Zm9.848.17c-.875 0-1.631-.181-2.267-.545a3.692 3.692 0 0 1-1.46-1.557c-.341-.674-.512-1.468-.512-2.38 0-.898.171-1.686.512-2.364a3.857 3.857 0 0 1 1.443-1.591c.617-.383 1.343-.574 2.176-.574.538 0 1.045.087 1.523.262.481.17.905.435 1.272.795.372.36.663.818.875 1.375.213.553.319 1.212.319 1.977v.63h-7.154v-1.386h5.182a2.211 2.211 0 0 0-.256-1.05 1.854 1.854 0 0 0-.698-.734 1.97 1.97 0 0 0-1.035-.267c-.42 0-.789.103-1.108.307-.318.2-.566.466-.744.796a2.295 2.295 0 0 0-.267 1.073v1.21c0 .508.093.944.278 1.308.186.36.446.636.779.83.333.189.723.283 1.17.283.3 0 .57-.042.813-.125.242-.087.453-.214.631-.38.178-.167.312-.374.403-.62l1.92.216a2.99 2.99 0 0 1-.693 1.33 3.38 3.38 0 0 1-1.295.875c-.527.204-1.129.306-1.807.306Zm8.132.006a3.639 3.639 0 0 1-1.494-.295 2.44 2.44 0 0 1-1.046-.887c-.254-.39-.38-.87-.38-1.443 0-.492.091-.9.272-1.221.182-.322.43-.58.745-.773a3.746 3.746 0 0 1 1.062-.438 8.657 8.657 0 0 1 1.233-.221c.511-.053.926-.1 1.244-.142.319-.046.55-.114.694-.205.147-.095.221-.24.221-.437v-.035c0-.428-.127-.759-.38-.994-.254-.235-.62-.352-1.097-.352-.504 0-.903.11-1.199.33-.292.22-.489.479-.591.778l-1.92-.273c.151-.53.401-.973.75-1.33.348-.36.774-.628 1.278-.806a4.894 4.894 0 0 1 1.671-.273c.42 0 .839.05 1.255.148.417.098.798.261 1.142.489.345.223.621.528.83.914.212.387.318.87.318 1.45V31h-1.977v-1.199h-.068a2.52 2.52 0 0 1-.529.682 2.543 2.543 0 0 1-.846.506 3.417 3.417 0 0 1-1.188.187Zm.534-1.511c.413 0 .771-.082 1.074-.244a1.81 1.81 0 0 0 .699-.66c.167-.272.25-.57.25-.892v-1.028a.97.97 0 0 1-.33.148 4.64 4.64 0 0 1-.511.119 15.88 15.88 0 0 1-.563.09l-.482.069c-.307.042-.582.11-.824.205a1.365 1.365 0 0 0-.574.397c-.14.167-.21.383-.21.648 0 .379.138.665.414.858.277.193.629.29 1.057.29Zm9.381 1.488a3.302 3.302 0 0 1-1.841-.528c-.542-.352-.97-.864-1.284-1.534-.315-.67-.472-1.485-.472-2.443 0-.97.159-1.788.478-2.455.321-.67.755-1.176 1.301-1.517a3.342 3.342 0 0 1 1.824-.517c.511 0 .931.087 1.261.262.329.17.591.376.784.619.193.238.343.464.449.676h.085v-4.352h2.063V31h-2.023v-1.375h-.125c-.106.212-.26.438-.46.676a2.531 2.531 0 0 1-.796.602c-.329.167-.744.25-1.244.25Zm.574-1.687c.435 0 .807-.117 1.113-.352.307-.239.54-.57.699-.995.159-.424.239-.918.239-1.483 0-.564-.08-1.055-.239-1.471-.155-.417-.386-.74-.693-.972-.303-.23-.676-.346-1.119-.346-.459 0-.841.119-1.148.357-.307.24-.538.569-.693.99-.156.42-.233.9-.233 1.442 0 .546.077 1.033.233 1.46.159.425.392.76.699 1.006.31.243.691.364 1.142.364Zm7.544 4.807a4.12 4.12 0 0 1-.779-.069 2.867 2.867 0 0 1-.562-.147l.477-1.602c.299.087.566.128.801.125a.984.984 0 0 0 .62-.222c.181-.14.335-.375.46-.705l.176-.471-3.165-8.91h2.182l2.011 6.592h.091l2.017-6.591h2.188l-3.495 9.784a3.897 3.897 0 0 1-.647 1.187 2.635 2.635 0 0 1-.989.762c-.386.178-.848.267-1.386.267Zm13.784-6.012-.006-2.483h.33l3.136-3.505h2.403l-3.857 4.295h-.427l-1.579 1.693ZM528.057 31V19.364h2.057V31h-2.057Zm5.477 0-2.841-3.972 1.387-1.448 3.914 5.42h-2.46Zm5.689-5.114V31h-2.057v-8.727h1.966v1.483h.102c.201-.489.521-.877.961-1.165.443-.288.99-.432 1.642-.432.602 0 1.127.129 1.574.387.45.257.799.63 1.045 1.119.25.488.373 1.081.369 1.778V31h-2.057v-5.239c0-.583-.151-1.04-.454-1.369-.299-.33-.714-.494-1.244-.494-.36 0-.68.08-.961.238a1.66 1.66 0 0 0-.653.677c-.155.295-.233.653-.233 1.073Zm11.5 5.285c-.852 0-1.591-.188-2.216-.563a3.814 3.814 0 0 1-1.454-1.574c-.341-.674-.512-1.462-.512-2.363 0-.902.171-1.692.512-2.37a3.806 3.806 0 0 1 1.454-1.58c.625-.374 1.364-.562 2.216-.562.852 0 1.591.188 2.216.563a3.775 3.775 0 0 1 1.449 1.58c.344.677.517 1.467.517 2.369 0 .901-.173 1.689-.517 2.363a3.783 3.783 0 0 1-1.449 1.574c-.625.375-1.364.563-2.216.563Zm.011-1.648c.462 0 .849-.127 1.159-.381.311-.258.542-.602.694-1.034.155-.432.233-.913.233-1.443 0-.534-.078-1.017-.233-1.45-.152-.435-.383-.781-.694-1.039-.31-.257-.697-.386-1.159-.386-.473 0-.867.129-1.181.386-.311.258-.544.604-.699 1.04a4.343 4.343 0 0 0-.228 1.449c0 .53.076 1.011.228 1.443.155.432.388.776.699 1.034.314.254.708.38 1.181.38ZM558.202 31l-2.466-8.727h2.096l1.534 6.136h.08l1.568-6.136h2.074l1.568 6.102h.085l1.512-6.102h2.102L565.884 31h-2.143l-1.636-5.898h-.119L560.349 31h-2.147Zm16.217-4.83c.235-1.424.638-2.734 1.21-3.931a14.381 14.381 0 0 1 2.193-3.313h1.557a9.102 9.102 0 0 0-1.011 1.38 15.372 15.372 0 0 0-.932 1.796 18.94 18.94 0 0 0-.761 2.017 15.683 15.683 0 0 0-.495 2.052 14.375 14.375 0 0 0-.193 2.738c.027.924.125 1.782.296 2.574.174.792.407 1.437.699 1.937h-1.563a9.954 9.954 0 0 1-1.091-3.312c-.178-1.197-.148-2.51.091-3.938Zm8.328 5.006c-.856 0-1.564-.184-2.125-.551-.557-.371-.947-.892-1.17-1.563-.224-.674-.26-1.463-.108-2.369.147-.894.445-1.682.892-2.364a4.907 4.907 0 0 1 1.67-1.596 4.405 4.405 0 0 1 2.222-.574c.492 0 .956.082 1.392.244.439.163.812.419 1.119.768.307.348.519.8.637 1.357.121.553.117 1.226-.012 2.018l-.096.602h-6.944l.199-1.273h5.273c.08-.447.059-.843-.062-1.188a1.612 1.612 0 0 0-.625-.823c-.292-.201-.66-.302-1.103-.302-.454 0-.879.12-1.272.358a3.306 3.306 0 0 0-.989.915 2.783 2.783 0 0 0-.494 1.137l-.199 1.164c-.099.637-.082 1.148.051 1.535.136.386.375.666.716.84.341.175.767.262 1.278.262.33 0 .635-.046.915-.137.284-.094.536-.233.756-.414a2.35 2.35 0 0 0 .551-.694l1.557.29a3.683 3.683 0 0 1-.898 1.244 4.24 4.24 0 0 1-1.381.824c-.526.194-1.11.29-1.75.29Zm6.945-.068a1.06 1.06 0 0 1-.796-.33 1.113 1.113 0 0 1-.307-.806c.004-.315.122-.578.353-.79a1.17 1.17 0 0 1 .818-.324c.311 0 .576.11.795.33.22.22.322.48.307.784a1.182 1.182 0 0 1-.182.58c-.106.17-.246.306-.42.408a1.135 1.135 0 0 1-.568.148Zm6.383 3.347c-.697 0-1.28-.091-1.75-.273-.466-.182-.833-.422-1.102-.722a2.521 2.521 0 0 1-.551-.983l1.568-.602c.076.167.182.343.318.528.137.19.339.35.608.483.273.133.646.2 1.12.2.643 0 1.206-.158 1.687-.472.481-.311.778-.807.892-1.489l.267-1.716h-.108a4.716 4.716 0 0 1-.534.62 3.028 3.028 0 0 1-.881.59c-.359.167-.806.25-1.341.25-.689 0-1.284-.16-1.784-.483-.496-.325-.852-.805-1.068-1.437-.216-.637-.246-1.419-.091-2.347.152-.928.44-1.723.864-2.386.428-.663.947-1.17 1.557-1.523a3.862 3.862 0 0 1 1.971-.534c.542 0 .964.091 1.267.273.307.178.534.386.682.625.148.239.256.449.324.63h.125l.233-1.414h1.665l-1.477 8.92c-.122.75-.396 1.366-.824 1.847a3.828 3.828 0 0 1-1.586 1.068 5.899 5.899 0 0 1-2.051.347Zm.773-4.995c.485 0 .917-.113 1.295-.34.383-.232.701-.561.955-.99.254-.431.43-.948.528-1.55.099-.588.093-1.105-.017-1.552-.106-.447-.312-.795-.619-1.045-.303-.254-.699-.38-1.187-.38-.516 0-.963.132-1.341.397a2.93 2.93 0 0 0-.926 1.068c-.235.45-.4.955-.495 1.511-.091.572-.089 1.074.006 1.506.098.432.295.77.591 1.012.295.242.699.363 1.21.363Zm7.25 1.648a1.06 1.06 0 0 1-.795-.33 1.105 1.105 0 0 1-.307-.806c.004-.315.121-.578.352-.79.235-.216.508-.324.818-.324.311 0 .576.11.796.33.219.22.322.48.306.784a1.21 1.21 0 0 1-.602.989 1.133 1.133 0 0 1-.568.147Zm8.436-.108h-1.864l6.12-11.636h2.028L621.074 31h-1.864l-1.699-9.523h-.091L612.534 31Zm1.068-4.557h6.046l-.25 1.477h-6.046l.25-1.477Zm12.647-7.08L624.317 31h-1.699l1.932-11.636h1.699Zm6.484 8.018.852-5.108h1.705L633.835 31h-1.67l.255-1.511h-.09a3.38 3.38 0 0 1-1.16 1.164c-.496.307-1.072.46-1.727.46-.56 0-1.036-.122-1.426-.369-.386-.25-.661-.619-.824-1.108-.163-.488-.185-1.092-.068-1.812l.932-5.551h1.699l-.892 5.346c-.095.595-.006 1.069.267 1.42.272.353.67.53 1.193.53.318 0 .648-.08.988-.24.341-.159.643-.4.904-.721.265-.322.437-.731.517-1.227ZM636.124 31l1.454-8.727h1.631l-.239 1.42h.108a2.907 2.907 0 0 1 1.08-1.125 2.98 2.98 0 0 1 1.556-.409c.576 0 1.04.137 1.393.41.356.272.589.647.698 1.124h.091c.281-.47.673-.843 1.176-1.12a3.474 3.474 0 0 1 1.699-.414c.784 0 1.387.25 1.807.75.424.496.553 1.242.386 2.239L647.987 31h-1.704l.954-5.693c.095-.595.004-1.023-.273-1.284-.276-.265-.638-.398-1.085-.398-.553 0-1.011.17-1.375.511-.363.338-.587.771-.67 1.302L642.896 31h-1.687l.971-5.801c.076-.477-.011-.858-.261-1.142-.246-.288-.606-.432-1.08-.432a1.89 1.89 0 0 0-.937.256 2.38 2.38 0 0 0-.767.704c-.212.3-.35.644-.415 1.034L637.822 31h-1.698Zm16.691-5.182L651.963 31h-1.699l1.455-8.727h1.63l-.238 1.42h.108a3.093 3.093 0 0 1 1.13-1.114c.481-.28 1.05-.42 1.705-.42.591 0 1.087.125 1.489.375.405.246.691.614.858 1.102.17.489.197 1.093.079 1.813L657.548 31h-1.699l.892-5.347c.103-.632.019-1.127-.25-1.482-.265-.36-.687-.54-1.267-.54-.394 0-.759.085-1.096.255a2.31 2.31 0 0 0-.847.75 2.97 2.97 0 0 0-.466 1.182ZM659.821 31l1.455-8.727h1.698L661.52 31h-1.699Zm2.659-10.09c-.295 0-.545-.1-.75-.296a.902.902 0 0 1-.278-.716c.015-.28.132-.52.352-.716.22-.2.475-.301.767-.301.295 0 .544.1.744.3a.907.907 0 0 1 .284.717 1.016 1.016 0 0 1-.352.716 1.1 1.1 0 0 1-.767.295Zm5.946 5.26a14.682 14.682 0 0 1-1.216 3.938 14.127 14.127 0 0 1-2.193 3.312h-1.557a8.651 8.651 0 0 0 1.012-1.38c.333-.546.644-1.142.931-1.79a17.89 17.89 0 0 0 .762-2.023c.216-.697.38-1.382.494-2.056.152-.898.214-1.81.188-2.733a13.565 13.565 0 0 0-.296-2.574c-.17-.792-.401-1.438-.693-1.938h1.562a9.931 9.931 0 0 1 1.091 3.313c.178 1.197.15 2.507-.085 3.931Z"/>
  <rect width="351" height="49" x="348.5" y="1" stroke="#F4CE71" stroke-width="2" rx="24.5"/>
  <rect width="306" height="49" x="348.5" y="72" fill="#fff" rx="24.5"/>
  <path fill="#1E4460" d="M378.909 102V90.364h3.932c.913 0 1.659.164 2.239.494.583.326 1.015.767 1.295 1.324s.42 1.178.42 1.864c0 .685-.14 1.308-.42 1.869a3.131 3.131 0 0 1-1.284 1.34c-.58.33-1.322.495-2.227.495h-2.819V96.5h2.773c.625 0 1.127-.108 1.506-.324a1.93 1.93 0 0 0 .824-.875c.174-.371.261-.79.261-1.255 0-.467-.087-.883-.261-1.25a1.867 1.867 0 0 0-.83-.864c-.382-.212-.89-.318-1.523-.318h-2.477V102h-1.409Zm13.54.182c-.841 0-1.566-.186-2.176-.557a3.744 3.744 0 0 1-1.404-1.568c-.325-.674-.488-1.459-.488-2.353 0-.893.163-1.681.488-2.363.33-.686.788-1.22 1.375-1.602.591-.387 1.281-.58 2.068-.58.455 0 .904.076 1.347.227.443.152.847.398 1.21.739.364.337.654.784.87 1.34.216.558.323 1.243.323 2.058v.568h-6.727v-1.16h5.364c0-.492-.099-.931-.296-1.317a2.223 2.223 0 0 0-.829-.915c-.356-.224-.777-.335-1.262-.335-.534 0-.996.132-1.386.397a2.615 2.615 0 0 0-.892 1.023c-.208.42-.312.871-.312 1.352v.773c0 .66.113 1.218.34 1.676.232.455.552.801.961 1.04.409.235.884.352 1.426.352.352 0 .67-.049.954-.147.288-.103.536-.254.745-.455.208-.205.369-.458.483-.761l1.295.363a2.86 2.86 0 0 1-.687 1.159 3.35 3.35 0 0 1-1.194.773 4.416 4.416 0 0 1-1.596.273Zm9.199 0c-.788 0-1.479-.188-2.074-.563-.591-.375-1.053-.899-1.386-1.574-.33-.674-.495-1.462-.495-2.363 0-.91.165-1.703.495-2.38.333-.679.795-1.205 1.386-1.58.595-.375 1.286-.563 2.074-.563.788 0 1.477.188 2.068.563.595.375 1.057.901 1.386 1.58.334.677.5 1.47.5 2.38 0 .901-.166 1.69-.5 2.363a3.758 3.758 0 0 1-1.386 1.574c-.591.375-1.28.563-2.068.563Zm0-1.205c.598 0 1.091-.153 1.477-.46a2.72 2.72 0 0 0 .858-1.21c.186-.5.278-1.042.278-1.625 0-.584-.092-1.127-.278-1.63a2.755 2.755 0 0 0-.858-1.223c-.386-.31-.879-.465-1.477-.465-.599 0-1.091.155-1.478.465a2.757 2.757 0 0 0-.858 1.222 4.695 4.695 0 0 0-.278 1.63c0 .584.093 1.126.278 1.626.186.5.472.903.858 1.21.387.307.879.46 1.478.46Zm6.001 4.296v-12h1.296v1.386h.159c.098-.151.235-.345.409-.58.178-.238.432-.45.761-.636.333-.19.784-.284 1.352-.284.735 0 1.383.184 1.944.551.56.368.998.889 1.312 1.563.314.674.472 1.47.472 2.386 0 .924-.158 1.725-.472 2.403-.314.675-.75 1.197-1.307 1.569-.557.367-1.199.551-1.926.551-.56 0-1.009-.093-1.346-.279-.338-.189-.597-.403-.779-.642a8.279 8.279 0 0 1-.42-.602h-.114v4.614h-1.341Zm1.318-7.637c0 .66.097 1.24.29 1.745.193.5.475.892.847 1.176.371.28.825.42 1.363.42.561 0 1.029-.147 1.404-.443.379-.299.663-.7.852-1.205a4.73 4.73 0 0 0 .29-1.693 4.6 4.6 0 0 0-.284-1.659c-.186-.496-.468-.888-.847-1.176-.375-.291-.846-.437-1.415-.437-.545 0-1.003.138-1.375.414-.371.273-.651.656-.841 1.148-.189.489-.284 1.059-.284 1.71Zm9.773-7.272V102h-1.341V90.364h1.341Zm6.115 11.818c-.841 0-1.566-.186-2.176-.557a3.736 3.736 0 0 1-1.403-1.568c-.326-.674-.489-1.459-.489-2.353 0-.893.163-1.681.489-2.363.329-.686.787-1.22 1.375-1.602.59-.387 1.28-.58 2.068-.58.454 0 .903.076 1.346.227.444.152.847.398 1.211.739.363.337.653.784.869 1.34.216.558.324 1.243.324 2.058v.568h-6.728v-1.16h5.364c0-.492-.098-.931-.295-1.317a2.232 2.232 0 0 0-.83-.915c-.356-.224-.776-.335-1.261-.335-.534 0-.996.132-1.387.397a2.623 2.623 0 0 0-.892 1.023c-.208.42-.312.871-.312 1.352v.773c0 .66.113 1.218.341 1.676.231.455.551.801.96 1.04.409.235.884.352 1.426.352.352 0 .671-.049.955-.147.288-.103.536-.254.744-.455.208-.205.369-.458.483-.761l1.295.363a2.86 2.86 0 0 1-.687 1.159c-.322.33-.72.587-1.193.773a4.425 4.425 0 0 1-1.597.273Zm10.154-.182v-8.727h1.34V102h-1.34Zm.681-10.182a.954.954 0 0 1-.676-.267.86.86 0 0 1-.278-.642.86.86 0 0 1 .278-.642.955.955 0 0 1 .676-.267c.262 0 .485.089.671.267a.851.851 0 0 1 .284.642c0 .25-.095.464-.284.642a.934.934 0 0 1-.671.267Zm4.456 4.932V102h-1.341v-8.727h1.296v1.363h.113a2.5 2.5 0 0 1 .932-1.068c.417-.272.955-.409 1.614-.409.591 0 1.108.121 1.551.364a2.45 2.45 0 0 1 1.034 1.09c.246.486.369 1.1.369 1.841V102h-1.34v-5.454c0-.686-.178-1.22-.535-1.603-.356-.386-.844-.58-1.465-.58a2.34 2.34 0 0 0-1.148.279 1.994 1.994 0 0 0-.79.813c-.193.356-.29.787-.29 1.295Zm16.314-3.477v1.136h-4.522v-1.136h4.522Zm-3.204-2.091h1.341V99.5c0 .379.055.663.164.852a.853.853 0 0 0 .432.375c.178.061.366.091.563.091.147 0 .269-.007.363-.023l.228-.045.272 1.205a2.72 2.72 0 0 1-.38.102c-.163.038-.37.057-.62.057-.378 0-.75-.082-1.113-.245a2.217 2.217 0 0 1-.898-.744c-.235-.333-.352-.754-.352-1.261v-8.682Zm6.75 5.568V102h-1.341V90.364h1.341v4.272h.113c.205-.45.512-.808.921-1.073.413-.27.962-.404 1.648-.404.594 0 1.115.12 1.562.358a2.41 2.41 0 0 1 1.04 1.085c.25.485.375 1.102.375 1.852V102h-1.341v-5.454c0-.694-.18-1.23-.54-1.609-.356-.382-.85-.573-1.483-.573-.439 0-.833.092-1.182.278a2.04 2.04 0 0 0-.818.813c-.197.356-.295.787-.295 1.295Zm11.771 5.432c-.841 0-1.566-.186-2.176-.557a3.744 3.744 0 0 1-1.404-1.568c-.325-.674-.488-1.459-.488-2.353 0-.893.163-1.681.488-2.363.33-.686.788-1.22 1.375-1.602.591-.387 1.281-.58 2.069-.58.454 0 .903.076 1.346.227.443.152.847.398 1.21.739.364.337.654.784.87 1.34.216.558.324 1.243.324 2.058v.568h-6.728v-1.16h5.364c0-.492-.098-.931-.295-1.317a2.232 2.232 0 0 0-.83-.915c-.356-.224-.777-.335-1.261-.335-.534 0-.997.132-1.387.397a2.623 2.623 0 0 0-.892 1.023c-.208.42-.312.871-.312 1.352v.773c0 .66.113 1.218.341 1.676.231.455.551.801.96 1.04.409.235.884.352 1.426.352.352 0 .67-.049.955-.147.287-.103.536-.254.744-.455.208-.205.369-.458.483-.761l1.295.363a2.86 2.86 0 0 1-.687 1.159c-.322.33-.72.587-1.193.773a4.425 4.425 0 0 1-1.597.273Zm16.335-6.955-1.204.341a2.238 2.238 0 0 0-.336-.585 1.616 1.616 0 0 0-.59-.477c-.25-.125-.571-.188-.961-.188-.534 0-.979.123-1.335.37-.352.242-.528.55-.528.926 0 .333.121.596.363.79.243.193.622.354 1.137.482l1.295.319c.78.189 1.362.479 1.744.869.383.386.574.884.574 1.494 0 .5-.144.947-.432 1.341-.284.394-.681.705-1.193.932-.511.227-1.106.341-1.784.341-.89 0-1.627-.193-2.21-.58-.583-.386-.953-.95-1.108-1.693l1.273-.318c.121.47.35.822.687 1.057.341.235.786.352 1.335.352.625 0 1.122-.133 1.489-.398.371-.269.557-.591.557-.966 0-.303-.106-.556-.318-.761-.212-.208-.538-.364-.978-.466l-1.454-.34c-.799-.19-1.386-.484-1.761-.882-.372-.401-.557-.903-.557-1.505 0-.493.138-.928.415-1.307a2.82 2.82 0 0 1 1.142-.892c.484-.216 1.034-.324 1.647-.324.864 0 1.542.19 2.034.568.497.38.849.88 1.057 1.5Zm4.746 6.978a3.554 3.554 0 0 1-1.506-.313 2.592 2.592 0 0 1-1.074-.915c-.265-.401-.397-.886-.397-1.454 0-.5.098-.906.295-1.216.197-.315.46-.56.79-.739a4.14 4.14 0 0 1 1.091-.397c.401-.092.805-.163 1.21-.217.53-.068.96-.119 1.29-.153.333-.038.576-.1.727-.187.155-.088.233-.239.233-.455v-.045c0-.561-.153-.997-.46-1.307-.303-.31-.763-.466-1.381-.466-.64 0-1.142.14-1.506.42-.363.28-.619.58-.767.898l-1.272-.455c.227-.53.53-.943.909-1.238.382-.3.799-.508 1.25-.625a5.184 5.184 0 0 1 1.341-.182c.28 0 .602.034.966.102.367.065.721.2 1.062.404.345.204.631.513.858.926.227.413.341.966.341 1.659V102h-1.341v-1.182h-.068a2.36 2.36 0 0 1-.455.608c-.212.216-.494.4-.846.551-.353.152-.782.228-1.29.228Zm.204-1.205c.531 0 .978-.104 1.341-.312.368-.209.644-.478.83-.807a2.06 2.06 0 0 0 .284-1.04v-1.227c-.057.068-.182.13-.375.187a6.29 6.29 0 0 1-.659.142 29.629 29.629 0 0 1-1.284.17 5.12 5.12 0 0 0-.977.222 1.68 1.68 0 0 0-.728.45c-.181.196-.272.465-.272.806 0 .466.172.818.517 1.057.348.235.789.352 1.323.352Zm6.243 1v-8.727h1.296v1.363h.113c.182-.465.476-.827.881-1.085.405-.261.892-.392 1.46-.392.576 0 1.055.13 1.438.392.386.258.687.62.903 1.085h.091c.224-.45.559-.808 1.006-1.073.447-.27.983-.404 1.608-.404.78 0 1.418.244 1.915.733.496.485.744 1.24.744 2.267V102h-1.341v-5.84c0-.645-.176-1.105-.528-1.382a1.958 1.958 0 0 0-1.245-.414c-.613 0-1.089.185-1.426.556-.337.368-.506.834-.506 1.398V102h-1.363v-5.977c0-.496-.161-.896-.483-1.2-.322-.306-.737-.46-1.244-.46a1.84 1.84 0 0 0-.978.279 2.107 2.107 0 0 0-.727.773 2.28 2.28 0 0 0-.273 1.13V102h-1.341Zm17.566.182c-.841 0-1.567-.186-2.176-.557a3.744 3.744 0 0 1-1.404-1.568c-.326-.674-.488-1.459-.488-2.353 0-.893.162-1.681.488-2.363.33-.686.788-1.22 1.375-1.602.591-.387 1.28-.58 2.068-.58.455 0 .904.076 1.347.227.443.152.847.398 1.21.739.364.337.654.784.87 1.34.215.558.323 1.243.323 2.058v.568h-6.727v-1.16h5.364c0-.492-.099-.931-.296-1.317a2.223 2.223 0 0 0-.829-.915c-.356-.224-.777-.335-1.262-.335-.534 0-.996.132-1.386.397a2.615 2.615 0 0 0-.892 1.023 3.01 3.01 0 0 0-.313 1.352v.773c0 .66.114 1.218.341 1.676.231.455.552.801.961 1.04.409.235.884.352 1.426.352.352 0 .67-.049.954-.147.288-.103.536-.254.745-.455.208-.205.369-.458.483-.761l1.295.363c-.136.44-.366.826-.687 1.159a3.35 3.35 0 0 1-1.194.773 4.416 4.416 0 0 1-1.596.273Zm10.153-.182v-8.727h1.341V102h-1.341Zm.682-10.182a.953.953 0 0 1-.676-.267.857.857 0 0 1-.279-.642c0-.25.093-.464.279-.642a.953.953 0 0 1 .676-.267c.261 0 .485.089.67.267.19.178.285.392.285.642s-.095.464-.285.642a.932.932 0 0 1-.67.267Zm4.456 4.932V102h-1.341v-8.727h1.295v1.363h.114c.205-.443.515-.799.932-1.068.417-.272.954-.409 1.614-.409.59 0 1.108.121 1.551.364a2.45 2.45 0 0 1 1.034 1.09c.246.486.369 1.1.369 1.841V102h-1.341v-5.454c0-.686-.178-1.22-.534-1.603-.356-.386-.845-.58-1.466-.58-.428 0-.81.093-1.148.279a1.992 1.992 0 0 0-.789.813c-.193.356-.29.787-.29 1.295Zm11.314 5.432c-.727 0-1.369-.184-1.926-.551-.557-.372-.993-.894-1.307-1.569-.314-.677-.472-1.479-.472-2.403 0-.917.158-1.712.472-2.386.314-.674.752-1.195 1.312-1.563.561-.367 1.209-.55 1.944-.55.568 0 1.017.094 1.346.283.334.186.587.398.762.636.178.235.316.429.414.58h.114v-4.295h1.341V102h-1.296v-1.341h-.159c-.098.159-.238.36-.42.602-.182.239-.441.453-.779.642-.337.186-.786.279-1.346.279Zm.182-1.205c.538 0 .992-.14 1.363-.42.372-.284.654-.676.847-1.176.193-.504.29-1.085.29-1.745 0-.651-.095-1.221-.284-1.71-.19-.492-.47-.875-.841-1.148-.372-.276-.83-.414-1.375-.414-.569 0-1.042.145-1.421.437-.375.288-.657.68-.846 1.176a4.666 4.666 0 0 0-.279 1.66c0 .62.095 1.185.284 1.692.193.504.478.906.853 1.205.378.296.848.443 1.409.443Zm11.96-2.545v-5.16h1.341V102h-1.341v-1.477h-.091c-.205.443-.523.82-.955 1.13-.431.307-.977.461-1.636.461a2.92 2.92 0 0 1-1.454-.358c-.425-.243-.758-.606-1-1.091-.243-.489-.364-1.104-.364-1.847v-5.545h1.341v5.454c0 .637.178 1.144.534 1.523.36.379.818.568 1.375.568.333 0 .672-.085 1.017-.256.348-.17.64-.431.875-.784.239-.352.358-.8.358-1.346Zm9.979-3.205-1.205.341a2.233 2.233 0 0 0-.335-.585 1.628 1.628 0 0 0-.591-.477c-.25-.125-.57-.188-.96-.188-.534 0-.979.123-1.336.37-.352.242-.528.55-.528.926 0 .333.121.596.364.79.242.193.621.354 1.136.482l1.296.319c.78.189 1.361.479 1.744.869.382.386.574.884.574 1.494 0 .5-.144.947-.432 1.341-.284.394-.682.705-1.193.932-.512.227-1.106.341-1.784.341-.891 0-1.627-.193-2.211-.58-.583-.386-.952-.95-1.108-1.693l1.273-.318c.121.47.351.822.688 1.057.341.235.786.352 1.335.352.625 0 1.121-.133 1.488-.398.372-.269.557-.591.557-.966 0-.303-.106-.556-.318-.761-.212-.208-.538-.364-.977-.466l-1.455-.34c-.799-.19-1.386-.484-1.761-.882-.371-.401-.557-.903-.557-1.505 0-.493.138-.928.415-1.307a2.82 2.82 0 0 1 1.142-.892c.485-.216 1.034-.324 1.648-.324.863 0 1.541.19 2.034.568.496.38.848.88 1.057 1.5Zm5.973-1.954v1.136h-4.523v-1.136h4.523Zm-3.205-2.091h1.341V99.5c0 .379.055.663.165.852a.845.845 0 0 0 .432.375c.178.061.365.091.562.091.148 0 .269-.007.364-.023l.227-.045.273 1.205a2.74 2.74 0 0 1-.381.102 2.792 2.792 0 0 1-.619.057 2.7 2.7 0 0 1-1.114-.245 2.217 2.217 0 0 1-.898-.744c-.235-.333-.352-.754-.352-1.261v-8.682ZM573.587 102v-8.727h1.295v1.318h.091c.159-.432.447-.782.864-1.051a2.54 2.54 0 0 1 1.409-.404c.098 0 .221.002.369.006s.26.01.335.017v1.364a3.926 3.926 0 0 0-.312-.051 3.08 3.08 0 0 0-.506-.04c-.424 0-.803.089-1.136.267a1.955 1.955 0 0 0-1.068 1.778V102h-1.341Zm7.082 3.273a2.93 2.93 0 0 1-.608-.057 1.601 1.601 0 0 1-.369-.102l.341-1.182c.325.083.613.113.863.091a1.04 1.04 0 0 0 .665-.335c.197-.197.377-.518.54-.961l.25-.682-3.227-8.772h1.454l2.409 6.954h.091l2.409-6.954h1.455l-3.705 10c-.166.45-.373.824-.619 1.119a2.321 2.321 0 0 1-.858.665 2.646 2.646 0 0 1-1.091.216Zm11.25-15.455-3.75 13.932h-1.227l3.75-13.932h1.227Zm5.476 3.455v1.136h-4.705v-1.136h4.705ZM594.099 102v-9.932c0-.5.118-.916.353-1.25a2.18 2.18 0 0 1 .914-.75c.375-.166.771-.25 1.188-.25.33 0 .598.027.807.08a3.1 3.1 0 0 1 .466.148l-.387 1.158a6.673 6.673 0 0 0-.284-.085 1.717 1.717 0 0 0-.466-.05c-.443 0-.763.11-.96.334-.193.224-.29.551-.29.983V102h-1.341Zm5.175 0v-8.727h1.341V102h-1.341Zm.682-10.182a.953.953 0 0 1-.676-.267.857.857 0 0 1-.279-.642c0-.25.093-.464.279-.642a.953.953 0 0 1 .676-.267c.261 0 .485.089.67.267.19.178.285.392.285.642s-.095.464-.285.642a.932.932 0 0 1-.67.267Zm6.774 10.364c-.841 0-1.566-.186-2.176-.557a3.736 3.736 0 0 1-1.403-1.568c-.326-.674-.489-1.459-.489-2.353 0-.893.163-1.681.489-2.363.329-.686.787-1.22 1.375-1.602.59-.387 1.28-.58 2.068-.58.454 0 .903.076 1.346.227.444.152.847.398 1.211.739.363.337.653.784.869 1.34.216.558.324 1.243.324 2.058v.568h-6.728v-1.16h5.364c0-.492-.098-.931-.295-1.317a2.232 2.232 0 0 0-.83-.915c-.356-.224-.776-.335-1.261-.335-.534 0-.996.132-1.387.397a2.623 2.623 0 0 0-.892 1.023c-.208.42-.312.871-.312 1.352v.773c0 .66.113 1.218.341 1.676.231.455.551.801.96 1.04.409.235.884.352 1.426.352.352 0 .671-.049.955-.147.288-.103.536-.254.744-.455.208-.205.369-.458.483-.761l1.295.363a2.86 2.86 0 0 1-.687 1.159c-.322.33-.72.587-1.193.773a4.425 4.425 0 0 1-1.597.273Zm6.994-11.818V102h-1.34V90.364h1.34Zm5.752 11.818c-.727 0-1.369-.184-1.926-.551-.557-.372-.993-.894-1.307-1.569-.314-.677-.472-1.479-.472-2.403 0-.917.158-1.712.472-2.386.314-.674.752-1.195 1.312-1.563.561-.367 1.209-.55 1.944-.55.568 0 1.017.094 1.346.283.334.186.587.398.762.636.178.235.316.429.414.58h.114v-4.295h1.341V102h-1.296v-1.341h-.159c-.098.159-.238.36-.42.602-.182.239-.441.453-.779.642-.337.186-.786.279-1.346.279Zm.182-1.205c.538 0 .992-.14 1.363-.42.372-.284.654-.676.847-1.176.193-.504.29-1.085.29-1.745 0-.651-.095-1.221-.284-1.71-.19-.492-.47-.875-.841-1.148-.372-.276-.83-.414-1.375-.414-.569 0-1.042.145-1.421.437-.375.288-.657.68-.846 1.176a4.666 4.666 0 0 0-.279 1.66c0 .62.095 1.185.284 1.692.193.504.478.906.853 1.205.378.296.848.443 1.409.443Z"/>
  <rect width="306" height="49" x="348.5" y="72" stroke="#F4CE71" stroke-width="2" rx="24.5"/>
  <rect width="305" height="49" x="348.5" y="143" fill="#fff" rx="24.5"/>
  <path fill="#1E4460" d="M380.756 161.364V173h-2.108v-11.636h2.108Zm4.248 6.522V173h-2.057v-8.727h1.966v1.483h.103c.2-.489.52-.877.96-1.165.443-.288.99-.432 1.642-.432.602 0 1.127.129 1.574.386a2.6 2.6 0 0 1 1.045 1.12c.25.488.373 1.081.37 1.778V173h-2.057v-5.239c0-.583-.152-1.039-.455-1.369-.299-.33-.714-.494-1.244-.494-.36 0-.68.079-.96.238a1.659 1.659 0 0 0-.654.676c-.155.296-.233.654-.233 1.074Zm12.114-3.613v1.591h-5.159v-1.591h5.159ZM393.249 173v-9.551c0-.587.121-1.076.363-1.466a2.3 2.3 0 0 1 .989-.875c.413-.193.871-.29 1.375-.29.356 0 .672.029.949.085.276.057.481.108.613.154l-.409 1.591a3.562 3.562 0 0 0-.329-.08 2.019 2.019 0 0 0-.443-.045c-.383 0-.654.093-.813.278-.155.182-.233.443-.233.784V173h-2.062Zm7.537-11.636V173h-2.057v-11.636h2.057Zm7.677 7.966v-5.057h2.057V173h-1.994v-1.551h-.091a2.63 2.63 0 0 1-.972 1.199c-.447.31-.998.466-1.653.466-.572 0-1.078-.127-1.517-.381a2.648 2.648 0 0 1-1.023-1.119c-.246-.493-.369-1.087-.369-1.784v-5.557h2.056v5.238c0 .553.152.993.455 1.319.303.325.701.488 1.193.488.303 0 .597-.074.881-.221a1.8 1.8 0 0 0 .699-.659c.185-.296.278-.665.278-1.108Zm8.036 3.84c-.875 0-1.631-.181-2.267-.545a3.689 3.689 0 0 1-1.461-1.557c-.341-.674-.511-1.468-.511-2.38 0-.898.17-1.686.511-2.364a3.872 3.872 0 0 1 1.443-1.591c.618-.383 1.343-.574 2.177-.574.538 0 1.045.087 1.522.261.481.171.906.436 1.273.796.371.36.663.818.875 1.375.212.553.318 1.212.318 1.977v.631h-7.153v-1.387h5.182a2.214 2.214 0 0 0-.256-1.051c-.167-.31-.4-.555-.699-.733a1.963 1.963 0 0 0-1.034-.267c-.42 0-.79.103-1.108.307a2.114 2.114 0 0 0-.744.796 2.29 2.29 0 0 0-.267 1.074v1.21c0 .507.093.943.278 1.307.186.359.445.636.779.829.333.189.723.284 1.17.284.299 0 .57-.041.812-.125.243-.087.453-.214.631-.381.178-.166.313-.373.404-.619l1.92.216a2.991 2.991 0 0 1-.693 1.33 3.385 3.385 0 0 1-1.296.875c-.526.204-1.128.306-1.806.306Zm7.677-5.284V173h-2.057v-8.727h1.966v1.483h.103c.2-.489.52-.877.96-1.165.443-.288.99-.432 1.642-.432.602 0 1.127.129 1.574.386.45.258.799.631 1.045 1.12.25.488.373 1.081.369 1.778V173h-2.056v-5.239c0-.583-.152-1.039-.455-1.369-.299-.33-.714-.494-1.244-.494-.36 0-.68.079-.961.238a1.663 1.663 0 0 0-.653.676c-.155.296-.233.654-.233 1.074Zm11.5 5.284c-.871 0-1.619-.191-2.244-.573a3.834 3.834 0 0 1-1.438-1.586c-.333-.678-.5-1.458-.5-2.341 0-.886.171-1.668.512-2.346a3.819 3.819 0 0 1 1.443-1.591c.625-.383 1.364-.574 2.216-.574.708 0 1.335.131 1.88.392.55.258.987.623 1.313 1.097.326.469.511 1.019.557 1.647h-1.966c-.08-.42-.269-.77-.568-1.051-.296-.284-.692-.426-1.188-.426-.42 0-.79.114-1.108.341-.318.224-.566.546-.744.966-.174.42-.261.924-.261 1.511 0 .595.087 1.106.261 1.534.174.425.418.752.733.983a1.87 1.87 0 0 0 1.119.341c.303 0 .574-.057.813-.17.242-.118.445-.286.608-.506.163-.22.274-.487.335-.801h1.966a3.42 3.42 0 0 1-.546 1.642 3.222 3.222 0 0 1-1.284 1.114c-.541.265-1.178.397-1.909.397Zm9.291 0c-.875 0-1.63-.181-2.267-.545a3.692 3.692 0 0 1-1.46-1.557c-.341-.674-.511-1.468-.511-2.38 0-.898.17-1.686.511-2.364a3.872 3.872 0 0 1 1.443-1.591c.618-.383 1.343-.574 2.176-.574a4.41 4.41 0 0 1 1.523.261c.481.171.905.436 1.273.796.371.36.663.818.875 1.375.212.553.318 1.212.318 1.977v.631h-7.153v-1.387h5.181a2.213 2.213 0 0 0-.255-1.051c-.167-.31-.4-.555-.699-.733a1.966 1.966 0 0 0-1.034-.267c-.421 0-.79.103-1.108.307a2.114 2.114 0 0 0-.744.796 2.28 2.28 0 0 0-.268 1.074v1.21c0 .507.093.943.279 1.307.185.359.445.636.778.829.334.189.724.284 1.171.284.299 0 .57-.041.812-.125.243-.087.453-.214.631-.381.178-.166.312-.373.403-.619l1.921.216a2.991 2.991 0 0 1-.693 1.33 3.392 3.392 0 0 1-1.296.875c-.526.204-1.129.306-1.807.306Zm5.621-.17v-8.727h1.994v1.454h.091c.159-.504.432-.892.818-1.165a2.259 2.259 0 0 1 1.336-.414c.113 0 .24.005.38.017.144.007.264.021.358.04v1.892a2.117 2.117 0 0 0-.414-.08 3.906 3.906 0 0 0-.54-.04c-.375 0-.712.082-1.012.245-.295.159-.528.38-.698.664a1.869 1.869 0 0 0-.256.983V173h-2.057Zm13.242-6.42-1.875.204a1.507 1.507 0 0 0-.279-.534 1.376 1.376 0 0 0-.523-.403c-.219-.103-.488-.154-.806-.154-.428 0-.788.093-1.08.279-.288.185-.43.426-.426.721a.754.754 0 0 0 .278.619c.194.16.512.29.955.393l1.488.318c.826.178 1.44.46 1.841.846.406.387.61.892.614 1.517a2.377 2.377 0 0 1-.483 1.455c-.314.417-.752.742-1.312.977-.561.235-1.205.352-1.932.352-1.068 0-1.928-.223-2.58-.67-.651-.451-1.04-1.078-1.165-1.881l2.006-.193c.091.394.284.691.58.892.295.201.68.301 1.153.301.489 0 .881-.1 1.176-.301.299-.201.449-.449.449-.744a.771.771 0 0 0-.29-.619c-.189-.163-.485-.288-.886-.375l-1.489-.313c-.837-.174-1.456-.468-1.858-.881-.401-.416-.6-.943-.596-1.579-.004-.538.142-1.004.437-1.398.3-.398.714-.704 1.245-.92.534-.22 1.149-.33 1.846-.33 1.023 0 1.828.218 2.415.653.591.436.956 1.025 1.097 1.768Zm6.554 6.42v-8.727h1.34V173h-1.34Zm.681-10.182a.955.955 0 0 1-.676-.267.86.86 0 0 1-.278-.642.86.86 0 0 1 .278-.642.955.955 0 0 1 .676-.267c.262 0 .485.089.671.267a.851.851 0 0 1 .284.642c0 .25-.095.464-.284.642a.935.935 0 0 1-.671.267Zm4.456 4.932V173h-1.341v-8.727h1.296v1.363h.113c.205-.443.516-.799.932-1.068.417-.273.955-.409 1.614-.409.591 0 1.108.121 1.551.364.443.238.788.602 1.034 1.091.246.484.369 1.098.369 1.841V173h-1.34v-5.455c0-.685-.178-1.219-.535-1.602-.356-.386-.844-.579-1.465-.579-.428 0-.811.092-1.148.278a1.992 1.992 0 0 0-.79.813c-.193.356-.29.787-.29 1.295Zm13.382 8.523a2.93 2.93 0 0 1-.608-.057 1.601 1.601 0 0 1-.369-.102l.341-1.182c.326.083.614.113.864.091.25-.023.471-.135.664-.335.197-.197.377-.518.54-.961l.25-.682-3.227-8.772h1.454l2.41 6.954h.09l2.41-6.954h1.454l-3.704 10c-.167.45-.374.824-.62 1.119a2.321 2.321 0 0 1-.858.665 2.643 2.643 0 0 1-1.091.216Zm11.276-3.091c-.788 0-1.479-.188-2.074-.563-.591-.375-1.053-.899-1.386-1.574-.33-.674-.495-1.462-.495-2.363 0-.909.165-1.703.495-2.381.333-.678.795-1.204 1.386-1.579.595-.375 1.286-.563 2.074-.563.788 0 1.477.188 2.068.563.595.375 1.057.901 1.387 1.579.333.678.5 1.472.5 2.381 0 .901-.167 1.689-.5 2.363-.33.675-.792 1.199-1.387 1.574-.591.375-1.28.563-2.068.563Zm0-1.205c.598 0 1.091-.153 1.477-.46.387-.307.673-.71.858-1.21.186-.5.279-1.042.279-1.625 0-.584-.093-1.127-.279-1.631a2.732 2.732 0 0 0-.858-1.221c-.386-.311-.879-.466-1.477-.466-.599 0-1.091.155-1.477.466-.387.31-.673.717-.858 1.221a4.672 4.672 0 0 0-.279 1.631c0 .583.093 1.125.279 1.625.185.5.471.903.858 1.21.386.307.878.46 1.477.46Zm11.501-2.545v-5.159h1.341V173h-1.341v-1.477h-.091c-.204.443-.522.82-.954 1.13-.432.307-.977.461-1.636.461-.546 0-1.031-.12-1.455-.358-.424-.243-.758-.606-1-1.091-.242-.489-.364-1.104-.364-1.847v-5.545h1.341v5.454c0 .637.178 1.144.534 1.523.36.379.819.568 1.375.568.334 0 .673-.085 1.017-.256.349-.17.641-.431.875-.784.239-.352.358-.801.358-1.346Zm3.797 3.568v-8.727h1.296v1.318h.091c.159-.432.447-.782.863-1.051a2.544 2.544 0 0 1 1.409-.404c.099 0 .222.002.37.006.147.004.259.01.335.017v1.364a3.462 3.462 0 0 0-.313-.051 3.014 3.014 0 0 0-.505-.04c-.425 0-.803.089-1.137.267a2.019 2.019 0 0 0-.784.727 1.963 1.963 0 0 0-.284 1.051V173h-1.341Zm10.453 0v-8.727h1.341V173h-1.341Zm.682-10.182a.953.953 0 0 1-.676-.267.856.856 0 0 1-.278-.642c0-.25.092-.464.278-.642a.953.953 0 0 1 .676-.267c.262 0 .485.089.671.267a.851.851 0 0 1 .284.642c0 .25-.095.464-.284.642a.935.935 0 0 1-.671.267Zm4.456 4.932V173h-1.341v-8.727h1.296v1.363h.113c.205-.443.516-.799.932-1.068.417-.273.955-.409 1.614-.409.591 0 1.108.121 1.551.364.443.238.788.602 1.034 1.091.246.484.369 1.098.369 1.841V173h-1.341v-5.455c0-.685-.178-1.219-.534-1.602-.356-.386-.844-.579-1.466-.579-.428 0-.81.092-1.147.278a1.985 1.985 0 0 0-.79.813c-.193.356-.29.787-.29 1.295Zm11.314 5.432c-.727 0-1.369-.184-1.926-.551-.557-.372-.992-.894-1.307-1.569-.314-.678-.471-1.479-.471-2.403 0-.917.157-1.712.471-2.386.315-.675.752-1.195 1.313-1.563.56-.367 1.208-.551 1.943-.551.568 0 1.017.095 1.346.284.334.186.588.398.762.637.178.234.316.428.415.579h.113v-4.295h1.341V173h-1.295v-1.341h-.159c-.099.159-.239.36-.421.602-.182.239-.441.453-.778.642-.337.186-.786.279-1.347.279Zm.182-1.205c.538 0 .992-.14 1.364-.42.371-.284.653-.676.846-1.176.193-.504.29-1.086.29-1.745 0-.651-.095-1.221-.284-1.71-.19-.492-.47-.875-.841-1.148-.371-.276-.83-.414-1.375-.414-.568 0-1.042.145-1.421.437-.375.288-.657.68-.846 1.176a4.67 4.67 0 0 0-.279 1.659c0 .622.095 1.186.285 1.694.193.503.477.905.852 1.204.379.296.848.443 1.409.443Zm11.96-2.545v-5.159h1.341V173h-1.341v-1.477h-.091c-.204.443-.522.82-.954 1.13-.432.307-.978.461-1.637.461a2.92 2.92 0 0 1-1.454-.358c-.424-.243-.758-.606-1-1.091-.243-.489-.364-1.104-.364-1.847v-5.545h1.341v5.454c0 .637.178 1.144.534 1.523.36.379.818.568 1.375.568.333 0 .672-.085 1.017-.256.349-.17.64-.431.875-.784.239-.352.358-.801.358-1.346Zm9.979-3.205-1.205.341a2.197 2.197 0 0 0-.335-.585 1.63 1.63 0 0 0-.591-.477c-.25-.125-.57-.188-.96-.188-.534 0-.979.123-1.335.37-.353.242-.529.551-.529.926 0 .333.122.596.364.789.242.194.621.355 1.136.483l1.296.319c.78.189 1.361.479 1.744.869.383.386.574.884.574 1.494 0 .5-.144.947-.432 1.341-.284.394-.682.705-1.193.932-.511.227-1.106.341-1.784.341-.89 0-1.627-.193-2.21-.58-.584-.386-.953-.95-1.108-1.693l1.272-.318c.122.47.351.822.688 1.057.341.235.786.352 1.335.352.625 0 1.121-.133 1.489-.398.371-.269.557-.591.557-.966 0-.303-.106-.556-.319-.761-.212-.208-.537-.364-.977-.466l-1.454-.341c-.8-.189-1.387-.483-1.762-.88-.371-.402-.557-.904-.557-1.506 0-.493.139-.928.415-1.307a2.82 2.82 0 0 1 1.142-.892c.485-.216 1.034-.324 1.648-.324.864 0 1.542.189 2.034.568.496.379.849.879 1.057 1.5Zm5.973-1.954v1.136h-4.523v-1.136h4.523Zm-3.205-2.091h1.341v8.318c0 .379.055.663.165.852a.853.853 0 0 0 .432.375c.178.061.365.091.562.091.148 0 .269-.007.364-.023l.227-.045.273 1.205a2.74 2.74 0 0 1-.381.102 2.792 2.792 0 0 1-.619.057 2.7 2.7 0 0 1-1.114-.245 2.208 2.208 0 0 1-.897-.744c-.235-.333-.353-.754-.353-1.261v-8.682ZM572.493 173v-8.727h1.295v1.318h.091c.159-.432.447-.782.864-1.051a2.542 2.542 0 0 1 1.409-.404c.098 0 .222.002.369.006.148.004.26.01.336.017v1.364a3.462 3.462 0 0 0-.313-.051 3.026 3.026 0 0 0-.506-.04c-.424 0-.803.089-1.136.267-.33.174-.591.417-.784.727a1.963 1.963 0 0 0-.284 1.051V173h-1.341Zm7.082 3.273a2.93 2.93 0 0 1-.608-.057 1.601 1.601 0 0 1-.369-.102l.341-1.182c.326.083.614.113.864.091.25-.023.471-.135.664-.335.197-.197.377-.518.54-.961l.25-.682-3.227-8.772h1.454l2.409 6.954h.091l2.409-6.954h1.455l-3.705 10c-.166.45-.373.824-.619 1.119a2.321 2.321 0 0 1-.858.665 2.643 2.643 0 0 1-1.091.216Zm11.25-15.455-3.75 13.932h-1.227l3.75-13.932h1.227Zm5.476 3.455v1.136h-4.704v-1.136h4.704ZM593.006 173v-9.932c0-.5.117-.916.352-1.25a2.19 2.19 0 0 1 .915-.75c.375-.166.771-.25 1.187-.25.33 0 .599.027.807.08.208.053.364.102.466.147l-.386 1.16a6.067 6.067 0 0 0-.285-.086 1.718 1.718 0 0 0-.465-.051c-.444 0-.764.112-.961.335-.193.224-.289.552-.289.983V173h-1.341Zm5.174 0v-8.727h1.341V173h-1.341Zm.682-10.182a.953.953 0 0 1-.676-.267.856.856 0 0 1-.278-.642c0-.25.092-.464.278-.642a.953.953 0 0 1 .676-.267c.262 0 .485.089.671.267a.851.851 0 0 1 .284.642c0 .25-.095.464-.284.642a.935.935 0 0 1-.671.267Zm6.774 10.364c-.841 0-1.566-.186-2.176-.557a3.736 3.736 0 0 1-1.403-1.568c-.326-.674-.489-1.459-.489-2.352 0-.894.163-1.682.489-2.364.329-.686.788-1.22 1.375-1.602.591-.387 1.28-.58 2.068-.58.455 0 .903.076 1.347.227.443.152.846.398 1.21.739.363.337.653.784.869 1.341.216.557.324 1.242.324 2.057v.568h-6.727v-1.159h5.363c0-.493-.098-.932-.295-1.318a2.219 2.219 0 0 0-.83-.915c-.356-.224-.776-.335-1.261-.335-.534 0-.996.132-1.386.397a2.617 2.617 0 0 0-.892 1.023 2.997 2.997 0 0 0-.313 1.352v.773c0 .659.114 1.218.341 1.676.231.455.551.801.96 1.04.409.235.885.352 1.426.352.353 0 .671-.049.955-.147.288-.103.536-.254.744-.455.209-.205.37-.458.483-.761l1.296.363c-.137.44-.366.826-.688 1.159-.322.33-.72.587-1.193.773a4.425 4.425 0 0 1-1.597.273Zm6.995-11.818V173h-1.341v-11.636h1.341Zm5.751 11.818c-.727 0-1.369-.184-1.926-.551-.557-.372-.992-.894-1.307-1.569-.314-.678-.471-1.479-.471-2.403 0-.917.157-1.712.471-2.386.315-.675.752-1.195 1.313-1.563.56-.367 1.208-.551 1.943-.551.568 0 1.017.095 1.346.284.334.186.588.398.762.637.178.234.316.428.415.579h.113v-4.295h1.341V173h-1.295v-1.341h-.159c-.099.159-.239.36-.421.602-.182.239-.441.453-.778.642-.337.186-.786.279-1.347.279Zm.182-1.205c.538 0 .992-.14 1.364-.42.371-.284.653-.676.846-1.176.193-.504.29-1.086.29-1.745 0-.651-.095-1.221-.284-1.71-.19-.492-.47-.875-.841-1.148-.371-.276-.83-.414-1.375-.414-.568 0-1.042.145-1.421.437-.375.288-.657.68-.846 1.176a4.67 4.67 0 0 0-.279 1.659c0 .622.095 1.186.285 1.694.193.503.477.905.852 1.204.379.296.848.443 1.409.443Z"/>
  <rect width="305" height="49" x="348.5" y="143" stroke="#F4CE71" stroke-width="2" rx="24.5"/>
  <rect width="348" height="49" x="348.5" y="214" fill="#fff" rx="24.5"/>
  <path fill="#1E4460" d="M378.648 244v-11.636h4.363c.894 0 1.644.155 2.25.466.61.31 1.07.746 1.381 1.306.314.557.472 1.207.472 1.949 0 .746-.159 1.394-.478 1.943-.314.546-.778.968-1.392 1.267-.613.296-1.367.444-2.261.444h-3.108v-1.75h2.824c.523 0 .951-.072 1.284-.216.333-.148.58-.362.739-.642.162-.284.244-.633.244-1.046 0-.413-.082-.765-.244-1.057a1.552 1.552 0 0 0-.745-.67c-.333-.155-.763-.233-1.289-.233h-1.932V244h-2.108Zm6.011-5.273L387.54 244h-2.352l-2.83-5.273h2.301Zm8.043 5.443c-.875 0-1.631-.181-2.267-.545a3.689 3.689 0 0 1-1.461-1.557c-.34-.674-.511-1.468-.511-2.38 0-.898.171-1.686.511-2.364a3.867 3.867 0 0 1 1.444-1.591c.617-.383 1.342-.574 2.176-.574.538 0 1.045.087 1.522.261.482.171.906.436 1.273.796.371.36.663.818.875 1.375.212.553.318 1.212.318 1.977v.631h-7.153v-1.387h5.182a2.214 2.214 0 0 0-.256-1.051c-.167-.31-.4-.555-.699-.733a1.963 1.963 0 0 0-1.034-.267c-.42 0-.79.103-1.108.307a2.114 2.114 0 0 0-.744.796 2.29 2.29 0 0 0-.267 1.074v1.21c0 .507.093.943.278 1.307.186.359.445.636.779.829.333.189.723.284 1.17.284.299 0 .57-.041.813-.125.242-.087.452-.214.63-.381.178-.166.313-.373.404-.619l1.92.216a2.991 2.991 0 0 1-.693 1.33 3.388 3.388 0 0 1-1.295.875c-.527.204-1.129.306-1.807.306Zm9.427 0c-.871 0-1.619-.191-2.244-.573a3.84 3.84 0 0 1-1.438-1.586c-.333-.678-.5-1.458-.5-2.341 0-.886.171-1.668.512-2.346a3.819 3.819 0 0 1 1.443-1.591c.625-.383 1.364-.574 2.216-.574.708 0 1.335.131 1.881.392.549.258.986.623 1.312 1.097.326.469.511 1.019.557 1.647h-1.966c-.08-.42-.269-.77-.568-1.051-.296-.284-.691-.426-1.188-.426-.42 0-.789.114-1.108.341-.318.224-.566.546-.744.966-.174.42-.261.924-.261 1.511 0 .595.087 1.106.261 1.534.174.425.419.752.733.983a1.87 1.87 0 0 0 1.119.341c.303 0 .574-.057.813-.17.242-.118.445-.286.608-.506.163-.22.274-.487.335-.801h1.966a3.42 3.42 0 0 1-.546 1.642 3.222 3.222 0 0 1-1.284 1.114c-.541.265-1.178.397-1.909.397Zm5.428-.17v-8.727h1.994v1.454h.091c.159-.504.432-.892.818-1.165.39-.276.835-.414 1.335-.414.114 0 .241.005.381.017.144.007.263.021.358.04v1.892a2.114 2.114 0 0 0-.415-.08 3.88 3.88 0 0 0-.539-.04c-.375 0-.713.082-1.012.245-.295.159-.528.38-.699.664-.17.284-.255.612-.255.983V244h-2.057Zm11.906-3.67v-5.057h2.057V244h-1.994v-1.551h-.091a2.63 2.63 0 0 1-.972 1.199c-.447.31-.998.466-1.653.466-.572 0-1.078-.127-1.517-.381a2.648 2.648 0 0 1-1.023-1.119c-.246-.493-.369-1.087-.369-1.784v-5.557h2.056v5.238c0 .553.152.993.455 1.319.303.325.701.488 1.193.488.303 0 .597-.074.881-.221a1.8 1.8 0 0 0 .699-.659c.185-.296.278-.665.278-1.108Zm4.172 3.67v-8.727h2.057V244h-2.057Zm1.034-9.966a1.2 1.2 0 0 1-.841-.324 1.042 1.042 0 0 1-.352-.79c0-.31.117-.573.352-.789.235-.22.515-.33.841-.33.33 0 .61.11.841.33.235.216.352.479.352.789 0 .307-.117.571-.352.79a1.186 1.186 0 0 1-.841.324Zm7.496 1.239v1.591h-5.017v-1.591h5.017Zm-3.779-2.091h2.057v8.193c0 .277.042.489.125.636a.676.676 0 0 0 .341.296c.14.053.296.079.466.079.129 0 .246-.009.352-.028.11-.019.193-.036.25-.051l.347 1.608c-.11.038-.267.079-.472.125-.2.045-.447.072-.738.079a3.343 3.343 0 0 1-1.392-.233 2.163 2.163 0 0 1-.983-.806c-.239-.364-.356-.819-.353-1.364v-8.534Zm9.269 10.988c-.875 0-1.631-.181-2.267-.545a3.68 3.68 0 0 1-1.46-1.557c-.341-.674-.512-1.468-.512-2.38 0-.898.171-1.686.512-2.364a3.858 3.858 0 0 1 1.443-1.591c.617-.383 1.343-.574 2.176-.574.538 0 1.045.087 1.523.261.481.171.905.436 1.272.796.372.36.663.818.875 1.375.212.553.319 1.212.319 1.977v.631h-7.154v-1.387h5.182a2.214 2.214 0 0 0-.256-1.051 1.854 1.854 0 0 0-.699-.733 1.963 1.963 0 0 0-1.034-.267c-.42 0-.789.103-1.108.307a2.114 2.114 0 0 0-.744.796 2.29 2.29 0 0 0-.267 1.074v1.21c0 .507.093.943.278 1.307.186.359.445.636.779.829.333.189.723.284 1.17.284.299 0 .57-.041.813-.125.242-.087.452-.214.63-.381.178-.166.313-.373.404-.619l1.92.216a2.991 2.991 0 0 1-.693 1.33 3.388 3.388 0 0 1-1.295.875c-.527.204-1.129.306-1.807.306Zm5.621-.17v-8.727h1.994v1.454h.091c.159-.504.432-.892.818-1.165.39-.276.835-.414 1.335-.414.114 0 .241.005.381.017.144.007.263.021.358.04v1.892a2.13 2.13 0 0 0-.415-.08 3.895 3.895 0 0 0-.54-.04c-.375 0-.712.082-1.011.245-.296.159-.528.38-.699.664-.17.284-.256.612-.256.983V244h-2.056Zm13.241-6.42-1.875.204a1.52 1.52 0 0 0-.278-.534 1.376 1.376 0 0 0-.523-.403c-.22-.103-.489-.154-.807-.154-.428 0-.788.093-1.079.279-.288.185-.43.426-.427.721a.755.755 0 0 0 .279.619c.193.16.511.29.954.393l1.489.318c.826.178 1.439.46 1.841.846.405.387.61.892.614 1.517a2.377 2.377 0 0 1-.483 1.455c-.315.417-.752.742-1.313.977-.561.235-1.204.352-1.932.352-1.068 0-1.928-.223-2.579-.67-.652-.451-1.04-1.078-1.165-1.881l2.006-.193c.091.394.284.691.579.892.296.201.68.301 1.154.301.488 0 .88-.1 1.176-.301.299-.201.449-.449.449-.744a.774.774 0 0 0-.29-.619c-.19-.163-.485-.288-.887-.375l-1.488-.313c-.837-.174-1.457-.468-1.858-.881-.402-.416-.601-.943-.597-1.579-.004-.538.142-1.004.438-1.398.299-.398.714-.704 1.244-.92.534-.22 1.15-.33 1.847-.33 1.022 0 1.827.218 2.414.653.591.436.957 1.025 1.097 1.768Zm6.554 6.42v-8.727h1.341V244h-1.341Zm.682-10.182a.951.951 0 0 1-.676-.267.857.857 0 0 1-.279-.642c0-.25.093-.464.279-.642a.951.951 0 0 1 .676-.267c.261 0 .485.089.67.267.19.178.284.392.284.642s-.094.464-.284.642a.932.932 0 0 1-.67.267Zm4.456 4.932V244h-1.341v-8.727h1.295v1.363h.114c.205-.443.515-.799.932-1.068.416-.273.954-.409 1.613-.409.591 0 1.108.121 1.552.364.443.238.787.602 1.034 1.091.246.484.369 1.098.369 1.841V244h-1.341v-5.455c0-.685-.178-1.219-.534-1.602-.356-.386-.845-.579-1.466-.579-.428 0-.811.092-1.148.278a1.99 1.99 0 0 0-.789.813c-.194.356-.29.787-.29 1.295Zm13.382 8.523a2.93 2.93 0 0 1-.608-.057 1.601 1.601 0 0 1-.369-.102l.341-1.182c.325.083.613.113.863.091a1.04 1.04 0 0 0 .665-.335c.197-.197.377-.518.54-.961l.25-.682-3.228-8.772h1.455l2.409 6.954H484l2.409-6.954h1.455l-3.705 10c-.167.45-.373.824-.619 1.119a2.321 2.321 0 0 1-.858.665 2.646 2.646 0 0 1-1.091.216Zm11.275-3.091c-.787 0-1.479-.188-2.073-.563-.591-.375-1.053-.899-1.387-1.574-.329-.674-.494-1.462-.494-2.363 0-.909.165-1.703.494-2.381.334-.678.796-1.204 1.387-1.579.594-.375 1.286-.563 2.073-.563.788 0 1.478.188 2.069.563.594.375 1.056.901 1.386 1.579.333.678.5 1.472.5 2.381 0 .901-.167 1.689-.5 2.363a3.772 3.772 0 0 1-1.386 1.574c-.591.375-1.281.563-2.069.563Zm0-1.205c.599 0 1.091-.153 1.478-.46a2.72 2.72 0 0 0 .858-1.21c.185-.5.278-1.042.278-1.625 0-.584-.093-1.127-.278-1.631a2.748 2.748 0 0 0-.858-1.221c-.387-.311-.879-.466-1.478-.466-.598 0-1.09.155-1.477.466-.386.31-.672.717-.858 1.221a4.695 4.695 0 0 0-.278 1.631c0 .583.093 1.125.278 1.625.186.5.472.903.858 1.21.387.307.879.46 1.477.46Zm11.502-2.545v-5.159h1.341V244h-1.341v-1.477h-.091c-.205.443-.523.82-.955 1.13-.431.307-.977.461-1.636.461a2.92 2.92 0 0 1-1.454-.358c-.425-.243-.758-.606-1-1.091-.243-.489-.364-1.104-.364-1.847v-5.545h1.341v5.454c0 .637.178 1.144.534 1.523.36.379.818.568 1.375.568.333 0 .672-.085 1.017-.256.348-.17.64-.431.875-.784.239-.352.358-.801.358-1.346Zm3.797 3.568v-8.727h1.295v1.318h.091c.159-.432.447-.782.864-1.051a2.54 2.54 0 0 1 1.409-.404c.098 0 .221.002.369.006s.26.01.335.017v1.364a3.351 3.351 0 0 0-.312-.051 3.026 3.026 0 0 0-.506-.04c-.424 0-.803.089-1.136.267a1.954 1.954 0 0 0-1.068 1.778V244h-1.341Zm10.453 0v-8.727h1.341V244h-1.341Zm.682-10.182a.951.951 0 0 1-.676-.267.857.857 0 0 1-.279-.642c0-.25.093-.464.279-.642a.951.951 0 0 1 .676-.267c.261 0 .485.089.67.267.19.178.284.392.284.642s-.094.464-.284.642a.932.932 0 0 1-.67.267Zm4.456 4.932V244h-1.341v-8.727h1.295v1.363h.114c.204-.443.515-.799.932-1.068.416-.273.954-.409 1.613-.409.591 0 1.108.121 1.551.364.444.238.788.602 1.035 1.091.246.484.369 1.098.369 1.841V244h-1.341v-5.455c0-.685-.178-1.219-.534-1.602-.356-.386-.845-.579-1.466-.579-.428 0-.811.092-1.148.278a1.998 1.998 0 0 0-.79.813c-.193.356-.289.787-.289 1.295Zm11.814-3.477v1.136h-4.523v-1.136h4.523Zm-3.205-2.091h1.341v8.318c0 .379.055.663.165.852a.845.845 0 0 0 .432.375c.178.061.365.091.562.091.148 0 .269-.007.364-.023l.227-.045.273 1.205a2.74 2.74 0 0 1-.381.102 2.792 2.792 0 0 1-.619.057 2.7 2.7 0 0 1-1.114-.245 2.217 2.217 0 0 1-.898-.744c-.235-.333-.352-.754-.352-1.261v-8.682Zm8.787 11c-.841 0-1.566-.186-2.176-.557a3.744 3.744 0 0 1-1.404-1.568c-.325-.674-.488-1.459-.488-2.352 0-.894.163-1.682.488-2.364.33-.686.788-1.22 1.375-1.602.591-.387 1.281-.58 2.069-.58.454 0 .903.076 1.346.227.443.152.847.398 1.21.739.364.337.654.784.87 1.341.216.557.324 1.242.324 2.057v.568h-6.728v-1.159h5.364c0-.493-.098-.932-.295-1.318a2.226 2.226 0 0 0-.83-.915c-.356-.224-.777-.335-1.261-.335-.534 0-.997.132-1.387.397a2.633 2.633 0 0 0-.892 1.023 3.01 3.01 0 0 0-.312 1.352v.773c0 .659.113 1.218.341 1.676.231.455.551.801.96 1.04.409.235.884.352 1.426.352.352 0 .67-.049.955-.147.287-.103.536-.254.744-.455.208-.205.369-.458.483-.761l1.295.363a2.86 2.86 0 0 1-.687 1.159c-.322.33-.72.587-1.193.773a4.425 4.425 0 0 1-1.597.273Zm5.653-.182v-8.727h1.296v1.318h.091c.159-.432.447-.782.863-1.051a2.544 2.544 0 0 1 1.409-.404c.099 0 .222.002.37.006a5.5 5.5 0 0 1 .335.017v1.364a3.416 3.416 0 0 0-.312-.051 3.035 3.035 0 0 0-.506-.04 2.38 2.38 0 0 0-1.137.267c-.329.174-.59.417-.784.727a1.963 1.963 0 0 0-.284 1.051V244h-1.341Zm9.347.182c-.841 0-1.566-.186-2.176-.557a3.744 3.744 0 0 1-1.404-1.568c-.325-.674-.488-1.459-.488-2.352 0-.894.163-1.682.488-2.364.33-.686.788-1.22 1.375-1.602.591-.387 1.281-.58 2.069-.58.454 0 .903.076 1.346.227.443.152.847.398 1.21.739.364.337.654.784.87 1.341.216.557.324 1.242.324 2.057v.568h-6.728v-1.159h5.364c0-.493-.098-.932-.295-1.318a2.226 2.226 0 0 0-.83-.915c-.356-.224-.777-.335-1.261-.335-.534 0-.997.132-1.387.397a2.633 2.633 0 0 0-.892 1.023 3.01 3.01 0 0 0-.312 1.352v.773c0 .659.113 1.218.341 1.676.231.455.551.801.96 1.04.409.235.884.352 1.426.352.352 0 .67-.049.955-.147.287-.103.536-.254.744-.455.208-.205.369-.458.483-.761l1.295.363a2.86 2.86 0 0 1-.687 1.159c-.322.33-.72.587-1.193.773a4.425 4.425 0 0 1-1.597.273Zm11.835-6.955-1.204.341a2.229 2.229 0 0 0-.336-.585 1.617 1.617 0 0 0-.59-.477c-.25-.125-.571-.188-.961-.188-.534 0-.979.123-1.335.37-.352.242-.528.551-.528.926 0 .333.121.596.363.789.243.194.622.355 1.137.483l1.295.319c.78.189 1.362.479 1.744.869.383.386.574.884.574 1.494 0 .5-.144.947-.432 1.341-.284.394-.681.705-1.193.932-.511.227-1.106.341-1.784.341-.89 0-1.627-.193-2.21-.58-.583-.386-.953-.95-1.108-1.693l1.273-.318c.121.47.35.822.687 1.057.341.235.786.352 1.335.352.625 0 1.122-.133 1.489-.398.371-.269.557-.591.557-.966 0-.303-.106-.556-.318-.761-.212-.208-.538-.364-.978-.466l-1.454-.341c-.799-.189-1.386-.483-1.761-.88-.372-.402-.557-.904-.557-1.506 0-.493.138-.928.415-1.307a2.82 2.82 0 0 1 1.142-.892c.484-.216 1.034-.324 1.647-.324.864 0 1.542.189 2.034.568.497.379.849.879 1.057 1.5Zm5.973-1.954v1.136h-4.522v-1.136h4.522Zm-3.204-2.091h1.341v8.318c0 .379.055.663.164.852a.853.853 0 0 0 .432.375c.178.061.366.091.563.091.147 0 .269-.007.363-.023l.228-.045.272 1.205a2.72 2.72 0 0 1-.38.102c-.163.038-.37.057-.62.057-.378 0-.75-.082-1.113-.245a2.217 2.217 0 0 1-.898-.744c-.235-.333-.352-.754-.352-1.261v-8.682Zm8.787 11c-.841 0-1.567-.186-2.177-.557a3.742 3.742 0 0 1-1.403-1.568c-.326-.674-.489-1.459-.489-2.352 0-.894.163-1.682.489-2.364.33-.686.788-1.22 1.375-1.602.591-.387 1.28-.58 2.068-.58.455 0 .904.076 1.347.227.443.152.846.398 1.21.739.364.337.653.784.869 1.341.216.557.324 1.242.324 2.057v.568h-6.727v-1.159h5.364c0-.493-.099-.932-.296-1.318a2.223 2.223 0 0 0-.829-.915c-.356-.224-.777-.335-1.262-.335-.534 0-.996.132-1.386.397a2.625 2.625 0 0 0-.892 1.023 3.01 3.01 0 0 0-.313 1.352v.773c0 .659.114 1.218.341 1.676.231.455.551.801.96 1.04.41.235.885.352 1.427.352.352 0 .67-.049.954-.147.288-.103.536-.254.744-.455.209-.205.37-.458.483-.761l1.296.363c-.136.44-.366.826-.688 1.159-.322.33-.719.587-1.193.773a4.416 4.416 0 0 1-1.596.273Zm8.948 0c-.727 0-1.369-.184-1.926-.551-.556-.372-.992-.894-1.306-1.569-.315-.678-.472-1.479-.472-2.403 0-.917.157-1.712.472-2.386.314-.675.751-1.195 1.312-1.563.561-.367 1.208-.551 1.943-.551.568 0 1.017.095 1.347.284.333.186.587.398.761.637.178.234.316.428.415.579h.114v-4.295h1.34V244h-1.295v-1.341h-.159c-.099.159-.239.36-.421.602-.181.239-.441.453-.778.642-.337.186-.786.279-1.347.279Zm.182-1.205c.538 0 .993-.14 1.364-.42.371-.284.653-.676.847-1.176.193-.504.289-1.086.289-1.745 0-.651-.094-1.221-.284-1.71-.189-.492-.469-.875-.841-1.148-.371-.276-.829-.414-1.375-.414-.568 0-1.041.145-1.42.437-.375.288-.657.68-.847 1.176a4.694 4.694 0 0 0-.278 1.659c0 .622.095 1.186.284 1.694.193.503.477.905.852 1.204.379.296.849.443 1.409.443Zm10.961 4.296v-12h1.295v1.386h.159c.099-.151.235-.345.409-.579.178-.239.432-.451.762-.637.333-.189.784-.284 1.352-.284.735 0 1.382.184 1.943.551.561.368.998.888 1.312 1.563.315.674.472 1.469.472 2.386 0 .924-.157 1.725-.472 2.403-.314.675-.75 1.197-1.306 1.569-.557.367-1.199.551-1.926.551-.561 0-1.01-.093-1.347-.279-.337-.189-.597-.403-.778-.642a8.677 8.677 0 0 1-.421-.602h-.114v4.614h-1.34Zm1.318-7.637c0 .659.096 1.241.289 1.745.194.5.476.892.847 1.176.371.28.826.42 1.364.42.56 0 1.028-.147 1.403-.443.379-.299.663-.701.852-1.204.194-.508.29-1.072.29-1.694 0-.613-.095-1.166-.284-1.659-.186-.496-.468-.888-.847-1.176-.375-.292-.846-.437-1.414-.437-.546 0-1.004.138-1.375.414-.372.273-.652.656-.841 1.148-.19.489-.284 1.059-.284 1.71Zm11.977 4.546c-.788 0-1.479-.188-2.074-.563-.591-.375-1.053-.899-1.386-1.574-.33-.674-.495-1.462-.495-2.363 0-.909.165-1.703.495-2.381.333-.678.795-1.204 1.386-1.579.595-.375 1.286-.563 2.074-.563.788 0 1.477.188 2.068.563.595.375 1.057.901 1.387 1.579.333.678.5 1.472.5 2.381 0 .901-.167 1.689-.5 2.363-.33.675-.792 1.199-1.387 1.574-.591.375-1.28.563-2.068.563Zm0-1.205c.598 0 1.091-.153 1.477-.46.387-.307.673-.71.858-1.21.186-.5.279-1.042.279-1.625 0-.584-.093-1.127-.279-1.631a2.732 2.732 0 0 0-.858-1.221c-.386-.311-.879-.466-1.477-.466-.599 0-1.091.155-1.477.466-.387.31-.673.717-.858 1.221a4.672 4.672 0 0 0-.279 1.631c0 .583.093 1.125.279 1.625.185.5.471.903.858 1.21.386.307.878.46 1.477.46Zm12.183-5.75-1.204.341a2.229 2.229 0 0 0-.336-.585 1.617 1.617 0 0 0-.59-.477c-.25-.125-.571-.188-.961-.188-.534 0-.979.123-1.335.37-.352.242-.528.551-.528.926 0 .333.121.596.363.789.243.194.622.355 1.137.483l1.295.319c.78.189 1.362.479 1.744.869.383.386.574.884.574 1.494 0 .5-.144.947-.432 1.341-.284.394-.681.705-1.193.932-.511.227-1.106.341-1.784.341-.89 0-1.627-.193-2.21-.58-.583-.386-.953-.95-1.108-1.693l1.273-.318c.121.47.35.822.687 1.057.341.235.786.352 1.335.352.625 0 1.122-.133 1.489-.398.371-.269.557-.591.557-.966 0-.303-.106-.556-.318-.761-.212-.208-.538-.364-.978-.466l-1.454-.341c-.799-.189-1.386-.483-1.761-.88-.372-.402-.557-.904-.557-1.506 0-.493.138-.928.415-1.307a2.82 2.82 0 0 1 1.142-.892c.484-.216 1.034-.324 1.647-.324.864 0 1.542.189 2.034.568.497.379.849.879 1.057 1.5ZM627.29 244v-8.727h1.341V244h-1.341Zm.682-10.182a.955.955 0 0 1-.677-.267.86.86 0 0 1-.278-.642.86.86 0 0 1 .278-.642.955.955 0 0 1 .677-.267c.261 0 .484.089.67.267a.851.851 0 0 1 .284.642c0 .25-.095.464-.284.642a.934.934 0 0 1-.67.267Zm6.91 1.455v1.136h-4.523v-1.136h4.523Zm-3.204-2.091h1.34v8.318c0 .379.055.663.165.852a.853.853 0 0 0 .432.375c.178.061.366.091.563.091.147 0 .268-.007.363-.023l.227-.045.273 1.205a2.76 2.76 0 0 1-.38.102c-.163.038-.37.057-.62.057-.379 0-.75-.082-1.113-.245a2.21 2.21 0 0 1-.898-.744c-.235-.333-.352-.754-.352-1.261v-8.682ZM636.899 244v-8.727h1.341V244h-1.341Zm.682-10.182a.953.953 0 0 1-.676-.267.857.857 0 0 1-.279-.642c0-.25.093-.464.279-.642a.953.953 0 0 1 .676-.267c.261 0 .485.089.67.267.19.178.285.392.285.642s-.095.464-.285.642a.932.932 0 0 1-.67.267Zm6.66 10.364c-.787 0-1.479-.188-2.073-.563-.591-.375-1.053-.899-1.387-1.574-.329-.674-.494-1.462-.494-2.363 0-.909.165-1.703.494-2.381.334-.678.796-1.204 1.387-1.579.594-.375 1.286-.563 2.073-.563.788 0 1.478.188 2.069.563.594.375 1.056.901 1.386 1.579.333.678.5 1.472.5 2.381 0 .901-.167 1.689-.5 2.363a3.772 3.772 0 0 1-1.386 1.574c-.591.375-1.281.563-2.069.563Zm0-1.205c.599 0 1.091-.153 1.478-.46a2.72 2.72 0 0 0 .858-1.21c.185-.5.278-1.042.278-1.625 0-.584-.093-1.127-.278-1.631a2.748 2.748 0 0 0-.858-1.221c-.387-.311-.879-.466-1.478-.466-.598 0-1.09.155-1.477.466-.386.31-.672.717-.858 1.221a4.695 4.695 0 0 0-.278 1.631c0 .583.093 1.125.278 1.625.186.5.472.903.858 1.21.387.307.879.46 1.477.46Zm7.343-4.227V244h-1.341v-8.727h1.295v1.363h.114c.205-.443.515-.799.932-1.068.416-.273.954-.409 1.613-.409.591 0 1.108.121 1.552.364.443.238.787.602 1.034 1.091.246.484.369 1.098.369 1.841V244h-1.341v-5.455c0-.685-.178-1.219-.534-1.602-.356-.386-.845-.579-1.466-.579-.428 0-.811.092-1.148.278a1.99 1.99 0 0 0-.789.813c-.194.356-.29.787-.29 1.295Zm14.2-1.523-1.204.341a2.229 2.229 0 0 0-.336-.585 1.63 1.63 0 0 0-.591-.477c-.25-.125-.57-.188-.96-.188-.534 0-.979.123-1.335.37-.352.242-.528.551-.528.926 0 .333.121.596.363.789.243.194.621.355 1.137.483l1.295.319c.78.189 1.362.479 1.744.869.383.386.574.884.574 1.494 0 .5-.144.947-.432 1.341-.284.394-.681.705-1.193.932-.511.227-1.106.341-1.784.341-.89 0-1.627-.193-2.21-.58-.583-.386-.953-.95-1.108-1.693l1.273-.318c.121.47.35.822.687 1.057.341.235.786.352 1.335.352.625 0 1.122-.133 1.489-.398.371-.269.557-.591.557-.966 0-.303-.106-.556-.318-.761-.212-.208-.538-.364-.978-.466l-1.454-.341c-.799-.189-1.387-.483-1.762-.88-.371-.402-.556-.904-.556-1.506 0-.493.138-.928.414-1.307a2.827 2.827 0 0 1 1.142-.892c.485-.216 1.035-.324 1.648-.324.864 0 1.542.189 2.034.568.496.379.849.879 1.057 1.5Z"/>
  <rect width="348" height="49" x="348.5" y="214" stroke="#F4CE71" stroke-width="2" rx="24.5"/>
  <path fill="#F4CE71" d="M224.5 126a1 1 0 0 0 0 2v-2Zm119.707-99.793a1 1 0 0 0 0-1.414l-6.364-6.364a1 1 0 1 0-1.414 1.414l5.657 5.657-5.657 5.657a1 1 0 1 0 1.414 1.414l6.364-6.364ZM224.5 128h19v-2h-19v2Zm44-25V49.5h-2V103h2Zm23-76.5h52v-2h-52v2Zm-23 23c0-12.703 10.297-23 23-23v-2c-13.807 0-25 11.193-25 25h2Zm-25 78.5c13.807 0 25-11.193 25-25h-2c0 12.703-10.297 23-23 23v2Z"/>
  <path fill="#F4CE71" d="M224.5 126a1 1 0 0 0 0 2v-2Zm119.707 42.207a.999.999 0 0 0 0-1.414l-6.364-6.364a.999.999 0 1 0-1.414 1.414l5.657 5.657-5.657 5.657a.999.999 0 1 0 1.414 1.414l6.364-6.364ZM224.5 128h18.75v-2H224.5v2Zm59.25 40.5h59.75v-2h-59.75v2Zm-21.25-21.25c0 11.736 9.514 21.25 21.25 21.25v-2c-10.631 0-19.25-8.619-19.25-19.25h-2ZM243.25 128c10.631 0 19.25 8.619 19.25 19.25h2c0-11.736-9.514-21.25-21.25-21.25v2Z"/>
  <path fill="#F4CE71" d="M224.5 126a1 1 0 0 0 0 2v-2Zm119.707 113.207a.999.999 0 0 0 0-1.414l-6.364-6.364a.999.999 0 1 0-1.414 1.414l5.657 5.657-5.657 5.657a.999.999 0 1 0 1.414 1.414l6.364-6.364ZM224.5 128h15.998v-2H224.5v2Zm38.998 23v63.5h2V151h-2Zm25 88.5H343.5v-2h-55.002v2Zm-25-25c0 13.807 11.193 25 25 25v-2c-12.703 0-23-10.297-23-23h-2Zm-23-86.5c12.703 0 23 10.297 23 23h2c0-13.807-11.193-25-25-25v2Z"/>
  <path fill="#F4CE71" d="M224.5 126a1 1 0 0 0 0 2v-2Zm119.707-28.793a1 1 0 0 0 0-1.414l-6.364-6.364a1 1 0 1 0-1.414 1.414l5.657 5.657-5.657 5.657a.999.999 0 1 0 1.414 1.414l6.364-6.364ZM224.5 128h25.75v-2H224.5v2Zm56.25-30.5h62.75v-2h-62.75v2Zm-14.25 14.25c0-7.87 6.38-14.25 14.25-14.25v-2c-8.975 0-16.25 7.275-16.25 16.25h2ZM250.25 128c8.975 0 16.25-7.275 16.25-16.25h-2c0 7.87-6.38 14.25-14.25 14.25v2Z"/>
</svg>
