<svg xmlns="http://www.w3.org/2000/svg" width="872" height="193" fill="none" viewBox="0 0 872 193">
  <rect width="276" height="60" y="67" fill="#F4CE71" rx="30"/>
  <path fill="#000" d="m28.367 104-3.8-13.2h3.66l2.24 10.42 2.36-10.42h3.12l2.42 10.4 2.2-10.4h3.54l-3.82 13.2h-3.74l-1.56-6.4-.6-3.22h-.04l-.58 3.22-1.54 6.4h-3.86Zm17.162 0V89.76h3.4v6.06c.293-.667.713-1.167 1.26-1.5.546-.347 1.18-.52 1.9-.52.693 0 1.293.133 1.8.4.52.267.926.66 1.22 1.18.293.52.44 1.173.44 1.96V104h-3.4v-5.72c0-.72-.134-1.213-.4-1.48-.254-.28-.594-.42-1.02-.42-.32 0-.62.08-.9.24-.28.16-.5.413-.66.76-.16.347-.24.8-.24 1.36V104h-3.4ZM67.58 94l-3.64 10c-.374 1.053-.78 1.893-1.22 2.52-.44.627-.96 1.08-1.56 1.36-.6.28-1.32.42-2.16.42-.56 0-1.074-.06-1.54-.18a4.42 4.42 0 0 1-1.22-.5l.68-2.3c.24.173.493.293.76.36.266.08.606.12 1.02.12.386 0 .7-.067.94-.2.253-.133.453-.387.6-.76l.26-.62-1.16-2.72-3-7.5h3.74l1.54 5.7.48 2.12.56-2.2L64.2 94h3.38Zm12.643-3.4c1.333 0 2.48.273 3.44.82a5.38 5.38 0 0 1 2.24 2.32c.52 1.013.78 2.233.78 3.66s-.26 2.647-.78 3.66a5.505 5.505 0 0 1-2.24 2.34c-.96.533-2.107.8-3.44.8-1.334 0-2.487-.267-3.46-.8a5.505 5.505 0 0 1-2.24-2.34c-.52-1.013-.78-2.233-.78-3.66s.26-2.647.78-3.66a5.38 5.38 0 0 1 2.24-2.32c.973-.547 2.126-.82 3.46-.82Zm0 2.7c-.64 0-1.18.153-1.62.46-.44.307-.774.767-1 1.38-.227.6-.34 1.353-.34 2.26 0 .893.113 1.647.34 2.26.226.613.56 1.073 1 1.38.44.307.98.46 1.62.46.64 0 1.173-.153 1.6-.46.44-.307.773-.767 1-1.38.226-.613.34-1.367.34-2.26 0-.907-.114-1.66-.34-2.26-.227-.613-.56-1.073-1-1.38-.427-.307-.96-.46-1.6-.46ZM88.77 104V94h3.04l.18 3.44-.38-.38c.133-.72.366-1.32.7-1.8.346-.48.773-.84 1.28-1.08a3.92 3.92 0 0 1 1.74-.38c.693 0 1.293.133 1.8.4.52.267.926.66 1.22 1.18.293.52.44 1.173.44 1.96V104h-3.4v-5.76c0-.693-.134-1.173-.4-1.44-.267-.267-.607-.4-1.02-.4-.32 0-.62.08-.9.24-.28.147-.5.387-.66.72-.16.333-.24.78-.24 1.34v5.3h-3.4Zm15.762-14.24v10.84c0 .44.073.753.22.94.147.187.393.28.74.28.2 0 .367-.013.5-.04.133-.027.293-.067.48-.12l-.22 2.04c-.24.147-.553.267-.94.36a4.87 4.87 0 0 1-1.14.14c-1.067 0-1.84-.247-2.32-.74-.48-.493-.72-1.3-.72-2.42V89.76h3.4Zm4.883 3.08c-.693 0-1.2-.127-1.52-.38-.307-.267-.46-.68-.46-1.24 0-.573.153-.987.46-1.24.32-.267.827-.4 1.52-.4.68 0 1.18.133 1.5.4.32.253.48.667.48 1.24 0 .56-.16.973-.48 1.24-.32.253-.82.38-1.5.38Zm1.7 1.16v10h-3.4V94h3.4Zm2.42 10V94h3.04l.18 3.44-.38-.38c.134-.72.367-1.32.7-1.8.347-.48.774-.84 1.28-1.08a3.92 3.92 0 0 1 1.74-.38c.694 0 1.294.133 1.8.4.52.267.927.66 1.22 1.18.294.52.44 1.173.44 1.96V104h-3.4v-5.76c0-.693-.133-1.173-.4-1.44-.266-.267-.606-.4-1.02-.4-.32 0-.62.08-.9.24-.28.147-.5.387-.66.72-.16.333-.24.78-.24 1.34v5.3h-3.4Zm17.283.2c-1.107 0-2.067-.207-2.88-.62a4.436 4.436 0 0 1-1.86-1.78c-.44-.773-.66-1.707-.66-2.8 0-1.093.22-2.027.66-2.8a4.463 4.463 0 0 1 1.84-1.78c.8-.413 1.713-.62 2.74-.62 1.053 0 1.946.207 2.68.62.746.4 1.313.96 1.7 1.68.386.707.58 1.52.58 2.44 0 .24-.007.48-.02.72-.014.24-.034.44-.06.6h-7.92v-1.82h6.42l-1.62.62c0-.8-.147-1.413-.44-1.84-.28-.427-.72-.64-1.32-.64-.427 0-.794.1-1.1.3-.294.2-.52.513-.68.94-.147.427-.22.973-.22 1.64 0 .653.086 1.187.26 1.6.173.4.42.693.74.88.32.173.706.26 1.16.26.506 0 .906-.1 1.2-.3.306-.2.533-.48.68-.84l2.72.9a3.203 3.203 0 0 1-.98 1.46c-.454.387-1 .68-1.64.88-.627.2-1.287.3-1.98.3Zm18.724-13.4c1.08 0 2 .173 2.76.52.76.347 1.34.847 1.74 1.5.4.653.6 1.447.6 2.38 0 .933-.2 1.727-.6 2.38-.4.653-.98 1.153-1.74 1.5s-1.68.52-2.76.52h-2.62v4.4h-3.44V90.8h6.06Zm-.54 6.22c.72 0 1.26-.147 1.62-.44.374-.307.56-.767.56-1.38 0-.613-.186-1.067-.56-1.36-.36-.307-.9-.46-1.62-.46h-2.08v3.64h2.08Zm10.96-7.26v10.84c0 .44.073.753.22.94.146.187.393.28.74.28.2 0 .366-.013.5-.04.133-.027.293-.067.48-.12l-.22 2.04c-.24.147-.554.267-.94.36a4.87 4.87 0 0 1-1.14.14c-1.067 0-1.84-.247-2.32-.74-.48-.493-.72-1.3-.72-2.42V89.76h3.4Zm8.919 7.9c0-.467-.133-.833-.4-1.1-.253-.28-.6-.42-1.04-.42-.44 0-.82.113-1.14.34-.307.213-.52.6-.64 1.16l-2.88-.68c.187-.96.68-1.727 1.48-2.3.8-.573 1.927-.86 3.38-.86.973 0 1.8.147 2.48.44.693.28 1.22.707 1.58 1.28.373.56.56 1.253.56 2.08v3.66c0 .52.233.78.7.78.24 0 .433-.027.58-.08l-.2 1.94c-.4.187-.887.28-1.46.28-.52 0-.98-.08-1.38-.24a2.132 2.132 0 0 1-.94-.76c-.227-.347-.34-.78-.34-1.3v-.12l.38-.14c0 .573-.173 1.053-.52 1.44-.333.387-.773.673-1.32.86a5.037 5.037 0 0 1-1.68.28c-.68 0-1.273-.107-1.78-.32-.507-.213-.9-.52-1.18-.92-.267-.413-.4-.92-.4-1.52 0-.72.213-1.313.64-1.78.44-.48 1.127-.813 2.06-1l3.78-.78-.02 1.8-1.92.4c-.4.08-.7.2-.9.36-.187.147-.28.373-.28.68 0 .293.107.513.32.66.213.147.467.22.76.22a2 2 0 0 0 .64-.1c.213-.067.4-.167.56-.3.16-.147.287-.327.38-.54.093-.213.14-.467.14-.76v-2.64Zm9.791-6.84v9.62c0 .48.114.827.34 1.04.24.2.567.3.98.3.32 0 .594-.033.82-.1.24-.08.454-.193.64-.34l.36 2.1c-.333.24-.753.427-1.26.56-.506.133-1.026.2-1.56.2-.76 0-1.42-.107-1.98-.32a2.634 2.634 0 0 1-1.28-1.02c-.293-.467-.446-1.087-.46-1.86v-9.24l3.4-.94Zm2.98 3.18v2.42h-8.1V94h8.1Zm6.075-4.52c.546 0 1.026.06 1.44.18.413.107.72.233.92.38l-.34 2.12a1.91 1.91 0 0 0-.5-.22 2.595 2.595 0 0 0-.7-.08c-.467 0-.854.107-1.16.32-.294.213-.44.587-.44 1.12v1.3l.2.56V104h-3.4V93.08c0-.64.1-1.187.3-1.64.213-.453.506-.827.88-1.12a3.61 3.61 0 0 1 1.28-.64c.48-.133.986-.2 1.52-.2Zm2.26 4.52v2.42h-7.84V94h7.84Zm6.043-.2c1.053 0 1.973.207 2.76.62.8.4 1.42.993 1.86 1.78.453.773.68 1.707.68 2.8 0 1.093-.227 2.033-.68 2.82a4.436 4.436 0 0 1-1.86 1.78c-.787.4-1.707.6-2.76.6-1.027 0-1.94-.2-2.74-.6a4.562 4.562 0 0 1-1.88-1.78c-.44-.787-.66-1.727-.66-2.82 0-1.093.22-2.027.66-2.8a4.4 4.4 0 0 1 1.88-1.78c.8-.413 1.713-.62 2.74-.62Zm0 2.42c-.387 0-.72.093-1 .28-.28.187-.494.487-.64.9-.147.413-.22.947-.22 1.6 0 .653.073 1.187.22 1.6.146.4.36.7.64.9.28.187.613.28 1 .28.4 0 .74-.093 1.02-.28.28-.2.493-.5.64-.9.146-.413.22-.947.22-1.6 0-.653-.074-1.187-.22-1.6-.147-.413-.36-.713-.64-.9-.28-.187-.62-.28-1.02-.28Zm7.212 7.78V94h3l.14 2.16c.254-.747.627-1.327 1.12-1.74.507-.413 1.147-.62 1.92-.62.254 0 .467.02.64.06.187.04.334.093.44.16l-.34 2.8a2.137 2.137 0 0 0-.52-.12c-.2-.04-.446-.06-.74-.06-.4 0-.773.087-1.12.26a2.06 2.06 0 0 0-.84.78c-.2.333-.3.76-.3 1.28V104h-3.4Zm8.594 0V94h3.04l.1 1.94c.32-.707.767-1.24 1.34-1.6.587-.36 1.26-.54 2.02-.54.747 0 1.394.167 1.94.5.547.333.954.827 1.22 1.48a3.46 3.46 0 0 1 .82-1.1c.347-.293.74-.513 1.18-.66.44-.147.894-.22 1.36-.22.667 0 1.254.133 1.76.4.507.253.907.647 1.2 1.18.307.52.46 1.173.46 1.96V104h-3.4v-5.88c0-.64-.126-1.087-.38-1.34-.24-.253-.566-.38-.98-.38-.333 0-.64.087-.92.26-.266.16-.473.407-.62.74-.146.333-.22.753-.22 1.26V104h-3.4v-5.88c0-.64-.126-1.087-.38-1.34-.253-.253-.58-.38-.98-.38-.306 0-.6.08-.88.24-.266.16-.48.413-.64.76-.16.333-.24.773-.24 1.32V104h-3.4Zm23.028.2c-1 0-1.933-.16-2.8-.48-.853-.333-1.56-.807-2.12-1.42l1.6-1.88c.334.427.774.787 1.32 1.08a4.1 4.1 0 0 0 1.86.42c.414 0 .754-.06 1.02-.18.267-.12.4-.307.4-.56a.53.53 0 0 0-.2-.44c-.133-.12-.4-.22-.8-.3l-1.4-.28c-1.253-.253-2.146-.627-2.68-1.12-.52-.507-.78-1.167-.78-1.98 0-.547.167-1.067.5-1.56.334-.507.847-.913 1.54-1.22.694-.32 1.58-.48 2.66-.48 1.014 0 1.907.147 2.68.44.774.293 1.387.72 1.84 1.28l-1.62 1.84a3.26 3.26 0 0 0-1.24-.94 3.691 3.691 0 0 0-1.52-.34c-.32 0-.593.033-.82.1-.213.053-.373.133-.48.24a.545.545 0 0 0-.16.4c0 .173.08.327.24.46.174.12.487.227.94.32l1.82.36c1.027.187 1.767.527 2.22 1.02.454.493.68 1.087.68 1.78a3.1 3.1 0 0 1-.52 1.76c-.346.52-.866.933-1.56 1.24-.693.293-1.566.44-2.62.44Zm10.779-13.6c.987 0 1.867.14 2.64.42.774.267 1.38.68 1.82 1.24.454.547.68 1.233.68 2.06s-.173 1.5-.52 2.02a3.185 3.185 0 0 1-1.38 1.16 6.518 6.518 0 0 1-1.9.5l-.2 1.72h-3l.02-3.04c.84-.08 1.5-.2 1.98-.36.494-.173.84-.387 1.04-.64.2-.253.3-.553.3-.9 0-.307-.066-.567-.2-.78a1.109 1.109 0 0 0-.56-.48c-.24-.107-.56-.16-.96-.16-.573 0-1.026.173-1.36.52-.333.333-.546.833-.64 1.5l-3.28-1.14a4.95 4.95 0 0 1 .9-1.86c.44-.56 1.034-.993 1.78-1.3.76-.32 1.707-.48 2.84-.48Zm-.32 10.22c.6 0 1.067.147 1.4.44.347.293.52.707.52 1.24 0 .52-.173.927-.52 1.22-.333.293-.8.44-1.4.44-.586 0-1.053-.147-1.4-.44-.333-.293-.5-.7-.5-1.22 0-.533.167-.947.5-1.24.347-.293.814-.44 1.4-.44Z"/>
  <rect width="320" height="49" x="406" y="1" fill="#fff" rx="24.5"/>
  <path fill="#1E4460" d="M435.773 20.614v-1.25h8.727v1.25h-3.659V31h-1.409V20.614h-3.659Zm13 10.568c-.788 0-1.479-.188-2.074-.563-.591-.375-1.053-.9-1.387-1.573-.329-.675-.494-1.463-.494-2.364 0-.91.165-1.703.494-2.38.334-.679.796-1.205 1.387-1.58.595-.375 1.286-.563 2.074-.563.788 0 1.477.188 2.068.563.595.375 1.057.901 1.386 1.58.334.677.5 1.47.5 2.38 0 .901-.166 1.69-.5 2.364a3.763 3.763 0 0 1-1.386 1.573c-.591.375-1.28.563-2.068.563Zm0-1.205c.598 0 1.091-.153 1.477-.46a2.72 2.72 0 0 0 .858-1.21c.186-.5.278-1.042.278-1.625s-.092-1.127-.278-1.63a2.755 2.755 0 0 0-.858-1.223c-.386-.31-.879-.465-1.477-.465-.599 0-1.091.155-1.478.465a2.747 2.747 0 0 0-.857 1.222 4.672 4.672 0 0 0-.279 1.63c0 .584.093 1.126.279 1.626.185.5.471.903.857 1.21.387.307.879.46 1.478.46Zm13.069 1.227a3.54 3.54 0 0 1-1.505-.312 2.582 2.582 0 0 1-1.074-.915c-.265-.401-.398-.886-.398-1.454 0-.5.099-.906.296-1.216.196-.315.46-.56.789-.739.33-.178.693-.31 1.091-.398.402-.09.805-.162 1.21-.216.531-.068.961-.119 1.29-.153.334-.038.576-.1.727-.187.156-.088.233-.239.233-.455v-.045c0-.561-.153-.997-.46-1.307-.303-.31-.763-.466-1.38-.466-.641 0-1.143.14-1.506.42-.364.28-.619.58-.767.898l-1.273-.454c.227-.53.53-.944.909-1.24a3.419 3.419 0 0 1 1.25-.624 5.196 5.196 0 0 1 1.341-.182c.28 0 .602.034.966.102.367.065.722.2 1.062.404.345.204.631.513.858.926.228.413.341.966.341 1.659V31h-1.341v-1.182h-.068c-.091.19-.242.392-.454.608-.212.216-.495.4-.847.551-.352.152-.782.227-1.29.227Zm.205-1.204c.53 0 .977-.104 1.341-.313a2.124 2.124 0 0 0 1.113-1.846v-1.227c-.056.068-.181.13-.375.187a6.29 6.29 0 0 1-.659.142 29.56 29.56 0 0 1-1.284.17 5.19 5.19 0 0 0-.977.222 1.681 1.681 0 0 0-.727.45c-.182.196-.273.465-.273.806 0 .466.172.818.517 1.057.348.235.79.352 1.324.352Zm10.038-7.727v1.136h-4.523v-1.136h4.523Zm-3.204-2.091h1.341V28.5c0 .379.055.663.164.852.114.186.258.31.432.375.178.06.366.091.563.091.147 0 .269-.007.363-.023l.228-.045.272 1.204a2.713 2.713 0 0 1-.38.103c-.163.038-.37.057-.62.057-.378 0-.75-.082-1.113-.245a2.215 2.215 0 0 1-.898-.744c-.235-.333-.352-.754-.352-1.261v-8.682Zm9.017 2.09v1.137h-4.523v-1.136h4.523Zm-3.205-2.09h1.341V28.5c0 .379.055.663.165.852.114.186.257.31.432.375.178.06.365.091.562.091.148 0 .269-.007.364-.023l.227-.045.273 1.204a2.733 2.733 0 0 1-.381.103 2.8 2.8 0 0 1-.619.057 2.7 2.7 0 0 1-1.114-.245 2.215 2.215 0 0 1-.898-.744c-.234-.333-.352-.754-.352-1.261v-8.682ZM479.915 31v-8.727h1.295v1.318h.091c.159-.432.447-.782.864-1.051a2.54 2.54 0 0 1 1.409-.404c.098 0 .221.002.369.006s.26.01.335.017v1.364a3.926 3.926 0 0 0-.312-.051 3.08 3.08 0 0 0-.506-.04c-.424 0-.803.089-1.136.267a1.955 1.955 0 0 0-1.068 1.778V31h-1.341Zm8.521.204a3.548 3.548 0 0 1-1.506-.312 2.585 2.585 0 0 1-1.073-.915c-.266-.401-.398-.886-.398-1.454 0-.5.098-.906.295-1.216.197-.315.46-.56.79-.739.33-.178.693-.31 1.091-.398.401-.09.805-.162 1.21-.216.53-.068.96-.119 1.29-.153.333-.038.576-.1.727-.187.156-.088.233-.239.233-.455v-.045c0-.561-.153-.997-.46-1.307-.303-.31-.763-.466-1.381-.466-.64 0-1.142.14-1.505.42-.364.28-.62.58-.767.898l-1.273-.454c.227-.53.53-.944.909-1.24a3.411 3.411 0 0 1 1.25-.624 5.184 5.184 0 0 1 1.341-.182c.28 0 .602.034.966.102.367.065.721.2 1.062.404.345.204.631.513.858.926.227.413.341.966.341 1.659V31h-1.341v-1.182h-.068c-.091.19-.242.392-.455.608-.212.216-.494.4-.846.551-.352.152-.782.227-1.29.227Zm.205-1.204c.53 0 .977-.104 1.341-.313a2.131 2.131 0 0 0 1.113-1.846v-1.227c-.057.068-.182.13-.375.187a6.29 6.29 0 0 1-.659.142 29.629 29.629 0 0 1-1.284.17 5.19 5.19 0 0 0-.977.222 1.68 1.68 0 0 0-.728.45c-.181.196-.272.465-.272.806 0 .466.172.818.517 1.057.348.235.79.352 1.324.352Zm9.788 1.182c-.818 0-1.523-.193-2.114-.58a3.774 3.774 0 0 1-1.363-1.596c-.318-.678-.478-1.453-.478-2.324 0-.886.163-1.669.489-2.347.33-.682.788-1.214 1.375-1.596.591-.387 1.28-.58 2.068-.58a3.91 3.91 0 0 1 1.659.341 3.18 3.18 0 0 1 1.211.954c.314.41.509.887.585 1.432h-1.341c-.102-.397-.33-.75-.682-1.056-.348-.311-.818-.466-1.409-.466-.523 0-.981.136-1.375.409-.39.269-.695.65-.915 1.142-.216.488-.324 1.062-.324 1.721 0 .675.106 1.262.319 1.762.215.5.518.888.909 1.165.394.276.856.414 1.386.414a2.4 2.4 0 0 0 .949-.181c.284-.122.524-.296.721-.523a2 2 0 0 0 .421-.819h1.341a3.101 3.101 0 0 1-1.739 2.37c-.485.238-1.049.358-1.693.358Zm9.187-8.91v1.137h-4.522v-1.136h4.522Zm-3.204-2.09h1.341V28.5c0 .379.055.663.165.852a.85.85 0 0 0 .431.375c.178.06.366.091.563.091.148 0 .269-.007.364-.023l.227-.045.273 1.204a2.733 2.733 0 0 1-.381.103 2.8 2.8 0 0 1-.619.057 2.7 2.7 0 0 1-1.114-.245 2.215 2.215 0 0 1-.898-.744c-.235-.333-.352-.754-.352-1.261v-8.682ZM514.134 31v-8.727h1.34V31h-1.34Zm.681-10.182a.954.954 0 0 1-.676-.267.86.86 0 0 1-.278-.642.86.86 0 0 1 .278-.642.955.955 0 0 1 .676-.267c.262 0 .485.089.671.267a.851.851 0 0 1 .284.642c0 .25-.095.464-.284.642a.934.934 0 0 1-.671.267Zm4.456 4.932V31h-1.341v-8.727h1.296v1.363h.113a2.5 2.5 0 0 1 .932-1.068c.417-.273.955-.409 1.614-.409.591 0 1.108.121 1.551.364a2.45 2.45 0 0 1 1.034 1.09c.246.486.369 1.1.369 1.841V31h-1.34v-5.454c0-.686-.178-1.22-.535-1.603-.356-.386-.844-.58-1.465-.58a2.34 2.34 0 0 0-1.148.279 1.994 1.994 0 0 0-.79.813c-.193.356-.29.787-.29 1.295Zm11.314 5.432c-.727 0-1.369-.184-1.926-.551-.557-.372-.992-.894-1.307-1.569-.314-.678-.471-1.479-.471-2.403 0-.917.157-1.712.471-2.386.315-.674.752-1.195 1.313-1.563.56-.367 1.208-.55 1.943-.55.568 0 1.017.094 1.347.283.333.186.587.398.761.636.178.235.316.429.415.58h.113v-4.295h1.341V31h-1.295v-1.34h-.159a8.77 8.77 0 0 1-.421.601c-.182.239-.441.453-.778.642-.337.186-.786.279-1.347.279Zm.182-1.205c.538 0 .992-.14 1.364-.42.371-.284.653-.676.846-1.176.193-.504.29-1.085.29-1.745 0-.651-.095-1.221-.284-1.71-.189-.492-.47-.875-.841-1.148-.371-.276-.829-.414-1.375-.414-.568 0-1.042.145-1.42.437-.375.288-.658.68-.847 1.176a4.667 4.667 0 0 0-.278 1.66c0 .62.094 1.185.284 1.692.193.504.477.906.852 1.205.379.296.848.443 1.409.443Zm11.96-2.545v-5.16h1.341V31h-1.341v-1.477h-.091c-.204.443-.522.82-.954 1.13-.432.307-.977.46-1.637.46-.545 0-1.03-.119-1.454-.357-.424-.243-.758-.606-1-1.091-.243-.489-.364-1.104-.364-1.847v-5.545h1.341v5.454c0 .637.178 1.144.534 1.523.36.379.818.568 1.375.568.334 0 .673-.085 1.017-.256.349-.17.64-.431.875-.784.239-.352.358-.8.358-1.346Zm9.979-3.205-1.205.341a2.206 2.206 0 0 0-.335-.585 1.628 1.628 0 0 0-.591-.477c-.25-.125-.57-.188-.96-.188-.534 0-.979.123-1.335.37-.352.242-.529.55-.529.926 0 .333.122.596.364.79.242.193.621.354 1.136.482l1.296.319c.78.189 1.362.479 1.744.869.383.386.574.884.574 1.494 0 .5-.144.947-.432 1.341-.284.394-.682.705-1.193.932-.511.227-1.106.34-1.784.34-.89 0-1.627-.192-2.21-.579-.584-.386-.953-.95-1.108-1.693l1.273-.318c.121.47.35.822.687 1.057.341.235.786.352 1.335.352.625 0 1.121-.133 1.489-.398.371-.269.557-.59.557-.966 0-.303-.106-.556-.318-.761-.213-.208-.538-.364-.978-.466l-1.454-.34c-.8-.19-1.387-.484-1.762-.881-.371-.402-.556-.904-.556-1.506 0-.493.138-.928.414-1.307a2.828 2.828 0 0 1 1.142-.892c.485-.216 1.034-.324 1.648-.324.864 0 1.542.19 2.034.568.496.38.849.88 1.057 1.5Zm5.973-1.954v1.136h-4.523v-1.136h4.523Zm-3.205-2.091h1.341V28.5c0 .379.055.663.165.852.114.186.258.31.432.375.178.06.365.091.562.091.148 0 .269-.007.364-.023l.227-.045.273 1.204a2.733 2.733 0 0 1-.381.103 2.793 2.793 0 0 1-.619.057 2.7 2.7 0 0 1-1.114-.245 2.212 2.212 0 0 1-.897-.744c-.235-.333-.353-.754-.353-1.261v-8.682ZM560.696 31v-8.727h1.295v1.318h.091c.159-.432.447-.782.864-1.051a2.541 2.541 0 0 1 1.409-.404c.099 0 .222.002.369.006.148.004.26.01.336.017v1.364a4.073 4.073 0 0 0-.313-.051 3.071 3.071 0 0 0-.506-.04c-.424 0-.803.089-1.136.267a2.016 2.016 0 0 0-.784.727 1.964 1.964 0 0 0-.284 1.051V31h-1.341Zm7.082 3.273a3 3 0 0 1-.608-.057 1.597 1.597 0 0 1-.369-.102l.341-1.182c.326.083.614.113.864.09.25-.022.471-.134.664-.334.197-.198.377-.518.54-.96l.25-.683-3.227-8.772h1.455l2.409 6.954h.091l2.409-6.954h1.454l-3.704 10c-.167.45-.374.824-.62 1.119-.246.3-.532.52-.858.665a2.643 2.643 0 0 1-1.091.216ZM580.151 31v-8.727h2.056V31h-2.056Zm1.034-9.966a1.2 1.2 0 0 1-.841-.324 1.044 1.044 0 0 1-.353-.79c0-.31.118-.573.353-.79.235-.219.515-.329.841-.329.329 0 .61.11.841.33.234.216.352.479.352.79 0 .306-.118.57-.352.79a1.188 1.188 0 0 1-.841.323Zm5.194 4.852V31h-2.057v-8.727h1.966v1.483h.103c.2-.489.52-.877.96-1.165.443-.288.99-.432 1.642-.432.602 0 1.127.129 1.574.387.451.257.799.63 1.045 1.119.25.488.373 1.081.37 1.778V31h-2.057v-5.239c0-.583-.152-1.04-.455-1.369-.299-.33-.714-.494-1.244-.494-.36 0-.68.08-.96.238a1.655 1.655 0 0 0-.654.677c-.155.295-.233.653-.233 1.073Zm14.591-1.306-1.875.204a1.515 1.515 0 0 0-.278-.534 1.383 1.383 0 0 0-.523-.403 1.906 1.906 0 0 0-.807-.154c-.428 0-.788.093-1.079.279-.288.185-.43.426-.426.721a.755.755 0 0 0 .278.62c.193.159.511.29.954.392l1.489.318c.826.178 1.44.46 1.841.846.405.387.61.892.614 1.517a2.376 2.376 0 0 1-.483 1.455c-.315.417-.752.742-1.313.977-.56.235-1.204.352-1.932.352-1.068 0-1.928-.223-2.579-.67-.652-.45-1.04-1.078-1.165-1.88l2.006-.194c.091.394.284.691.579.892.296.2.68.301 1.154.301.488 0 .88-.1 1.176-.3.299-.202.449-.45.449-.745a.776.776 0 0 0-.29-.62c-.189-.162-.485-.287-.886-.375l-1.489-.312c-.837-.174-1.456-.468-1.858-.88-.402-.417-.6-.944-.597-1.58-.003-.538.142-1.004.438-1.398.299-.398.714-.704 1.244-.92.534-.22 1.15-.33 1.847-.33 1.023 0 1.827.218 2.415.654.59.435.956 1.024 1.096 1.767Zm1.884 6.42v-8.727h2.057V31h-2.057Zm1.034-9.966a1.2 1.2 0 0 1-.841-.324 1.043 1.043 0 0 1-.352-.79c0-.31.117-.573.352-.79.235-.219.515-.329.841-.329.329 0 .61.11.841.33.235.216.352.479.352.79 0 .306-.117.57-.352.79a1.188 1.188 0 0 1-.841.323Zm6.376 10.12a3.304 3.304 0 0 1-1.841-.529c-.541-.352-.969-.864-1.284-1.534-.314-.67-.471-1.485-.471-2.443 0-.97.159-1.788.477-2.455.322-.67.756-1.176 1.301-1.517a3.342 3.342 0 0 1 1.824-.517c.511 0 .932.087 1.261.262.33.17.591.376.784.619.194.238.343.464.449.676h.085v-4.352h2.063V31h-2.023v-1.375h-.125a3.498 3.498 0 0 1-.46.676 2.538 2.538 0 0 1-.795.602c-.33.167-.745.25-1.245.25Zm.574-1.688c.436 0 .807-.117 1.114-.352.307-.239.539-.57.699-.995.159-.424.238-.918.238-1.483 0-.564-.079-1.055-.238-1.471-.156-.417-.387-.74-.694-.972-.303-.23-.676-.346-1.119-.346-.458 0-.841.119-1.148.357-.306.24-.538.569-.693.99-.155.42-.233.9-.233 1.442 0 .546.078 1.033.233 1.46.159.425.392.76.699 1.006.311.243.691.364 1.142.364Zm10.129 1.704c-.875 0-1.63-.181-2.267-.545a3.698 3.698 0 0 1-1.46-1.557c-.341-.674-.511-1.468-.511-2.38 0-.898.17-1.686.511-2.364a3.87 3.87 0 0 1 1.443-1.591c.618-.383 1.343-.574 2.176-.574.538 0 1.046.087 1.523.262.481.17.905.435 1.273.795.371.36.663.818.875 1.375.212.553.318 1.212.318 1.977v.63h-7.153v-1.386h5.181a2.21 2.21 0 0 0-.255-1.05 1.863 1.863 0 0 0-.699-.734 1.966 1.966 0 0 0-1.034-.267c-.421 0-.79.103-1.108.307-.318.2-.566.466-.744.796a2.283 2.283 0 0 0-.268 1.073v1.21c0 .508.093.944.279 1.308.185.36.445.636.778.83.334.189.724.283 1.171.283.299 0 .57-.042.812-.125.243-.087.453-.214.631-.38.178-.167.312-.374.403-.62l1.921.216a2.99 2.99 0 0 1-.693 1.33 3.384 3.384 0 0 1-1.296.875c-.526.204-1.129.306-1.807.306Zm5.621-.17v-8.727h1.994v1.454h.091c.159-.503.432-.892.818-1.165a2.256 2.256 0 0 1 1.336-.414c.113 0 .24.005.38.017.144.007.264.02.358.04v1.892a2.162 2.162 0 0 0-.414-.08 3.828 3.828 0 0 0-.54-.04c-.375 0-.712.082-1.012.245-.295.159-.528.38-.698.664a1.868 1.868 0 0 0-.256.983V31h-2.057Zm13.242-6.42-1.875.204a1.501 1.501 0 0 0-.279-.534 1.383 1.383 0 0 0-.523-.403c-.219-.103-.488-.154-.806-.154-.428 0-.788.093-1.08.279-.288.185-.43.426-.426.721a.755.755 0 0 0 .278.62c.194.159.512.29.955.392l1.488.318c.826.178 1.44.46 1.841.846.406.387.61.892.614 1.517a2.376 2.376 0 0 1-.483 1.455c-.314.417-.752.742-1.312.977-.561.235-1.205.352-1.932.352-1.068 0-1.928-.223-2.58-.67-.651-.45-1.04-1.078-1.165-1.88l2.006-.194c.091.394.284.691.58.892.295.2.68.301 1.153.301.489 0 .881-.1 1.176-.3.299-.202.449-.45.449-.745a.773.773 0 0 0-.29-.62c-.189-.162-.485-.287-.886-.375l-1.489-.312c-.837-.174-1.456-.468-1.858-.88-.401-.417-.6-.944-.596-1.58-.004-.538.142-1.004.437-1.398.3-.398.714-.704 1.245-.92.534-.22 1.149-.33 1.846-.33 1.023 0 1.828.218 2.415.654.591.435.956 1.024 1.097 1.767Zm3.627-5.216v1.159c0 .333-.064.68-.193 1.04a4.462 4.462 0 0 1-.517 1.022c-.22.322-.47.599-.75.83l-.954-.62c.208-.314.39-.653.545-1.017.155-.367.233-.782.233-1.244v-1.17h1.636Zm7.704 6.522V31h-2.057v-8.727h1.966v1.483h.102c.201-.489.521-.877.96-1.165.443-.288.991-.432 1.642-.432.602 0 1.127.129 1.574.387.451.257.799.63 1.045 1.119.25.488.374 1.081.37 1.778V31h-2.057v-5.239c0-.583-.152-1.04-.455-1.369-.299-.33-.714-.494-1.244-.494-.36 0-.68.08-.96.238a1.662 1.662 0 0 0-.654.677c-.155.295-.232.653-.232 1.073Zm11.5 5.285c-.853 0-1.591-.188-2.216-.563a3.823 3.823 0 0 1-1.455-1.574c-.341-.674-.511-1.462-.511-2.363 0-.902.17-1.692.511-2.37a3.815 3.815 0 0 1 1.455-1.58c.625-.374 1.363-.562 2.216-.562.852 0 1.59.188 2.215.563a3.775 3.775 0 0 1 1.449 1.58c.345.677.517 1.467.517 2.369 0 .901-.172 1.689-.517 2.363a3.783 3.783 0 0 1-1.449 1.574c-.625.375-1.363.563-2.215.563Zm.011-1.648c.462 0 .848-.127 1.159-.381.311-.258.542-.602.693-1.034.155-.432.233-.913.233-1.443 0-.534-.078-1.017-.233-1.45-.151-.435-.382-.781-.693-1.039-.311-.257-.697-.386-1.159-.386-.474 0-.868.129-1.182.386-.311.258-.544.604-.699 1.04a4.369 4.369 0 0 0-.227 1.449c0 .53.076 1.011.227 1.443.155.432.388.776.699 1.034.314.254.708.38 1.182.38Zm10.274-7.25v1.59h-5.017v-1.59h5.017Zm-3.778-2.091h2.056v8.193c0 .276.042.489.125.636a.679.679 0 0 0 .341.296c.14.053.296.08.466.08.129 0 .246-.01.353-.029.109-.019.193-.036.25-.051l.346 1.608c-.11.038-.267.08-.471.125a3.871 3.871 0 0 1-.739.08 3.355 3.355 0 0 1-1.392-.234 2.163 2.163 0 0 1-.983-.806c-.239-.364-.356-.819-.352-1.364v-8.534ZM674.666 31v-8.727h2.057V31h-2.057Zm1.034-9.966c-.325 0-.606-.108-.841-.324a1.047 1.047 0 0 1-.352-.79c0-.31.118-.573.352-.79.235-.219.516-.329.841-.329.33 0 .61.11.841.33.235.216.352.479.352.79 0 .306-.117.57-.352.79a1.186 1.186 0 0 1-.841.323Zm6.945 10.137c-.871 0-1.619-.192-2.244-.574a3.828 3.828 0 0 1-1.438-1.586c-.333-.678-.5-1.458-.5-2.34 0-.887.171-1.67.511-2.347a3.813 3.813 0 0 1 1.444-1.591c.625-.383 1.363-.574 2.216-.574.708 0 1.335.13 1.88.392.549.258.987.623 1.313 1.097.325.47.511 1.019.557 1.648h-1.966a1.882 1.882 0 0 0-.569-1.052c-.295-.284-.691-.426-1.187-.426-.421 0-.79.114-1.108.341-.318.224-.566.546-.744.966-.175.42-.262.924-.262 1.511 0 .595.087 1.106.262 1.535.174.424.418.751.733.982a1.87 1.87 0 0 0 1.119.341c.303 0 .574-.056.812-.17.243-.118.446-.286.608-.506a1.95 1.95 0 0 0 .336-.801h1.966a3.44 3.44 0 0 1-.546 1.642 3.224 3.224 0 0 1-1.284 1.114c-.542.265-1.178.398-1.909.398Zm9.291 0c-.875 0-1.631-.182-2.267-.546a3.692 3.692 0 0 1-1.46-1.557c-.341-.674-.512-1.468-.512-2.38 0-.898.171-1.686.512-2.364a3.87 3.87 0 0 1 1.443-1.591c.617-.383 1.343-.574 2.176-.574.538 0 1.046.087 1.523.262.481.17.905.435 1.273.795.371.36.662.818.875 1.375.212.553.318 1.212.318 1.977v.63h-7.154v-1.386h5.182a2.211 2.211 0 0 0-.256-1.05 1.854 1.854 0 0 0-.698-.734 1.968 1.968 0 0 0-1.034-.267c-.421 0-.79.103-1.108.307-.319.2-.567.466-.745.796a2.295 2.295 0 0 0-.267 1.073v1.21c0 .508.093.944.279 1.308.185.36.445.636.778.83.333.189.724.283 1.17.283.3 0 .571-.042.813-.125.242-.087.453-.214.631-.38.178-.167.312-.374.403-.62l1.921.216c-.122.508-.353.95-.694 1.33a3.38 3.38 0 0 1-1.295.875c-.527.204-1.129.306-1.807.306Z"/>
  <rect width="320" height="49" x="406" y="1" stroke="#F4CE71" stroke-width="2" rx="24.5"/>
  <rect width="360" height="49" x="406" y="72" fill="#fff" rx="24.5"/>
  <path fill="#1E4460" d="M435.773 91.614v-1.25h8.727v1.25h-3.659V102h-1.409V91.614h-3.659Zm13 10.568c-.788 0-1.479-.188-2.074-.563-.591-.375-1.053-.899-1.387-1.574-.329-.674-.494-1.462-.494-2.363 0-.91.165-1.703.494-2.38.334-.679.796-1.205 1.387-1.58.595-.375 1.286-.563 2.074-.563.788 0 1.477.188 2.068.563.595.375 1.057.901 1.386 1.58.334.677.5 1.47.5 2.38 0 .901-.166 1.69-.5 2.363a3.758 3.758 0 0 1-1.386 1.574c-.591.375-1.28.563-2.068.563Zm0-1.205c.598 0 1.091-.153 1.477-.46a2.72 2.72 0 0 0 .858-1.21c.186-.5.278-1.042.278-1.625 0-.584-.092-1.127-.278-1.63a2.755 2.755 0 0 0-.858-1.223c-.386-.31-.879-.465-1.477-.465-.599 0-1.091.155-1.478.465a2.747 2.747 0 0 0-.857 1.222 4.672 4.672 0 0 0-.279 1.63c0 .584.093 1.126.279 1.626.185.5.471.903.857 1.21.387.307.879.46 1.478.46ZM459.456 102V90.364h1.341v4.295h.114c.098-.151.234-.345.409-.58.178-.238.431-.45.761-.636.333-.19.784-.284 1.352-.284.735 0 1.383.184 1.943.551.561.368.999.889 1.313 1.563.314.674.472 1.47.472 2.386 0 .924-.158 1.725-.472 2.403-.314.675-.75 1.197-1.307 1.569-.557.367-1.199.551-1.926.551-.561 0-1.01-.093-1.347-.279-.337-.189-.596-.403-.778-.642a8.279 8.279 0 0 1-.42-.602h-.16V102h-1.295Zm1.318-4.364c0 .66.097 1.24.29 1.745.193.5.475.892.847 1.176.371.28.825.42 1.363.42.561 0 1.029-.147 1.404-.443.378-.299.662-.7.852-1.205a4.73 4.73 0 0 0 .29-1.693 4.6 4.6 0 0 0-.284-1.659c-.186-.496-.468-.888-.847-1.176-.375-.291-.847-.437-1.415-.437-.545 0-1.004.138-1.375.414-.371.273-.651.656-.841 1.148-.189.489-.284 1.059-.284 1.71Zm13.938.796v-5.16h1.341V102h-1.341v-1.477h-.091c-.205.443-.523.82-.955 1.13-.432.307-.977.461-1.636.461-.546 0-1.03-.12-1.455-.358-.424-.243-.757-.606-1-1.091-.242-.489-.363-1.104-.363-1.847v-5.545h1.341v5.454c0 .637.178 1.144.534 1.523.359.379.818.568 1.375.568.333 0 .672-.085 1.017-.256.348-.17.64-.431.875-.784.238-.352.358-.8.358-1.346Zm3.797 3.568v-8.727h1.34V102h-1.34Zm.681-10.182a.954.954 0 0 1-.676-.267.86.86 0 0 1-.278-.642.86.86 0 0 1 .278-.642.955.955 0 0 1 .676-.267c.262 0 .485.089.671.267a.851.851 0 0 1 .284.642c0 .25-.095.464-.284.642a.934.934 0 0 1-.671.267Zm4.456-1.454V102h-1.341V90.364h1.341Zm5.752 11.818c-.728 0-1.37-.184-1.926-.551-.557-.372-.993-.894-1.307-1.569-.315-.677-.472-1.479-.472-2.403 0-.917.157-1.712.472-2.386.314-.674.752-1.195 1.312-1.563.561-.367 1.209-.55 1.943-.55.569 0 1.018.094 1.347.283.333.186.587.398.761.636.178.235.317.429.415.58h.114v-4.295h1.341V102h-1.296v-1.341h-.159c-.098.159-.238.36-.42.602-.182.239-.442.453-.779.642-.337.186-.786.279-1.346.279Zm.182-1.205c.537 0 .992-.14 1.363-.42.371-.284.654-.676.847-1.176.193-.504.29-1.085.29-1.745 0-.651-.095-1.221-.285-1.71-.189-.492-.469-.875-.84-1.148-.372-.276-.83-.414-1.375-.414-.569 0-1.042.145-1.421.437-.375.288-.657.68-.847 1.176a4.689 4.689 0 0 0-.278 1.66c0 .62.095 1.185.284 1.692.193.504.477.906.852 1.205.379.296.849.443 1.41.443Zm14.505 1.205c-.818 0-1.522-.193-2.113-.58a3.772 3.772 0 0 1-1.364-1.596c-.318-.678-.477-1.453-.477-2.324 0-.886.163-1.669.488-2.347.33-.682.788-1.214 1.375-1.596.591-.387 1.281-.58 2.068-.58.614 0 1.167.114 1.66.341a3.19 3.19 0 0 1 1.21.954c.314.41.509.887.585 1.432h-1.341c-.102-.397-.329-.75-.682-1.056-.348-.311-.818-.466-1.409-.466-.522 0-.981.136-1.375.409-.39.269-.695.65-.915 1.142-.215.488-.323 1.062-.323 1.721 0 .675.106 1.262.318 1.762.216.5.519.888.909 1.164.394.277.856.415 1.386.415.349 0 .665-.06.949-.182.284-.121.525-.295.722-.522.197-.228.337-.5.42-.819h1.341c-.076.516-.263.98-.562 1.393a3.153 3.153 0 0 1-1.177.977c-.484.238-1.049.358-1.693.358Zm8.938 0c-.788 0-1.479-.188-2.074-.563-.591-.375-1.053-.899-1.387-1.574-.329-.674-.494-1.462-.494-2.363 0-.91.165-1.703.494-2.38.334-.679.796-1.205 1.387-1.58.595-.375 1.286-.563 2.074-.563.788 0 1.477.188 2.068.563.595.375 1.057.901 1.386 1.58.334.677.5 1.47.5 2.38 0 .901-.166 1.69-.5 2.363a3.758 3.758 0 0 1-1.386 1.574c-.591.375-1.28.563-2.068.563Zm0-1.205c.598 0 1.091-.153 1.477-.46a2.72 2.72 0 0 0 .858-1.21c.186-.5.278-1.042.278-1.625 0-.584-.092-1.127-.278-1.63a2.755 2.755 0 0 0-.858-1.223c-.386-.31-.879-.465-1.477-.465-.599 0-1.091.155-1.478.465a2.747 2.747 0 0 0-.857 1.222 4.672 4.672 0 0 0-.279 1.63c0 .584.093 1.126.279 1.626.185.5.471.903.857 1.21.387.307.879.46 1.478.46Zm7.342-4.227V102h-1.341v-8.727h1.296v1.363h.113c.205-.443.515-.799.932-1.068.417-.272.955-.409 1.614-.409.591 0 1.108.121 1.551.364a2.45 2.45 0 0 1 1.034 1.09c.246.486.369 1.1.369 1.841V102h-1.341v-5.454c0-.686-.178-1.22-.534-1.603-.356-.386-.844-.58-1.466-.58-.428 0-.81.093-1.147.279a1.988 1.988 0 0 0-.79.813c-.193.356-.29.787-.29 1.295Zm9.359 0V102h-1.34v-8.727h1.295v1.363h.114c.204-.443.515-.799.931-1.068.417-.272.955-.409 1.614-.409.591 0 1.108.121 1.551.364a2.45 2.45 0 0 1 1.034 1.09c.247.486.37 1.1.37 1.841V102h-1.341v-5.454c0-.686-.178-1.22-.534-1.603-.356-.386-.845-.58-1.466-.58a2.34 2.34 0 0 0-1.148.279 1.994 1.994 0 0 0-.79.813c-.193.356-.29.787-.29 1.295Zm11.678 5.432c-.841 0-1.566-.186-2.176-.557a3.744 3.744 0 0 1-1.404-1.568c-.325-.674-.488-1.459-.488-2.353 0-.893.163-1.681.488-2.363.33-.686.788-1.22 1.375-1.602.591-.387 1.281-.58 2.069-.58.454 0 .903.076 1.346.227.443.152.847.398 1.21.739.364.337.654.784.87 1.34.216.558.324 1.243.324 2.058v.568h-6.728v-1.16h5.364c0-.492-.098-.931-.295-1.317a2.232 2.232 0 0 0-.83-.915c-.356-.224-.777-.335-1.261-.335-.534 0-.997.132-1.387.397a2.623 2.623 0 0 0-.892 1.023c-.208.42-.312.871-.312 1.352v.773c0 .66.113 1.218.341 1.676.231.455.551.801.96 1.04.409.235.884.352 1.426.352.352 0 .67-.049.955-.147.287-.103.536-.254.744-.455.208-.205.369-.458.483-.761l1.295.363a2.86 2.86 0 0 1-.687 1.159c-.322.33-.72.587-1.193.773a4.425 4.425 0 0 1-1.597.273Zm9.199 0c-.818 0-1.523-.193-2.114-.58a3.77 3.77 0 0 1-1.363-1.596c-.319-.678-.478-1.453-.478-2.324 0-.886.163-1.669.489-2.347.329-.682.788-1.214 1.375-1.596.591-.387 1.28-.58 2.068-.58a3.91 3.91 0 0 1 1.659.341 3.17 3.17 0 0 1 1.21.954c.315.41.51.887.586 1.432h-1.341c-.103-.397-.33-.75-.682-1.056-.349-.311-.818-.466-1.409-.466-.523 0-.981.136-1.375.409-.39.269-.695.65-.915 1.142-.216.488-.324 1.062-.324 1.721 0 .675.106 1.262.318 1.762.216.5.519.888.909 1.164.394.277.857.415 1.387.415.348 0 .665-.06.949-.182.284-.121.524-.295.721-.522.197-.228.337-.5.421-.819h1.341c-.076.516-.264.98-.563 1.393a3.142 3.142 0 0 1-1.176.977c-.485.238-1.049.358-1.693.358Zm9.187-8.91v1.137h-4.522v-1.136h4.522Zm-3.204-2.09h1.341V99.5c0 .379.055.663.164.852a.853.853 0 0 0 .432.375c.178.061.366.091.563.091.148 0 .269-.007.363-.023l.228-.045.272 1.205c-.09.034-.217.068-.38.102-.163.038-.37.057-.62.057-.378 0-.75-.082-1.113-.245a2.217 2.217 0 0 1-.898-.744c-.235-.333-.352-.754-.352-1.261v-8.682ZM561.805 102v-8.727h1.341V102h-1.341Zm.682-10.182a.953.953 0 0 1-.676-.267.856.856 0 0 1-.278-.642c0-.25.092-.464.278-.642a.953.953 0 0 1 .676-.267c.262 0 .485.089.671.267a.851.851 0 0 1 .284.642c0 .25-.095.464-.284.642a.934.934 0 0 1-.671.267Zm6.661 10.364c-.788 0-1.479-.188-2.074-.563-.591-.375-1.053-.899-1.386-1.574-.33-.674-.495-1.462-.495-2.363 0-.91.165-1.703.495-2.38.333-.679.795-1.205 1.386-1.58.595-.375 1.286-.563 2.074-.563.788 0 1.477.188 2.068.563.595.375 1.057.901 1.386 1.58.334.677.5 1.47.5 2.38 0 .901-.166 1.69-.5 2.363a3.758 3.758 0 0 1-1.386 1.574c-.591.375-1.28.563-2.068.563Zm0-1.205c.598 0 1.091-.153 1.477-.46a2.72 2.72 0 0 0 .858-1.21c.186-.5.278-1.042.278-1.625 0-.584-.092-1.127-.278-1.63a2.755 2.755 0 0 0-.858-1.223c-.386-.31-.879-.465-1.477-.465-.599 0-1.091.155-1.478.465a2.757 2.757 0 0 0-.858 1.222 4.695 4.695 0 0 0-.278 1.63c0 .584.093 1.126.278 1.626.186.5.472.903.858 1.21.387.307.879.46 1.478.46Zm7.342-4.227V102h-1.341v-8.727h1.296v1.363h.113c.205-.443.515-.799.932-1.068.417-.272.955-.409 1.614-.409.591 0 1.108.121 1.551.364a2.45 2.45 0 0 1 1.034 1.09c.246.486.369 1.1.369 1.841V102h-1.341v-5.454c0-.686-.178-1.22-.534-1.603-.356-.386-.844-.58-1.466-.58-.428 0-.81.093-1.147.279a1.988 1.988 0 0 0-.79.813c-.193.356-.29.787-.29 1.295Zm14.2-1.523-1.204.341a2.262 2.262 0 0 0-.335-.585 1.628 1.628 0 0 0-.591-.477c-.25-.125-.57-.188-.961-.188-.534 0-.979.123-1.335.37-.352.242-.528.55-.528.926 0 .333.121.596.363.79.243.193.622.354 1.137.482l1.295.319c.781.189 1.362.479 1.745.869.382.386.573.884.573 1.494 0 .5-.144.947-.431 1.341-.284.394-.682.705-1.194.932-.511.227-1.106.341-1.784.341-.89 0-1.627-.193-2.21-.58-.583-.386-.953-.95-1.108-1.693l1.273-.318c.121.47.35.822.687 1.057.341.235.786.352 1.336.352.625 0 1.121-.133 1.488-.398.371-.269.557-.591.557-.966 0-.303-.106-.556-.318-.761-.212-.208-.538-.364-.977-.466l-1.455-.34c-.799-.19-1.386-.484-1.761-.882-.372-.401-.557-.903-.557-1.505 0-.493.138-.928.415-1.307a2.82 2.82 0 0 1 1.142-.892c.485-.216 1.034-.324 1.647-.324.864 0 1.542.19 2.035.568a3.06 3.06 0 0 1 1.056 1.5Zm6.678 6.773v-8.727h1.341V102h-1.341Zm.682-10.182a.951.951 0 0 1-.676-.267.857.857 0 0 1-.279-.642c0-.25.093-.464.279-.642a.951.951 0 0 1 .676-.267c.261 0 .485.089.67.267.19.178.284.392.284.642s-.094.464-.284.642a.932.932 0 0 1-.67.267Zm4.456 4.932V102h-1.341v-8.727h1.295v1.363h.114c.204-.443.515-.799.932-1.068.416-.272.954-.409 1.613-.409.591 0 1.108.121 1.551.364.444.238.788.602 1.035 1.09.246.486.369 1.1.369 1.841V102h-1.341v-5.454c0-.686-.178-1.22-.534-1.603-.356-.386-.845-.58-1.466-.58a2.34 2.34 0 0 0-1.148.279 2 2 0 0 0-.79.813c-.193.356-.289.787-.289 1.295Zm15.086 5.455a3.546 3.546 0 0 1-1.505-.313 2.58 2.58 0 0 1-1.074-.915c-.265-.401-.398-.886-.398-1.454 0-.5.099-.906.296-1.216.196-.315.46-.56.789-.739a4.15 4.15 0 0 1 1.091-.397c.402-.092.805-.163 1.21-.217.531-.068.961-.119 1.29-.153.334-.038.576-.1.727-.187.156-.088.233-.239.233-.455v-.045c0-.561-.153-.997-.46-1.307-.303-.31-.763-.466-1.38-.466-.641 0-1.143.14-1.506.42-.364.28-.619.58-.767.898l-1.273-.455c.227-.53.53-.943.909-1.238a3.39 3.39 0 0 1 1.25-.625 5.196 5.196 0 0 1 1.341-.182c.28 0 .602.034.966.102.367.065.722.2 1.062.404.345.204.631.513.858.926.228.413.341.966.341 1.659V102h-1.341v-1.182h-.068c-.091.19-.242.392-.454.608-.212.216-.495.4-.847.551-.352.152-.782.228-1.29.228Zm.205-1.205c.53 0 .977-.104 1.341-.312a2.132 2.132 0 0 0 1.113-1.847v-1.227c-.056.068-.181.13-.375.187a6.29 6.29 0 0 1-.659.142 29.56 29.56 0 0 1-1.284.17 5.19 5.19 0 0 0-.977.222 1.681 1.681 0 0 0-.727.45c-.182.196-.273.465-.273.806 0 .466.172.818.517 1.057.348.235.79.352 1.324.352Zm7.584-4.25V102h-1.341v-8.727h1.295v1.363h.114c.204-.443.515-.799.932-1.068.416-.272.954-.409 1.613-.409.591 0 1.108.121 1.551.364.444.238.788.602 1.035 1.09.246.486.369 1.1.369 1.841V102h-1.341v-5.454c0-.686-.178-1.22-.534-1.603-.356-.386-.845-.58-1.466-.58a2.34 2.34 0 0 0-1.148.279 2 2 0 0 0-.79.813c-.193.356-.289.787-.289 1.295Zm16.211 5.42c-.875 0-1.63-.181-2.267-.545a3.692 3.692 0 0 1-1.46-1.557c-.341-.674-.511-1.468-.511-2.38 0-.898.17-1.686.511-2.364a3.87 3.87 0 0 1 1.443-1.591c.618-.383 1.343-.574 2.176-.574a4.41 4.41 0 0 1 1.523.261c.481.17.905.436 1.273.796.371.36.663.818.875 1.375.212.553.318 1.212.318 1.977v.63h-7.153v-1.385h5.181a2.21 2.21 0 0 0-.255-1.052c-.167-.31-.4-.555-.699-.733a1.966 1.966 0 0 0-1.034-.267c-.421 0-.79.103-1.108.307-.318.2-.566.466-.744.796a2.283 2.283 0 0 0-.268 1.073v1.21c0 .508.093.944.279 1.307.185.36.445.637.778.83.334.189.724.284 1.171.284.299 0 .57-.041.812-.125.243-.087.453-.214.631-.381a1.58 1.58 0 0 0 .403-.619l1.921.216a2.991 2.991 0 0 1-.693 1.33 3.392 3.392 0 0 1-1.296.875c-.526.204-1.129.306-1.807.306Zm10.042-8.897v1.59h-5.16v-1.59h5.16Zm-3.87 8.727v-9.551c0-.587.121-1.076.364-1.466.246-.39.576-.682.988-.875a3.21 3.21 0 0 1 1.375-.29c.357 0 .673.029.949.085.277.057.481.108.614.154l-.409 1.59a3.532 3.532 0 0 0-.33-.079 1.987 1.987 0 0 0-.443-.045c-.382 0-.653.093-.812.278-.156.182-.233.443-.233.784V102h-2.063Zm9.901-8.727v1.59h-5.159v-1.59h5.159Zm-3.87 8.727v-9.551c0-.587.122-1.076.364-1.466a2.3 2.3 0 0 1 .989-.875c.413-.193.871-.29 1.375-.29.356 0 .672.029.949.085.276.057.481.108.613.154l-.409 1.59a3.581 3.581 0 0 0-.329-.079 2.002 2.002 0 0 0-.444-.045c-.382 0-.653.093-.812.278-.155.182-.233.443-.233.784V102h-2.063Zm5.481 0v-8.727h2.056V102h-2.056Zm1.034-9.966a1.2 1.2 0 0 1-.841-.324 1.044 1.044 0 0 1-.353-.79c0-.31.118-.573.353-.79.235-.219.515-.329.841-.329.329 0 .61.11.841.33.234.216.352.479.352.79 0 .306-.118.57-.352.79a1.188 1.188 0 0 1-.841.323Zm6.944 10.136c-.871 0-1.619-.191-2.244-.573a3.84 3.84 0 0 1-1.438-1.586c-.333-.678-.5-1.458-.5-2.34 0-.887.171-1.67.512-2.347a3.817 3.817 0 0 1 1.443-1.591c.625-.383 1.364-.574 2.216-.574.708 0 1.335.13 1.881.392.549.258.986.623 1.312 1.097.326.47.511 1.019.557 1.648h-1.966a1.886 1.886 0 0 0-.568-1.052c-.296-.284-.691-.426-1.188-.426-.42 0-.789.114-1.108.341-.318.224-.566.545-.744.966-.174.42-.261.924-.261 1.511 0 .595.087 1.106.261 1.535.174.424.419.751.733.982a1.87 1.87 0 0 0 1.119.341c.303 0 .574-.057.813-.17.242-.118.445-.286.608-.506.163-.22.274-.487.335-.801h1.966a3.418 3.418 0 0 1-.546 1.642 3.222 3.222 0 0 1-1.284 1.114c-.541.265-1.178.397-1.909.397Zm5.428-.17v-8.727h2.057V102h-2.057Zm1.034-9.966a1.2 1.2 0 0 1-.841-.324 1.043 1.043 0 0 1-.352-.79c0-.31.117-.573.352-.79.235-.219.515-.329.841-.329.329 0 .61.11.841.33.235.216.352.479.352.79 0 .306-.117.57-.352.79a1.188 1.188 0 0 1-.841.323Zm7.001 10.136c-.875 0-1.63-.181-2.267-.545a3.692 3.692 0 0 1-1.46-1.557c-.341-.674-.511-1.468-.511-2.38 0-.898.17-1.686.511-2.364a3.87 3.87 0 0 1 1.443-1.591c.618-.383 1.343-.574 2.176-.574a4.41 4.41 0 0 1 1.523.261c.481.17.905.436 1.273.796.371.36.663.818.875 1.375.212.553.318 1.212.318 1.977v.63h-7.153v-1.385h5.181a2.21 2.21 0 0 0-.255-1.052c-.167-.31-.4-.555-.699-.733a1.966 1.966 0 0 0-1.034-.267c-.421 0-.79.103-1.108.307-.318.2-.566.466-.744.796a2.283 2.283 0 0 0-.268 1.073v1.21c0 .508.093.944.279 1.307.185.36.445.637.778.83.334.189.724.284 1.171.284.299 0 .57-.041.812-.125.243-.087.453-.214.631-.381a1.58 1.58 0 0 0 .403-.619l1.921.216a2.991 2.991 0 0 1-.693 1.33 3.392 3.392 0 0 1-1.296.875c-.526.204-1.129.306-1.807.306Zm7.678-5.284V102h-2.057v-8.727h1.966v1.483h.102c.201-.489.521-.877.96-1.165.444-.288.991-.432 1.643-.432.602 0 1.126.129 1.573.386.451.258.8.631 1.046 1.12.25.488.373 1.081.369 1.778V102h-2.057v-5.239c0-.583-.151-1.04-.454-1.369-.299-.33-.714-.494-1.245-.494-.359 0-.679.08-.96.238a1.66 1.66 0 0 0-.653.677c-.155.295-.233.653-.233 1.073Zm12.051-3.613v1.59h-5.017v-1.59h5.017Zm-3.778-2.091h2.056v8.193c0 .276.042.489.125.636a.68.68 0 0 0 .341.296c.14.053.296.079.466.079.129 0 .246-.009.353-.028.109-.019.193-.036.25-.051l.346 1.608c-.11.038-.267.079-.471.125a3.86 3.86 0 0 1-.739.079 3.348 3.348 0 0 1-1.392-.233 2.163 2.163 0 0 1-.983-.806c-.239-.364-.356-.819-.352-1.364v-8.534ZM708.814 102l-2.659-8.727h1.409l1.886 6.681h.091l1.864-6.681h1.432l1.841 6.659h.09l1.887-6.66h1.409L715.405 102h-1.318l-1.909-6.704h-.137L710.132 102h-1.318Zm13.591.205a3.554 3.554 0 0 1-1.506-.313 2.58 2.58 0 0 1-1.074-.915c-.265-.401-.397-.886-.397-1.454 0-.5.098-.906.295-1.216.197-.315.46-.56.79-.739a4.14 4.14 0 0 1 1.091-.397c.401-.092.805-.163 1.21-.217.53-.068.96-.119 1.29-.153.333-.038.575-.1.727-.187.155-.088.233-.239.233-.455v-.045c0-.561-.153-.997-.46-1.307-.303-.31-.764-.466-1.381-.466-.64 0-1.142.14-1.506.42-.363.28-.619.58-.767.898l-1.272-.455c.227-.53.53-.943.909-1.238.382-.3.799-.508 1.25-.625a5.184 5.184 0 0 1 1.341-.182c.28 0 .602.034.965.102.368.065.722.2 1.063.404.345.204.631.513.858.926.227.413.341.966.341 1.659V102h-1.341v-1.182h-.068a2.36 2.36 0 0 1-.455.608c-.212.216-.494.4-.846.551-.353.152-.783.228-1.29.228Zm.204-1.205c.531 0 .978-.104 1.341-.312.368-.209.644-.478.83-.807a2.06 2.06 0 0 0 .284-1.04v-1.227c-.057.068-.182.13-.375.187a6.29 6.29 0 0 1-.659.142 29.629 29.629 0 0 1-1.284.17 5.13 5.13 0 0 0-.978.222 1.687 1.687 0 0 0-.727.45c-.182.196-.273.465-.273.806 0 .466.173.818.518 1.057.348.235.789.352 1.323.352Zm6.794 4.273a2.93 2.93 0 0 1-.608-.057 1.601 1.601 0 0 1-.369-.102l.341-1.182c.326.083.614.113.864.091.25-.023.471-.135.664-.335.197-.197.377-.518.54-.961l.25-.682-3.227-8.772h1.454l2.41 6.954h.09l2.41-6.954h1.454l-3.704 10c-.167.45-.374.824-.62 1.119a2.321 2.321 0 0 1-.858.665 2.643 2.643 0 0 1-1.091.216Z"/>
  <rect width="360" height="49" x="406" y="72" stroke="#F4CE71" stroke-width="2" rx="24.5"/>
  <rect width="465" height="49" x="406" y="143" fill="#fff" rx="24.5"/>
  <path fill="#1E4460" d="M436.409 173v-11.636h3.932c.909 0 1.655.155 2.239.466.583.306 1.015.729 1.295 1.267.28.537.42 1.149.42 1.835 0 .685-.14 1.293-.42 1.824-.28.53-.71.947-1.29 1.25-.579.299-1.32.449-2.221.449h-3.182v-1.273h3.136c.621 0 1.121-.091 1.5-.273.383-.182.659-.439.83-.773.174-.337.261-.738.261-1.204 0-.466-.087-.873-.261-1.222a1.79 1.79 0 0 0-.836-.807c-.382-.193-.888-.289-1.517-.289h-2.477V173h-1.409Zm5.477-5.227L444.75 173h-1.636l-2.819-5.227h1.591Zm8.141 5.409c-.841 0-1.566-.186-2.176-.557a3.744 3.744 0 0 1-1.404-1.568c-.325-.674-.488-1.459-.488-2.352 0-.894.163-1.682.488-2.364.33-.686.788-1.22 1.375-1.602.591-.387 1.281-.58 2.069-.58.454 0 .903.076 1.346.227.443.152.847.398 1.21.739.364.337.654.784.87 1.341.216.557.324 1.242.324 2.057v.568h-6.728v-1.159h5.364c0-.493-.098-.932-.295-1.318a2.226 2.226 0 0 0-.83-.915c-.356-.224-.777-.335-1.261-.335-.534 0-.997.132-1.387.397a2.633 2.633 0 0 0-.892 1.023 3.01 3.01 0 0 0-.312 1.352v.773c0 .659.113 1.218.341 1.676.231.455.551.801.96 1.04.409.235.884.352 1.426.352.352 0 .67-.049.955-.147.287-.103.536-.254.744-.455.208-.205.369-.458.483-.761l1.295.363a2.86 2.86 0 0 1-.687 1.159c-.322.33-.72.587-1.193.773a4.425 4.425 0 0 1-1.597.273Zm9.199 0c-.818 0-1.523-.193-2.114-.58a3.77 3.77 0 0 1-1.363-1.596c-.319-.678-.478-1.453-.478-2.324 0-.887.163-1.669.489-2.347.329-.682.788-1.214 1.375-1.596.591-.387 1.28-.58 2.068-.58.614 0 1.167.114 1.659.341.493.227.896.545 1.21.955.315.409.51.886.586 1.431h-1.341c-.103-.397-.33-.75-.682-1.056-.349-.311-.818-.466-1.409-.466-.523 0-.981.136-1.375.409-.39.269-.695.649-.915 1.142-.216.488-.324 1.062-.324 1.721 0 .675.106 1.262.318 1.762.216.5.519.888.909 1.164.394.277.857.415 1.387.415.348 0 .665-.06.949-.182.284-.121.524-.295.721-.522.197-.228.337-.5.421-.818h1.341a3.114 3.114 0 0 1-.563 1.392 3.142 3.142 0 0 1-1.176.977c-.485.238-1.049.358-1.693.358Zm5.392-.182v-8.727h1.295v1.318h.091c.159-.432.447-.782.864-1.051a2.542 2.542 0 0 1 1.409-.404c.098 0 .222.002.369.006.148.004.26.01.336.017v1.364a3.462 3.462 0 0 0-.313-.051 3.026 3.026 0 0 0-.506-.04c-.424 0-.803.089-1.136.267-.33.174-.591.417-.784.727a1.963 1.963 0 0 0-.284 1.051V173h-1.341Zm11.453-3.568v-5.159h1.341V173h-1.341v-1.477h-.091a2.86 2.86 0 0 1-.954 1.13c-.432.307-.978.461-1.637.461a2.92 2.92 0 0 1-1.454-.358c-.425-.243-.758-.606-1-1.091-.243-.489-.364-1.104-.364-1.847v-5.545h1.341v5.454c0 .637.178 1.144.534 1.523.36.379.818.568 1.375.568.333 0 .672-.085 1.017-.256.349-.17.64-.431.875-.784.239-.352.358-.801.358-1.346Zm3.797 3.568v-8.727h1.341V173h-1.341Zm.682-10.182a.951.951 0 0 1-.676-.267.857.857 0 0 1-.279-.642c0-.25.093-.464.279-.642a.951.951 0 0 1 .676-.267c.261 0 .485.089.67.267.19.178.284.392.284.642s-.094.464-.284.642a.932.932 0 0 1-.67.267Zm6.91 1.455v1.136h-4.522v-1.136h4.522Zm-3.204-2.091h1.341v8.318c0 .379.055.663.164.852a.853.853 0 0 0 .432.375c.178.061.366.091.563.091.147 0 .269-.007.363-.023l.228-.045.272 1.205a2.72 2.72 0 0 1-.38.102c-.163.038-.37.057-.62.057-.378 0-.75-.082-1.113-.245a2.217 2.217 0 0 1-.898-.744c-.235-.333-.352-.754-.352-1.261v-8.682Zm8.787 11c-.841 0-1.567-.186-2.177-.557a3.742 3.742 0 0 1-1.403-1.568c-.326-.674-.489-1.459-.489-2.352 0-.894.163-1.682.489-2.364.33-.686.788-1.22 1.375-1.602.591-.387 1.28-.58 2.068-.58.455 0 .904.076 1.347.227.443.152.846.398 1.21.739.364.337.653.784.869 1.341.216.557.324 1.242.324 2.057v.568h-6.727v-1.159h5.364c0-.493-.099-.932-.296-1.318a2.223 2.223 0 0 0-.829-.915c-.356-.224-.777-.335-1.262-.335-.534 0-.996.132-1.386.397a2.625 2.625 0 0 0-.892 1.023 3.01 3.01 0 0 0-.313 1.352v.773c0 .659.114 1.218.341 1.676.231.455.551.801.96 1.04.41.235.885.352 1.427.352.352 0 .67-.049.954-.147.288-.103.536-.254.744-.455.209-.205.37-.458.483-.761l1.296.363c-.136.44-.366.826-.688 1.159-.322.33-.719.587-1.193.773a4.416 4.416 0 0 1-1.596.273Zm5.653-.182v-8.727h1.295v1.318h.091c.159-.432.447-.782.864-1.051a2.542 2.542 0 0 1 1.409-.404c.099 0 .222.002.369.006.148.004.26.01.336.017v1.364a3.462 3.462 0 0 0-.313-.051 3.017 3.017 0 0 0-.506-.04c-.424 0-.803.089-1.136.267a2.019 2.019 0 0 0-.784.727 1.963 1.963 0 0 0-.284 1.051V173h-1.341Zm12.135-6.773-1.205.341a2.197 2.197 0 0 0-.335-.585 1.63 1.63 0 0 0-.591-.477c-.25-.125-.57-.188-.96-.188-.534 0-.979.123-1.335.37-.352.242-.529.551-.529.926 0 .333.122.596.364.789.242.194.621.355 1.136.483l1.296.319c.78.189 1.362.479 1.744.869.383.386.574.884.574 1.494 0 .5-.144.947-.432 1.341-.284.394-.682.705-1.193.932-.511.227-1.106.341-1.784.341-.89 0-1.627-.193-2.21-.58-.584-.386-.953-.95-1.108-1.693l1.273-.318c.121.47.35.822.687 1.057.341.235.786.352 1.335.352.625 0 1.121-.133 1.489-.398.371-.269.557-.591.557-.966 0-.303-.106-.556-.318-.761-.213-.208-.538-.364-.978-.466l-1.454-.341c-.8-.189-1.387-.483-1.762-.88-.371-.402-.556-.904-.556-1.506 0-.493.138-.928.414-1.307a2.827 2.827 0 0 1 1.142-.892c.485-.216 1.034-.324 1.648-.324.864 0 1.542.189 2.034.568.496.379.849.879 1.057 1.5Zm9.246 6.978a3.554 3.554 0 0 1-1.506-.313 2.58 2.58 0 0 1-1.074-.915c-.265-.401-.398-.886-.398-1.454 0-.5.099-.906.296-1.216.197-.315.46-.561.79-.739.329-.178.693-.31 1.091-.398.401-.09.804-.162 1.21-.215.53-.069.96-.12 1.29-.154.333-.038.575-.1.727-.187.155-.087.233-.239.233-.455v-.045c0-.561-.154-.997-.46-1.307-.303-.311-.764-.466-1.381-.466-.64 0-1.142.14-1.506.42-.363.281-.619.58-.767.898l-1.273-.454c.228-.531.531-.944.91-1.239a3.398 3.398 0 0 1 1.25-.625 5.192 5.192 0 0 1 1.34-.182c.281 0 .603.034.966.102.368.065.722.199 1.063.404.345.204.631.513.858.926.227.413.341.966.341 1.659V173h-1.341v-1.182h-.068a2.36 2.36 0 0 1-.455.608c-.212.216-.494.4-.847.551-.352.152-.782.228-1.289.228Zm.204-1.205c.531 0 .978-.104 1.341-.312.368-.209.644-.478.83-.807.189-.33.284-.676.284-1.04v-1.227c-.057.068-.182.13-.375.187-.19.053-.409.101-.659.142-.247.038-.487.072-.722.102-.231.027-.418.05-.562.069a5.107 5.107 0 0 0-.978.221 1.69 1.69 0 0 0-.727.449c-.182.197-.273.466-.273.807 0 .466.173.818.517 1.057.349.235.79.352 1.324.352Zm7.584-4.25V173h-1.341v-8.727h1.296v1.363h.113c.205-.443.515-.799.932-1.068.417-.273.955-.409 1.614-.409.591 0 1.108.121 1.551.364.443.238.788.602 1.034 1.091.246.484.369 1.098.369 1.841V173h-1.341v-5.455c0-.685-.178-1.219-.534-1.602-.356-.386-.844-.579-1.466-.579-.428 0-.81.092-1.147.278a1.985 1.985 0 0 0-.79.813c-.193.356-.29.787-.29 1.295Zm11.314 5.432c-.727 0-1.369-.184-1.926-.551-.557-.372-.993-.894-1.307-1.569-.314-.678-.472-1.479-.472-2.403 0-.917.158-1.712.472-2.386.314-.675.752-1.195 1.313-1.563.56-.367 1.208-.551 1.943-.551.568 0 1.017.095 1.346.284.334.186.587.398.762.637.178.234.316.428.414.579h.114v-4.295h1.341V173h-1.295v-1.341h-.16c-.098.159-.238.36-.42.602-.182.239-.441.453-.778.642-.338.186-.786.279-1.347.279Zm.182-1.205c.538 0 .992-.14 1.363-.42.372-.284.654-.676.847-1.176.193-.504.29-1.086.29-1.745 0-.651-.095-1.221-.284-1.71-.19-.492-.47-.875-.841-1.148-.371-.276-.83-.414-1.375-.414-.568 0-1.042.145-1.421.437-.375.288-.657.68-.846 1.176a4.67 4.67 0 0 0-.279 1.659c0 .622.095 1.186.284 1.694.194.503.478.905.853 1.204.378.296.848.443 1.409.443Zm14.619 1.205c-.841 0-1.566-.186-2.176-.557a3.736 3.736 0 0 1-1.403-1.568c-.326-.674-.489-1.459-.489-2.352 0-.894.163-1.682.489-2.364.329-.686.787-1.22 1.375-1.602.59-.387 1.28-.58 2.068-.58.454 0 .903.076 1.346.227.444.152.847.398 1.211.739.363.337.653.784.869 1.341.216.557.324 1.242.324 2.057v.568h-6.728v-1.159h5.364c0-.493-.098-.932-.295-1.318a2.226 2.226 0 0 0-.83-.915c-.356-.224-.776-.335-1.261-.335-.534 0-.996.132-1.387.397a2.633 2.633 0 0 0-.892 1.023 3.01 3.01 0 0 0-.312 1.352v.773c0 .659.113 1.218.341 1.676.231.455.551.801.96 1.04.409.235.884.352 1.426.352.352 0 .671-.049.955-.147.288-.103.536-.254.744-.455.208-.205.369-.458.483-.761l1.295.363a2.86 2.86 0 0 1-.687 1.159c-.322.33-.72.587-1.193.773a4.425 4.425 0 0 1-1.597.273Zm5.654-.182v-8.727h1.295v1.363h.114a2.19 2.19 0 0 1 .88-1.085c.406-.261.892-.392 1.461-.392.575 0 1.054.131 1.437.392.386.258.688.619.903 1.085h.091c.224-.45.559-.808 1.006-1.074.447-.268.983-.403 1.608-.403.78 0 1.419.244 1.915.733.496.485.744 1.241.744 2.267V173h-1.341v-5.841c0-.644-.176-1.104-.528-1.381a1.96 1.96 0 0 0-1.245-.414c-.613 0-1.089.185-1.426.556-.337.368-.505.834-.505 1.398V173h-1.364v-5.977c0-.496-.161-.896-.483-1.199-.322-.307-.737-.46-1.244-.46-.349 0-.675.092-.978.278a2.107 2.107 0 0 0-.727.773 2.277 2.277 0 0 0-.273 1.13V173h-1.34Zm13.906 3.273v-12h1.295v1.386h.159c.099-.151.235-.345.409-.579.178-.239.432-.451.762-.637.333-.189.784-.284 1.352-.284.735 0 1.383.184 1.943.551.561.368.998.888 1.313 1.563.314.674.471 1.469.471 2.386 0 .924-.157 1.725-.471 2.403-.315.675-.75 1.197-1.307 1.569-.557.367-1.199.551-1.926.551-.561 0-1.01-.093-1.347-.279-.337-.189-.596-.403-.778-.642a8.677 8.677 0 0 1-.421-.602h-.113v4.614h-1.341Zm1.318-7.637c0 .659.097 1.241.29 1.745.193.5.475.892.846 1.176.372.28.826.42 1.364.42.561 0 1.028-.147 1.403-.443.379-.299.663-.701.853-1.204a4.734 4.734 0 0 0 .289-1.694c0-.613-.094-1.166-.284-1.659-.185-.496-.467-.888-.846-1.176-.375-.292-.847-.437-1.415-.437-.545 0-1.004.138-1.375.414-.371.273-.652.656-.841 1.148-.189.489-.284 1.059-.284 1.71Zm9.773-7.272V173h-1.341v-11.636h1.341Zm6.001 11.818c-.788 0-1.479-.188-2.074-.563-.591-.375-1.053-.899-1.386-1.574-.33-.674-.494-1.462-.494-2.363 0-.909.164-1.703.494-2.381.333-.678.795-1.204 1.386-1.579.595-.375 1.286-.563 2.074-.563.788 0 1.477.188 2.068.563.595.375 1.057.901 1.387 1.579.333.678.5 1.472.5 2.381 0 .901-.167 1.689-.5 2.363-.33.675-.792 1.199-1.387 1.574-.591.375-1.28.563-2.068.563Zm0-1.205c.599 0 1.091-.153 1.477-.46.387-.307.673-.71.858-1.21.186-.5.279-1.042.279-1.625 0-.584-.093-1.127-.279-1.631a2.732 2.732 0 0 0-.858-1.221c-.386-.311-.878-.466-1.477-.466-.598 0-1.091.155-1.477.466-.387.31-.673.717-.858 1.221a4.672 4.672 0 0 0-.279 1.631c0 .583.093 1.125.279 1.625.185.5.471.903.858 1.21.386.307.879.46 1.477.46Zm6.553 4.296c-.228 0-.43-.019-.608-.057a1.63 1.63 0 0 1-.37-.102l.341-1.182c.326.083.614.113.864.091a1.04 1.04 0 0 0 .665-.335c.197-.197.377-.518.539-.961l.25-.682-3.227-8.772h1.455l2.409 6.954h.091l2.409-6.954h1.454l-3.704 10c-.167.45-.373.824-.619 1.119a2.337 2.337 0 0 1-.858.665 2.646 2.646 0 0 1-1.091.216Zm11.389-3.091c-.841 0-1.566-.186-2.176-.557a3.744 3.744 0 0 1-1.404-1.568c-.325-.674-.488-1.459-.488-2.352 0-.894.163-1.682.488-2.364.33-.686.788-1.22 1.375-1.602.591-.387 1.281-.58 2.069-.58.454 0 .903.076 1.346.227.443.152.847.398 1.21.739.364.337.654.784.87 1.341.216.557.324 1.242.324 2.057v.568h-6.728v-1.159h5.364c0-.493-.099-.932-.296-1.318a2.217 2.217 0 0 0-.829-.915c-.356-.224-.777-.335-1.261-.335-.535 0-.997.132-1.387.397a2.625 2.625 0 0 0-.892 1.023 3.01 3.01 0 0 0-.312 1.352v.773c0 .659.113 1.218.341 1.676.231.455.551.801.96 1.04.409.235.884.352 1.426.352.352 0 .67-.049.954-.147.288-.103.536-.254.745-.455.208-.205.369-.458.483-.761l1.295.363a2.86 2.86 0 0 1-.687 1.159 3.35 3.35 0 0 1-1.194.773 4.416 4.416 0 0 1-1.596.273Zm5.653-.182v-8.727h1.296v1.318h.091c.159-.432.447-.782.863-1.051a2.544 2.544 0 0 1 1.409-.404c.099 0 .222.002.37.006.147.004.259.01.335.017v1.364a3.462 3.462 0 0 0-.313-.051 3.014 3.014 0 0 0-.505-.04c-.425 0-.803.089-1.137.267a2.019 2.019 0 0 0-.784.727 1.963 1.963 0 0 0-.284 1.051V173h-1.341Zm12.135-6.773-1.204.341a2.229 2.229 0 0 0-.336-.585 1.617 1.617 0 0 0-.59-.477c-.25-.125-.571-.188-.961-.188-.534 0-.979.123-1.335.37-.352.242-.528.551-.528.926 0 .333.121.596.363.789.243.194.622.355 1.137.483l1.295.319c.78.189 1.362.479 1.744.869.383.386.574.884.574 1.494 0 .5-.144.947-.432 1.341-.284.394-.681.705-1.193.932-.511.227-1.106.341-1.784.341-.89 0-1.627-.193-2.21-.58-.583-.386-.953-.95-1.108-1.693l1.273-.318c.121.47.35.822.687 1.057.341.235.786.352 1.335.352.625 0 1.122-.133 1.489-.398.371-.269.557-.591.557-.966 0-.303-.106-.556-.318-.761-.212-.208-.538-.364-.978-.466l-1.454-.341c-.799-.189-1.386-.483-1.761-.88-.372-.402-.557-.904-.557-1.506 0-.493.138-.928.415-1.307a2.82 2.82 0 0 1 1.142-.892c.484-.216 1.034-.324 1.647-.324.864 0 1.542.189 2.034.568.497.379.849.879 1.057 1.5Zm9.246 6.978a3.554 3.554 0 0 1-1.506-.313 2.592 2.592 0 0 1-1.074-.915c-.265-.401-.397-.886-.397-1.454 0-.5.098-.906.295-1.216.197-.315.46-.561.79-.739.329-.178.693-.31 1.091-.398.401-.09.805-.162 1.21-.215.53-.069.96-.12 1.29-.154.333-.038.576-.1.727-.187.155-.087.233-.239.233-.455v-.045c0-.561-.153-.997-.46-1.307-.303-.311-.763-.466-1.381-.466-.64 0-1.142.14-1.506.42-.363.281-.619.58-.767.898l-1.272-.454c.227-.531.53-.944.909-1.239a3.398 3.398 0 0 1 1.25-.625 5.193 5.193 0 0 1 1.341-.182c.28 0 .602.034.966.102.367.065.721.199 1.062.404.345.204.631.513.858.926.227.413.341.966.341 1.659V173h-1.341v-1.182h-.068a2.36 2.36 0 0 1-.455.608c-.212.216-.494.4-.846.551-.353.152-.782.228-1.29.228Zm.204-1.205c.531 0 .978-.104 1.341-.312.368-.209.644-.478.83-.807.189-.33.284-.676.284-1.04v-1.227c-.057.068-.182.13-.375.187a6.143 6.143 0 0 1-.659.142c-.246.038-.487.072-.722.102-.231.027-.418.05-.562.069a5.097 5.097 0 0 0-.977.221c-.3.099-.542.248-.728.449-.181.197-.272.466-.272.807 0 .466.172.818.517 1.057.348.235.789.352 1.323.352Zm7.584-10.636V173h-1.341v-11.636h1.341Zm8.638 4.863-1.204.341a2.229 2.229 0 0 0-.336-.585 1.63 1.63 0 0 0-.591-.477c-.25-.125-.57-.188-.96-.188-.534 0-.979.123-1.335.37-.352.242-.528.551-.528.926 0 .333.121.596.363.789.243.194.621.355 1.137.483l1.295.319c.78.189 1.362.479 1.744.869.383.386.574.884.574 1.494 0 .5-.144.947-.432 1.341-.284.394-.681.705-1.193.932-.511.227-1.106.341-1.784.341-.89 0-1.627-.193-2.21-.58-.583-.386-.953-.95-1.108-1.693l1.273-.318c.121.47.35.822.687 1.057.341.235.786.352 1.335.352.625 0 1.122-.133 1.489-.398.371-.269.557-.591.557-.966 0-.303-.106-.556-.318-.761-.212-.208-.538-.364-.978-.466l-1.454-.341c-.799-.189-1.387-.483-1.762-.88-.371-.402-.556-.904-.556-1.506 0-.493.138-.928.414-1.307a2.827 2.827 0 0 1 1.142-.892c.485-.216 1.035-.324 1.648-.324.864 0 1.542.189 2.034.568.496.379.849.879 1.057 1.5Zm5.723 6.955c-.788 0-1.479-.188-2.074-.563-.591-.375-1.053-.899-1.386-1.574-.33-.674-.494-1.462-.494-2.363 0-.909.164-1.703.494-2.381.333-.678.795-1.204 1.386-1.579.595-.375 1.286-.563 2.074-.563.788 0 1.477.188 2.068.563.595.375 1.057.901 1.387 1.579.333.678.5 1.472.5 2.381 0 .901-.167 1.689-.5 2.363-.33.675-.792 1.199-1.387 1.574-.591.375-1.28.563-2.068.563Zm0-1.205c.599 0 1.091-.153 1.477-.46.387-.307.673-.71.858-1.21.186-.5.279-1.042.279-1.625 0-.584-.093-1.127-.279-1.631a2.732 2.732 0 0 0-.858-1.221c-.386-.311-.878-.466-1.477-.466-.598 0-1.091.155-1.477.466-.387.31-.673.717-.858 1.221a4.672 4.672 0 0 0-.279 1.631c0 .583.093 1.125.279 1.625.185.5.471.903.858 1.21.386.307.879.46 1.477.46Zm11.842-10.613V173h-1.34v-11.636h1.34ZM672.055 173v-8.727h1.341V173h-1.341Zm.682-10.182a.953.953 0 0 1-.676-.267.856.856 0 0 1-.278-.642c0-.25.092-.464.278-.642a.953.953 0 0 1 .676-.267c.262 0 .485.089.671.267a.851.851 0 0 1 .284.642c0 .25-.095.464-.284.642a.935.935 0 0 1-.671.267Zm10.252 1.455L679.761 173h-1.363l-3.228-8.727h1.455l2.409 6.954h.091l2.409-6.954h1.455Zm5.116 8.909c-.841 0-1.566-.186-2.176-.557a3.736 3.736 0 0 1-1.403-1.568c-.326-.674-.489-1.459-.489-2.352 0-.894.163-1.682.489-2.364.329-.686.787-1.22 1.375-1.602.59-.387 1.28-.58 2.068-.58.454 0 .903.076 1.346.227.444.152.847.398 1.211.739.363.337.653.784.869 1.341.216.557.324 1.242.324 2.057v.568h-6.728v-1.159h5.364c0-.493-.098-.932-.295-1.318a2.226 2.226 0 0 0-.83-.915c-.356-.224-.776-.335-1.261-.335-.534 0-.996.132-1.387.397a2.633 2.633 0 0 0-.892 1.023 3.01 3.01 0 0 0-.312 1.352v.773c0 .659.113 1.218.341 1.676.231.455.551.801.96 1.04.409.235.884.352 1.426.352.352 0 .671-.049.955-.147.288-.103.536-.254.744-.455.208-.205.369-.458.483-.761l1.295.363a2.86 2.86 0 0 1-.687 1.159c-.322.33-.72.587-1.193.773a4.425 4.425 0 0 1-1.597.273Zm13.699 0c-.788 0-1.479-.188-2.074-.563-.591-.375-1.053-.899-1.386-1.574-.33-.674-.495-1.462-.495-2.363 0-.909.165-1.703.495-2.381.333-.678.795-1.204 1.386-1.579.595-.375 1.286-.563 2.074-.563.788 0 1.477.188 2.068.563.595.375 1.057.901 1.387 1.579.333.678.5 1.472.5 2.381 0 .901-.167 1.689-.5 2.363-.33.675-.792 1.199-1.387 1.574-.591.375-1.28.563-2.068.563Zm0-1.205c.598 0 1.091-.153 1.477-.46.387-.307.673-.71.858-1.21.186-.5.279-1.042.279-1.625 0-.584-.093-1.127-.279-1.631a2.732 2.732 0 0 0-.858-1.221c-.386-.311-.879-.466-1.477-.466-.599 0-1.091.155-1.477.466-.387.31-.673.717-.858 1.221a4.672 4.672 0 0 0-.279 1.631c0 .583.093 1.125.279 1.625.185.5.471.903.858 1.21.386.307.878.46 1.477.46Zm7.342-4.227V173h-1.341v-8.727h1.296v1.363h.113c.205-.443.516-.799.932-1.068.417-.273.955-.409 1.614-.409.591 0 1.108.121 1.551.364.443.238.788.602 1.034 1.091.246.484.369 1.098.369 1.841V173h-1.34v-5.455c0-.685-.178-1.219-.535-1.602-.356-.386-.844-.579-1.465-.579-.428 0-.811.092-1.148.278a1.992 1.992 0 0 0-.79.813c-.193.356-.29.787-.29 1.295Zm16.064 5.432c-.788 0-1.479-.188-2.074-.563-.591-.375-1.053-.899-1.386-1.574-.33-.674-.494-1.462-.494-2.363 0-.909.164-1.703.494-2.381.333-.678.795-1.204 1.386-1.579.595-.375 1.286-.563 2.074-.563.788 0 1.478.188 2.068.563.595.375 1.057.901 1.387 1.579.333.678.5 1.472.5 2.381 0 .901-.167 1.689-.5 2.363-.33.675-.792 1.199-1.387 1.574-.59.375-1.28.563-2.068.563Zm0-1.205c.599 0 1.091-.153 1.478-.46a2.71 2.71 0 0 0 .857-1.21c.186-.5.279-1.042.279-1.625 0-.584-.093-1.127-.279-1.631a2.738 2.738 0 0 0-.857-1.221c-.387-.311-.879-.466-1.478-.466-.598 0-1.091.155-1.477.466-.386.31-.672.717-.858 1.221a4.671 4.671 0 0 0-.278 1.631c0 .583.092 1.125.278 1.625.186.5.472.903.858 1.21.386.307.879.46 1.477.46Zm7.343-4.227V173h-1.341v-8.727h1.295v1.363h.114c.204-.443.515-.799.932-1.068.416-.273.954-.409 1.613-.409.591 0 1.108.121 1.551.364.444.238.788.602 1.034 1.091.247.484.37 1.098.37 1.841V173h-1.341v-5.455c0-.685-.178-1.219-.534-1.602-.356-.386-.845-.579-1.466-.579-.428 0-.811.092-1.148.278a1.998 1.998 0 0 0-.79.813c-.193.356-.289.787-.289 1.295Zm9.359-6.386V173h-1.341v-11.636h1.341ZM744.368 173v-8.727h1.341V173h-1.341Zm.682-10.182a.951.951 0 0 1-.676-.267.857.857 0 0 1-.279-.642c0-.25.093-.464.279-.642a.951.951 0 0 1 .676-.267c.261 0 .485.089.67.267.19.178.284.392.284.642s-.094.464-.284.642a.932.932 0 0 1-.67.267Zm4.456 4.932V173h-1.341v-8.727h1.295v1.363h.114c.204-.443.515-.799.932-1.068.416-.273.954-.409 1.613-.409.591 0 1.108.121 1.551.364.444.238.788.602 1.035 1.091.246.484.369 1.098.369 1.841V173h-1.341v-5.455c0-.685-.178-1.219-.534-1.602-.356-.386-.845-.579-1.466-.579-.428 0-.811.092-1.148.278a1.998 1.998 0 0 0-.79.813c-.193.356-.289.787-.289 1.295Zm11.677 5.432c-.841 0-1.566-.186-2.176-.557a3.736 3.736 0 0 1-1.403-1.568c-.326-.674-.489-1.459-.489-2.352 0-.894.163-1.682.489-2.364.329-.686.788-1.22 1.375-1.602.591-.387 1.28-.58 2.068-.58.454 0 .903.076 1.346.227.444.152.847.398 1.211.739.363.337.653.784.869 1.341.216.557.324 1.242.324 2.057v.568h-6.727v-1.159h5.363c0-.493-.098-.932-.295-1.318a2.219 2.219 0 0 0-.83-.915c-.356-.224-.776-.335-1.261-.335-.534 0-.996.132-1.386.397a2.627 2.627 0 0 0-.893 1.023 3.01 3.01 0 0 0-.312 1.352v.773c0 .659.114 1.218.341 1.676.231.455.551.801.96 1.04.409.235.885.352 1.426.352.353 0 .671-.049.955-.147.288-.103.536-.254.744-.455.208-.205.369-.458.483-.761l1.296.363c-.137.44-.366.826-.688 1.159-.322.33-.72.587-1.193.773a4.425 4.425 0 0 1-1.597.273Zm10.154 3.091v-12h1.295v1.386h.159c.099-.151.235-.345.409-.579.178-.239.432-.451.762-.637.333-.189.784-.284 1.352-.284.735 0 1.382.184 1.943.551.561.368.998.888 1.313 1.563.314.674.471 1.469.471 2.386 0 .924-.157 1.725-.471 2.403-.315.675-.75 1.197-1.307 1.569-.557.367-1.199.551-1.926.551-.561 0-1.01-.093-1.347-.279-.337-.189-.597-.403-.778-.642a8.677 8.677 0 0 1-.421-.602h-.113v4.614h-1.341Zm1.318-7.637c0 .659.096 1.241.29 1.745.193.5.475.892.846 1.176.371.28.826.42 1.364.42.56 0 1.028-.147 1.403-.443.379-.299.663-.701.853-1.204a4.734 4.734 0 0 0 .289-1.694c0-.613-.094-1.166-.284-1.659-.185-.496-.468-.888-.846-1.176-.375-.292-.847-.437-1.415-.437-.546 0-1.004.138-1.375.414-.371.273-.652.656-.841 1.148-.189.489-.284 1.059-.284 1.71Zm9.773-7.272V173h-1.341v-11.636h1.341Zm5.024 11.841a3.554 3.554 0 0 1-1.506-.313 2.58 2.58 0 0 1-1.074-.915c-.265-.401-.398-.886-.398-1.454 0-.5.099-.906.296-1.216.197-.315.46-.561.79-.739.329-.178.693-.31 1.091-.398.401-.09.804-.162 1.21-.215.53-.069.96-.12 1.29-.154.333-.038.575-.1.727-.187.155-.087.233-.239.233-.455v-.045c0-.561-.154-.997-.46-1.307-.303-.311-.764-.466-1.381-.466-.64 0-1.142.14-1.506.42-.363.281-.619.58-.767.898l-1.273-.454c.228-.531.531-.944.91-1.239a3.398 3.398 0 0 1 1.25-.625 5.192 5.192 0 0 1 1.34-.182c.281 0 .603.034.966.102.368.065.722.199 1.063.404.345.204.631.513.858.926.227.413.341.966.341 1.659V173h-1.341v-1.182h-.068a2.36 2.36 0 0 1-.455.608c-.212.216-.494.4-.847.551-.352.152-.782.228-1.289.228Zm.204-1.205c.531 0 .978-.104 1.341-.312.368-.209.644-.478.83-.807.189-.33.284-.676.284-1.04v-1.227c-.057.068-.182.13-.375.187-.19.053-.409.101-.659.142-.247.038-.487.072-.722.102-.231.027-.418.05-.562.069a5.107 5.107 0 0 0-.978.221 1.69 1.69 0 0 0-.727.449c-.182.197-.273.466-.273.807 0 .466.173.818.517 1.057.349.235.79.352 1.324.352Zm10.039-7.727v1.136h-4.523v-1.136h4.523Zm-3.205-2.091h1.341v8.318c0 .379.055.663.165.852a.845.845 0 0 0 .432.375c.178.061.365.091.562.091.148 0 .269-.007.364-.023l.227-.045.273 1.205a2.74 2.74 0 0 1-.381.102 2.792 2.792 0 0 1-.619.057 2.7 2.7 0 0 1-1.114-.245 2.217 2.217 0 0 1-.898-.744c-.235-.333-.352-.754-.352-1.261v-8.682Zm9.108 2.091v1.136h-4.705v-1.136h4.705ZM800.303 173v-9.932c0-.5.117-.916.352-1.25a2.19 2.19 0 0 1 .915-.75c.375-.166.77-.25 1.187-.25.33 0 .599.027.807.08.208.053.364.102.466.147l-.387 1.16a5.62 5.62 0 0 0-.284-.086 1.721 1.721 0 0 0-.466-.051c-.443 0-.763.112-.96.335-.193.224-.29.552-.29.983V173h-1.34Zm8.36.182c-.788 0-1.479-.188-2.074-.563-.59-.375-1.053-.899-1.386-1.574-.329-.674-.494-1.462-.494-2.363 0-.909.165-1.703.494-2.381.333-.678.796-1.204 1.386-1.579.595-.375 1.286-.563 2.074-.563.788 0 1.478.188 2.069.563.594.375 1.056.901 1.386 1.579.333.678.5 1.472.5 2.381 0 .901-.167 1.689-.5 2.363a3.772 3.772 0 0 1-1.386 1.574c-.591.375-1.281.563-2.069.563Zm0-1.205c.599 0 1.091-.153 1.478-.46a2.72 2.72 0 0 0 .858-1.21c.185-.5.278-1.042.278-1.625 0-.584-.093-1.127-.278-1.631a2.748 2.748 0 0 0-.858-1.221c-.387-.311-.879-.466-1.478-.466-.598 0-1.091.155-1.477.466-.386.31-.672.717-.858 1.221a4.695 4.695 0 0 0-.278 1.631c0 .583.093 1.125.278 1.625.186.5.472.903.858 1.21.386.307.879.46 1.477.46Zm6.002 1.023v-8.727h1.295v1.318h.091c.159-.432.447-.782.864-1.051a2.54 2.54 0 0 1 1.409-.404c.098 0 .221.002.369.006s.26.01.335.017v1.364a3.351 3.351 0 0 0-.312-.051 3.026 3.026 0 0 0-.506-.04c-.424 0-.803.089-1.136.267a1.954 1.954 0 0 0-1.068 1.778V173h-1.341Zm5.953 0v-8.727h1.295v1.363h.114c.182-.466.475-.827.881-1.085.405-.261.892-.392 1.46-.392.576 0 1.055.131 1.437.392.387.258.688.619.904 1.085h.091c.223-.45.558-.808 1.005-1.074.447-.268.983-.403 1.608-.403.781 0 1.419.244 1.915.733.496.485.744 1.241.744 2.267V173h-1.34v-5.841c0-.644-.177-1.104-.529-1.381a1.957 1.957 0 0 0-1.244-.414c-.614 0-1.089.185-1.426.556-.337.368-.506.834-.506 1.398V173h-1.364v-5.977c0-.496-.161-.896-.483-1.199-.322-.307-.736-.46-1.244-.46-.348 0-.674.092-.977.278a2.1 2.1 0 0 0-.727.773 2.277 2.277 0 0 0-.273 1.13V173h-1.341Zm20.088-6.773-1.205.341a2.197 2.197 0 0 0-.335-.585 1.63 1.63 0 0 0-.591-.477c-.25-.125-.57-.188-.96-.188-.534 0-.979.123-1.335.37-.352.242-.529.551-.529.926 0 .333.122.596.364.789.242.194.621.355 1.136.483l1.296.319c.78.189 1.362.479 1.744.869.383.386.574.884.574 1.494 0 .5-.144.947-.432 1.341-.284.394-.682.705-1.193.932-.511.227-1.106.341-1.784.341-.89 0-1.627-.193-2.21-.58-.584-.386-.953-.95-1.108-1.693l1.273-.318c.121.47.35.822.687 1.057.341.235.786.352 1.335.352.625 0 1.121-.133 1.489-.398.371-.269.557-.591.557-.966 0-.303-.106-.556-.318-.761-.213-.208-.538-.364-.978-.466l-1.454-.341c-.8-.189-1.387-.483-1.762-.88-.371-.402-.556-.904-.556-1.506 0-.493.138-.928.414-1.307a2.827 2.827 0 0 1 1.142-.892c.485-.216 1.034-.324 1.648-.324.864 0 1.542.189 2.034.568.496.379.849.879 1.057 1.5Z"/>
  <rect width="465" height="49" x="406" y="143" stroke="#F4CE71" stroke-width="2" rx="24.5"/>
  <path fill="#F4CE71" d="M280 96a1 1 0 0 0 0 2v-2Zm121.707-69.793a1 1 0 0 0 0-1.414l-6.364-6.364a1 1 0 1 0-1.414 1.414l5.657 5.657-5.657 5.657a1 1 0 1 0 1.414 1.414l6.364-6.364ZM280 98h21v-2h-21v2Zm46-25V49.5h-2V73h2Zm23-46.5h52v-2h-52v2Zm-23 23c0-12.703 10.297-23 23-23v-2c-13.807 0-25 11.193-25 25h2ZM301 98c13.807 0 25-11.193 25-25h-2c0 12.703-10.297 23-23 23v2Z"/>
  <path fill="#F4CE71" d="M280 96a1 1 0 0 0 0 2v-2Zm121.707 72.207a.999.999 0 0 0 0-1.414l-6.364-6.364a.999.999 0 1 0-1.414 1.414l5.657 5.657-5.657 5.657a.999.999 0 1 0 1.414 1.414l6.364-6.364ZM280 98h17v-2h-17v2Zm40 23v22.5h2V121h-2Zm25 47.5h56v-2h-56v2Zm-25-25c0 13.807 11.193 25 25 25v-2c-12.703 0-23-10.297-23-23h-2ZM297 98c12.703 0 23 10.297 23 23h2c0-13.807-11.193-25-25-25v2Z"/>
  <path fill="#F4CE71" d="M280 96a1 1 0 0 0 0 2v-2Zm121.707 1.707a1 1 0 0 0 0-1.414l-6.364-6.364a1 1 0 1 0-1.414 1.414L399.586 97l-5.657 5.657a.999.999 0 1 0 1.414 1.414l6.364-6.364ZM280 98h121v-2H280v2Z"/>
</svg>
